%TF.GenerationSoftware,KiCad,Pcbnew,10.0.4*%
%TF.CreationDate,2026-08-21T01:30:42+07:00*%
%TF.ProjectId,gpio_breakout,6770696f-5f62-4726-9561-6b6f75742e6b,rev?*%
%TF.SameCoordinates,Original*%
%TF.FileFunction,Copper,L4,Bot*%
%TF.FilePolarity,Positive*%
%FSLAX46Y46*%
G04 Gerber Fmt 4.6, Leading zero omitted, Abs format (unit mm)*
G04 Created by KiCad (PCBNEW 10.0.4) date 2026-08-21 01:30:42*
%MOMM*%
%LPD*%
G01*
G04 APERTURE LIST*
%TA.AperFunction,ComponentPad*%
%ADD10R,1.700000X1.700000*%
%TD*%
%TA.AperFunction,ComponentPad*%
%ADD11C,1.700000*%
%TD*%
%TA.AperFunction,ViaPad*%
%ADD12C,0.600000*%
%TD*%
%TA.AperFunction,Conductor*%
%ADD13C,0.300000*%
%TD*%
%TA.AperFunction,Conductor*%
%ADD14C,0.200000*%
%TD*%
G04 APERTURE END LIST*
D10*
%TO.P,J2,1*%
%TO.N,+3V3*%
X56900000Y-71200000D03*
D11*
%TO.P,J2,2*%
%TO.N,+5V*%
X56900000Y-68660000D03*
%TO.P,J2,3*%
%TO.N,GPIO2*%
X59440000Y-71200000D03*
%TO.P,J2,4*%
%TO.N,+5V*%
X59440000Y-68660000D03*
%TO.P,J2,5*%
%TO.N,GPIO3*%
X61980000Y-71200000D03*
%TO.P,J2,6*%
%TO.N,GND*%
X61980000Y-68660000D03*
%TO.P,J2,7*%
%TO.N,GPIO4*%
X64520000Y-71200000D03*
%TO.P,J2,8*%
%TO.N,GPIO14*%
X64520000Y-68660000D03*
%TO.P,J2,9*%
%TO.N,GND*%
X67060000Y-71200000D03*
%TO.P,J2,10*%
%TO.N,GPIO15*%
X67060000Y-68660000D03*
%TO.P,J2,11*%
%TO.N,GPIO17*%
X69600000Y-71200000D03*
%TO.P,J2,12*%
%TO.N,GPIO18*%
X69600000Y-68660000D03*
%TO.P,J2,13*%
%TO.N,GPIO27*%
X72140000Y-71200000D03*
%TO.P,J2,14*%
%TO.N,GND*%
X72140000Y-68660000D03*
%TO.P,J2,15*%
%TO.N,GPIO22*%
X74680000Y-71200000D03*
%TO.P,J2,16*%
%TO.N,GPIO23*%
X74680000Y-68660000D03*
%TO.P,J2,17*%
%TO.N,+3V3*%
X77220000Y-71200000D03*
%TO.P,J2,18*%
%TO.N,GPIO24*%
X77220000Y-68660000D03*
%TO.P,J2,19*%
%TO.N,GPIO10*%
X79760000Y-71200000D03*
%TO.P,J2,20*%
%TO.N,GND*%
X79760000Y-68660000D03*
%TO.P,J2,21*%
%TO.N,GPIO9*%
X82300000Y-71200000D03*
%TO.P,J2,22*%
%TO.N,GPIO25*%
X82300000Y-68660000D03*
%TO.P,J2,23*%
%TO.N,GPIO11*%
X84840000Y-71200000D03*
%TO.P,J2,24*%
%TO.N,GPIO8*%
X84840000Y-68660000D03*
%TO.P,J2,25*%
%TO.N,GND*%
X87380000Y-71200000D03*
%TO.P,J2,26*%
%TO.N,GPIO7*%
X87380000Y-68660000D03*
%TO.P,J2,27*%
%TO.N,ID_SD*%
X89920000Y-71200000D03*
%TO.P,J2,28*%
%TO.N,ID_SC*%
X89920000Y-68660000D03*
%TO.P,J2,29*%
%TO.N,GPIO5*%
X92460000Y-71200000D03*
%TO.P,J2,30*%
%TO.N,GND*%
X92460000Y-68660000D03*
%TO.P,J2,31*%
%TO.N,GPIO6*%
X95000000Y-71200000D03*
%TO.P,J2,32*%
%TO.N,GPIO12*%
X95000000Y-68660000D03*
%TO.P,J2,33*%
%TO.N,GPIO13*%
X97540000Y-71200000D03*
%TO.P,J2,34*%
%TO.N,GND*%
X97540000Y-68660000D03*
%TO.P,J2,35*%
%TO.N,GPIO19*%
X100080000Y-71200000D03*
%TO.P,J2,36*%
%TO.N,GPIO16*%
X100080000Y-68660000D03*
%TO.P,J2,37*%
%TO.N,GPIO26*%
X102620000Y-71200000D03*
%TO.P,J2,38*%
%TO.N,GPIO20*%
X102620000Y-68660000D03*
%TO.P,J2,39*%
%TO.N,GND*%
X105160000Y-71200000D03*
%TO.P,J2,40*%
%TO.N,GPIO21*%
X105160000Y-68660000D03*
%TD*%
D12*
%TO.N,PANEL_ID0*%
X77861100Y-55764200D03*
X71044000Y-70103900D03*
%TO.N,+3V3*%
X53717900Y-68965000D03*
%TO.N,+3V3_FFC*%
X56400000Y-52700000D03*
X56400000Y-64599999D03*
%TO.N,+5V_FFC*%
X55200000Y-54200000D03*
X55600000Y-61200000D03*
%TO.N,GPIO2*%
X89932800Y-57729100D03*
%TO.N,GPIO3*%
X78482700Y-67129800D03*
%TO.N,GND*%
X84250000Y-55600000D03*
X86750000Y-55600000D03*
X88250000Y-55600000D03*
X78750000Y-55600000D03*
X81250000Y-55600000D03*
X76250000Y-55600000D03*
%TO.N,GPIO4*%
X75069000Y-66191000D03*
%TO.N,GPIO14*%
X60738200Y-65887700D03*
X74426300Y-54227800D03*
%TO.N,GPIO15*%
X73995300Y-65650500D03*
%TO.N,GPIO27*%
X88744800Y-59379400D03*
X85546500Y-55603800D03*
%TO.N,GPIO22*%
X83273800Y-55375600D03*
%TO.N,GPIO23*%
X81725400Y-60240000D03*
%TO.N,GPIO24*%
X82334300Y-57883100D03*
%TO.N,GPIO10*%
X79873400Y-61395400D03*
X79967700Y-67127700D03*
%TO.N,GPIO9*%
X85772600Y-64712700D03*
X81154600Y-58535900D03*
%TO.N,GPIO25*%
X91915600Y-63610500D03*
X80248400Y-55296100D03*
%TO.N,GPIO11*%
X80158400Y-58576200D03*
X86562300Y-65856900D03*
%TO.N,GPIO8*%
X79737500Y-59940200D03*
%TO.N,GPIO7*%
X78935700Y-60111800D03*
%TO.N,ID_SD*%
X77751200Y-57875400D03*
%TO.N,ID_SC*%
X75771700Y-59695600D03*
%TO.N,GPIO5*%
X76716800Y-66856900D03*
X76463200Y-57653900D03*
%TO.N,GPIO6*%
X75661300Y-57632800D03*
%TO.N,GPIO12*%
X75649200Y-58473200D03*
%TO.N,GPIO13*%
X74510600Y-55537900D03*
%TO.N,PANEL_ID1*%
X91713500Y-56835200D03*
X99011400Y-76489100D03*
X73679300Y-57701400D03*
%TO.N,GPIO19*%
X71969500Y-55320700D03*
X92697400Y-61249000D03*
%TO.N,GPIO16*%
X72606700Y-54674400D03*
%TO.N,GPIO26*%
X76213600Y-60753300D03*
%TO.N,GPIO20*%
X69479200Y-57374500D03*
%TO.N,LCD_INS*%
X103147200Y-77345400D03*
X68977200Y-54171500D03*
%TO.N,GPIO21*%
X69807700Y-54862800D03*
%TD*%
%TO.N,+3V3_FFC*%
D13*
X56400000Y-52700000D02*
X56400000Y-64599999D01*
%TO.N,+5V_FFC*%
X55200000Y-54200000D02*
X55600000Y-54600000D01*
X55600000Y-54600000D02*
X55600000Y-61200000D01*
%TO.N,GPIO3*%
D14*
X77678700Y-72393800D02*
X78482700Y-71589800D01*
X63173800Y-72393800D02*
X77678700Y-72393800D01*
X61980000Y-71200000D02*
X63173800Y-72393800D01*
X78482700Y-71589800D02*
X78482700Y-67129800D01*
%TO.N,GPIO14*%
X64520000Y-68660000D02*
X61747700Y-65887700D01*
X61747700Y-65887700D02*
X60738200Y-65887700D01*
%TO.N,GPIO22*%
X83273800Y-55375600D02*
X82250500Y-56398900D01*
X73393600Y-69913600D02*
X74680000Y-71200000D01*
X82250500Y-56398900D02*
X74124100Y-56398900D01*
X73072000Y-58176400D02*
X73393600Y-58498000D01*
X73072000Y-57451000D02*
X73072000Y-58176400D01*
X73393600Y-58498000D02*
X73393600Y-69913600D01*
X74124100Y-56398900D02*
X73072000Y-57451000D01*
%TO.N,GPIO23*%
X81725400Y-60930300D02*
X81725400Y-60240000D01*
X74680000Y-67975700D02*
X81725400Y-60930300D01*
X74680000Y-68660000D02*
X74680000Y-67975700D01*
%TO.N,GPIO10*%
X80911700Y-68071700D02*
X79967700Y-67127700D01*
X80911700Y-70048300D02*
X80911700Y-68071700D01*
X79760000Y-71200000D02*
X80911700Y-70048300D01*
%TO.N,ID_SC*%
X89920000Y-68660000D02*
X89920000Y-67583700D01*
X89920000Y-67583700D02*
X81674800Y-59338500D01*
X76128800Y-59338500D02*
X75771700Y-59695600D01*
X81674800Y-59338500D02*
X76128800Y-59338500D01*
%TO.N,GPIO5*%
X89644100Y-70048300D02*
X88531700Y-68935900D01*
X86930800Y-66526000D02*
X77047700Y-66526000D01*
X92460000Y-71200000D02*
X91308300Y-70048300D01*
X77047700Y-66526000D02*
X76716800Y-66856900D01*
X88531700Y-68935900D02*
X88531700Y-68126900D01*
X88531700Y-68126900D02*
X86930800Y-66526000D01*
X91308300Y-70048300D02*
X89644100Y-70048300D01*
%TO.N,GPIO12*%
X77064900Y-57903100D02*
X76494800Y-58473200D01*
X77064900Y-57708500D02*
X77064900Y-57903100D01*
X77500900Y-57272500D02*
X77064900Y-57708500D01*
X95000000Y-68660000D02*
X83612500Y-57272500D01*
X76494800Y-58473200D02*
X75649200Y-58473200D01*
X83612500Y-57272500D02*
X77500900Y-57272500D01*
%TO.N,PANEL_ID1*%
X74545500Y-56835200D02*
X91713500Y-56835200D01*
X73679300Y-57701400D02*
X74545500Y-56835200D01*
%TO.N,GPIO19*%
X74176200Y-53612200D02*
X89364700Y-53612200D01*
X89364700Y-53612200D02*
X92697400Y-56944900D01*
X71969500Y-55320700D02*
X72838700Y-55320700D01*
X72838700Y-55320700D02*
X73392600Y-54766800D01*
X92697400Y-56944900D02*
X92697400Y-61249000D01*
X73392600Y-54395800D02*
X74176200Y-53612200D01*
X73392600Y-54766800D02*
X73392600Y-54395800D01*
%TD*%
%TA.AperFunction,Conductor*%
%TO.N,GND*%
G36*
X79370529Y-66896185D02*
G01*
X79416284Y-66948989D01*
X79426228Y-67018147D01*
X79423264Y-67032595D01*
X79417200Y-67055223D01*
X79417200Y-67055225D01*
X79417200Y-67200175D01*
X79443254Y-67297408D01*
X79454717Y-67340188D01*
X79527188Y-67465711D01*
X79527190Y-67465713D01*
X79527191Y-67465715D01*
X79629685Y-67568209D01*
X79629686Y-67568210D01*
X79629688Y-67568211D01*
X79755211Y-67640682D01*
X79755212Y-67640682D01*
X79755215Y-67640684D01*
X79895225Y-67678200D01*
X79971156Y-67678200D01*
X80038195Y-67697885D01*
X80058837Y-67714519D01*
X80524881Y-68180563D01*
X80558366Y-68241886D01*
X80561200Y-68268244D01*
X80561200Y-69851755D01*
X80541515Y-69918794D01*
X80524881Y-69939436D01*
X80312969Y-70151347D01*
X80251646Y-70184832D01*
X80186970Y-70181597D01*
X80017698Y-70126597D01*
X79886271Y-70105781D01*
X79846611Y-70099500D01*
X79673389Y-70099500D01*
X79633728Y-70105781D01*
X79502302Y-70126597D01*
X79502299Y-70126598D01*
X79349106Y-70176374D01*
X79337552Y-70180128D01*
X79183211Y-70258768D01*
X79131921Y-70296033D01*
X79043072Y-70360586D01*
X79043070Y-70360588D01*
X79039368Y-70363750D01*
X79038224Y-70362411D01*
X78983558Y-70392262D01*
X78913866Y-70387278D01*
X78857933Y-70345406D01*
X78833516Y-70279942D01*
X78833200Y-70271096D01*
X78833200Y-67609186D01*
X78852885Y-67542147D01*
X78869519Y-67521505D01*
X78873909Y-67517115D01*
X78923209Y-67467815D01*
X78995684Y-67342285D01*
X79033200Y-67202275D01*
X79033200Y-67057325D01*
X79026573Y-67032592D01*
X79027168Y-67007598D01*
X79023610Y-66982853D01*
X79027985Y-66973272D01*
X79028236Y-66962743D01*
X79042249Y-66942038D01*
X79052635Y-66919297D01*
X79061495Y-66913603D01*
X79067399Y-66904880D01*
X79090382Y-66895038D01*
X79111413Y-66881523D01*
X79127270Y-66879243D01*
X79131628Y-66877377D01*
X79146348Y-66876500D01*
X79303490Y-66876500D01*
X79370529Y-66896185D01*
G37*
%TD.AperFunction*%
%TA.AperFunction,Conductor*%
G36*
X89235195Y-53982385D02*
G01*
X89255837Y-53999019D01*
X91436208Y-56179390D01*
X91469693Y-56240713D01*
X91464709Y-56310405D01*
X91422837Y-56366338D01*
X91410530Y-56374456D01*
X91375491Y-56394687D01*
X91375482Y-56394693D01*
X91321795Y-56448381D01*
X91260472Y-56481866D01*
X91234114Y-56484700D01*
X82959744Y-56484700D01*
X82892705Y-56465015D01*
X82846950Y-56412211D01*
X82837006Y-56343053D01*
X82866031Y-56279497D01*
X82872063Y-56273019D01*
X83182663Y-55962419D01*
X83243986Y-55928934D01*
X83270344Y-55926100D01*
X83346272Y-55926100D01*
X83346275Y-55926100D01*
X83486285Y-55888584D01*
X83611815Y-55816109D01*
X83714309Y-55713615D01*
X83786784Y-55588085D01*
X83801993Y-55531325D01*
X84996000Y-55531325D01*
X84996000Y-55676275D01*
X85033516Y-55816285D01*
X85033517Y-55816288D01*
X85105988Y-55941811D01*
X85105990Y-55941813D01*
X85105991Y-55941815D01*
X85208485Y-56044309D01*
X85208486Y-56044310D01*
X85208488Y-56044311D01*
X85334011Y-56116782D01*
X85334012Y-56116782D01*
X85334015Y-56116784D01*
X85474025Y-56154300D01*
X85474028Y-56154300D01*
X85618972Y-56154300D01*
X85618975Y-56154300D01*
X85758985Y-56116784D01*
X85884515Y-56044309D01*
X85987009Y-55941815D01*
X86059484Y-55816285D01*
X86097000Y-55676275D01*
X86097000Y-55531325D01*
X86059484Y-55391315D01*
X86052406Y-55379056D01*
X85987011Y-55265788D01*
X85987006Y-55265782D01*
X85884517Y-55163293D01*
X85884511Y-55163288D01*
X85758988Y-55090817D01*
X85758989Y-55090817D01*
X85747506Y-55087740D01*
X85618975Y-55053300D01*
X85474025Y-55053300D01*
X85345493Y-55087740D01*
X85334011Y-55090817D01*
X85208488Y-55163288D01*
X85208482Y-55163293D01*
X85105993Y-55265782D01*
X85105988Y-55265788D01*
X85033517Y-55391311D01*
X85033516Y-55391315D01*
X84996000Y-55531325D01*
X83801993Y-55531325D01*
X83824300Y-55448075D01*
X83824300Y-55303125D01*
X83786784Y-55163115D01*
X83755087Y-55108215D01*
X83714311Y-55037588D01*
X83714306Y-55037582D01*
X83611817Y-54935093D01*
X83611811Y-54935088D01*
X83486288Y-54862617D01*
X83486289Y-54862617D01*
X83460075Y-54855593D01*
X83346275Y-54825100D01*
X83201325Y-54825100D01*
X83087525Y-54855593D01*
X83061311Y-54862617D01*
X82935788Y-54935088D01*
X82935782Y-54935093D01*
X82833293Y-55037582D01*
X82833288Y-55037588D01*
X82760817Y-55163111D01*
X82760816Y-55163115D01*
X82723300Y-55303125D01*
X82723300Y-55303127D01*
X82723300Y-55379056D01*
X82703615Y-55446095D01*
X82686981Y-55466737D01*
X82141637Y-56012081D01*
X82080314Y-56045566D01*
X82053956Y-56048400D01*
X80506515Y-56048400D01*
X80439476Y-56028715D01*
X80393721Y-55975911D01*
X80383777Y-55906753D01*
X80412802Y-55843197D01*
X80454031Y-55813467D01*
X80453847Y-55813148D01*
X80456998Y-55811328D01*
X80459067Y-55809837D01*
X80460879Y-55809085D01*
X80460885Y-55809084D01*
X80586415Y-55736609D01*
X80688909Y-55634115D01*
X80761384Y-55508585D01*
X80798900Y-55368575D01*
X80798900Y-55223625D01*
X80761384Y-55083615D01*
X80756576Y-55075288D01*
X80688911Y-54958088D01*
X80688906Y-54958082D01*
X80586417Y-54855593D01*
X80586411Y-54855588D01*
X80460888Y-54783117D01*
X80460889Y-54783117D01*
X80449406Y-54780040D01*
X80320875Y-54745600D01*
X80175925Y-54745600D01*
X80047393Y-54780040D01*
X80035911Y-54783117D01*
X79910388Y-54855588D01*
X79910382Y-54855593D01*
X79807893Y-54958082D01*
X79807888Y-54958088D01*
X79735417Y-55083611D01*
X79735416Y-55083615D01*
X79697900Y-55223625D01*
X79697900Y-55368575D01*
X79723852Y-55465427D01*
X79735417Y-55508588D01*
X79807888Y-55634111D01*
X79807890Y-55634113D01*
X79807891Y-55634115D01*
X79910385Y-55736609D01*
X79910386Y-55736610D01*
X79910388Y-55736611D01*
X80035911Y-55809082D01*
X80035912Y-55809082D01*
X80035915Y-55809084D01*
X80035917Y-55809084D01*
X80037733Y-55809837D01*
X80039034Y-55810885D01*
X80042953Y-55813148D01*
X80042600Y-55813758D01*
X80092138Y-55853676D01*
X80114206Y-55919969D01*
X80096929Y-55987669D01*
X80045794Y-56035282D01*
X79990285Y-56048400D01*
X78516468Y-56048400D01*
X78449429Y-56028715D01*
X78403674Y-55975911D01*
X78393730Y-55906753D01*
X78396691Y-55892314D01*
X78411600Y-55836675D01*
X78411600Y-55691725D01*
X78374084Y-55551715D01*
X78363387Y-55533188D01*
X78301611Y-55426188D01*
X78301606Y-55426182D01*
X78199117Y-55323693D01*
X78199111Y-55323688D01*
X78073588Y-55251217D01*
X78073589Y-55251217D01*
X78062106Y-55248140D01*
X77933575Y-55213700D01*
X77788625Y-55213700D01*
X77660093Y-55248140D01*
X77648611Y-55251217D01*
X77523088Y-55323688D01*
X77523082Y-55323693D01*
X77420593Y-55426182D01*
X77420588Y-55426188D01*
X77348117Y-55551711D01*
X77348116Y-55551715D01*
X77310600Y-55691725D01*
X77310600Y-55836675D01*
X77325506Y-55892307D01*
X77323844Y-55962156D01*
X77284682Y-56020019D01*
X77220453Y-56047523D01*
X77205732Y-56048400D01*
X75066299Y-56048400D01*
X74999260Y-56028715D01*
X74953505Y-55975911D01*
X74943561Y-55906753D01*
X74958912Y-55862400D01*
X74985535Y-55816288D01*
X75023584Y-55750385D01*
X75061100Y-55610375D01*
X75061100Y-55465425D01*
X75023584Y-55325415D01*
X75010822Y-55303311D01*
X74951111Y-55199888D01*
X74951106Y-55199882D01*
X74848617Y-55097393D01*
X74848611Y-55097388D01*
X74723088Y-55024917D01*
X74723089Y-55024917D01*
X74597742Y-54991330D01*
X74538081Y-54954964D01*
X74507553Y-54892117D01*
X74515848Y-54822742D01*
X74560334Y-54768864D01*
X74597738Y-54751782D01*
X74638785Y-54740784D01*
X74764315Y-54668309D01*
X74866809Y-54565815D01*
X74939284Y-54440285D01*
X74976800Y-54300275D01*
X74976800Y-54155325D01*
X74967011Y-54118792D01*
X74968674Y-54048943D01*
X75007837Y-53991081D01*
X75072065Y-53963577D01*
X75086786Y-53962700D01*
X89168156Y-53962700D01*
X89235195Y-53982385D01*
G37*
%TD.AperFunction*%
%TA.AperFunction,Conductor*%
G36*
X112942539Y-50520185D02*
G01*
X112988294Y-50572989D01*
X112999500Y-50624500D01*
X112999500Y-81375500D01*
X112979815Y-81442539D01*
X112927011Y-81488294D01*
X112875500Y-81499500D01*
X50624500Y-81499500D01*
X50557461Y-81479815D01*
X50511706Y-81427011D01*
X50500500Y-81375500D01*
X50500500Y-77272925D01*
X102596700Y-77272925D01*
X102596700Y-77417875D01*
X102634216Y-77557885D01*
X102634217Y-77557888D01*
X102706688Y-77683411D01*
X102706690Y-77683413D01*
X102706691Y-77683415D01*
X102809185Y-77785909D01*
X102809186Y-77785910D01*
X102809188Y-77785911D01*
X102934711Y-77858382D01*
X102934712Y-77858382D01*
X102934715Y-77858384D01*
X103074725Y-77895900D01*
X103074728Y-77895900D01*
X103219672Y-77895900D01*
X103219675Y-77895900D01*
X103359685Y-77858384D01*
X103485215Y-77785909D01*
X103587709Y-77683415D01*
X103660184Y-77557885D01*
X103697700Y-77417875D01*
X103697700Y-77272925D01*
X103660184Y-77132915D01*
X103606308Y-77039600D01*
X103587711Y-77007388D01*
X103587706Y-77007382D01*
X103485217Y-76904893D01*
X103485211Y-76904888D01*
X103359688Y-76832417D01*
X103359689Y-76832417D01*
X103339909Y-76827117D01*
X103219675Y-76794900D01*
X103074725Y-76794900D01*
X102954491Y-76827117D01*
X102934711Y-76832417D01*
X102809188Y-76904888D01*
X102809182Y-76904893D01*
X102706693Y-77007382D01*
X102706688Y-77007388D01*
X102634217Y-77132911D01*
X102634216Y-77132915D01*
X102596700Y-77272925D01*
X50500500Y-77272925D01*
X50500500Y-76416625D01*
X98460900Y-76416625D01*
X98460900Y-76561575D01*
X98498416Y-76701585D01*
X98498417Y-76701588D01*
X98570888Y-76827111D01*
X98570890Y-76827113D01*
X98570891Y-76827115D01*
X98673385Y-76929609D01*
X98673386Y-76929610D01*
X98673388Y-76929611D01*
X98798911Y-77002082D01*
X98798912Y-77002082D01*
X98798915Y-77002084D01*
X98938925Y-77039600D01*
X98938928Y-77039600D01*
X99083872Y-77039600D01*
X99083875Y-77039600D01*
X99223885Y-77002084D01*
X99349415Y-76929609D01*
X99451909Y-76827115D01*
X99524384Y-76701585D01*
X99561900Y-76561575D01*
X99561900Y-76416625D01*
X99524384Y-76276615D01*
X99451909Y-76151085D01*
X99349415Y-76048591D01*
X99349413Y-76048590D01*
X99349411Y-76048588D01*
X99223888Y-75976117D01*
X99223889Y-75976117D01*
X99212406Y-75973040D01*
X99083875Y-75938600D01*
X98938925Y-75938600D01*
X98810393Y-75973040D01*
X98798911Y-75976117D01*
X98673388Y-76048588D01*
X98673382Y-76048593D01*
X98570893Y-76151082D01*
X98570888Y-76151088D01*
X98498417Y-76276611D01*
X98498416Y-76276615D01*
X98460900Y-76416625D01*
X50500500Y-76416625D01*
X50500500Y-70325321D01*
X55799500Y-70325321D01*
X55799500Y-72074678D01*
X55814032Y-72147735D01*
X55814033Y-72147739D01*
X55814034Y-72147740D01*
X55869399Y-72230601D01*
X55952260Y-72285966D01*
X55952264Y-72285967D01*
X56025321Y-72300499D01*
X56025324Y-72300500D01*
X56025326Y-72300500D01*
X57774676Y-72300500D01*
X57774677Y-72300499D01*
X57847740Y-72285966D01*
X57930601Y-72230601D01*
X57985966Y-72147740D01*
X58000500Y-72074674D01*
X58000500Y-71113389D01*
X58339500Y-71113389D01*
X58339500Y-71286611D01*
X58366598Y-71457701D01*
X58420127Y-71622445D01*
X58498768Y-71776788D01*
X58600586Y-71916928D01*
X58723072Y-72039414D01*
X58863212Y-72141232D01*
X59017555Y-72219873D01*
X59182299Y-72273402D01*
X59353389Y-72300500D01*
X59353390Y-72300500D01*
X59526610Y-72300500D01*
X59526611Y-72300500D01*
X59697701Y-72273402D01*
X59862445Y-72219873D01*
X60016788Y-72141232D01*
X60156928Y-72039414D01*
X60279414Y-71916928D01*
X60381232Y-71776788D01*
X60459873Y-71622445D01*
X60513402Y-71457701D01*
X60540500Y-71286611D01*
X60540500Y-71113389D01*
X60879500Y-71113389D01*
X60879500Y-71286611D01*
X60906598Y-71457701D01*
X60960127Y-71622445D01*
X61038768Y-71776788D01*
X61140586Y-71916928D01*
X61263072Y-72039414D01*
X61403212Y-72141232D01*
X61557555Y-72219873D01*
X61722299Y-72273402D01*
X61893389Y-72300500D01*
X61893390Y-72300500D01*
X62066610Y-72300500D01*
X62066611Y-72300500D01*
X62237701Y-72273402D01*
X62402445Y-72219873D01*
X62402447Y-72219871D01*
X62406971Y-72218402D01*
X62476812Y-72216407D01*
X62532970Y-72248652D01*
X62958588Y-72674270D01*
X63038512Y-72720414D01*
X63127656Y-72744300D01*
X63127658Y-72744300D01*
X77724842Y-72744300D01*
X77724844Y-72744300D01*
X77813988Y-72720414D01*
X77893912Y-72674270D01*
X78704589Y-71863592D01*
X78765910Y-71830109D01*
X78835601Y-71835093D01*
X78891535Y-71876965D01*
X78892565Y-71878361D01*
X78920586Y-71916928D01*
X79043072Y-72039414D01*
X79183212Y-72141232D01*
X79337555Y-72219873D01*
X79502299Y-72273402D01*
X79673389Y-72300500D01*
X79673390Y-72300500D01*
X79846610Y-72300500D01*
X79846611Y-72300500D01*
X80017701Y-72273402D01*
X80182445Y-72219873D01*
X80336788Y-72141232D01*
X80476928Y-72039414D01*
X80599414Y-71916928D01*
X80701232Y-71776788D01*
X80779873Y-71622445D01*
X80833402Y-71457701D01*
X80860500Y-71286611D01*
X80860500Y-71113389D01*
X81199500Y-71113389D01*
X81199500Y-71286611D01*
X81226598Y-71457701D01*
X81280127Y-71622445D01*
X81358768Y-71776788D01*
X81460586Y-71916928D01*
X81583072Y-72039414D01*
X81723212Y-72141232D01*
X81877555Y-72219873D01*
X82042299Y-72273402D01*
X82213389Y-72300500D01*
X82213390Y-72300500D01*
X82386610Y-72300500D01*
X82386611Y-72300500D01*
X82557701Y-72273402D01*
X82722445Y-72219873D01*
X82876788Y-72141232D01*
X83016928Y-72039414D01*
X83139414Y-71916928D01*
X83241232Y-71776788D01*
X83319873Y-71622445D01*
X83373402Y-71457701D01*
X83400500Y-71286611D01*
X83400500Y-71113389D01*
X83739500Y-71113389D01*
X83739500Y-71286611D01*
X83766598Y-71457701D01*
X83820127Y-71622445D01*
X83898768Y-71776788D01*
X84000586Y-71916928D01*
X84123072Y-72039414D01*
X84263212Y-72141232D01*
X84417555Y-72219873D01*
X84582299Y-72273402D01*
X84753389Y-72300500D01*
X84753390Y-72300500D01*
X84926610Y-72300500D01*
X84926611Y-72300500D01*
X85097701Y-72273402D01*
X85262445Y-72219873D01*
X85416788Y-72141232D01*
X85556928Y-72039414D01*
X85679414Y-71916928D01*
X85781232Y-71776788D01*
X85859873Y-71622445D01*
X85913402Y-71457701D01*
X85940500Y-71286611D01*
X85940500Y-71113389D01*
X85913402Y-70942299D01*
X85859873Y-70777555D01*
X85781232Y-70623212D01*
X85679414Y-70483072D01*
X85556928Y-70360586D01*
X85416788Y-70258768D01*
X85262445Y-70180127D01*
X85097701Y-70126598D01*
X85097699Y-70126597D01*
X85097698Y-70126597D01*
X84966271Y-70105781D01*
X84926611Y-70099500D01*
X84753389Y-70099500D01*
X84713728Y-70105781D01*
X84582302Y-70126597D01*
X84582299Y-70126598D01*
X84429106Y-70176374D01*
X84417552Y-70180128D01*
X84263211Y-70258768D01*
X84211921Y-70296033D01*
X84123072Y-70360586D01*
X84123070Y-70360588D01*
X84123069Y-70360588D01*
X84000588Y-70483069D01*
X84000588Y-70483070D01*
X84000586Y-70483072D01*
X83975490Y-70517614D01*
X83898768Y-70623211D01*
X83820128Y-70777552D01*
X83766597Y-70942302D01*
X83766597Y-70942304D01*
X83739500Y-71113389D01*
X83400500Y-71113389D01*
X83373402Y-70942299D01*
X83319873Y-70777555D01*
X83241232Y-70623212D01*
X83139414Y-70483072D01*
X83016928Y-70360586D01*
X82876788Y-70258768D01*
X82722445Y-70180127D01*
X82557701Y-70126598D01*
X82557699Y-70126597D01*
X82557698Y-70126597D01*
X82426271Y-70105781D01*
X82386611Y-70099500D01*
X82213389Y-70099500D01*
X82173728Y-70105781D01*
X82042302Y-70126597D01*
X82042299Y-70126598D01*
X81889106Y-70176374D01*
X81877552Y-70180128D01*
X81723211Y-70258768D01*
X81671921Y-70296033D01*
X81583072Y-70360586D01*
X81583070Y-70360588D01*
X81583069Y-70360588D01*
X81460588Y-70483069D01*
X81460588Y-70483070D01*
X81460586Y-70483072D01*
X81435490Y-70517614D01*
X81358768Y-70623211D01*
X81280128Y-70777552D01*
X81226597Y-70942302D01*
X81226597Y-70942304D01*
X81199500Y-71113389D01*
X80860500Y-71113389D01*
X80833402Y-70942299D01*
X80779873Y-70777555D01*
X80779869Y-70777547D01*
X80778401Y-70773029D01*
X80776406Y-70703188D01*
X80808649Y-70647031D01*
X81192170Y-70263512D01*
X81238314Y-70183588D01*
X81262200Y-70094443D01*
X81262200Y-70002156D01*
X81262200Y-69477904D01*
X81281885Y-69410865D01*
X81334689Y-69365110D01*
X81403847Y-69355166D01*
X81467403Y-69384191D01*
X81473881Y-69390223D01*
X81583072Y-69499414D01*
X81723212Y-69601232D01*
X81877555Y-69679873D01*
X82042299Y-69733402D01*
X82213389Y-69760500D01*
X82213390Y-69760500D01*
X82386610Y-69760500D01*
X82386611Y-69760500D01*
X82557701Y-69733402D01*
X82722445Y-69679873D01*
X82876788Y-69601232D01*
X83016928Y-69499414D01*
X83139414Y-69376928D01*
X83241232Y-69236788D01*
X83319873Y-69082445D01*
X83373402Y-68917701D01*
X83400500Y-68746611D01*
X83400500Y-68573389D01*
X83739500Y-68573389D01*
X83739500Y-68746611D01*
X83740435Y-68752513D01*
X83762610Y-68892525D01*
X83766598Y-68917701D01*
X83820127Y-69082445D01*
X83898768Y-69236788D01*
X84000586Y-69376928D01*
X84123072Y-69499414D01*
X84263212Y-69601232D01*
X84417555Y-69679873D01*
X84582299Y-69733402D01*
X84753389Y-69760500D01*
X84753390Y-69760500D01*
X84926610Y-69760500D01*
X84926611Y-69760500D01*
X85097701Y-69733402D01*
X85262445Y-69679873D01*
X85416788Y-69601232D01*
X85556928Y-69499414D01*
X85679414Y-69376928D01*
X85781232Y-69236788D01*
X85859873Y-69082445D01*
X85913402Y-68917701D01*
X85940500Y-68746611D01*
X85940500Y-68573389D01*
X85913402Y-68402299D01*
X85859873Y-68237555D01*
X85781232Y-68083212D01*
X85679414Y-67943072D01*
X85556928Y-67820586D01*
X85416788Y-67718768D01*
X85262445Y-67640127D01*
X85097701Y-67586598D01*
X85097699Y-67586597D01*
X85097698Y-67586597D01*
X84966271Y-67565781D01*
X84926611Y-67559500D01*
X84753389Y-67559500D01*
X84713728Y-67565781D01*
X84582302Y-67586597D01*
X84417552Y-67640128D01*
X84263211Y-67718768D01*
X84183256Y-67776859D01*
X84123072Y-67820586D01*
X84123070Y-67820588D01*
X84123069Y-67820588D01*
X84000588Y-67943069D01*
X84000588Y-67943070D01*
X84000586Y-67943072D01*
X83973351Y-67980558D01*
X83898768Y-68083211D01*
X83820128Y-68237552D01*
X83766597Y-68402302D01*
X83758723Y-68452017D01*
X83739500Y-68573389D01*
X83400500Y-68573389D01*
X83373402Y-68402299D01*
X83319873Y-68237555D01*
X83241232Y-68083212D01*
X83139414Y-67943072D01*
X83016928Y-67820586D01*
X82876788Y-67718768D01*
X82722445Y-67640127D01*
X82557701Y-67586598D01*
X82557699Y-67586597D01*
X82557698Y-67586597D01*
X82426271Y-67565781D01*
X82386611Y-67559500D01*
X82213389Y-67559500D01*
X82173728Y-67565781D01*
X82042302Y-67586597D01*
X81877552Y-67640128D01*
X81723211Y-67718768D01*
X81643256Y-67776859D01*
X81583072Y-67820586D01*
X81583070Y-67820588D01*
X81583069Y-67820588D01*
X81460588Y-67943069D01*
X81460588Y-67943070D01*
X81460586Y-67943072D01*
X81460311Y-67943451D01*
X81450923Y-67956372D01*
X81395591Y-67999036D01*
X81325978Y-68005012D01*
X81264184Y-67972405D01*
X81243928Y-67942555D01*
X81242378Y-67943451D01*
X81234357Y-67929558D01*
X81224039Y-67911687D01*
X81192170Y-67856488D01*
X80554519Y-67218837D01*
X80542060Y-67196021D01*
X80526333Y-67175324D01*
X80524081Y-67163094D01*
X80521034Y-67157514D01*
X80518583Y-67140892D01*
X80518200Y-67136028D01*
X80518200Y-67055225D01*
X80509187Y-67021588D01*
X80508293Y-67010236D01*
X80513227Y-66986741D01*
X80513798Y-66962745D01*
X80520276Y-66953171D01*
X80522653Y-66941858D01*
X80539503Y-66924762D01*
X80552959Y-66904882D01*
X80563586Y-66900330D01*
X80571702Y-66892098D01*
X80595120Y-66886826D01*
X80617187Y-66877377D01*
X80631910Y-66876500D01*
X86734256Y-66876500D01*
X86801295Y-66896185D01*
X86821937Y-66912819D01*
X87272575Y-67363457D01*
X87306060Y-67424780D01*
X87301076Y-67494472D01*
X87259204Y-67550405D01*
X87204292Y-67573611D01*
X87122302Y-67586597D01*
X86957552Y-67640128D01*
X86803211Y-67718768D01*
X86723256Y-67776859D01*
X86663072Y-67820586D01*
X86663070Y-67820588D01*
X86663069Y-67820588D01*
X86540588Y-67943069D01*
X86540588Y-67943070D01*
X86540586Y-67943072D01*
X86513351Y-67980558D01*
X86438768Y-68083211D01*
X86360128Y-68237552D01*
X86306597Y-68402302D01*
X86298723Y-68452017D01*
X86279500Y-68573389D01*
X86279500Y-68746611D01*
X86280435Y-68752513D01*
X86302610Y-68892525D01*
X86306598Y-68917701D01*
X86360127Y-69082445D01*
X86438768Y-69236788D01*
X86540586Y-69376928D01*
X86663072Y-69499414D01*
X86803212Y-69601232D01*
X86957555Y-69679873D01*
X87122299Y-69733402D01*
X87293389Y-69760500D01*
X87293390Y-69760500D01*
X87466610Y-69760500D01*
X87466611Y-69760500D01*
X87637701Y-69733402D01*
X87802445Y-69679873D01*
X87956788Y-69601232D01*
X88096928Y-69499414D01*
X88219414Y-69376928D01*
X88242491Y-69345164D01*
X88297816Y-69302501D01*
X88367429Y-69296520D01*
X88429225Y-69329124D01*
X88430488Y-69330370D01*
X89249629Y-70149511D01*
X89283114Y-70210834D01*
X89278130Y-70280526D01*
X89236258Y-70336459D01*
X89234879Y-70337476D01*
X89203072Y-70360586D01*
X89203070Y-70360588D01*
X89203069Y-70360588D01*
X89080588Y-70483069D01*
X89080588Y-70483070D01*
X89080586Y-70483072D01*
X89055490Y-70517614D01*
X88978768Y-70623211D01*
X88900128Y-70777552D01*
X88846597Y-70942302D01*
X88846597Y-70942304D01*
X88819500Y-71113389D01*
X88819500Y-71286611D01*
X88846598Y-71457701D01*
X88900127Y-71622445D01*
X88978768Y-71776788D01*
X89080586Y-71916928D01*
X89203072Y-72039414D01*
X89343212Y-72141232D01*
X89497555Y-72219873D01*
X89662299Y-72273402D01*
X89833389Y-72300500D01*
X89833390Y-72300500D01*
X90006610Y-72300500D01*
X90006611Y-72300500D01*
X90177701Y-72273402D01*
X90342445Y-72219873D01*
X90496788Y-72141232D01*
X90636928Y-72039414D01*
X90759414Y-71916928D01*
X90861232Y-71776788D01*
X90939873Y-71622445D01*
X90993402Y-71457701D01*
X91020500Y-71286611D01*
X91020500Y-71113389D01*
X90993402Y-70942299D01*
X90939873Y-70777555D01*
X90861232Y-70623212D01*
X90841232Y-70595685D01*
X90837001Y-70583825D01*
X90828757Y-70574311D01*
X90825483Y-70551545D01*
X90817753Y-70529879D01*
X90820604Y-70517614D01*
X90818813Y-70505153D01*
X90828367Y-70484230D01*
X90833578Y-70461825D01*
X90842607Y-70453049D01*
X90847838Y-70441597D01*
X90867189Y-70429160D01*
X90883684Y-70413131D01*
X90897429Y-70409726D01*
X90906616Y-70403823D01*
X90941551Y-70398800D01*
X91111756Y-70398800D01*
X91178795Y-70418485D01*
X91199437Y-70435119D01*
X91411347Y-70647029D01*
X91444832Y-70708352D01*
X91441597Y-70773028D01*
X91386597Y-70942301D01*
X91386597Y-70942304D01*
X91359500Y-71113389D01*
X91359500Y-71286611D01*
X91386598Y-71457701D01*
X91440127Y-71622445D01*
X91518768Y-71776788D01*
X91620586Y-71916928D01*
X91743072Y-72039414D01*
X91883212Y-72141232D01*
X92037555Y-72219873D01*
X92202299Y-72273402D01*
X92373389Y-72300500D01*
X92373390Y-72300500D01*
X92546610Y-72300500D01*
X92546611Y-72300500D01*
X92717701Y-72273402D01*
X92882445Y-72219873D01*
X93036788Y-72141232D01*
X93176928Y-72039414D01*
X93299414Y-71916928D01*
X93401232Y-71776788D01*
X93479873Y-71622445D01*
X93533402Y-71457701D01*
X93560500Y-71286611D01*
X93560500Y-71113389D01*
X93899500Y-71113389D01*
X93899500Y-71286611D01*
X93926598Y-71457701D01*
X93980127Y-71622445D01*
X94058768Y-71776788D01*
X94160586Y-71916928D01*
X94283072Y-72039414D01*
X94423212Y-72141232D01*
X94577555Y-72219873D01*
X94742299Y-72273402D01*
X94913389Y-72300500D01*
X94913390Y-72300500D01*
X95086610Y-72300500D01*
X95086611Y-72300500D01*
X95257701Y-72273402D01*
X95422445Y-72219873D01*
X95576788Y-72141232D01*
X95716928Y-72039414D01*
X95839414Y-71916928D01*
X95941232Y-71776788D01*
X96019873Y-71622445D01*
X96073402Y-71457701D01*
X96100500Y-71286611D01*
X96100500Y-71113389D01*
X96439500Y-71113389D01*
X96439500Y-71286611D01*
X96466598Y-71457701D01*
X96520127Y-71622445D01*
X96598768Y-71776788D01*
X96700586Y-71916928D01*
X96823072Y-72039414D01*
X96963212Y-72141232D01*
X97117555Y-72219873D01*
X97282299Y-72273402D01*
X97453389Y-72300500D01*
X97453390Y-72300500D01*
X97626610Y-72300500D01*
X97626611Y-72300500D01*
X97797701Y-72273402D01*
X97962445Y-72219873D01*
X98116788Y-72141232D01*
X98256928Y-72039414D01*
X98379414Y-71916928D01*
X98481232Y-71776788D01*
X98559873Y-71622445D01*
X98613402Y-71457701D01*
X98640500Y-71286611D01*
X98640500Y-71113389D01*
X98979500Y-71113389D01*
X98979500Y-71286611D01*
X99006598Y-71457701D01*
X99060127Y-71622445D01*
X99138768Y-71776788D01*
X99240586Y-71916928D01*
X99363072Y-72039414D01*
X99503212Y-72141232D01*
X99657555Y-72219873D01*
X99822299Y-72273402D01*
X99993389Y-72300500D01*
X99993390Y-72300500D01*
X100166610Y-72300500D01*
X100166611Y-72300500D01*
X100337701Y-72273402D01*
X100502445Y-72219873D01*
X100656788Y-72141232D01*
X100796928Y-72039414D01*
X100919414Y-71916928D01*
X101021232Y-71776788D01*
X101099873Y-71622445D01*
X101153402Y-71457701D01*
X101180500Y-71286611D01*
X101180500Y-71113389D01*
X101519500Y-71113389D01*
X101519500Y-71286611D01*
X101546598Y-71457701D01*
X101600127Y-71622445D01*
X101678768Y-71776788D01*
X101780586Y-71916928D01*
X101903072Y-72039414D01*
X102043212Y-72141232D01*
X102197555Y-72219873D01*
X102362299Y-72273402D01*
X102533389Y-72300500D01*
X102533390Y-72300500D01*
X102706610Y-72300500D01*
X102706611Y-72300500D01*
X102877701Y-72273402D01*
X103042445Y-72219873D01*
X103196788Y-72141232D01*
X103336928Y-72039414D01*
X103459414Y-71916928D01*
X103561232Y-71776788D01*
X103639873Y-71622445D01*
X103693402Y-71457701D01*
X103720500Y-71286611D01*
X103720500Y-71113389D01*
X103693402Y-70942299D01*
X103639873Y-70777555D01*
X103561232Y-70623212D01*
X103459414Y-70483072D01*
X103336928Y-70360586D01*
X103196788Y-70258768D01*
X103042445Y-70180127D01*
X102877701Y-70126598D01*
X102877699Y-70126597D01*
X102877698Y-70126597D01*
X102746271Y-70105781D01*
X102706611Y-70099500D01*
X102533389Y-70099500D01*
X102493728Y-70105781D01*
X102362302Y-70126597D01*
X102362299Y-70126598D01*
X102209106Y-70176374D01*
X102197552Y-70180128D01*
X102043211Y-70258768D01*
X101991921Y-70296033D01*
X101903072Y-70360586D01*
X101903070Y-70360588D01*
X101903069Y-70360588D01*
X101780588Y-70483069D01*
X101780588Y-70483070D01*
X101780586Y-70483072D01*
X101755490Y-70517614D01*
X101678768Y-70623211D01*
X101600128Y-70777552D01*
X101546597Y-70942302D01*
X101546597Y-70942304D01*
X101519500Y-71113389D01*
X101180500Y-71113389D01*
X101153402Y-70942299D01*
X101099873Y-70777555D01*
X101021232Y-70623212D01*
X100919414Y-70483072D01*
X100796928Y-70360586D01*
X100656788Y-70258768D01*
X100502445Y-70180127D01*
X100337701Y-70126598D01*
X100337699Y-70126597D01*
X100337698Y-70126597D01*
X100206271Y-70105781D01*
X100166611Y-70099500D01*
X99993389Y-70099500D01*
X99953728Y-70105781D01*
X99822302Y-70126597D01*
X99822299Y-70126598D01*
X99669106Y-70176374D01*
X99657552Y-70180128D01*
X99503211Y-70258768D01*
X99451921Y-70296033D01*
X99363072Y-70360586D01*
X99363070Y-70360588D01*
X99363069Y-70360588D01*
X99240588Y-70483069D01*
X99240588Y-70483070D01*
X99240586Y-70483072D01*
X99215490Y-70517614D01*
X99138768Y-70623211D01*
X99060128Y-70777552D01*
X99006597Y-70942302D01*
X99006597Y-70942304D01*
X98979500Y-71113389D01*
X98640500Y-71113389D01*
X98613402Y-70942299D01*
X98559873Y-70777555D01*
X98481232Y-70623212D01*
X98379414Y-70483072D01*
X98256928Y-70360586D01*
X98116788Y-70258768D01*
X97962445Y-70180127D01*
X97797701Y-70126598D01*
X97797699Y-70126597D01*
X97797698Y-70126597D01*
X97666271Y-70105781D01*
X97626611Y-70099500D01*
X97453389Y-70099500D01*
X97413728Y-70105781D01*
X97282302Y-70126597D01*
X97282299Y-70126598D01*
X97129106Y-70176374D01*
X97117552Y-70180128D01*
X96963211Y-70258768D01*
X96911921Y-70296033D01*
X96823072Y-70360586D01*
X96823070Y-70360588D01*
X96823069Y-70360588D01*
X96700588Y-70483069D01*
X96700588Y-70483070D01*
X96700586Y-70483072D01*
X96675490Y-70517614D01*
X96598768Y-70623211D01*
X96520128Y-70777552D01*
X96466597Y-70942302D01*
X96466597Y-70942304D01*
X96439500Y-71113389D01*
X96100500Y-71113389D01*
X96073402Y-70942299D01*
X96019873Y-70777555D01*
X95941232Y-70623212D01*
X95839414Y-70483072D01*
X95716928Y-70360586D01*
X95576788Y-70258768D01*
X95422445Y-70180127D01*
X95257701Y-70126598D01*
X95257699Y-70126597D01*
X95257698Y-70126597D01*
X95126271Y-70105781D01*
X95086611Y-70099500D01*
X94913389Y-70099500D01*
X94873728Y-70105781D01*
X94742302Y-70126597D01*
X94742299Y-70126598D01*
X94589106Y-70176374D01*
X94577552Y-70180128D01*
X94423211Y-70258768D01*
X94371921Y-70296033D01*
X94283072Y-70360586D01*
X94283070Y-70360588D01*
X94283069Y-70360588D01*
X94160588Y-70483069D01*
X94160588Y-70483070D01*
X94160586Y-70483072D01*
X94135490Y-70517614D01*
X94058768Y-70623211D01*
X93980128Y-70777552D01*
X93926597Y-70942302D01*
X93926597Y-70942304D01*
X93899500Y-71113389D01*
X93560500Y-71113389D01*
X93533402Y-70942299D01*
X93479873Y-70777555D01*
X93401232Y-70623212D01*
X93299414Y-70483072D01*
X93176928Y-70360586D01*
X93036788Y-70258768D01*
X92882445Y-70180127D01*
X92717701Y-70126598D01*
X92717699Y-70126597D01*
X92717698Y-70126597D01*
X92586271Y-70105781D01*
X92546611Y-70099500D01*
X92373389Y-70099500D01*
X92341192Y-70104599D01*
X92202301Y-70126597D01*
X92033028Y-70181597D01*
X91963186Y-70183592D01*
X91907029Y-70151347D01*
X91523513Y-69767831D01*
X91523508Y-69767827D01*
X91443590Y-69721687D01*
X91443589Y-69721686D01*
X91443588Y-69721686D01*
X91354444Y-69697800D01*
X91354443Y-69697800D01*
X90737904Y-69697800D01*
X90670865Y-69678115D01*
X90625110Y-69625311D01*
X90615166Y-69556153D01*
X90644191Y-69492597D01*
X90650223Y-69486119D01*
X90679276Y-69457066D01*
X90759414Y-69376928D01*
X90861232Y-69236788D01*
X90939873Y-69082445D01*
X90993402Y-68917701D01*
X91020500Y-68746611D01*
X91020500Y-68573389D01*
X90993402Y-68402299D01*
X90939873Y-68237555D01*
X90861232Y-68083212D01*
X90759414Y-67943072D01*
X90636928Y-67820586D01*
X90496788Y-67718768D01*
X90484202Y-67712355D01*
X90338104Y-67637915D01*
X90339137Y-67635887D01*
X90292107Y-67597696D01*
X90275005Y-67561446D01*
X90270500Y-67545689D01*
X90270500Y-67537556D01*
X90246614Y-67448412D01*
X90246480Y-67448180D01*
X90238832Y-67434934D01*
X90238832Y-67434932D01*
X90200474Y-67368494D01*
X90200468Y-67368486D01*
X81890013Y-59058031D01*
X81890008Y-59058027D01*
X81810090Y-59011887D01*
X81810089Y-59011886D01*
X81810088Y-59011886D01*
X81720944Y-58988000D01*
X81720943Y-58988000D01*
X81713094Y-58985897D01*
X81713854Y-58983059D01*
X81662844Y-58960472D01*
X81624394Y-58902134D01*
X81623588Y-58832269D01*
X81635571Y-58803832D01*
X81667584Y-58748385D01*
X81705100Y-58608375D01*
X81705100Y-58463425D01*
X81667584Y-58323415D01*
X81595109Y-58197885D01*
X81492615Y-58095391D01*
X81492613Y-58095390D01*
X81492611Y-58095388D01*
X81367088Y-58022917D01*
X81367089Y-58022917D01*
X81355606Y-58019840D01*
X81227075Y-57985400D01*
X81082125Y-57985400D01*
X80953593Y-58019840D01*
X80942111Y-58022917D01*
X80816588Y-58095388D01*
X80816582Y-58095393D01*
X80724031Y-58187945D01*
X80662708Y-58221430D01*
X80593016Y-58216446D01*
X80548669Y-58187945D01*
X80496417Y-58135693D01*
X80496411Y-58135688D01*
X80370888Y-58063217D01*
X80370889Y-58063217D01*
X80355337Y-58059050D01*
X80230875Y-58025700D01*
X80085925Y-58025700D01*
X79961463Y-58059050D01*
X79945911Y-58063217D01*
X79820388Y-58135688D01*
X79820382Y-58135693D01*
X79717893Y-58238182D01*
X79717888Y-58238188D01*
X79645417Y-58363711D01*
X79645416Y-58363715D01*
X79607900Y-58503725D01*
X79607900Y-58648675D01*
X79645416Y-58788685D01*
X79653103Y-58801999D01*
X79669576Y-58869899D01*
X79646724Y-58935926D01*
X79591803Y-58979117D01*
X79545716Y-58988000D01*
X76766915Y-58988000D01*
X76699876Y-58968315D01*
X76654121Y-58915511D01*
X76644177Y-58846353D01*
X76673202Y-58782797D01*
X76704916Y-58756612D01*
X76710012Y-58753670D01*
X77192799Y-58270881D01*
X77254120Y-58237398D01*
X77323811Y-58242382D01*
X77368159Y-58270883D01*
X77413185Y-58315909D01*
X77413186Y-58315910D01*
X77413188Y-58315911D01*
X77538711Y-58388382D01*
X77538712Y-58388382D01*
X77538715Y-58388384D01*
X77678725Y-58425900D01*
X77678728Y-58425900D01*
X77823672Y-58425900D01*
X77823675Y-58425900D01*
X77963685Y-58388384D01*
X78089215Y-58315909D01*
X78191709Y-58213415D01*
X78264184Y-58087885D01*
X78301700Y-57947875D01*
X78301700Y-57802925D01*
X78295314Y-57779092D01*
X78296977Y-57709243D01*
X78336140Y-57651381D01*
X78400368Y-57623877D01*
X78415089Y-57623000D01*
X81672474Y-57623000D01*
X81696459Y-57630042D01*
X81721286Y-57633011D01*
X81729409Y-57639718D01*
X81739513Y-57642685D01*
X81755881Y-57661575D01*
X81775164Y-57677496D01*
X81778371Y-57687530D01*
X81785268Y-57695489D01*
X81788825Y-57720232D01*
X81796439Y-57744048D01*
X81794537Y-57759954D01*
X81795212Y-57764647D01*
X81792249Y-57779092D01*
X81783800Y-57810623D01*
X81783800Y-57810625D01*
X81783800Y-57955575D01*
X81802590Y-58025700D01*
X81819253Y-58087888D01*
X81821316Y-58095585D01*
X81889347Y-58213417D01*
X81889405Y-58213519D01*
X81891095Y-58216446D01*
X81893791Y-58221115D01*
X81996285Y-58323609D01*
X81996286Y-58323610D01*
X81996288Y-58323611D01*
X82121811Y-58396082D01*
X82121812Y-58396082D01*
X82121815Y-58396084D01*
X82261825Y-58433600D01*
X82261828Y-58433600D01*
X82406772Y-58433600D01*
X82406775Y-58433600D01*
X82546785Y-58396084D01*
X82672315Y-58323609D01*
X82774809Y-58221115D01*
X82847284Y-58095585D01*
X82884800Y-57955575D01*
X82884800Y-57810625D01*
X82876351Y-57779092D01*
X82878014Y-57709243D01*
X82917177Y-57651380D01*
X82981406Y-57623877D01*
X82996126Y-57623000D01*
X83415956Y-57623000D01*
X83482995Y-57642685D01*
X83503637Y-57659319D01*
X93951347Y-68107029D01*
X93984832Y-68168352D01*
X93981597Y-68233028D01*
X93926597Y-68402301D01*
X93907244Y-68524493D01*
X93899500Y-68573389D01*
X93899500Y-68746611D01*
X93900435Y-68752513D01*
X93922610Y-68892525D01*
X93926598Y-68917701D01*
X93980127Y-69082445D01*
X94058768Y-69236788D01*
X94160586Y-69376928D01*
X94283072Y-69499414D01*
X94423212Y-69601232D01*
X94577555Y-69679873D01*
X94742299Y-69733402D01*
X94913389Y-69760500D01*
X94913390Y-69760500D01*
X95086610Y-69760500D01*
X95086611Y-69760500D01*
X95257701Y-69733402D01*
X95422445Y-69679873D01*
X95576788Y-69601232D01*
X95716928Y-69499414D01*
X95839414Y-69376928D01*
X95941232Y-69236788D01*
X96019873Y-69082445D01*
X96073402Y-68917701D01*
X96100500Y-68746611D01*
X96100500Y-68573389D01*
X98979500Y-68573389D01*
X98979500Y-68746611D01*
X98980435Y-68752513D01*
X99002610Y-68892525D01*
X99006598Y-68917701D01*
X99060127Y-69082445D01*
X99138768Y-69236788D01*
X99240586Y-69376928D01*
X99363072Y-69499414D01*
X99503212Y-69601232D01*
X99657555Y-69679873D01*
X99822299Y-69733402D01*
X99993389Y-69760500D01*
X99993390Y-69760500D01*
X100166610Y-69760500D01*
X100166611Y-69760500D01*
X100337701Y-69733402D01*
X100502445Y-69679873D01*
X100656788Y-69601232D01*
X100796928Y-69499414D01*
X100919414Y-69376928D01*
X101021232Y-69236788D01*
X101099873Y-69082445D01*
X101153402Y-68917701D01*
X101180500Y-68746611D01*
X101180500Y-68573389D01*
X101519500Y-68573389D01*
X101519500Y-68746611D01*
X101520435Y-68752513D01*
X101542610Y-68892525D01*
X101546598Y-68917701D01*
X101600127Y-69082445D01*
X101678768Y-69236788D01*
X101780586Y-69376928D01*
X101903072Y-69499414D01*
X102043212Y-69601232D01*
X102197555Y-69679873D01*
X102362299Y-69733402D01*
X102533389Y-69760500D01*
X102533390Y-69760500D01*
X102706610Y-69760500D01*
X102706611Y-69760500D01*
X102877701Y-69733402D01*
X103042445Y-69679873D01*
X103196788Y-69601232D01*
X103336928Y-69499414D01*
X103459414Y-69376928D01*
X103561232Y-69236788D01*
X103639873Y-69082445D01*
X103693402Y-68917701D01*
X103720500Y-68746611D01*
X103720500Y-68573389D01*
X104059500Y-68573389D01*
X104059500Y-68746611D01*
X104060435Y-68752513D01*
X104082610Y-68892525D01*
X104086598Y-68917701D01*
X104140127Y-69082445D01*
X104218768Y-69236788D01*
X104320586Y-69376928D01*
X104443072Y-69499414D01*
X104583212Y-69601232D01*
X104737555Y-69679873D01*
X104902299Y-69733402D01*
X105073389Y-69760500D01*
X105073390Y-69760500D01*
X105246610Y-69760500D01*
X105246611Y-69760500D01*
X105417701Y-69733402D01*
X105582445Y-69679873D01*
X105736788Y-69601232D01*
X105876928Y-69499414D01*
X105999414Y-69376928D01*
X106101232Y-69236788D01*
X106179873Y-69082445D01*
X106233402Y-68917701D01*
X106260500Y-68746611D01*
X106260500Y-68573389D01*
X106233402Y-68402299D01*
X106179873Y-68237555D01*
X106101232Y-68083212D01*
X105999414Y-67943072D01*
X105876928Y-67820586D01*
X105736788Y-67718768D01*
X105582445Y-67640127D01*
X105417701Y-67586598D01*
X105417699Y-67586597D01*
X105417698Y-67586597D01*
X105286271Y-67565781D01*
X105246611Y-67559500D01*
X105073389Y-67559500D01*
X105033728Y-67565781D01*
X104902302Y-67586597D01*
X104737552Y-67640128D01*
X104583211Y-67718768D01*
X104503256Y-67776859D01*
X104443072Y-67820586D01*
X104443070Y-67820588D01*
X104443069Y-67820588D01*
X104320588Y-67943069D01*
X104320588Y-67943070D01*
X104320586Y-67943072D01*
X104293351Y-67980558D01*
X104218768Y-68083211D01*
X104140128Y-68237552D01*
X104086597Y-68402302D01*
X104078723Y-68452017D01*
X104059500Y-68573389D01*
X103720500Y-68573389D01*
X103693402Y-68402299D01*
X103639873Y-68237555D01*
X103561232Y-68083212D01*
X103459414Y-67943072D01*
X103336928Y-67820586D01*
X103196788Y-67718768D01*
X103042445Y-67640127D01*
X102877701Y-67586598D01*
X102877699Y-67586597D01*
X102877698Y-67586597D01*
X102746271Y-67565781D01*
X102706611Y-67559500D01*
X102533389Y-67559500D01*
X102493728Y-67565781D01*
X102362302Y-67586597D01*
X102197552Y-67640128D01*
X102043211Y-67718768D01*
X101963256Y-67776859D01*
X101903072Y-67820586D01*
X101903070Y-67820588D01*
X101903069Y-67820588D01*
X101780588Y-67943069D01*
X101780588Y-67943070D01*
X101780586Y-67943072D01*
X101753351Y-67980558D01*
X101678768Y-68083211D01*
X101600128Y-68237552D01*
X101546597Y-68402302D01*
X101538723Y-68452017D01*
X101519500Y-68573389D01*
X101180500Y-68573389D01*
X101153402Y-68402299D01*
X101099873Y-68237555D01*
X101021232Y-68083212D01*
X100919414Y-67943072D01*
X100796928Y-67820586D01*
X100656788Y-67718768D01*
X100502445Y-67640127D01*
X100337701Y-67586598D01*
X100337699Y-67586597D01*
X100337698Y-67586597D01*
X100206271Y-67565781D01*
X100166611Y-67559500D01*
X99993389Y-67559500D01*
X99953728Y-67565781D01*
X99822302Y-67586597D01*
X99657552Y-67640128D01*
X99503211Y-67718768D01*
X99423256Y-67776859D01*
X99363072Y-67820586D01*
X99363070Y-67820588D01*
X99363069Y-67820588D01*
X99240588Y-67943069D01*
X99240588Y-67943070D01*
X99240586Y-67943072D01*
X99213351Y-67980558D01*
X99138768Y-68083211D01*
X99060128Y-68237552D01*
X99006597Y-68402302D01*
X98998723Y-68452017D01*
X98979500Y-68573389D01*
X96100500Y-68573389D01*
X96073402Y-68402299D01*
X96019873Y-68237555D01*
X95941232Y-68083212D01*
X95839414Y-67943072D01*
X95716928Y-67820586D01*
X95576788Y-67718768D01*
X95422445Y-67640127D01*
X95257701Y-67586598D01*
X95257699Y-67586597D01*
X95257698Y-67586597D01*
X95126271Y-67565781D01*
X95086611Y-67559500D01*
X94913389Y-67559500D01*
X94881192Y-67564599D01*
X94742301Y-67586597D01*
X94573028Y-67641597D01*
X94503186Y-67643592D01*
X94447029Y-67611347D01*
X90373707Y-63538025D01*
X91365100Y-63538025D01*
X91365100Y-63682975D01*
X91402616Y-63822985D01*
X91402617Y-63822988D01*
X91475088Y-63948511D01*
X91475090Y-63948513D01*
X91475091Y-63948515D01*
X91577585Y-64051009D01*
X91577586Y-64051010D01*
X91577588Y-64051011D01*
X91703111Y-64123482D01*
X91703112Y-64123482D01*
X91703115Y-64123484D01*
X91843125Y-64161000D01*
X91843128Y-64161000D01*
X91988072Y-64161000D01*
X91988075Y-64161000D01*
X92128085Y-64123484D01*
X92253615Y-64051009D01*
X92356109Y-63948515D01*
X92428584Y-63822985D01*
X92466100Y-63682975D01*
X92466100Y-63538025D01*
X92428584Y-63398015D01*
X92356109Y-63272485D01*
X92253615Y-63169991D01*
X92253613Y-63169990D01*
X92253611Y-63169988D01*
X92128088Y-63097517D01*
X92128089Y-63097517D01*
X92116606Y-63094440D01*
X91988075Y-63060000D01*
X91843125Y-63060000D01*
X91714593Y-63094440D01*
X91703111Y-63097517D01*
X91577588Y-63169988D01*
X91577582Y-63169993D01*
X91475093Y-63272482D01*
X91475088Y-63272488D01*
X91402617Y-63398011D01*
X91402616Y-63398015D01*
X91365100Y-63538025D01*
X90373707Y-63538025D01*
X86142607Y-59306925D01*
X88194300Y-59306925D01*
X88194300Y-59451875D01*
X88202670Y-59483111D01*
X88231817Y-59591888D01*
X88304288Y-59717411D01*
X88304290Y-59717413D01*
X88304291Y-59717415D01*
X88406785Y-59819909D01*
X88406786Y-59819910D01*
X88406788Y-59819911D01*
X88532311Y-59892382D01*
X88532312Y-59892382D01*
X88532315Y-59892384D01*
X88672325Y-59929900D01*
X88672328Y-59929900D01*
X88817272Y-59929900D01*
X88817275Y-59929900D01*
X88957285Y-59892384D01*
X89082815Y-59819909D01*
X89185309Y-59717415D01*
X89257784Y-59591885D01*
X89295300Y-59451875D01*
X89295300Y-59306925D01*
X89257784Y-59166915D01*
X89194917Y-59058027D01*
X89185311Y-59041388D01*
X89185306Y-59041382D01*
X89082817Y-58938893D01*
X89082811Y-58938888D01*
X88957288Y-58866417D01*
X88957289Y-58866417D01*
X88945806Y-58863340D01*
X88817275Y-58828900D01*
X88672325Y-58828900D01*
X88543793Y-58863340D01*
X88532311Y-58866417D01*
X88406788Y-58938888D01*
X88406782Y-58938893D01*
X88304293Y-59041382D01*
X88304288Y-59041388D01*
X88231817Y-59166911D01*
X88231816Y-59166915D01*
X88194300Y-59306925D01*
X86142607Y-59306925D01*
X84233063Y-57397381D01*
X84199578Y-57336058D01*
X84204562Y-57266366D01*
X84246434Y-57210433D01*
X84311898Y-57186016D01*
X84320744Y-57185700D01*
X89398442Y-57185700D01*
X89465481Y-57205385D01*
X89511236Y-57258189D01*
X89521180Y-57327347D01*
X89496816Y-57385189D01*
X89492289Y-57391088D01*
X89419817Y-57516611D01*
X89419816Y-57516615D01*
X89382300Y-57656625D01*
X89382300Y-57801575D01*
X89405319Y-57887482D01*
X89419817Y-57941588D01*
X89492288Y-58067111D01*
X89492290Y-58067113D01*
X89492291Y-58067115D01*
X89594785Y-58169609D01*
X89594786Y-58169610D01*
X89594788Y-58169611D01*
X89720311Y-58242082D01*
X89720312Y-58242082D01*
X89720315Y-58242084D01*
X89860325Y-58279600D01*
X89860328Y-58279600D01*
X90005272Y-58279600D01*
X90005275Y-58279600D01*
X90145285Y-58242084D01*
X90270815Y-58169609D01*
X90373309Y-58067115D01*
X90445784Y-57941585D01*
X90483300Y-57801575D01*
X90483300Y-57656625D01*
X90445784Y-57516615D01*
X90373309Y-57391085D01*
X90373303Y-57391079D01*
X90368784Y-57385189D01*
X90343588Y-57320021D01*
X90357625Y-57251576D01*
X90406437Y-57201584D01*
X90467158Y-57185700D01*
X91234114Y-57185700D01*
X91301153Y-57205385D01*
X91321795Y-57222019D01*
X91375485Y-57275709D01*
X91375486Y-57275710D01*
X91375488Y-57275711D01*
X91501011Y-57348182D01*
X91501012Y-57348182D01*
X91501015Y-57348184D01*
X91641025Y-57385700D01*
X91641028Y-57385700D01*
X91785972Y-57385700D01*
X91785975Y-57385700D01*
X91925985Y-57348184D01*
X92051515Y-57275709D01*
X92135219Y-57192005D01*
X92196542Y-57158520D01*
X92266234Y-57163504D01*
X92322167Y-57205376D01*
X92346584Y-57270840D01*
X92346900Y-57279686D01*
X92346900Y-60769614D01*
X92327215Y-60836653D01*
X92310581Y-60857295D01*
X92256893Y-60910982D01*
X92256888Y-60910988D01*
X92184417Y-61036511D01*
X92184416Y-61036515D01*
X92146900Y-61176525D01*
X92146900Y-61321475D01*
X92177790Y-61436756D01*
X92184417Y-61461488D01*
X92256888Y-61587011D01*
X92256890Y-61587013D01*
X92256891Y-61587015D01*
X92359385Y-61689509D01*
X92359386Y-61689510D01*
X92359388Y-61689511D01*
X92484911Y-61761982D01*
X92484912Y-61761982D01*
X92484915Y-61761984D01*
X92624925Y-61799500D01*
X92624928Y-61799500D01*
X92769872Y-61799500D01*
X92769875Y-61799500D01*
X92909885Y-61761984D01*
X93035415Y-61689509D01*
X93137909Y-61587015D01*
X93210384Y-61461485D01*
X93247900Y-61321475D01*
X93247900Y-61176525D01*
X93210384Y-61036515D01*
X93182091Y-60987511D01*
X93137911Y-60910988D01*
X93137906Y-60910982D01*
X93084219Y-60857295D01*
X93050734Y-60795972D01*
X93047900Y-60769614D01*
X93047900Y-56898758D01*
X93047900Y-56898756D01*
X93024014Y-56809612D01*
X93008345Y-56782473D01*
X93008345Y-56782472D01*
X92977872Y-56729691D01*
X92977868Y-56729686D01*
X89579913Y-53331731D01*
X89579908Y-53331727D01*
X89499990Y-53285587D01*
X89499989Y-53285586D01*
X89499988Y-53285586D01*
X89410844Y-53261700D01*
X74130056Y-53261700D01*
X74040912Y-53285586D01*
X74040909Y-53285587D01*
X73960991Y-53331727D01*
X73960986Y-53331731D01*
X73112131Y-54180586D01*
X73112125Y-54180594D01*
X73109193Y-54185673D01*
X73058625Y-54233887D01*
X72990017Y-54247108D01*
X72939808Y-54231057D01*
X72819188Y-54161417D01*
X72819189Y-54161417D01*
X72795203Y-54154990D01*
X72679175Y-54123900D01*
X72534225Y-54123900D01*
X72418197Y-54154990D01*
X72394211Y-54161417D01*
X72268688Y-54233888D01*
X72268682Y-54233893D01*
X72166193Y-54336382D01*
X72166188Y-54336388D01*
X72093717Y-54461911D01*
X72093716Y-54461915D01*
X72056200Y-54601925D01*
X72056200Y-54601927D01*
X72056200Y-54646200D01*
X72036515Y-54713239D01*
X71983711Y-54758994D01*
X71932200Y-54770200D01*
X71897025Y-54770200D01*
X71768493Y-54804640D01*
X71757011Y-54807717D01*
X71631488Y-54880188D01*
X71631482Y-54880193D01*
X71528993Y-54982682D01*
X71528988Y-54982688D01*
X71456517Y-55108211D01*
X71456516Y-55108215D01*
X71419000Y-55248225D01*
X71419000Y-55393175D01*
X71449925Y-55508588D01*
X71456517Y-55533188D01*
X71528988Y-55658711D01*
X71528990Y-55658713D01*
X71528991Y-55658715D01*
X71631485Y-55761209D01*
X71631486Y-55761210D01*
X71631488Y-55761211D01*
X71757011Y-55833682D01*
X71757012Y-55833682D01*
X71757015Y-55833684D01*
X71897025Y-55871200D01*
X71897028Y-55871200D01*
X72041972Y-55871200D01*
X72041975Y-55871200D01*
X72181985Y-55833684D01*
X72307515Y-55761209D01*
X72361205Y-55707519D01*
X72422528Y-55674034D01*
X72448886Y-55671200D01*
X72884842Y-55671200D01*
X72884844Y-55671200D01*
X72973988Y-55647314D01*
X72996849Y-55634115D01*
X73053912Y-55601170D01*
X73673070Y-54982012D01*
X73719214Y-54902088D01*
X73719888Y-54899569D01*
X73720952Y-54895602D01*
X73720952Y-54895600D01*
X73731672Y-54855593D01*
X73743100Y-54812944D01*
X73743100Y-54608236D01*
X73762785Y-54541197D01*
X73815589Y-54495442D01*
X73884747Y-54485498D01*
X73948303Y-54514523D01*
X73974487Y-54546236D01*
X73985791Y-54565815D01*
X74088285Y-54668309D01*
X74088286Y-54668310D01*
X74088288Y-54668311D01*
X74213811Y-54740782D01*
X74213812Y-54740782D01*
X74213815Y-54740784D01*
X74339158Y-54774370D01*
X74398817Y-54810734D01*
X74429346Y-54873581D01*
X74421051Y-54942957D01*
X74376566Y-54996835D01*
X74339160Y-55013917D01*
X74313510Y-55020790D01*
X74298110Y-55024917D01*
X74172588Y-55097388D01*
X74172582Y-55097393D01*
X74070093Y-55199882D01*
X74070088Y-55199888D01*
X73997617Y-55325411D01*
X73997616Y-55325415D01*
X73960100Y-55465425D01*
X73960100Y-55610375D01*
X73987764Y-55713617D01*
X73997617Y-55750388D01*
X74074155Y-55882954D01*
X74072307Y-55884020D01*
X74093434Y-55938675D01*
X74079394Y-56007119D01*
X74030579Y-56057108D01*
X74001961Y-56068762D01*
X73995950Y-56070373D01*
X73988810Y-56072286D01*
X73988809Y-56072287D01*
X73908891Y-56118427D01*
X73908886Y-56118431D01*
X72791532Y-57235785D01*
X72791528Y-57235791D01*
X72757468Y-57294785D01*
X72757467Y-57294784D01*
X72745388Y-57315705D01*
X72745386Y-57315712D01*
X72721500Y-57404856D01*
X72721500Y-58222544D01*
X72725480Y-58237398D01*
X72737859Y-58283599D01*
X72745384Y-58311683D01*
X72745387Y-58311690D01*
X72791527Y-58391608D01*
X72791531Y-58391613D01*
X73006781Y-58606863D01*
X73040266Y-58668186D01*
X73043100Y-58694544D01*
X73043100Y-69959744D01*
X73062307Y-70031425D01*
X73062307Y-70031426D01*
X73062308Y-70031427D01*
X73066986Y-70048889D01*
X73113127Y-70128808D01*
X73113129Y-70128811D01*
X73113130Y-70128812D01*
X73402803Y-70418485D01*
X73631347Y-70647028D01*
X73664832Y-70708351D01*
X73661597Y-70773026D01*
X73606598Y-70942297D01*
X73606597Y-70942301D01*
X73606597Y-70942304D01*
X73579500Y-71113389D01*
X73579500Y-71286611D01*
X73606598Y-71457701D01*
X73660127Y-71622445D01*
X73738768Y-71776788D01*
X73789355Y-71846415D01*
X73812835Y-71912220D01*
X73797010Y-71980274D01*
X73746904Y-72028969D01*
X73689037Y-72043300D01*
X73130963Y-72043300D01*
X73063924Y-72023615D01*
X73018169Y-71970811D01*
X73008225Y-71901653D01*
X73030644Y-71846415D01*
X73081232Y-71776788D01*
X73159873Y-71622445D01*
X73213402Y-71457701D01*
X73240500Y-71286611D01*
X73240500Y-71113389D01*
X73213402Y-70942299D01*
X73159873Y-70777555D01*
X73081232Y-70623212D01*
X72979414Y-70483072D01*
X72856928Y-70360586D01*
X72716788Y-70258768D01*
X72562445Y-70180127D01*
X72397701Y-70126598D01*
X72397699Y-70126597D01*
X72397698Y-70126597D01*
X72266271Y-70105781D01*
X72226611Y-70099500D01*
X72053389Y-70099500D01*
X72021192Y-70104599D01*
X71882301Y-70126597D01*
X71756818Y-70167369D01*
X71686976Y-70169364D01*
X71627144Y-70133283D01*
X71596316Y-70070582D01*
X71594500Y-70049438D01*
X71594500Y-70031426D01*
X71586657Y-70002156D01*
X71556984Y-69891415D01*
X71534086Y-69851755D01*
X71484511Y-69765888D01*
X71484506Y-69765882D01*
X71382017Y-69663393D01*
X71382011Y-69663388D01*
X71256488Y-69590917D01*
X71256489Y-69590917D01*
X71245006Y-69587840D01*
X71116475Y-69553400D01*
X70971525Y-69553400D01*
X70842993Y-69587840D01*
X70831511Y-69590917D01*
X70705988Y-69663388D01*
X70705982Y-69663393D01*
X70603493Y-69765882D01*
X70603488Y-69765888D01*
X70531017Y-69891411D01*
X70531016Y-69891415D01*
X70493500Y-70031425D01*
X70493500Y-70176375D01*
X70495433Y-70183588D01*
X70506846Y-70226183D01*
X70505183Y-70296033D01*
X70466020Y-70353895D01*
X70401791Y-70381399D01*
X70332889Y-70369812D01*
X70314192Y-70358598D01*
X70176788Y-70258768D01*
X70022445Y-70180127D01*
X69857701Y-70126598D01*
X69857699Y-70126597D01*
X69857698Y-70126597D01*
X69726271Y-70105781D01*
X69686611Y-70099500D01*
X69513389Y-70099500D01*
X69473728Y-70105781D01*
X69342302Y-70126597D01*
X69342299Y-70126598D01*
X69189106Y-70176374D01*
X69177552Y-70180128D01*
X69023211Y-70258768D01*
X68971921Y-70296033D01*
X68883072Y-70360586D01*
X68883070Y-70360588D01*
X68883069Y-70360588D01*
X68760588Y-70483069D01*
X68760588Y-70483070D01*
X68760586Y-70483072D01*
X68735490Y-70517614D01*
X68658768Y-70623211D01*
X68580128Y-70777552D01*
X68526597Y-70942302D01*
X68526597Y-70942304D01*
X68499500Y-71113389D01*
X68499500Y-71286611D01*
X68526598Y-71457701D01*
X68580127Y-71622445D01*
X68658768Y-71776788D01*
X68709355Y-71846415D01*
X68732835Y-71912220D01*
X68717010Y-71980274D01*
X68666904Y-72028969D01*
X68609037Y-72043300D01*
X65510963Y-72043300D01*
X65443924Y-72023615D01*
X65398169Y-71970811D01*
X65388225Y-71901653D01*
X65410644Y-71846415D01*
X65461232Y-71776788D01*
X65539873Y-71622445D01*
X65593402Y-71457701D01*
X65620500Y-71286611D01*
X65620500Y-71113389D01*
X65593402Y-70942299D01*
X65539873Y-70777555D01*
X65461232Y-70623212D01*
X65359414Y-70483072D01*
X65236928Y-70360586D01*
X65096788Y-70258768D01*
X64942445Y-70180127D01*
X64777701Y-70126598D01*
X64777699Y-70126597D01*
X64777698Y-70126597D01*
X64646271Y-70105781D01*
X64606611Y-70099500D01*
X64433389Y-70099500D01*
X64393728Y-70105781D01*
X64262302Y-70126597D01*
X64262299Y-70126598D01*
X64109106Y-70176374D01*
X64097552Y-70180128D01*
X63943211Y-70258768D01*
X63891921Y-70296033D01*
X63803072Y-70360586D01*
X63803070Y-70360588D01*
X63803069Y-70360588D01*
X63680588Y-70483069D01*
X63680588Y-70483070D01*
X63680586Y-70483072D01*
X63655490Y-70517614D01*
X63578768Y-70623211D01*
X63500128Y-70777552D01*
X63446597Y-70942302D01*
X63446597Y-70942304D01*
X63419500Y-71113389D01*
X63419500Y-71286611D01*
X63446598Y-71457701D01*
X63500127Y-71622445D01*
X63578768Y-71776788D01*
X63629355Y-71846415D01*
X63633587Y-71858275D01*
X63641831Y-71867789D01*
X63645104Y-71890553D01*
X63652835Y-71912220D01*
X63649983Y-71924484D01*
X63651775Y-71936947D01*
X63642219Y-71957870D01*
X63637010Y-71980274D01*
X63627980Y-71989048D01*
X63622750Y-72000503D01*
X63603397Y-72012940D01*
X63586904Y-72028969D01*
X63573158Y-72032373D01*
X63563972Y-72038277D01*
X63529037Y-72043300D01*
X63370344Y-72043300D01*
X63303305Y-72023615D01*
X63282663Y-72006981D01*
X63028652Y-71752970D01*
X62995167Y-71691647D01*
X62998402Y-71626971D01*
X62999873Y-71622445D01*
X63053402Y-71457701D01*
X63080500Y-71286611D01*
X63080500Y-71113389D01*
X63053402Y-70942299D01*
X62999873Y-70777555D01*
X62921232Y-70623212D01*
X62819414Y-70483072D01*
X62696928Y-70360586D01*
X62556788Y-70258768D01*
X62402445Y-70180127D01*
X62237701Y-70126598D01*
X62237699Y-70126597D01*
X62237698Y-70126597D01*
X62106271Y-70105781D01*
X62066611Y-70099500D01*
X61893389Y-70099500D01*
X61853728Y-70105781D01*
X61722302Y-70126597D01*
X61722299Y-70126598D01*
X61569106Y-70176374D01*
X61557552Y-70180128D01*
X61403211Y-70258768D01*
X61351921Y-70296033D01*
X61263072Y-70360586D01*
X61263070Y-70360588D01*
X61263069Y-70360588D01*
X61140588Y-70483069D01*
X61140588Y-70483070D01*
X61140586Y-70483072D01*
X61115490Y-70517614D01*
X61038768Y-70623211D01*
X60960128Y-70777552D01*
X60906597Y-70942302D01*
X60906597Y-70942304D01*
X60879500Y-71113389D01*
X60540500Y-71113389D01*
X60513402Y-70942299D01*
X60459873Y-70777555D01*
X60381232Y-70623212D01*
X60279414Y-70483072D01*
X60156928Y-70360586D01*
X60016788Y-70258768D01*
X59862445Y-70180127D01*
X59697701Y-70126598D01*
X59697699Y-70126597D01*
X59697698Y-70126597D01*
X59566271Y-70105781D01*
X59526611Y-70099500D01*
X59353389Y-70099500D01*
X59313728Y-70105781D01*
X59182302Y-70126597D01*
X59182299Y-70126598D01*
X59029106Y-70176374D01*
X59017552Y-70180128D01*
X58863211Y-70258768D01*
X58811921Y-70296033D01*
X58723072Y-70360586D01*
X58723070Y-70360588D01*
X58723069Y-70360588D01*
X58600588Y-70483069D01*
X58600588Y-70483070D01*
X58600586Y-70483072D01*
X58575490Y-70517614D01*
X58498768Y-70623211D01*
X58420128Y-70777552D01*
X58366597Y-70942302D01*
X58366597Y-70942304D01*
X58339500Y-71113389D01*
X58000500Y-71113389D01*
X58000500Y-70325326D01*
X58000500Y-70325323D01*
X58000499Y-70325321D01*
X57985967Y-70252264D01*
X57985966Y-70252260D01*
X57960716Y-70214470D01*
X57930601Y-70169399D01*
X57847740Y-70114034D01*
X57847739Y-70114033D01*
X57847735Y-70114032D01*
X57774677Y-70099500D01*
X57774674Y-70099500D01*
X56025326Y-70099500D01*
X56025323Y-70099500D01*
X55952264Y-70114032D01*
X55952260Y-70114033D01*
X55869399Y-70169399D01*
X55814033Y-70252260D01*
X55814032Y-70252264D01*
X55799500Y-70325321D01*
X50500500Y-70325321D01*
X50500500Y-68892525D01*
X53167400Y-68892525D01*
X53167400Y-69037475D01*
X53204916Y-69177485D01*
X53204917Y-69177488D01*
X53277388Y-69303011D01*
X53277390Y-69303013D01*
X53277391Y-69303015D01*
X53379885Y-69405509D01*
X53379886Y-69405510D01*
X53379888Y-69405511D01*
X53505411Y-69477982D01*
X53505412Y-69477982D01*
X53505415Y-69477984D01*
X53645425Y-69515500D01*
X53645428Y-69515500D01*
X53790372Y-69515500D01*
X53790375Y-69515500D01*
X53930385Y-69477984D01*
X54055915Y-69405509D01*
X54158409Y-69303015D01*
X54230884Y-69177485D01*
X54268400Y-69037475D01*
X54268400Y-68892525D01*
X54230884Y-68752515D01*
X54158409Y-68626985D01*
X54104813Y-68573389D01*
X55799500Y-68573389D01*
X55799500Y-68746611D01*
X55800435Y-68752513D01*
X55822610Y-68892525D01*
X55826598Y-68917701D01*
X55880127Y-69082445D01*
X55958768Y-69236788D01*
X56060586Y-69376928D01*
X56183072Y-69499414D01*
X56323212Y-69601232D01*
X56477555Y-69679873D01*
X56642299Y-69733402D01*
X56813389Y-69760500D01*
X56813390Y-69760500D01*
X56986610Y-69760500D01*
X56986611Y-69760500D01*
X57157701Y-69733402D01*
X57322445Y-69679873D01*
X57476788Y-69601232D01*
X57616928Y-69499414D01*
X57739414Y-69376928D01*
X57841232Y-69236788D01*
X57919873Y-69082445D01*
X57973402Y-68917701D01*
X58000500Y-68746611D01*
X58000500Y-68573389D01*
X58339500Y-68573389D01*
X58339500Y-68746611D01*
X58340435Y-68752513D01*
X58362610Y-68892525D01*
X58366598Y-68917701D01*
X58420127Y-69082445D01*
X58498768Y-69236788D01*
X58600586Y-69376928D01*
X58723072Y-69499414D01*
X58863212Y-69601232D01*
X59017555Y-69679873D01*
X59182299Y-69733402D01*
X59353389Y-69760500D01*
X59353390Y-69760500D01*
X59526610Y-69760500D01*
X59526611Y-69760500D01*
X59697701Y-69733402D01*
X59862445Y-69679873D01*
X60016788Y-69601232D01*
X60156928Y-69499414D01*
X60279414Y-69376928D01*
X60381232Y-69236788D01*
X60459873Y-69082445D01*
X60513402Y-68917701D01*
X60540500Y-68746611D01*
X60540500Y-68573389D01*
X60513402Y-68402299D01*
X60459873Y-68237555D01*
X60381232Y-68083212D01*
X60279414Y-67943072D01*
X60156928Y-67820586D01*
X60016788Y-67718768D01*
X59862445Y-67640127D01*
X59697701Y-67586598D01*
X59697699Y-67586597D01*
X59697698Y-67586597D01*
X59566271Y-67565781D01*
X59526611Y-67559500D01*
X59353389Y-67559500D01*
X59313728Y-67565781D01*
X59182302Y-67586597D01*
X59017552Y-67640128D01*
X58863211Y-67718768D01*
X58783256Y-67776859D01*
X58723072Y-67820586D01*
X58723070Y-67820588D01*
X58723069Y-67820588D01*
X58600588Y-67943069D01*
X58600588Y-67943070D01*
X58600586Y-67943072D01*
X58573351Y-67980558D01*
X58498768Y-68083211D01*
X58420128Y-68237552D01*
X58366597Y-68402302D01*
X58358723Y-68452017D01*
X58339500Y-68573389D01*
X58000500Y-68573389D01*
X57973402Y-68402299D01*
X57919873Y-68237555D01*
X57841232Y-68083212D01*
X57739414Y-67943072D01*
X57616928Y-67820586D01*
X57476788Y-67718768D01*
X57322445Y-67640127D01*
X57157701Y-67586598D01*
X57157699Y-67586597D01*
X57157698Y-67586597D01*
X57026271Y-67565781D01*
X56986611Y-67559500D01*
X56813389Y-67559500D01*
X56773728Y-67565781D01*
X56642302Y-67586597D01*
X56477552Y-67640128D01*
X56323211Y-67718768D01*
X56243256Y-67776859D01*
X56183072Y-67820586D01*
X56183070Y-67820588D01*
X56183069Y-67820588D01*
X56060588Y-67943069D01*
X56060588Y-67943070D01*
X56060586Y-67943072D01*
X56033351Y-67980558D01*
X55958768Y-68083211D01*
X55880128Y-68237552D01*
X55826597Y-68402302D01*
X55818723Y-68452017D01*
X55799500Y-68573389D01*
X54104813Y-68573389D01*
X54055915Y-68524491D01*
X54055913Y-68524490D01*
X54055911Y-68524488D01*
X53930388Y-68452017D01*
X53930389Y-68452017D01*
X53918906Y-68448940D01*
X53790375Y-68414500D01*
X53645425Y-68414500D01*
X53516893Y-68448940D01*
X53505411Y-68452017D01*
X53379888Y-68524488D01*
X53379882Y-68524493D01*
X53277393Y-68626982D01*
X53277388Y-68626988D01*
X53204917Y-68752511D01*
X53204916Y-68752515D01*
X53167400Y-68892525D01*
X50500500Y-68892525D01*
X50500500Y-65815225D01*
X60187700Y-65815225D01*
X60187700Y-65960175D01*
X60225216Y-66100185D01*
X60225217Y-66100188D01*
X60297688Y-66225711D01*
X60297690Y-66225713D01*
X60297691Y-66225715D01*
X60400185Y-66328209D01*
X60400186Y-66328210D01*
X60400188Y-66328211D01*
X60525711Y-66400682D01*
X60525712Y-66400682D01*
X60525715Y-66400684D01*
X60665725Y-66438200D01*
X60665728Y-66438200D01*
X60810672Y-66438200D01*
X60810675Y-66438200D01*
X60950685Y-66400684D01*
X61076215Y-66328209D01*
X61129905Y-66274519D01*
X61191228Y-66241034D01*
X61217586Y-66238200D01*
X61551156Y-66238200D01*
X61618195Y-66257885D01*
X61638837Y-66274519D01*
X62566593Y-67202275D01*
X63471347Y-68107028D01*
X63504832Y-68168351D01*
X63501597Y-68233026D01*
X63446598Y-68402297D01*
X63446597Y-68402301D01*
X63427244Y-68524493D01*
X63419500Y-68573389D01*
X63419500Y-68746611D01*
X63420435Y-68752513D01*
X63442610Y-68892525D01*
X63446598Y-68917701D01*
X63500127Y-69082445D01*
X63578768Y-69236788D01*
X63680586Y-69376928D01*
X63803072Y-69499414D01*
X63943212Y-69601232D01*
X64097555Y-69679873D01*
X64262299Y-69733402D01*
X64433389Y-69760500D01*
X64433390Y-69760500D01*
X64606610Y-69760500D01*
X64606611Y-69760500D01*
X64777701Y-69733402D01*
X64942445Y-69679873D01*
X65096788Y-69601232D01*
X65236928Y-69499414D01*
X65359414Y-69376928D01*
X65461232Y-69236788D01*
X65539873Y-69082445D01*
X65593402Y-68917701D01*
X65620500Y-68746611D01*
X65620500Y-68573389D01*
X65959500Y-68573389D01*
X65959500Y-68746611D01*
X65960435Y-68752513D01*
X65982610Y-68892525D01*
X65986598Y-68917701D01*
X66040127Y-69082445D01*
X66118768Y-69236788D01*
X66220586Y-69376928D01*
X66343072Y-69499414D01*
X66483212Y-69601232D01*
X66637555Y-69679873D01*
X66802299Y-69733402D01*
X66973389Y-69760500D01*
X66973390Y-69760500D01*
X67146610Y-69760500D01*
X67146611Y-69760500D01*
X67317701Y-69733402D01*
X67482445Y-69679873D01*
X67636788Y-69601232D01*
X67776928Y-69499414D01*
X67899414Y-69376928D01*
X68001232Y-69236788D01*
X68079873Y-69082445D01*
X68133402Y-68917701D01*
X68160500Y-68746611D01*
X68160500Y-68573389D01*
X68499500Y-68573389D01*
X68499500Y-68746611D01*
X68500435Y-68752513D01*
X68522610Y-68892525D01*
X68526598Y-68917701D01*
X68580127Y-69082445D01*
X68658768Y-69236788D01*
X68760586Y-69376928D01*
X68883072Y-69499414D01*
X69023212Y-69601232D01*
X69177555Y-69679873D01*
X69342299Y-69733402D01*
X69513389Y-69760500D01*
X69513390Y-69760500D01*
X69686610Y-69760500D01*
X69686611Y-69760500D01*
X69857701Y-69733402D01*
X70022445Y-69679873D01*
X70176788Y-69601232D01*
X70316928Y-69499414D01*
X70439414Y-69376928D01*
X70541232Y-69236788D01*
X70619873Y-69082445D01*
X70673402Y-68917701D01*
X70700500Y-68746611D01*
X70700500Y-68573389D01*
X70673402Y-68402299D01*
X70619873Y-68237555D01*
X70541232Y-68083212D01*
X70439414Y-67943072D01*
X70316928Y-67820586D01*
X70176788Y-67718768D01*
X70022445Y-67640127D01*
X69857701Y-67586598D01*
X69857699Y-67586597D01*
X69857698Y-67586597D01*
X69726271Y-67565781D01*
X69686611Y-67559500D01*
X69513389Y-67559500D01*
X69473728Y-67565781D01*
X69342302Y-67586597D01*
X69177552Y-67640128D01*
X69023211Y-67718768D01*
X68943256Y-67776859D01*
X68883072Y-67820586D01*
X68883070Y-67820588D01*
X68883069Y-67820588D01*
X68760588Y-67943069D01*
X68760588Y-67943070D01*
X68760586Y-67943072D01*
X68733351Y-67980558D01*
X68658768Y-68083211D01*
X68580128Y-68237552D01*
X68526597Y-68402302D01*
X68518723Y-68452017D01*
X68499500Y-68573389D01*
X68160500Y-68573389D01*
X68133402Y-68402299D01*
X68079873Y-68237555D01*
X68001232Y-68083212D01*
X67899414Y-67943072D01*
X67776928Y-67820586D01*
X67636788Y-67718768D01*
X67482445Y-67640127D01*
X67317701Y-67586598D01*
X67317699Y-67586597D01*
X67317698Y-67586597D01*
X67186271Y-67565781D01*
X67146611Y-67559500D01*
X66973389Y-67559500D01*
X66933728Y-67565781D01*
X66802302Y-67586597D01*
X66637552Y-67640128D01*
X66483211Y-67718768D01*
X66403256Y-67776859D01*
X66343072Y-67820586D01*
X66343070Y-67820588D01*
X66343069Y-67820588D01*
X66220588Y-67943069D01*
X66220588Y-67943070D01*
X66220586Y-67943072D01*
X66193351Y-67980558D01*
X66118768Y-68083211D01*
X66040128Y-68237552D01*
X65986597Y-68402302D01*
X65978723Y-68452017D01*
X65959500Y-68573389D01*
X65620500Y-68573389D01*
X65593402Y-68402299D01*
X65539873Y-68237555D01*
X65461232Y-68083212D01*
X65359414Y-67943072D01*
X65236928Y-67820586D01*
X65096788Y-67718768D01*
X64942445Y-67640127D01*
X64777701Y-67586598D01*
X64777699Y-67586597D01*
X64777698Y-67586597D01*
X64646271Y-67565781D01*
X64606611Y-67559500D01*
X64433389Y-67559500D01*
X64401192Y-67564599D01*
X64262301Y-67586597D01*
X64262297Y-67586598D01*
X64093026Y-67641597D01*
X64023185Y-67643592D01*
X63967028Y-67611347D01*
X62987192Y-66631511D01*
X61962912Y-65607230D01*
X61962911Y-65607229D01*
X61962908Y-65607227D01*
X61882990Y-65561087D01*
X61882989Y-65561086D01*
X61882988Y-65561086D01*
X61793844Y-65537200D01*
X61793843Y-65537200D01*
X61217586Y-65537200D01*
X61150547Y-65517515D01*
X61129905Y-65500881D01*
X61076217Y-65447193D01*
X61076211Y-65447188D01*
X60950688Y-65374717D01*
X60950689Y-65374717D01*
X60939206Y-65371640D01*
X60810675Y-65337200D01*
X60665725Y-65337200D01*
X60537193Y-65371640D01*
X60525711Y-65374717D01*
X60400188Y-65447188D01*
X60400182Y-65447193D01*
X60297693Y-65549682D01*
X60297688Y-65549688D01*
X60225217Y-65675211D01*
X60225216Y-65675215D01*
X60187700Y-65815225D01*
X50500500Y-65815225D01*
X50500500Y-53074038D01*
X51399500Y-53074038D01*
X51399500Y-53325961D01*
X51438910Y-53574785D01*
X51516760Y-53814383D01*
X51631132Y-54038848D01*
X51779201Y-54242649D01*
X51779205Y-54242654D01*
X51957345Y-54420794D01*
X51957350Y-54420798D01*
X52100473Y-54524782D01*
X52161155Y-54568870D01*
X52301749Y-54640506D01*
X52385616Y-54683239D01*
X52385618Y-54683239D01*
X52385621Y-54683241D01*
X52625215Y-54761090D01*
X52874038Y-54800500D01*
X52874039Y-54800500D01*
X53125961Y-54800500D01*
X53125962Y-54800500D01*
X53374785Y-54761090D01*
X53614379Y-54683241D01*
X53838845Y-54568870D01*
X54042656Y-54420793D01*
X54220793Y-54242656D01*
X54268437Y-54177079D01*
X54304440Y-54127525D01*
X54649500Y-54127525D01*
X54649500Y-54272475D01*
X54679380Y-54383988D01*
X54687017Y-54412488D01*
X54759488Y-54538011D01*
X54759490Y-54538013D01*
X54759491Y-54538015D01*
X54861985Y-54640509D01*
X54861986Y-54640510D01*
X54861988Y-54640511D01*
X54878969Y-54650315D01*
X54987515Y-54712984D01*
X55107596Y-54745160D01*
X55167254Y-54781523D01*
X55197783Y-54844370D01*
X55199500Y-54864933D01*
X55199500Y-60770614D01*
X55179815Y-60837653D01*
X55163181Y-60858295D01*
X55159493Y-60861982D01*
X55159488Y-60861988D01*
X55087017Y-60987511D01*
X55087016Y-60987515D01*
X55049500Y-61127525D01*
X55049500Y-61272475D01*
X55063019Y-61322927D01*
X55087017Y-61412488D01*
X55159488Y-61538011D01*
X55159490Y-61538013D01*
X55159491Y-61538015D01*
X55261985Y-61640509D01*
X55261986Y-61640510D01*
X55261988Y-61640511D01*
X55387511Y-61712982D01*
X55387512Y-61712982D01*
X55387515Y-61712984D01*
X55527525Y-61750500D01*
X55527528Y-61750500D01*
X55672472Y-61750500D01*
X55672475Y-61750500D01*
X55812485Y-61712984D01*
X55813495Y-61712400D01*
X55814457Y-61712167D01*
X55819999Y-61709872D01*
X55820356Y-61710735D01*
X55881393Y-61695925D01*
X55947421Y-61718774D01*
X55990615Y-61773692D01*
X55999500Y-61819785D01*
X55999500Y-64170613D01*
X55979815Y-64237652D01*
X55963181Y-64258294D01*
X55959493Y-64261981D01*
X55959488Y-64261987D01*
X55887017Y-64387510D01*
X55887016Y-64387514D01*
X55849500Y-64527524D01*
X55849500Y-64672474D01*
X55887016Y-64812484D01*
X55887017Y-64812487D01*
X55959488Y-64938010D01*
X55959490Y-64938012D01*
X55959491Y-64938014D01*
X56061985Y-65040508D01*
X56061986Y-65040509D01*
X56061988Y-65040510D01*
X56187511Y-65112981D01*
X56187512Y-65112981D01*
X56187515Y-65112983D01*
X56327525Y-65150499D01*
X56327528Y-65150499D01*
X56472472Y-65150499D01*
X56472475Y-65150499D01*
X56612485Y-65112983D01*
X56738015Y-65040508D01*
X56840509Y-64938014D01*
X56912984Y-64812484D01*
X56950500Y-64672474D01*
X56950500Y-64527524D01*
X56912984Y-64387514D01*
X56905575Y-64374682D01*
X56840511Y-64261987D01*
X56840506Y-64261981D01*
X56836819Y-64258294D01*
X56803334Y-64196971D01*
X56800500Y-64170613D01*
X56800500Y-57302025D01*
X68928700Y-57302025D01*
X68928700Y-57446975D01*
X68959073Y-57560327D01*
X68966217Y-57586988D01*
X69038688Y-57712511D01*
X69038690Y-57712513D01*
X69038691Y-57712515D01*
X69141185Y-57815009D01*
X69141186Y-57815010D01*
X69141188Y-57815011D01*
X69266711Y-57887482D01*
X69266712Y-57887482D01*
X69266715Y-57887484D01*
X69406725Y-57925000D01*
X69406728Y-57925000D01*
X69551672Y-57925000D01*
X69551675Y-57925000D01*
X69691685Y-57887484D01*
X69817215Y-57815009D01*
X69919709Y-57712515D01*
X69992184Y-57586985D01*
X70029700Y-57446975D01*
X70029700Y-57302025D01*
X69992184Y-57162015D01*
X69950653Y-57090082D01*
X69919711Y-57036488D01*
X69919706Y-57036482D01*
X69817217Y-56933993D01*
X69817211Y-56933988D01*
X69691688Y-56861517D01*
X69691689Y-56861517D01*
X69680206Y-56858440D01*
X69551675Y-56824000D01*
X69406725Y-56824000D01*
X69278193Y-56858440D01*
X69266711Y-56861517D01*
X69141188Y-56933988D01*
X69141182Y-56933993D01*
X69038693Y-57036482D01*
X69038688Y-57036488D01*
X68966217Y-57162011D01*
X68966216Y-57162015D01*
X68928700Y-57302025D01*
X56800500Y-57302025D01*
X56800500Y-54099025D01*
X68426700Y-54099025D01*
X68426700Y-54243975D01*
X68455061Y-54349817D01*
X68464217Y-54383988D01*
X68536688Y-54509511D01*
X68536690Y-54509513D01*
X68536691Y-54509515D01*
X68639185Y-54612009D01*
X68639186Y-54612010D01*
X68639188Y-54612011D01*
X68764711Y-54684482D01*
X68764712Y-54684482D01*
X68764715Y-54684484D01*
X68904725Y-54722000D01*
X68904728Y-54722000D01*
X69049672Y-54722000D01*
X69049675Y-54722000D01*
X69101109Y-54708218D01*
X69170956Y-54709881D01*
X69228818Y-54749043D01*
X69256323Y-54813271D01*
X69257200Y-54827993D01*
X69257200Y-54935275D01*
X69284615Y-55037588D01*
X69294717Y-55075288D01*
X69367188Y-55200811D01*
X69367190Y-55200813D01*
X69367191Y-55200815D01*
X69469685Y-55303309D01*
X69469686Y-55303310D01*
X69469688Y-55303311D01*
X69595211Y-55375782D01*
X69595212Y-55375782D01*
X69595215Y-55375784D01*
X69735225Y-55413300D01*
X69735228Y-55413300D01*
X69880172Y-55413300D01*
X69880175Y-55413300D01*
X70020185Y-55375784D01*
X70145715Y-55303309D01*
X70248209Y-55200815D01*
X70320684Y-55075285D01*
X70358200Y-54935275D01*
X70358200Y-54790325D01*
X70320684Y-54650315D01*
X70318308Y-54646200D01*
X70248211Y-54524788D01*
X70248206Y-54524782D01*
X70145717Y-54422293D01*
X70145711Y-54422288D01*
X70020188Y-54349817D01*
X70020189Y-54349817D01*
X70008706Y-54346740D01*
X69880175Y-54312300D01*
X69735225Y-54312300D01*
X69735223Y-54312300D01*
X69683792Y-54326081D01*
X69613943Y-54324418D01*
X69556080Y-54285255D01*
X69528577Y-54221026D01*
X69527700Y-54206306D01*
X69527700Y-54099027D01*
X69527700Y-54099025D01*
X69490184Y-53959015D01*
X69434165Y-53861988D01*
X69417711Y-53833488D01*
X69417706Y-53833482D01*
X69315217Y-53730993D01*
X69315211Y-53730988D01*
X69189688Y-53658517D01*
X69189689Y-53658517D01*
X69156037Y-53649500D01*
X69049675Y-53621000D01*
X68904725Y-53621000D01*
X68798363Y-53649500D01*
X68764711Y-53658517D01*
X68639188Y-53730988D01*
X68639182Y-53730993D01*
X68536693Y-53833482D01*
X68536688Y-53833488D01*
X68464217Y-53959011D01*
X68464216Y-53959015D01*
X68426700Y-54099025D01*
X56800500Y-54099025D01*
X56800500Y-53129386D01*
X56816752Y-53074038D01*
X108699500Y-53074038D01*
X108699500Y-53325961D01*
X108738910Y-53574785D01*
X108816760Y-53814383D01*
X108931132Y-54038848D01*
X109079201Y-54242649D01*
X109079205Y-54242654D01*
X109257345Y-54420794D01*
X109257350Y-54420798D01*
X109400473Y-54524782D01*
X109461155Y-54568870D01*
X109601749Y-54640506D01*
X109685616Y-54683239D01*
X109685618Y-54683239D01*
X109685621Y-54683241D01*
X109925215Y-54761090D01*
X110174038Y-54800500D01*
X110174039Y-54800500D01*
X110425961Y-54800500D01*
X110425962Y-54800500D01*
X110674785Y-54761090D01*
X110914379Y-54683241D01*
X111138845Y-54568870D01*
X111342656Y-54420793D01*
X111520793Y-54242656D01*
X111668870Y-54038845D01*
X111783241Y-53814379D01*
X111861090Y-53574785D01*
X111900500Y-53325962D01*
X111900500Y-53074038D01*
X111861090Y-52825215D01*
X111783241Y-52585621D01*
X111783239Y-52585618D01*
X111783239Y-52585616D01*
X111741747Y-52504184D01*
X111668870Y-52361155D01*
X111649952Y-52335117D01*
X111520798Y-52157350D01*
X111520794Y-52157345D01*
X111342654Y-51979205D01*
X111342649Y-51979201D01*
X111138848Y-51831132D01*
X111138847Y-51831131D01*
X111138845Y-51831130D01*
X111068747Y-51795413D01*
X110914383Y-51716760D01*
X110674785Y-51638910D01*
X110425962Y-51599500D01*
X110174038Y-51599500D01*
X110049626Y-51619205D01*
X109925214Y-51638910D01*
X109685616Y-51716760D01*
X109461151Y-51831132D01*
X109257350Y-51979201D01*
X109257345Y-51979205D01*
X109079205Y-52157345D01*
X109079201Y-52157350D01*
X108931132Y-52361151D01*
X108816760Y-52585616D01*
X108738910Y-52825214D01*
X108699500Y-53074038D01*
X56816752Y-53074038D01*
X56820185Y-53062347D01*
X56822165Y-53059361D01*
X56828671Y-53049852D01*
X56840509Y-53038015D01*
X56912984Y-52912485D01*
X56950500Y-52772475D01*
X56950500Y-52627525D01*
X56912984Y-52487515D01*
X56840509Y-52361985D01*
X56738015Y-52259491D01*
X56738013Y-52259490D01*
X56738011Y-52259488D01*
X56612488Y-52187017D01*
X56612489Y-52187017D01*
X56601006Y-52183940D01*
X56472475Y-52149500D01*
X56327525Y-52149500D01*
X56198993Y-52183940D01*
X56187511Y-52187017D01*
X56061988Y-52259488D01*
X56061982Y-52259493D01*
X55959493Y-52361982D01*
X55959488Y-52361988D01*
X55887017Y-52487511D01*
X55887016Y-52487515D01*
X55849500Y-52627525D01*
X55849500Y-52772475D01*
X55863632Y-52825214D01*
X55887017Y-52912488D01*
X55959488Y-53038011D01*
X55959493Y-53038017D01*
X55963181Y-53041705D01*
X55996666Y-53103028D01*
X55999500Y-53129386D01*
X55999500Y-54133745D01*
X55993261Y-54154990D01*
X55991682Y-54177079D01*
X55983609Y-54187862D01*
X55979815Y-54200784D01*
X55963081Y-54215283D01*
X55949810Y-54233012D01*
X55937189Y-54237719D01*
X55927011Y-54246539D01*
X55905093Y-54249690D01*
X55884346Y-54257429D01*
X55871185Y-54254566D01*
X55857853Y-54256483D01*
X55837709Y-54247283D01*
X55816073Y-54242577D01*
X55798347Y-54229308D01*
X55794297Y-54227458D01*
X55787819Y-54221426D01*
X55786819Y-54220426D01*
X55753334Y-54159103D01*
X55750500Y-54132745D01*
X55750500Y-54127527D01*
X55750500Y-54127525D01*
X55712984Y-53987515D01*
X55699163Y-53963577D01*
X55640511Y-53861988D01*
X55640506Y-53861982D01*
X55538017Y-53759493D01*
X55538011Y-53759488D01*
X55412488Y-53687017D01*
X55412489Y-53687017D01*
X55401006Y-53683940D01*
X55272475Y-53649500D01*
X55127525Y-53649500D01*
X54998993Y-53683940D01*
X54987511Y-53687017D01*
X54861988Y-53759488D01*
X54861982Y-53759493D01*
X54759493Y-53861982D01*
X54759488Y-53861988D01*
X54687017Y-53987511D01*
X54687016Y-53987515D01*
X54649500Y-54127525D01*
X54304440Y-54127525D01*
X54363297Y-54046516D01*
X54363298Y-54046515D01*
X54366134Y-54042609D01*
X54368870Y-54038845D01*
X54483241Y-53814379D01*
X54561090Y-53574785D01*
X54600500Y-53325962D01*
X54600500Y-53074038D01*
X54561090Y-52825215D01*
X54483241Y-52585621D01*
X54483239Y-52585618D01*
X54483239Y-52585616D01*
X54441747Y-52504184D01*
X54368870Y-52361155D01*
X54349952Y-52335117D01*
X54220798Y-52157350D01*
X54220794Y-52157345D01*
X54042654Y-51979205D01*
X54042649Y-51979201D01*
X53838848Y-51831132D01*
X53838847Y-51831131D01*
X53838845Y-51831130D01*
X53768747Y-51795413D01*
X53614383Y-51716760D01*
X53374785Y-51638910D01*
X53125962Y-51599500D01*
X52874038Y-51599500D01*
X52749626Y-51619205D01*
X52625214Y-51638910D01*
X52385616Y-51716760D01*
X52161151Y-51831132D01*
X51957350Y-51979201D01*
X51957345Y-51979205D01*
X51779205Y-52157345D01*
X51779201Y-52157350D01*
X51631132Y-52361151D01*
X51516760Y-52585616D01*
X51438910Y-52825214D01*
X51399500Y-53074038D01*
X50500500Y-53074038D01*
X50500500Y-50624500D01*
X50520185Y-50557461D01*
X50572989Y-50511706D01*
X50624500Y-50500500D01*
X112875500Y-50500500D01*
X112942539Y-50520185D01*
G37*
%TD.AperFunction*%
%TD*%
M02*
