%TF.GenerationSoftware,KiCad,Pcbnew,10.0.4*%
%TF.CreationDate,2026-08-20T21:58:05+07:00*%
%TF.ProjectId,gpio_breakout,6770696f-5f62-4726-9561-6b6f75742e6b,rev?*%
%TF.SameCoordinates,Original*%
%TF.FileFunction,Soldermask,Top*%
%TF.FilePolarity,Negative*%
%FSLAX46Y46*%
G04 Gerber Fmt 4.6, Leading zero omitted, Abs format (unit mm)*
G04 Created by KiCad (PCBNEW 10.0.4) date 2026-08-20 21:58:05*
%MOMM*%
%LPD*%
G01*
G04 APERTURE LIST*
G04 Aperture macros list*
%AMRoundRect*
0 Rectangle with rounded corners*
0 $1 Rounding radius*
0 $2 $3 $4 $5 $6 $7 $8 $9 X,Y pos of 4 corners*
0 Add a 4 corners polygon primitive as box body*
4,1,4,$2,$3,$4,$5,$6,$7,$8,$9,$2,$3,0*
0 Add four circle primitives for the rounded corners*
1,1,$1+$1,$2,$3*
1,1,$1+$1,$4,$5*
1,1,$1+$1,$6,$7*
1,1,$1+$1,$8,$9*
0 Add four rect primitives between the rounded corners*
20,1,$1+$1,$2,$3,$4,$5,0*
20,1,$1+$1,$4,$5,$6,$7,0*
20,1,$1+$1,$6,$7,$8,$9,0*
20,1,$1+$1,$8,$9,$2,$3,0*%
%AMFreePoly0*
4,1,23,0.500000,-0.750000,0.000000,-0.750000,0.000000,-0.745722,-0.065263,-0.745722,-0.191342,-0.711940,-0.304381,-0.646677,-0.396677,-0.554381,-0.461940,-0.441342,-0.495722,-0.315263,-0.495722,-0.250000,-0.500000,-0.250000,-0.500000,0.250000,-0.495722,0.250000,-0.495722,0.315263,-0.461940,0.441342,-0.396677,0.554381,-0.304381,0.646677,-0.191342,0.711940,-0.065263,0.745722,0.000000,0.745722,
0.000000,0.750000,0.500000,0.750000,0.500000,-0.750000,0.500000,-0.750000,$1*%
%AMFreePoly1*
4,1,23,0.000000,0.745722,0.065263,0.745722,0.191342,0.711940,0.304381,0.646677,0.396677,0.554381,0.461940,0.441342,0.495722,0.315263,0.495722,0.250000,0.500000,0.250000,0.500000,-0.250000,0.495722,-0.250000,0.495722,-0.315263,0.461940,-0.441342,0.396677,-0.554381,0.304381,-0.646677,0.191342,-0.711940,0.065263,-0.745722,0.000000,-0.745722,0.000000,-0.750000,-0.500000,-0.750000,
-0.500000,0.750000,0.000000,0.750000,0.000000,0.745722,0.000000,0.745722,$1*%
G04 Aperture macros list end*
%ADD10R,1.500000X1.500000*%
%ADD11FreePoly0,0.000000*%
%ADD12FreePoly1,0.000000*%
%ADD13FreePoly0,90.000000*%
%ADD14FreePoly1,90.000000*%
%ADD15R,0.300000X0.650000*%
%ADD16R,0.400000X1.000000*%
%ADD17R,0.400000X1.550000*%
%ADD18RoundRect,0.250000X0.625000X-0.375000X0.625000X0.375000X-0.625000X0.375000X-0.625000X-0.375000X0*%
%ADD19C,2.700000*%
%ADD20R,1.700000X1.700000*%
%ADD21C,1.700000*%
G04 APERTURE END LIST*
%TO.C,JP1*%
G36*
X95850000Y-75850000D02*
G01*
X96150000Y-75850000D01*
X96150000Y-77350000D01*
X95850000Y-77350000D01*
X95850000Y-75850000D01*
G37*
%TO.C,JP4*%
G36*
X52550000Y-58050000D02*
G01*
X54050000Y-58050000D01*
X54050000Y-58350000D01*
X52550000Y-58350000D01*
X52550000Y-58050000D01*
G37*
%TO.C,JP3*%
G36*
X105850000Y-75850000D02*
G01*
X106150000Y-75850000D01*
X106150000Y-77350000D01*
X105850000Y-77350000D01*
X105850000Y-75850000D01*
G37*
%TO.C,JP2*%
G36*
X100850000Y-75850000D02*
G01*
X101150000Y-75850000D01*
X101150000Y-77350000D01*
X100850000Y-77350000D01*
X100850000Y-75850000D01*
G37*
%TO.C,JP5*%
G36*
X52550000Y-66850000D02*
G01*
X54050000Y-66850000D01*
X54050000Y-67150000D01*
X52550000Y-67150000D01*
X52550000Y-66850000D01*
G37*
%TD*%
D10*
%TO.C,TP1*%
X96000000Y-80000000D03*
%TD*%
D11*
%TO.C,JP1*%
X95350000Y-76600000D03*
D12*
X96650000Y-76600000D03*
%TD*%
D13*
%TO.C,JP4*%
X53300000Y-58850000D03*
D14*
X53300000Y-57550000D03*
%TD*%
D15*
%TO.C,J1*%
X90750000Y-56790000D03*
X90250000Y-56790000D03*
X89750000Y-56790000D03*
X89250000Y-56790000D03*
X88750000Y-56790000D03*
X88250000Y-56790000D03*
X87750000Y-56790000D03*
X87250000Y-56790000D03*
X86750000Y-56790000D03*
X86250000Y-56790000D03*
X85750000Y-56790000D03*
X85250000Y-56790000D03*
X84750000Y-56790000D03*
X84250000Y-56790000D03*
X83750000Y-56790000D03*
X83250000Y-56790000D03*
X82750000Y-56790000D03*
X82250000Y-56790000D03*
X81750000Y-56790000D03*
X81250000Y-56790000D03*
X80750000Y-56790000D03*
X80250000Y-56790000D03*
X79750000Y-56790000D03*
X79250000Y-56790000D03*
X78750000Y-56790000D03*
X78250000Y-56790000D03*
X77750000Y-56790000D03*
X77250000Y-56790000D03*
X76750000Y-56790000D03*
X76250000Y-56790000D03*
X75750000Y-56790000D03*
X75250000Y-56790000D03*
X74750000Y-56790000D03*
X74250000Y-56790000D03*
X73750000Y-56790000D03*
X73250000Y-56790000D03*
X72750000Y-56790000D03*
X72250000Y-56790000D03*
X71750000Y-56790000D03*
X71250000Y-56790000D03*
D16*
X89750000Y-51010000D03*
X87250000Y-51010000D03*
X84750000Y-51010000D03*
X82250000Y-51010000D03*
X79750000Y-51010000D03*
X77250000Y-51010000D03*
X74750000Y-51010000D03*
X72250000Y-51010000D03*
D17*
X70000000Y-51540000D03*
X92000000Y-51540000D03*
%TD*%
D18*
%TO.C,F1*%
X53300000Y-64000000D03*
X53300000Y-61200000D03*
%TD*%
D11*
%TO.C,JP3*%
X105350000Y-76600000D03*
D12*
X106650000Y-76600000D03*
%TD*%
D10*
%TO.C,TP4*%
X111000000Y-80000000D03*
%TD*%
D11*
%TO.C,JP2*%
X100350000Y-76600000D03*
D12*
X101650000Y-76600000D03*
%TD*%
D19*
%TO.C,H2*%
X110300000Y-53200000D03*
%TD*%
D10*
%TO.C,TP2*%
X101000000Y-80000000D03*
%TD*%
D20*
%TO.C,J2*%
X56900000Y-71200000D03*
D21*
X56900000Y-68660000D03*
X59440000Y-71200000D03*
X59440000Y-68660000D03*
X61980000Y-71200000D03*
X61980000Y-68660000D03*
X64520000Y-71200000D03*
X64520000Y-68660000D03*
X67060000Y-71200000D03*
X67060000Y-68660000D03*
X69600000Y-71200000D03*
X69600000Y-68660000D03*
X72140000Y-71200000D03*
X72140000Y-68660000D03*
X74680000Y-71200000D03*
X74680000Y-68660000D03*
X77220000Y-71200000D03*
X77220000Y-68660000D03*
X79760000Y-71200000D03*
X79760000Y-68660000D03*
X82300000Y-71200000D03*
X82300000Y-68660000D03*
X84840000Y-71200000D03*
X84840000Y-68660000D03*
X87380000Y-71200000D03*
X87380000Y-68660000D03*
X89920000Y-71200000D03*
X89920000Y-68660000D03*
X92460000Y-71200000D03*
X92460000Y-68660000D03*
X95000000Y-71200000D03*
X95000000Y-68660000D03*
X97540000Y-71200000D03*
X97540000Y-68660000D03*
X100080000Y-71200000D03*
X100080000Y-68660000D03*
X102620000Y-71200000D03*
X102620000Y-68660000D03*
X105160000Y-71200000D03*
X105160000Y-68660000D03*
%TD*%
D19*
%TO.C,H1*%
X53000000Y-53200000D03*
%TD*%
D10*
%TO.C,TP5*%
X111000000Y-76600000D03*
%TD*%
D13*
%TO.C,JP5*%
X53300000Y-67650000D03*
D14*
X53300000Y-66350000D03*
%TD*%
D10*
%TO.C,TP3*%
X106000000Y-80000000D03*
%TD*%
M02*
