%TF.GenerationSoftware,KiCad,Pcbnew,10.0.4*%
%TF.CreationDate,2026-08-21T01:30:42+07:00*%
%TF.ProjectId,gpio_breakout,6770696f-5f62-4726-9561-6b6f75742e6b,rev?*%
%TF.SameCoordinates,Original*%
%TF.FileFunction,Drillmap*%
%TF.FilePolarity,Positive*%
%FSLAX45Y45*%
G04 Gerber Fmt 4.5, Leading zero omitted, Abs format (unit mm)*
G04 Created by KiCad (PCBNEW 10.0.4) date 2026-08-21 01:30:42*
%MOMM*%
%LPD*%
G01*
G04 APERTURE LIST*
%ADD10C,0.100000*%
%ADD11C,0.200000*%
%ADD12C,0.270000*%
G04 APERTURE END LIST*
D10*
X5000000Y-5000000D02*
X11350000Y-5000000D01*
X5000000Y-8200000D02*
X5000000Y-5000000D01*
X11350000Y-5000000D02*
X11350000Y-8200000D01*
X11350000Y-8200000D02*
X5000000Y-8200000D01*
D11*
D10*
X5356790Y-6881500D02*
X5386790Y-6911500D01*
X5386790Y-6881500D02*
X5356790Y-6911500D01*
X5505000Y-5405000D02*
X5535000Y-5435000D01*
X5535000Y-5405000D02*
X5505000Y-5435000D01*
X5545000Y-6105000D02*
X5575000Y-6135000D01*
X5575000Y-6105000D02*
X5545000Y-6135000D01*
X5625000Y-5255000D02*
X5655000Y-5285000D01*
X5655000Y-5255000D02*
X5625000Y-5285000D01*
X5625000Y-6445000D02*
X5655000Y-6475000D01*
X5655000Y-6445000D02*
X5625000Y-6475000D01*
X6058820Y-6573770D02*
X6088820Y-6603770D01*
X6088820Y-6573770D02*
X6058820Y-6603770D01*
X6882720Y-5402150D02*
X6912720Y-5432150D01*
X6912720Y-5402150D02*
X6882720Y-5432150D01*
X6932920Y-5722450D02*
X6962920Y-5752450D01*
X6962920Y-5722450D02*
X6932920Y-5752450D01*
X6965770Y-5471280D02*
X6995770Y-5501280D01*
X6995770Y-5471280D02*
X6965770Y-5501280D01*
X7089400Y-6995390D02*
X7119400Y-7025390D01*
X7119400Y-6995390D02*
X7089400Y-7025390D01*
X7181950Y-5517070D02*
X7211950Y-5547070D01*
X7211950Y-5517070D02*
X7181950Y-5547070D01*
X7245670Y-5452440D02*
X7275670Y-5482440D01*
X7275670Y-5452440D02*
X7245670Y-5482440D01*
X7352930Y-5755140D02*
X7382930Y-5785140D01*
X7382930Y-5755140D02*
X7352930Y-5785140D01*
X7384530Y-6550050D02*
X7414530Y-6580050D01*
X7414530Y-6550050D02*
X7384530Y-6580050D01*
X7427630Y-5407780D02*
X7457630Y-5437780D01*
X7457630Y-5407780D02*
X7427630Y-5437780D01*
X7436060Y-5538790D02*
X7466060Y-5568790D01*
X7466060Y-5538790D02*
X7436060Y-5568790D01*
X7491900Y-6604100D02*
X7521900Y-6634100D01*
X7521900Y-6604100D02*
X7491900Y-6634100D01*
X7549920Y-5832320D02*
X7579920Y-5862320D01*
X7579920Y-5832320D02*
X7549920Y-5862320D01*
X7551130Y-5748280D02*
X7581130Y-5778280D01*
X7581130Y-5748280D02*
X7551130Y-5778280D01*
X7562170Y-5954560D02*
X7592170Y-5984560D01*
X7592170Y-5954560D02*
X7562170Y-5984560D01*
X7606360Y-6060330D02*
X7636360Y-6090330D01*
X7636360Y-6060330D02*
X7606360Y-6090330D01*
X7610000Y-5545000D02*
X7640000Y-5575000D01*
X7640000Y-5545000D02*
X7610000Y-5575000D01*
X7631320Y-5750390D02*
X7661320Y-5780390D01*
X7661320Y-5750390D02*
X7631320Y-5780390D01*
X7656680Y-6670690D02*
X7686680Y-6700690D01*
X7686680Y-6670690D02*
X7656680Y-6700690D01*
X7760120Y-5772540D02*
X7790120Y-5802540D01*
X7790120Y-5772540D02*
X7760120Y-5802540D01*
X7771110Y-5561420D02*
X7801110Y-5591420D01*
X7801110Y-5561420D02*
X7771110Y-5591420D01*
X7833270Y-6697980D02*
X7863270Y-6727980D01*
X7863270Y-6697980D02*
X7833270Y-6727980D01*
X7860000Y-5545000D02*
X7890000Y-5575000D01*
X7890000Y-5545000D02*
X7860000Y-5575000D01*
X7878570Y-5996180D02*
X7908570Y-6026180D01*
X7908570Y-5996180D02*
X7878570Y-6026180D01*
X7958750Y-5979020D02*
X7988750Y-6009020D01*
X7988750Y-5979020D02*
X7958750Y-6009020D01*
X7972340Y-6124540D02*
X8002340Y-6154540D01*
X8002340Y-6124540D02*
X7972340Y-6154540D01*
X7981770Y-6697770D02*
X8011770Y-6727770D01*
X8011770Y-6697770D02*
X7981770Y-6727770D01*
X8000840Y-5842620D02*
X8030840Y-5872620D01*
X8030840Y-5842620D02*
X8000840Y-5872620D01*
X8009840Y-5514610D02*
X8039840Y-5544610D01*
X8039840Y-5514610D02*
X8009840Y-5544610D01*
X8100460Y-5838590D02*
X8130460Y-5868590D01*
X8130460Y-5838590D02*
X8100460Y-5868590D01*
X8110000Y-5545000D02*
X8140000Y-5575000D01*
X8140000Y-5545000D02*
X8110000Y-5575000D01*
X8157540Y-6009000D02*
X8187540Y-6039000D01*
X8187540Y-6009000D02*
X8157540Y-6039000D01*
X8218430Y-5773310D02*
X8248430Y-5803310D01*
X8248430Y-5773310D02*
X8218430Y-5803310D01*
X8312380Y-5522560D02*
X8342380Y-5552560D01*
X8342380Y-5522560D02*
X8312380Y-5552560D01*
X8410000Y-5545000D02*
X8440000Y-5575000D01*
X8440000Y-5545000D02*
X8410000Y-5575000D01*
X8539650Y-5545380D02*
X8569650Y-5575380D01*
X8569650Y-5545380D02*
X8539650Y-5575380D01*
X8562260Y-6456270D02*
X8592260Y-6486270D01*
X8592260Y-6456270D02*
X8562260Y-6486270D01*
X8641230Y-6570690D02*
X8671230Y-6600690D01*
X8671230Y-6570690D02*
X8641230Y-6600690D01*
X8660000Y-5545000D02*
X8690000Y-5575000D01*
X8690000Y-5545000D02*
X8660000Y-5575000D01*
X8810000Y-5545000D02*
X8840000Y-5575000D01*
X8840000Y-5545000D02*
X8810000Y-5575000D01*
X8859480Y-5922940D02*
X8889480Y-5952940D01*
X8889480Y-5922940D02*
X8859480Y-5952940D01*
X8978280Y-5757910D02*
X9008280Y-5787910D01*
X9008280Y-5757910D02*
X8978280Y-5787910D01*
X9156350Y-5668520D02*
X9186350Y-5698520D01*
X9186350Y-5668520D02*
X9156350Y-5698520D01*
X9176560Y-6346050D02*
X9206560Y-6376050D01*
X9206560Y-6346050D02*
X9176560Y-6376050D01*
X9254740Y-6109900D02*
X9284740Y-6139900D01*
X9284740Y-6109900D02*
X9254740Y-6139900D01*
X9886140Y-7633910D02*
X9916140Y-7663910D01*
X9916140Y-7633910D02*
X9886140Y-7663910D01*
X10299720Y-7719540D02*
X10329720Y-7749540D01*
X10329720Y-7719540D02*
X10299720Y-7749540D01*
X5740000Y-6866000D02*
G75*
G02*
X5640000Y-6866000I-50000J0D01*
G01*
X5640000Y-6866000D02*
G75*
G02*
X5740000Y-6866000I50000J0D01*
G01*
X5740000Y-7120000D02*
G75*
G02*
X5640000Y-7120000I-50000J0D01*
G01*
X5640000Y-7120000D02*
G75*
G02*
X5740000Y-7120000I50000J0D01*
G01*
X5994000Y-6866000D02*
G75*
G02*
X5894000Y-6866000I-50000J0D01*
G01*
X5894000Y-6866000D02*
G75*
G02*
X5994000Y-6866000I50000J0D01*
G01*
X5994000Y-7120000D02*
G75*
G02*
X5894000Y-7120000I-50000J0D01*
G01*
X5894000Y-7120000D02*
G75*
G02*
X5994000Y-7120000I50000J0D01*
G01*
X6248000Y-6866000D02*
G75*
G02*
X6148000Y-6866000I-50000J0D01*
G01*
X6148000Y-6866000D02*
G75*
G02*
X6248000Y-6866000I50000J0D01*
G01*
X6248000Y-7120000D02*
G75*
G02*
X6148000Y-7120000I-50000J0D01*
G01*
X6148000Y-7120000D02*
G75*
G02*
X6248000Y-7120000I50000J0D01*
G01*
X6502000Y-6866000D02*
G75*
G02*
X6402000Y-6866000I-50000J0D01*
G01*
X6402000Y-6866000D02*
G75*
G02*
X6502000Y-6866000I50000J0D01*
G01*
X6502000Y-7120000D02*
G75*
G02*
X6402000Y-7120000I-50000J0D01*
G01*
X6402000Y-7120000D02*
G75*
G02*
X6502000Y-7120000I50000J0D01*
G01*
X6756000Y-6866000D02*
G75*
G02*
X6656000Y-6866000I-50000J0D01*
G01*
X6656000Y-6866000D02*
G75*
G02*
X6756000Y-6866000I50000J0D01*
G01*
X6756000Y-7120000D02*
G75*
G02*
X6656000Y-7120000I-50000J0D01*
G01*
X6656000Y-7120000D02*
G75*
G02*
X6756000Y-7120000I50000J0D01*
G01*
X7010000Y-6866000D02*
G75*
G02*
X6910000Y-6866000I-50000J0D01*
G01*
X6910000Y-6866000D02*
G75*
G02*
X7010000Y-6866000I50000J0D01*
G01*
X7010000Y-7120000D02*
G75*
G02*
X6910000Y-7120000I-50000J0D01*
G01*
X6910000Y-7120000D02*
G75*
G02*
X7010000Y-7120000I50000J0D01*
G01*
X7264000Y-6866000D02*
G75*
G02*
X7164000Y-6866000I-50000J0D01*
G01*
X7164000Y-6866000D02*
G75*
G02*
X7264000Y-6866000I50000J0D01*
G01*
X7264000Y-7120000D02*
G75*
G02*
X7164000Y-7120000I-50000J0D01*
G01*
X7164000Y-7120000D02*
G75*
G02*
X7264000Y-7120000I50000J0D01*
G01*
X7518000Y-6866000D02*
G75*
G02*
X7418000Y-6866000I-50000J0D01*
G01*
X7418000Y-6866000D02*
G75*
G02*
X7518000Y-6866000I50000J0D01*
G01*
X7518000Y-7120000D02*
G75*
G02*
X7418000Y-7120000I-50000J0D01*
G01*
X7418000Y-7120000D02*
G75*
G02*
X7518000Y-7120000I50000J0D01*
G01*
X7772000Y-6866000D02*
G75*
G02*
X7672000Y-6866000I-50000J0D01*
G01*
X7672000Y-6866000D02*
G75*
G02*
X7772000Y-6866000I50000J0D01*
G01*
X7772000Y-7120000D02*
G75*
G02*
X7672000Y-7120000I-50000J0D01*
G01*
X7672000Y-7120000D02*
G75*
G02*
X7772000Y-7120000I50000J0D01*
G01*
X8026000Y-6866000D02*
G75*
G02*
X7926000Y-6866000I-50000J0D01*
G01*
X7926000Y-6866000D02*
G75*
G02*
X8026000Y-6866000I50000J0D01*
G01*
X8026000Y-7120000D02*
G75*
G02*
X7926000Y-7120000I-50000J0D01*
G01*
X7926000Y-7120000D02*
G75*
G02*
X8026000Y-7120000I50000J0D01*
G01*
X8280000Y-6866000D02*
G75*
G02*
X8180000Y-6866000I-50000J0D01*
G01*
X8180000Y-6866000D02*
G75*
G02*
X8280000Y-6866000I50000J0D01*
G01*
X8280000Y-7120000D02*
G75*
G02*
X8180000Y-7120000I-50000J0D01*
G01*
X8180000Y-7120000D02*
G75*
G02*
X8280000Y-7120000I50000J0D01*
G01*
X8534000Y-6866000D02*
G75*
G02*
X8434000Y-6866000I-50000J0D01*
G01*
X8434000Y-6866000D02*
G75*
G02*
X8534000Y-6866000I50000J0D01*
G01*
X8534000Y-7120000D02*
G75*
G02*
X8434000Y-7120000I-50000J0D01*
G01*
X8434000Y-7120000D02*
G75*
G02*
X8534000Y-7120000I50000J0D01*
G01*
X8788000Y-6866000D02*
G75*
G02*
X8688000Y-6866000I-50000J0D01*
G01*
X8688000Y-6866000D02*
G75*
G02*
X8788000Y-6866000I50000J0D01*
G01*
X8788000Y-7120000D02*
G75*
G02*
X8688000Y-7120000I-50000J0D01*
G01*
X8688000Y-7120000D02*
G75*
G02*
X8788000Y-7120000I50000J0D01*
G01*
X9042000Y-6866000D02*
G75*
G02*
X8942000Y-6866000I-50000J0D01*
G01*
X8942000Y-6866000D02*
G75*
G02*
X9042000Y-6866000I50000J0D01*
G01*
X9042000Y-7120000D02*
G75*
G02*
X8942000Y-7120000I-50000J0D01*
G01*
X8942000Y-7120000D02*
G75*
G02*
X9042000Y-7120000I50000J0D01*
G01*
X9296000Y-6866000D02*
G75*
G02*
X9196000Y-6866000I-50000J0D01*
G01*
X9196000Y-6866000D02*
G75*
G02*
X9296000Y-6866000I50000J0D01*
G01*
X9296000Y-7120000D02*
G75*
G02*
X9196000Y-7120000I-50000J0D01*
G01*
X9196000Y-7120000D02*
G75*
G02*
X9296000Y-7120000I50000J0D01*
G01*
X9550000Y-6866000D02*
G75*
G02*
X9450000Y-6866000I-50000J0D01*
G01*
X9450000Y-6866000D02*
G75*
G02*
X9550000Y-6866000I50000J0D01*
G01*
X9550000Y-7120000D02*
G75*
G02*
X9450000Y-7120000I-50000J0D01*
G01*
X9450000Y-7120000D02*
G75*
G02*
X9550000Y-7120000I50000J0D01*
G01*
X9804000Y-6866000D02*
G75*
G02*
X9704000Y-6866000I-50000J0D01*
G01*
X9704000Y-6866000D02*
G75*
G02*
X9804000Y-6866000I50000J0D01*
G01*
X9804000Y-7120000D02*
G75*
G02*
X9704000Y-7120000I-50000J0D01*
G01*
X9704000Y-7120000D02*
G75*
G02*
X9804000Y-7120000I50000J0D01*
G01*
X10058000Y-6866000D02*
G75*
G02*
X9958000Y-6866000I-50000J0D01*
G01*
X9958000Y-6866000D02*
G75*
G02*
X10058000Y-6866000I50000J0D01*
G01*
X10058000Y-7120000D02*
G75*
G02*
X9958000Y-7120000I-50000J0D01*
G01*
X9958000Y-7120000D02*
G75*
G02*
X10058000Y-7120000I50000J0D01*
G01*
X10312000Y-6866000D02*
G75*
G02*
X10212000Y-6866000I-50000J0D01*
G01*
X10212000Y-6866000D02*
G75*
G02*
X10312000Y-6866000I50000J0D01*
G01*
X10312000Y-7120000D02*
G75*
G02*
X10212000Y-7120000I-50000J0D01*
G01*
X10212000Y-7120000D02*
G75*
G02*
X10312000Y-7120000I50000J0D01*
G01*
X10566000Y-6866000D02*
G75*
G02*
X10466000Y-6866000I-50000J0D01*
G01*
X10466000Y-6866000D02*
G75*
G02*
X10566000Y-6866000I50000J0D01*
G01*
X10566000Y-7120000D02*
G75*
G02*
X10466000Y-7120000I-50000J0D01*
G01*
X10466000Y-7120000D02*
G75*
G02*
X10566000Y-7120000I50000J0D01*
G01*
D12*
X5300000Y-5185000D02*
X5300000Y-5455000D01*
X5165000Y-5320000D02*
X5435000Y-5320000D01*
X11030000Y-5185000D02*
X11030000Y-5455000D01*
X10895000Y-5320000D02*
X11165000Y-5320000D01*
D11*
X5255777Y-8516484D02*
X5255777Y-8316484D01*
X5255777Y-8316484D02*
X5303396Y-8316484D01*
X5303396Y-8316484D02*
X5331967Y-8326008D01*
X5331967Y-8326008D02*
X5351015Y-8345055D01*
X5351015Y-8345055D02*
X5360539Y-8364103D01*
X5360539Y-8364103D02*
X5370063Y-8402198D01*
X5370063Y-8402198D02*
X5370063Y-8430770D01*
X5370063Y-8430770D02*
X5360539Y-8468865D01*
X5360539Y-8468865D02*
X5351015Y-8487912D01*
X5351015Y-8487912D02*
X5331967Y-8506960D01*
X5331967Y-8506960D02*
X5303396Y-8516484D01*
X5303396Y-8516484D02*
X5255777Y-8516484D01*
X5455777Y-8516484D02*
X5455777Y-8383150D01*
X5455777Y-8421246D02*
X5465301Y-8402198D01*
X5465301Y-8402198D02*
X5474824Y-8392674D01*
X5474824Y-8392674D02*
X5493872Y-8383150D01*
X5493872Y-8383150D02*
X5512920Y-8383150D01*
X5579586Y-8516484D02*
X5579586Y-8383150D01*
X5579586Y-8316484D02*
X5570063Y-8326008D01*
X5570063Y-8326008D02*
X5579586Y-8335531D01*
X5579586Y-8335531D02*
X5589110Y-8326008D01*
X5589110Y-8326008D02*
X5579586Y-8316484D01*
X5579586Y-8316484D02*
X5579586Y-8335531D01*
X5703396Y-8516484D02*
X5684348Y-8506960D01*
X5684348Y-8506960D02*
X5674824Y-8487912D01*
X5674824Y-8487912D02*
X5674824Y-8316484D01*
X5808158Y-8516484D02*
X5789110Y-8506960D01*
X5789110Y-8506960D02*
X5779586Y-8487912D01*
X5779586Y-8487912D02*
X5779586Y-8316484D01*
X6036729Y-8516484D02*
X6036729Y-8316484D01*
X6036729Y-8316484D02*
X6103396Y-8459341D01*
X6103396Y-8459341D02*
X6170062Y-8316484D01*
X6170062Y-8316484D02*
X6170062Y-8516484D01*
X6351015Y-8516484D02*
X6351015Y-8411722D01*
X6351015Y-8411722D02*
X6341491Y-8392674D01*
X6341491Y-8392674D02*
X6322443Y-8383150D01*
X6322443Y-8383150D02*
X6284348Y-8383150D01*
X6284348Y-8383150D02*
X6265301Y-8392674D01*
X6351015Y-8506960D02*
X6331967Y-8516484D01*
X6331967Y-8516484D02*
X6284348Y-8516484D01*
X6284348Y-8516484D02*
X6265301Y-8506960D01*
X6265301Y-8506960D02*
X6255777Y-8487912D01*
X6255777Y-8487912D02*
X6255777Y-8468865D01*
X6255777Y-8468865D02*
X6265301Y-8449817D01*
X6265301Y-8449817D02*
X6284348Y-8440293D01*
X6284348Y-8440293D02*
X6331967Y-8440293D01*
X6331967Y-8440293D02*
X6351015Y-8430770D01*
X6446253Y-8383150D02*
X6446253Y-8583150D01*
X6446253Y-8392674D02*
X6465301Y-8383150D01*
X6465301Y-8383150D02*
X6503396Y-8383150D01*
X6503396Y-8383150D02*
X6522443Y-8392674D01*
X6522443Y-8392674D02*
X6531967Y-8402198D01*
X6531967Y-8402198D02*
X6541491Y-8421246D01*
X6541491Y-8421246D02*
X6541491Y-8478389D01*
X6541491Y-8478389D02*
X6531967Y-8497436D01*
X6531967Y-8497436D02*
X6522443Y-8506960D01*
X6522443Y-8506960D02*
X6503396Y-8516484D01*
X6503396Y-8516484D02*
X6465301Y-8516484D01*
X6465301Y-8516484D02*
X6446253Y-8506960D01*
X6627205Y-8497436D02*
X6636729Y-8506960D01*
X6636729Y-8506960D02*
X6627205Y-8516484D01*
X6627205Y-8516484D02*
X6617682Y-8506960D01*
X6617682Y-8506960D02*
X6627205Y-8497436D01*
X6627205Y-8497436D02*
X6627205Y-8516484D01*
X6627205Y-8392674D02*
X6636729Y-8402198D01*
X6636729Y-8402198D02*
X6627205Y-8411722D01*
X6627205Y-8411722D02*
X6617682Y-8402198D01*
X6617682Y-8402198D02*
X6627205Y-8392674D01*
X6627205Y-8392674D02*
X6627205Y-8411722D01*
D10*
X4965000Y-8830000D02*
X4995000Y-8860000D01*
X4995000Y-8830000D02*
X4965000Y-8860000D01*
D11*
X5293872Y-8736484D02*
X5312920Y-8736484D01*
X5312920Y-8736484D02*
X5331967Y-8746008D01*
X5331967Y-8746008D02*
X5341491Y-8755531D01*
X5341491Y-8755531D02*
X5351015Y-8774579D01*
X5351015Y-8774579D02*
X5360539Y-8812674D01*
X5360539Y-8812674D02*
X5360539Y-8860293D01*
X5360539Y-8860293D02*
X5351015Y-8898389D01*
X5351015Y-8898389D02*
X5341491Y-8917436D01*
X5341491Y-8917436D02*
X5331967Y-8926960D01*
X5331967Y-8926960D02*
X5312920Y-8936484D01*
X5312920Y-8936484D02*
X5293872Y-8936484D01*
X5293872Y-8936484D02*
X5274824Y-8926960D01*
X5274824Y-8926960D02*
X5265301Y-8917436D01*
X5265301Y-8917436D02*
X5255777Y-8898389D01*
X5255777Y-8898389D02*
X5246253Y-8860293D01*
X5246253Y-8860293D02*
X5246253Y-8812674D01*
X5246253Y-8812674D02*
X5255777Y-8774579D01*
X5255777Y-8774579D02*
X5265301Y-8755531D01*
X5265301Y-8755531D02*
X5274824Y-8746008D01*
X5274824Y-8746008D02*
X5293872Y-8736484D01*
X5446253Y-8917436D02*
X5455777Y-8926960D01*
X5455777Y-8926960D02*
X5446253Y-8936484D01*
X5446253Y-8936484D02*
X5436729Y-8926960D01*
X5436729Y-8926960D02*
X5446253Y-8917436D01*
X5446253Y-8917436D02*
X5446253Y-8936484D01*
X5522444Y-8736484D02*
X5646253Y-8736484D01*
X5646253Y-8736484D02*
X5579586Y-8812674D01*
X5579586Y-8812674D02*
X5608158Y-8812674D01*
X5608158Y-8812674D02*
X5627205Y-8822198D01*
X5627205Y-8822198D02*
X5636729Y-8831722D01*
X5636729Y-8831722D02*
X5646253Y-8850770D01*
X5646253Y-8850770D02*
X5646253Y-8898389D01*
X5646253Y-8898389D02*
X5636729Y-8917436D01*
X5636729Y-8917436D02*
X5627205Y-8926960D01*
X5627205Y-8926960D02*
X5608158Y-8936484D01*
X5608158Y-8936484D02*
X5551015Y-8936484D01*
X5551015Y-8936484D02*
X5531967Y-8926960D01*
X5531967Y-8926960D02*
X5522444Y-8917436D01*
X5770062Y-8736484D02*
X5789110Y-8736484D01*
X5789110Y-8736484D02*
X5808158Y-8746008D01*
X5808158Y-8746008D02*
X5817682Y-8755531D01*
X5817682Y-8755531D02*
X5827205Y-8774579D01*
X5827205Y-8774579D02*
X5836729Y-8812674D01*
X5836729Y-8812674D02*
X5836729Y-8860293D01*
X5836729Y-8860293D02*
X5827205Y-8898389D01*
X5827205Y-8898389D02*
X5817682Y-8917436D01*
X5817682Y-8917436D02*
X5808158Y-8926960D01*
X5808158Y-8926960D02*
X5789110Y-8936484D01*
X5789110Y-8936484D02*
X5770062Y-8936484D01*
X5770062Y-8936484D02*
X5751015Y-8926960D01*
X5751015Y-8926960D02*
X5741491Y-8917436D01*
X5741491Y-8917436D02*
X5731967Y-8898389D01*
X5731967Y-8898389D02*
X5722443Y-8860293D01*
X5722443Y-8860293D02*
X5722443Y-8812674D01*
X5722443Y-8812674D02*
X5731967Y-8774579D01*
X5731967Y-8774579D02*
X5741491Y-8755531D01*
X5741491Y-8755531D02*
X5751015Y-8746008D01*
X5751015Y-8746008D02*
X5770062Y-8736484D01*
X5960539Y-8736484D02*
X5979586Y-8736484D01*
X5979586Y-8736484D02*
X5998634Y-8746008D01*
X5998634Y-8746008D02*
X6008158Y-8755531D01*
X6008158Y-8755531D02*
X6017682Y-8774579D01*
X6017682Y-8774579D02*
X6027205Y-8812674D01*
X6027205Y-8812674D02*
X6027205Y-8860293D01*
X6027205Y-8860293D02*
X6017682Y-8898389D01*
X6017682Y-8898389D02*
X6008158Y-8917436D01*
X6008158Y-8917436D02*
X5998634Y-8926960D01*
X5998634Y-8926960D02*
X5979586Y-8936484D01*
X5979586Y-8936484D02*
X5960539Y-8936484D01*
X5960539Y-8936484D02*
X5941491Y-8926960D01*
X5941491Y-8926960D02*
X5931967Y-8917436D01*
X5931967Y-8917436D02*
X5922443Y-8898389D01*
X5922443Y-8898389D02*
X5912920Y-8860293D01*
X5912920Y-8860293D02*
X5912920Y-8812674D01*
X5912920Y-8812674D02*
X5922443Y-8774579D01*
X5922443Y-8774579D02*
X5931967Y-8755531D01*
X5931967Y-8755531D02*
X5941491Y-8746008D01*
X5941491Y-8746008D02*
X5960539Y-8736484D01*
X6112920Y-8936484D02*
X6112920Y-8803150D01*
X6112920Y-8822198D02*
X6122443Y-8812674D01*
X6122443Y-8812674D02*
X6141491Y-8803150D01*
X6141491Y-8803150D02*
X6170063Y-8803150D01*
X6170063Y-8803150D02*
X6189110Y-8812674D01*
X6189110Y-8812674D02*
X6198634Y-8831722D01*
X6198634Y-8831722D02*
X6198634Y-8936484D01*
X6198634Y-8831722D02*
X6208158Y-8812674D01*
X6208158Y-8812674D02*
X6227205Y-8803150D01*
X6227205Y-8803150D02*
X6255777Y-8803150D01*
X6255777Y-8803150D02*
X6274824Y-8812674D01*
X6274824Y-8812674D02*
X6284348Y-8831722D01*
X6284348Y-8831722D02*
X6284348Y-8936484D01*
X6379586Y-8936484D02*
X6379586Y-8803150D01*
X6379586Y-8822198D02*
X6389110Y-8812674D01*
X6389110Y-8812674D02*
X6408158Y-8803150D01*
X6408158Y-8803150D02*
X6436729Y-8803150D01*
X6436729Y-8803150D02*
X6455777Y-8812674D01*
X6455777Y-8812674D02*
X6465301Y-8831722D01*
X6465301Y-8831722D02*
X6465301Y-8936484D01*
X6465301Y-8831722D02*
X6474824Y-8812674D01*
X6474824Y-8812674D02*
X6493872Y-8803150D01*
X6493872Y-8803150D02*
X6522443Y-8803150D01*
X6522443Y-8803150D02*
X6541491Y-8812674D01*
X6541491Y-8812674D02*
X6551015Y-8831722D01*
X6551015Y-8831722D02*
X6551015Y-8936484D01*
X6941491Y-8726960D02*
X6770063Y-8984103D01*
X7198634Y-8736484D02*
X7217682Y-8736484D01*
X7217682Y-8736484D02*
X7236729Y-8746008D01*
X7236729Y-8746008D02*
X7246253Y-8755531D01*
X7246253Y-8755531D02*
X7255777Y-8774579D01*
X7255777Y-8774579D02*
X7265301Y-8812674D01*
X7265301Y-8812674D02*
X7265301Y-8860293D01*
X7265301Y-8860293D02*
X7255777Y-8898389D01*
X7255777Y-8898389D02*
X7246253Y-8917436D01*
X7246253Y-8917436D02*
X7236729Y-8926960D01*
X7236729Y-8926960D02*
X7217682Y-8936484D01*
X7217682Y-8936484D02*
X7198634Y-8936484D01*
X7198634Y-8936484D02*
X7179586Y-8926960D01*
X7179586Y-8926960D02*
X7170063Y-8917436D01*
X7170063Y-8917436D02*
X7160539Y-8898389D01*
X7160539Y-8898389D02*
X7151015Y-8860293D01*
X7151015Y-8860293D02*
X7151015Y-8812674D01*
X7151015Y-8812674D02*
X7160539Y-8774579D01*
X7160539Y-8774579D02*
X7170063Y-8755531D01*
X7170063Y-8755531D02*
X7179586Y-8746008D01*
X7179586Y-8746008D02*
X7198634Y-8736484D01*
X7351015Y-8917436D02*
X7360539Y-8926960D01*
X7360539Y-8926960D02*
X7351015Y-8936484D01*
X7351015Y-8936484D02*
X7341491Y-8926960D01*
X7341491Y-8926960D02*
X7351015Y-8917436D01*
X7351015Y-8917436D02*
X7351015Y-8936484D01*
X7484348Y-8736484D02*
X7503396Y-8736484D01*
X7503396Y-8736484D02*
X7522444Y-8746008D01*
X7522444Y-8746008D02*
X7531967Y-8755531D01*
X7531967Y-8755531D02*
X7541491Y-8774579D01*
X7541491Y-8774579D02*
X7551015Y-8812674D01*
X7551015Y-8812674D02*
X7551015Y-8860293D01*
X7551015Y-8860293D02*
X7541491Y-8898389D01*
X7541491Y-8898389D02*
X7531967Y-8917436D01*
X7531967Y-8917436D02*
X7522444Y-8926960D01*
X7522444Y-8926960D02*
X7503396Y-8936484D01*
X7503396Y-8936484D02*
X7484348Y-8936484D01*
X7484348Y-8936484D02*
X7465301Y-8926960D01*
X7465301Y-8926960D02*
X7455777Y-8917436D01*
X7455777Y-8917436D02*
X7446253Y-8898389D01*
X7446253Y-8898389D02*
X7436729Y-8860293D01*
X7436729Y-8860293D02*
X7436729Y-8812674D01*
X7436729Y-8812674D02*
X7446253Y-8774579D01*
X7446253Y-8774579D02*
X7455777Y-8755531D01*
X7455777Y-8755531D02*
X7465301Y-8746008D01*
X7465301Y-8746008D02*
X7484348Y-8736484D01*
X7741491Y-8936484D02*
X7627206Y-8936484D01*
X7684348Y-8936484D02*
X7684348Y-8736484D01*
X7684348Y-8736484D02*
X7665301Y-8765055D01*
X7665301Y-8765055D02*
X7646253Y-8784103D01*
X7646253Y-8784103D02*
X7627206Y-8793627D01*
X7931967Y-8936484D02*
X7817682Y-8936484D01*
X7874825Y-8936484D02*
X7874825Y-8736484D01*
X7874825Y-8736484D02*
X7855777Y-8765055D01*
X7855777Y-8765055D02*
X7836729Y-8784103D01*
X7836729Y-8784103D02*
X7817682Y-8793627D01*
X8046253Y-8822198D02*
X8027206Y-8812674D01*
X8027206Y-8812674D02*
X8017682Y-8803150D01*
X8017682Y-8803150D02*
X8008158Y-8784103D01*
X8008158Y-8784103D02*
X8008158Y-8774579D01*
X8008158Y-8774579D02*
X8017682Y-8755531D01*
X8017682Y-8755531D02*
X8027206Y-8746008D01*
X8027206Y-8746008D02*
X8046253Y-8736484D01*
X8046253Y-8736484D02*
X8084348Y-8736484D01*
X8084348Y-8736484D02*
X8103396Y-8746008D01*
X8103396Y-8746008D02*
X8112920Y-8755531D01*
X8112920Y-8755531D02*
X8122444Y-8774579D01*
X8122444Y-8774579D02*
X8122444Y-8784103D01*
X8122444Y-8784103D02*
X8112920Y-8803150D01*
X8112920Y-8803150D02*
X8103396Y-8812674D01*
X8103396Y-8812674D02*
X8084348Y-8822198D01*
X8084348Y-8822198D02*
X8046253Y-8822198D01*
X8046253Y-8822198D02*
X8027206Y-8831722D01*
X8027206Y-8831722D02*
X8017682Y-8841246D01*
X8017682Y-8841246D02*
X8008158Y-8860293D01*
X8008158Y-8860293D02*
X8008158Y-8898389D01*
X8008158Y-8898389D02*
X8017682Y-8917436D01*
X8017682Y-8917436D02*
X8027206Y-8926960D01*
X8027206Y-8926960D02*
X8046253Y-8936484D01*
X8046253Y-8936484D02*
X8084348Y-8936484D01*
X8084348Y-8936484D02*
X8103396Y-8926960D01*
X8103396Y-8926960D02*
X8112920Y-8917436D01*
X8112920Y-8917436D02*
X8122444Y-8898389D01*
X8122444Y-8898389D02*
X8122444Y-8860293D01*
X8122444Y-8860293D02*
X8112920Y-8841246D01*
X8112920Y-8841246D02*
X8103396Y-8831722D01*
X8103396Y-8831722D02*
X8084348Y-8822198D01*
X8198634Y-8736484D02*
X8198634Y-8774579D01*
X8274825Y-8736484D02*
X8274825Y-8774579D01*
X8570063Y-9012674D02*
X8560539Y-9003150D01*
X8560539Y-9003150D02*
X8541491Y-8974579D01*
X8541491Y-8974579D02*
X8531968Y-8955531D01*
X8531968Y-8955531D02*
X8522444Y-8926960D01*
X8522444Y-8926960D02*
X8512920Y-8879341D01*
X8512920Y-8879341D02*
X8512920Y-8841246D01*
X8512920Y-8841246D02*
X8522444Y-8793627D01*
X8522444Y-8793627D02*
X8531968Y-8765055D01*
X8531968Y-8765055D02*
X8541491Y-8746008D01*
X8541491Y-8746008D02*
X8560539Y-8717436D01*
X8560539Y-8717436D02*
X8570063Y-8707912D01*
X8741491Y-8736484D02*
X8646253Y-8736484D01*
X8646253Y-8736484D02*
X8636730Y-8831722D01*
X8636730Y-8831722D02*
X8646253Y-8822198D01*
X8646253Y-8822198D02*
X8665301Y-8812674D01*
X8665301Y-8812674D02*
X8712920Y-8812674D01*
X8712920Y-8812674D02*
X8731968Y-8822198D01*
X8731968Y-8822198D02*
X8741491Y-8831722D01*
X8741491Y-8831722D02*
X8751015Y-8850770D01*
X8751015Y-8850770D02*
X8751015Y-8898389D01*
X8751015Y-8898389D02*
X8741491Y-8917436D01*
X8741491Y-8917436D02*
X8731968Y-8926960D01*
X8731968Y-8926960D02*
X8712920Y-8936484D01*
X8712920Y-8936484D02*
X8665301Y-8936484D01*
X8665301Y-8936484D02*
X8646253Y-8926960D01*
X8646253Y-8926960D02*
X8636730Y-8917436D01*
X8827206Y-8755531D02*
X8836730Y-8746008D01*
X8836730Y-8746008D02*
X8855777Y-8736484D01*
X8855777Y-8736484D02*
X8903396Y-8736484D01*
X8903396Y-8736484D02*
X8922444Y-8746008D01*
X8922444Y-8746008D02*
X8931968Y-8755531D01*
X8931968Y-8755531D02*
X8941491Y-8774579D01*
X8941491Y-8774579D02*
X8941491Y-8793627D01*
X8941491Y-8793627D02*
X8931968Y-8822198D01*
X8931968Y-8822198D02*
X8817682Y-8936484D01*
X8817682Y-8936484D02*
X8941491Y-8936484D01*
X9179587Y-8936484D02*
X9179587Y-8736484D01*
X9265301Y-8936484D02*
X9265301Y-8831722D01*
X9265301Y-8831722D02*
X9255777Y-8812674D01*
X9255777Y-8812674D02*
X9236730Y-8803150D01*
X9236730Y-8803150D02*
X9208158Y-8803150D01*
X9208158Y-8803150D02*
X9189111Y-8812674D01*
X9189111Y-8812674D02*
X9179587Y-8822198D01*
X9389111Y-8936484D02*
X9370063Y-8926960D01*
X9370063Y-8926960D02*
X9360539Y-8917436D01*
X9360539Y-8917436D02*
X9351015Y-8898389D01*
X9351015Y-8898389D02*
X9351015Y-8841246D01*
X9351015Y-8841246D02*
X9360539Y-8822198D01*
X9360539Y-8822198D02*
X9370063Y-8812674D01*
X9370063Y-8812674D02*
X9389111Y-8803150D01*
X9389111Y-8803150D02*
X9417682Y-8803150D01*
X9417682Y-8803150D02*
X9436730Y-8812674D01*
X9436730Y-8812674D02*
X9446253Y-8822198D01*
X9446253Y-8822198D02*
X9455777Y-8841246D01*
X9455777Y-8841246D02*
X9455777Y-8898389D01*
X9455777Y-8898389D02*
X9446253Y-8917436D01*
X9446253Y-8917436D02*
X9436730Y-8926960D01*
X9436730Y-8926960D02*
X9417682Y-8936484D01*
X9417682Y-8936484D02*
X9389111Y-8936484D01*
X9570063Y-8936484D02*
X9551015Y-8926960D01*
X9551015Y-8926960D02*
X9541492Y-8907912D01*
X9541492Y-8907912D02*
X9541492Y-8736484D01*
X9722444Y-8926960D02*
X9703396Y-8936484D01*
X9703396Y-8936484D02*
X9665301Y-8936484D01*
X9665301Y-8936484D02*
X9646253Y-8926960D01*
X9646253Y-8926960D02*
X9636730Y-8907912D01*
X9636730Y-8907912D02*
X9636730Y-8831722D01*
X9636730Y-8831722D02*
X9646253Y-8812674D01*
X9646253Y-8812674D02*
X9665301Y-8803150D01*
X9665301Y-8803150D02*
X9703396Y-8803150D01*
X9703396Y-8803150D02*
X9722444Y-8812674D01*
X9722444Y-8812674D02*
X9731968Y-8831722D01*
X9731968Y-8831722D02*
X9731968Y-8850770D01*
X9731968Y-8850770D02*
X9636730Y-8869817D01*
X9808158Y-8926960D02*
X9827206Y-8936484D01*
X9827206Y-8936484D02*
X9865301Y-8936484D01*
X9865301Y-8936484D02*
X9884349Y-8926960D01*
X9884349Y-8926960D02*
X9893873Y-8907912D01*
X9893873Y-8907912D02*
X9893873Y-8898389D01*
X9893873Y-8898389D02*
X9884349Y-8879341D01*
X9884349Y-8879341D02*
X9865301Y-8869817D01*
X9865301Y-8869817D02*
X9836730Y-8869817D01*
X9836730Y-8869817D02*
X9817682Y-8860293D01*
X9817682Y-8860293D02*
X9808158Y-8841246D01*
X9808158Y-8841246D02*
X9808158Y-8831722D01*
X9808158Y-8831722D02*
X9817682Y-8812674D01*
X9817682Y-8812674D02*
X9836730Y-8803150D01*
X9836730Y-8803150D02*
X9865301Y-8803150D01*
X9865301Y-8803150D02*
X9884349Y-8812674D01*
X9960539Y-9012674D02*
X9970063Y-9003150D01*
X9970063Y-9003150D02*
X9989111Y-8974579D01*
X9989111Y-8974579D02*
X9998634Y-8955531D01*
X9998634Y-8955531D02*
X10008158Y-8926960D01*
X10008158Y-8926960D02*
X10017682Y-8879341D01*
X10017682Y-8879341D02*
X10017682Y-8841246D01*
X10017682Y-8841246D02*
X10008158Y-8793627D01*
X10008158Y-8793627D02*
X9998634Y-8765055D01*
X9998634Y-8765055D02*
X9989111Y-8746008D01*
X9989111Y-8746008D02*
X9970063Y-8717436D01*
X9970063Y-8717436D02*
X9960539Y-8707912D01*
D10*
X4995000Y-9109000D02*
G75*
G02*
X4895000Y-9109000I-50000J0D01*
G01*
X4895000Y-9109000D02*
G75*
G02*
X4995000Y-9109000I50000J0D01*
G01*
D11*
X5360539Y-9200484D02*
X5246253Y-9200484D01*
X5303396Y-9200484D02*
X5303396Y-9000484D01*
X5303396Y-9000484D02*
X5284348Y-9029055D01*
X5284348Y-9029055D02*
X5265301Y-9048103D01*
X5265301Y-9048103D02*
X5246253Y-9057627D01*
X5446253Y-9181436D02*
X5455777Y-9190960D01*
X5455777Y-9190960D02*
X5446253Y-9200484D01*
X5446253Y-9200484D02*
X5436729Y-9190960D01*
X5436729Y-9190960D02*
X5446253Y-9181436D01*
X5446253Y-9181436D02*
X5446253Y-9200484D01*
X5579586Y-9000484D02*
X5598634Y-9000484D01*
X5598634Y-9000484D02*
X5617682Y-9010008D01*
X5617682Y-9010008D02*
X5627205Y-9019531D01*
X5627205Y-9019531D02*
X5636729Y-9038579D01*
X5636729Y-9038579D02*
X5646253Y-9076674D01*
X5646253Y-9076674D02*
X5646253Y-9124293D01*
X5646253Y-9124293D02*
X5636729Y-9162389D01*
X5636729Y-9162389D02*
X5627205Y-9181436D01*
X5627205Y-9181436D02*
X5617682Y-9190960D01*
X5617682Y-9190960D02*
X5598634Y-9200484D01*
X5598634Y-9200484D02*
X5579586Y-9200484D01*
X5579586Y-9200484D02*
X5560539Y-9190960D01*
X5560539Y-9190960D02*
X5551015Y-9181436D01*
X5551015Y-9181436D02*
X5541491Y-9162389D01*
X5541491Y-9162389D02*
X5531967Y-9124293D01*
X5531967Y-9124293D02*
X5531967Y-9076674D01*
X5531967Y-9076674D02*
X5541491Y-9038579D01*
X5541491Y-9038579D02*
X5551015Y-9019531D01*
X5551015Y-9019531D02*
X5560539Y-9010008D01*
X5560539Y-9010008D02*
X5579586Y-9000484D01*
X5770062Y-9000484D02*
X5789110Y-9000484D01*
X5789110Y-9000484D02*
X5808158Y-9010008D01*
X5808158Y-9010008D02*
X5817682Y-9019531D01*
X5817682Y-9019531D02*
X5827205Y-9038579D01*
X5827205Y-9038579D02*
X5836729Y-9076674D01*
X5836729Y-9076674D02*
X5836729Y-9124293D01*
X5836729Y-9124293D02*
X5827205Y-9162389D01*
X5827205Y-9162389D02*
X5817682Y-9181436D01*
X5817682Y-9181436D02*
X5808158Y-9190960D01*
X5808158Y-9190960D02*
X5789110Y-9200484D01*
X5789110Y-9200484D02*
X5770062Y-9200484D01*
X5770062Y-9200484D02*
X5751015Y-9190960D01*
X5751015Y-9190960D02*
X5741491Y-9181436D01*
X5741491Y-9181436D02*
X5731967Y-9162389D01*
X5731967Y-9162389D02*
X5722443Y-9124293D01*
X5722443Y-9124293D02*
X5722443Y-9076674D01*
X5722443Y-9076674D02*
X5731967Y-9038579D01*
X5731967Y-9038579D02*
X5741491Y-9019531D01*
X5741491Y-9019531D02*
X5751015Y-9010008D01*
X5751015Y-9010008D02*
X5770062Y-9000484D01*
X5960539Y-9000484D02*
X5979586Y-9000484D01*
X5979586Y-9000484D02*
X5998634Y-9010008D01*
X5998634Y-9010008D02*
X6008158Y-9019531D01*
X6008158Y-9019531D02*
X6017682Y-9038579D01*
X6017682Y-9038579D02*
X6027205Y-9076674D01*
X6027205Y-9076674D02*
X6027205Y-9124293D01*
X6027205Y-9124293D02*
X6017682Y-9162389D01*
X6017682Y-9162389D02*
X6008158Y-9181436D01*
X6008158Y-9181436D02*
X5998634Y-9190960D01*
X5998634Y-9190960D02*
X5979586Y-9200484D01*
X5979586Y-9200484D02*
X5960539Y-9200484D01*
X5960539Y-9200484D02*
X5941491Y-9190960D01*
X5941491Y-9190960D02*
X5931967Y-9181436D01*
X5931967Y-9181436D02*
X5922443Y-9162389D01*
X5922443Y-9162389D02*
X5912920Y-9124293D01*
X5912920Y-9124293D02*
X5912920Y-9076674D01*
X5912920Y-9076674D02*
X5922443Y-9038579D01*
X5922443Y-9038579D02*
X5931967Y-9019531D01*
X5931967Y-9019531D02*
X5941491Y-9010008D01*
X5941491Y-9010008D02*
X5960539Y-9000484D01*
X6112920Y-9200484D02*
X6112920Y-9067150D01*
X6112920Y-9086198D02*
X6122443Y-9076674D01*
X6122443Y-9076674D02*
X6141491Y-9067150D01*
X6141491Y-9067150D02*
X6170063Y-9067150D01*
X6170063Y-9067150D02*
X6189110Y-9076674D01*
X6189110Y-9076674D02*
X6198634Y-9095722D01*
X6198634Y-9095722D02*
X6198634Y-9200484D01*
X6198634Y-9095722D02*
X6208158Y-9076674D01*
X6208158Y-9076674D02*
X6227205Y-9067150D01*
X6227205Y-9067150D02*
X6255777Y-9067150D01*
X6255777Y-9067150D02*
X6274824Y-9076674D01*
X6274824Y-9076674D02*
X6284348Y-9095722D01*
X6284348Y-9095722D02*
X6284348Y-9200484D01*
X6379586Y-9200484D02*
X6379586Y-9067150D01*
X6379586Y-9086198D02*
X6389110Y-9076674D01*
X6389110Y-9076674D02*
X6408158Y-9067150D01*
X6408158Y-9067150D02*
X6436729Y-9067150D01*
X6436729Y-9067150D02*
X6455777Y-9076674D01*
X6455777Y-9076674D02*
X6465301Y-9095722D01*
X6465301Y-9095722D02*
X6465301Y-9200484D01*
X6465301Y-9095722D02*
X6474824Y-9076674D01*
X6474824Y-9076674D02*
X6493872Y-9067150D01*
X6493872Y-9067150D02*
X6522443Y-9067150D01*
X6522443Y-9067150D02*
X6541491Y-9076674D01*
X6541491Y-9076674D02*
X6551015Y-9095722D01*
X6551015Y-9095722D02*
X6551015Y-9200484D01*
X6941491Y-8990960D02*
X6770063Y-9248103D01*
X7198634Y-9000484D02*
X7217682Y-9000484D01*
X7217682Y-9000484D02*
X7236729Y-9010008D01*
X7236729Y-9010008D02*
X7246253Y-9019531D01*
X7246253Y-9019531D02*
X7255777Y-9038579D01*
X7255777Y-9038579D02*
X7265301Y-9076674D01*
X7265301Y-9076674D02*
X7265301Y-9124293D01*
X7265301Y-9124293D02*
X7255777Y-9162389D01*
X7255777Y-9162389D02*
X7246253Y-9181436D01*
X7246253Y-9181436D02*
X7236729Y-9190960D01*
X7236729Y-9190960D02*
X7217682Y-9200484D01*
X7217682Y-9200484D02*
X7198634Y-9200484D01*
X7198634Y-9200484D02*
X7179586Y-9190960D01*
X7179586Y-9190960D02*
X7170063Y-9181436D01*
X7170063Y-9181436D02*
X7160539Y-9162389D01*
X7160539Y-9162389D02*
X7151015Y-9124293D01*
X7151015Y-9124293D02*
X7151015Y-9076674D01*
X7151015Y-9076674D02*
X7160539Y-9038579D01*
X7160539Y-9038579D02*
X7170063Y-9019531D01*
X7170063Y-9019531D02*
X7179586Y-9010008D01*
X7179586Y-9010008D02*
X7198634Y-9000484D01*
X7351015Y-9181436D02*
X7360539Y-9190960D01*
X7360539Y-9190960D02*
X7351015Y-9200484D01*
X7351015Y-9200484D02*
X7341491Y-9190960D01*
X7341491Y-9190960D02*
X7351015Y-9181436D01*
X7351015Y-9181436D02*
X7351015Y-9200484D01*
X7484348Y-9000484D02*
X7503396Y-9000484D01*
X7503396Y-9000484D02*
X7522444Y-9010008D01*
X7522444Y-9010008D02*
X7531967Y-9019531D01*
X7531967Y-9019531D02*
X7541491Y-9038579D01*
X7541491Y-9038579D02*
X7551015Y-9076674D01*
X7551015Y-9076674D02*
X7551015Y-9124293D01*
X7551015Y-9124293D02*
X7541491Y-9162389D01*
X7541491Y-9162389D02*
X7531967Y-9181436D01*
X7531967Y-9181436D02*
X7522444Y-9190960D01*
X7522444Y-9190960D02*
X7503396Y-9200484D01*
X7503396Y-9200484D02*
X7484348Y-9200484D01*
X7484348Y-9200484D02*
X7465301Y-9190960D01*
X7465301Y-9190960D02*
X7455777Y-9181436D01*
X7455777Y-9181436D02*
X7446253Y-9162389D01*
X7446253Y-9162389D02*
X7436729Y-9124293D01*
X7436729Y-9124293D02*
X7436729Y-9076674D01*
X7436729Y-9076674D02*
X7446253Y-9038579D01*
X7446253Y-9038579D02*
X7455777Y-9019531D01*
X7455777Y-9019531D02*
X7465301Y-9010008D01*
X7465301Y-9010008D02*
X7484348Y-9000484D01*
X7617682Y-9000484D02*
X7741491Y-9000484D01*
X7741491Y-9000484D02*
X7674825Y-9076674D01*
X7674825Y-9076674D02*
X7703396Y-9076674D01*
X7703396Y-9076674D02*
X7722444Y-9086198D01*
X7722444Y-9086198D02*
X7731967Y-9095722D01*
X7731967Y-9095722D02*
X7741491Y-9114770D01*
X7741491Y-9114770D02*
X7741491Y-9162389D01*
X7741491Y-9162389D02*
X7731967Y-9181436D01*
X7731967Y-9181436D02*
X7722444Y-9190960D01*
X7722444Y-9190960D02*
X7703396Y-9200484D01*
X7703396Y-9200484D02*
X7646253Y-9200484D01*
X7646253Y-9200484D02*
X7627206Y-9190960D01*
X7627206Y-9190960D02*
X7617682Y-9181436D01*
X7836729Y-9200484D02*
X7874825Y-9200484D01*
X7874825Y-9200484D02*
X7893872Y-9190960D01*
X7893872Y-9190960D02*
X7903396Y-9181436D01*
X7903396Y-9181436D02*
X7922444Y-9152865D01*
X7922444Y-9152865D02*
X7931967Y-9114770D01*
X7931967Y-9114770D02*
X7931967Y-9038579D01*
X7931967Y-9038579D02*
X7922444Y-9019531D01*
X7922444Y-9019531D02*
X7912920Y-9010008D01*
X7912920Y-9010008D02*
X7893872Y-9000484D01*
X7893872Y-9000484D02*
X7855777Y-9000484D01*
X7855777Y-9000484D02*
X7836729Y-9010008D01*
X7836729Y-9010008D02*
X7827206Y-9019531D01*
X7827206Y-9019531D02*
X7817682Y-9038579D01*
X7817682Y-9038579D02*
X7817682Y-9086198D01*
X7817682Y-9086198D02*
X7827206Y-9105246D01*
X7827206Y-9105246D02*
X7836729Y-9114770D01*
X7836729Y-9114770D02*
X7855777Y-9124293D01*
X7855777Y-9124293D02*
X7893872Y-9124293D01*
X7893872Y-9124293D02*
X7912920Y-9114770D01*
X7912920Y-9114770D02*
X7922444Y-9105246D01*
X7922444Y-9105246D02*
X7931967Y-9086198D01*
X8103396Y-9067150D02*
X8103396Y-9200484D01*
X8055777Y-8990960D02*
X8008158Y-9133817D01*
X8008158Y-9133817D02*
X8131967Y-9133817D01*
X8198634Y-9000484D02*
X8198634Y-9038579D01*
X8274825Y-9000484D02*
X8274825Y-9038579D01*
X8570063Y-9276674D02*
X8560539Y-9267150D01*
X8560539Y-9267150D02*
X8541491Y-9238579D01*
X8541491Y-9238579D02*
X8531968Y-9219531D01*
X8531968Y-9219531D02*
X8522444Y-9190960D01*
X8522444Y-9190960D02*
X8512920Y-9143341D01*
X8512920Y-9143341D02*
X8512920Y-9105246D01*
X8512920Y-9105246D02*
X8522444Y-9057627D01*
X8522444Y-9057627D02*
X8531968Y-9029055D01*
X8531968Y-9029055D02*
X8541491Y-9010008D01*
X8541491Y-9010008D02*
X8560539Y-8981436D01*
X8560539Y-8981436D02*
X8570063Y-8971912D01*
X8731968Y-9067150D02*
X8731968Y-9200484D01*
X8684349Y-8990960D02*
X8636730Y-9133817D01*
X8636730Y-9133817D02*
X8760539Y-9133817D01*
X8874825Y-9000484D02*
X8893872Y-9000484D01*
X8893872Y-9000484D02*
X8912920Y-9010008D01*
X8912920Y-9010008D02*
X8922444Y-9019531D01*
X8922444Y-9019531D02*
X8931968Y-9038579D01*
X8931968Y-9038579D02*
X8941491Y-9076674D01*
X8941491Y-9076674D02*
X8941491Y-9124293D01*
X8941491Y-9124293D02*
X8931968Y-9162389D01*
X8931968Y-9162389D02*
X8922444Y-9181436D01*
X8922444Y-9181436D02*
X8912920Y-9190960D01*
X8912920Y-9190960D02*
X8893872Y-9200484D01*
X8893872Y-9200484D02*
X8874825Y-9200484D01*
X8874825Y-9200484D02*
X8855777Y-9190960D01*
X8855777Y-9190960D02*
X8846253Y-9181436D01*
X8846253Y-9181436D02*
X8836730Y-9162389D01*
X8836730Y-9162389D02*
X8827206Y-9124293D01*
X8827206Y-9124293D02*
X8827206Y-9076674D01*
X8827206Y-9076674D02*
X8836730Y-9038579D01*
X8836730Y-9038579D02*
X8846253Y-9019531D01*
X8846253Y-9019531D02*
X8855777Y-9010008D01*
X8855777Y-9010008D02*
X8874825Y-9000484D01*
X9179587Y-9200484D02*
X9179587Y-9000484D01*
X9265301Y-9200484D02*
X9265301Y-9095722D01*
X9265301Y-9095722D02*
X9255777Y-9076674D01*
X9255777Y-9076674D02*
X9236730Y-9067150D01*
X9236730Y-9067150D02*
X9208158Y-9067150D01*
X9208158Y-9067150D02*
X9189111Y-9076674D01*
X9189111Y-9076674D02*
X9179587Y-9086198D01*
X9389111Y-9200484D02*
X9370063Y-9190960D01*
X9370063Y-9190960D02*
X9360539Y-9181436D01*
X9360539Y-9181436D02*
X9351015Y-9162389D01*
X9351015Y-9162389D02*
X9351015Y-9105246D01*
X9351015Y-9105246D02*
X9360539Y-9086198D01*
X9360539Y-9086198D02*
X9370063Y-9076674D01*
X9370063Y-9076674D02*
X9389111Y-9067150D01*
X9389111Y-9067150D02*
X9417682Y-9067150D01*
X9417682Y-9067150D02*
X9436730Y-9076674D01*
X9436730Y-9076674D02*
X9446253Y-9086198D01*
X9446253Y-9086198D02*
X9455777Y-9105246D01*
X9455777Y-9105246D02*
X9455777Y-9162389D01*
X9455777Y-9162389D02*
X9446253Y-9181436D01*
X9446253Y-9181436D02*
X9436730Y-9190960D01*
X9436730Y-9190960D02*
X9417682Y-9200484D01*
X9417682Y-9200484D02*
X9389111Y-9200484D01*
X9570063Y-9200484D02*
X9551015Y-9190960D01*
X9551015Y-9190960D02*
X9541492Y-9171912D01*
X9541492Y-9171912D02*
X9541492Y-9000484D01*
X9722444Y-9190960D02*
X9703396Y-9200484D01*
X9703396Y-9200484D02*
X9665301Y-9200484D01*
X9665301Y-9200484D02*
X9646253Y-9190960D01*
X9646253Y-9190960D02*
X9636730Y-9171912D01*
X9636730Y-9171912D02*
X9636730Y-9095722D01*
X9636730Y-9095722D02*
X9646253Y-9076674D01*
X9646253Y-9076674D02*
X9665301Y-9067150D01*
X9665301Y-9067150D02*
X9703396Y-9067150D01*
X9703396Y-9067150D02*
X9722444Y-9076674D01*
X9722444Y-9076674D02*
X9731968Y-9095722D01*
X9731968Y-9095722D02*
X9731968Y-9114770D01*
X9731968Y-9114770D02*
X9636730Y-9133817D01*
X9808158Y-9190960D02*
X9827206Y-9200484D01*
X9827206Y-9200484D02*
X9865301Y-9200484D01*
X9865301Y-9200484D02*
X9884349Y-9190960D01*
X9884349Y-9190960D02*
X9893873Y-9171912D01*
X9893873Y-9171912D02*
X9893873Y-9162389D01*
X9893873Y-9162389D02*
X9884349Y-9143341D01*
X9884349Y-9143341D02*
X9865301Y-9133817D01*
X9865301Y-9133817D02*
X9836730Y-9133817D01*
X9836730Y-9133817D02*
X9817682Y-9124293D01*
X9817682Y-9124293D02*
X9808158Y-9105246D01*
X9808158Y-9105246D02*
X9808158Y-9095722D01*
X9808158Y-9095722D02*
X9817682Y-9076674D01*
X9817682Y-9076674D02*
X9836730Y-9067150D01*
X9836730Y-9067150D02*
X9865301Y-9067150D01*
X9865301Y-9067150D02*
X9884349Y-9076674D01*
X9960539Y-9276674D02*
X9970063Y-9267150D01*
X9970063Y-9267150D02*
X9989111Y-9238579D01*
X9989111Y-9238579D02*
X9998634Y-9219531D01*
X9998634Y-9219531D02*
X10008158Y-9190960D01*
X10008158Y-9190960D02*
X10017682Y-9143341D01*
X10017682Y-9143341D02*
X10017682Y-9105246D01*
X10017682Y-9105246D02*
X10008158Y-9057627D01*
X10008158Y-9057627D02*
X9998634Y-9029055D01*
X9998634Y-9029055D02*
X9989111Y-9010008D01*
X9989111Y-9010008D02*
X9970063Y-8981436D01*
X9970063Y-8981436D02*
X9960539Y-8971912D01*
X4895000Y-9273000D02*
X4895000Y-9473000D01*
X4795000Y-9373000D02*
X4995000Y-9373000D01*
X5246253Y-9283531D02*
X5255777Y-9274008D01*
X5255777Y-9274008D02*
X5274824Y-9264484D01*
X5274824Y-9264484D02*
X5322444Y-9264484D01*
X5322444Y-9264484D02*
X5341491Y-9274008D01*
X5341491Y-9274008D02*
X5351015Y-9283531D01*
X5351015Y-9283531D02*
X5360539Y-9302579D01*
X5360539Y-9302579D02*
X5360539Y-9321627D01*
X5360539Y-9321627D02*
X5351015Y-9350198D01*
X5351015Y-9350198D02*
X5236729Y-9464484D01*
X5236729Y-9464484D02*
X5360539Y-9464484D01*
X5446253Y-9445436D02*
X5455777Y-9454960D01*
X5455777Y-9454960D02*
X5446253Y-9464484D01*
X5446253Y-9464484D02*
X5436729Y-9454960D01*
X5436729Y-9454960D02*
X5446253Y-9445436D01*
X5446253Y-9445436D02*
X5446253Y-9464484D01*
X5522444Y-9264484D02*
X5655777Y-9264484D01*
X5655777Y-9264484D02*
X5570063Y-9464484D01*
X5770062Y-9264484D02*
X5789110Y-9264484D01*
X5789110Y-9264484D02*
X5808158Y-9274008D01*
X5808158Y-9274008D02*
X5817682Y-9283531D01*
X5817682Y-9283531D02*
X5827205Y-9302579D01*
X5827205Y-9302579D02*
X5836729Y-9340674D01*
X5836729Y-9340674D02*
X5836729Y-9388293D01*
X5836729Y-9388293D02*
X5827205Y-9426389D01*
X5827205Y-9426389D02*
X5817682Y-9445436D01*
X5817682Y-9445436D02*
X5808158Y-9454960D01*
X5808158Y-9454960D02*
X5789110Y-9464484D01*
X5789110Y-9464484D02*
X5770062Y-9464484D01*
X5770062Y-9464484D02*
X5751015Y-9454960D01*
X5751015Y-9454960D02*
X5741491Y-9445436D01*
X5741491Y-9445436D02*
X5731967Y-9426389D01*
X5731967Y-9426389D02*
X5722443Y-9388293D01*
X5722443Y-9388293D02*
X5722443Y-9340674D01*
X5722443Y-9340674D02*
X5731967Y-9302579D01*
X5731967Y-9302579D02*
X5741491Y-9283531D01*
X5741491Y-9283531D02*
X5751015Y-9274008D01*
X5751015Y-9274008D02*
X5770062Y-9264484D01*
X5960539Y-9264484D02*
X5979586Y-9264484D01*
X5979586Y-9264484D02*
X5998634Y-9274008D01*
X5998634Y-9274008D02*
X6008158Y-9283531D01*
X6008158Y-9283531D02*
X6017682Y-9302579D01*
X6017682Y-9302579D02*
X6027205Y-9340674D01*
X6027205Y-9340674D02*
X6027205Y-9388293D01*
X6027205Y-9388293D02*
X6017682Y-9426389D01*
X6017682Y-9426389D02*
X6008158Y-9445436D01*
X6008158Y-9445436D02*
X5998634Y-9454960D01*
X5998634Y-9454960D02*
X5979586Y-9464484D01*
X5979586Y-9464484D02*
X5960539Y-9464484D01*
X5960539Y-9464484D02*
X5941491Y-9454960D01*
X5941491Y-9454960D02*
X5931967Y-9445436D01*
X5931967Y-9445436D02*
X5922443Y-9426389D01*
X5922443Y-9426389D02*
X5912920Y-9388293D01*
X5912920Y-9388293D02*
X5912920Y-9340674D01*
X5912920Y-9340674D02*
X5922443Y-9302579D01*
X5922443Y-9302579D02*
X5931967Y-9283531D01*
X5931967Y-9283531D02*
X5941491Y-9274008D01*
X5941491Y-9274008D02*
X5960539Y-9264484D01*
X6112920Y-9464484D02*
X6112920Y-9331150D01*
X6112920Y-9350198D02*
X6122443Y-9340674D01*
X6122443Y-9340674D02*
X6141491Y-9331150D01*
X6141491Y-9331150D02*
X6170063Y-9331150D01*
X6170063Y-9331150D02*
X6189110Y-9340674D01*
X6189110Y-9340674D02*
X6198634Y-9359722D01*
X6198634Y-9359722D02*
X6198634Y-9464484D01*
X6198634Y-9359722D02*
X6208158Y-9340674D01*
X6208158Y-9340674D02*
X6227205Y-9331150D01*
X6227205Y-9331150D02*
X6255777Y-9331150D01*
X6255777Y-9331150D02*
X6274824Y-9340674D01*
X6274824Y-9340674D02*
X6284348Y-9359722D01*
X6284348Y-9359722D02*
X6284348Y-9464484D01*
X6379586Y-9464484D02*
X6379586Y-9331150D01*
X6379586Y-9350198D02*
X6389110Y-9340674D01*
X6389110Y-9340674D02*
X6408158Y-9331150D01*
X6408158Y-9331150D02*
X6436729Y-9331150D01*
X6436729Y-9331150D02*
X6455777Y-9340674D01*
X6455777Y-9340674D02*
X6465301Y-9359722D01*
X6465301Y-9359722D02*
X6465301Y-9464484D01*
X6465301Y-9359722D02*
X6474824Y-9340674D01*
X6474824Y-9340674D02*
X6493872Y-9331150D01*
X6493872Y-9331150D02*
X6522443Y-9331150D01*
X6522443Y-9331150D02*
X6541491Y-9340674D01*
X6541491Y-9340674D02*
X6551015Y-9359722D01*
X6551015Y-9359722D02*
X6551015Y-9464484D01*
X6941491Y-9254960D02*
X6770063Y-9512103D01*
X7198634Y-9264484D02*
X7217682Y-9264484D01*
X7217682Y-9264484D02*
X7236729Y-9274008D01*
X7236729Y-9274008D02*
X7246253Y-9283531D01*
X7246253Y-9283531D02*
X7255777Y-9302579D01*
X7255777Y-9302579D02*
X7265301Y-9340674D01*
X7265301Y-9340674D02*
X7265301Y-9388293D01*
X7265301Y-9388293D02*
X7255777Y-9426389D01*
X7255777Y-9426389D02*
X7246253Y-9445436D01*
X7246253Y-9445436D02*
X7236729Y-9454960D01*
X7236729Y-9454960D02*
X7217682Y-9464484D01*
X7217682Y-9464484D02*
X7198634Y-9464484D01*
X7198634Y-9464484D02*
X7179586Y-9454960D01*
X7179586Y-9454960D02*
X7170063Y-9445436D01*
X7170063Y-9445436D02*
X7160539Y-9426389D01*
X7160539Y-9426389D02*
X7151015Y-9388293D01*
X7151015Y-9388293D02*
X7151015Y-9340674D01*
X7151015Y-9340674D02*
X7160539Y-9302579D01*
X7160539Y-9302579D02*
X7170063Y-9283531D01*
X7170063Y-9283531D02*
X7179586Y-9274008D01*
X7179586Y-9274008D02*
X7198634Y-9264484D01*
X7351015Y-9445436D02*
X7360539Y-9454960D01*
X7360539Y-9454960D02*
X7351015Y-9464484D01*
X7351015Y-9464484D02*
X7341491Y-9454960D01*
X7341491Y-9454960D02*
X7351015Y-9445436D01*
X7351015Y-9445436D02*
X7351015Y-9464484D01*
X7551015Y-9464484D02*
X7436729Y-9464484D01*
X7493872Y-9464484D02*
X7493872Y-9264484D01*
X7493872Y-9264484D02*
X7474825Y-9293055D01*
X7474825Y-9293055D02*
X7455777Y-9312103D01*
X7455777Y-9312103D02*
X7436729Y-9321627D01*
X7674825Y-9264484D02*
X7693872Y-9264484D01*
X7693872Y-9264484D02*
X7712920Y-9274008D01*
X7712920Y-9274008D02*
X7722444Y-9283531D01*
X7722444Y-9283531D02*
X7731967Y-9302579D01*
X7731967Y-9302579D02*
X7741491Y-9340674D01*
X7741491Y-9340674D02*
X7741491Y-9388293D01*
X7741491Y-9388293D02*
X7731967Y-9426389D01*
X7731967Y-9426389D02*
X7722444Y-9445436D01*
X7722444Y-9445436D02*
X7712920Y-9454960D01*
X7712920Y-9454960D02*
X7693872Y-9464484D01*
X7693872Y-9464484D02*
X7674825Y-9464484D01*
X7674825Y-9464484D02*
X7655777Y-9454960D01*
X7655777Y-9454960D02*
X7646253Y-9445436D01*
X7646253Y-9445436D02*
X7636729Y-9426389D01*
X7636729Y-9426389D02*
X7627206Y-9388293D01*
X7627206Y-9388293D02*
X7627206Y-9340674D01*
X7627206Y-9340674D02*
X7636729Y-9302579D01*
X7636729Y-9302579D02*
X7646253Y-9283531D01*
X7646253Y-9283531D02*
X7655777Y-9274008D01*
X7655777Y-9274008D02*
X7674825Y-9264484D01*
X7912920Y-9264484D02*
X7874825Y-9264484D01*
X7874825Y-9264484D02*
X7855777Y-9274008D01*
X7855777Y-9274008D02*
X7846253Y-9283531D01*
X7846253Y-9283531D02*
X7827206Y-9312103D01*
X7827206Y-9312103D02*
X7817682Y-9350198D01*
X7817682Y-9350198D02*
X7817682Y-9426389D01*
X7817682Y-9426389D02*
X7827206Y-9445436D01*
X7827206Y-9445436D02*
X7836729Y-9454960D01*
X7836729Y-9454960D02*
X7855777Y-9464484D01*
X7855777Y-9464484D02*
X7893872Y-9464484D01*
X7893872Y-9464484D02*
X7912920Y-9454960D01*
X7912920Y-9454960D02*
X7922444Y-9445436D01*
X7922444Y-9445436D02*
X7931967Y-9426389D01*
X7931967Y-9426389D02*
X7931967Y-9378770D01*
X7931967Y-9378770D02*
X7922444Y-9359722D01*
X7922444Y-9359722D02*
X7912920Y-9350198D01*
X7912920Y-9350198D02*
X7893872Y-9340674D01*
X7893872Y-9340674D02*
X7855777Y-9340674D01*
X7855777Y-9340674D02*
X7836729Y-9350198D01*
X7836729Y-9350198D02*
X7827206Y-9359722D01*
X7827206Y-9359722D02*
X7817682Y-9378770D01*
X7998634Y-9264484D02*
X8122444Y-9264484D01*
X8122444Y-9264484D02*
X8055777Y-9340674D01*
X8055777Y-9340674D02*
X8084348Y-9340674D01*
X8084348Y-9340674D02*
X8103396Y-9350198D01*
X8103396Y-9350198D02*
X8112920Y-9359722D01*
X8112920Y-9359722D02*
X8122444Y-9378770D01*
X8122444Y-9378770D02*
X8122444Y-9426389D01*
X8122444Y-9426389D02*
X8112920Y-9445436D01*
X8112920Y-9445436D02*
X8103396Y-9454960D01*
X8103396Y-9454960D02*
X8084348Y-9464484D01*
X8084348Y-9464484D02*
X8027206Y-9464484D01*
X8027206Y-9464484D02*
X8008158Y-9454960D01*
X8008158Y-9454960D02*
X7998634Y-9445436D01*
X8198634Y-9264484D02*
X8198634Y-9302579D01*
X8274825Y-9264484D02*
X8274825Y-9302579D01*
X8570063Y-9540674D02*
X8560539Y-9531150D01*
X8560539Y-9531150D02*
X8541491Y-9502579D01*
X8541491Y-9502579D02*
X8531968Y-9483531D01*
X8531968Y-9483531D02*
X8522444Y-9454960D01*
X8522444Y-9454960D02*
X8512920Y-9407341D01*
X8512920Y-9407341D02*
X8512920Y-9369246D01*
X8512920Y-9369246D02*
X8522444Y-9321627D01*
X8522444Y-9321627D02*
X8531968Y-9293055D01*
X8531968Y-9293055D02*
X8541491Y-9274008D01*
X8541491Y-9274008D02*
X8560539Y-9245436D01*
X8560539Y-9245436D02*
X8570063Y-9235912D01*
X8636730Y-9283531D02*
X8646253Y-9274008D01*
X8646253Y-9274008D02*
X8665301Y-9264484D01*
X8665301Y-9264484D02*
X8712920Y-9264484D01*
X8712920Y-9264484D02*
X8731968Y-9274008D01*
X8731968Y-9274008D02*
X8741491Y-9283531D01*
X8741491Y-9283531D02*
X8751015Y-9302579D01*
X8751015Y-9302579D02*
X8751015Y-9321627D01*
X8751015Y-9321627D02*
X8741491Y-9350198D01*
X8741491Y-9350198D02*
X8627206Y-9464484D01*
X8627206Y-9464484D02*
X8751015Y-9464484D01*
X8989111Y-9464484D02*
X8989111Y-9264484D01*
X9074825Y-9464484D02*
X9074825Y-9359722D01*
X9074825Y-9359722D02*
X9065301Y-9340674D01*
X9065301Y-9340674D02*
X9046253Y-9331150D01*
X9046253Y-9331150D02*
X9017682Y-9331150D01*
X9017682Y-9331150D02*
X8998634Y-9340674D01*
X8998634Y-9340674D02*
X8989111Y-9350198D01*
X9198634Y-9464484D02*
X9179587Y-9454960D01*
X9179587Y-9454960D02*
X9170063Y-9445436D01*
X9170063Y-9445436D02*
X9160539Y-9426389D01*
X9160539Y-9426389D02*
X9160539Y-9369246D01*
X9160539Y-9369246D02*
X9170063Y-9350198D01*
X9170063Y-9350198D02*
X9179587Y-9340674D01*
X9179587Y-9340674D02*
X9198634Y-9331150D01*
X9198634Y-9331150D02*
X9227206Y-9331150D01*
X9227206Y-9331150D02*
X9246253Y-9340674D01*
X9246253Y-9340674D02*
X9255777Y-9350198D01*
X9255777Y-9350198D02*
X9265301Y-9369246D01*
X9265301Y-9369246D02*
X9265301Y-9426389D01*
X9265301Y-9426389D02*
X9255777Y-9445436D01*
X9255777Y-9445436D02*
X9246253Y-9454960D01*
X9246253Y-9454960D02*
X9227206Y-9464484D01*
X9227206Y-9464484D02*
X9198634Y-9464484D01*
X9379587Y-9464484D02*
X9360539Y-9454960D01*
X9360539Y-9454960D02*
X9351015Y-9435912D01*
X9351015Y-9435912D02*
X9351015Y-9264484D01*
X9531968Y-9454960D02*
X9512920Y-9464484D01*
X9512920Y-9464484D02*
X9474825Y-9464484D01*
X9474825Y-9464484D02*
X9455777Y-9454960D01*
X9455777Y-9454960D02*
X9446253Y-9435912D01*
X9446253Y-9435912D02*
X9446253Y-9359722D01*
X9446253Y-9359722D02*
X9455777Y-9340674D01*
X9455777Y-9340674D02*
X9474825Y-9331150D01*
X9474825Y-9331150D02*
X9512920Y-9331150D01*
X9512920Y-9331150D02*
X9531968Y-9340674D01*
X9531968Y-9340674D02*
X9541492Y-9359722D01*
X9541492Y-9359722D02*
X9541492Y-9378770D01*
X9541492Y-9378770D02*
X9446253Y-9397817D01*
X9617682Y-9454960D02*
X9636730Y-9464484D01*
X9636730Y-9464484D02*
X9674825Y-9464484D01*
X9674825Y-9464484D02*
X9693873Y-9454960D01*
X9693873Y-9454960D02*
X9703396Y-9435912D01*
X9703396Y-9435912D02*
X9703396Y-9426389D01*
X9703396Y-9426389D02*
X9693873Y-9407341D01*
X9693873Y-9407341D02*
X9674825Y-9397817D01*
X9674825Y-9397817D02*
X9646253Y-9397817D01*
X9646253Y-9397817D02*
X9627206Y-9388293D01*
X9627206Y-9388293D02*
X9617682Y-9369246D01*
X9617682Y-9369246D02*
X9617682Y-9359722D01*
X9617682Y-9359722D02*
X9627206Y-9340674D01*
X9627206Y-9340674D02*
X9646253Y-9331150D01*
X9646253Y-9331150D02*
X9674825Y-9331150D01*
X9674825Y-9331150D02*
X9693873Y-9340674D01*
X9770063Y-9540674D02*
X9779587Y-9531150D01*
X9779587Y-9531150D02*
X9798634Y-9502579D01*
X9798634Y-9502579D02*
X9808158Y-9483531D01*
X9808158Y-9483531D02*
X9817682Y-9454960D01*
X9817682Y-9454960D02*
X9827206Y-9407341D01*
X9827206Y-9407341D02*
X9827206Y-9369246D01*
X9827206Y-9369246D02*
X9817682Y-9321627D01*
X9817682Y-9321627D02*
X9808158Y-9293055D01*
X9808158Y-9293055D02*
X9798634Y-9274008D01*
X9798634Y-9274008D02*
X9779587Y-9245436D01*
X9779587Y-9245436D02*
X9770063Y-9235912D01*
X10131968Y-9540674D02*
X10122444Y-9531150D01*
X10122444Y-9531150D02*
X10103396Y-9502579D01*
X10103396Y-9502579D02*
X10093873Y-9483531D01*
X10093873Y-9483531D02*
X10084349Y-9454960D01*
X10084349Y-9454960D02*
X10074825Y-9407341D01*
X10074825Y-9407341D02*
X10074825Y-9369246D01*
X10074825Y-9369246D02*
X10084349Y-9321627D01*
X10084349Y-9321627D02*
X10093873Y-9293055D01*
X10093873Y-9293055D02*
X10103396Y-9274008D01*
X10103396Y-9274008D02*
X10122444Y-9245436D01*
X10122444Y-9245436D02*
X10131968Y-9235912D01*
X10208158Y-9331150D02*
X10208158Y-9464484D01*
X10208158Y-9350198D02*
X10217682Y-9340674D01*
X10217682Y-9340674D02*
X10236730Y-9331150D01*
X10236730Y-9331150D02*
X10265301Y-9331150D01*
X10265301Y-9331150D02*
X10284349Y-9340674D01*
X10284349Y-9340674D02*
X10293873Y-9359722D01*
X10293873Y-9359722D02*
X10293873Y-9464484D01*
X10417682Y-9464484D02*
X10398634Y-9454960D01*
X10398634Y-9454960D02*
X10389111Y-9445436D01*
X10389111Y-9445436D02*
X10379587Y-9426389D01*
X10379587Y-9426389D02*
X10379587Y-9369246D01*
X10379587Y-9369246D02*
X10389111Y-9350198D01*
X10389111Y-9350198D02*
X10398634Y-9340674D01*
X10398634Y-9340674D02*
X10417682Y-9331150D01*
X10417682Y-9331150D02*
X10446254Y-9331150D01*
X10446254Y-9331150D02*
X10465301Y-9340674D01*
X10465301Y-9340674D02*
X10474825Y-9350198D01*
X10474825Y-9350198D02*
X10484349Y-9369246D01*
X10484349Y-9369246D02*
X10484349Y-9426389D01*
X10484349Y-9426389D02*
X10474825Y-9445436D01*
X10474825Y-9445436D02*
X10465301Y-9454960D01*
X10465301Y-9454960D02*
X10446254Y-9464484D01*
X10446254Y-9464484D02*
X10417682Y-9464484D01*
X10541492Y-9331150D02*
X10617682Y-9331150D01*
X10570063Y-9264484D02*
X10570063Y-9435912D01*
X10570063Y-9435912D02*
X10579587Y-9454960D01*
X10579587Y-9454960D02*
X10598634Y-9464484D01*
X10598634Y-9464484D02*
X10617682Y-9464484D01*
X10836730Y-9331150D02*
X10836730Y-9531150D01*
X10836730Y-9340674D02*
X10855777Y-9331150D01*
X10855777Y-9331150D02*
X10893873Y-9331150D01*
X10893873Y-9331150D02*
X10912920Y-9340674D01*
X10912920Y-9340674D02*
X10922444Y-9350198D01*
X10922444Y-9350198D02*
X10931968Y-9369246D01*
X10931968Y-9369246D02*
X10931968Y-9426389D01*
X10931968Y-9426389D02*
X10922444Y-9445436D01*
X10922444Y-9445436D02*
X10912920Y-9454960D01*
X10912920Y-9454960D02*
X10893873Y-9464484D01*
X10893873Y-9464484D02*
X10855777Y-9464484D01*
X10855777Y-9464484D02*
X10836730Y-9454960D01*
X11046254Y-9464484D02*
X11027206Y-9454960D01*
X11027206Y-9454960D02*
X11017682Y-9435912D01*
X11017682Y-9435912D02*
X11017682Y-9264484D01*
X11208158Y-9464484D02*
X11208158Y-9359722D01*
X11208158Y-9359722D02*
X11198634Y-9340674D01*
X11198634Y-9340674D02*
X11179587Y-9331150D01*
X11179587Y-9331150D02*
X11141492Y-9331150D01*
X11141492Y-9331150D02*
X11122444Y-9340674D01*
X11208158Y-9454960D02*
X11189111Y-9464484D01*
X11189111Y-9464484D02*
X11141492Y-9464484D01*
X11141492Y-9464484D02*
X11122444Y-9454960D01*
X11122444Y-9454960D02*
X11112920Y-9435912D01*
X11112920Y-9435912D02*
X11112920Y-9416865D01*
X11112920Y-9416865D02*
X11122444Y-9397817D01*
X11122444Y-9397817D02*
X11141492Y-9388293D01*
X11141492Y-9388293D02*
X11189111Y-9388293D01*
X11189111Y-9388293D02*
X11208158Y-9378770D01*
X11274825Y-9331150D02*
X11351015Y-9331150D01*
X11303396Y-9264484D02*
X11303396Y-9435912D01*
X11303396Y-9435912D02*
X11312920Y-9454960D01*
X11312920Y-9454960D02*
X11331968Y-9464484D01*
X11331968Y-9464484D02*
X11351015Y-9464484D01*
X11493873Y-9454960D02*
X11474825Y-9464484D01*
X11474825Y-9464484D02*
X11436730Y-9464484D01*
X11436730Y-9464484D02*
X11417682Y-9454960D01*
X11417682Y-9454960D02*
X11408158Y-9435912D01*
X11408158Y-9435912D02*
X11408158Y-9359722D01*
X11408158Y-9359722D02*
X11417682Y-9340674D01*
X11417682Y-9340674D02*
X11436730Y-9331150D01*
X11436730Y-9331150D02*
X11474825Y-9331150D01*
X11474825Y-9331150D02*
X11493873Y-9340674D01*
X11493873Y-9340674D02*
X11503396Y-9359722D01*
X11503396Y-9359722D02*
X11503396Y-9378770D01*
X11503396Y-9378770D02*
X11408158Y-9397817D01*
X11674825Y-9464484D02*
X11674825Y-9264484D01*
X11674825Y-9454960D02*
X11655777Y-9464484D01*
X11655777Y-9464484D02*
X11617682Y-9464484D01*
X11617682Y-9464484D02*
X11598634Y-9454960D01*
X11598634Y-9454960D02*
X11589111Y-9445436D01*
X11589111Y-9445436D02*
X11579587Y-9426389D01*
X11579587Y-9426389D02*
X11579587Y-9369246D01*
X11579587Y-9369246D02*
X11589111Y-9350198D01*
X11589111Y-9350198D02*
X11598634Y-9340674D01*
X11598634Y-9340674D02*
X11617682Y-9331150D01*
X11617682Y-9331150D02*
X11655777Y-9331150D01*
X11655777Y-9331150D02*
X11674825Y-9340674D01*
X11751015Y-9540674D02*
X11760539Y-9531150D01*
X11760539Y-9531150D02*
X11779587Y-9502579D01*
X11779587Y-9502579D02*
X11789111Y-9483531D01*
X11789111Y-9483531D02*
X11798634Y-9454960D01*
X11798634Y-9454960D02*
X11808158Y-9407341D01*
X11808158Y-9407341D02*
X11808158Y-9369246D01*
X11808158Y-9369246D02*
X11798634Y-9321627D01*
X11798634Y-9321627D02*
X11789111Y-9293055D01*
X11789111Y-9293055D02*
X11779587Y-9274008D01*
X11779587Y-9274008D02*
X11760539Y-9245436D01*
X11760539Y-9245436D02*
X11751015Y-9235912D01*
M02*
