%TF.GenerationSoftware,KiCad,Pcbnew,10.0.4*%
%TF.CreationDate,2026-08-20T21:58:05+07:00*%
%TF.ProjectId,gpio_breakout,6770696f-5f62-4726-9561-6b6f75742e6b,rev?*%
%TF.SameCoordinates,Original*%
%TF.FileFunction,Copper,L1,Top*%
%TF.FilePolarity,Positive*%
%FSLAX46Y46*%
G04 Gerber Fmt 4.6, Leading zero omitted, Abs format (unit mm)*
G04 Created by KiCad (PCBNEW 10.0.4) date 2026-08-20 21:58:05*
%MOMM*%
%LPD*%
G01*
G04 APERTURE LIST*
G04 Aperture macros list*
%AMRoundRect*
0 Rectangle with rounded corners*
0 $1 Rounding radius*
0 $2 $3 $4 $5 $6 $7 $8 $9 X,Y pos of 4 corners*
0 Add a 4 corners polygon primitive as box body*
4,1,4,$2,$3,$4,$5,$6,$7,$8,$9,$2,$3,0*
0 Add four circle primitives for the rounded corners*
1,1,$1+$1,$2,$3*
1,1,$1+$1,$4,$5*
1,1,$1+$1,$6,$7*
1,1,$1+$1,$8,$9*
0 Add four rect primitives between the rounded corners*
20,1,$1+$1,$2,$3,$4,$5,0*
20,1,$1+$1,$4,$5,$6,$7,0*
20,1,$1+$1,$6,$7,$8,$9,0*
20,1,$1+$1,$8,$9,$2,$3,0*%
%AMFreePoly0*
4,1,23,0.500000,-0.750000,0.000000,-0.750000,0.000000,-0.745722,-0.065263,-0.745722,-0.191342,-0.711940,-0.304381,-0.646677,-0.396677,-0.554381,-0.461940,-0.441342,-0.495722,-0.315263,-0.495722,-0.250000,-0.500000,-0.250000,-0.500000,0.250000,-0.495722,0.250000,-0.495722,0.315263,-0.461940,0.441342,-0.396677,0.554381,-0.304381,0.646677,-0.191342,0.711940,-0.065263,0.745722,0.000000,0.745722,
0.000000,0.750000,0.500000,0.750000,0.500000,-0.750000,0.500000,-0.750000,$1*%
%AMFreePoly1*
4,1,23,0.000000,0.745722,0.065263,0.745722,0.191342,0.711940,0.304381,0.646677,0.396677,0.554381,0.461940,0.441342,0.495722,0.315263,0.495722,0.250000,0.500000,0.250000,0.500000,-0.250000,0.495722,-0.250000,0.495722,-0.315263,0.461940,-0.441342,0.396677,-0.554381,0.304381,-0.646677,0.191342,-0.711940,0.065263,-0.745722,0.000000,-0.745722,0.000000,-0.750000,-0.500000,-0.750000,
-0.500000,0.750000,0.000000,0.750000,0.000000,0.745722,0.000000,0.745722,$1*%
G04 Aperture macros list end*
%TA.AperFunction,EtchedComponent*%
%ADD10C,0.000000*%
%TD*%
%TA.AperFunction,SMDPad,CuDef*%
%ADD11R,1.500000X1.500000*%
%TD*%
%TA.AperFunction,SMDPad,CuDef*%
%ADD12FreePoly0,0.000000*%
%TD*%
%TA.AperFunction,SMDPad,CuDef*%
%ADD13FreePoly1,0.000000*%
%TD*%
%TA.AperFunction,SMDPad,CuDef*%
%ADD14FreePoly0,90.000000*%
%TD*%
%TA.AperFunction,SMDPad,CuDef*%
%ADD15FreePoly1,90.000000*%
%TD*%
%TA.AperFunction,SMDPad,CuDef*%
%ADD16R,0.300000X0.650000*%
%TD*%
%TA.AperFunction,SMDPad,CuDef*%
%ADD17R,0.400000X1.000000*%
%TD*%
%TA.AperFunction,SMDPad,CuDef*%
%ADD18R,0.400000X1.550000*%
%TD*%
%TA.AperFunction,SMDPad,CuDef*%
%ADD19RoundRect,0.250000X0.625000X-0.375000X0.625000X0.375000X-0.625000X0.375000X-0.625000X-0.375000X0*%
%TD*%
%TA.AperFunction,ComponentPad*%
%ADD20R,1.700000X1.700000*%
%TD*%
%TA.AperFunction,ComponentPad*%
%ADD21C,1.700000*%
%TD*%
%TA.AperFunction,ViaPad*%
%ADD22C,0.600000*%
%TD*%
%TA.AperFunction,Conductor*%
%ADD23C,0.200000*%
%TD*%
%TA.AperFunction,Conductor*%
%ADD24C,0.300000*%
%TD*%
%TA.AperFunction,Conductor*%
%ADD25C,0.250000*%
%TD*%
G04 APERTURE END LIST*
D10*
%TA.AperFunction,EtchedComponent*%
%TO.C,JP4*%
G36*
X53600000Y-58450000D02*
G01*
X53000000Y-58450000D01*
X53000000Y-57950000D01*
X53600000Y-57950000D01*
X53600000Y-58450000D01*
G37*
%TD.AperFunction*%
%TA.AperFunction,EtchedComponent*%
%TO.C,JP5*%
G36*
X53600000Y-67250000D02*
G01*
X53000000Y-67250000D01*
X53000000Y-66750000D01*
X53600000Y-66750000D01*
X53600000Y-67250000D01*
G37*
%TD.AperFunction*%
%TD*%
D11*
%TO.P,TP1,1*%
%TO.N,PANEL_ID0*%
X96000000Y-80000000D03*
%TD*%
D12*
%TO.P,JP1,1*%
%TO.N,PANEL_ID0*%
X95350000Y-76600000D03*
D13*
%TO.P,JP1,2*%
%TO.N,+3V3*%
X96650000Y-76600000D03*
%TD*%
D14*
%TO.P,JP4,1*%
%TO.N,+5V*%
X53300000Y-58850000D03*
D15*
%TO.P,JP4,2*%
%TO.N,+5V_LNK*%
X53300000Y-57550000D03*
%TD*%
D16*
%TO.P,J1,1*%
%TO.N,+3V3_FFC*%
X90750000Y-56790000D03*
%TO.P,J1,2*%
%TO.N,+5V_FFC*%
X90250000Y-56790000D03*
%TO.P,J1,3*%
%TO.N,GPIO2*%
X89750000Y-56790000D03*
%TO.P,J1,4*%
%TO.N,+5V_FFC*%
X89250000Y-56790000D03*
%TO.P,J1,5*%
%TO.N,GPIO3*%
X88750000Y-56790000D03*
%TO.P,J1,6*%
%TO.N,GND*%
X88250000Y-56790000D03*
%TO.P,J1,7*%
%TO.N,GPIO4*%
X87750000Y-56790000D03*
%TO.P,J1,8*%
%TO.N,GPIO14*%
X87250000Y-56790000D03*
%TO.P,J1,9*%
%TO.N,GND*%
X86750000Y-56790000D03*
%TO.P,J1,10*%
%TO.N,GPIO15*%
X86250000Y-56790000D03*
%TO.P,J1,11*%
%TO.N,GPIO17*%
X85750000Y-56790000D03*
%TO.P,J1,12*%
%TO.N,GPIO18*%
X85250000Y-56790000D03*
%TO.P,J1,13*%
%TO.N,GPIO27*%
X84750000Y-56790000D03*
%TO.P,J1,14*%
%TO.N,GND*%
X84250000Y-56790000D03*
%TO.P,J1,15*%
%TO.N,GPIO22*%
X83750000Y-56790000D03*
%TO.P,J1,16*%
%TO.N,GPIO23*%
X83250000Y-56790000D03*
%TO.P,J1,17*%
%TO.N,PANEL_ID0*%
X82750000Y-56790000D03*
%TO.P,J1,18*%
%TO.N,GPIO24*%
X82250000Y-56790000D03*
%TO.P,J1,19*%
%TO.N,GPIO10*%
X81750000Y-56790000D03*
%TO.P,J1,20*%
%TO.N,GND*%
X81250000Y-56790000D03*
%TO.P,J1,21*%
%TO.N,GPIO9*%
X80750000Y-56790000D03*
%TO.P,J1,22*%
%TO.N,GPIO25*%
X80250000Y-56790000D03*
%TO.P,J1,23*%
%TO.N,GPIO11*%
X79750000Y-56790000D03*
%TO.P,J1,24*%
%TO.N,GPIO8*%
X79250000Y-56790000D03*
%TO.P,J1,25*%
%TO.N,GND*%
X78750000Y-56790000D03*
%TO.P,J1,26*%
%TO.N,GPIO7*%
X78250000Y-56790000D03*
%TO.P,J1,27*%
%TO.N,ID_SD*%
X77750000Y-56790000D03*
%TO.P,J1,28*%
%TO.N,ID_SC*%
X77250000Y-56790000D03*
%TO.P,J1,29*%
%TO.N,GPIO5*%
X76750000Y-56790000D03*
%TO.P,J1,30*%
%TO.N,GND*%
X76250000Y-56790000D03*
%TO.P,J1,31*%
%TO.N,GPIO6*%
X75750000Y-56790000D03*
%TO.P,J1,32*%
%TO.N,GPIO12*%
X75250000Y-56790000D03*
%TO.P,J1,33*%
%TO.N,GPIO13*%
X74750000Y-56790000D03*
%TO.P,J1,34*%
%TO.N,PANEL_ID1*%
X74250000Y-56790000D03*
%TO.P,J1,35*%
%TO.N,GPIO19*%
X73750000Y-56790000D03*
%TO.P,J1,36*%
%TO.N,GPIO16*%
X73250000Y-56790000D03*
%TO.P,J1,37*%
%TO.N,GPIO26*%
X72750000Y-56790000D03*
%TO.P,J1,38*%
%TO.N,GPIO20*%
X72250000Y-56790000D03*
%TO.P,J1,39*%
%TO.N,LCD_INS*%
X71750000Y-56790000D03*
%TO.P,J1,40*%
%TO.N,GPIO21*%
X71250000Y-56790000D03*
D17*
%TO.P,J1,41*%
%TO.N,GND*%
X89750000Y-51010000D03*
%TO.P,J1,42*%
X87250000Y-51010000D03*
%TO.P,J1,43*%
X84750000Y-51010000D03*
%TO.P,J1,44*%
X82250000Y-51010000D03*
%TO.P,J1,45*%
X79750000Y-51010000D03*
%TO.P,J1,46*%
X77250000Y-51010000D03*
%TO.P,J1,47*%
X74750000Y-51010000D03*
%TO.P,J1,48*%
X72250000Y-51010000D03*
D18*
%TO.P,J1,49*%
X70000000Y-51540000D03*
%TO.P,J1,50*%
X92000000Y-51540000D03*
%TD*%
D19*
%TO.P,F1,1*%
%TO.N,+5V_LNK*%
X53300000Y-64000000D03*
%TO.P,F1,2*%
%TO.N,+5V_FFC*%
X53300000Y-61200000D03*
%TD*%
D12*
%TO.P,JP3,1*%
%TO.N,LCD_INS*%
X105350000Y-76600000D03*
D13*
%TO.P,JP3,2*%
%TO.N,GND*%
X106650000Y-76600000D03*
%TD*%
D11*
%TO.P,TP4,1*%
%TO.N,GND*%
X111000000Y-80000000D03*
%TD*%
D12*
%TO.P,JP2,1*%
%TO.N,PANEL_ID1*%
X100350000Y-76600000D03*
D13*
%TO.P,JP2,2*%
%TO.N,GND*%
X101650000Y-76600000D03*
%TD*%
D11*
%TO.P,TP2,1*%
%TO.N,PANEL_ID1*%
X101000000Y-80000000D03*
%TD*%
D20*
%TO.P,J2,1*%
%TO.N,+3V3*%
X56900000Y-71200000D03*
D21*
%TO.P,J2,2*%
%TO.N,+5V*%
X56900000Y-68660000D03*
%TO.P,J2,3*%
%TO.N,GPIO2*%
X59440000Y-71200000D03*
%TO.P,J2,4*%
%TO.N,+5V*%
X59440000Y-68660000D03*
%TO.P,J2,5*%
%TO.N,GPIO3*%
X61980000Y-71200000D03*
%TO.P,J2,6*%
%TO.N,GND*%
X61980000Y-68660000D03*
%TO.P,J2,7*%
%TO.N,GPIO4*%
X64520000Y-71200000D03*
%TO.P,J2,8*%
%TO.N,GPIO14*%
X64520000Y-68660000D03*
%TO.P,J2,9*%
%TO.N,GND*%
X67060000Y-71200000D03*
%TO.P,J2,10*%
%TO.N,GPIO15*%
X67060000Y-68660000D03*
%TO.P,J2,11*%
%TO.N,GPIO17*%
X69600000Y-71200000D03*
%TO.P,J2,12*%
%TO.N,GPIO18*%
X69600000Y-68660000D03*
%TO.P,J2,13*%
%TO.N,GPIO27*%
X72140000Y-71200000D03*
%TO.P,J2,14*%
%TO.N,GND*%
X72140000Y-68660000D03*
%TO.P,J2,15*%
%TO.N,GPIO22*%
X74680000Y-71200000D03*
%TO.P,J2,16*%
%TO.N,GPIO23*%
X74680000Y-68660000D03*
%TO.P,J2,17*%
%TO.N,+3V3*%
X77220000Y-71200000D03*
%TO.P,J2,18*%
%TO.N,GPIO24*%
X77220000Y-68660000D03*
%TO.P,J2,19*%
%TO.N,GPIO10*%
X79760000Y-71200000D03*
%TO.P,J2,20*%
%TO.N,GND*%
X79760000Y-68660000D03*
%TO.P,J2,21*%
%TO.N,GPIO9*%
X82300000Y-71200000D03*
%TO.P,J2,22*%
%TO.N,GPIO25*%
X82300000Y-68660000D03*
%TO.P,J2,23*%
%TO.N,GPIO11*%
X84840000Y-71200000D03*
%TO.P,J2,24*%
%TO.N,GPIO8*%
X84840000Y-68660000D03*
%TO.P,J2,25*%
%TO.N,GND*%
X87380000Y-71200000D03*
%TO.P,J2,26*%
%TO.N,GPIO7*%
X87380000Y-68660000D03*
%TO.P,J2,27*%
%TO.N,ID_SD*%
X89920000Y-71200000D03*
%TO.P,J2,28*%
%TO.N,ID_SC*%
X89920000Y-68660000D03*
%TO.P,J2,29*%
%TO.N,GPIO5*%
X92460000Y-71200000D03*
%TO.P,J2,30*%
%TO.N,GND*%
X92460000Y-68660000D03*
%TO.P,J2,31*%
%TO.N,GPIO6*%
X95000000Y-71200000D03*
%TO.P,J2,32*%
%TO.N,GPIO12*%
X95000000Y-68660000D03*
%TO.P,J2,33*%
%TO.N,GPIO13*%
X97540000Y-71200000D03*
%TO.P,J2,34*%
%TO.N,GND*%
X97540000Y-68660000D03*
%TO.P,J2,35*%
%TO.N,GPIO19*%
X100080000Y-71200000D03*
%TO.P,J2,36*%
%TO.N,GPIO16*%
X100080000Y-68660000D03*
%TO.P,J2,37*%
%TO.N,GPIO26*%
X102620000Y-71200000D03*
%TO.P,J2,38*%
%TO.N,GPIO20*%
X102620000Y-68660000D03*
%TO.P,J2,39*%
%TO.N,GND*%
X105160000Y-71200000D03*
%TO.P,J2,40*%
%TO.N,GPIO21*%
X105160000Y-68660000D03*
%TD*%
D11*
%TO.P,TP5,1*%
%TO.N,+3V3*%
X111000000Y-76600000D03*
%TD*%
D14*
%TO.P,JP5,1*%
%TO.N,+3V3*%
X53300000Y-67650000D03*
D15*
%TO.P,JP5,2*%
%TO.N,+3V3_FFC*%
X53300000Y-66350000D03*
%TD*%
D11*
%TO.P,TP3,1*%
%TO.N,LCD_INS*%
X106000000Y-80000000D03*
%TD*%
D22*
%TO.N,PANEL_ID0*%
X77861100Y-55764200D03*
X71044000Y-70103900D03*
%TO.N,+3V3*%
X53717900Y-68965000D03*
%TO.N,+3V3_FFC*%
X56400000Y-52700000D03*
X56400000Y-64599999D03*
%TO.N,+5V_FFC*%
X55200000Y-54200000D03*
X55600000Y-61200000D03*
%TO.N,GPIO2*%
X89932800Y-57729100D03*
%TO.N,GPIO3*%
X78482700Y-67129800D03*
%TO.N,GND*%
X84250000Y-55600000D03*
X86750000Y-55600000D03*
X88250000Y-55600000D03*
X78750000Y-55600000D03*
X81250000Y-55600000D03*
X76250000Y-55600000D03*
%TO.N,GPIO4*%
X75069000Y-66191000D03*
%TO.N,GPIO14*%
X60738200Y-65887700D03*
X74426300Y-54227800D03*
%TO.N,GPIO15*%
X73995300Y-65650500D03*
%TO.N,GPIO27*%
X88744800Y-59379400D03*
X85546500Y-55603800D03*
%TO.N,GPIO22*%
X83273800Y-55375600D03*
%TO.N,GPIO23*%
X81725400Y-60240000D03*
%TO.N,GPIO24*%
X82334300Y-57883100D03*
%TO.N,GPIO10*%
X79873400Y-61395400D03*
X79967700Y-67127700D03*
%TO.N,GPIO9*%
X85772600Y-64712700D03*
X81154600Y-58535900D03*
%TO.N,GPIO25*%
X91915600Y-63610500D03*
X80248400Y-55296100D03*
%TO.N,GPIO11*%
X80158400Y-58576200D03*
X86562300Y-65856900D03*
%TO.N,GPIO8*%
X79737500Y-59940200D03*
%TO.N,GPIO7*%
X78935700Y-60111800D03*
%TO.N,ID_SD*%
X77751200Y-57875400D03*
%TO.N,ID_SC*%
X75771700Y-59695600D03*
%TO.N,GPIO5*%
X76716800Y-66856900D03*
X76463200Y-57653900D03*
%TO.N,GPIO6*%
X75661300Y-57632800D03*
%TO.N,GPIO12*%
X75649200Y-58473200D03*
%TO.N,GPIO13*%
X74510600Y-55537900D03*
%TO.N,PANEL_ID1*%
X91713500Y-56835200D03*
X99011400Y-76489100D03*
X73679300Y-57701400D03*
%TO.N,GPIO19*%
X71969500Y-55320700D03*
X92697400Y-61249000D03*
%TO.N,GPIO16*%
X72606700Y-54674400D03*
%TO.N,GPIO26*%
X76213600Y-60753300D03*
%TO.N,GPIO20*%
X69479200Y-57374500D03*
%TO.N,LCD_INS*%
X103147200Y-77345400D03*
X68977200Y-54171500D03*
%TO.N,GPIO21*%
X69807700Y-54862800D03*
%TD*%
%TO.N,PANEL_ID0*%
D23*
X70957700Y-70190200D02*
X70957700Y-71659700D01*
X82750000Y-56163300D02*
X81281100Y-54694400D01*
X75898000Y-76600000D02*
X95350000Y-76600000D01*
X96000000Y-80000000D02*
X96000000Y-78948300D01*
X95350000Y-78298300D02*
X96000000Y-78948300D01*
X82750000Y-56790000D02*
X82750000Y-56163300D01*
X95350000Y-76600000D02*
X95350000Y-78298300D01*
X77861100Y-55595800D02*
X77861100Y-55764200D01*
X70957700Y-71659700D02*
X75898000Y-76600000D01*
X81281100Y-54694400D02*
X78762500Y-54694400D01*
X71044000Y-70103900D02*
X70957700Y-70190200D01*
X78762500Y-54694400D02*
X77861100Y-55595800D01*
%TO.N,+3V3*%
X53717900Y-68965000D02*
X53300000Y-68547100D01*
X96650000Y-75548300D02*
X96650000Y-76600000D01*
X111000000Y-76600000D02*
X109948300Y-76600000D01*
X109948300Y-76600000D02*
X108896600Y-75548300D01*
X108896600Y-75548300D02*
X96650000Y-75548300D01*
X96650000Y-75548300D02*
X81568300Y-75548300D01*
X81568300Y-75548300D02*
X77220000Y-71200000D01*
X53300000Y-68547100D02*
X53300000Y-67650000D01*
%TO.N,+5V*%
D24*
X59440000Y-69930000D02*
X59440000Y-68660000D01*
X51900000Y-58850000D02*
X51900000Y-69930000D01*
X56900000Y-69930000D02*
X56900000Y-68660000D01*
X51900000Y-69930000D02*
X56900000Y-69930000D01*
X53300000Y-58850000D02*
X51900000Y-58850000D01*
X56900000Y-69930000D02*
X59440000Y-69930000D01*
%TO.N,+5V_LNK*%
D23*
X53725900Y-64000000D02*
X56240400Y-61485500D01*
X53300000Y-64000000D02*
X53725900Y-64000000D01*
X56240400Y-60051000D02*
X53739400Y-57550000D01*
X56240400Y-61485500D02*
X56240400Y-60051000D01*
X53739400Y-57550000D02*
X53300000Y-57550000D01*
%TO.N,+3V3_FFC*%
D25*
X90750000Y-56790000D02*
X90750000Y-52700000D01*
D24*
X90750000Y-52700000D02*
X56400000Y-52700000D01*
X56400000Y-64599999D02*
X53300000Y-66349999D01*
%TO.N,+5V_FFC*%
D25*
X90250000Y-55200000D02*
X89250000Y-55200000D01*
X89250000Y-55200000D02*
X89250000Y-56790000D01*
D24*
X55600000Y-61200000D02*
X53300000Y-61200000D01*
D25*
X89250000Y-55200000D02*
X89250000Y-53500000D01*
X90250000Y-56790000D02*
X90250000Y-55200000D01*
D24*
X55200000Y-53500000D02*
X55200000Y-54200000D01*
X89250000Y-53500000D02*
X55200000Y-53500000D01*
%TO.N,GPIO2*%
D23*
X89750000Y-56790000D02*
X89750000Y-57546300D01*
X89750000Y-57546300D02*
X89932800Y-57729100D01*
%TO.N,GPIO3*%
X80042400Y-66124300D02*
X79552300Y-66124300D01*
X78546800Y-67129800D02*
X78482700Y-67129800D01*
X79552300Y-66124300D02*
X78546800Y-67129800D01*
X88750000Y-57416700D02*
X80042400Y-66124300D01*
X88750000Y-56790000D02*
X88750000Y-57416700D01*
%TO.N,GND*%
D25*
X78750000Y-56790000D02*
X78750000Y-55600000D01*
X76250000Y-56790000D02*
X76250000Y-55600000D01*
X88250000Y-56790000D02*
X88250000Y-55600000D01*
X81250000Y-56790000D02*
X81250000Y-55600000D01*
X86750000Y-56790000D02*
X86750000Y-55600000D01*
X84250000Y-56790000D02*
X84250000Y-55600000D01*
%TO.N,GPIO4*%
D23*
X87750000Y-56790000D02*
X87750000Y-57416700D01*
X78916000Y-66192600D02*
X75070600Y-66192600D01*
X87750000Y-57416700D02*
X87691900Y-57416700D01*
X75070600Y-66192600D02*
X75069000Y-66191000D01*
X87691900Y-57416700D02*
X78916000Y-66192600D01*
%TO.N,GPIO14*%
X87250000Y-56790000D02*
X87250000Y-56163300D01*
X86238400Y-54227800D02*
X74426300Y-54227800D01*
X87375000Y-55364400D02*
X86238400Y-54227800D01*
X87250000Y-56163300D02*
X87375000Y-56038300D01*
X87375000Y-56038300D02*
X87375000Y-55364400D01*
%TO.N,GPIO15*%
X74726900Y-65000200D02*
X79042000Y-65000200D01*
X74076600Y-65650500D02*
X74726900Y-65000200D01*
X86250000Y-57792200D02*
X86250000Y-56790000D01*
X73995300Y-65650500D02*
X74076600Y-65650500D01*
X79042000Y-65000200D02*
X86250000Y-57792200D01*
%TO.N,GPIO17*%
X74110100Y-65048800D02*
X73746200Y-65048800D01*
X74560500Y-64598400D02*
X74110100Y-65048800D01*
X73393600Y-65401400D02*
X73393600Y-65767400D01*
X73393600Y-65767400D02*
X70988300Y-68172700D01*
X85750000Y-57636700D02*
X78788300Y-64598400D01*
X69600000Y-70697100D02*
X69600000Y-71200000D01*
X85750000Y-56790000D02*
X85750000Y-57636700D01*
X73746200Y-65048800D02*
X73393600Y-65401400D01*
X78788300Y-64598400D02*
X74560500Y-64598400D01*
X70988300Y-68172700D02*
X70988300Y-69308800D01*
X70988300Y-69308800D02*
X69600000Y-70697100D01*
%TO.N,GPIO18*%
X80480800Y-62335800D02*
X75891200Y-62335800D01*
X85250000Y-57566600D02*
X80480800Y-62335800D01*
X69600000Y-68627000D02*
X69600000Y-68660000D01*
X75891200Y-62335800D02*
X69600000Y-68627000D01*
X85250000Y-56790000D02*
X85250000Y-57416700D01*
X85250000Y-57416700D02*
X85250000Y-57566600D01*
%TO.N,GPIO27*%
X81598200Y-66526000D02*
X79718600Y-66526000D01*
X73410000Y-69930000D02*
X72140000Y-71200000D01*
X79366000Y-66878600D02*
X79366000Y-67394400D01*
X88744800Y-59379400D02*
X81598200Y-66526000D01*
X78490000Y-68270400D02*
X78490000Y-69078400D01*
X77638400Y-69930000D02*
X73410000Y-69930000D01*
X84750000Y-56790000D02*
X84750000Y-56163300D01*
X79366000Y-67394400D02*
X78490000Y-68270400D01*
X84987000Y-56163300D02*
X85546500Y-55603800D01*
X79718600Y-66526000D02*
X79366000Y-66878600D01*
X84750000Y-56163300D02*
X84987000Y-56163300D01*
X78490000Y-69078400D02*
X77638400Y-69930000D01*
%TO.N,GPIO22*%
X83273800Y-55576600D02*
X83273800Y-55375600D01*
X83750000Y-56790000D02*
X83750000Y-56052800D01*
X83750000Y-56052800D02*
X83273800Y-55576600D01*
%TO.N,GPIO23*%
X83250000Y-56790000D02*
X83250000Y-58715400D01*
X83250000Y-58715400D02*
X81725400Y-60240000D01*
%TO.N,GPIO24*%
X82250000Y-56790000D02*
X82250000Y-57798800D01*
X82250000Y-57798800D02*
X82334300Y-57883100D01*
%TO.N,GPIO10*%
X79873400Y-61241200D02*
X79873400Y-61395400D01*
X81750000Y-57616300D02*
X81700200Y-57666100D01*
X81781600Y-59333000D02*
X79873400Y-61241200D01*
X81700200Y-57666100D02*
X81700200Y-58183700D01*
X81781600Y-58265100D02*
X81781600Y-59333000D01*
X81750000Y-56790000D02*
X81750000Y-57616300D01*
X81700200Y-58183700D02*
X81781600Y-58265100D01*
%TO.N,GPIO9*%
X80750000Y-56790000D02*
X80750000Y-58131300D01*
X81109400Y-70009400D02*
X81109400Y-68160000D01*
X82300000Y-71200000D02*
X81109400Y-70009400D01*
X81109400Y-68160000D02*
X84556700Y-64712700D01*
X80750000Y-58131300D02*
X81154600Y-58535900D01*
X84556700Y-64712700D02*
X85772600Y-64712700D01*
%TO.N,GPIO25*%
X80248400Y-55296100D02*
X80248400Y-56161700D01*
X87725700Y-63610500D02*
X91915600Y-63610500D01*
X82300000Y-68660000D02*
X82676200Y-68660000D01*
X80248400Y-56161700D02*
X80250000Y-56163300D01*
X82676200Y-68660000D02*
X87725700Y-63610500D01*
X80250000Y-56790000D02*
X80250000Y-56163300D01*
%TO.N,GPIO11*%
X84840000Y-71200000D02*
X85991700Y-70048300D01*
X85991700Y-70048300D02*
X85991700Y-66427500D01*
X85991700Y-66427500D02*
X86562300Y-65856900D01*
X79750000Y-56790000D02*
X79750000Y-57416700D01*
X79750000Y-57416700D02*
X80158400Y-57825100D01*
X80158400Y-57825100D02*
X80158400Y-58576200D01*
%TO.N,GPIO8*%
X79556700Y-58056300D02*
X79556700Y-59759400D01*
X79250000Y-56790000D02*
X79250000Y-57749600D01*
X79250000Y-57749600D02*
X79556700Y-58056300D01*
X79556700Y-59759400D02*
X79737500Y-59940200D01*
%TO.N,GPIO7*%
X78250000Y-56790000D02*
X78250000Y-57416700D01*
X78935700Y-58102400D02*
X78935700Y-60111800D01*
X78250000Y-57416700D02*
X78935700Y-58102400D01*
%TO.N,ID_SD*%
X77750000Y-56790000D02*
X77750000Y-57874200D01*
X77750000Y-57874200D02*
X77751200Y-57875400D01*
%TO.N,ID_SC*%
X77250000Y-56790000D02*
X77250000Y-57523400D01*
X77148300Y-58319000D02*
X75771700Y-59695600D01*
X77148300Y-57625100D02*
X77148300Y-58319000D01*
X77250000Y-57523400D02*
X77148300Y-57625100D01*
%TO.N,GPIO5*%
X76700400Y-57416700D02*
X76750000Y-57416700D01*
X76750000Y-56790000D02*
X76750000Y-57416700D01*
X76463200Y-57653900D02*
X76700400Y-57416700D01*
%TO.N,GPIO6*%
X75750000Y-57544100D02*
X75661300Y-57632800D01*
X75750000Y-56790000D02*
X75750000Y-57544100D01*
%TO.N,GPIO12*%
X75059600Y-57883600D02*
X75649200Y-58473200D01*
X75250000Y-56790000D02*
X75250000Y-57193300D01*
X75250000Y-57193300D02*
X75059600Y-57383700D01*
X75059600Y-57383700D02*
X75059600Y-57883600D01*
%TO.N,GPIO13*%
X74510600Y-55537900D02*
X74750000Y-55777300D01*
X74750000Y-55777300D02*
X74750000Y-56790000D01*
%TO.N,PANEL_ID1*%
X100350000Y-78298300D02*
X101000000Y-78948300D01*
X99011400Y-76489100D02*
X100239100Y-76489100D01*
X101000000Y-80000000D02*
X101000000Y-78948300D01*
X73964000Y-57416700D02*
X73679300Y-57701400D01*
X100350000Y-76600000D02*
X100350000Y-78298300D01*
X74250000Y-56790000D02*
X74250000Y-57416700D01*
X100239100Y-76489100D02*
X100350000Y-76600000D01*
X74250000Y-57416700D02*
X73964000Y-57416700D01*
%TO.N,GPIO19*%
X71969600Y-55320700D02*
X71969500Y-55320700D01*
X72342400Y-54072600D02*
X71969600Y-54445400D01*
X73750000Y-56790000D02*
X73750000Y-54917600D01*
X72905000Y-54072600D02*
X72342400Y-54072600D01*
X73750000Y-54917600D02*
X72905000Y-54072600D01*
X71969600Y-54445400D02*
X71969600Y-55320700D01*
%TO.N,GPIO16*%
X73250000Y-56790000D02*
X73250000Y-55317700D01*
X73250000Y-55317700D02*
X72606700Y-54674400D01*
%TO.N,GPIO26*%
X72750000Y-56790000D02*
X72750000Y-57622900D01*
X75880400Y-60753300D02*
X76213600Y-60753300D01*
X72750000Y-57622900D02*
X75880400Y-60753300D01*
%TO.N,GPIO20*%
X69521400Y-57416700D02*
X69479200Y-57374500D01*
X72250000Y-57416700D02*
X69521400Y-57416700D01*
X72250000Y-56790000D02*
X72250000Y-57416700D01*
%TO.N,LCD_INS*%
X71750000Y-55951900D02*
X71750000Y-56790000D01*
X105350000Y-78298300D02*
X106000000Y-78948300D01*
X105350000Y-76600000D02*
X105350000Y-78298300D01*
X71749900Y-55951900D02*
X71750000Y-55951900D01*
X103147200Y-77345400D02*
X103892600Y-76600000D01*
X68977200Y-54171500D02*
X69969500Y-54171500D01*
X103892600Y-76600000D02*
X105350000Y-76600000D01*
X69969500Y-54171500D02*
X71749900Y-55951900D01*
X106000000Y-80000000D02*
X106000000Y-78948300D01*
%TO.N,GPIO21*%
X71250000Y-56163300D02*
X71108200Y-56163300D01*
X71108200Y-56163300D02*
X69807700Y-54862800D01*
X71250000Y-56790000D02*
X71250000Y-56163300D01*
%TD*%
%TA.AperFunction,Conductor*%
%TO.N,GND*%
G36*
X74466426Y-66097858D02*
G01*
X74509617Y-66152779D01*
X74518500Y-66198866D01*
X74518500Y-66263475D01*
X74555715Y-66402362D01*
X74556017Y-66403488D01*
X74628488Y-66529011D01*
X74628490Y-66529013D01*
X74628491Y-66529015D01*
X74730985Y-66631509D01*
X74730986Y-66631510D01*
X74730988Y-66631511D01*
X74856511Y-66703982D01*
X74856512Y-66703982D01*
X74856515Y-66703984D01*
X74996525Y-66741500D01*
X74996528Y-66741500D01*
X75141472Y-66741500D01*
X75141475Y-66741500D01*
X75281485Y-66703984D01*
X75407015Y-66631509D01*
X75459105Y-66579419D01*
X75520428Y-66545934D01*
X75546786Y-66543100D01*
X76069363Y-66543100D01*
X76136402Y-66562785D01*
X76182157Y-66615589D01*
X76192101Y-66684747D01*
X76189138Y-66699193D01*
X76181814Y-66726527D01*
X76166300Y-66784425D01*
X76166300Y-66929375D01*
X76200585Y-67057327D01*
X76203817Y-67069388D01*
X76276288Y-67194911D01*
X76276290Y-67194913D01*
X76276291Y-67194915D01*
X76378785Y-67297409D01*
X76378786Y-67297410D01*
X76378788Y-67297411D01*
X76504311Y-67369882D01*
X76504312Y-67369882D01*
X76504315Y-67369884D01*
X76644325Y-67407400D01*
X76644328Y-67407400D01*
X76737809Y-67407400D01*
X76804848Y-67427085D01*
X76850603Y-67479889D01*
X76860547Y-67549047D01*
X76831522Y-67612603D01*
X76794104Y-67641885D01*
X76643211Y-67718768D01*
X76604405Y-67746963D01*
X76503072Y-67820586D01*
X76503070Y-67820588D01*
X76503069Y-67820588D01*
X76380588Y-67943069D01*
X76380588Y-67943070D01*
X76380586Y-67943072D01*
X76336859Y-68003256D01*
X76278768Y-68083211D01*
X76200128Y-68237552D01*
X76146597Y-68402302D01*
X76127245Y-68524491D01*
X76119500Y-68573389D01*
X76119500Y-68746611D01*
X76120435Y-68752515D01*
X76142610Y-68892525D01*
X76146598Y-68917701D01*
X76200127Y-69082445D01*
X76278768Y-69236788D01*
X76380586Y-69376928D01*
X76380588Y-69376930D01*
X76383450Y-69380869D01*
X76382024Y-69381905D01*
X76407485Y-69438745D01*
X76397039Y-69507829D01*
X76350902Y-69560300D01*
X76284622Y-69579500D01*
X75615378Y-69579500D01*
X75548339Y-69559815D01*
X75502584Y-69507011D01*
X75492640Y-69437853D01*
X75517953Y-69381888D01*
X75516550Y-69380869D01*
X75519411Y-69376930D01*
X75519414Y-69376928D01*
X75621232Y-69236788D01*
X75699873Y-69082445D01*
X75753402Y-68917701D01*
X75780500Y-68746611D01*
X75780500Y-68573389D01*
X75753402Y-68402299D01*
X75699873Y-68237555D01*
X75621232Y-68083212D01*
X75519414Y-67943072D01*
X75396928Y-67820586D01*
X75256788Y-67718768D01*
X75102445Y-67640127D01*
X74937701Y-67586598D01*
X74937699Y-67586597D01*
X74937698Y-67586597D01*
X74806271Y-67565781D01*
X74766611Y-67559500D01*
X74593389Y-67559500D01*
X74553728Y-67565781D01*
X74422302Y-67586597D01*
X74257552Y-67640128D01*
X74103211Y-67718768D01*
X74064405Y-67746963D01*
X73963072Y-67820586D01*
X73963070Y-67820588D01*
X73963069Y-67820588D01*
X73840588Y-67943069D01*
X73840588Y-67943070D01*
X73840586Y-67943072D01*
X73796859Y-68003256D01*
X73738768Y-68083211D01*
X73660128Y-68237552D01*
X73606597Y-68402302D01*
X73587245Y-68524491D01*
X73579500Y-68573389D01*
X73579500Y-68746611D01*
X73580435Y-68752515D01*
X73602610Y-68892525D01*
X73606598Y-68917701D01*
X73660127Y-69082445D01*
X73738768Y-69236788D01*
X73840586Y-69376928D01*
X73840588Y-69376930D01*
X73843450Y-69380869D01*
X73842024Y-69381905D01*
X73867485Y-69438745D01*
X73857039Y-69507829D01*
X73810902Y-69560300D01*
X73744622Y-69579500D01*
X73363856Y-69579500D01*
X73282753Y-69601230D01*
X73282754Y-69601231D01*
X73274713Y-69603385D01*
X73274709Y-69603387D01*
X73194791Y-69649527D01*
X73194786Y-69649531D01*
X72692969Y-70151347D01*
X72631646Y-70184832D01*
X72566970Y-70181597D01*
X72397698Y-70126597D01*
X72239819Y-70101592D01*
X72226611Y-70099500D01*
X72053389Y-70099500D01*
X72040181Y-70101592D01*
X71882301Y-70126597D01*
X71756818Y-70167369D01*
X71686976Y-70169364D01*
X71627144Y-70133283D01*
X71596316Y-70070582D01*
X71594500Y-70049438D01*
X71594500Y-70031427D01*
X71594500Y-70031425D01*
X71556984Y-69891415D01*
X71547059Y-69874225D01*
X71484511Y-69765888D01*
X71484506Y-69765882D01*
X71382017Y-69663393D01*
X71382015Y-69663391D01*
X71344113Y-69641508D01*
X71295899Y-69590941D01*
X71282677Y-69522334D01*
X71289905Y-69490864D01*
X71293529Y-69481127D01*
X71314914Y-69444088D01*
X71332909Y-69376928D01*
X71338800Y-69354944D01*
X71338800Y-68369244D01*
X71358485Y-68302205D01*
X71375119Y-68281563D01*
X72359276Y-67297406D01*
X73531927Y-66124754D01*
X73593248Y-66091271D01*
X73662940Y-66096255D01*
X73681603Y-66105049D01*
X73704944Y-66118525D01*
X73782809Y-66163481D01*
X73782810Y-66163482D01*
X73782812Y-66163482D01*
X73782815Y-66163484D01*
X73922825Y-66201000D01*
X73922828Y-66201000D01*
X74067772Y-66201000D01*
X74067775Y-66201000D01*
X74207785Y-66163484D01*
X74332502Y-66091478D01*
X74400399Y-66075006D01*
X74466426Y-66097858D01*
G37*
%TD.AperFunction*%
%TA.AperFunction,Conductor*%
G36*
X78150595Y-54597985D02*
G01*
X78196350Y-54650789D01*
X78206294Y-54719947D01*
X78177269Y-54783503D01*
X78171237Y-54789981D01*
X77755964Y-55205252D01*
X77700378Y-55237345D01*
X77648618Y-55251214D01*
X77648611Y-55251217D01*
X77523088Y-55323688D01*
X77523082Y-55323693D01*
X77420593Y-55426182D01*
X77420588Y-55426188D01*
X77348117Y-55551711D01*
X77348116Y-55551715D01*
X77310600Y-55691725D01*
X77310600Y-55836675D01*
X77348116Y-55976685D01*
X77348117Y-55976688D01*
X77378031Y-56028500D01*
X77394504Y-56096400D01*
X77371652Y-56162427D01*
X77316730Y-56205618D01*
X77270644Y-56214500D01*
X77075326Y-56214500D01*
X77024190Y-56224671D01*
X76975810Y-56224671D01*
X76924674Y-56214500D01*
X76575326Y-56214500D01*
X76575323Y-56214500D01*
X76502264Y-56229032D01*
X76502260Y-56229033D01*
X76419399Y-56284399D01*
X76384844Y-56336116D01*
X76357249Y-56377415D01*
X76356016Y-56376591D01*
X76320719Y-56420391D01*
X76254424Y-56442455D01*
X76186725Y-56425175D01*
X76139115Y-56374037D01*
X76136137Y-56367516D01*
X76125500Y-56351596D01*
X76080601Y-56284399D01*
X75997740Y-56229034D01*
X75997739Y-56229033D01*
X75997735Y-56229032D01*
X75924677Y-56214500D01*
X75924674Y-56214500D01*
X75575326Y-56214500D01*
X75524190Y-56224671D01*
X75475810Y-56224671D01*
X75424674Y-56214500D01*
X75224500Y-56214500D01*
X75157461Y-56194815D01*
X75111706Y-56142011D01*
X75100500Y-56090500D01*
X75100500Y-55731158D01*
X75100500Y-55731156D01*
X75076614Y-55642012D01*
X75076611Y-55642008D01*
X75073504Y-55634505D01*
X75075022Y-55633876D01*
X75061100Y-55581916D01*
X75061100Y-55465427D01*
X75061100Y-55465425D01*
X75023584Y-55325415D01*
X75010822Y-55303311D01*
X74951111Y-55199888D01*
X74951106Y-55199882D01*
X74848617Y-55097393D01*
X74848611Y-55097388D01*
X74723088Y-55024917D01*
X74723089Y-55024917D01*
X74597742Y-54991330D01*
X74538081Y-54954964D01*
X74507553Y-54892117D01*
X74515848Y-54822742D01*
X74560334Y-54768864D01*
X74597738Y-54751782D01*
X74638785Y-54740784D01*
X74764315Y-54668309D01*
X74818005Y-54614619D01*
X74879328Y-54581134D01*
X74905686Y-54578300D01*
X78083556Y-54578300D01*
X78150595Y-54597985D01*
G37*
%TD.AperFunction*%
%TA.AperFunction,Conductor*%
G36*
X79608177Y-55051943D02*
G01*
X79633004Y-55054912D01*
X79641126Y-55061618D01*
X79651229Y-55064585D01*
X79667598Y-55083476D01*
X79686881Y-55099398D01*
X79690088Y-55109430D01*
X79696984Y-55117389D01*
X79700542Y-55142134D01*
X79708155Y-55165950D01*
X79706253Y-55181853D01*
X79706928Y-55186547D01*
X79703964Y-55200995D01*
X79697900Y-55223623D01*
X79697900Y-55223625D01*
X79697900Y-55368575D01*
X79729870Y-55487886D01*
X79735417Y-55508588D01*
X79807888Y-55634111D01*
X79807893Y-55634117D01*
X79861581Y-55687805D01*
X79895066Y-55749128D01*
X79897900Y-55775486D01*
X79897900Y-56090500D01*
X79878215Y-56157539D01*
X79825411Y-56203294D01*
X79773900Y-56214500D01*
X79575326Y-56214500D01*
X79524190Y-56224671D01*
X79475810Y-56224671D01*
X79424674Y-56214500D01*
X79075326Y-56214500D01*
X79075323Y-56214500D01*
X79002264Y-56229032D01*
X79002260Y-56229033D01*
X78919399Y-56284399D01*
X78884844Y-56336116D01*
X78857249Y-56377415D01*
X78856016Y-56376591D01*
X78820719Y-56420391D01*
X78754424Y-56442455D01*
X78686725Y-56425175D01*
X78639115Y-56374037D01*
X78636137Y-56367516D01*
X78625500Y-56351596D01*
X78580601Y-56284399D01*
X78497740Y-56229034D01*
X78497739Y-56229033D01*
X78497735Y-56229032D01*
X78425853Y-56214734D01*
X78363942Y-56182349D01*
X78329368Y-56121634D01*
X78333107Y-56051864D01*
X78342655Y-56031121D01*
X78374084Y-55976685D01*
X78411600Y-55836675D01*
X78411600Y-55691725D01*
X78398273Y-55641990D01*
X78399934Y-55572140D01*
X78430364Y-55522216D01*
X78871363Y-55081219D01*
X78932686Y-55047734D01*
X78959044Y-55044900D01*
X79584190Y-55044900D01*
X79608177Y-55051943D01*
G37*
%TD.AperFunction*%
%TA.AperFunction,Conductor*%
G36*
X81151595Y-55064585D02*
G01*
X81172237Y-55081219D01*
X81716304Y-55625286D01*
X82103287Y-56012268D01*
X82136772Y-56073591D01*
X82131788Y-56143282D01*
X82089916Y-56199216D01*
X82039796Y-56221567D01*
X82024190Y-56224671D01*
X81975810Y-56224671D01*
X81924674Y-56214500D01*
X81575326Y-56214500D01*
X81575323Y-56214500D01*
X81502264Y-56229032D01*
X81502260Y-56229033D01*
X81419399Y-56284399D01*
X81384844Y-56336116D01*
X81357249Y-56377415D01*
X81356016Y-56376591D01*
X81320719Y-56420391D01*
X81254424Y-56442455D01*
X81186725Y-56425175D01*
X81139115Y-56374037D01*
X81136137Y-56367516D01*
X81125500Y-56351596D01*
X81080601Y-56284399D01*
X80997740Y-56229034D01*
X80997739Y-56229033D01*
X80997735Y-56229032D01*
X80924677Y-56214500D01*
X80924674Y-56214500D01*
X80722900Y-56214500D01*
X80655861Y-56194815D01*
X80610106Y-56142011D01*
X80598900Y-56090500D01*
X80598900Y-55775486D01*
X80618585Y-55708447D01*
X80635219Y-55687805D01*
X80656341Y-55666683D01*
X80688909Y-55634115D01*
X80761384Y-55508585D01*
X80798900Y-55368575D01*
X80798900Y-55223625D01*
X80792836Y-55200994D01*
X80793430Y-55176002D01*
X80789872Y-55151253D01*
X80794247Y-55141671D01*
X80794498Y-55131145D01*
X80808510Y-55110441D01*
X80818897Y-55087697D01*
X80827756Y-55082003D01*
X80833659Y-55073282D01*
X80856642Y-55063439D01*
X80877675Y-55049923D01*
X80893528Y-55047643D01*
X80897887Y-55045777D01*
X80912610Y-55044900D01*
X81084556Y-55044900D01*
X81151595Y-55064585D01*
G37*
%TD.AperFunction*%
%TA.AperFunction,Conductor*%
G36*
X86108895Y-54597985D02*
G01*
X86129537Y-54614619D01*
X86988181Y-55473263D01*
X87021666Y-55534586D01*
X87024500Y-55560944D01*
X87024500Y-55841756D01*
X87004815Y-55908795D01*
X86988181Y-55929437D01*
X86969531Y-55948086D01*
X86969529Y-55948088D01*
X86943883Y-55992511D01*
X86943881Y-55992513D01*
X86923388Y-56028006D01*
X86923387Y-56028009D01*
X86923386Y-56028011D01*
X86923386Y-56028012D01*
X86916995Y-56051864D01*
X86899500Y-56117156D01*
X86899500Y-56276566D01*
X86894926Y-56292899D01*
X86895320Y-56308491D01*
X86882826Y-56336116D01*
X86881472Y-56340955D01*
X86880087Y-56343233D01*
X86864034Y-56367260D01*
X86863325Y-56370819D01*
X86855972Y-56382923D01*
X86836907Y-56400302D01*
X86820719Y-56420391D01*
X86811509Y-56423455D01*
X86804338Y-56429994D01*
X86778902Y-56434308D01*
X86754424Y-56442455D01*
X86745021Y-56440054D01*
X86735452Y-56441678D01*
X86711720Y-56431555D01*
X86686725Y-56425175D01*
X86680111Y-56418071D01*
X86671185Y-56414264D01*
X86656695Y-56392919D01*
X86639115Y-56374037D01*
X86636137Y-56367516D01*
X86625500Y-56351596D01*
X86580601Y-56284399D01*
X86497740Y-56229034D01*
X86497739Y-56229033D01*
X86497735Y-56229032D01*
X86424677Y-56214500D01*
X86424674Y-56214500D01*
X86075326Y-56214500D01*
X86025603Y-56224390D01*
X85956011Y-56218161D01*
X85900835Y-56175298D01*
X85877591Y-56109408D01*
X85893660Y-56041411D01*
X85913725Y-56015098D01*
X85987009Y-55941815D01*
X86059484Y-55816285D01*
X86097000Y-55676275D01*
X86097000Y-55531325D01*
X86059484Y-55391315D01*
X86046353Y-55368572D01*
X85987011Y-55265788D01*
X85987006Y-55265782D01*
X85884517Y-55163293D01*
X85884511Y-55163288D01*
X85758988Y-55090817D01*
X85758989Y-55090817D01*
X85747345Y-55087697D01*
X85618975Y-55053300D01*
X85474025Y-55053300D01*
X85345655Y-55087697D01*
X85334011Y-55090817D01*
X85208488Y-55163288D01*
X85208482Y-55163293D01*
X85105993Y-55265782D01*
X85105988Y-55265788D01*
X85033517Y-55391311D01*
X85033516Y-55391315D01*
X84996000Y-55531325D01*
X84996000Y-55531327D01*
X84996000Y-55607256D01*
X84987355Y-55636696D01*
X84980832Y-55666683D01*
X84977077Y-55671698D01*
X84976315Y-55674295D01*
X84959681Y-55694937D01*
X84878137Y-55776481D01*
X84816814Y-55809966D01*
X84790456Y-55812800D01*
X84703856Y-55812800D01*
X84614712Y-55836686D01*
X84614711Y-55836686D01*
X84614709Y-55836687D01*
X84614706Y-55836688D01*
X84534794Y-55882826D01*
X84534785Y-55882833D01*
X84469533Y-55948085D01*
X84469526Y-55948094D01*
X84423388Y-56028006D01*
X84423387Y-56028009D01*
X84423386Y-56028011D01*
X84423386Y-56028012D01*
X84416995Y-56051864D01*
X84399500Y-56117156D01*
X84399500Y-56276566D01*
X84394926Y-56292899D01*
X84395320Y-56308491D01*
X84382826Y-56336116D01*
X84381472Y-56340955D01*
X84380087Y-56343233D01*
X84364034Y-56367260D01*
X84363325Y-56370819D01*
X84355972Y-56382923D01*
X84336907Y-56400302D01*
X84320719Y-56420391D01*
X84311509Y-56423455D01*
X84304338Y-56429994D01*
X84278902Y-56434308D01*
X84254424Y-56442455D01*
X84245021Y-56440054D01*
X84235452Y-56441678D01*
X84211720Y-56431555D01*
X84186725Y-56425175D01*
X84180111Y-56418071D01*
X84171185Y-56414264D01*
X84156695Y-56392919D01*
X84139115Y-56374037D01*
X84136136Y-56367516D01*
X84135966Y-56367262D01*
X84135966Y-56367260D01*
X84121396Y-56345454D01*
X84100520Y-56278778D01*
X84100500Y-56276566D01*
X84100500Y-56006658D01*
X84100500Y-56006656D01*
X84076614Y-55917512D01*
X84070154Y-55906324D01*
X84055666Y-55881230D01*
X84055664Y-55881227D01*
X84030471Y-55837590D01*
X84030467Y-55837585D01*
X83836177Y-55643295D01*
X83802692Y-55581972D01*
X83804083Y-55523521D01*
X83824300Y-55448075D01*
X83824300Y-55303125D01*
X83786784Y-55163115D01*
X83779957Y-55151291D01*
X83714311Y-55037588D01*
X83714306Y-55037582D01*
X83611817Y-54935093D01*
X83611811Y-54935088D01*
X83486288Y-54862617D01*
X83486289Y-54862617D01*
X83472721Y-54858981D01*
X83346275Y-54825100D01*
X83201325Y-54825100D01*
X83074878Y-54858981D01*
X83061311Y-54862617D01*
X82935788Y-54935088D01*
X82935782Y-54935093D01*
X82833293Y-55037582D01*
X82833288Y-55037588D01*
X82760817Y-55163111D01*
X82760816Y-55163115D01*
X82723300Y-55303125D01*
X82723300Y-55303127D01*
X82723300Y-55341556D01*
X82703615Y-55408595D01*
X82650811Y-55454350D01*
X82581653Y-55464294D01*
X82518097Y-55435269D01*
X82511619Y-55429237D01*
X81872363Y-54789981D01*
X81838878Y-54728658D01*
X81843862Y-54658966D01*
X81885734Y-54603033D01*
X81951198Y-54578616D01*
X81960044Y-54578300D01*
X86041856Y-54578300D01*
X86108895Y-54597985D01*
G37*
%TD.AperFunction*%
%TA.AperFunction,Conductor*%
G36*
X88817539Y-53920185D02*
G01*
X88863294Y-53972989D01*
X88874500Y-54024500D01*
X88874500Y-56090500D01*
X88854815Y-56157539D01*
X88802011Y-56203294D01*
X88750500Y-56214500D01*
X88575323Y-56214500D01*
X88502264Y-56229032D01*
X88502260Y-56229033D01*
X88419399Y-56284399D01*
X88384844Y-56336116D01*
X88357249Y-56377415D01*
X88356016Y-56376591D01*
X88320719Y-56420391D01*
X88254424Y-56442455D01*
X88186725Y-56425175D01*
X88139115Y-56374037D01*
X88136137Y-56367516D01*
X88125500Y-56351596D01*
X88080601Y-56284399D01*
X87997740Y-56229034D01*
X87997739Y-56229033D01*
X87997735Y-56229032D01*
X87924677Y-56214500D01*
X87924674Y-56214500D01*
X87849500Y-56214500D01*
X87782461Y-56194815D01*
X87736706Y-56142011D01*
X87725500Y-56090500D01*
X87725500Y-55318258D01*
X87725500Y-55318256D01*
X87701614Y-55229112D01*
X87696938Y-55221013D01*
X87696938Y-55221012D01*
X87655474Y-55149194D01*
X87655468Y-55149186D01*
X86618463Y-54112181D01*
X86584978Y-54050858D01*
X86589962Y-53981166D01*
X86631834Y-53925233D01*
X86697298Y-53900816D01*
X86706144Y-53900500D01*
X88750500Y-53900500D01*
X88817539Y-53920185D01*
G37*
%TD.AperFunction*%
%TA.AperFunction,Conductor*%
G36*
X112942539Y-50520185D02*
G01*
X112988294Y-50572989D01*
X112999500Y-50624500D01*
X112999500Y-81375500D01*
X112979815Y-81442539D01*
X112927011Y-81488294D01*
X112875500Y-81499500D01*
X50624500Y-81499500D01*
X50557461Y-81479815D01*
X50511706Y-81427011D01*
X50500500Y-81375500D01*
X50500500Y-58797273D01*
X51499500Y-58797273D01*
X51499500Y-69877273D01*
X51499500Y-69982727D01*
X51526793Y-70084587D01*
X51579520Y-70175913D01*
X51654087Y-70250480D01*
X51745413Y-70303207D01*
X51847273Y-70330500D01*
X55675500Y-70330500D01*
X55742539Y-70350185D01*
X55788294Y-70402989D01*
X55799500Y-70454500D01*
X55799500Y-72074678D01*
X55814032Y-72147735D01*
X55814033Y-72147739D01*
X55814034Y-72147740D01*
X55869399Y-72230601D01*
X55944132Y-72280535D01*
X55952260Y-72285966D01*
X55952264Y-72285967D01*
X56025321Y-72300499D01*
X56025324Y-72300500D01*
X56025326Y-72300500D01*
X57774676Y-72300500D01*
X57774677Y-72300499D01*
X57847740Y-72285966D01*
X57930601Y-72230601D01*
X57985966Y-72147740D01*
X58000500Y-72074674D01*
X58000500Y-70454500D01*
X58020185Y-70387461D01*
X58072989Y-70341706D01*
X58124500Y-70330500D01*
X58468072Y-70330500D01*
X58535111Y-70350185D01*
X58580866Y-70402989D01*
X58590810Y-70472147D01*
X58568390Y-70527386D01*
X58498768Y-70623211D01*
X58420128Y-70777552D01*
X58366597Y-70942302D01*
X58366597Y-70942304D01*
X58339500Y-71113389D01*
X58339500Y-71286611D01*
X58366598Y-71457701D01*
X58420127Y-71622445D01*
X58498768Y-71776788D01*
X58600586Y-71916928D01*
X58723072Y-72039414D01*
X58863212Y-72141232D01*
X59017555Y-72219873D01*
X59182299Y-72273402D01*
X59353389Y-72300500D01*
X59353390Y-72300500D01*
X59526610Y-72300500D01*
X59526611Y-72300500D01*
X59697701Y-72273402D01*
X59862445Y-72219873D01*
X60016788Y-72141232D01*
X60156928Y-72039414D01*
X60279414Y-71916928D01*
X60381232Y-71776788D01*
X60459873Y-71622445D01*
X60513402Y-71457701D01*
X60540500Y-71286611D01*
X60540500Y-71113389D01*
X60879500Y-71113389D01*
X60879500Y-71286611D01*
X60906598Y-71457701D01*
X60960127Y-71622445D01*
X61038768Y-71776788D01*
X61140586Y-71916928D01*
X61263072Y-72039414D01*
X61403212Y-72141232D01*
X61557555Y-72219873D01*
X61722299Y-72273402D01*
X61893389Y-72300500D01*
X61893390Y-72300500D01*
X62066610Y-72300500D01*
X62066611Y-72300500D01*
X62237701Y-72273402D01*
X62402445Y-72219873D01*
X62556788Y-72141232D01*
X62696928Y-72039414D01*
X62819414Y-71916928D01*
X62921232Y-71776788D01*
X62999873Y-71622445D01*
X63053402Y-71457701D01*
X63080500Y-71286611D01*
X63080500Y-71113389D01*
X63419500Y-71113389D01*
X63419500Y-71286611D01*
X63446598Y-71457701D01*
X63500127Y-71622445D01*
X63578768Y-71776788D01*
X63680586Y-71916928D01*
X63803072Y-72039414D01*
X63943212Y-72141232D01*
X64097555Y-72219873D01*
X64262299Y-72273402D01*
X64433389Y-72300500D01*
X64433390Y-72300500D01*
X64606610Y-72300500D01*
X64606611Y-72300500D01*
X64777701Y-72273402D01*
X64942445Y-72219873D01*
X65096788Y-72141232D01*
X65236928Y-72039414D01*
X65359414Y-71916928D01*
X65461232Y-71776788D01*
X65539873Y-71622445D01*
X65593402Y-71457701D01*
X65620500Y-71286611D01*
X65620500Y-71113389D01*
X65593402Y-70942299D01*
X65539873Y-70777555D01*
X65461232Y-70623212D01*
X65359414Y-70483072D01*
X65236928Y-70360586D01*
X65096788Y-70258768D01*
X65029754Y-70224613D01*
X64942447Y-70180128D01*
X64942446Y-70180127D01*
X64942445Y-70180127D01*
X64777701Y-70126598D01*
X64777699Y-70126597D01*
X64777698Y-70126597D01*
X64619819Y-70101592D01*
X64606611Y-70099500D01*
X64433389Y-70099500D01*
X64420181Y-70101592D01*
X64262302Y-70126597D01*
X64097552Y-70180128D01*
X63943211Y-70258768D01*
X63882047Y-70303207D01*
X63803072Y-70360586D01*
X63803070Y-70360588D01*
X63803069Y-70360588D01*
X63680588Y-70483069D01*
X63680588Y-70483070D01*
X63680586Y-70483072D01*
X63648390Y-70527386D01*
X63578768Y-70623211D01*
X63500128Y-70777552D01*
X63446597Y-70942302D01*
X63446597Y-70942304D01*
X63419500Y-71113389D01*
X63080500Y-71113389D01*
X63053402Y-70942299D01*
X62999873Y-70777555D01*
X62921232Y-70623212D01*
X62819414Y-70483072D01*
X62696928Y-70360586D01*
X62556788Y-70258768D01*
X62489754Y-70224613D01*
X62402447Y-70180128D01*
X62402446Y-70180127D01*
X62402445Y-70180127D01*
X62237701Y-70126598D01*
X62237699Y-70126597D01*
X62237698Y-70126597D01*
X62079819Y-70101592D01*
X62066611Y-70099500D01*
X61893389Y-70099500D01*
X61880181Y-70101592D01*
X61722302Y-70126597D01*
X61557552Y-70180128D01*
X61403211Y-70258768D01*
X61342047Y-70303207D01*
X61263072Y-70360586D01*
X61263070Y-70360588D01*
X61263069Y-70360588D01*
X61140588Y-70483069D01*
X61140588Y-70483070D01*
X61140586Y-70483072D01*
X61108390Y-70527386D01*
X61038768Y-70623211D01*
X60960128Y-70777552D01*
X60906597Y-70942302D01*
X60906597Y-70942304D01*
X60879500Y-71113389D01*
X60540500Y-71113389D01*
X60513402Y-70942299D01*
X60459873Y-70777555D01*
X60381232Y-70623212D01*
X60279414Y-70483072D01*
X60156928Y-70360586D01*
X60077953Y-70303207D01*
X60016786Y-70258766D01*
X59886066Y-70192162D01*
X59835269Y-70144188D01*
X59818474Y-70076367D01*
X59822583Y-70049593D01*
X59840500Y-69982727D01*
X59840500Y-69767042D01*
X59860185Y-69700003D01*
X59908206Y-69656557D01*
X60012559Y-69603387D01*
X60016788Y-69601232D01*
X60156928Y-69499414D01*
X60279414Y-69376928D01*
X60381232Y-69236788D01*
X60459873Y-69082445D01*
X60513402Y-68917701D01*
X60540500Y-68746611D01*
X60540500Y-68573389D01*
X63419500Y-68573389D01*
X63419500Y-68746611D01*
X63420435Y-68752515D01*
X63442610Y-68892525D01*
X63446598Y-68917701D01*
X63500127Y-69082445D01*
X63578768Y-69236788D01*
X63680586Y-69376928D01*
X63803072Y-69499414D01*
X63943212Y-69601232D01*
X64097555Y-69679873D01*
X64262299Y-69733402D01*
X64433389Y-69760500D01*
X64433390Y-69760500D01*
X64606610Y-69760500D01*
X64606611Y-69760500D01*
X64777701Y-69733402D01*
X64942445Y-69679873D01*
X65096788Y-69601232D01*
X65236928Y-69499414D01*
X65359414Y-69376928D01*
X65461232Y-69236788D01*
X65539873Y-69082445D01*
X65593402Y-68917701D01*
X65620500Y-68746611D01*
X65620500Y-68573389D01*
X65959500Y-68573389D01*
X65959500Y-68746611D01*
X65960435Y-68752515D01*
X65982610Y-68892525D01*
X65986598Y-68917701D01*
X66040127Y-69082445D01*
X66118768Y-69236788D01*
X66220586Y-69376928D01*
X66343072Y-69499414D01*
X66483212Y-69601232D01*
X66637555Y-69679873D01*
X66802299Y-69733402D01*
X66973389Y-69760500D01*
X66973390Y-69760500D01*
X67146610Y-69760500D01*
X67146611Y-69760500D01*
X67317701Y-69733402D01*
X67482445Y-69679873D01*
X67636788Y-69601232D01*
X67776928Y-69499414D01*
X67899414Y-69376928D01*
X68001232Y-69236788D01*
X68079873Y-69082445D01*
X68133402Y-68917701D01*
X68160500Y-68746611D01*
X68160500Y-68573389D01*
X68133402Y-68402299D01*
X68079873Y-68237555D01*
X68001232Y-68083212D01*
X67899414Y-67943072D01*
X67776928Y-67820586D01*
X67636788Y-67718768D01*
X67482445Y-67640127D01*
X67317701Y-67586598D01*
X67317699Y-67586597D01*
X67317698Y-67586597D01*
X67186271Y-67565781D01*
X67146611Y-67559500D01*
X66973389Y-67559500D01*
X66933728Y-67565781D01*
X66802302Y-67586597D01*
X66637552Y-67640128D01*
X66483211Y-67718768D01*
X66444405Y-67746963D01*
X66343072Y-67820586D01*
X66343070Y-67820588D01*
X66343069Y-67820588D01*
X66220588Y-67943069D01*
X66220588Y-67943070D01*
X66220586Y-67943072D01*
X66176859Y-68003256D01*
X66118768Y-68083211D01*
X66040128Y-68237552D01*
X65986597Y-68402302D01*
X65967245Y-68524491D01*
X65959500Y-68573389D01*
X65620500Y-68573389D01*
X65593402Y-68402299D01*
X65539873Y-68237555D01*
X65461232Y-68083212D01*
X65359414Y-67943072D01*
X65236928Y-67820586D01*
X65096788Y-67718768D01*
X64942445Y-67640127D01*
X64777701Y-67586598D01*
X64777699Y-67586597D01*
X64777698Y-67586597D01*
X64646271Y-67565781D01*
X64606611Y-67559500D01*
X64433389Y-67559500D01*
X64393728Y-67565781D01*
X64262302Y-67586597D01*
X64097552Y-67640128D01*
X63943211Y-67718768D01*
X63904405Y-67746963D01*
X63803072Y-67820586D01*
X63803070Y-67820588D01*
X63803069Y-67820588D01*
X63680588Y-67943069D01*
X63680588Y-67943070D01*
X63680586Y-67943072D01*
X63636859Y-68003256D01*
X63578768Y-68083211D01*
X63500128Y-68237552D01*
X63446597Y-68402302D01*
X63427245Y-68524491D01*
X63419500Y-68573389D01*
X60540500Y-68573389D01*
X60513402Y-68402299D01*
X60459873Y-68237555D01*
X60381232Y-68083212D01*
X60279414Y-67943072D01*
X60156928Y-67820586D01*
X60016788Y-67718768D01*
X59862445Y-67640127D01*
X59697701Y-67586598D01*
X59697699Y-67586597D01*
X59697698Y-67586597D01*
X59566271Y-67565781D01*
X59526611Y-67559500D01*
X59353389Y-67559500D01*
X59313728Y-67565781D01*
X59182302Y-67586597D01*
X59017552Y-67640128D01*
X58863211Y-67718768D01*
X58824405Y-67746963D01*
X58723072Y-67820586D01*
X58723070Y-67820588D01*
X58723069Y-67820588D01*
X58600588Y-67943069D01*
X58600588Y-67943070D01*
X58600586Y-67943072D01*
X58556859Y-68003256D01*
X58498768Y-68083211D01*
X58420128Y-68237552D01*
X58366597Y-68402302D01*
X58347245Y-68524491D01*
X58339500Y-68573389D01*
X58339500Y-68746611D01*
X58340435Y-68752515D01*
X58362610Y-68892525D01*
X58366598Y-68917701D01*
X58420127Y-69082445D01*
X58498768Y-69236788D01*
X58540052Y-69293611D01*
X58568390Y-69332614D01*
X58591870Y-69398421D01*
X58576045Y-69466475D01*
X58525939Y-69515170D01*
X58468072Y-69529500D01*
X57871928Y-69529500D01*
X57804889Y-69509815D01*
X57759134Y-69457011D01*
X57749190Y-69387853D01*
X57771610Y-69332614D01*
X57782359Y-69317819D01*
X57841232Y-69236788D01*
X57919873Y-69082445D01*
X57973402Y-68917701D01*
X58000500Y-68746611D01*
X58000500Y-68573389D01*
X57973402Y-68402299D01*
X57919873Y-68237555D01*
X57841232Y-68083212D01*
X57739414Y-67943072D01*
X57616928Y-67820586D01*
X57476788Y-67718768D01*
X57322445Y-67640127D01*
X57157701Y-67586598D01*
X57157699Y-67586597D01*
X57157698Y-67586597D01*
X57026271Y-67565781D01*
X56986611Y-67559500D01*
X56813389Y-67559500D01*
X56773728Y-67565781D01*
X56642302Y-67586597D01*
X56477552Y-67640128D01*
X56323211Y-67718768D01*
X56284405Y-67746963D01*
X56183072Y-67820586D01*
X56183070Y-67820588D01*
X56183069Y-67820588D01*
X56060588Y-67943069D01*
X56060588Y-67943070D01*
X56060586Y-67943072D01*
X56016859Y-68003256D01*
X55958768Y-68083211D01*
X55880128Y-68237552D01*
X55826597Y-68402302D01*
X55807245Y-68524491D01*
X55799500Y-68573389D01*
X55799500Y-68746611D01*
X55800435Y-68752515D01*
X55822610Y-68892525D01*
X55826598Y-68917701D01*
X55880127Y-69082445D01*
X55958768Y-69236788D01*
X56000052Y-69293611D01*
X56028390Y-69332614D01*
X56051870Y-69398421D01*
X56036045Y-69466475D01*
X55985939Y-69515170D01*
X55928072Y-69529500D01*
X54231286Y-69529500D01*
X54164247Y-69509815D01*
X54118492Y-69457011D01*
X54108548Y-69387853D01*
X54137573Y-69324297D01*
X54143605Y-69317819D01*
X54158409Y-69303015D01*
X54230884Y-69177485D01*
X54268400Y-69037475D01*
X54268400Y-68892525D01*
X54230884Y-68752515D01*
X54227475Y-68746611D01*
X54158411Y-68626988D01*
X54158406Y-68626982D01*
X54055917Y-68524493D01*
X54055915Y-68524491D01*
X53987124Y-68484774D01*
X53938910Y-68434207D01*
X53925688Y-68365600D01*
X53951656Y-68300736D01*
X53981958Y-68274482D01*
X53981384Y-68273622D01*
X53984738Y-68271379D01*
X53984757Y-68271369D01*
X54037673Y-68230765D01*
X54130765Y-68137673D01*
X54171369Y-68084757D01*
X54237195Y-67970743D01*
X54262719Y-67909123D01*
X54296794Y-67781956D01*
X54305500Y-67715826D01*
X54305500Y-67150000D01*
X54305500Y-67149997D01*
X54305499Y-67149995D01*
X54286052Y-67052229D01*
X54286051Y-67052228D01*
X54286051Y-67052224D01*
X54286048Y-67052219D01*
X54284077Y-67047460D01*
X54276604Y-66977991D01*
X54284077Y-66952540D01*
X54286047Y-66947781D01*
X54286051Y-66947776D01*
X54305500Y-66850000D01*
X54305500Y-66314680D01*
X54325185Y-66247641D01*
X54368542Y-66206698D01*
X54423807Y-66175500D01*
X55062009Y-65815225D01*
X60187700Y-65815225D01*
X60187700Y-65960175D01*
X60225216Y-66100185D01*
X60225217Y-66100188D01*
X60297688Y-66225711D01*
X60297690Y-66225713D01*
X60297691Y-66225715D01*
X60400185Y-66328209D01*
X60400186Y-66328210D01*
X60400188Y-66328211D01*
X60525711Y-66400682D01*
X60525712Y-66400682D01*
X60525715Y-66400684D01*
X60665725Y-66438200D01*
X60665728Y-66438200D01*
X60810672Y-66438200D01*
X60810675Y-66438200D01*
X60950685Y-66400684D01*
X61076215Y-66328209D01*
X61178709Y-66225715D01*
X61251184Y-66100185D01*
X61288700Y-65960175D01*
X61288700Y-65815225D01*
X61251184Y-65675215D01*
X61249529Y-65672349D01*
X61178711Y-65549688D01*
X61178706Y-65549682D01*
X61076217Y-65447193D01*
X61076211Y-65447188D01*
X60950688Y-65374717D01*
X60950689Y-65374717D01*
X60934522Y-65370385D01*
X60810675Y-65337200D01*
X60665725Y-65337200D01*
X60541878Y-65370385D01*
X60525711Y-65374717D01*
X60400188Y-65447188D01*
X60400182Y-65447193D01*
X60297693Y-65549682D01*
X60297688Y-65549688D01*
X60225217Y-65675211D01*
X60224465Y-65678016D01*
X60187700Y-65815225D01*
X55062009Y-65815225D01*
X56223735Y-65159412D01*
X56291790Y-65143598D01*
X56316778Y-65147619D01*
X56327525Y-65150499D01*
X56327528Y-65150499D01*
X56472472Y-65150499D01*
X56472475Y-65150499D01*
X56612485Y-65112983D01*
X56738015Y-65040508D01*
X56840509Y-64938014D01*
X56912984Y-64812484D01*
X56950500Y-64672474D01*
X56950500Y-64527524D01*
X56912984Y-64387514D01*
X56910486Y-64383188D01*
X56840511Y-64261987D01*
X56840506Y-64261981D01*
X56738017Y-64159492D01*
X56738011Y-64159487D01*
X56612488Y-64087016D01*
X56612489Y-64087016D01*
X56601006Y-64083939D01*
X56472475Y-64049499D01*
X56327525Y-64049499D01*
X56198993Y-64083939D01*
X56187511Y-64087016D01*
X56061988Y-64159487D01*
X56061982Y-64159492D01*
X55959493Y-64261981D01*
X55959489Y-64261987D01*
X55887014Y-64387516D01*
X55883903Y-64395028D01*
X55882566Y-64394474D01*
X55850802Y-64446570D01*
X55828363Y-64462786D01*
X53811677Y-65601239D01*
X53743620Y-65617054D01*
X53718626Y-65613032D01*
X53681954Y-65603205D01*
X53615827Y-65594500D01*
X53615826Y-65594500D01*
X52984174Y-65594500D01*
X52984173Y-65594500D01*
X52918047Y-65603205D01*
X52790873Y-65637282D01*
X52729265Y-65662800D01*
X52729249Y-65662808D01*
X52615250Y-65728626D01*
X52615234Y-65728637D01*
X52562328Y-65769233D01*
X52562321Y-65769239D01*
X52512181Y-65819380D01*
X52450858Y-65852865D01*
X52381166Y-65847881D01*
X52325233Y-65806009D01*
X52300816Y-65740545D01*
X52300500Y-65731699D01*
X52300500Y-64948093D01*
X52320185Y-64881054D01*
X52372989Y-64835299D01*
X52442147Y-64825355D01*
X52467828Y-64831909D01*
X52567517Y-64869091D01*
X52627127Y-64875500D01*
X53972872Y-64875499D01*
X54032483Y-64869091D01*
X54167331Y-64818796D01*
X54282546Y-64732546D01*
X54368796Y-64617331D01*
X54419091Y-64482483D01*
X54425500Y-64422873D01*
X54425499Y-63847442D01*
X54445183Y-63780404D01*
X54461813Y-63759767D01*
X56520870Y-61700712D01*
X56567014Y-61620788D01*
X56576063Y-61587017D01*
X56579764Y-61573206D01*
X56584470Y-61555639D01*
X56590900Y-61531644D01*
X56590900Y-60004856D01*
X56567014Y-59915712D01*
X56564185Y-59910812D01*
X56564185Y-59910811D01*
X56520874Y-59835794D01*
X56520868Y-59835786D01*
X54341819Y-57656737D01*
X54308334Y-57595414D01*
X54305500Y-57569056D01*
X54305500Y-57484173D01*
X54300602Y-57446972D01*
X54296794Y-57418044D01*
X54262719Y-57290877D01*
X54252340Y-57265819D01*
X54237199Y-57229265D01*
X54237191Y-57229249D01*
X54171373Y-57115250D01*
X54171369Y-57115243D01*
X54130765Y-57062327D01*
X54130760Y-57062321D01*
X54037678Y-56969239D01*
X54037671Y-56969233D01*
X53984765Y-56928637D01*
X53984763Y-56928635D01*
X53984757Y-56928631D01*
X53984752Y-56928628D01*
X53984749Y-56928626D01*
X53870750Y-56862808D01*
X53870734Y-56862800D01*
X53809126Y-56837282D01*
X53809124Y-56837281D01*
X53809123Y-56837281D01*
X53681956Y-56803206D01*
X53681955Y-56803205D01*
X53681952Y-56803205D01*
X53615827Y-56794500D01*
X53615826Y-56794500D01*
X52984174Y-56794500D01*
X52984173Y-56794500D01*
X52918047Y-56803205D01*
X52790873Y-56837282D01*
X52729265Y-56862800D01*
X52729249Y-56862808D01*
X52615250Y-56928626D01*
X52615234Y-56928637D01*
X52562328Y-56969233D01*
X52562321Y-56969239D01*
X52469239Y-57062321D01*
X52469233Y-57062328D01*
X52428637Y-57115234D01*
X52428626Y-57115250D01*
X52362808Y-57229249D01*
X52362800Y-57229265D01*
X52337282Y-57290873D01*
X52303205Y-57418047D01*
X52294500Y-57484173D01*
X52294500Y-58050004D01*
X52313947Y-58147771D01*
X52315926Y-58152548D01*
X52323394Y-58222018D01*
X52322302Y-58227387D01*
X52318076Y-58246046D01*
X52313949Y-58252224D01*
X52294500Y-58350000D01*
X52294500Y-58350157D01*
X52293882Y-58352887D01*
X52277633Y-58382051D01*
X52262176Y-58411602D01*
X52260702Y-58412440D01*
X52259877Y-58413923D01*
X52230450Y-58429667D01*
X52201461Y-58446176D01*
X52199079Y-58446453D01*
X52198271Y-58446886D01*
X52196551Y-58446748D01*
X52172944Y-58449500D01*
X51847273Y-58449500D01*
X51745413Y-58476793D01*
X51745410Y-58476794D01*
X51654085Y-58529521D01*
X51579521Y-58604085D01*
X51526794Y-58695410D01*
X51526793Y-58695413D01*
X51499500Y-58797273D01*
X50500500Y-58797273D01*
X50500500Y-53074038D01*
X51399500Y-53074038D01*
X51399500Y-53325961D01*
X51438910Y-53574785D01*
X51516760Y-53814383D01*
X51631132Y-54038848D01*
X51779201Y-54242649D01*
X51779205Y-54242654D01*
X51957345Y-54420794D01*
X51957350Y-54420798D01*
X52079462Y-54509517D01*
X52161155Y-54568870D01*
X52250943Y-54614619D01*
X52385616Y-54683239D01*
X52385618Y-54683239D01*
X52385621Y-54683241D01*
X52625215Y-54761090D01*
X52874038Y-54800500D01*
X52874039Y-54800500D01*
X53125961Y-54800500D01*
X53125962Y-54800500D01*
X53374785Y-54761090D01*
X53614379Y-54683241D01*
X53838845Y-54568870D01*
X54042656Y-54420793D01*
X54220793Y-54242656D01*
X54368870Y-54038845D01*
X54483241Y-53814379D01*
X54557569Y-53585622D01*
X54597007Y-53527947D01*
X54661366Y-53500749D01*
X54730212Y-53512664D01*
X54781688Y-53559908D01*
X54799500Y-53623941D01*
X54799500Y-53770614D01*
X54779815Y-53837653D01*
X54763181Y-53858295D01*
X54759493Y-53861982D01*
X54759488Y-53861988D01*
X54687017Y-53987511D01*
X54687016Y-53987515D01*
X54649500Y-54127525D01*
X54649500Y-54272475D01*
X54687016Y-54412485D01*
X54687017Y-54412488D01*
X54759488Y-54538011D01*
X54759490Y-54538013D01*
X54759491Y-54538015D01*
X54861985Y-54640509D01*
X54861986Y-54640510D01*
X54861988Y-54640511D01*
X54987511Y-54712982D01*
X54987512Y-54712982D01*
X54987515Y-54712984D01*
X55127525Y-54750500D01*
X55127528Y-54750500D01*
X55272472Y-54750500D01*
X55272475Y-54750500D01*
X55412485Y-54712984D01*
X55538015Y-54640509D01*
X55640509Y-54538015D01*
X55712984Y-54412485D01*
X55750500Y-54272475D01*
X55750500Y-54127525D01*
X55731493Y-54056590D01*
X55733156Y-53986744D01*
X55772318Y-53928882D01*
X55836546Y-53901377D01*
X55851268Y-53900500D01*
X68318295Y-53900500D01*
X68385334Y-53920185D01*
X68431089Y-53972989D01*
X68441033Y-54042147D01*
X68438071Y-54056585D01*
X68426700Y-54099025D01*
X68426700Y-54243975D01*
X68458427Y-54362379D01*
X68464217Y-54383988D01*
X68536688Y-54509511D01*
X68536690Y-54509513D01*
X68536691Y-54509515D01*
X68639185Y-54612009D01*
X68639186Y-54612010D01*
X68639188Y-54612011D01*
X68764711Y-54684482D01*
X68764712Y-54684482D01*
X68764715Y-54684484D01*
X68904725Y-54722000D01*
X68904728Y-54722000D01*
X69049672Y-54722000D01*
X69049675Y-54722000D01*
X69101109Y-54708218D01*
X69170956Y-54709881D01*
X69228818Y-54749043D01*
X69256323Y-54813271D01*
X69257200Y-54827993D01*
X69257200Y-54935275D01*
X69290564Y-55059789D01*
X69294717Y-55075288D01*
X69367188Y-55200811D01*
X69367190Y-55200813D01*
X69367191Y-55200815D01*
X69469685Y-55303309D01*
X69469686Y-55303310D01*
X69469688Y-55303311D01*
X69595211Y-55375782D01*
X69595212Y-55375782D01*
X69595215Y-55375784D01*
X69735225Y-55413300D01*
X69811156Y-55413300D01*
X69878195Y-55432985D01*
X69898837Y-55449619D01*
X70813181Y-56363963D01*
X70846666Y-56425286D01*
X70849500Y-56451644D01*
X70849500Y-56942200D01*
X70829815Y-57009239D01*
X70777011Y-57054994D01*
X70725500Y-57066200D01*
X70000786Y-57066200D01*
X69933747Y-57046515D01*
X69913105Y-57029881D01*
X69817217Y-56933993D01*
X69817211Y-56933988D01*
X69691688Y-56861517D01*
X69691689Y-56861517D01*
X69680206Y-56858440D01*
X69551675Y-56824000D01*
X69406725Y-56824000D01*
X69278193Y-56858440D01*
X69266711Y-56861517D01*
X69141188Y-56933988D01*
X69141182Y-56933993D01*
X69038693Y-57036482D01*
X69038688Y-57036488D01*
X68966217Y-57162011D01*
X68966216Y-57162015D01*
X68928700Y-57302025D01*
X68928700Y-57446975D01*
X68963589Y-57577181D01*
X68966217Y-57586988D01*
X69038688Y-57712511D01*
X69038690Y-57712513D01*
X69038691Y-57712515D01*
X69141185Y-57815009D01*
X69141186Y-57815010D01*
X69141188Y-57815011D01*
X69266711Y-57887482D01*
X69266712Y-57887482D01*
X69266715Y-57887484D01*
X69406725Y-57925000D01*
X69406728Y-57925000D01*
X69551672Y-57925000D01*
X69551675Y-57925000D01*
X69691685Y-57887484D01*
X69817215Y-57815009D01*
X69828705Y-57803519D01*
X69890028Y-57770034D01*
X69916386Y-57767200D01*
X72296141Y-57767200D01*
X72296144Y-57767200D01*
X72318938Y-57761092D01*
X72388784Y-57762753D01*
X72446648Y-57801914D01*
X72458418Y-57818866D01*
X72469527Y-57838108D01*
X72469529Y-57838111D01*
X72469530Y-57838112D01*
X75665188Y-61033770D01*
X75665190Y-61033771D01*
X75665194Y-61033774D01*
X75704578Y-61056512D01*
X75704592Y-61056519D01*
X75706091Y-61057385D01*
X75745112Y-61079914D01*
X75750436Y-61081340D01*
X75762210Y-61087715D01*
X75769056Y-61094512D01*
X75790854Y-61109078D01*
X75875585Y-61193809D01*
X75875586Y-61193810D01*
X75875588Y-61193811D01*
X76001111Y-61266282D01*
X76001112Y-61266282D01*
X76001115Y-61266284D01*
X76141125Y-61303800D01*
X76141128Y-61303800D01*
X76286072Y-61303800D01*
X76286075Y-61303800D01*
X76426085Y-61266284D01*
X76551615Y-61193809D01*
X76654109Y-61091315D01*
X76726584Y-60965785D01*
X76764100Y-60825775D01*
X76764100Y-60680825D01*
X76726584Y-60540815D01*
X76715024Y-60520793D01*
X76654111Y-60415288D01*
X76654106Y-60415282D01*
X76551617Y-60312793D01*
X76551611Y-60312788D01*
X76426088Y-60240317D01*
X76426089Y-60240317D01*
X76401762Y-60233798D01*
X76293604Y-60204817D01*
X76233945Y-60168452D01*
X76203416Y-60105605D01*
X76211711Y-60036230D01*
X76218303Y-60023059D01*
X76284684Y-59908085D01*
X76322200Y-59768075D01*
X76322200Y-59692143D01*
X76341885Y-59625104D01*
X76358519Y-59604462D01*
X76876581Y-59086400D01*
X77428769Y-58534212D01*
X77468840Y-58464807D01*
X77519406Y-58416593D01*
X77588013Y-58403371D01*
X77608310Y-58407032D01*
X77678725Y-58425900D01*
X77678728Y-58425900D01*
X77823672Y-58425900D01*
X77823675Y-58425900D01*
X77963685Y-58388384D01*
X78089215Y-58315909D01*
X78191709Y-58213415D01*
X78242432Y-58125559D01*
X78260525Y-58108307D01*
X78275508Y-58088294D01*
X78285374Y-58084613D01*
X78292997Y-58077346D01*
X78317547Y-58072613D01*
X78340972Y-58063877D01*
X78351261Y-58066115D01*
X78361604Y-58064122D01*
X78384816Y-58073414D01*
X78409245Y-58078729D01*
X78422067Y-58088327D01*
X78426469Y-58090090D01*
X78437499Y-58099880D01*
X78548881Y-58211262D01*
X78582366Y-58272585D01*
X78585200Y-58298943D01*
X78585200Y-59632414D01*
X78565515Y-59699453D01*
X78548881Y-59720095D01*
X78495193Y-59773782D01*
X78495188Y-59773788D01*
X78422717Y-59899311D01*
X78422716Y-59899315D01*
X78385200Y-60039325D01*
X78385200Y-60184275D01*
X78419636Y-60312791D01*
X78422717Y-60324288D01*
X78495188Y-60449811D01*
X78495190Y-60449813D01*
X78495191Y-60449815D01*
X78597685Y-60552309D01*
X78597686Y-60552310D01*
X78597688Y-60552311D01*
X78723211Y-60624782D01*
X78723212Y-60624782D01*
X78723215Y-60624784D01*
X78863225Y-60662300D01*
X78863228Y-60662300D01*
X79008172Y-60662300D01*
X79008175Y-60662300D01*
X79148185Y-60624784D01*
X79273715Y-60552309D01*
X79361262Y-60464761D01*
X79422581Y-60431279D01*
X79492273Y-60436263D01*
X79510943Y-60445059D01*
X79525015Y-60453184D01*
X79665025Y-60490700D01*
X79665028Y-60490700D01*
X79809972Y-60490700D01*
X79809975Y-60490700D01*
X79809977Y-60490699D01*
X79814292Y-60490131D01*
X79817942Y-60490700D01*
X79818102Y-60490700D01*
X79818102Y-60490724D01*
X79843914Y-60494748D01*
X79873819Y-60496887D01*
X79878075Y-60500073D01*
X79883328Y-60500892D01*
X79905754Y-60520793D01*
X79929752Y-60538759D01*
X79931609Y-60543739D01*
X79935587Y-60547269D01*
X79943692Y-60576134D01*
X79954169Y-60604223D01*
X79953038Y-60609418D01*
X79954476Y-60614537D01*
X79945690Y-60643198D01*
X79939317Y-60672496D01*
X79934901Y-60678394D01*
X79933999Y-60681339D01*
X79918166Y-60700750D01*
X79787662Y-60831254D01*
X79732076Y-60863347D01*
X79660918Y-60882414D01*
X79660911Y-60882417D01*
X79535388Y-60954888D01*
X79535382Y-60954893D01*
X79432893Y-61057382D01*
X79432888Y-61057388D01*
X79360417Y-61182911D01*
X79360416Y-61182915D01*
X79322900Y-61322925D01*
X79322900Y-61467875D01*
X79358437Y-61600500D01*
X79360417Y-61607888D01*
X79432888Y-61733411D01*
X79432893Y-61733417D01*
X79473095Y-61773619D01*
X79506580Y-61834942D01*
X79501596Y-61904634D01*
X79459724Y-61960567D01*
X79394260Y-61984984D01*
X79385414Y-61985300D01*
X75845056Y-61985300D01*
X75755912Y-62009186D01*
X75755911Y-62009186D01*
X75755909Y-62009187D01*
X75755906Y-62009188D01*
X75675994Y-62055326D01*
X75675985Y-62055333D01*
X70128062Y-67603254D01*
X70066739Y-67636739D01*
X70002063Y-67633504D01*
X69857698Y-67586597D01*
X69726271Y-67565781D01*
X69686611Y-67559500D01*
X69513389Y-67559500D01*
X69473728Y-67565781D01*
X69342302Y-67586597D01*
X69177552Y-67640128D01*
X69023211Y-67718768D01*
X68984405Y-67746963D01*
X68883072Y-67820586D01*
X68883070Y-67820588D01*
X68883069Y-67820588D01*
X68760588Y-67943069D01*
X68760588Y-67943070D01*
X68760586Y-67943072D01*
X68716859Y-68003256D01*
X68658768Y-68083211D01*
X68580128Y-68237552D01*
X68526597Y-68402302D01*
X68507245Y-68524491D01*
X68499500Y-68573389D01*
X68499500Y-68746611D01*
X68500435Y-68752515D01*
X68522610Y-68892525D01*
X68526598Y-68917701D01*
X68580127Y-69082445D01*
X68658768Y-69236788D01*
X68760586Y-69376928D01*
X68883072Y-69499414D01*
X69023212Y-69601232D01*
X69177555Y-69679873D01*
X69342299Y-69733402D01*
X69513389Y-69760500D01*
X69513390Y-69760500D01*
X69686610Y-69760500D01*
X69686611Y-69760500D01*
X69730661Y-69753523D01*
X69761936Y-69757564D01*
X69793391Y-69759814D01*
X69796321Y-69762007D01*
X69799953Y-69762477D01*
X69824079Y-69782786D01*
X69849325Y-69801685D01*
X69850604Y-69805115D01*
X69853405Y-69807473D01*
X69862718Y-69837595D01*
X69873742Y-69867149D01*
X69872963Y-69870727D01*
X69874045Y-69874225D01*
X69865593Y-69904608D01*
X69858890Y-69935422D01*
X69855916Y-69939394D01*
X69855320Y-69941539D01*
X69837740Y-69963677D01*
X69738234Y-70063182D01*
X69676914Y-70096666D01*
X69650555Y-70099500D01*
X69513389Y-70099500D01*
X69500181Y-70101592D01*
X69342302Y-70126597D01*
X69177552Y-70180128D01*
X69023211Y-70258768D01*
X68962047Y-70303207D01*
X68883072Y-70360586D01*
X68883070Y-70360588D01*
X68883069Y-70360588D01*
X68760588Y-70483069D01*
X68760588Y-70483070D01*
X68760586Y-70483072D01*
X68728390Y-70527386D01*
X68658768Y-70623211D01*
X68580128Y-70777552D01*
X68526597Y-70942302D01*
X68526597Y-70942304D01*
X68499500Y-71113389D01*
X68499500Y-71286611D01*
X68526598Y-71457701D01*
X68580127Y-71622445D01*
X68658768Y-71776788D01*
X68760586Y-71916928D01*
X68883072Y-72039414D01*
X69023212Y-72141232D01*
X69177555Y-72219873D01*
X69342299Y-72273402D01*
X69513389Y-72300500D01*
X69513390Y-72300500D01*
X69686610Y-72300500D01*
X69686611Y-72300500D01*
X69857701Y-72273402D01*
X70022445Y-72219873D01*
X70176788Y-72141232D01*
X70316928Y-72039414D01*
X70439414Y-71916928D01*
X70473212Y-71870408D01*
X70528539Y-71827745D01*
X70598152Y-71821766D01*
X70659948Y-71854371D01*
X70671432Y-71869111D01*
X70672280Y-71868461D01*
X70677229Y-71874910D01*
X70677230Y-71874912D01*
X75617531Y-76815212D01*
X75682788Y-76880469D01*
X75682791Y-76880470D01*
X75682794Y-76880473D01*
X75762706Y-76926611D01*
X75762707Y-76926611D01*
X75762712Y-76926614D01*
X75851856Y-76950500D01*
X94499629Y-76950500D01*
X94566668Y-76970185D01*
X94612423Y-77022989D01*
X94619402Y-77042400D01*
X94627262Y-77071731D01*
X94637282Y-77109128D01*
X94662800Y-77170734D01*
X94662808Y-77170750D01*
X94728626Y-77284749D01*
X94728637Y-77284765D01*
X94769233Y-77337671D01*
X94769239Y-77337678D01*
X94862321Y-77430760D01*
X94862327Y-77430765D01*
X94915243Y-77471369D01*
X94937499Y-77484218D01*
X94985715Y-77534784D01*
X94999500Y-77591606D01*
X94999500Y-78344443D01*
X95023386Y-78433587D01*
X95023387Y-78433590D01*
X95069527Y-78513508D01*
X95069531Y-78513513D01*
X95343837Y-78787819D01*
X95377322Y-78849142D01*
X95372338Y-78918834D01*
X95330466Y-78974767D01*
X95265002Y-78999184D01*
X95256156Y-78999500D01*
X95225323Y-78999500D01*
X95152264Y-79014032D01*
X95152260Y-79014033D01*
X95069399Y-79069399D01*
X95014033Y-79152260D01*
X95014032Y-79152264D01*
X94999500Y-79225321D01*
X94999500Y-80774678D01*
X95014032Y-80847735D01*
X95014033Y-80847739D01*
X95014034Y-80847740D01*
X95069399Y-80930601D01*
X95152260Y-80985966D01*
X95152264Y-80985967D01*
X95225321Y-81000499D01*
X95225324Y-81000500D01*
X95225326Y-81000500D01*
X96774676Y-81000500D01*
X96774677Y-81000499D01*
X96847740Y-80985966D01*
X96930601Y-80930601D01*
X96985966Y-80847740D01*
X97000500Y-80774674D01*
X97000500Y-79225326D01*
X97000500Y-79225323D01*
X97000499Y-79225321D01*
X96985967Y-79152264D01*
X96985966Y-79152260D01*
X96930601Y-79069399D01*
X96847740Y-79014034D01*
X96847739Y-79014033D01*
X96847735Y-79014032D01*
X96774677Y-78999500D01*
X96774674Y-78999500D01*
X96471731Y-78999500D01*
X96404692Y-78979815D01*
X96358937Y-78927011D01*
X96351956Y-78907593D01*
X96350500Y-78902159D01*
X96350500Y-78902156D01*
X96326614Y-78813012D01*
X96280470Y-78733088D01*
X95736819Y-78189437D01*
X95703334Y-78128114D01*
X95700500Y-78101756D01*
X95700500Y-77729500D01*
X95720185Y-77662461D01*
X95772989Y-77616706D01*
X95803022Y-77607374D01*
X95813678Y-77605500D01*
X95850000Y-77605500D01*
X95947776Y-77586051D01*
X95956174Y-77580439D01*
X95978522Y-77576509D01*
X96000262Y-77578943D01*
X96022009Y-77576604D01*
X96047460Y-77584077D01*
X96052219Y-77586048D01*
X96052224Y-77586051D01*
X96124863Y-77600500D01*
X96149995Y-77605499D01*
X96149998Y-77605500D01*
X96150000Y-77605500D01*
X96715827Y-77605500D01*
X96729052Y-77603758D01*
X96781956Y-77596794D01*
X96909123Y-77562719D01*
X96954452Y-77543942D01*
X96970734Y-77537199D01*
X96970737Y-77537197D01*
X96970743Y-77537195D01*
X97084757Y-77471369D01*
X97137673Y-77430765D01*
X97230765Y-77337673D01*
X97271369Y-77284757D01*
X97337195Y-77170743D01*
X97362719Y-77109123D01*
X97396794Y-76981956D01*
X97405500Y-76915826D01*
X97405500Y-76284174D01*
X97396794Y-76218044D01*
X97362719Y-76090877D01*
X97354175Y-76070252D01*
X97346707Y-76000783D01*
X97377982Y-75938304D01*
X97438071Y-75902652D01*
X97468737Y-75898800D01*
X98523814Y-75898800D01*
X98590853Y-75918485D01*
X98636608Y-75971289D01*
X98646552Y-76040447D01*
X98617527Y-76104003D01*
X98611495Y-76110481D01*
X98570893Y-76151082D01*
X98570888Y-76151088D01*
X98498417Y-76276611D01*
X98498416Y-76276615D01*
X98460900Y-76416625D01*
X98460900Y-76561575D01*
X98498416Y-76701585D01*
X98498417Y-76701588D01*
X98570888Y-76827111D01*
X98570890Y-76827113D01*
X98570891Y-76827115D01*
X98673385Y-76929609D01*
X98673386Y-76929610D01*
X98673388Y-76929611D01*
X98798911Y-77002082D01*
X98798912Y-77002082D01*
X98798915Y-77002084D01*
X98938925Y-77039600D01*
X98938928Y-77039600D01*
X99083872Y-77039600D01*
X99083875Y-77039600D01*
X99223885Y-77002084D01*
X99349415Y-76929609D01*
X99389792Y-76889231D01*
X99451113Y-76855747D01*
X99520804Y-76860731D01*
X99576738Y-76902601D01*
X99600411Y-76960726D01*
X99603205Y-76981953D01*
X99637282Y-77109126D01*
X99662800Y-77170734D01*
X99662808Y-77170750D01*
X99728626Y-77284749D01*
X99728637Y-77284765D01*
X99769233Y-77337671D01*
X99769239Y-77337678D01*
X99862321Y-77430760D01*
X99862327Y-77430765D01*
X99915243Y-77471369D01*
X99937499Y-77484218D01*
X99985715Y-77534784D01*
X99999500Y-77591606D01*
X99999500Y-78344443D01*
X100023386Y-78433587D01*
X100023387Y-78433590D01*
X100069527Y-78513508D01*
X100069531Y-78513513D01*
X100343837Y-78787819D01*
X100377322Y-78849142D01*
X100372338Y-78918834D01*
X100330466Y-78974767D01*
X100265002Y-78999184D01*
X100256156Y-78999500D01*
X100225323Y-78999500D01*
X100152264Y-79014032D01*
X100152260Y-79014033D01*
X100069399Y-79069399D01*
X100014033Y-79152260D01*
X100014032Y-79152264D01*
X99999500Y-79225321D01*
X99999500Y-80774678D01*
X100014032Y-80847735D01*
X100014033Y-80847739D01*
X100014034Y-80847740D01*
X100069399Y-80930601D01*
X100152260Y-80985966D01*
X100152264Y-80985967D01*
X100225321Y-81000499D01*
X100225324Y-81000500D01*
X100225326Y-81000500D01*
X101774676Y-81000500D01*
X101774677Y-81000499D01*
X101847740Y-80985966D01*
X101930601Y-80930601D01*
X101985966Y-80847740D01*
X102000500Y-80774674D01*
X102000500Y-79225326D01*
X102000500Y-79225323D01*
X102000499Y-79225321D01*
X101985967Y-79152264D01*
X101985966Y-79152260D01*
X101930601Y-79069399D01*
X101847740Y-79014034D01*
X101847739Y-79014033D01*
X101847735Y-79014032D01*
X101774677Y-78999500D01*
X101774674Y-78999500D01*
X101471731Y-78999500D01*
X101404692Y-78979815D01*
X101358937Y-78927011D01*
X101351956Y-78907593D01*
X101350500Y-78902159D01*
X101350500Y-78902156D01*
X101326614Y-78813012D01*
X101280470Y-78733088D01*
X100736819Y-78189437D01*
X100703334Y-78128114D01*
X100700500Y-78101756D01*
X100700500Y-77729500D01*
X100720185Y-77662461D01*
X100772989Y-77616706D01*
X100824500Y-77605500D01*
X100850002Y-77605500D01*
X100850003Y-77605499D01*
X100947776Y-77586051D01*
X101030666Y-77530666D01*
X101086051Y-77447776D01*
X101105500Y-77350000D01*
X101105500Y-76022800D01*
X101125185Y-75955761D01*
X101177989Y-75910006D01*
X101229500Y-75898800D01*
X104531263Y-75898800D01*
X104557371Y-75906466D01*
X104584259Y-75910695D01*
X104590407Y-75916167D01*
X104598302Y-75918485D01*
X104616121Y-75939050D01*
X104636454Y-75957144D01*
X104638668Y-75965069D01*
X104644057Y-75971289D01*
X104647930Y-75998226D01*
X104655252Y-76024437D01*
X104653160Y-76034601D01*
X104654001Y-76040447D01*
X104649769Y-76059302D01*
X104648055Y-76064866D01*
X104637281Y-76090877D01*
X104618809Y-76159812D01*
X104618135Y-76162002D01*
X104600081Y-76189294D01*
X104583038Y-76217255D01*
X104580898Y-76218294D01*
X104579587Y-76220277D01*
X104549636Y-76233479D01*
X104520191Y-76247783D01*
X104516488Y-76248092D01*
X104515654Y-76248460D01*
X104514415Y-76248265D01*
X104499629Y-76249500D01*
X103846456Y-76249500D01*
X103757312Y-76273386D01*
X103757309Y-76273387D01*
X103677391Y-76319527D01*
X103677386Y-76319531D01*
X103238337Y-76758581D01*
X103177014Y-76792066D01*
X103150656Y-76794900D01*
X103074725Y-76794900D01*
X102954491Y-76827117D01*
X102934711Y-76832417D01*
X102809188Y-76904888D01*
X102809182Y-76904893D01*
X102706693Y-77007382D01*
X102706688Y-77007388D01*
X102634217Y-77132911D01*
X102634216Y-77132915D01*
X102596700Y-77272925D01*
X102596700Y-77417875D01*
X102626923Y-77530666D01*
X102634217Y-77557888D01*
X102706688Y-77683411D01*
X102706690Y-77683413D01*
X102706691Y-77683415D01*
X102809185Y-77785909D01*
X102809186Y-77785910D01*
X102809188Y-77785911D01*
X102934711Y-77858382D01*
X102934712Y-77858382D01*
X102934715Y-77858384D01*
X103074725Y-77895900D01*
X103074728Y-77895900D01*
X103219672Y-77895900D01*
X103219675Y-77895900D01*
X103359685Y-77858384D01*
X103485215Y-77785909D01*
X103587709Y-77683415D01*
X103660184Y-77557885D01*
X103697700Y-77417875D01*
X103697700Y-77341944D01*
X103717385Y-77274905D01*
X103734019Y-77254263D01*
X104001463Y-76986819D01*
X104062786Y-76953334D01*
X104089144Y-76950500D01*
X104499629Y-76950500D01*
X104566668Y-76970185D01*
X104612423Y-77022989D01*
X104619402Y-77042400D01*
X104627262Y-77071731D01*
X104637282Y-77109128D01*
X104662800Y-77170734D01*
X104662808Y-77170750D01*
X104728626Y-77284749D01*
X104728637Y-77284765D01*
X104769233Y-77337671D01*
X104769239Y-77337678D01*
X104862321Y-77430760D01*
X104862327Y-77430765D01*
X104915243Y-77471369D01*
X104937499Y-77484218D01*
X104985715Y-77534784D01*
X104999500Y-77591606D01*
X104999500Y-78344443D01*
X105023386Y-78433587D01*
X105023387Y-78433590D01*
X105069527Y-78513508D01*
X105069531Y-78513513D01*
X105343837Y-78787819D01*
X105377322Y-78849142D01*
X105372338Y-78918834D01*
X105330466Y-78974767D01*
X105265002Y-78999184D01*
X105256156Y-78999500D01*
X105225323Y-78999500D01*
X105152264Y-79014032D01*
X105152260Y-79014033D01*
X105069399Y-79069399D01*
X105014033Y-79152260D01*
X105014032Y-79152264D01*
X104999500Y-79225321D01*
X104999500Y-80774678D01*
X105014032Y-80847735D01*
X105014033Y-80847739D01*
X105014034Y-80847740D01*
X105069399Y-80930601D01*
X105152260Y-80985966D01*
X105152264Y-80985967D01*
X105225321Y-81000499D01*
X105225324Y-81000500D01*
X105225326Y-81000500D01*
X106774676Y-81000500D01*
X106774677Y-81000499D01*
X106847740Y-80985966D01*
X106930601Y-80930601D01*
X106985966Y-80847740D01*
X107000500Y-80774674D01*
X107000500Y-79225326D01*
X107000500Y-79225323D01*
X107000499Y-79225321D01*
X106985967Y-79152264D01*
X106985966Y-79152260D01*
X106930601Y-79069399D01*
X106847740Y-79014034D01*
X106847739Y-79014033D01*
X106847735Y-79014032D01*
X106774677Y-78999500D01*
X106774674Y-78999500D01*
X106471731Y-78999500D01*
X106404692Y-78979815D01*
X106358937Y-78927011D01*
X106351956Y-78907593D01*
X106350500Y-78902159D01*
X106350500Y-78902156D01*
X106326614Y-78813012D01*
X106280470Y-78733088D01*
X105736819Y-78189437D01*
X105703334Y-78128114D01*
X105700500Y-78101756D01*
X105700500Y-77729500D01*
X105720185Y-77662461D01*
X105772989Y-77616706D01*
X105824500Y-77605500D01*
X105850002Y-77605500D01*
X105850003Y-77605499D01*
X105947776Y-77586051D01*
X106030666Y-77530666D01*
X106086051Y-77447776D01*
X106105500Y-77350000D01*
X106105500Y-76022800D01*
X106125185Y-75955761D01*
X106177989Y-75910006D01*
X106229500Y-75898800D01*
X108700056Y-75898800D01*
X108767095Y-75918485D01*
X108787737Y-75935119D01*
X109667831Y-76815212D01*
X109733088Y-76880469D01*
X109733091Y-76880470D01*
X109733094Y-76880473D01*
X109813006Y-76926611D01*
X109813008Y-76926612D01*
X109813009Y-76926612D01*
X109813012Y-76926614D01*
X109902156Y-76950500D01*
X109902159Y-76950500D01*
X109907593Y-76951956D01*
X109967254Y-76988321D01*
X109997783Y-77051167D01*
X109999500Y-77071731D01*
X109999500Y-77374678D01*
X110014032Y-77447735D01*
X110014033Y-77447739D01*
X110014058Y-77447776D01*
X110069399Y-77530601D01*
X110138249Y-77576604D01*
X110152260Y-77585966D01*
X110152264Y-77585967D01*
X110225321Y-77600499D01*
X110225324Y-77600500D01*
X110225326Y-77600500D01*
X111774676Y-77600500D01*
X111774677Y-77600499D01*
X111847740Y-77585966D01*
X111930601Y-77530601D01*
X111985966Y-77447740D01*
X112000500Y-77374674D01*
X112000500Y-75825326D01*
X112000500Y-75825323D01*
X112000499Y-75825321D01*
X111985967Y-75752264D01*
X111985966Y-75752260D01*
X111930601Y-75669399D01*
X111847740Y-75614034D01*
X111847739Y-75614033D01*
X111847735Y-75614032D01*
X111774677Y-75599500D01*
X111774674Y-75599500D01*
X110225326Y-75599500D01*
X110225323Y-75599500D01*
X110152264Y-75614032D01*
X110152260Y-75614033D01*
X110069399Y-75669399D01*
X110014033Y-75752260D01*
X110014032Y-75752264D01*
X109999500Y-75825321D01*
X109999500Y-75856156D01*
X109979815Y-75923195D01*
X109927011Y-75968950D01*
X109857853Y-75978894D01*
X109794297Y-75949869D01*
X109787819Y-75943837D01*
X109111813Y-75267831D01*
X109111808Y-75267827D01*
X109031890Y-75221687D01*
X109031889Y-75221686D01*
X109031888Y-75221686D01*
X108942744Y-75197800D01*
X108942743Y-75197800D01*
X81764844Y-75197800D01*
X81697805Y-75178115D01*
X81677163Y-75161481D01*
X78268652Y-71752970D01*
X78235167Y-71691647D01*
X78238402Y-71626971D01*
X78239873Y-71622445D01*
X78293402Y-71457701D01*
X78320500Y-71286611D01*
X78320500Y-71113389D01*
X78659500Y-71113389D01*
X78659500Y-71286611D01*
X78686598Y-71457701D01*
X78740127Y-71622445D01*
X78818768Y-71776788D01*
X78920586Y-71916928D01*
X79043072Y-72039414D01*
X79183212Y-72141232D01*
X79337555Y-72219873D01*
X79502299Y-72273402D01*
X79673389Y-72300500D01*
X79673390Y-72300500D01*
X79846610Y-72300500D01*
X79846611Y-72300500D01*
X80017701Y-72273402D01*
X80182445Y-72219873D01*
X80336788Y-72141232D01*
X80476928Y-72039414D01*
X80599414Y-71916928D01*
X80701232Y-71776788D01*
X80779873Y-71622445D01*
X80833402Y-71457701D01*
X80860500Y-71286611D01*
X80860500Y-71113389D01*
X80833402Y-70942299D01*
X80779873Y-70777555D01*
X80701232Y-70623212D01*
X80599414Y-70483072D01*
X80476928Y-70360586D01*
X80336788Y-70258768D01*
X80269754Y-70224613D01*
X80182447Y-70180128D01*
X80182446Y-70180127D01*
X80182445Y-70180127D01*
X80017701Y-70126598D01*
X80017699Y-70126597D01*
X80017698Y-70126597D01*
X79859819Y-70101592D01*
X79846611Y-70099500D01*
X79673389Y-70099500D01*
X79660181Y-70101592D01*
X79502302Y-70126597D01*
X79337552Y-70180128D01*
X79183211Y-70258768D01*
X79122047Y-70303207D01*
X79043072Y-70360586D01*
X79043070Y-70360588D01*
X79043069Y-70360588D01*
X78920588Y-70483069D01*
X78920588Y-70483070D01*
X78920586Y-70483072D01*
X78888390Y-70527386D01*
X78818768Y-70623211D01*
X78740128Y-70777552D01*
X78686597Y-70942302D01*
X78686597Y-70942304D01*
X78659500Y-71113389D01*
X78320500Y-71113389D01*
X78293402Y-70942299D01*
X78239873Y-70777555D01*
X78161232Y-70623212D01*
X78059414Y-70483072D01*
X77936928Y-70360586D01*
X77919181Y-70347692D01*
X77876516Y-70292362D01*
X77870538Y-70222748D01*
X77903145Y-70160953D01*
X77904317Y-70159763D01*
X78770469Y-69293612D01*
X78816614Y-69213688D01*
X78816980Y-69212320D01*
X78817364Y-69210893D01*
X78830030Y-69163618D01*
X78840500Y-69124544D01*
X78840500Y-68466944D01*
X78860185Y-68399905D01*
X78876819Y-68379263D01*
X79235289Y-68020793D01*
X79599296Y-67656785D01*
X79660617Y-67623302D01*
X79730308Y-67628286D01*
X79748973Y-67637080D01*
X79755215Y-67640684D01*
X79895225Y-67678200D01*
X79895228Y-67678200D01*
X80040172Y-67678200D01*
X80040175Y-67678200D01*
X80180185Y-67640684D01*
X80305715Y-67568209D01*
X80408209Y-67465715D01*
X80480684Y-67340185D01*
X80518200Y-67200175D01*
X80518200Y-67055225D01*
X80512136Y-67032594D01*
X80513798Y-66962745D01*
X80552959Y-66904882D01*
X80617187Y-66877377D01*
X80631910Y-66876500D01*
X81597856Y-66876500D01*
X81664895Y-66896185D01*
X81710650Y-66948989D01*
X81720594Y-67018147D01*
X81691569Y-67081703D01*
X81685537Y-67088181D01*
X80828931Y-67944786D01*
X80828929Y-67944788D01*
X80802868Y-67989930D01*
X80802866Y-67989933D01*
X80782786Y-68024709D01*
X80767111Y-68083211D01*
X80758900Y-68113856D01*
X80758900Y-70055544D01*
X80764480Y-70076367D01*
X80777939Y-70126599D01*
X80777939Y-70126600D01*
X80782784Y-70144684D01*
X80782785Y-70144686D01*
X80828927Y-70224608D01*
X80828931Y-70224613D01*
X81251347Y-70647029D01*
X81284832Y-70708352D01*
X81281597Y-70773028D01*
X81226597Y-70942301D01*
X81226597Y-70942304D01*
X81199500Y-71113389D01*
X81199500Y-71286611D01*
X81226598Y-71457701D01*
X81280127Y-71622445D01*
X81358768Y-71776788D01*
X81460586Y-71916928D01*
X81583072Y-72039414D01*
X81723212Y-72141232D01*
X81877555Y-72219873D01*
X82042299Y-72273402D01*
X82213389Y-72300500D01*
X82213390Y-72300500D01*
X82386610Y-72300500D01*
X82386611Y-72300500D01*
X82557701Y-72273402D01*
X82722445Y-72219873D01*
X82876788Y-72141232D01*
X83016928Y-72039414D01*
X83139414Y-71916928D01*
X83241232Y-71776788D01*
X83319873Y-71622445D01*
X83373402Y-71457701D01*
X83400500Y-71286611D01*
X83400500Y-71113389D01*
X83373402Y-70942299D01*
X83319873Y-70777555D01*
X83241232Y-70623212D01*
X83139414Y-70483072D01*
X83016928Y-70360586D01*
X82876788Y-70258768D01*
X82809754Y-70224613D01*
X82722447Y-70180128D01*
X82722446Y-70180127D01*
X82722445Y-70180127D01*
X82557701Y-70126598D01*
X82557699Y-70126597D01*
X82557698Y-70126597D01*
X82399819Y-70101592D01*
X82386611Y-70099500D01*
X82213389Y-70099500D01*
X82200181Y-70101592D01*
X82042301Y-70126597D01*
X81873028Y-70181597D01*
X81803186Y-70183592D01*
X81747029Y-70151347D01*
X81496219Y-69900537D01*
X81481515Y-69873609D01*
X81464923Y-69847791D01*
X81464031Y-69841590D01*
X81462734Y-69839214D01*
X81459900Y-69812856D01*
X81459900Y-69653288D01*
X81479585Y-69586249D01*
X81532389Y-69540494D01*
X81601547Y-69530550D01*
X81656784Y-69552969D01*
X81723212Y-69601232D01*
X81877555Y-69679873D01*
X82042299Y-69733402D01*
X82213389Y-69760500D01*
X82213390Y-69760500D01*
X82386610Y-69760500D01*
X82386611Y-69760500D01*
X82557701Y-69733402D01*
X82722445Y-69679873D01*
X82876788Y-69601232D01*
X83016928Y-69499414D01*
X83139414Y-69376928D01*
X83241232Y-69236788D01*
X83319873Y-69082445D01*
X83373402Y-68917701D01*
X83400500Y-68746611D01*
X83400500Y-68573389D01*
X83390966Y-68513198D01*
X83391667Y-68507775D01*
X83389755Y-68502649D01*
X83396096Y-68473496D01*
X83399920Y-68443909D01*
X83403752Y-68438304D01*
X83404607Y-68434376D01*
X83425755Y-68406125D01*
X83563590Y-68268290D01*
X83624911Y-68234807D01*
X83694603Y-68239791D01*
X83750536Y-68281663D01*
X83774953Y-68347127D01*
X83769201Y-68394288D01*
X83766597Y-68402300D01*
X83766597Y-68402301D01*
X83747244Y-68524493D01*
X83739500Y-68573389D01*
X83739500Y-68746611D01*
X83740435Y-68752515D01*
X83762610Y-68892525D01*
X83766598Y-68917701D01*
X83820127Y-69082445D01*
X83898768Y-69236788D01*
X84000586Y-69376928D01*
X84123072Y-69499414D01*
X84263212Y-69601232D01*
X84417555Y-69679873D01*
X84582299Y-69733402D01*
X84753389Y-69760500D01*
X84753390Y-69760500D01*
X84926610Y-69760500D01*
X84926611Y-69760500D01*
X85097701Y-69733402D01*
X85262445Y-69679873D01*
X85416788Y-69601232D01*
X85444313Y-69581233D01*
X85456173Y-69577001D01*
X85465689Y-69568756D01*
X85488453Y-69565482D01*
X85510118Y-69557752D01*
X85522383Y-69560604D01*
X85534847Y-69558812D01*
X85555769Y-69568366D01*
X85578172Y-69573576D01*
X85586947Y-69582605D01*
X85598403Y-69587837D01*
X85610839Y-69607188D01*
X85626868Y-69623681D01*
X85630272Y-69637427D01*
X85636177Y-69646615D01*
X85641200Y-69681550D01*
X85641200Y-69851755D01*
X85621515Y-69918794D01*
X85604881Y-69939436D01*
X85392969Y-70151347D01*
X85331646Y-70184832D01*
X85266970Y-70181597D01*
X85097698Y-70126597D01*
X84939819Y-70101592D01*
X84926611Y-70099500D01*
X84753389Y-70099500D01*
X84740181Y-70101592D01*
X84582302Y-70126597D01*
X84417552Y-70180128D01*
X84263211Y-70258768D01*
X84202047Y-70303207D01*
X84123072Y-70360586D01*
X84123070Y-70360588D01*
X84123069Y-70360588D01*
X84000588Y-70483069D01*
X84000588Y-70483070D01*
X84000586Y-70483072D01*
X83968390Y-70527386D01*
X83898768Y-70623211D01*
X83820128Y-70777552D01*
X83766597Y-70942302D01*
X83766597Y-70942304D01*
X83739500Y-71113389D01*
X83739500Y-71286611D01*
X83766598Y-71457701D01*
X83820127Y-71622445D01*
X83898768Y-71776788D01*
X84000586Y-71916928D01*
X84123072Y-72039414D01*
X84263212Y-72141232D01*
X84417555Y-72219873D01*
X84582299Y-72273402D01*
X84753389Y-72300500D01*
X84753390Y-72300500D01*
X84926610Y-72300500D01*
X84926611Y-72300500D01*
X85097701Y-72273402D01*
X85262445Y-72219873D01*
X85416788Y-72141232D01*
X85556928Y-72039414D01*
X85679414Y-71916928D01*
X85781232Y-71776788D01*
X85859873Y-71622445D01*
X85913402Y-71457701D01*
X85940500Y-71286611D01*
X85940500Y-71113389D01*
X88819500Y-71113389D01*
X88819500Y-71286611D01*
X88846598Y-71457701D01*
X88900127Y-71622445D01*
X88978768Y-71776788D01*
X89080586Y-71916928D01*
X89203072Y-72039414D01*
X89343212Y-72141232D01*
X89497555Y-72219873D01*
X89662299Y-72273402D01*
X89833389Y-72300500D01*
X89833390Y-72300500D01*
X90006610Y-72300500D01*
X90006611Y-72300500D01*
X90177701Y-72273402D01*
X90342445Y-72219873D01*
X90496788Y-72141232D01*
X90636928Y-72039414D01*
X90759414Y-71916928D01*
X90861232Y-71776788D01*
X90939873Y-71622445D01*
X90993402Y-71457701D01*
X91020500Y-71286611D01*
X91020500Y-71113389D01*
X91359500Y-71113389D01*
X91359500Y-71286611D01*
X91386598Y-71457701D01*
X91440127Y-71622445D01*
X91518768Y-71776788D01*
X91620586Y-71916928D01*
X91743072Y-72039414D01*
X91883212Y-72141232D01*
X92037555Y-72219873D01*
X92202299Y-72273402D01*
X92373389Y-72300500D01*
X92373390Y-72300500D01*
X92546610Y-72300500D01*
X92546611Y-72300500D01*
X92717701Y-72273402D01*
X92882445Y-72219873D01*
X93036788Y-72141232D01*
X93176928Y-72039414D01*
X93299414Y-71916928D01*
X93401232Y-71776788D01*
X93479873Y-71622445D01*
X93533402Y-71457701D01*
X93560500Y-71286611D01*
X93560500Y-71113389D01*
X93899500Y-71113389D01*
X93899500Y-71286611D01*
X93926598Y-71457701D01*
X93980127Y-71622445D01*
X94058768Y-71776788D01*
X94160586Y-71916928D01*
X94283072Y-72039414D01*
X94423212Y-72141232D01*
X94577555Y-72219873D01*
X94742299Y-72273402D01*
X94913389Y-72300500D01*
X94913390Y-72300500D01*
X95086610Y-72300500D01*
X95086611Y-72300500D01*
X95257701Y-72273402D01*
X95422445Y-72219873D01*
X95576788Y-72141232D01*
X95716928Y-72039414D01*
X95839414Y-71916928D01*
X95941232Y-71776788D01*
X96019873Y-71622445D01*
X96073402Y-71457701D01*
X96100500Y-71286611D01*
X96100500Y-71113389D01*
X96439500Y-71113389D01*
X96439500Y-71286611D01*
X96466598Y-71457701D01*
X96520127Y-71622445D01*
X96598768Y-71776788D01*
X96700586Y-71916928D01*
X96823072Y-72039414D01*
X96963212Y-72141232D01*
X97117555Y-72219873D01*
X97282299Y-72273402D01*
X97453389Y-72300500D01*
X97453390Y-72300500D01*
X97626610Y-72300500D01*
X97626611Y-72300500D01*
X97797701Y-72273402D01*
X97962445Y-72219873D01*
X98116788Y-72141232D01*
X98256928Y-72039414D01*
X98379414Y-71916928D01*
X98481232Y-71776788D01*
X98559873Y-71622445D01*
X98613402Y-71457701D01*
X98640500Y-71286611D01*
X98640500Y-71113389D01*
X98979500Y-71113389D01*
X98979500Y-71286611D01*
X99006598Y-71457701D01*
X99060127Y-71622445D01*
X99138768Y-71776788D01*
X99240586Y-71916928D01*
X99363072Y-72039414D01*
X99503212Y-72141232D01*
X99657555Y-72219873D01*
X99822299Y-72273402D01*
X99993389Y-72300500D01*
X99993390Y-72300500D01*
X100166610Y-72300500D01*
X100166611Y-72300500D01*
X100337701Y-72273402D01*
X100502445Y-72219873D01*
X100656788Y-72141232D01*
X100796928Y-72039414D01*
X100919414Y-71916928D01*
X101021232Y-71776788D01*
X101099873Y-71622445D01*
X101153402Y-71457701D01*
X101180500Y-71286611D01*
X101180500Y-71113389D01*
X101519500Y-71113389D01*
X101519500Y-71286611D01*
X101546598Y-71457701D01*
X101600127Y-71622445D01*
X101678768Y-71776788D01*
X101780586Y-71916928D01*
X101903072Y-72039414D01*
X102043212Y-72141232D01*
X102197555Y-72219873D01*
X102362299Y-72273402D01*
X102533389Y-72300500D01*
X102533390Y-72300500D01*
X102706610Y-72300500D01*
X102706611Y-72300500D01*
X102877701Y-72273402D01*
X103042445Y-72219873D01*
X103196788Y-72141232D01*
X103336928Y-72039414D01*
X103459414Y-71916928D01*
X103561232Y-71776788D01*
X103639873Y-71622445D01*
X103693402Y-71457701D01*
X103720500Y-71286611D01*
X103720500Y-71113389D01*
X103693402Y-70942299D01*
X103639873Y-70777555D01*
X103561232Y-70623212D01*
X103459414Y-70483072D01*
X103336928Y-70360586D01*
X103196788Y-70258768D01*
X103129754Y-70224613D01*
X103042447Y-70180128D01*
X103042446Y-70180127D01*
X103042445Y-70180127D01*
X102877701Y-70126598D01*
X102877699Y-70126597D01*
X102877698Y-70126597D01*
X102719819Y-70101592D01*
X102706611Y-70099500D01*
X102533389Y-70099500D01*
X102520181Y-70101592D01*
X102362302Y-70126597D01*
X102197552Y-70180128D01*
X102043211Y-70258768D01*
X101982047Y-70303207D01*
X101903072Y-70360586D01*
X101903070Y-70360588D01*
X101903069Y-70360588D01*
X101780588Y-70483069D01*
X101780588Y-70483070D01*
X101780586Y-70483072D01*
X101748390Y-70527386D01*
X101678768Y-70623211D01*
X101600128Y-70777552D01*
X101546597Y-70942302D01*
X101546597Y-70942304D01*
X101519500Y-71113389D01*
X101180500Y-71113389D01*
X101153402Y-70942299D01*
X101099873Y-70777555D01*
X101021232Y-70623212D01*
X100919414Y-70483072D01*
X100796928Y-70360586D01*
X100656788Y-70258768D01*
X100589754Y-70224613D01*
X100502447Y-70180128D01*
X100502446Y-70180127D01*
X100502445Y-70180127D01*
X100337701Y-70126598D01*
X100337699Y-70126597D01*
X100337698Y-70126597D01*
X100179819Y-70101592D01*
X100166611Y-70099500D01*
X99993389Y-70099500D01*
X99980181Y-70101592D01*
X99822302Y-70126597D01*
X99657552Y-70180128D01*
X99503211Y-70258768D01*
X99442047Y-70303207D01*
X99363072Y-70360586D01*
X99363070Y-70360588D01*
X99363069Y-70360588D01*
X99240588Y-70483069D01*
X99240588Y-70483070D01*
X99240586Y-70483072D01*
X99208390Y-70527386D01*
X99138768Y-70623211D01*
X99060128Y-70777552D01*
X99006597Y-70942302D01*
X99006597Y-70942304D01*
X98979500Y-71113389D01*
X98640500Y-71113389D01*
X98613402Y-70942299D01*
X98559873Y-70777555D01*
X98481232Y-70623212D01*
X98379414Y-70483072D01*
X98256928Y-70360586D01*
X98116788Y-70258768D01*
X98049754Y-70224613D01*
X97962447Y-70180128D01*
X97962446Y-70180127D01*
X97962445Y-70180127D01*
X97797701Y-70126598D01*
X97797699Y-70126597D01*
X97797698Y-70126597D01*
X97639819Y-70101592D01*
X97626611Y-70099500D01*
X97453389Y-70099500D01*
X97440181Y-70101592D01*
X97282302Y-70126597D01*
X97117552Y-70180128D01*
X96963211Y-70258768D01*
X96902047Y-70303207D01*
X96823072Y-70360586D01*
X96823070Y-70360588D01*
X96823069Y-70360588D01*
X96700588Y-70483069D01*
X96700588Y-70483070D01*
X96700586Y-70483072D01*
X96668390Y-70527386D01*
X96598768Y-70623211D01*
X96520128Y-70777552D01*
X96466597Y-70942302D01*
X96466597Y-70942304D01*
X96439500Y-71113389D01*
X96100500Y-71113389D01*
X96073402Y-70942299D01*
X96019873Y-70777555D01*
X95941232Y-70623212D01*
X95839414Y-70483072D01*
X95716928Y-70360586D01*
X95576788Y-70258768D01*
X95509754Y-70224613D01*
X95422447Y-70180128D01*
X95422446Y-70180127D01*
X95422445Y-70180127D01*
X95257701Y-70126598D01*
X95257699Y-70126597D01*
X95257698Y-70126597D01*
X95099819Y-70101592D01*
X95086611Y-70099500D01*
X94913389Y-70099500D01*
X94900181Y-70101592D01*
X94742302Y-70126597D01*
X94577552Y-70180128D01*
X94423211Y-70258768D01*
X94362047Y-70303207D01*
X94283072Y-70360586D01*
X94283070Y-70360588D01*
X94283069Y-70360588D01*
X94160588Y-70483069D01*
X94160588Y-70483070D01*
X94160586Y-70483072D01*
X94128390Y-70527386D01*
X94058768Y-70623211D01*
X93980128Y-70777552D01*
X93926597Y-70942302D01*
X93926597Y-70942304D01*
X93899500Y-71113389D01*
X93560500Y-71113389D01*
X93533402Y-70942299D01*
X93479873Y-70777555D01*
X93401232Y-70623212D01*
X93299414Y-70483072D01*
X93176928Y-70360586D01*
X93036788Y-70258768D01*
X92969754Y-70224613D01*
X92882447Y-70180128D01*
X92882446Y-70180127D01*
X92882445Y-70180127D01*
X92717701Y-70126598D01*
X92717699Y-70126597D01*
X92717698Y-70126597D01*
X92559819Y-70101592D01*
X92546611Y-70099500D01*
X92373389Y-70099500D01*
X92360181Y-70101592D01*
X92202302Y-70126597D01*
X92037552Y-70180128D01*
X91883211Y-70258768D01*
X91822047Y-70303207D01*
X91743072Y-70360586D01*
X91743070Y-70360588D01*
X91743069Y-70360588D01*
X91620588Y-70483069D01*
X91620588Y-70483070D01*
X91620586Y-70483072D01*
X91588390Y-70527386D01*
X91518768Y-70623211D01*
X91440128Y-70777552D01*
X91386597Y-70942302D01*
X91386597Y-70942304D01*
X91359500Y-71113389D01*
X91020500Y-71113389D01*
X90993402Y-70942299D01*
X90939873Y-70777555D01*
X90861232Y-70623212D01*
X90759414Y-70483072D01*
X90636928Y-70360586D01*
X90496788Y-70258768D01*
X90429754Y-70224613D01*
X90342447Y-70180128D01*
X90342446Y-70180127D01*
X90342445Y-70180127D01*
X90177701Y-70126598D01*
X90177699Y-70126597D01*
X90177698Y-70126597D01*
X90019819Y-70101592D01*
X90006611Y-70099500D01*
X89833389Y-70099500D01*
X89820181Y-70101592D01*
X89662302Y-70126597D01*
X89497552Y-70180128D01*
X89343211Y-70258768D01*
X89282047Y-70303207D01*
X89203072Y-70360586D01*
X89203070Y-70360588D01*
X89203069Y-70360588D01*
X89080588Y-70483069D01*
X89080588Y-70483070D01*
X89080586Y-70483072D01*
X89048390Y-70527386D01*
X88978768Y-70623211D01*
X88900128Y-70777552D01*
X88846597Y-70942302D01*
X88846597Y-70942304D01*
X88819500Y-71113389D01*
X85940500Y-71113389D01*
X85913402Y-70942299D01*
X85859873Y-70777555D01*
X85859869Y-70777547D01*
X85858401Y-70773029D01*
X85856406Y-70703188D01*
X85888649Y-70647031D01*
X86272170Y-70263512D01*
X86318314Y-70183588D01*
X86320247Y-70176375D01*
X86342200Y-70094444D01*
X86342200Y-69477904D01*
X86361885Y-69410865D01*
X86414689Y-69365110D01*
X86483847Y-69355166D01*
X86547403Y-69384191D01*
X86553881Y-69390223D01*
X86663072Y-69499414D01*
X86803212Y-69601232D01*
X86957555Y-69679873D01*
X87122299Y-69733402D01*
X87293389Y-69760500D01*
X87293390Y-69760500D01*
X87466610Y-69760500D01*
X87466611Y-69760500D01*
X87637701Y-69733402D01*
X87802445Y-69679873D01*
X87956788Y-69601232D01*
X88096928Y-69499414D01*
X88219414Y-69376928D01*
X88321232Y-69236788D01*
X88399873Y-69082445D01*
X88453402Y-68917701D01*
X88480500Y-68746611D01*
X88480500Y-68573389D01*
X88819500Y-68573389D01*
X88819500Y-68746611D01*
X88820435Y-68752515D01*
X88842610Y-68892525D01*
X88846598Y-68917701D01*
X88900127Y-69082445D01*
X88978768Y-69236788D01*
X89080586Y-69376928D01*
X89203072Y-69499414D01*
X89343212Y-69601232D01*
X89497555Y-69679873D01*
X89662299Y-69733402D01*
X89833389Y-69760500D01*
X89833390Y-69760500D01*
X90006610Y-69760500D01*
X90006611Y-69760500D01*
X90177701Y-69733402D01*
X90342445Y-69679873D01*
X90496788Y-69601232D01*
X90636928Y-69499414D01*
X90759414Y-69376928D01*
X90861232Y-69236788D01*
X90939873Y-69082445D01*
X90993402Y-68917701D01*
X91020500Y-68746611D01*
X91020500Y-68573389D01*
X93899500Y-68573389D01*
X93899500Y-68746611D01*
X93900435Y-68752515D01*
X93922610Y-68892525D01*
X93926598Y-68917701D01*
X93980127Y-69082445D01*
X94058768Y-69236788D01*
X94160586Y-69376928D01*
X94283072Y-69499414D01*
X94423212Y-69601232D01*
X94577555Y-69679873D01*
X94742299Y-69733402D01*
X94913389Y-69760500D01*
X94913390Y-69760500D01*
X95086610Y-69760500D01*
X95086611Y-69760500D01*
X95257701Y-69733402D01*
X95422445Y-69679873D01*
X95576788Y-69601232D01*
X95716928Y-69499414D01*
X95839414Y-69376928D01*
X95941232Y-69236788D01*
X96019873Y-69082445D01*
X96073402Y-68917701D01*
X96100500Y-68746611D01*
X96100500Y-68573389D01*
X98979500Y-68573389D01*
X98979500Y-68746611D01*
X98980435Y-68752515D01*
X99002610Y-68892525D01*
X99006598Y-68917701D01*
X99060127Y-69082445D01*
X99138768Y-69236788D01*
X99240586Y-69376928D01*
X99363072Y-69499414D01*
X99503212Y-69601232D01*
X99657555Y-69679873D01*
X99822299Y-69733402D01*
X99993389Y-69760500D01*
X99993390Y-69760500D01*
X100166610Y-69760500D01*
X100166611Y-69760500D01*
X100337701Y-69733402D01*
X100502445Y-69679873D01*
X100656788Y-69601232D01*
X100796928Y-69499414D01*
X100919414Y-69376928D01*
X101021232Y-69236788D01*
X101099873Y-69082445D01*
X101153402Y-68917701D01*
X101180500Y-68746611D01*
X101180500Y-68573389D01*
X101519500Y-68573389D01*
X101519500Y-68746611D01*
X101520435Y-68752515D01*
X101542610Y-68892525D01*
X101546598Y-68917701D01*
X101600127Y-69082445D01*
X101678768Y-69236788D01*
X101780586Y-69376928D01*
X101903072Y-69499414D01*
X102043212Y-69601232D01*
X102197555Y-69679873D01*
X102362299Y-69733402D01*
X102533389Y-69760500D01*
X102533390Y-69760500D01*
X102706610Y-69760500D01*
X102706611Y-69760500D01*
X102877701Y-69733402D01*
X103042445Y-69679873D01*
X103196788Y-69601232D01*
X103336928Y-69499414D01*
X103459414Y-69376928D01*
X103561232Y-69236788D01*
X103639873Y-69082445D01*
X103693402Y-68917701D01*
X103720500Y-68746611D01*
X103720500Y-68573389D01*
X104059500Y-68573389D01*
X104059500Y-68746611D01*
X104060435Y-68752515D01*
X104082610Y-68892525D01*
X104086598Y-68917701D01*
X104140127Y-69082445D01*
X104218768Y-69236788D01*
X104320586Y-69376928D01*
X104443072Y-69499414D01*
X104583212Y-69601232D01*
X104737555Y-69679873D01*
X104902299Y-69733402D01*
X105073389Y-69760500D01*
X105073390Y-69760500D01*
X105246610Y-69760500D01*
X105246611Y-69760500D01*
X105417701Y-69733402D01*
X105582445Y-69679873D01*
X105736788Y-69601232D01*
X105876928Y-69499414D01*
X105999414Y-69376928D01*
X106101232Y-69236788D01*
X106179873Y-69082445D01*
X106233402Y-68917701D01*
X106260500Y-68746611D01*
X106260500Y-68573389D01*
X106233402Y-68402299D01*
X106179873Y-68237555D01*
X106101232Y-68083212D01*
X105999414Y-67943072D01*
X105876928Y-67820586D01*
X105736788Y-67718768D01*
X105582445Y-67640127D01*
X105417701Y-67586598D01*
X105417699Y-67586597D01*
X105417698Y-67586597D01*
X105286271Y-67565781D01*
X105246611Y-67559500D01*
X105073389Y-67559500D01*
X105033728Y-67565781D01*
X104902302Y-67586597D01*
X104737552Y-67640128D01*
X104583211Y-67718768D01*
X104544405Y-67746963D01*
X104443072Y-67820586D01*
X104443070Y-67820588D01*
X104443069Y-67820588D01*
X104320588Y-67943069D01*
X104320588Y-67943070D01*
X104320586Y-67943072D01*
X104276859Y-68003256D01*
X104218768Y-68083211D01*
X104140128Y-68237552D01*
X104086597Y-68402302D01*
X104067245Y-68524491D01*
X104059500Y-68573389D01*
X103720500Y-68573389D01*
X103693402Y-68402299D01*
X103639873Y-68237555D01*
X103561232Y-68083212D01*
X103459414Y-67943072D01*
X103336928Y-67820586D01*
X103196788Y-67718768D01*
X103042445Y-67640127D01*
X102877701Y-67586598D01*
X102877699Y-67586597D01*
X102877698Y-67586597D01*
X102746271Y-67565781D01*
X102706611Y-67559500D01*
X102533389Y-67559500D01*
X102493728Y-67565781D01*
X102362302Y-67586597D01*
X102197552Y-67640128D01*
X102043211Y-67718768D01*
X102004405Y-67746963D01*
X101903072Y-67820586D01*
X101903070Y-67820588D01*
X101903069Y-67820588D01*
X101780588Y-67943069D01*
X101780588Y-67943070D01*
X101780586Y-67943072D01*
X101736859Y-68003256D01*
X101678768Y-68083211D01*
X101600128Y-68237552D01*
X101546597Y-68402302D01*
X101527245Y-68524491D01*
X101519500Y-68573389D01*
X101180500Y-68573389D01*
X101153402Y-68402299D01*
X101099873Y-68237555D01*
X101021232Y-68083212D01*
X100919414Y-67943072D01*
X100796928Y-67820586D01*
X100656788Y-67718768D01*
X100502445Y-67640127D01*
X100337701Y-67586598D01*
X100337699Y-67586597D01*
X100337698Y-67586597D01*
X100206271Y-67565781D01*
X100166611Y-67559500D01*
X99993389Y-67559500D01*
X99953728Y-67565781D01*
X99822302Y-67586597D01*
X99657552Y-67640128D01*
X99503211Y-67718768D01*
X99464405Y-67746963D01*
X99363072Y-67820586D01*
X99363070Y-67820588D01*
X99363069Y-67820588D01*
X99240588Y-67943069D01*
X99240588Y-67943070D01*
X99240586Y-67943072D01*
X99196859Y-68003256D01*
X99138768Y-68083211D01*
X99060128Y-68237552D01*
X99006597Y-68402302D01*
X98987245Y-68524491D01*
X98979500Y-68573389D01*
X96100500Y-68573389D01*
X96073402Y-68402299D01*
X96019873Y-68237555D01*
X95941232Y-68083212D01*
X95839414Y-67943072D01*
X95716928Y-67820586D01*
X95576788Y-67718768D01*
X95422445Y-67640127D01*
X95257701Y-67586598D01*
X95257699Y-67586597D01*
X95257698Y-67586597D01*
X95126271Y-67565781D01*
X95086611Y-67559500D01*
X94913389Y-67559500D01*
X94873728Y-67565781D01*
X94742302Y-67586597D01*
X94577552Y-67640128D01*
X94423211Y-67718768D01*
X94384405Y-67746963D01*
X94283072Y-67820586D01*
X94283070Y-67820588D01*
X94283069Y-67820588D01*
X94160588Y-67943069D01*
X94160588Y-67943070D01*
X94160586Y-67943072D01*
X94116859Y-68003256D01*
X94058768Y-68083211D01*
X93980128Y-68237552D01*
X93926597Y-68402302D01*
X93907245Y-68524491D01*
X93899500Y-68573389D01*
X91020500Y-68573389D01*
X90993402Y-68402299D01*
X90939873Y-68237555D01*
X90861232Y-68083212D01*
X90759414Y-67943072D01*
X90636928Y-67820586D01*
X90496788Y-67718768D01*
X90342445Y-67640127D01*
X90177701Y-67586598D01*
X90177699Y-67586597D01*
X90177698Y-67586597D01*
X90046271Y-67565781D01*
X90006611Y-67559500D01*
X89833389Y-67559500D01*
X89793728Y-67565781D01*
X89662302Y-67586597D01*
X89497552Y-67640128D01*
X89343211Y-67718768D01*
X89304405Y-67746963D01*
X89203072Y-67820586D01*
X89203070Y-67820588D01*
X89203069Y-67820588D01*
X89080588Y-67943069D01*
X89080588Y-67943070D01*
X89080586Y-67943072D01*
X89036859Y-68003256D01*
X88978768Y-68083211D01*
X88900128Y-68237552D01*
X88846597Y-68402302D01*
X88827245Y-68524491D01*
X88819500Y-68573389D01*
X88480500Y-68573389D01*
X88453402Y-68402299D01*
X88399873Y-68237555D01*
X88321232Y-68083212D01*
X88219414Y-67943072D01*
X88096928Y-67820586D01*
X87956788Y-67718768D01*
X87802445Y-67640127D01*
X87637701Y-67586598D01*
X87637699Y-67586597D01*
X87637698Y-67586597D01*
X87506271Y-67565781D01*
X87466611Y-67559500D01*
X87293389Y-67559500D01*
X87253728Y-67565781D01*
X87122302Y-67586597D01*
X86957552Y-67640128D01*
X86803211Y-67718768D01*
X86764405Y-67746963D01*
X86663072Y-67820586D01*
X86663070Y-67820588D01*
X86663069Y-67820588D01*
X86553881Y-67929777D01*
X86492558Y-67963262D01*
X86422866Y-67958278D01*
X86366933Y-67916406D01*
X86342516Y-67850942D01*
X86342200Y-67842096D01*
X86342200Y-66624044D01*
X86350844Y-66594604D01*
X86357368Y-66564617D01*
X86361122Y-66559601D01*
X86361885Y-66557005D01*
X86378519Y-66536362D01*
X86471164Y-66443718D01*
X86532488Y-66410234D01*
X86558845Y-66407400D01*
X86634772Y-66407400D01*
X86634775Y-66407400D01*
X86774785Y-66369884D01*
X86900315Y-66297409D01*
X87002809Y-66194915D01*
X87075284Y-66069385D01*
X87112800Y-65929375D01*
X87112800Y-65784425D01*
X87075284Y-65644415D01*
X87064735Y-65626144D01*
X87002811Y-65518888D01*
X87002806Y-65518882D01*
X86900317Y-65416393D01*
X86900311Y-65416388D01*
X86774788Y-65343917D01*
X86774786Y-65343916D01*
X86756029Y-65338890D01*
X86696370Y-65302523D01*
X86665842Y-65239676D01*
X86674139Y-65170300D01*
X86700442Y-65131438D01*
X87834562Y-63997319D01*
X87895885Y-63963834D01*
X87922243Y-63961000D01*
X91436214Y-63961000D01*
X91503253Y-63980685D01*
X91523895Y-63997319D01*
X91577585Y-64051009D01*
X91577586Y-64051010D01*
X91577588Y-64051011D01*
X91703111Y-64123482D01*
X91703112Y-64123482D01*
X91703115Y-64123484D01*
X91843125Y-64161000D01*
X91843128Y-64161000D01*
X91988072Y-64161000D01*
X91988075Y-64161000D01*
X92128085Y-64123484D01*
X92253615Y-64051009D01*
X92356109Y-63948515D01*
X92428584Y-63822985D01*
X92466100Y-63682975D01*
X92466100Y-63538025D01*
X92428584Y-63398015D01*
X92389334Y-63330033D01*
X92356111Y-63272488D01*
X92356106Y-63272482D01*
X92253617Y-63169993D01*
X92253611Y-63169988D01*
X92128088Y-63097517D01*
X92128089Y-63097517D01*
X92116606Y-63094440D01*
X91988075Y-63060000D01*
X91843125Y-63060000D01*
X91714593Y-63094440D01*
X91703111Y-63097517D01*
X91577588Y-63169988D01*
X91577582Y-63169993D01*
X91523895Y-63223681D01*
X91462572Y-63257166D01*
X91436214Y-63260000D01*
X87679556Y-63260000D01*
X87590412Y-63283886D01*
X87590411Y-63283886D01*
X87590409Y-63283887D01*
X87590406Y-63283888D01*
X87510494Y-63330026D01*
X87510485Y-63330033D01*
X86419880Y-64420637D01*
X86358557Y-64454122D01*
X86288865Y-64449138D01*
X86232932Y-64407266D01*
X86224818Y-64394966D01*
X86213109Y-64374685D01*
X86110615Y-64272191D01*
X86110613Y-64272190D01*
X86110611Y-64272188D01*
X85985088Y-64199717D01*
X85985089Y-64199717D01*
X85973606Y-64196640D01*
X85845075Y-64162200D01*
X85700125Y-64162200D01*
X85571593Y-64196640D01*
X85560111Y-64199717D01*
X85434588Y-64272188D01*
X85434582Y-64272193D01*
X85380895Y-64325881D01*
X85319572Y-64359366D01*
X85293214Y-64362200D01*
X84557044Y-64362200D01*
X84490005Y-64342515D01*
X84444250Y-64289711D01*
X84434306Y-64220553D01*
X84463331Y-64156997D01*
X84469363Y-64150519D01*
X87443357Y-61176525D01*
X92146900Y-61176525D01*
X92146900Y-61321475D01*
X92184416Y-61461485D01*
X92184417Y-61461488D01*
X92256888Y-61587011D01*
X92256890Y-61587013D01*
X92256891Y-61587015D01*
X92359385Y-61689509D01*
X92359386Y-61689510D01*
X92359388Y-61689511D01*
X92484911Y-61761982D01*
X92484912Y-61761982D01*
X92484915Y-61761984D01*
X92624925Y-61799500D01*
X92624928Y-61799500D01*
X92769872Y-61799500D01*
X92769875Y-61799500D01*
X92909885Y-61761984D01*
X93035415Y-61689509D01*
X93137909Y-61587015D01*
X93210384Y-61461485D01*
X93247900Y-61321475D01*
X93247900Y-61176525D01*
X93210384Y-61036515D01*
X93208801Y-61033774D01*
X93137911Y-60910988D01*
X93137906Y-60910982D01*
X93035417Y-60808493D01*
X93035411Y-60808488D01*
X92909888Y-60736017D01*
X92909889Y-60736017D01*
X92876278Y-60727011D01*
X92769875Y-60698500D01*
X92624925Y-60698500D01*
X92518522Y-60727011D01*
X92484911Y-60736017D01*
X92359388Y-60808488D01*
X92359382Y-60808493D01*
X92256893Y-60910982D01*
X92256888Y-60910988D01*
X92184417Y-61036511D01*
X92184416Y-61036515D01*
X92146900Y-61176525D01*
X87443357Y-61176525D01*
X88653663Y-59966219D01*
X88714986Y-59932734D01*
X88741344Y-59929900D01*
X88817272Y-59929900D01*
X88817275Y-59929900D01*
X88957285Y-59892384D01*
X89082815Y-59819909D01*
X89185309Y-59717415D01*
X89257784Y-59591885D01*
X89295300Y-59451875D01*
X89295300Y-59306925D01*
X89257784Y-59166915D01*
X89250580Y-59154438D01*
X89185311Y-59041388D01*
X89185306Y-59041382D01*
X89082817Y-58938893D01*
X89082811Y-58938888D01*
X88957288Y-58866417D01*
X88957289Y-58866417D01*
X88945806Y-58863340D01*
X88817275Y-58828900D01*
X88672325Y-58828900D01*
X88543793Y-58863340D01*
X88532311Y-58866417D01*
X88406788Y-58938888D01*
X88406782Y-58938893D01*
X88304293Y-59041382D01*
X88304288Y-59041388D01*
X88231817Y-59166911D01*
X88231816Y-59166915D01*
X88194300Y-59306925D01*
X88194300Y-59306927D01*
X88194300Y-59382856D01*
X88174615Y-59449895D01*
X88157981Y-59470537D01*
X81489337Y-66139181D01*
X81428014Y-66172666D01*
X81401656Y-66175500D01*
X80786244Y-66175500D01*
X80719205Y-66155815D01*
X80673450Y-66103011D01*
X80663506Y-66033853D01*
X80692531Y-65970297D01*
X80698563Y-65963819D01*
X84863544Y-61798838D01*
X89030470Y-57631912D01*
X89076614Y-57551988D01*
X89100500Y-57462844D01*
X89100500Y-57462840D01*
X89101956Y-57457407D01*
X89116449Y-57433629D01*
X89128018Y-57408297D01*
X89134383Y-57404206D01*
X89138321Y-57397746D01*
X89163370Y-57385577D01*
X89186796Y-57370523D01*
X89197542Y-57368977D01*
X89201167Y-57367217D01*
X89221731Y-57365500D01*
X89275500Y-57365500D01*
X89342539Y-57385185D01*
X89388294Y-57437989D01*
X89399500Y-57489500D01*
X89399500Y-57576108D01*
X89395275Y-57608200D01*
X89382300Y-57656623D01*
X89382300Y-57656625D01*
X89382300Y-57801575D01*
X89416643Y-57929743D01*
X89419817Y-57941588D01*
X89492288Y-58067111D01*
X89492290Y-58067113D01*
X89492291Y-58067115D01*
X89594785Y-58169609D01*
X89594786Y-58169610D01*
X89594788Y-58169611D01*
X89720311Y-58242082D01*
X89720312Y-58242082D01*
X89720315Y-58242084D01*
X89860325Y-58279600D01*
X89860328Y-58279600D01*
X90005272Y-58279600D01*
X90005275Y-58279600D01*
X90145285Y-58242084D01*
X90270815Y-58169609D01*
X90373309Y-58067115D01*
X90445784Y-57941585D01*
X90483300Y-57801575D01*
X90483300Y-57656625D01*
X90447054Y-57521354D01*
X90448717Y-57451507D01*
X90487879Y-57393644D01*
X90552108Y-57366140D01*
X90569234Y-57365962D01*
X90569234Y-57365500D01*
X90924676Y-57365500D01*
X90924677Y-57365499D01*
X90997740Y-57350966D01*
X91080601Y-57295601D01*
X91122741Y-57232532D01*
X91176348Y-57187731D01*
X91245673Y-57179022D01*
X91308701Y-57209176D01*
X91313521Y-57213745D01*
X91375485Y-57275709D01*
X91375486Y-57275710D01*
X91375488Y-57275711D01*
X91501011Y-57348182D01*
X91501012Y-57348182D01*
X91501015Y-57348184D01*
X91641025Y-57385700D01*
X91641028Y-57385700D01*
X91785972Y-57385700D01*
X91785975Y-57385700D01*
X91925985Y-57348184D01*
X92051515Y-57275709D01*
X92154009Y-57173215D01*
X92226484Y-57047685D01*
X92264000Y-56907675D01*
X92264000Y-56762725D01*
X92226484Y-56622715D01*
X92154009Y-56497185D01*
X92051515Y-56394691D01*
X92051513Y-56394690D01*
X92051511Y-56394688D01*
X91925988Y-56322217D01*
X91925989Y-56322217D01*
X91907739Y-56317327D01*
X91785975Y-56284700D01*
X91641025Y-56284700D01*
X91519261Y-56317327D01*
X91501011Y-56322217D01*
X91375488Y-56394688D01*
X91375481Y-56394694D01*
X91344294Y-56425881D01*
X91342684Y-56426759D01*
X91341760Y-56428344D01*
X91312143Y-56443436D01*
X91282970Y-56459366D01*
X91281140Y-56459235D01*
X91279508Y-56460067D01*
X91246449Y-56456753D01*
X91213279Y-56454380D01*
X91211810Y-56453280D01*
X91209986Y-56453098D01*
X91183947Y-56432422D01*
X91157346Y-56412508D01*
X91156248Y-56410427D01*
X91155269Y-56409650D01*
X91152799Y-56403891D01*
X91139244Y-56378203D01*
X91136599Y-56370443D01*
X91135966Y-56367260D01*
X91135043Y-56365879D01*
X91132130Y-56357331D01*
X91131764Y-56348824D01*
X91125500Y-56317327D01*
X91125500Y-53074038D01*
X108699500Y-53074038D01*
X108699500Y-53325961D01*
X108738910Y-53574785D01*
X108816760Y-53814383D01*
X108931132Y-54038848D01*
X109079201Y-54242649D01*
X109079205Y-54242654D01*
X109257345Y-54420794D01*
X109257350Y-54420798D01*
X109379462Y-54509517D01*
X109461155Y-54568870D01*
X109550943Y-54614619D01*
X109685616Y-54683239D01*
X109685618Y-54683239D01*
X109685621Y-54683241D01*
X109925215Y-54761090D01*
X110174038Y-54800500D01*
X110174039Y-54800500D01*
X110425961Y-54800500D01*
X110425962Y-54800500D01*
X110674785Y-54761090D01*
X110914379Y-54683241D01*
X111138845Y-54568870D01*
X111342656Y-54420793D01*
X111520793Y-54242656D01*
X111668870Y-54038845D01*
X111783241Y-53814379D01*
X111861090Y-53574785D01*
X111900500Y-53325962D01*
X111900500Y-53074038D01*
X111861090Y-52825215D01*
X111783241Y-52585621D01*
X111783239Y-52585618D01*
X111783239Y-52585616D01*
X111741747Y-52504184D01*
X111668870Y-52361155D01*
X111597688Y-52263181D01*
X111520798Y-52157350D01*
X111520794Y-52157345D01*
X111342654Y-51979205D01*
X111342649Y-51979201D01*
X111138848Y-51831132D01*
X111138847Y-51831131D01*
X111138845Y-51831130D01*
X111068747Y-51795413D01*
X110914383Y-51716760D01*
X110674785Y-51638910D01*
X110425962Y-51599500D01*
X110174038Y-51599500D01*
X110049626Y-51619205D01*
X109925214Y-51638910D01*
X109685616Y-51716760D01*
X109461151Y-51831132D01*
X109257350Y-51979201D01*
X109257345Y-51979205D01*
X109079205Y-52157345D01*
X109079201Y-52157350D01*
X108931132Y-52361151D01*
X108816760Y-52585616D01*
X108738910Y-52825214D01*
X108699500Y-53074038D01*
X91125500Y-53074038D01*
X91125500Y-52862353D01*
X91129725Y-52830260D01*
X91131077Y-52825214D01*
X91150500Y-52752727D01*
X91150500Y-52647273D01*
X91123207Y-52545413D01*
X91070480Y-52454087D01*
X90995913Y-52379520D01*
X90904587Y-52326793D01*
X90802727Y-52299500D01*
X90802726Y-52299500D01*
X56829386Y-52299500D01*
X56762347Y-52279815D01*
X56741705Y-52263181D01*
X56738017Y-52259493D01*
X56738011Y-52259488D01*
X56612488Y-52187017D01*
X56612489Y-52187017D01*
X56601006Y-52183940D01*
X56472475Y-52149500D01*
X56327525Y-52149500D01*
X56198993Y-52183940D01*
X56187511Y-52187017D01*
X56061988Y-52259488D01*
X56061982Y-52259493D01*
X55959493Y-52361982D01*
X55959488Y-52361988D01*
X55887017Y-52487511D01*
X55887016Y-52487515D01*
X55849500Y-52627525D01*
X55849500Y-52772475D01*
X55863632Y-52825214D01*
X55887017Y-52912489D01*
X55887018Y-52912492D01*
X55887603Y-52913504D01*
X55887836Y-52914465D01*
X55890128Y-52919999D01*
X55889265Y-52920356D01*
X55904073Y-52981405D01*
X55881219Y-53047431D01*
X55826296Y-53090619D01*
X55780214Y-53099500D01*
X55147273Y-53099500D01*
X55045413Y-53126793D01*
X55045410Y-53126794D01*
X54954085Y-53179521D01*
X54879521Y-53254085D01*
X54831887Y-53336590D01*
X54781320Y-53384806D01*
X54712713Y-53398028D01*
X54647848Y-53372060D01*
X54607320Y-53315146D01*
X54600500Y-53274590D01*
X54600500Y-53074038D01*
X54585828Y-52981405D01*
X54561090Y-52825215D01*
X54483241Y-52585621D01*
X54483239Y-52585618D01*
X54483239Y-52585616D01*
X54441747Y-52504184D01*
X54368870Y-52361155D01*
X54297688Y-52263181D01*
X54220798Y-52157350D01*
X54220794Y-52157345D01*
X54042654Y-51979205D01*
X54042649Y-51979201D01*
X53838848Y-51831132D01*
X53838847Y-51831131D01*
X53838845Y-51831130D01*
X53768747Y-51795413D01*
X53614383Y-51716760D01*
X53374785Y-51638910D01*
X53125962Y-51599500D01*
X52874038Y-51599500D01*
X52749626Y-51619205D01*
X52625214Y-51638910D01*
X52385616Y-51716760D01*
X52161151Y-51831132D01*
X51957350Y-51979201D01*
X51957345Y-51979205D01*
X51779205Y-52157345D01*
X51779201Y-52157350D01*
X51631132Y-52361151D01*
X51516760Y-52585616D01*
X51438910Y-52825214D01*
X51399500Y-53074038D01*
X50500500Y-53074038D01*
X50500500Y-50624500D01*
X50520185Y-50557461D01*
X50572989Y-50511706D01*
X50624500Y-50500500D01*
X112875500Y-50500500D01*
X112942539Y-50520185D01*
G37*
%TD.AperFunction*%
%TD*%
M02*
