%TF.GenerationSoftware,KiCad,Pcbnew,10.0.4*%
%TF.CreationDate,2026-08-20T21:58:05+07:00*%
%TF.ProjectId,gpio_breakout,6770696f-5f62-4726-9561-6b6f75742e6b,rev?*%
%TF.SameCoordinates,Original*%
%TF.FileFunction,Legend,Bot*%
%TF.FilePolarity,Positive*%
%FSLAX46Y46*%
G04 Gerber Fmt 4.6, Leading zero omitted, Abs format (unit mm)*
G04 Created by KiCad (PCBNEW 10.0.4) date 2026-08-20 21:58:05*
%MOMM*%
%LPD*%
G01*
G04 APERTURE LIST*
%ADD10C,0.150000*%
G04 APERTURE END LIST*
D10*
X75142858Y-60607200D02*
X75238096Y-60654819D01*
X75238096Y-60654819D02*
X75428572Y-60654819D01*
X75428572Y-60654819D02*
X75523810Y-60607200D01*
X75523810Y-60607200D02*
X75571429Y-60559580D01*
X75571429Y-60559580D02*
X75619048Y-60464342D01*
X75619048Y-60464342D02*
X75619048Y-60178628D01*
X75619048Y-60178628D02*
X75571429Y-60083390D01*
X75571429Y-60083390D02*
X75523810Y-60035771D01*
X75523810Y-60035771D02*
X75428572Y-59988152D01*
X75428572Y-59988152D02*
X75238096Y-59988152D01*
X75238096Y-59988152D02*
X75142858Y-60035771D01*
X74285715Y-59988152D02*
X74285715Y-60654819D01*
X74714286Y-59988152D02*
X74714286Y-60511961D01*
X74714286Y-60511961D02*
X74666667Y-60607200D01*
X74666667Y-60607200D02*
X74571429Y-60654819D01*
X74571429Y-60654819D02*
X74428572Y-60654819D01*
X74428572Y-60654819D02*
X74333334Y-60607200D01*
X74333334Y-60607200D02*
X74285715Y-60559580D01*
X73952381Y-59988152D02*
X73571429Y-59988152D01*
X73809524Y-59654819D02*
X73809524Y-60511961D01*
X73809524Y-60511961D02*
X73761905Y-60607200D01*
X73761905Y-60607200D02*
X73666667Y-60654819D01*
X73666667Y-60654819D02*
X73571429Y-60654819D01*
X72000000Y-59654819D02*
X72476190Y-59654819D01*
X72476190Y-59654819D02*
X72523809Y-60131009D01*
X72523809Y-60131009D02*
X72476190Y-60083390D01*
X72476190Y-60083390D02*
X72380952Y-60035771D01*
X72380952Y-60035771D02*
X72142857Y-60035771D01*
X72142857Y-60035771D02*
X72047619Y-60083390D01*
X72047619Y-60083390D02*
X72000000Y-60131009D01*
X72000000Y-60131009D02*
X71952381Y-60226247D01*
X71952381Y-60226247D02*
X71952381Y-60464342D01*
X71952381Y-60464342D02*
X72000000Y-60559580D01*
X72000000Y-60559580D02*
X72047619Y-60607200D01*
X72047619Y-60607200D02*
X72142857Y-60654819D01*
X72142857Y-60654819D02*
X72380952Y-60654819D01*
X72380952Y-60654819D02*
X72476190Y-60607200D01*
X72476190Y-60607200D02*
X72523809Y-60559580D01*
X71666666Y-59654819D02*
X71333333Y-60654819D01*
X71333333Y-60654819D02*
X71000000Y-59654819D01*
X69952381Y-59607200D02*
X70809523Y-60892914D01*
X69714285Y-59654819D02*
X69095238Y-59654819D01*
X69095238Y-59654819D02*
X69428571Y-60035771D01*
X69428571Y-60035771D02*
X69285714Y-60035771D01*
X69285714Y-60035771D02*
X69190476Y-60083390D01*
X69190476Y-60083390D02*
X69142857Y-60131009D01*
X69142857Y-60131009D02*
X69095238Y-60226247D01*
X69095238Y-60226247D02*
X69095238Y-60464342D01*
X69095238Y-60464342D02*
X69142857Y-60559580D01*
X69142857Y-60559580D02*
X69190476Y-60607200D01*
X69190476Y-60607200D02*
X69285714Y-60654819D01*
X69285714Y-60654819D02*
X69571428Y-60654819D01*
X69571428Y-60654819D02*
X69666666Y-60607200D01*
X69666666Y-60607200D02*
X69714285Y-60559580D01*
X68809523Y-59654819D02*
X68476190Y-60654819D01*
X68476190Y-60654819D02*
X68142857Y-59654819D01*
X67904761Y-59654819D02*
X67285714Y-59654819D01*
X67285714Y-59654819D02*
X67619047Y-60035771D01*
X67619047Y-60035771D02*
X67476190Y-60035771D01*
X67476190Y-60035771D02*
X67380952Y-60083390D01*
X67380952Y-60083390D02*
X67333333Y-60131009D01*
X67333333Y-60131009D02*
X67285714Y-60226247D01*
X67285714Y-60226247D02*
X67285714Y-60464342D01*
X67285714Y-60464342D02*
X67333333Y-60559580D01*
X67333333Y-60559580D02*
X67380952Y-60607200D01*
X67380952Y-60607200D02*
X67476190Y-60654819D01*
X67476190Y-60654819D02*
X67761904Y-60654819D01*
X67761904Y-60654819D02*
X67857142Y-60607200D01*
X67857142Y-60607200D02*
X67904761Y-60559580D01*
X65952380Y-60654819D02*
X66047618Y-60607200D01*
X66047618Y-60607200D02*
X66095237Y-60511961D01*
X66095237Y-60511961D02*
X66095237Y-59654819D01*
X65571427Y-60654819D02*
X65571427Y-59988152D01*
X65571427Y-59654819D02*
X65619046Y-59702438D01*
X65619046Y-59702438D02*
X65571427Y-59750057D01*
X65571427Y-59750057D02*
X65523808Y-59702438D01*
X65523808Y-59702438D02*
X65571427Y-59654819D01*
X65571427Y-59654819D02*
X65571427Y-59750057D01*
X65095237Y-59988152D02*
X65095237Y-60654819D01*
X65095237Y-60083390D02*
X65047618Y-60035771D01*
X65047618Y-60035771D02*
X64952380Y-59988152D01*
X64952380Y-59988152D02*
X64809523Y-59988152D01*
X64809523Y-59988152D02*
X64714285Y-60035771D01*
X64714285Y-60035771D02*
X64666666Y-60131009D01*
X64666666Y-60131009D02*
X64666666Y-60654819D01*
X64190475Y-60654819D02*
X64190475Y-59654819D01*
X64095237Y-60273866D02*
X63809523Y-60654819D01*
X63809523Y-59988152D02*
X64190475Y-60369104D01*
X63428570Y-60607200D02*
X63333332Y-60654819D01*
X63333332Y-60654819D02*
X63142856Y-60654819D01*
X63142856Y-60654819D02*
X63047618Y-60607200D01*
X63047618Y-60607200D02*
X62999999Y-60511961D01*
X62999999Y-60511961D02*
X62999999Y-60464342D01*
X62999999Y-60464342D02*
X63047618Y-60369104D01*
X63047618Y-60369104D02*
X63142856Y-60321485D01*
X63142856Y-60321485D02*
X63285713Y-60321485D01*
X63285713Y-60321485D02*
X63380951Y-60273866D01*
X63380951Y-60273866D02*
X63428570Y-60178628D01*
X63428570Y-60178628D02*
X63428570Y-60131009D01*
X63428570Y-60131009D02*
X63380951Y-60035771D01*
X63380951Y-60035771D02*
X63285713Y-59988152D01*
X63285713Y-59988152D02*
X63142856Y-59988152D01*
X63142856Y-59988152D02*
X63047618Y-60035771D01*
X61809522Y-60654819D02*
X61809522Y-59988152D01*
X61809522Y-59654819D02*
X61857141Y-59702438D01*
X61857141Y-59702438D02*
X61809522Y-59750057D01*
X61809522Y-59750057D02*
X61761903Y-59702438D01*
X61761903Y-59702438D02*
X61809522Y-59654819D01*
X61809522Y-59654819D02*
X61809522Y-59750057D01*
X61476189Y-59988152D02*
X61095237Y-59988152D01*
X61333332Y-60654819D02*
X61333332Y-59797676D01*
X61333332Y-59797676D02*
X61285713Y-59702438D01*
X61285713Y-59702438D02*
X61190475Y-59654819D01*
X61190475Y-59654819D02*
X61095237Y-59654819D01*
X59571427Y-60607200D02*
X59666665Y-60654819D01*
X59666665Y-60654819D02*
X59857141Y-60654819D01*
X59857141Y-60654819D02*
X59952379Y-60607200D01*
X59952379Y-60607200D02*
X59999998Y-60559580D01*
X59999998Y-60559580D02*
X60047617Y-60464342D01*
X60047617Y-60464342D02*
X60047617Y-60178628D01*
X60047617Y-60178628D02*
X59999998Y-60083390D01*
X59999998Y-60083390D02*
X59952379Y-60035771D01*
X59952379Y-60035771D02*
X59857141Y-59988152D01*
X59857141Y-59988152D02*
X59666665Y-59988152D01*
X59666665Y-59988152D02*
X59571427Y-60035771D01*
X59142855Y-60654819D02*
X59142855Y-59654819D01*
X58714284Y-60654819D02*
X58714284Y-60131009D01*
X58714284Y-60131009D02*
X58761903Y-60035771D01*
X58761903Y-60035771D02*
X58857141Y-59988152D01*
X58857141Y-59988152D02*
X58999998Y-59988152D01*
X58999998Y-59988152D02*
X59095236Y-60035771D01*
X59095236Y-60035771D02*
X59142855Y-60083390D01*
X57809522Y-60654819D02*
X57809522Y-60131009D01*
X57809522Y-60131009D02*
X57857141Y-60035771D01*
X57857141Y-60035771D02*
X57952379Y-59988152D01*
X57952379Y-59988152D02*
X58142855Y-59988152D01*
X58142855Y-59988152D02*
X58238093Y-60035771D01*
X57809522Y-60607200D02*
X57904760Y-60654819D01*
X57904760Y-60654819D02*
X58142855Y-60654819D01*
X58142855Y-60654819D02*
X58238093Y-60607200D01*
X58238093Y-60607200D02*
X58285712Y-60511961D01*
X58285712Y-60511961D02*
X58285712Y-60416723D01*
X58285712Y-60416723D02*
X58238093Y-60321485D01*
X58238093Y-60321485D02*
X58142855Y-60273866D01*
X58142855Y-60273866D02*
X57904760Y-60273866D01*
X57904760Y-60273866D02*
X57809522Y-60226247D01*
X57333331Y-60654819D02*
X57333331Y-59988152D01*
X57333331Y-59654819D02*
X57380950Y-59702438D01*
X57380950Y-59702438D02*
X57333331Y-59750057D01*
X57333331Y-59750057D02*
X57285712Y-59702438D01*
X57285712Y-59702438D02*
X57333331Y-59654819D01*
X57333331Y-59654819D02*
X57333331Y-59750057D01*
X56857141Y-59988152D02*
X56857141Y-60654819D01*
X56857141Y-60083390D02*
X56809522Y-60035771D01*
X56809522Y-60035771D02*
X56714284Y-59988152D01*
X56714284Y-59988152D02*
X56571427Y-59988152D01*
X56571427Y-59988152D02*
X56476189Y-60035771D01*
X56476189Y-60035771D02*
X56428570Y-60131009D01*
X56428570Y-60131009D02*
X56428570Y-60654819D01*
X73880953Y-62254819D02*
X73880953Y-61588152D01*
X73880953Y-61254819D02*
X73928572Y-61302438D01*
X73928572Y-61302438D02*
X73880953Y-61350057D01*
X73880953Y-61350057D02*
X73833334Y-61302438D01*
X73833334Y-61302438D02*
X73880953Y-61254819D01*
X73880953Y-61254819D02*
X73880953Y-61350057D01*
X73452382Y-62207200D02*
X73357144Y-62254819D01*
X73357144Y-62254819D02*
X73166668Y-62254819D01*
X73166668Y-62254819D02*
X73071430Y-62207200D01*
X73071430Y-62207200D02*
X73023811Y-62111961D01*
X73023811Y-62111961D02*
X73023811Y-62064342D01*
X73023811Y-62064342D02*
X73071430Y-61969104D01*
X73071430Y-61969104D02*
X73166668Y-61921485D01*
X73166668Y-61921485D02*
X73309525Y-61921485D01*
X73309525Y-61921485D02*
X73404763Y-61873866D01*
X73404763Y-61873866D02*
X73452382Y-61778628D01*
X73452382Y-61778628D02*
X73452382Y-61731009D01*
X73452382Y-61731009D02*
X73404763Y-61635771D01*
X73404763Y-61635771D02*
X73309525Y-61588152D01*
X73309525Y-61588152D02*
X73166668Y-61588152D01*
X73166668Y-61588152D02*
X73071430Y-61635771D01*
X71452382Y-62207200D02*
X71547620Y-62254819D01*
X71547620Y-62254819D02*
X71738096Y-62254819D01*
X71738096Y-62254819D02*
X71833334Y-62207200D01*
X71833334Y-62207200D02*
X71880953Y-62111961D01*
X71880953Y-62111961D02*
X71880953Y-61731009D01*
X71880953Y-61731009D02*
X71833334Y-61635771D01*
X71833334Y-61635771D02*
X71738096Y-61588152D01*
X71738096Y-61588152D02*
X71547620Y-61588152D01*
X71547620Y-61588152D02*
X71452382Y-61635771D01*
X71452382Y-61635771D02*
X71404763Y-61731009D01*
X71404763Y-61731009D02*
X71404763Y-61826247D01*
X71404763Y-61826247D02*
X71880953Y-61921485D01*
X71071429Y-62254819D02*
X70547620Y-61588152D01*
X71071429Y-61588152D02*
X70547620Y-62254819D01*
X70309524Y-61588152D02*
X69928572Y-61588152D01*
X70166667Y-61254819D02*
X70166667Y-62111961D01*
X70166667Y-62111961D02*
X70119048Y-62207200D01*
X70119048Y-62207200D02*
X70023810Y-62254819D01*
X70023810Y-62254819D02*
X69928572Y-62254819D01*
X69214286Y-62207200D02*
X69309524Y-62254819D01*
X69309524Y-62254819D02*
X69500000Y-62254819D01*
X69500000Y-62254819D02*
X69595238Y-62207200D01*
X69595238Y-62207200D02*
X69642857Y-62111961D01*
X69642857Y-62111961D02*
X69642857Y-61731009D01*
X69642857Y-61731009D02*
X69595238Y-61635771D01*
X69595238Y-61635771D02*
X69500000Y-61588152D01*
X69500000Y-61588152D02*
X69309524Y-61588152D01*
X69309524Y-61588152D02*
X69214286Y-61635771D01*
X69214286Y-61635771D02*
X69166667Y-61731009D01*
X69166667Y-61731009D02*
X69166667Y-61826247D01*
X69166667Y-61826247D02*
X69642857Y-61921485D01*
X68738095Y-62254819D02*
X68738095Y-61588152D01*
X68738095Y-61778628D02*
X68690476Y-61683390D01*
X68690476Y-61683390D02*
X68642857Y-61635771D01*
X68642857Y-61635771D02*
X68547619Y-61588152D01*
X68547619Y-61588152D02*
X68452381Y-61588152D01*
X68119047Y-61588152D02*
X68119047Y-62254819D01*
X68119047Y-61683390D02*
X68071428Y-61635771D01*
X68071428Y-61635771D02*
X67976190Y-61588152D01*
X67976190Y-61588152D02*
X67833333Y-61588152D01*
X67833333Y-61588152D02*
X67738095Y-61635771D01*
X67738095Y-61635771D02*
X67690476Y-61731009D01*
X67690476Y-61731009D02*
X67690476Y-62254819D01*
X66785714Y-62254819D02*
X66785714Y-61731009D01*
X66785714Y-61731009D02*
X66833333Y-61635771D01*
X66833333Y-61635771D02*
X66928571Y-61588152D01*
X66928571Y-61588152D02*
X67119047Y-61588152D01*
X67119047Y-61588152D02*
X67214285Y-61635771D01*
X66785714Y-62207200D02*
X66880952Y-62254819D01*
X66880952Y-62254819D02*
X67119047Y-62254819D01*
X67119047Y-62254819D02*
X67214285Y-62207200D01*
X67214285Y-62207200D02*
X67261904Y-62111961D01*
X67261904Y-62111961D02*
X67261904Y-62016723D01*
X67261904Y-62016723D02*
X67214285Y-61921485D01*
X67214285Y-61921485D02*
X67119047Y-61873866D01*
X67119047Y-61873866D02*
X66880952Y-61873866D01*
X66880952Y-61873866D02*
X66785714Y-61826247D01*
X66166666Y-62254819D02*
X66261904Y-62207200D01*
X66261904Y-62207200D02*
X66309523Y-62111961D01*
X66309523Y-62111961D02*
X66309523Y-61254819D01*
X65642856Y-62254819D02*
X65738094Y-62207200D01*
X65738094Y-62207200D02*
X65785713Y-62111961D01*
X65785713Y-62111961D02*
X65785713Y-61254819D01*
X65357141Y-61588152D02*
X65119046Y-62254819D01*
X64880951Y-61588152D02*
X65119046Y-62254819D01*
X65119046Y-62254819D02*
X65214284Y-62492914D01*
X65214284Y-62492914D02*
X65261903Y-62540533D01*
X65261903Y-62540533D02*
X65357141Y-62588152D01*
X63738093Y-61588152D02*
X63738093Y-62588152D01*
X63738093Y-61635771D02*
X63642855Y-61588152D01*
X63642855Y-61588152D02*
X63452379Y-61588152D01*
X63452379Y-61588152D02*
X63357141Y-61635771D01*
X63357141Y-61635771D02*
X63309522Y-61683390D01*
X63309522Y-61683390D02*
X63261903Y-61778628D01*
X63261903Y-61778628D02*
X63261903Y-62064342D01*
X63261903Y-62064342D02*
X63309522Y-62159580D01*
X63309522Y-62159580D02*
X63357141Y-62207200D01*
X63357141Y-62207200D02*
X63452379Y-62254819D01*
X63452379Y-62254819D02*
X63642855Y-62254819D01*
X63642855Y-62254819D02*
X63738093Y-62207200D01*
X62690474Y-62254819D02*
X62785712Y-62207200D01*
X62785712Y-62207200D02*
X62833331Y-62159580D01*
X62833331Y-62159580D02*
X62880950Y-62064342D01*
X62880950Y-62064342D02*
X62880950Y-61778628D01*
X62880950Y-61778628D02*
X62833331Y-61683390D01*
X62833331Y-61683390D02*
X62785712Y-61635771D01*
X62785712Y-61635771D02*
X62690474Y-61588152D01*
X62690474Y-61588152D02*
X62547617Y-61588152D01*
X62547617Y-61588152D02*
X62452379Y-61635771D01*
X62452379Y-61635771D02*
X62404760Y-61683390D01*
X62404760Y-61683390D02*
X62357141Y-61778628D01*
X62357141Y-61778628D02*
X62357141Y-62064342D01*
X62357141Y-62064342D02*
X62404760Y-62159580D01*
X62404760Y-62159580D02*
X62452379Y-62207200D01*
X62452379Y-62207200D02*
X62547617Y-62254819D01*
X62547617Y-62254819D02*
X62690474Y-62254819D01*
X62023807Y-61588152D02*
X61833331Y-62254819D01*
X61833331Y-62254819D02*
X61642855Y-61778628D01*
X61642855Y-61778628D02*
X61452379Y-62254819D01*
X61452379Y-62254819D02*
X61261903Y-61588152D01*
X60499998Y-62207200D02*
X60595236Y-62254819D01*
X60595236Y-62254819D02*
X60785712Y-62254819D01*
X60785712Y-62254819D02*
X60880950Y-62207200D01*
X60880950Y-62207200D02*
X60928569Y-62111961D01*
X60928569Y-62111961D02*
X60928569Y-61731009D01*
X60928569Y-61731009D02*
X60880950Y-61635771D01*
X60880950Y-61635771D02*
X60785712Y-61588152D01*
X60785712Y-61588152D02*
X60595236Y-61588152D01*
X60595236Y-61588152D02*
X60499998Y-61635771D01*
X60499998Y-61635771D02*
X60452379Y-61731009D01*
X60452379Y-61731009D02*
X60452379Y-61826247D01*
X60452379Y-61826247D02*
X60928569Y-61921485D01*
X60023807Y-62254819D02*
X60023807Y-61588152D01*
X60023807Y-61778628D02*
X59976188Y-61683390D01*
X59976188Y-61683390D02*
X59928569Y-61635771D01*
X59928569Y-61635771D02*
X59833331Y-61588152D01*
X59833331Y-61588152D02*
X59738093Y-61588152D01*
X59023807Y-62207200D02*
X59119045Y-62254819D01*
X59119045Y-62254819D02*
X59309521Y-62254819D01*
X59309521Y-62254819D02*
X59404759Y-62207200D01*
X59404759Y-62207200D02*
X59452378Y-62111961D01*
X59452378Y-62111961D02*
X59452378Y-61731009D01*
X59452378Y-61731009D02*
X59404759Y-61635771D01*
X59404759Y-61635771D02*
X59309521Y-61588152D01*
X59309521Y-61588152D02*
X59119045Y-61588152D01*
X59119045Y-61588152D02*
X59023807Y-61635771D01*
X59023807Y-61635771D02*
X58976188Y-61731009D01*
X58976188Y-61731009D02*
X58976188Y-61826247D01*
X58976188Y-61826247D02*
X59452378Y-61921485D01*
X58119045Y-62254819D02*
X58119045Y-61254819D01*
X58119045Y-62207200D02*
X58214283Y-62254819D01*
X58214283Y-62254819D02*
X58404759Y-62254819D01*
X58404759Y-62254819D02*
X58499997Y-62207200D01*
X58499997Y-62207200D02*
X58547616Y-62159580D01*
X58547616Y-62159580D02*
X58595235Y-62064342D01*
X58595235Y-62064342D02*
X58595235Y-61778628D01*
X58595235Y-61778628D02*
X58547616Y-61683390D01*
X58547616Y-61683390D02*
X58499997Y-61635771D01*
X58499997Y-61635771D02*
X58404759Y-61588152D01*
X58404759Y-61588152D02*
X58214283Y-61588152D01*
X58214283Y-61588152D02*
X58119045Y-61635771D01*
X85476190Y-64954819D02*
X85476190Y-63954819D01*
X85380952Y-64573866D02*
X85095238Y-64954819D01*
X85095238Y-64288152D02*
X85476190Y-64669104D01*
X84523809Y-64954819D02*
X84619047Y-64907200D01*
X84619047Y-64907200D02*
X84666666Y-64859580D01*
X84666666Y-64859580D02*
X84714285Y-64764342D01*
X84714285Y-64764342D02*
X84714285Y-64478628D01*
X84714285Y-64478628D02*
X84666666Y-64383390D01*
X84666666Y-64383390D02*
X84619047Y-64335771D01*
X84619047Y-64335771D02*
X84523809Y-64288152D01*
X84523809Y-64288152D02*
X84380952Y-64288152D01*
X84380952Y-64288152D02*
X84285714Y-64335771D01*
X84285714Y-64335771D02*
X84238095Y-64383390D01*
X84238095Y-64383390D02*
X84190476Y-64478628D01*
X84190476Y-64478628D02*
X84190476Y-64764342D01*
X84190476Y-64764342D02*
X84238095Y-64859580D01*
X84238095Y-64859580D02*
X84285714Y-64907200D01*
X84285714Y-64907200D02*
X84380952Y-64954819D01*
X84380952Y-64954819D02*
X84523809Y-64954819D01*
X83857142Y-64288152D02*
X83619047Y-64954819D01*
X83380952Y-64288152D02*
X83619047Y-64954819D01*
X83619047Y-64954819D02*
X83714285Y-65192914D01*
X83714285Y-65192914D02*
X83761904Y-65240533D01*
X83761904Y-65240533D02*
X83857142Y-65288152D01*
X82857142Y-64954819D02*
X82952380Y-64907200D01*
X82952380Y-64907200D02*
X82999999Y-64859580D01*
X82999999Y-64859580D02*
X83047618Y-64764342D01*
X83047618Y-64764342D02*
X83047618Y-64478628D01*
X83047618Y-64478628D02*
X82999999Y-64383390D01*
X82999999Y-64383390D02*
X82952380Y-64335771D01*
X82952380Y-64335771D02*
X82857142Y-64288152D01*
X82857142Y-64288152D02*
X82714285Y-64288152D01*
X82714285Y-64288152D02*
X82619047Y-64335771D01*
X82619047Y-64335771D02*
X82571428Y-64383390D01*
X82571428Y-64383390D02*
X82523809Y-64478628D01*
X82523809Y-64478628D02*
X82523809Y-64764342D01*
X82523809Y-64764342D02*
X82571428Y-64859580D01*
X82571428Y-64859580D02*
X82619047Y-64907200D01*
X82619047Y-64907200D02*
X82714285Y-64954819D01*
X82714285Y-64954819D02*
X82857142Y-64954819D01*
X82095237Y-64954819D02*
X82095237Y-64288152D01*
X82095237Y-64383390D02*
X82047618Y-64335771D01*
X82047618Y-64335771D02*
X81952380Y-64288152D01*
X81952380Y-64288152D02*
X81809523Y-64288152D01*
X81809523Y-64288152D02*
X81714285Y-64335771D01*
X81714285Y-64335771D02*
X81666666Y-64431009D01*
X81666666Y-64431009D02*
X81666666Y-64954819D01*
X81666666Y-64431009D02*
X81619047Y-64335771D01*
X81619047Y-64335771D02*
X81523809Y-64288152D01*
X81523809Y-64288152D02*
X81380952Y-64288152D01*
X81380952Y-64288152D02*
X81285713Y-64335771D01*
X81285713Y-64335771D02*
X81238094Y-64431009D01*
X81238094Y-64431009D02*
X81238094Y-64954819D01*
X80761904Y-64954819D02*
X80761904Y-64288152D01*
X80761904Y-63954819D02*
X80809523Y-64002438D01*
X80809523Y-64002438D02*
X80761904Y-64050057D01*
X80761904Y-64050057D02*
X80714285Y-64002438D01*
X80714285Y-64002438D02*
X80761904Y-63954819D01*
X80761904Y-63954819D02*
X80761904Y-64050057D01*
X79095238Y-64288152D02*
X79095238Y-65097676D01*
X79095238Y-65097676D02*
X79142857Y-65192914D01*
X79142857Y-65192914D02*
X79190476Y-65240533D01*
X79190476Y-65240533D02*
X79285714Y-65288152D01*
X79285714Y-65288152D02*
X79428571Y-65288152D01*
X79428571Y-65288152D02*
X79523809Y-65240533D01*
X79095238Y-64907200D02*
X79190476Y-64954819D01*
X79190476Y-64954819D02*
X79380952Y-64954819D01*
X79380952Y-64954819D02*
X79476190Y-64907200D01*
X79476190Y-64907200D02*
X79523809Y-64859580D01*
X79523809Y-64859580D02*
X79571428Y-64764342D01*
X79571428Y-64764342D02*
X79571428Y-64478628D01*
X79571428Y-64478628D02*
X79523809Y-64383390D01*
X79523809Y-64383390D02*
X79476190Y-64335771D01*
X79476190Y-64335771D02*
X79380952Y-64288152D01*
X79380952Y-64288152D02*
X79190476Y-64288152D01*
X79190476Y-64288152D02*
X79095238Y-64335771D01*
X78619047Y-64288152D02*
X78619047Y-65288152D01*
X78619047Y-64335771D02*
X78523809Y-64288152D01*
X78523809Y-64288152D02*
X78333333Y-64288152D01*
X78333333Y-64288152D02*
X78238095Y-64335771D01*
X78238095Y-64335771D02*
X78190476Y-64383390D01*
X78190476Y-64383390D02*
X78142857Y-64478628D01*
X78142857Y-64478628D02*
X78142857Y-64764342D01*
X78142857Y-64764342D02*
X78190476Y-64859580D01*
X78190476Y-64859580D02*
X78238095Y-64907200D01*
X78238095Y-64907200D02*
X78333333Y-64954819D01*
X78333333Y-64954819D02*
X78523809Y-64954819D01*
X78523809Y-64954819D02*
X78619047Y-64907200D01*
X77714285Y-64954819D02*
X77714285Y-64288152D01*
X77714285Y-63954819D02*
X77761904Y-64002438D01*
X77761904Y-64002438D02*
X77714285Y-64050057D01*
X77714285Y-64050057D02*
X77666666Y-64002438D01*
X77666666Y-64002438D02*
X77714285Y-63954819D01*
X77714285Y-63954819D02*
X77714285Y-64050057D01*
X77095238Y-64954819D02*
X77190476Y-64907200D01*
X77190476Y-64907200D02*
X77238095Y-64859580D01*
X77238095Y-64859580D02*
X77285714Y-64764342D01*
X77285714Y-64764342D02*
X77285714Y-64478628D01*
X77285714Y-64478628D02*
X77238095Y-64383390D01*
X77238095Y-64383390D02*
X77190476Y-64335771D01*
X77190476Y-64335771D02*
X77095238Y-64288152D01*
X77095238Y-64288152D02*
X76952381Y-64288152D01*
X76952381Y-64288152D02*
X76857143Y-64335771D01*
X76857143Y-64335771D02*
X76809524Y-64383390D01*
X76809524Y-64383390D02*
X76761905Y-64478628D01*
X76761905Y-64478628D02*
X76761905Y-64764342D01*
X76761905Y-64764342D02*
X76809524Y-64859580D01*
X76809524Y-64859580D02*
X76857143Y-64907200D01*
X76857143Y-64907200D02*
X76952381Y-64954819D01*
X76952381Y-64954819D02*
X77095238Y-64954819D01*
X76333333Y-64573866D02*
X75571429Y-64573866D01*
X75095238Y-64954819D02*
X75095238Y-63954819D01*
X75095238Y-64335771D02*
X75000000Y-64288152D01*
X75000000Y-64288152D02*
X74809524Y-64288152D01*
X74809524Y-64288152D02*
X74714286Y-64335771D01*
X74714286Y-64335771D02*
X74666667Y-64383390D01*
X74666667Y-64383390D02*
X74619048Y-64478628D01*
X74619048Y-64478628D02*
X74619048Y-64764342D01*
X74619048Y-64764342D02*
X74666667Y-64859580D01*
X74666667Y-64859580D02*
X74714286Y-64907200D01*
X74714286Y-64907200D02*
X74809524Y-64954819D01*
X74809524Y-64954819D02*
X75000000Y-64954819D01*
X75000000Y-64954819D02*
X75095238Y-64907200D01*
X74190476Y-64954819D02*
X74190476Y-64288152D01*
X74190476Y-64478628D02*
X74142857Y-64383390D01*
X74142857Y-64383390D02*
X74095238Y-64335771D01*
X74095238Y-64335771D02*
X74000000Y-64288152D01*
X74000000Y-64288152D02*
X73904762Y-64288152D01*
X73190476Y-64907200D02*
X73285714Y-64954819D01*
X73285714Y-64954819D02*
X73476190Y-64954819D01*
X73476190Y-64954819D02*
X73571428Y-64907200D01*
X73571428Y-64907200D02*
X73619047Y-64811961D01*
X73619047Y-64811961D02*
X73619047Y-64431009D01*
X73619047Y-64431009D02*
X73571428Y-64335771D01*
X73571428Y-64335771D02*
X73476190Y-64288152D01*
X73476190Y-64288152D02*
X73285714Y-64288152D01*
X73285714Y-64288152D02*
X73190476Y-64335771D01*
X73190476Y-64335771D02*
X73142857Y-64431009D01*
X73142857Y-64431009D02*
X73142857Y-64526247D01*
X73142857Y-64526247D02*
X73619047Y-64621485D01*
X72285714Y-64954819D02*
X72285714Y-64431009D01*
X72285714Y-64431009D02*
X72333333Y-64335771D01*
X72333333Y-64335771D02*
X72428571Y-64288152D01*
X72428571Y-64288152D02*
X72619047Y-64288152D01*
X72619047Y-64288152D02*
X72714285Y-64335771D01*
X72285714Y-64907200D02*
X72380952Y-64954819D01*
X72380952Y-64954819D02*
X72619047Y-64954819D01*
X72619047Y-64954819D02*
X72714285Y-64907200D01*
X72714285Y-64907200D02*
X72761904Y-64811961D01*
X72761904Y-64811961D02*
X72761904Y-64716723D01*
X72761904Y-64716723D02*
X72714285Y-64621485D01*
X72714285Y-64621485D02*
X72619047Y-64573866D01*
X72619047Y-64573866D02*
X72380952Y-64573866D01*
X72380952Y-64573866D02*
X72285714Y-64526247D01*
X71809523Y-64954819D02*
X71809523Y-63954819D01*
X71714285Y-64573866D02*
X71428571Y-64954819D01*
X71428571Y-64288152D02*
X71809523Y-64669104D01*
X70857142Y-64954819D02*
X70952380Y-64907200D01*
X70952380Y-64907200D02*
X70999999Y-64859580D01*
X70999999Y-64859580D02*
X71047618Y-64764342D01*
X71047618Y-64764342D02*
X71047618Y-64478628D01*
X71047618Y-64478628D02*
X70999999Y-64383390D01*
X70999999Y-64383390D02*
X70952380Y-64335771D01*
X70952380Y-64335771D02*
X70857142Y-64288152D01*
X70857142Y-64288152D02*
X70714285Y-64288152D01*
X70714285Y-64288152D02*
X70619047Y-64335771D01*
X70619047Y-64335771D02*
X70571428Y-64383390D01*
X70571428Y-64383390D02*
X70523809Y-64478628D01*
X70523809Y-64478628D02*
X70523809Y-64764342D01*
X70523809Y-64764342D02*
X70571428Y-64859580D01*
X70571428Y-64859580D02*
X70619047Y-64907200D01*
X70619047Y-64907200D02*
X70714285Y-64954819D01*
X70714285Y-64954819D02*
X70857142Y-64954819D01*
X69666666Y-64288152D02*
X69666666Y-64954819D01*
X70095237Y-64288152D02*
X70095237Y-64811961D01*
X70095237Y-64811961D02*
X70047618Y-64907200D01*
X70047618Y-64907200D02*
X69952380Y-64954819D01*
X69952380Y-64954819D02*
X69809523Y-64954819D01*
X69809523Y-64954819D02*
X69714285Y-64907200D01*
X69714285Y-64907200D02*
X69666666Y-64859580D01*
X69333332Y-64288152D02*
X68952380Y-64288152D01*
X69190475Y-63954819D02*
X69190475Y-64811961D01*
X69190475Y-64811961D02*
X69142856Y-64907200D01*
X69142856Y-64907200D02*
X69047618Y-64954819D01*
X69047618Y-64954819D02*
X68952380Y-64954819D01*
X67904760Y-64669104D02*
X67428570Y-64669104D01*
X67999998Y-64954819D02*
X67666665Y-63954819D01*
X67666665Y-63954819D02*
X67333332Y-64954819D01*
X66476189Y-64954819D02*
X67047617Y-64954819D01*
X66761903Y-64954819D02*
X66761903Y-63954819D01*
X66761903Y-63954819D02*
X66857141Y-64097676D01*
X66857141Y-64097676D02*
X66952379Y-64192914D01*
X66952379Y-64192914D02*
X67047617Y-64240533D01*
M02*
