M48
; DRILL file KiCad 10.0.4 date 2026-08-21T01:30:42
; FORMAT={-:-/ absolute / metric / decimal}
; #@! TF.CreationDate,2026-08-21T01:30:42+07:00
; #@! TF.GenerationSoftware,Kicad,Pcbnew,10.0.4
; #@! TF.FileFunction,MixedPlating,1,4
FMAT,2
METRIC
; #@! TA.AperFunction,Plated,PTH,ViaDrill
T1C0.300
; #@! TA.AperFunction,Plated,PTH,ComponentDrill
T2C1.000
; #@! TA.AperFunction,NonPlated,NPTH,ComponentDrill
T3C2.700
%
G90
G05
T1
X53.718Y-68.965
X55.2Y-54.2
X55.6Y-61.2
X56.4Y-52.7
X56.4Y-64.6
X60.738Y-65.888
X68.977Y-54.171
X69.479Y-57.374
X69.808Y-54.863
X71.044Y-70.104
X71.969Y-55.321
X72.607Y-54.674
X73.679Y-57.701
X73.995Y-65.65
X74.426Y-54.228
X74.511Y-55.538
X75.069Y-66.191
X75.649Y-58.473
X75.661Y-57.633
X75.772Y-59.696
X76.214Y-60.753
X76.25Y-55.6
X76.463Y-57.654
X76.717Y-66.857
X77.751Y-57.875
X77.861Y-55.764
X78.483Y-67.13
X78.75Y-55.6
X78.936Y-60.112
X79.737Y-59.94
X79.873Y-61.395
X79.968Y-67.128
X80.158Y-58.576
X80.248Y-55.296
X81.155Y-58.536
X81.25Y-55.6
X81.725Y-60.24
X82.334Y-57.883
X83.274Y-55.376
X84.25Y-55.6
X85.546Y-55.604
X85.773Y-64.713
X86.562Y-65.857
X86.75Y-55.6
X88.25Y-55.6
X88.745Y-59.379
X89.933Y-57.729
X91.713Y-56.835
X91.916Y-63.61
X92.697Y-61.249
X99.011Y-76.489
X103.147Y-77.345
T2
X56.9Y-68.66
X56.9Y-71.2
X59.44Y-68.66
X59.44Y-71.2
X61.98Y-68.66
X61.98Y-71.2
X64.52Y-68.66
X64.52Y-71.2
X67.06Y-68.66
X67.06Y-71.2
X69.6Y-68.66
X69.6Y-71.2
X72.14Y-68.66
X72.14Y-71.2
X74.68Y-68.66
X74.68Y-71.2
X77.22Y-68.66
X77.22Y-71.2
X79.76Y-68.66
X79.76Y-71.2
X82.3Y-68.66
X82.3Y-71.2
X84.84Y-68.66
X84.84Y-71.2
X87.38Y-68.66
X87.38Y-71.2
X89.92Y-68.66
X89.92Y-71.2
X92.46Y-68.66
X92.46Y-71.2
X95.0Y-68.66
X95.0Y-71.2
X97.54Y-68.66
X97.54Y-71.2
X100.08Y-68.66
X100.08Y-71.2
X102.62Y-68.66
X102.62Y-71.2
X105.16Y-68.66
X105.16Y-71.2
T3
X53.0Y-53.2
X110.3Y-53.2
M30
