%TF.GenerationSoftware,KiCad,Pcbnew,10.0.4*%
%TF.CreationDate,2026-08-20T21:58:05+07:00*%
%TF.ProjectId,gpio_breakout,6770696f-5f62-4726-9561-6b6f75742e6b,rev?*%
%TF.SameCoordinates,Original*%
%TF.FileFunction,Legend,Top*%
%TF.FilePolarity,Positive*%
%FSLAX46Y46*%
G04 Gerber Fmt 4.6, Leading zero omitted, Abs format (unit mm)*
G04 Created by KiCad (PCBNEW 10.0.4) date 2026-08-20 21:58:05*
%MOMM*%
%LPD*%
G01*
G04 APERTURE LIST*
%ADD10C,0.150000*%
%ADD11C,0.120000*%
%ADD12C,0.250000*%
%ADD13C,0.060000*%
G04 APERTURE END LIST*
D10*
X55685714Y-75054819D02*
X55114286Y-75054819D01*
X55400000Y-75054819D02*
X55400000Y-74054819D01*
X55400000Y-74054819D02*
X55304762Y-74197676D01*
X55304762Y-74197676D02*
X55209524Y-74292914D01*
X55209524Y-74292914D02*
X55114286Y-74340533D01*
X57166666Y-76388152D02*
X57166666Y-77245295D01*
X57166666Y-77245295D02*
X57119047Y-77340533D01*
X57119047Y-77340533D02*
X57023809Y-77388152D01*
X57023809Y-77388152D02*
X56976190Y-77388152D01*
X57166666Y-76054819D02*
X57119047Y-76102438D01*
X57119047Y-76102438D02*
X57166666Y-76150057D01*
X57166666Y-76150057D02*
X57214285Y-76102438D01*
X57214285Y-76102438D02*
X57166666Y-76054819D01*
X57166666Y-76054819D02*
X57166666Y-76150057D01*
X58071427Y-76388152D02*
X58071427Y-77054819D01*
X57642856Y-76388152D02*
X57642856Y-76911961D01*
X57642856Y-76911961D02*
X57690475Y-77007200D01*
X57690475Y-77007200D02*
X57785713Y-77054819D01*
X57785713Y-77054819D02*
X57928570Y-77054819D01*
X57928570Y-77054819D02*
X58023808Y-77007200D01*
X58023808Y-77007200D02*
X58071427Y-76959580D01*
X58547618Y-77054819D02*
X58547618Y-76388152D01*
X58547618Y-76483390D02*
X58595237Y-76435771D01*
X58595237Y-76435771D02*
X58690475Y-76388152D01*
X58690475Y-76388152D02*
X58833332Y-76388152D01*
X58833332Y-76388152D02*
X58928570Y-76435771D01*
X58928570Y-76435771D02*
X58976189Y-76531009D01*
X58976189Y-76531009D02*
X58976189Y-77054819D01*
X58976189Y-76531009D02*
X59023808Y-76435771D01*
X59023808Y-76435771D02*
X59119046Y-76388152D01*
X59119046Y-76388152D02*
X59261903Y-76388152D01*
X59261903Y-76388152D02*
X59357142Y-76435771D01*
X59357142Y-76435771D02*
X59404761Y-76531009D01*
X59404761Y-76531009D02*
X59404761Y-77054819D01*
X59880951Y-76388152D02*
X59880951Y-77388152D01*
X59880951Y-76435771D02*
X59976189Y-76388152D01*
X59976189Y-76388152D02*
X60166665Y-76388152D01*
X60166665Y-76388152D02*
X60261903Y-76435771D01*
X60261903Y-76435771D02*
X60309522Y-76483390D01*
X60309522Y-76483390D02*
X60357141Y-76578628D01*
X60357141Y-76578628D02*
X60357141Y-76864342D01*
X60357141Y-76864342D02*
X60309522Y-76959580D01*
X60309522Y-76959580D02*
X60261903Y-77007200D01*
X60261903Y-77007200D02*
X60166665Y-77054819D01*
X60166665Y-77054819D02*
X59976189Y-77054819D01*
X59976189Y-77054819D02*
X59880951Y-77007200D01*
X61166665Y-77007200D02*
X61071427Y-77054819D01*
X61071427Y-77054819D02*
X60880951Y-77054819D01*
X60880951Y-77054819D02*
X60785713Y-77007200D01*
X60785713Y-77007200D02*
X60738094Y-76911961D01*
X60738094Y-76911961D02*
X60738094Y-76531009D01*
X60738094Y-76531009D02*
X60785713Y-76435771D01*
X60785713Y-76435771D02*
X60880951Y-76388152D01*
X60880951Y-76388152D02*
X61071427Y-76388152D01*
X61071427Y-76388152D02*
X61166665Y-76435771D01*
X61166665Y-76435771D02*
X61214284Y-76531009D01*
X61214284Y-76531009D02*
X61214284Y-76626247D01*
X61214284Y-76626247D02*
X60738094Y-76721485D01*
X61642856Y-77054819D02*
X61642856Y-76388152D01*
X61642856Y-76578628D02*
X61690475Y-76483390D01*
X61690475Y-76483390D02*
X61738094Y-76435771D01*
X61738094Y-76435771D02*
X61833332Y-76388152D01*
X61833332Y-76388152D02*
X61928570Y-76388152D01*
X62214285Y-77007200D02*
X62309523Y-77054819D01*
X62309523Y-77054819D02*
X62499999Y-77054819D01*
X62499999Y-77054819D02*
X62595237Y-77007200D01*
X62595237Y-77007200D02*
X62642856Y-76911961D01*
X62642856Y-76911961D02*
X62642856Y-76864342D01*
X62642856Y-76864342D02*
X62595237Y-76769104D01*
X62595237Y-76769104D02*
X62499999Y-76721485D01*
X62499999Y-76721485D02*
X62357142Y-76721485D01*
X62357142Y-76721485D02*
X62261904Y-76673866D01*
X62261904Y-76673866D02*
X62214285Y-76578628D01*
X62214285Y-76578628D02*
X62214285Y-76531009D01*
X62214285Y-76531009D02*
X62261904Y-76435771D01*
X62261904Y-76435771D02*
X62357142Y-76388152D01*
X62357142Y-76388152D02*
X62499999Y-76388152D01*
X62499999Y-76388152D02*
X62595237Y-76435771D01*
X63976190Y-77054819D02*
X63880952Y-77007200D01*
X63880952Y-77007200D02*
X63833333Y-76959580D01*
X63833333Y-76959580D02*
X63785714Y-76864342D01*
X63785714Y-76864342D02*
X63785714Y-76578628D01*
X63785714Y-76578628D02*
X63833333Y-76483390D01*
X63833333Y-76483390D02*
X63880952Y-76435771D01*
X63880952Y-76435771D02*
X63976190Y-76388152D01*
X63976190Y-76388152D02*
X64119047Y-76388152D01*
X64119047Y-76388152D02*
X64214285Y-76435771D01*
X64214285Y-76435771D02*
X64261904Y-76483390D01*
X64261904Y-76483390D02*
X64309523Y-76578628D01*
X64309523Y-76578628D02*
X64309523Y-76864342D01*
X64309523Y-76864342D02*
X64261904Y-76959580D01*
X64261904Y-76959580D02*
X64214285Y-77007200D01*
X64214285Y-77007200D02*
X64119047Y-77054819D01*
X64119047Y-77054819D02*
X63976190Y-77054819D01*
X64738095Y-76388152D02*
X64738095Y-77388152D01*
X64738095Y-76435771D02*
X64833333Y-76388152D01*
X64833333Y-76388152D02*
X65023809Y-76388152D01*
X65023809Y-76388152D02*
X65119047Y-76435771D01*
X65119047Y-76435771D02*
X65166666Y-76483390D01*
X65166666Y-76483390D02*
X65214285Y-76578628D01*
X65214285Y-76578628D02*
X65214285Y-76864342D01*
X65214285Y-76864342D02*
X65166666Y-76959580D01*
X65166666Y-76959580D02*
X65119047Y-77007200D01*
X65119047Y-77007200D02*
X65023809Y-77054819D01*
X65023809Y-77054819D02*
X64833333Y-77054819D01*
X64833333Y-77054819D02*
X64738095Y-77007200D01*
X66023809Y-77007200D02*
X65928571Y-77054819D01*
X65928571Y-77054819D02*
X65738095Y-77054819D01*
X65738095Y-77054819D02*
X65642857Y-77007200D01*
X65642857Y-77007200D02*
X65595238Y-76911961D01*
X65595238Y-76911961D02*
X65595238Y-76531009D01*
X65595238Y-76531009D02*
X65642857Y-76435771D01*
X65642857Y-76435771D02*
X65738095Y-76388152D01*
X65738095Y-76388152D02*
X65928571Y-76388152D01*
X65928571Y-76388152D02*
X66023809Y-76435771D01*
X66023809Y-76435771D02*
X66071428Y-76531009D01*
X66071428Y-76531009D02*
X66071428Y-76626247D01*
X66071428Y-76626247D02*
X65595238Y-76721485D01*
X66500000Y-76388152D02*
X66500000Y-77054819D01*
X66500000Y-76483390D02*
X66547619Y-76435771D01*
X66547619Y-76435771D02*
X66642857Y-76388152D01*
X66642857Y-76388152D02*
X66785714Y-76388152D01*
X66785714Y-76388152D02*
X66880952Y-76435771D01*
X66880952Y-76435771D02*
X66928571Y-76531009D01*
X66928571Y-76531009D02*
X66928571Y-77054819D01*
X68166667Y-76531009D02*
X68928572Y-76531009D01*
X68928572Y-76816723D02*
X68166667Y-76816723D01*
X70119048Y-77007200D02*
X70214286Y-77054819D01*
X70214286Y-77054819D02*
X70404762Y-77054819D01*
X70404762Y-77054819D02*
X70500000Y-77007200D01*
X70500000Y-77007200D02*
X70547619Y-76911961D01*
X70547619Y-76911961D02*
X70547619Y-76864342D01*
X70547619Y-76864342D02*
X70500000Y-76769104D01*
X70500000Y-76769104D02*
X70404762Y-76721485D01*
X70404762Y-76721485D02*
X70261905Y-76721485D01*
X70261905Y-76721485D02*
X70166667Y-76673866D01*
X70166667Y-76673866D02*
X70119048Y-76578628D01*
X70119048Y-76578628D02*
X70119048Y-76531009D01*
X70119048Y-76531009D02*
X70166667Y-76435771D01*
X70166667Y-76435771D02*
X70261905Y-76388152D01*
X70261905Y-76388152D02*
X70404762Y-76388152D01*
X70404762Y-76388152D02*
X70500000Y-76435771D01*
X71404762Y-77054819D02*
X71404762Y-76531009D01*
X71404762Y-76531009D02*
X71357143Y-76435771D01*
X71357143Y-76435771D02*
X71261905Y-76388152D01*
X71261905Y-76388152D02*
X71071429Y-76388152D01*
X71071429Y-76388152D02*
X70976191Y-76435771D01*
X71404762Y-77007200D02*
X71309524Y-77054819D01*
X71309524Y-77054819D02*
X71071429Y-77054819D01*
X71071429Y-77054819D02*
X70976191Y-77007200D01*
X70976191Y-77007200D02*
X70928572Y-76911961D01*
X70928572Y-76911961D02*
X70928572Y-76816723D01*
X70928572Y-76816723D02*
X70976191Y-76721485D01*
X70976191Y-76721485D02*
X71071429Y-76673866D01*
X71071429Y-76673866D02*
X71309524Y-76673866D01*
X71309524Y-76673866D02*
X71404762Y-76626247D01*
X71738096Y-76388152D02*
X72119048Y-76388152D01*
X71880953Y-77054819D02*
X71880953Y-76197676D01*
X71880953Y-76197676D02*
X71928572Y-76102438D01*
X71928572Y-76102438D02*
X72023810Y-76054819D01*
X72023810Y-76054819D02*
X72119048Y-76054819D01*
X72833334Y-77007200D02*
X72738096Y-77054819D01*
X72738096Y-77054819D02*
X72547620Y-77054819D01*
X72547620Y-77054819D02*
X72452382Y-77007200D01*
X72452382Y-77007200D02*
X72404763Y-76911961D01*
X72404763Y-76911961D02*
X72404763Y-76531009D01*
X72404763Y-76531009D02*
X72452382Y-76435771D01*
X72452382Y-76435771D02*
X72547620Y-76388152D01*
X72547620Y-76388152D02*
X72738096Y-76388152D01*
X72738096Y-76388152D02*
X72833334Y-76435771D01*
X72833334Y-76435771D02*
X72880953Y-76531009D01*
X72880953Y-76531009D02*
X72880953Y-76626247D01*
X72880953Y-76626247D02*
X72404763Y-76721485D01*
X77357143Y-74854819D02*
X77357143Y-73854819D01*
X77357143Y-73854819D02*
X77738095Y-73854819D01*
X77738095Y-73854819D02*
X77833333Y-73902438D01*
X77833333Y-73902438D02*
X77880952Y-73950057D01*
X77880952Y-73950057D02*
X77928571Y-74045295D01*
X77928571Y-74045295D02*
X77928571Y-74188152D01*
X77928571Y-74188152D02*
X77880952Y-74283390D01*
X77880952Y-74283390D02*
X77833333Y-74331009D01*
X77833333Y-74331009D02*
X77738095Y-74378628D01*
X77738095Y-74378628D02*
X77357143Y-74378628D01*
X78357143Y-74854819D02*
X78357143Y-74188152D01*
X78357143Y-73854819D02*
X78309524Y-73902438D01*
X78309524Y-73902438D02*
X78357143Y-73950057D01*
X78357143Y-73950057D02*
X78404762Y-73902438D01*
X78404762Y-73902438D02*
X78357143Y-73854819D01*
X78357143Y-73854819D02*
X78357143Y-73950057D01*
X80119047Y-73902438D02*
X80023809Y-73854819D01*
X80023809Y-73854819D02*
X79880952Y-73854819D01*
X79880952Y-73854819D02*
X79738095Y-73902438D01*
X79738095Y-73902438D02*
X79642857Y-73997676D01*
X79642857Y-73997676D02*
X79595238Y-74092914D01*
X79595238Y-74092914D02*
X79547619Y-74283390D01*
X79547619Y-74283390D02*
X79547619Y-74426247D01*
X79547619Y-74426247D02*
X79595238Y-74616723D01*
X79595238Y-74616723D02*
X79642857Y-74711961D01*
X79642857Y-74711961D02*
X79738095Y-74807200D01*
X79738095Y-74807200D02*
X79880952Y-74854819D01*
X79880952Y-74854819D02*
X79976190Y-74854819D01*
X79976190Y-74854819D02*
X80119047Y-74807200D01*
X80119047Y-74807200D02*
X80166666Y-74759580D01*
X80166666Y-74759580D02*
X80166666Y-74426247D01*
X80166666Y-74426247D02*
X79976190Y-74426247D01*
X80595238Y-74854819D02*
X80595238Y-73854819D01*
X80595238Y-73854819D02*
X80976190Y-73854819D01*
X80976190Y-73854819D02*
X81071428Y-73902438D01*
X81071428Y-73902438D02*
X81119047Y-73950057D01*
X81119047Y-73950057D02*
X81166666Y-74045295D01*
X81166666Y-74045295D02*
X81166666Y-74188152D01*
X81166666Y-74188152D02*
X81119047Y-74283390D01*
X81119047Y-74283390D02*
X81071428Y-74331009D01*
X81071428Y-74331009D02*
X80976190Y-74378628D01*
X80976190Y-74378628D02*
X80595238Y-74378628D01*
X81595238Y-74854819D02*
X81595238Y-73854819D01*
X82261904Y-73854819D02*
X82452380Y-73854819D01*
X82452380Y-73854819D02*
X82547618Y-73902438D01*
X82547618Y-73902438D02*
X82642856Y-73997676D01*
X82642856Y-73997676D02*
X82690475Y-74188152D01*
X82690475Y-74188152D02*
X82690475Y-74521485D01*
X82690475Y-74521485D02*
X82642856Y-74711961D01*
X82642856Y-74711961D02*
X82547618Y-74807200D01*
X82547618Y-74807200D02*
X82452380Y-74854819D01*
X82452380Y-74854819D02*
X82261904Y-74854819D01*
X82261904Y-74854819D02*
X82166666Y-74807200D01*
X82166666Y-74807200D02*
X82071428Y-74711961D01*
X82071428Y-74711961D02*
X82023809Y-74521485D01*
X82023809Y-74521485D02*
X82023809Y-74188152D01*
X82023809Y-74188152D02*
X82071428Y-73997676D01*
X82071428Y-73997676D02*
X82166666Y-73902438D01*
X82166666Y-73902438D02*
X82261904Y-73854819D01*
X72166665Y-51131009D02*
X71833332Y-51131009D01*
X71833332Y-51654819D02*
X71833332Y-50654819D01*
X71833332Y-50654819D02*
X72309522Y-50654819D01*
X73023808Y-51131009D02*
X72690475Y-51131009D01*
X72690475Y-51654819D02*
X72690475Y-50654819D01*
X72690475Y-50654819D02*
X73166665Y-50654819D01*
X74119046Y-51559580D02*
X74071427Y-51607200D01*
X74071427Y-51607200D02*
X73928570Y-51654819D01*
X73928570Y-51654819D02*
X73833332Y-51654819D01*
X73833332Y-51654819D02*
X73690475Y-51607200D01*
X73690475Y-51607200D02*
X73595237Y-51511961D01*
X73595237Y-51511961D02*
X73547618Y-51416723D01*
X73547618Y-51416723D02*
X73499999Y-51226247D01*
X73499999Y-51226247D02*
X73499999Y-51083390D01*
X73499999Y-51083390D02*
X73547618Y-50892914D01*
X73547618Y-50892914D02*
X73595237Y-50797676D01*
X73595237Y-50797676D02*
X73690475Y-50702438D01*
X73690475Y-50702438D02*
X73833332Y-50654819D01*
X73833332Y-50654819D02*
X73928570Y-50654819D01*
X73928570Y-50654819D02*
X74071427Y-50702438D01*
X74071427Y-50702438D02*
X74119046Y-50750057D01*
X75738094Y-51607200D02*
X75642856Y-51654819D01*
X75642856Y-51654819D02*
X75452380Y-51654819D01*
X75452380Y-51654819D02*
X75357142Y-51607200D01*
X75357142Y-51607200D02*
X75309523Y-51559580D01*
X75309523Y-51559580D02*
X75261904Y-51464342D01*
X75261904Y-51464342D02*
X75261904Y-51178628D01*
X75261904Y-51178628D02*
X75309523Y-51083390D01*
X75309523Y-51083390D02*
X75357142Y-51035771D01*
X75357142Y-51035771D02*
X75452380Y-50988152D01*
X75452380Y-50988152D02*
X75642856Y-50988152D01*
X75642856Y-50988152D02*
X75738094Y-51035771D01*
X76309523Y-51654819D02*
X76214285Y-51607200D01*
X76214285Y-51607200D02*
X76166666Y-51559580D01*
X76166666Y-51559580D02*
X76119047Y-51464342D01*
X76119047Y-51464342D02*
X76119047Y-51178628D01*
X76119047Y-51178628D02*
X76166666Y-51083390D01*
X76166666Y-51083390D02*
X76214285Y-51035771D01*
X76214285Y-51035771D02*
X76309523Y-50988152D01*
X76309523Y-50988152D02*
X76452380Y-50988152D01*
X76452380Y-50988152D02*
X76547618Y-51035771D01*
X76547618Y-51035771D02*
X76595237Y-51083390D01*
X76595237Y-51083390D02*
X76642856Y-51178628D01*
X76642856Y-51178628D02*
X76642856Y-51464342D01*
X76642856Y-51464342D02*
X76595237Y-51559580D01*
X76595237Y-51559580D02*
X76547618Y-51607200D01*
X76547618Y-51607200D02*
X76452380Y-51654819D01*
X76452380Y-51654819D02*
X76309523Y-51654819D01*
X77071428Y-50988152D02*
X77071428Y-51654819D01*
X77071428Y-51083390D02*
X77119047Y-51035771D01*
X77119047Y-51035771D02*
X77214285Y-50988152D01*
X77214285Y-50988152D02*
X77357142Y-50988152D01*
X77357142Y-50988152D02*
X77452380Y-51035771D01*
X77452380Y-51035771D02*
X77499999Y-51131009D01*
X77499999Y-51131009D02*
X77499999Y-51654819D01*
X77833333Y-50988152D02*
X78214285Y-50988152D01*
X77976190Y-50654819D02*
X77976190Y-51511961D01*
X77976190Y-51511961D02*
X78023809Y-51607200D01*
X78023809Y-51607200D02*
X78119047Y-51654819D01*
X78119047Y-51654819D02*
X78214285Y-51654819D01*
X78976190Y-51654819D02*
X78976190Y-51131009D01*
X78976190Y-51131009D02*
X78928571Y-51035771D01*
X78928571Y-51035771D02*
X78833333Y-50988152D01*
X78833333Y-50988152D02*
X78642857Y-50988152D01*
X78642857Y-50988152D02*
X78547619Y-51035771D01*
X78976190Y-51607200D02*
X78880952Y-51654819D01*
X78880952Y-51654819D02*
X78642857Y-51654819D01*
X78642857Y-51654819D02*
X78547619Y-51607200D01*
X78547619Y-51607200D02*
X78500000Y-51511961D01*
X78500000Y-51511961D02*
X78500000Y-51416723D01*
X78500000Y-51416723D02*
X78547619Y-51321485D01*
X78547619Y-51321485D02*
X78642857Y-51273866D01*
X78642857Y-51273866D02*
X78880952Y-51273866D01*
X78880952Y-51273866D02*
X78976190Y-51226247D01*
X79880952Y-51607200D02*
X79785714Y-51654819D01*
X79785714Y-51654819D02*
X79595238Y-51654819D01*
X79595238Y-51654819D02*
X79500000Y-51607200D01*
X79500000Y-51607200D02*
X79452381Y-51559580D01*
X79452381Y-51559580D02*
X79404762Y-51464342D01*
X79404762Y-51464342D02*
X79404762Y-51178628D01*
X79404762Y-51178628D02*
X79452381Y-51083390D01*
X79452381Y-51083390D02*
X79500000Y-51035771D01*
X79500000Y-51035771D02*
X79595238Y-50988152D01*
X79595238Y-50988152D02*
X79785714Y-50988152D01*
X79785714Y-50988152D02*
X79880952Y-51035771D01*
X80166667Y-50988152D02*
X80547619Y-50988152D01*
X80309524Y-50654819D02*
X80309524Y-51511961D01*
X80309524Y-51511961D02*
X80357143Y-51607200D01*
X80357143Y-51607200D02*
X80452381Y-51654819D01*
X80452381Y-51654819D02*
X80547619Y-51654819D01*
X80833334Y-51607200D02*
X80928572Y-51654819D01*
X80928572Y-51654819D02*
X81119048Y-51654819D01*
X81119048Y-51654819D02*
X81214286Y-51607200D01*
X81214286Y-51607200D02*
X81261905Y-51511961D01*
X81261905Y-51511961D02*
X81261905Y-51464342D01*
X81261905Y-51464342D02*
X81214286Y-51369104D01*
X81214286Y-51369104D02*
X81119048Y-51321485D01*
X81119048Y-51321485D02*
X80976191Y-51321485D01*
X80976191Y-51321485D02*
X80880953Y-51273866D01*
X80880953Y-51273866D02*
X80833334Y-51178628D01*
X80833334Y-51178628D02*
X80833334Y-51131009D01*
X80833334Y-51131009D02*
X80880953Y-51035771D01*
X80880953Y-51035771D02*
X80976191Y-50988152D01*
X80976191Y-50988152D02*
X81119048Y-50988152D01*
X81119048Y-50988152D02*
X81214286Y-51035771D01*
X82309525Y-50988152D02*
X82690477Y-50988152D01*
X82452382Y-51654819D02*
X82452382Y-50797676D01*
X82452382Y-50797676D02*
X82500001Y-50702438D01*
X82500001Y-50702438D02*
X82595239Y-50654819D01*
X82595239Y-50654819D02*
X82690477Y-50654819D01*
X83452382Y-51654819D02*
X83452382Y-51131009D01*
X83452382Y-51131009D02*
X83404763Y-51035771D01*
X83404763Y-51035771D02*
X83309525Y-50988152D01*
X83309525Y-50988152D02*
X83119049Y-50988152D01*
X83119049Y-50988152D02*
X83023811Y-51035771D01*
X83452382Y-51607200D02*
X83357144Y-51654819D01*
X83357144Y-51654819D02*
X83119049Y-51654819D01*
X83119049Y-51654819D02*
X83023811Y-51607200D01*
X83023811Y-51607200D02*
X82976192Y-51511961D01*
X82976192Y-51511961D02*
X82976192Y-51416723D01*
X82976192Y-51416723D02*
X83023811Y-51321485D01*
X83023811Y-51321485D02*
X83119049Y-51273866D01*
X83119049Y-51273866D02*
X83357144Y-51273866D01*
X83357144Y-51273866D02*
X83452382Y-51226247D01*
X84357144Y-51607200D02*
X84261906Y-51654819D01*
X84261906Y-51654819D02*
X84071430Y-51654819D01*
X84071430Y-51654819D02*
X83976192Y-51607200D01*
X83976192Y-51607200D02*
X83928573Y-51559580D01*
X83928573Y-51559580D02*
X83880954Y-51464342D01*
X83880954Y-51464342D02*
X83880954Y-51178628D01*
X83880954Y-51178628D02*
X83928573Y-51083390D01*
X83928573Y-51083390D02*
X83976192Y-51035771D01*
X83976192Y-51035771D02*
X84071430Y-50988152D01*
X84071430Y-50988152D02*
X84261906Y-50988152D01*
X84261906Y-50988152D02*
X84357144Y-51035771D01*
X85166668Y-51607200D02*
X85071430Y-51654819D01*
X85071430Y-51654819D02*
X84880954Y-51654819D01*
X84880954Y-51654819D02*
X84785716Y-51607200D01*
X84785716Y-51607200D02*
X84738097Y-51511961D01*
X84738097Y-51511961D02*
X84738097Y-51131009D01*
X84738097Y-51131009D02*
X84785716Y-51035771D01*
X84785716Y-51035771D02*
X84880954Y-50988152D01*
X84880954Y-50988152D02*
X85071430Y-50988152D01*
X85071430Y-50988152D02*
X85166668Y-51035771D01*
X85166668Y-51035771D02*
X85214287Y-51131009D01*
X85214287Y-51131009D02*
X85214287Y-51226247D01*
X85214287Y-51226247D02*
X84738097Y-51321485D01*
X86404764Y-51654819D02*
X86404764Y-50654819D01*
X86404764Y-50654819D02*
X86642859Y-50654819D01*
X86642859Y-50654819D02*
X86785716Y-50702438D01*
X86785716Y-50702438D02*
X86880954Y-50797676D01*
X86880954Y-50797676D02*
X86928573Y-50892914D01*
X86928573Y-50892914D02*
X86976192Y-51083390D01*
X86976192Y-51083390D02*
X86976192Y-51226247D01*
X86976192Y-51226247D02*
X86928573Y-51416723D01*
X86928573Y-51416723D02*
X86880954Y-51511961D01*
X86880954Y-51511961D02*
X86785716Y-51607200D01*
X86785716Y-51607200D02*
X86642859Y-51654819D01*
X86642859Y-51654819D02*
X86404764Y-51654819D01*
X87595240Y-50654819D02*
X87785716Y-50654819D01*
X87785716Y-50654819D02*
X87880954Y-50702438D01*
X87880954Y-50702438D02*
X87976192Y-50797676D01*
X87976192Y-50797676D02*
X88023811Y-50988152D01*
X88023811Y-50988152D02*
X88023811Y-51321485D01*
X88023811Y-51321485D02*
X87976192Y-51511961D01*
X87976192Y-51511961D02*
X87880954Y-51607200D01*
X87880954Y-51607200D02*
X87785716Y-51654819D01*
X87785716Y-51654819D02*
X87595240Y-51654819D01*
X87595240Y-51654819D02*
X87500002Y-51607200D01*
X87500002Y-51607200D02*
X87404764Y-51511961D01*
X87404764Y-51511961D02*
X87357145Y-51321485D01*
X87357145Y-51321485D02*
X87357145Y-50988152D01*
X87357145Y-50988152D02*
X87404764Y-50797676D01*
X87404764Y-50797676D02*
X87500002Y-50702438D01*
X87500002Y-50702438D02*
X87595240Y-50654819D01*
X88357145Y-50654819D02*
X88595240Y-51654819D01*
X88595240Y-51654819D02*
X88785716Y-50940533D01*
X88785716Y-50940533D02*
X88976192Y-51654819D01*
X88976192Y-51654819D02*
X89214288Y-50654819D01*
X89595240Y-51654819D02*
X89595240Y-50654819D01*
X89595240Y-50654819D02*
X90166668Y-51654819D01*
X90166668Y-51654819D02*
X90166668Y-50654819D01*
X73547617Y-58231009D02*
X73214284Y-58231009D01*
X73214284Y-58754819D02*
X73214284Y-57754819D01*
X73214284Y-57754819D02*
X73690474Y-57754819D01*
X74404760Y-58231009D02*
X74071427Y-58231009D01*
X74071427Y-58754819D02*
X74071427Y-57754819D01*
X74071427Y-57754819D02*
X74547617Y-57754819D01*
X75499998Y-58659580D02*
X75452379Y-58707200D01*
X75452379Y-58707200D02*
X75309522Y-58754819D01*
X75309522Y-58754819D02*
X75214284Y-58754819D01*
X75214284Y-58754819D02*
X75071427Y-58707200D01*
X75071427Y-58707200D02*
X74976189Y-58611961D01*
X74976189Y-58611961D02*
X74928570Y-58516723D01*
X74928570Y-58516723D02*
X74880951Y-58326247D01*
X74880951Y-58326247D02*
X74880951Y-58183390D01*
X74880951Y-58183390D02*
X74928570Y-57992914D01*
X74928570Y-57992914D02*
X74976189Y-57897676D01*
X74976189Y-57897676D02*
X75071427Y-57802438D01*
X75071427Y-57802438D02*
X75214284Y-57754819D01*
X75214284Y-57754819D02*
X75309522Y-57754819D01*
X75309522Y-57754819D02*
X75452379Y-57802438D01*
X75452379Y-57802438D02*
X75499998Y-57850057D01*
X76547618Y-58088152D02*
X76928570Y-58088152D01*
X76690475Y-57754819D02*
X76690475Y-58611961D01*
X76690475Y-58611961D02*
X76738094Y-58707200D01*
X76738094Y-58707200D02*
X76833332Y-58754819D01*
X76833332Y-58754819D02*
X76928570Y-58754819D01*
X77404761Y-58754819D02*
X77309523Y-58707200D01*
X77309523Y-58707200D02*
X77261904Y-58659580D01*
X77261904Y-58659580D02*
X77214285Y-58564342D01*
X77214285Y-58564342D02*
X77214285Y-58278628D01*
X77214285Y-58278628D02*
X77261904Y-58183390D01*
X77261904Y-58183390D02*
X77309523Y-58135771D01*
X77309523Y-58135771D02*
X77404761Y-58088152D01*
X77404761Y-58088152D02*
X77547618Y-58088152D01*
X77547618Y-58088152D02*
X77642856Y-58135771D01*
X77642856Y-58135771D02*
X77690475Y-58183390D01*
X77690475Y-58183390D02*
X77738094Y-58278628D01*
X77738094Y-58278628D02*
X77738094Y-58564342D01*
X77738094Y-58564342D02*
X77690475Y-58659580D01*
X77690475Y-58659580D02*
X77642856Y-58707200D01*
X77642856Y-58707200D02*
X77547618Y-58754819D01*
X77547618Y-58754819D02*
X77404761Y-58754819D01*
X79357142Y-58707200D02*
X79261904Y-58754819D01*
X79261904Y-58754819D02*
X79071428Y-58754819D01*
X79071428Y-58754819D02*
X78976190Y-58707200D01*
X78976190Y-58707200D02*
X78928571Y-58659580D01*
X78928571Y-58659580D02*
X78880952Y-58564342D01*
X78880952Y-58564342D02*
X78880952Y-58278628D01*
X78880952Y-58278628D02*
X78928571Y-58183390D01*
X78928571Y-58183390D02*
X78976190Y-58135771D01*
X78976190Y-58135771D02*
X79071428Y-58088152D01*
X79071428Y-58088152D02*
X79261904Y-58088152D01*
X79261904Y-58088152D02*
X79357142Y-58135771D01*
X80214285Y-58754819D02*
X80214285Y-58231009D01*
X80214285Y-58231009D02*
X80166666Y-58135771D01*
X80166666Y-58135771D02*
X80071428Y-58088152D01*
X80071428Y-58088152D02*
X79880952Y-58088152D01*
X79880952Y-58088152D02*
X79785714Y-58135771D01*
X80214285Y-58707200D02*
X80119047Y-58754819D01*
X80119047Y-58754819D02*
X79880952Y-58754819D01*
X79880952Y-58754819D02*
X79785714Y-58707200D01*
X79785714Y-58707200D02*
X79738095Y-58611961D01*
X79738095Y-58611961D02*
X79738095Y-58516723D01*
X79738095Y-58516723D02*
X79785714Y-58421485D01*
X79785714Y-58421485D02*
X79880952Y-58373866D01*
X79880952Y-58373866D02*
X80119047Y-58373866D01*
X80119047Y-58373866D02*
X80214285Y-58326247D01*
X80690476Y-58754819D02*
X80690476Y-58088152D01*
X80690476Y-58278628D02*
X80738095Y-58183390D01*
X80738095Y-58183390D02*
X80785714Y-58135771D01*
X80785714Y-58135771D02*
X80880952Y-58088152D01*
X80880952Y-58088152D02*
X80976190Y-58088152D01*
X81309524Y-58754819D02*
X81309524Y-58088152D01*
X81309524Y-58278628D02*
X81357143Y-58183390D01*
X81357143Y-58183390D02*
X81404762Y-58135771D01*
X81404762Y-58135771D02*
X81500000Y-58088152D01*
X81500000Y-58088152D02*
X81595238Y-58088152D01*
X81928572Y-58754819D02*
X81928572Y-58088152D01*
X81928572Y-57754819D02*
X81880953Y-57802438D01*
X81880953Y-57802438D02*
X81928572Y-57850057D01*
X81928572Y-57850057D02*
X81976191Y-57802438D01*
X81976191Y-57802438D02*
X81928572Y-57754819D01*
X81928572Y-57754819D02*
X81928572Y-57850057D01*
X82785714Y-58707200D02*
X82690476Y-58754819D01*
X82690476Y-58754819D02*
X82500000Y-58754819D01*
X82500000Y-58754819D02*
X82404762Y-58707200D01*
X82404762Y-58707200D02*
X82357143Y-58611961D01*
X82357143Y-58611961D02*
X82357143Y-58231009D01*
X82357143Y-58231009D02*
X82404762Y-58135771D01*
X82404762Y-58135771D02*
X82500000Y-58088152D01*
X82500000Y-58088152D02*
X82690476Y-58088152D01*
X82690476Y-58088152D02*
X82785714Y-58135771D01*
X82785714Y-58135771D02*
X82833333Y-58231009D01*
X82833333Y-58231009D02*
X82833333Y-58326247D01*
X82833333Y-58326247D02*
X82357143Y-58421485D01*
X83261905Y-58754819D02*
X83261905Y-58088152D01*
X83261905Y-58278628D02*
X83309524Y-58183390D01*
X83309524Y-58183390D02*
X83357143Y-58135771D01*
X83357143Y-58135771D02*
X83452381Y-58088152D01*
X83452381Y-58088152D02*
X83547619Y-58088152D01*
X85357143Y-57707200D02*
X84500001Y-58992914D01*
X86928572Y-58754819D02*
X86452382Y-58754819D01*
X86452382Y-58754819D02*
X86452382Y-57754819D01*
X87833334Y-58659580D02*
X87785715Y-58707200D01*
X87785715Y-58707200D02*
X87642858Y-58754819D01*
X87642858Y-58754819D02*
X87547620Y-58754819D01*
X87547620Y-58754819D02*
X87404763Y-58707200D01*
X87404763Y-58707200D02*
X87309525Y-58611961D01*
X87309525Y-58611961D02*
X87261906Y-58516723D01*
X87261906Y-58516723D02*
X87214287Y-58326247D01*
X87214287Y-58326247D02*
X87214287Y-58183390D01*
X87214287Y-58183390D02*
X87261906Y-57992914D01*
X87261906Y-57992914D02*
X87309525Y-57897676D01*
X87309525Y-57897676D02*
X87404763Y-57802438D01*
X87404763Y-57802438D02*
X87547620Y-57754819D01*
X87547620Y-57754819D02*
X87642858Y-57754819D01*
X87642858Y-57754819D02*
X87785715Y-57802438D01*
X87785715Y-57802438D02*
X87833334Y-57850057D01*
X88261906Y-58754819D02*
X88261906Y-57754819D01*
X88261906Y-57754819D02*
X88500001Y-57754819D01*
X88500001Y-57754819D02*
X88642858Y-57802438D01*
X88642858Y-57802438D02*
X88738096Y-57897676D01*
X88738096Y-57897676D02*
X88785715Y-57992914D01*
X88785715Y-57992914D02*
X88833334Y-58183390D01*
X88833334Y-58183390D02*
X88833334Y-58326247D01*
X88833334Y-58326247D02*
X88785715Y-58516723D01*
X88785715Y-58516723D02*
X88738096Y-58611961D01*
X88738096Y-58611961D02*
X88642858Y-58707200D01*
X88642858Y-58707200D02*
X88500001Y-58754819D01*
X88500001Y-58754819D02*
X88261906Y-58754819D01*
X91823810Y-77054819D02*
X91823810Y-76054819D01*
X92300000Y-77054819D02*
X92300000Y-76054819D01*
X92300000Y-76054819D02*
X92538095Y-76054819D01*
X92538095Y-76054819D02*
X92680952Y-76102438D01*
X92680952Y-76102438D02*
X92776190Y-76197676D01*
X92776190Y-76197676D02*
X92823809Y-76292914D01*
X92823809Y-76292914D02*
X92871428Y-76483390D01*
X92871428Y-76483390D02*
X92871428Y-76626247D01*
X92871428Y-76626247D02*
X92823809Y-76816723D01*
X92823809Y-76816723D02*
X92776190Y-76911961D01*
X92776190Y-76911961D02*
X92680952Y-77007200D01*
X92680952Y-77007200D02*
X92538095Y-77054819D01*
X92538095Y-77054819D02*
X92300000Y-77054819D01*
X93490476Y-76054819D02*
X93585714Y-76054819D01*
X93585714Y-76054819D02*
X93680952Y-76102438D01*
X93680952Y-76102438D02*
X93728571Y-76150057D01*
X93728571Y-76150057D02*
X93776190Y-76245295D01*
X93776190Y-76245295D02*
X93823809Y-76435771D01*
X93823809Y-76435771D02*
X93823809Y-76673866D01*
X93823809Y-76673866D02*
X93776190Y-76864342D01*
X93776190Y-76864342D02*
X93728571Y-76959580D01*
X93728571Y-76959580D02*
X93680952Y-77007200D01*
X93680952Y-77007200D02*
X93585714Y-77054819D01*
X93585714Y-77054819D02*
X93490476Y-77054819D01*
X93490476Y-77054819D02*
X93395238Y-77007200D01*
X93395238Y-77007200D02*
X93347619Y-76959580D01*
X93347619Y-76959580D02*
X93300000Y-76864342D01*
X93300000Y-76864342D02*
X93252381Y-76673866D01*
X93252381Y-76673866D02*
X93252381Y-76435771D01*
X93252381Y-76435771D02*
X93300000Y-76245295D01*
X93300000Y-76245295D02*
X93347619Y-76150057D01*
X93347619Y-76150057D02*
X93395238Y-76102438D01*
X93395238Y-76102438D02*
X93490476Y-76054819D01*
X97423810Y-77054819D02*
X97423810Y-76054819D01*
X97900000Y-77054819D02*
X97900000Y-76054819D01*
X97900000Y-76054819D02*
X98138095Y-76054819D01*
X98138095Y-76054819D02*
X98280952Y-76102438D01*
X98280952Y-76102438D02*
X98376190Y-76197676D01*
X98376190Y-76197676D02*
X98423809Y-76292914D01*
X98423809Y-76292914D02*
X98471428Y-76483390D01*
X98471428Y-76483390D02*
X98471428Y-76626247D01*
X98471428Y-76626247D02*
X98423809Y-76816723D01*
X98423809Y-76816723D02*
X98376190Y-76911961D01*
X98376190Y-76911961D02*
X98280952Y-77007200D01*
X98280952Y-77007200D02*
X98138095Y-77054819D01*
X98138095Y-77054819D02*
X97900000Y-77054819D01*
X99423809Y-77054819D02*
X98852381Y-77054819D01*
X99138095Y-77054819D02*
X99138095Y-76054819D01*
X99138095Y-76054819D02*
X99042857Y-76197676D01*
X99042857Y-76197676D02*
X98947619Y-76292914D01*
X98947619Y-76292914D02*
X98852381Y-76340533D01*
X102400000Y-77054819D02*
X102400000Y-76054819D01*
X102876190Y-77054819D02*
X102876190Y-76054819D01*
X102876190Y-76054819D02*
X103447618Y-77054819D01*
X103447618Y-77054819D02*
X103447618Y-76054819D01*
X103876190Y-77007200D02*
X104019047Y-77054819D01*
X104019047Y-77054819D02*
X104257142Y-77054819D01*
X104257142Y-77054819D02*
X104352380Y-77007200D01*
X104352380Y-77007200D02*
X104399999Y-76959580D01*
X104399999Y-76959580D02*
X104447618Y-76864342D01*
X104447618Y-76864342D02*
X104447618Y-76769104D01*
X104447618Y-76769104D02*
X104399999Y-76673866D01*
X104399999Y-76673866D02*
X104352380Y-76626247D01*
X104352380Y-76626247D02*
X104257142Y-76578628D01*
X104257142Y-76578628D02*
X104066666Y-76531009D01*
X104066666Y-76531009D02*
X103971428Y-76483390D01*
X103971428Y-76483390D02*
X103923809Y-76435771D01*
X103923809Y-76435771D02*
X103876190Y-76340533D01*
X103876190Y-76340533D02*
X103876190Y-76245295D01*
X103876190Y-76245295D02*
X103923809Y-76150057D01*
X103923809Y-76150057D02*
X103971428Y-76102438D01*
X103971428Y-76102438D02*
X104066666Y-76054819D01*
X104066666Y-76054819D02*
X104304761Y-76054819D01*
X104304761Y-76054819D02*
X104447618Y-76102438D01*
X107361905Y-72654819D02*
X107980952Y-72654819D01*
X107980952Y-72654819D02*
X107647619Y-73035771D01*
X107647619Y-73035771D02*
X107790476Y-73035771D01*
X107790476Y-73035771D02*
X107885714Y-73083390D01*
X107885714Y-73083390D02*
X107933333Y-73131009D01*
X107933333Y-73131009D02*
X107980952Y-73226247D01*
X107980952Y-73226247D02*
X107980952Y-73464342D01*
X107980952Y-73464342D02*
X107933333Y-73559580D01*
X107933333Y-73559580D02*
X107885714Y-73607200D01*
X107885714Y-73607200D02*
X107790476Y-73654819D01*
X107790476Y-73654819D02*
X107504762Y-73654819D01*
X107504762Y-73654819D02*
X107409524Y-73607200D01*
X107409524Y-73607200D02*
X107361905Y-73559580D01*
X108266667Y-72654819D02*
X108600000Y-73654819D01*
X108600000Y-73654819D02*
X108933333Y-72654819D01*
X109171429Y-72654819D02*
X109790476Y-72654819D01*
X109790476Y-72654819D02*
X109457143Y-73035771D01*
X109457143Y-73035771D02*
X109600000Y-73035771D01*
X109600000Y-73035771D02*
X109695238Y-73083390D01*
X109695238Y-73083390D02*
X109742857Y-73131009D01*
X109742857Y-73131009D02*
X109790476Y-73226247D01*
X109790476Y-73226247D02*
X109790476Y-73464342D01*
X109790476Y-73464342D02*
X109742857Y-73559580D01*
X109742857Y-73559580D02*
X109695238Y-73607200D01*
X109695238Y-73607200D02*
X109600000Y-73654819D01*
X109600000Y-73654819D02*
X109314286Y-73654819D01*
X109314286Y-73654819D02*
X109219048Y-73607200D01*
X109219048Y-73607200D02*
X109171429Y-73559580D01*
X110238095Y-75702438D02*
X110142857Y-75654819D01*
X110142857Y-75654819D02*
X110000000Y-75654819D01*
X110000000Y-75654819D02*
X109857143Y-75702438D01*
X109857143Y-75702438D02*
X109761905Y-75797676D01*
X109761905Y-75797676D02*
X109714286Y-75892914D01*
X109714286Y-75892914D02*
X109666667Y-76083390D01*
X109666667Y-76083390D02*
X109666667Y-76226247D01*
X109666667Y-76226247D02*
X109714286Y-76416723D01*
X109714286Y-76416723D02*
X109761905Y-76511961D01*
X109761905Y-76511961D02*
X109857143Y-76607200D01*
X109857143Y-76607200D02*
X110000000Y-76654819D01*
X110000000Y-76654819D02*
X110095238Y-76654819D01*
X110095238Y-76654819D02*
X110238095Y-76607200D01*
X110238095Y-76607200D02*
X110285714Y-76559580D01*
X110285714Y-76559580D02*
X110285714Y-76226247D01*
X110285714Y-76226247D02*
X110095238Y-76226247D01*
X110714286Y-76654819D02*
X110714286Y-75654819D01*
X110714286Y-75654819D02*
X111285714Y-76654819D01*
X111285714Y-76654819D02*
X111285714Y-75654819D01*
X111761905Y-76654819D02*
X111761905Y-75654819D01*
X111761905Y-75654819D02*
X112000000Y-75654819D01*
X112000000Y-75654819D02*
X112142857Y-75702438D01*
X112142857Y-75702438D02*
X112238095Y-75797676D01*
X112238095Y-75797676D02*
X112285714Y-75892914D01*
X112285714Y-75892914D02*
X112333333Y-76083390D01*
X112333333Y-76083390D02*
X112333333Y-76226247D01*
X112333333Y-76226247D02*
X112285714Y-76416723D01*
X112285714Y-76416723D02*
X112238095Y-76511961D01*
X112238095Y-76511961D02*
X112142857Y-76607200D01*
X112142857Y-76607200D02*
X112000000Y-76654819D01*
X112000000Y-76654819D02*
X111761905Y-76654819D01*
X94738095Y-77806819D02*
X95309523Y-77806819D01*
X95023809Y-78806819D02*
X95023809Y-77806819D01*
X95642857Y-78806819D02*
X95642857Y-77806819D01*
X95642857Y-77806819D02*
X96023809Y-77806819D01*
X96023809Y-77806819D02*
X96119047Y-77854438D01*
X96119047Y-77854438D02*
X96166666Y-77902057D01*
X96166666Y-77902057D02*
X96214285Y-77997295D01*
X96214285Y-77997295D02*
X96214285Y-78140152D01*
X96214285Y-78140152D02*
X96166666Y-78235390D01*
X96166666Y-78235390D02*
X96119047Y-78283009D01*
X96119047Y-78283009D02*
X96023809Y-78330628D01*
X96023809Y-78330628D02*
X95642857Y-78330628D01*
X97166666Y-78806819D02*
X96595238Y-78806819D01*
X96880952Y-78806819D02*
X96880952Y-77806819D01*
X96880952Y-77806819D02*
X96785714Y-77949676D01*
X96785714Y-77949676D02*
X96690476Y-78044914D01*
X96690476Y-78044914D02*
X96595238Y-78092533D01*
X95166666Y-74254819D02*
X95166666Y-74969104D01*
X95166666Y-74969104D02*
X95119047Y-75111961D01*
X95119047Y-75111961D02*
X95023809Y-75207200D01*
X95023809Y-75207200D02*
X94880952Y-75254819D01*
X94880952Y-75254819D02*
X94785714Y-75254819D01*
X95642857Y-75254819D02*
X95642857Y-74254819D01*
X95642857Y-74254819D02*
X96023809Y-74254819D01*
X96023809Y-74254819D02*
X96119047Y-74302438D01*
X96119047Y-74302438D02*
X96166666Y-74350057D01*
X96166666Y-74350057D02*
X96214285Y-74445295D01*
X96214285Y-74445295D02*
X96214285Y-74588152D01*
X96214285Y-74588152D02*
X96166666Y-74683390D01*
X96166666Y-74683390D02*
X96119047Y-74731009D01*
X96119047Y-74731009D02*
X96023809Y-74778628D01*
X96023809Y-74778628D02*
X95642857Y-74778628D01*
X97166666Y-75254819D02*
X96595238Y-75254819D01*
X96880952Y-75254819D02*
X96880952Y-74254819D01*
X96880952Y-74254819D02*
X96785714Y-74397676D01*
X96785714Y-74397676D02*
X96690476Y-74492914D01*
X96690476Y-74492914D02*
X96595238Y-74540533D01*
X50954819Y-59033333D02*
X51669104Y-59033333D01*
X51669104Y-59033333D02*
X51811961Y-59080952D01*
X51811961Y-59080952D02*
X51907200Y-59176190D01*
X51907200Y-59176190D02*
X51954819Y-59319047D01*
X51954819Y-59319047D02*
X51954819Y-59414285D01*
X51954819Y-58557142D02*
X50954819Y-58557142D01*
X50954819Y-58557142D02*
X50954819Y-58176190D01*
X50954819Y-58176190D02*
X51002438Y-58080952D01*
X51002438Y-58080952D02*
X51050057Y-58033333D01*
X51050057Y-58033333D02*
X51145295Y-57985714D01*
X51145295Y-57985714D02*
X51288152Y-57985714D01*
X51288152Y-57985714D02*
X51383390Y-58033333D01*
X51383390Y-58033333D02*
X51431009Y-58080952D01*
X51431009Y-58080952D02*
X51478628Y-58176190D01*
X51478628Y-58176190D02*
X51478628Y-58557142D01*
X51288152Y-57128571D02*
X51954819Y-57128571D01*
X50907200Y-57366666D02*
X51621485Y-57604761D01*
X51621485Y-57604761D02*
X51621485Y-56985714D01*
X51401009Y-62933333D02*
X51401009Y-63266666D01*
X51924819Y-63266666D02*
X50924819Y-63266666D01*
X50924819Y-63266666D02*
X50924819Y-62790476D01*
X51924819Y-61885714D02*
X51924819Y-62457142D01*
X51924819Y-62171428D02*
X50924819Y-62171428D01*
X50924819Y-62171428D02*
X51067676Y-62266666D01*
X51067676Y-62266666D02*
X51162914Y-62361904D01*
X51162914Y-62361904D02*
X51210533Y-62457142D01*
X105166666Y-74254819D02*
X105166666Y-74969104D01*
X105166666Y-74969104D02*
X105119047Y-75111961D01*
X105119047Y-75111961D02*
X105023809Y-75207200D01*
X105023809Y-75207200D02*
X104880952Y-75254819D01*
X104880952Y-75254819D02*
X104785714Y-75254819D01*
X105642857Y-75254819D02*
X105642857Y-74254819D01*
X105642857Y-74254819D02*
X106023809Y-74254819D01*
X106023809Y-74254819D02*
X106119047Y-74302438D01*
X106119047Y-74302438D02*
X106166666Y-74350057D01*
X106166666Y-74350057D02*
X106214285Y-74445295D01*
X106214285Y-74445295D02*
X106214285Y-74588152D01*
X106214285Y-74588152D02*
X106166666Y-74683390D01*
X106166666Y-74683390D02*
X106119047Y-74731009D01*
X106119047Y-74731009D02*
X106023809Y-74778628D01*
X106023809Y-74778628D02*
X105642857Y-74778628D01*
X106547619Y-74254819D02*
X107166666Y-74254819D01*
X107166666Y-74254819D02*
X106833333Y-74635771D01*
X106833333Y-74635771D02*
X106976190Y-74635771D01*
X106976190Y-74635771D02*
X107071428Y-74683390D01*
X107071428Y-74683390D02*
X107119047Y-74731009D01*
X107119047Y-74731009D02*
X107166666Y-74826247D01*
X107166666Y-74826247D02*
X107166666Y-75064342D01*
X107166666Y-75064342D02*
X107119047Y-75159580D01*
X107119047Y-75159580D02*
X107071428Y-75207200D01*
X107071428Y-75207200D02*
X106976190Y-75254819D01*
X106976190Y-75254819D02*
X106690476Y-75254819D01*
X106690476Y-75254819D02*
X106595238Y-75207200D01*
X106595238Y-75207200D02*
X106547619Y-75159580D01*
X109738095Y-77806819D02*
X110309523Y-77806819D01*
X110023809Y-78806819D02*
X110023809Y-77806819D01*
X110642857Y-78806819D02*
X110642857Y-77806819D01*
X110642857Y-77806819D02*
X111023809Y-77806819D01*
X111023809Y-77806819D02*
X111119047Y-77854438D01*
X111119047Y-77854438D02*
X111166666Y-77902057D01*
X111166666Y-77902057D02*
X111214285Y-77997295D01*
X111214285Y-77997295D02*
X111214285Y-78140152D01*
X111214285Y-78140152D02*
X111166666Y-78235390D01*
X111166666Y-78235390D02*
X111119047Y-78283009D01*
X111119047Y-78283009D02*
X111023809Y-78330628D01*
X111023809Y-78330628D02*
X110642857Y-78330628D01*
X112071428Y-78140152D02*
X112071428Y-78806819D01*
X111833333Y-77759200D02*
X111595238Y-78473485D01*
X111595238Y-78473485D02*
X112214285Y-78473485D01*
X100166666Y-74254819D02*
X100166666Y-74969104D01*
X100166666Y-74969104D02*
X100119047Y-75111961D01*
X100119047Y-75111961D02*
X100023809Y-75207200D01*
X100023809Y-75207200D02*
X99880952Y-75254819D01*
X99880952Y-75254819D02*
X99785714Y-75254819D01*
X100642857Y-75254819D02*
X100642857Y-74254819D01*
X100642857Y-74254819D02*
X101023809Y-74254819D01*
X101023809Y-74254819D02*
X101119047Y-74302438D01*
X101119047Y-74302438D02*
X101166666Y-74350057D01*
X101166666Y-74350057D02*
X101214285Y-74445295D01*
X101214285Y-74445295D02*
X101214285Y-74588152D01*
X101214285Y-74588152D02*
X101166666Y-74683390D01*
X101166666Y-74683390D02*
X101119047Y-74731009D01*
X101119047Y-74731009D02*
X101023809Y-74778628D01*
X101023809Y-74778628D02*
X100642857Y-74778628D01*
X101595238Y-74350057D02*
X101642857Y-74302438D01*
X101642857Y-74302438D02*
X101738095Y-74254819D01*
X101738095Y-74254819D02*
X101976190Y-74254819D01*
X101976190Y-74254819D02*
X102071428Y-74302438D01*
X102071428Y-74302438D02*
X102119047Y-74350057D01*
X102119047Y-74350057D02*
X102166666Y-74445295D01*
X102166666Y-74445295D02*
X102166666Y-74540533D01*
X102166666Y-74540533D02*
X102119047Y-74683390D01*
X102119047Y-74683390D02*
X101547619Y-75254819D01*
X101547619Y-75254819D02*
X102166666Y-75254819D01*
X109538095Y-50004819D02*
X109538095Y-49004819D01*
X109538095Y-49481009D02*
X110109523Y-49481009D01*
X110109523Y-50004819D02*
X110109523Y-49004819D01*
X110538095Y-49100057D02*
X110585714Y-49052438D01*
X110585714Y-49052438D02*
X110680952Y-49004819D01*
X110680952Y-49004819D02*
X110919047Y-49004819D01*
X110919047Y-49004819D02*
X111014285Y-49052438D01*
X111014285Y-49052438D02*
X111061904Y-49100057D01*
X111061904Y-49100057D02*
X111109523Y-49195295D01*
X111109523Y-49195295D02*
X111109523Y-49290533D01*
X111109523Y-49290533D02*
X111061904Y-49433390D01*
X111061904Y-49433390D02*
X110490476Y-50004819D01*
X110490476Y-50004819D02*
X111109523Y-50004819D01*
X99738095Y-77806819D02*
X100309523Y-77806819D01*
X100023809Y-78806819D02*
X100023809Y-77806819D01*
X100642857Y-78806819D02*
X100642857Y-77806819D01*
X100642857Y-77806819D02*
X101023809Y-77806819D01*
X101023809Y-77806819D02*
X101119047Y-77854438D01*
X101119047Y-77854438D02*
X101166666Y-77902057D01*
X101166666Y-77902057D02*
X101214285Y-77997295D01*
X101214285Y-77997295D02*
X101214285Y-78140152D01*
X101214285Y-78140152D02*
X101166666Y-78235390D01*
X101166666Y-78235390D02*
X101119047Y-78283009D01*
X101119047Y-78283009D02*
X101023809Y-78330628D01*
X101023809Y-78330628D02*
X100642857Y-78330628D01*
X101595238Y-77902057D02*
X101642857Y-77854438D01*
X101642857Y-77854438D02*
X101738095Y-77806819D01*
X101738095Y-77806819D02*
X101976190Y-77806819D01*
X101976190Y-77806819D02*
X102071428Y-77854438D01*
X102071428Y-77854438D02*
X102119047Y-77902057D01*
X102119047Y-77902057D02*
X102166666Y-77997295D01*
X102166666Y-77997295D02*
X102166666Y-78092533D01*
X102166666Y-78092533D02*
X102119047Y-78235390D01*
X102119047Y-78235390D02*
X101547619Y-78806819D01*
X101547619Y-78806819D02*
X102166666Y-78806819D01*
X52238095Y-50004819D02*
X52238095Y-49004819D01*
X52238095Y-49481009D02*
X52809523Y-49481009D01*
X52809523Y-50004819D02*
X52809523Y-49004819D01*
X53809523Y-50004819D02*
X53238095Y-50004819D01*
X53523809Y-50004819D02*
X53523809Y-49004819D01*
X53523809Y-49004819D02*
X53428571Y-49147676D01*
X53428571Y-49147676D02*
X53333333Y-49242914D01*
X53333333Y-49242914D02*
X53238095Y-49290533D01*
X109738095Y-74406819D02*
X110309523Y-74406819D01*
X110023809Y-75406819D02*
X110023809Y-74406819D01*
X110642857Y-75406819D02*
X110642857Y-74406819D01*
X110642857Y-74406819D02*
X111023809Y-74406819D01*
X111023809Y-74406819D02*
X111119047Y-74454438D01*
X111119047Y-74454438D02*
X111166666Y-74502057D01*
X111166666Y-74502057D02*
X111214285Y-74597295D01*
X111214285Y-74597295D02*
X111214285Y-74740152D01*
X111214285Y-74740152D02*
X111166666Y-74835390D01*
X111166666Y-74835390D02*
X111119047Y-74883009D01*
X111119047Y-74883009D02*
X111023809Y-74930628D01*
X111023809Y-74930628D02*
X110642857Y-74930628D01*
X112119047Y-74406819D02*
X111642857Y-74406819D01*
X111642857Y-74406819D02*
X111595238Y-74883009D01*
X111595238Y-74883009D02*
X111642857Y-74835390D01*
X111642857Y-74835390D02*
X111738095Y-74787771D01*
X111738095Y-74787771D02*
X111976190Y-74787771D01*
X111976190Y-74787771D02*
X112071428Y-74835390D01*
X112071428Y-74835390D02*
X112119047Y-74883009D01*
X112119047Y-74883009D02*
X112166666Y-74978247D01*
X112166666Y-74978247D02*
X112166666Y-75216342D01*
X112166666Y-75216342D02*
X112119047Y-75311580D01*
X112119047Y-75311580D02*
X112071428Y-75359200D01*
X112071428Y-75359200D02*
X111976190Y-75406819D01*
X111976190Y-75406819D02*
X111738095Y-75406819D01*
X111738095Y-75406819D02*
X111642857Y-75359200D01*
X111642857Y-75359200D02*
X111595238Y-75311580D01*
X50954819Y-67833333D02*
X51669104Y-67833333D01*
X51669104Y-67833333D02*
X51811961Y-67880952D01*
X51811961Y-67880952D02*
X51907200Y-67976190D01*
X51907200Y-67976190D02*
X51954819Y-68119047D01*
X51954819Y-68119047D02*
X51954819Y-68214285D01*
X51954819Y-67357142D02*
X50954819Y-67357142D01*
X50954819Y-67357142D02*
X50954819Y-66976190D01*
X50954819Y-66976190D02*
X51002438Y-66880952D01*
X51002438Y-66880952D02*
X51050057Y-66833333D01*
X51050057Y-66833333D02*
X51145295Y-66785714D01*
X51145295Y-66785714D02*
X51288152Y-66785714D01*
X51288152Y-66785714D02*
X51383390Y-66833333D01*
X51383390Y-66833333D02*
X51431009Y-66880952D01*
X51431009Y-66880952D02*
X51478628Y-66976190D01*
X51478628Y-66976190D02*
X51478628Y-67357142D01*
X50954819Y-65880952D02*
X50954819Y-66357142D01*
X50954819Y-66357142D02*
X51431009Y-66404761D01*
X51431009Y-66404761D02*
X51383390Y-66357142D01*
X51383390Y-66357142D02*
X51335771Y-66261904D01*
X51335771Y-66261904D02*
X51335771Y-66023809D01*
X51335771Y-66023809D02*
X51383390Y-65928571D01*
X51383390Y-65928571D02*
X51431009Y-65880952D01*
X51431009Y-65880952D02*
X51526247Y-65833333D01*
X51526247Y-65833333D02*
X51764342Y-65833333D01*
X51764342Y-65833333D02*
X51859580Y-65880952D01*
X51859580Y-65880952D02*
X51907200Y-65928571D01*
X51907200Y-65928571D02*
X51954819Y-66023809D01*
X51954819Y-66023809D02*
X51954819Y-66261904D01*
X51954819Y-66261904D02*
X51907200Y-66357142D01*
X51907200Y-66357142D02*
X51859580Y-66404761D01*
X104738095Y-77806819D02*
X105309523Y-77806819D01*
X105023809Y-78806819D02*
X105023809Y-77806819D01*
X105642857Y-78806819D02*
X105642857Y-77806819D01*
X105642857Y-77806819D02*
X106023809Y-77806819D01*
X106023809Y-77806819D02*
X106119047Y-77854438D01*
X106119047Y-77854438D02*
X106166666Y-77902057D01*
X106166666Y-77902057D02*
X106214285Y-77997295D01*
X106214285Y-77997295D02*
X106214285Y-78140152D01*
X106214285Y-78140152D02*
X106166666Y-78235390D01*
X106166666Y-78235390D02*
X106119047Y-78283009D01*
X106119047Y-78283009D02*
X106023809Y-78330628D01*
X106023809Y-78330628D02*
X105642857Y-78330628D01*
X106547619Y-77806819D02*
X107166666Y-77806819D01*
X107166666Y-77806819D02*
X106833333Y-78187771D01*
X106833333Y-78187771D02*
X106976190Y-78187771D01*
X106976190Y-78187771D02*
X107071428Y-78235390D01*
X107071428Y-78235390D02*
X107119047Y-78283009D01*
X107119047Y-78283009D02*
X107166666Y-78378247D01*
X107166666Y-78378247D02*
X107166666Y-78616342D01*
X107166666Y-78616342D02*
X107119047Y-78711580D01*
X107119047Y-78711580D02*
X107071428Y-78759200D01*
X107071428Y-78759200D02*
X106976190Y-78806819D01*
X106976190Y-78806819D02*
X106690476Y-78806819D01*
X106690476Y-78806819D02*
X106595238Y-78759200D01*
X106595238Y-78759200D02*
X106547619Y-78711580D01*
%TO.C,TP1*%
D11*
X95050000Y-79050000D02*
X96950000Y-79050000D01*
X95050000Y-80950000D02*
X95050000Y-79050000D01*
X96950000Y-79050000D02*
X96950000Y-80950000D01*
X96950000Y-80950000D02*
X95050000Y-80950000D01*
%TO.C,JP1*%
X94600000Y-76900000D02*
X94600000Y-76300000D01*
X95300000Y-75600000D02*
X96700000Y-75600000D01*
X96700000Y-77600000D02*
X95300000Y-77600000D01*
X97400000Y-76300000D02*
X97400000Y-76900000D01*
X94600000Y-76300000D02*
G75*
G02*
X95300000Y-75600000I699999J1D01*
G01*
X95300000Y-77600000D02*
G75*
G02*
X94600000Y-76900000I-1J699999D01*
G01*
X96700000Y-75600000D02*
G75*
G02*
X97400000Y-76300000I0J-700000D01*
G01*
X97400000Y-76900000D02*
G75*
G02*
X96700000Y-77600000I-700000J0D01*
G01*
%TO.C,JP4*%
X52300000Y-58900000D02*
X52300000Y-57500000D01*
X53000000Y-56800000D02*
X53600000Y-56800000D01*
X53600000Y-59600000D02*
X53000000Y-59600000D01*
X54300000Y-57500000D02*
X54300000Y-58900000D01*
X52300000Y-57500000D02*
G75*
G02*
X53000000Y-56800000I700000J0D01*
G01*
X53000000Y-59600000D02*
G75*
G02*
X52300000Y-58900000I-1J699999D01*
G01*
X53600000Y-56800000D02*
G75*
G02*
X54300000Y-57500000I0J-700000D01*
G01*
X54300000Y-58900000D02*
G75*
G02*
X53600000Y-59600000I-699999J-1D01*
G01*
%TO.C,J1*%
D12*
X69000000Y-51000000D02*
X69570000Y-51000000D01*
X69000000Y-56460000D02*
X69000000Y-51000000D01*
X70890000Y-56450000D02*
X69000000Y-56450000D01*
X71820000Y-51000000D02*
X70430000Y-51000000D01*
X74320000Y-51000000D02*
X72680000Y-51000000D01*
X76820000Y-51000000D02*
X75180000Y-51000000D01*
X79320000Y-51000000D02*
X77680000Y-51000000D01*
X81820000Y-51000000D02*
X80180000Y-51000000D01*
X84320000Y-51000000D02*
X82680000Y-51000000D01*
X86820000Y-51000000D02*
X85180000Y-51000000D01*
X89320000Y-51000000D02*
X87680000Y-51000000D01*
X91570000Y-51000000D02*
X90180000Y-51000000D01*
X92430000Y-51000000D02*
X93000000Y-51000000D01*
X93000000Y-51000000D02*
X93000000Y-56450000D01*
X93000000Y-56450000D02*
X91110000Y-56450000D01*
X92150000Y-56940000D02*
G75*
G02*
X91750000Y-56940000I-200000J0D01*
G01*
X91750000Y-56940000D02*
G75*
G02*
X92150000Y-56940000I200000J0D01*
G01*
D13*
X93030000Y-56960000D02*
G75*
G02*
X92970000Y-56960000I-30000J0D01*
G01*
X92970000Y-56960000D02*
G75*
G02*
X93030000Y-56960000I30000J0D01*
G01*
%TO.C,F1*%
D11*
X52390000Y-63202064D02*
X52390000Y-61997936D01*
X54210000Y-63202064D02*
X54210000Y-61997936D01*
%TO.C,JP3*%
X104600000Y-76900000D02*
X104600000Y-76300000D01*
X105300000Y-75600000D02*
X106700000Y-75600000D01*
X106700000Y-77600000D02*
X105300000Y-77600000D01*
X107400000Y-76300000D02*
X107400000Y-76900000D01*
X104600000Y-76300000D02*
G75*
G02*
X105300000Y-75600000I699999J1D01*
G01*
X105300000Y-77600000D02*
G75*
G02*
X104600000Y-76900000I-1J699999D01*
G01*
X106700000Y-75600000D02*
G75*
G02*
X107400000Y-76300000I0J-700000D01*
G01*
X107400000Y-76900000D02*
G75*
G02*
X106700000Y-77600000I-700000J0D01*
G01*
%TO.C,TP4*%
X110050000Y-79050000D02*
X111950000Y-79050000D01*
X110050000Y-80950000D02*
X110050000Y-79050000D01*
X111950000Y-79050000D02*
X111950000Y-80950000D01*
X111950000Y-80950000D02*
X110050000Y-80950000D01*
%TO.C,JP2*%
X99600000Y-76900000D02*
X99600000Y-76300000D01*
X100300000Y-75600000D02*
X101700000Y-75600000D01*
X101700000Y-77600000D02*
X100300000Y-77600000D01*
X102400000Y-76300000D02*
X102400000Y-76900000D01*
X99600000Y-76300000D02*
G75*
G02*
X100300000Y-75600000I699999J1D01*
G01*
X100300000Y-77600000D02*
G75*
G02*
X99600000Y-76900000I-1J699999D01*
G01*
X101700000Y-75600000D02*
G75*
G02*
X102400000Y-76300000I0J-700000D01*
G01*
X102400000Y-76900000D02*
G75*
G02*
X101700000Y-77600000I-700000J0D01*
G01*
%TO.C,TP2*%
X100050000Y-79050000D02*
X101950000Y-79050000D01*
X100050000Y-80950000D02*
X100050000Y-79050000D01*
X101950000Y-79050000D02*
X101950000Y-80950000D01*
X101950000Y-80950000D02*
X100050000Y-80950000D01*
%TO.C,J2*%
X55520000Y-67280000D02*
X106540000Y-67280000D01*
X55520000Y-69930000D02*
X55520000Y-67280000D01*
X55520000Y-72580000D02*
X55520000Y-71200000D01*
X56900000Y-72580000D02*
X55520000Y-72580000D01*
X58170000Y-69930000D02*
X55520000Y-69930000D01*
X58170000Y-72580000D02*
X58170000Y-69930000D01*
X58170000Y-72580000D02*
X106540000Y-72580000D01*
X106540000Y-72580000D02*
X106540000Y-67280000D01*
%TO.C,TP5*%
X110050000Y-75650000D02*
X111950000Y-75650000D01*
X110050000Y-77550000D02*
X110050000Y-75650000D01*
X111950000Y-75650000D02*
X111950000Y-77550000D01*
X111950000Y-77550000D02*
X110050000Y-77550000D01*
%TO.C,JP5*%
X52300000Y-67700000D02*
X52300000Y-66300000D01*
X53000000Y-65600000D02*
X53600000Y-65600000D01*
X53600000Y-68400000D02*
X53000000Y-68400000D01*
X54300000Y-66300000D02*
X54300000Y-67700000D01*
X52300000Y-66300000D02*
G75*
G02*
X53000000Y-65600000I700000J0D01*
G01*
X53000000Y-68400000D02*
G75*
G02*
X52300000Y-67700000I-1J699999D01*
G01*
X53600000Y-65600000D02*
G75*
G02*
X54300000Y-66300000I0J-700000D01*
G01*
X54300000Y-67700000D02*
G75*
G02*
X53600000Y-68400000I-699999J-1D01*
G01*
%TO.C,TP3*%
X105050000Y-79050000D02*
X106950000Y-79050000D01*
X105050000Y-80950000D02*
X105050000Y-79050000D01*
X106950000Y-79050000D02*
X106950000Y-80950000D01*
X106950000Y-80950000D02*
X105050000Y-80950000D01*
%TD*%
M02*
