M48
; DRILL file KiCad 10.99.0-2191-g6e8e92d84a date 2026-08-13T22:40:36
; FORMAT={-:-/ absolute / metric / decimal}
; #@! TF.CreationDate,2026-08-13T22:40:36+07:00
; #@! TF.GenerationSoftware,Kicad,Pcbnew,10.99.0-2191-g6e8e92d84a
; #@! TF.FileFunction,Plated,1,4,PTH
FMAT,2
METRIC
; #@! TA.AperFunction,Plated,PTH,ViaDrill
T1C0.200
; #@! TA.AperFunction,Plated,PTH,ViaDrill
T2C0.250
%
G90
G05
T1
X98.3Y-28.15
X103.621Y-31.009
X112.6Y-35.5
X112.9Y-22.9
X114.25Y-22.81
X115.25Y-22.81
X117.75Y-32.0
X117.75Y-41.4
X118.5Y-30.65
X120.25Y-41.36
X120.9Y-31.6
X120.95Y-35.4
X121.25Y-39.05
X121.95Y-41.36
X122.35Y-31.8
X122.65Y-29.7
X122.65Y-42.06
X122.85Y-35.55
X123.25Y-31.5
X123.95Y-39.06
X124.25Y-31.3
X124.4Y-29.5
X126.05Y-33.64
X128.5Y-31.4
X129.55Y-41.96
X137.2Y-27.8
X142.45Y-43.55
X143.75Y-43.7
T2
X99.849Y-27.132
X100.061Y-37.552
X100.388Y-34.829
X101.709Y-30.2
X102.298Y-28.6
X103.916Y-29.4
X104.212Y-25.806
X104.52Y-27.142
X105.704Y-30.2
X105.975Y-23.364
X107.788Y-27.236
X109.012Y-24.743
X109.706Y-29.288
X109.71Y-28.498
X109.726Y-27.735
X109.844Y-42.2
X111.322Y-25.895
X112.174Y-26.392
X113.469Y-26.499
X114.163Y-40.161
X114.302Y-42.904
X114.727Y-29.98
X115.516Y-23.496
X116.25Y-23.522
X116.256Y-34.254
X117.69Y-23.562
X118.75Y-24.171
X118.963Y-38.978
X119.785Y-31.294
X119.8Y-24.174
X120.543Y-23.489
X121.0Y-24.6
X121.088Y-42.933
X121.17Y-34.345
X121.98Y-23.712
X122.1Y-44.2
X122.724Y-44.617
X122.921Y-33.919
X123.1Y-44.0
X123.146Y-24.993
X123.25Y-23.531
X123.259Y-47.308
X123.3Y-46.656
X123.7Y-43.506
X124.337Y-43.811
X124.339Y-33.662
X124.714Y-39.031
X125.147Y-31.791
X125.208Y-31.125
X125.658Y-39.045
X125.75Y-23.52
X127.209Y-34.209
X127.36Y-41.776
X127.372Y-31.796
X128.144Y-23.49
X128.37Y-39.049
X128.75Y-24.091
X128.8Y-30.4
X129.25Y-39.052
X129.34Y-25.267
X129.449Y-31.435
X129.5Y-45.6
X129.856Y-24.586
X130.363Y-31.442
X130.4Y-25.2
X130.4Y-28.3
X130.401Y-23.489
X130.9Y-25.6
X131.2Y-31.45
X131.75Y-23.444
X132.9Y-29.6
X133.834Y-23.385
X134.6Y-23.3
X134.617Y-25.194
X138.016Y-42.838
X138.379Y-41.438
X138.938Y-40.456
X139.225Y-27.25
X139.262Y-31.198
X140.1Y-40.943
X141.25Y-41.097
X141.28Y-29.469
X141.304Y-30.628
X142.72Y-26.063
X143.0Y-29.306
X143.838Y-34.429
X144.25Y-41.075
X144.715Y-30.011
X145.243Y-41.273
X145.28Y-28.895
X147.559Y-30.854
X147.848Y-34.627
M30
