%TF.GenerationSoftware,KiCad,Pcbnew,10.99.0-2191-g6e8e92d84a*%
%TF.CreationDate,2026-08-13T22:40:36+07:00*%
%TF.ProjectId,koyomi-lvds-hat,6b6f796f-6d69-42d6-9c76-64732d686174,rev?*%
%TF.SameCoordinates,Original*%
%TF.FileFunction,Copper,L2,Inr*%
%TF.FilePolarity,Positive*%
%FSLAX46Y46*%
G04 Gerber Fmt 4.6, Leading zero omitted, Abs format (unit mm)*
G04 Created by KiCad (PCBNEW 10.99.0-2191-g6e8e92d84a) date 2026-08-13 22:40:36*
%MOMM*%
%LPD*%
G01*
G04 APERTURE LIST*
%TA.AperFunction,ViaPad*%
%ADD10C,0.500000*%
%TD*%
%TA.AperFunction,ViaPad*%
%ADD11C,0.450000*%
%TD*%
%TA.AperFunction,Conductor*%
%ADD12C,0.150000*%
%TD*%
%TA.AperFunction,Conductor*%
%ADD13C,0.300000*%
%TD*%
%TA.AperFunction,Conductor*%
%ADD14C,0.500000*%
%TD*%
G04 APERTURE END LIST*
D10*
%TO.N,+3V3*%
X130363300Y-31442400D03*
X114163000Y-40161200D03*
D11*
X117750000Y-32000000D03*
X112600000Y-35500000D03*
D10*
X121000000Y-24600000D03*
X124713700Y-39030900D03*
X121088300Y-42933400D03*
D11*
X112900000Y-22900000D03*
D10*
X125207900Y-31125200D03*
D11*
%TO.N,GND*%
X122650000Y-42060000D03*
D10*
X123250000Y-23531400D03*
D11*
X129550000Y-41960000D03*
X120250000Y-41360000D03*
X121250000Y-39050000D03*
D10*
X120543000Y-23489000D03*
X117690000Y-23562500D03*
X125750000Y-23520100D03*
X116256000Y-34254100D03*
D11*
X121950000Y-41360000D03*
D10*
X116250000Y-23522400D03*
D11*
X126050000Y-33640100D03*
D10*
X128144000Y-23490200D03*
D11*
X122350000Y-31800000D03*
X124250000Y-31300000D03*
X142450000Y-43550000D03*
X123950000Y-39060000D03*
X120950000Y-35400000D03*
X122850000Y-35550000D03*
X128500000Y-31400000D03*
X122650000Y-29700000D03*
X117750000Y-41400000D03*
D10*
%TO.N,Net-(IC1-Y1M)*%
X127360000Y-41776000D03*
X125658000Y-39045400D03*
%TO.N,VCD6*%
X138379000Y-41438100D03*
X122724000Y-44616600D03*
%TO.N,VCD5*%
X123259000Y-47308000D03*
X138938000Y-40455800D03*
%TO.N,VCD4*%
X123300000Y-46656100D03*
X138016000Y-42838000D03*
%TO.N,VCD3*%
X123700000Y-43506400D03*
X140100000Y-40943200D03*
%TO.N,VCD2*%
X141250000Y-41097200D03*
X124337000Y-43811000D03*
D11*
%TO.N,+5V*%
X143750000Y-43700000D03*
X115250000Y-22810000D03*
X114250000Y-22810000D03*
D10*
%TO.N,PWM*%
X131750000Y-23443900D03*
X144250000Y-41074900D03*
%TO.N,EN*%
X119800000Y-24173500D03*
X145243000Y-41273300D03*
D11*
%TO.N,D18*%
X120900000Y-31600000D03*
X137200000Y-27800000D03*
D10*
%TO.N,G1*%
X123146000Y-24993500D03*
X139262000Y-31198200D03*
%TO.N,B1*%
X139225000Y-27250500D03*
X129340000Y-25267000D03*
%TO.N,+2V5*%
X114302000Y-42904200D03*
X109844000Y-42200000D03*
%TO.N,D12*%
X125147000Y-31791400D03*
X143000000Y-29305900D03*
%TO.N,D9*%
X141280000Y-29468600D03*
X127372000Y-31796500D03*
%TO.N,D19*%
X141304000Y-30627700D03*
X127209000Y-34209300D03*
%TO.N,B2*%
X128750000Y-24090700D03*
X144715000Y-30011300D03*
%TO.N,G2*%
X129856000Y-24585900D03*
X142720000Y-26063300D03*
%TO.N,CLKSEL*%
X100388000Y-34829500D03*
X122921000Y-33918800D03*
X143838000Y-34429100D03*
%TO.N,PANEL_ID0*%
X122100000Y-44200000D03*
X121980000Y-23711800D03*
%TO.N,PANEL_ID1*%
X123100000Y-44000000D03*
X130900000Y-25600000D03*
X130401000Y-23488600D03*
X128800000Y-30400000D03*
X130400000Y-28300000D03*
X130400000Y-25200000D03*
D11*
%TO.N,LCD_INS*%
X131199999Y-31450000D03*
D10*
X133834000Y-23385200D03*
X132900000Y-29600000D03*
X129500000Y-45600000D03*
X134600000Y-23300000D03*
%TO.N,D20*%
X119785000Y-31293700D03*
X107788000Y-27236400D03*
%TO.N,D7*%
X114727000Y-29980100D03*
X121170000Y-34345000D03*
%TO.N,B5*%
X109706000Y-29287600D03*
X111322000Y-25895200D03*
%TO.N,B4*%
X109710000Y-28498300D03*
X112174000Y-26391900D03*
%TO.N,B3*%
X113469000Y-26498600D03*
X109726000Y-27734800D03*
%TO.N,D13*%
X124339000Y-33661600D03*
X99849200Y-27131900D03*
D11*
%TO.N,D15*%
X123250000Y-31500000D03*
X98300000Y-28150000D03*
X118500000Y-30650000D03*
D10*
%TO.N,VSYNC*%
X105975000Y-23363900D03*
X101709000Y-30200000D03*
%TO.N,HSYNC*%
X104212000Y-25806200D03*
X115516000Y-23496100D03*
%TO.N,D6*%
X129449000Y-31435300D03*
X145280000Y-28895200D03*
D11*
%TO.N,D14*%
X124400000Y-29500000D03*
X103621000Y-31009000D03*
D10*
%TO.N,SHTDN*%
X118963000Y-38977700D03*
X147848000Y-34626800D03*
X100061000Y-37552300D03*
%TO.N,D1*%
X103916000Y-29400000D03*
X128370000Y-39049400D03*
%TO.N,D2*%
X129250000Y-39051600D03*
X102298000Y-28600000D03*
%TO.N,G5*%
X105704000Y-30200000D03*
X109012000Y-24743100D03*
%TO.N,R1*%
X104520000Y-27142400D03*
X118750000Y-24170900D03*
%TO.N,R3*%
X147559000Y-30853700D03*
X134617000Y-25194100D03*
%TD*%
%TO.N,+3V3*%
D12*
X129850900Y-30930000D02*
X130363300Y-31442400D01*
D13*
X120370000Y-22950000D02*
X120470000Y-22850000D01*
X113200000Y-24450000D02*
X113200000Y-24650000D01*
X113300000Y-24850000D02*
X113400000Y-24950000D01*
X113800000Y-25850000D02*
X113800000Y-25950000D01*
X113500000Y-25150000D02*
X113500000Y-25250000D01*
X115670000Y-25250000D02*
X116670000Y-25250000D01*
X113100000Y-23650000D02*
X113100000Y-24350000D01*
D14*
X114025000Y-29689500D02*
X114154000Y-29560300D01*
D13*
X119870000Y-23250000D02*
X119970000Y-23250000D01*
X119570000Y-23450000D02*
X119670000Y-23350000D01*
X119670000Y-23350000D02*
X119770000Y-23350000D01*
D12*
X125207900Y-31125200D02*
X125403100Y-30930000D01*
D13*
X113600000Y-25650000D02*
X113800000Y-25850000D01*
D14*
X114025000Y-40023500D02*
X114025000Y-29689500D01*
D13*
X118470000Y-23650000D02*
X118570000Y-23650000D01*
X113400000Y-25050000D02*
X113500000Y-25150000D01*
X120270000Y-22950000D02*
X120370000Y-22950000D01*
X113900000Y-26150000D02*
X114000000Y-26250000D01*
X114100000Y-26650000D02*
X114170000Y-26789000D01*
X121100000Y-23250000D02*
X121100000Y-24450000D01*
X113600000Y-25350000D02*
X113600000Y-25650000D01*
X119070000Y-23550000D02*
X119170000Y-23450000D01*
X121000000Y-22850000D02*
X121000000Y-23150000D01*
X120970000Y-22850000D02*
X121037000Y-22768000D01*
D14*
X114154000Y-29560300D02*
X114154000Y-26805600D01*
D13*
X113300000Y-24750000D02*
X113300000Y-24850000D01*
X113800000Y-25950000D02*
X113900000Y-26050000D01*
X119970000Y-23250000D02*
X120270000Y-22950000D01*
X113200000Y-24650000D02*
X113300000Y-24750000D01*
X114170000Y-26789000D02*
X115670000Y-25250000D01*
X114000000Y-26250000D02*
X114000000Y-26350000D01*
X114100000Y-26450000D02*
X114100000Y-26650000D01*
X116670000Y-25250000D02*
X117670000Y-24250000D01*
X119770000Y-23350000D02*
X119870000Y-23250000D01*
D12*
X124713700Y-39308000D02*
X124713700Y-39030900D01*
D13*
X114000000Y-26350000D02*
X114100000Y-26450000D01*
D12*
X125403100Y-30930000D02*
X129850900Y-30930000D01*
D13*
X118670000Y-23550000D02*
X119070000Y-23550000D01*
D12*
X121088300Y-42933400D02*
X124713700Y-39308000D01*
D13*
X112900000Y-23450000D02*
X113100000Y-23650000D01*
X121000000Y-23150000D02*
X121100000Y-23250000D01*
X113400000Y-24950000D02*
X113400000Y-25050000D01*
X112900000Y-22900000D02*
X112900000Y-23450000D01*
X113500000Y-25250000D02*
X113600000Y-25350000D01*
X121100000Y-24450000D02*
X121000000Y-24600000D01*
X121037000Y-22768000D02*
X121000000Y-22850000D01*
X120470000Y-22850000D02*
X120970000Y-22850000D01*
X118570000Y-23650000D02*
X118670000Y-23550000D01*
X113100000Y-24350000D02*
X113200000Y-24450000D01*
X117870000Y-24250000D02*
X118470000Y-23650000D01*
D14*
X114163000Y-40161200D02*
X114025000Y-40023500D01*
D13*
X113900000Y-26050000D02*
X113900000Y-26150000D01*
X117670000Y-24250000D02*
X117870000Y-24250000D01*
X119170000Y-23450000D02*
X119570000Y-23450000D01*
%TO.N,GND*%
D12*
X121050000Y-39600000D02*
X121050000Y-39700000D01*
X123250000Y-34900000D02*
X123150000Y-35000000D01*
X129550000Y-41960000D02*
X129150000Y-41960000D01*
X122950000Y-35400000D02*
X122950000Y-35500000D01*
X122050000Y-31500000D02*
X121950000Y-31500000D01*
X121050000Y-39700000D02*
X120950000Y-39800000D01*
X123950000Y-32900000D02*
X123950000Y-33299999D01*
X120750000Y-40200000D02*
X120750000Y-40300000D01*
X123650000Y-31000000D02*
X122950000Y-31000000D01*
X126450000Y-32340100D02*
X126650000Y-32140100D01*
X142450000Y-43550000D02*
X143250000Y-43550000D01*
X120750000Y-40300000D02*
X120250000Y-40800000D01*
X121250000Y-39300000D02*
X121150000Y-39400000D01*
X123050000Y-35300000D02*
X122950000Y-35400000D01*
X121750000Y-34100000D02*
X118950000Y-31300000D01*
X123250000Y-34700000D02*
X123250000Y-34900000D01*
X120250000Y-40800000D02*
X120250000Y-41360000D01*
X121150000Y-39400000D02*
X121150000Y-39500000D01*
X129150000Y-41960000D02*
X129050000Y-41860000D01*
X124149999Y-31300000D02*
X123449999Y-32000000D01*
X122650000Y-29700000D02*
X122650000Y-30700000D01*
X126450000Y-32640100D02*
X126450000Y-32340100D01*
X123850000Y-33400000D02*
X123850000Y-33500000D01*
X122350000Y-31800000D02*
X122050000Y-31500000D01*
X126250000Y-32940100D02*
X126350000Y-32840100D01*
X124250000Y-31300000D02*
X124149999Y-31300000D01*
X121250000Y-39050000D02*
X121250000Y-39300000D01*
X123449999Y-32000000D02*
X122750000Y-32000000D01*
X123150000Y-35000000D02*
X123150000Y-35100000D01*
X126350000Y-32740100D02*
X126450000Y-32640100D01*
X124250000Y-31300000D02*
X124250000Y-31900000D01*
X120850000Y-40100000D02*
X120750000Y-40200000D01*
X121950000Y-31500000D02*
X121750000Y-31300000D01*
X126650000Y-32140100D02*
X126650000Y-32040100D01*
X122650000Y-42060000D02*
X123550000Y-42060000D01*
X123650000Y-33900000D02*
X123650000Y-34300000D01*
X120850000Y-40000000D02*
X120850000Y-40100000D01*
X128850000Y-41860000D02*
X128750000Y-41760000D01*
X123750000Y-33600000D02*
X123750000Y-33800000D01*
X123550000Y-42060000D02*
X124250000Y-41360000D01*
X124250000Y-41360000D02*
X126750000Y-41360000D01*
X123950000Y-33299999D02*
X123850000Y-33400000D01*
X124050000Y-32799999D02*
X123950000Y-32900000D01*
X126150000Y-33340100D02*
X126150000Y-33240100D01*
X123650000Y-34300000D02*
X123250000Y-34700000D01*
X126350000Y-32840100D02*
X126350000Y-32740100D01*
X123850000Y-33500000D02*
X123750000Y-33600000D01*
X122850000Y-30900000D02*
X122750000Y-30900000D01*
X123950000Y-39360000D02*
X121950000Y-41360000D01*
X122750000Y-32000000D02*
X122649999Y-31900000D01*
X122750000Y-30800000D02*
X122750000Y-30900000D01*
X126150000Y-33240100D02*
X126250000Y-33140100D01*
X124050000Y-32100000D02*
X124050000Y-32799999D01*
X123950000Y-39060000D02*
X123950000Y-39360000D01*
X126250000Y-33140100D02*
X126250000Y-32940100D01*
X121150000Y-39500000D02*
X121050000Y-39600000D01*
X122950000Y-35500000D02*
X122850000Y-35550000D01*
X121750000Y-34600000D02*
X121750000Y-34100000D01*
X126650000Y-32040100D02*
X126750000Y-31940100D01*
X122449999Y-31900000D02*
X122350000Y-31800000D01*
X126050000Y-33640100D02*
X126050000Y-33440100D01*
X123150000Y-35100000D02*
X123050000Y-35200000D01*
X122650000Y-30700000D02*
X122750000Y-30800000D01*
X124250000Y-31900000D02*
X124050000Y-32100000D01*
X122950000Y-31000000D02*
X122850000Y-30900000D01*
X126050000Y-33440100D02*
X126150000Y-33340100D01*
X129050000Y-41860000D02*
X128850000Y-41860000D01*
X123750000Y-33800000D02*
X123650000Y-33900000D01*
X120950000Y-39900000D02*
X120850000Y-40000000D01*
X124250000Y-31300000D02*
X123950000Y-31299999D01*
X123950000Y-31299999D02*
X123650000Y-31000000D01*
X120950000Y-39800000D02*
X120950000Y-39900000D01*
X122649999Y-31900000D02*
X122449999Y-31900000D01*
X120950000Y-35400000D02*
X121750000Y-34600000D01*
X123050000Y-35200000D02*
X123050000Y-35300000D01*
%TO.N,Net-(IC1-Y1M)*%
X127360000Y-40746900D02*
X125658000Y-39045400D01*
X127360000Y-41776000D02*
X127360000Y-40746900D01*
%TO.N,VCD6*%
X122724000Y-44616600D02*
X123115000Y-45008000D01*
X124829000Y-45008000D02*
X128398000Y-41438100D01*
X128398000Y-41438100D02*
X138379000Y-41438100D01*
X123115000Y-45008000D02*
X124829000Y-45008000D01*
%TO.N,VCD5*%
X134274000Y-47308000D02*
X123259000Y-47308000D01*
X138938000Y-40455800D02*
X138938000Y-42643600D01*
X138938000Y-42643600D02*
X134274000Y-47308000D01*
%TO.N,VCD4*%
X134198000Y-46656100D02*
X138016000Y-42838000D01*
X123300000Y-46656100D02*
X134198000Y-46656100D01*
%TO.N,PWM*%
X139738000Y-31000700D02*
X139738000Y-36563300D01*
X139738000Y-36563300D02*
X144250000Y-41074900D01*
X131750000Y-23443900D02*
X132182000Y-23443900D01*
X132182000Y-23443900D02*
X139738000Y-31000700D01*
%TO.N,EN*%
X128466000Y-27172600D02*
X122799000Y-27172600D01*
X142845000Y-41551700D02*
X128466000Y-27172600D01*
X144965000Y-41551700D02*
X142845000Y-41551700D01*
X122799000Y-27172600D02*
X119800000Y-24173500D01*
X145243000Y-41273300D02*
X144965000Y-41551700D01*
%TO.N,G1*%
X134634000Y-26570700D02*
X124723000Y-26570700D01*
X139262000Y-31198200D02*
X134634000Y-26570700D01*
X124723000Y-26570700D02*
X123146000Y-24993500D01*
%TO.N,+2V5*%
D14*
X114302000Y-42904200D02*
X110548000Y-42904200D01*
X110548000Y-42904200D02*
X109844000Y-42200000D01*
%TO.N,LCD_INS*%
D12*
X133834000Y-23385200D02*
X133934000Y-23350000D01*
X133934000Y-23350000D02*
X134534000Y-23350000D01*
X134534000Y-23350000D02*
X134600000Y-23300000D01*
%TO.N,D7*%
X114727000Y-29980100D02*
X119092000Y-34345000D01*
X119092000Y-34345000D02*
X121170000Y-34345000D01*
%TO.N,B5*%
X109232000Y-27539000D02*
X110876000Y-25895200D01*
X109232000Y-28812800D02*
X109232000Y-27539000D01*
X110876000Y-25895200D02*
X111322000Y-25895200D01*
X109706000Y-29287600D02*
X109232000Y-28812800D01*
%TO.N,B4*%
X109710000Y-28498300D02*
X110068000Y-28498300D01*
X110068000Y-28498300D02*
X112174000Y-26391900D01*
%TO.N,B3*%
X110157000Y-27734800D02*
X111995000Y-25896400D01*
X111995000Y-25896400D02*
X112866000Y-25896400D01*
X109726000Y-27734800D02*
X110157000Y-27734800D01*
X112866000Y-25896400D02*
X113469000Y-26498600D01*
%TO.N,D15*%
X122600000Y-31250000D02*
X122700000Y-31250000D01*
X121400000Y-30650000D02*
X121500000Y-30750000D01*
X122500000Y-31150000D02*
X122600000Y-31250000D01*
X122100000Y-31049999D02*
X122300000Y-31049999D01*
X122700000Y-31250000D02*
X122800000Y-31350000D01*
X123200000Y-31450000D02*
X123250000Y-31500000D01*
X122800000Y-31350000D02*
X122900000Y-31350000D01*
X121500000Y-30750000D02*
X121700000Y-30750000D01*
X122400000Y-31150000D02*
X122500000Y-31150000D01*
X121900000Y-30950000D02*
X122000000Y-30950000D01*
X122300000Y-31049999D02*
X122400000Y-31150000D01*
X122000000Y-30950000D02*
X122100000Y-31049999D01*
X121700000Y-30750000D02*
X121900000Y-30950000D01*
X123000000Y-31450000D02*
X123200000Y-31450000D01*
X122900000Y-31350000D02*
X123000000Y-31450000D01*
X118500000Y-30650000D02*
X121400000Y-30650000D01*
%TO.N,VSYNC*%
X101709000Y-30200000D02*
X101709000Y-27629700D01*
X101709000Y-27629700D02*
X105975000Y-23363900D01*
%TO.N,D1*%
X104098000Y-31318800D02*
X113783000Y-41004100D01*
X103916000Y-29400000D02*
X104098000Y-29582300D01*
X118798000Y-38468700D02*
X127790000Y-38468700D01*
X104098000Y-29582300D02*
X104098000Y-31318800D01*
X127790000Y-38468700D02*
X128370000Y-39049400D01*
X116262000Y-41004100D02*
X118798000Y-38468700D01*
X113783000Y-41004100D02*
X116262000Y-41004100D01*
%TO.N,D2*%
X113899000Y-40693100D02*
X114481000Y-40693100D01*
X102298000Y-28600000D02*
X103854000Y-28600000D01*
X114481000Y-40693100D02*
X117015000Y-38159200D01*
X128358000Y-38159200D02*
X129250000Y-39051600D01*
X103854000Y-28600000D02*
X104506000Y-29251400D01*
X104506000Y-29251400D02*
X104506000Y-31299800D01*
X104506000Y-31299800D02*
X113899000Y-40693100D01*
X117015000Y-38159200D02*
X128358000Y-38159200D01*
%TO.N,G5*%
X105704000Y-28050400D02*
X105704000Y-30200000D01*
X109012000Y-24743100D02*
X105704000Y-28050400D01*
%TO.N,R3*%
X142525000Y-25194100D02*
X134617000Y-25194100D01*
X147559000Y-30853700D02*
X147559000Y-30228100D01*
X147559000Y-30228100D02*
X142525000Y-25194100D01*
%TD*%
%TA.AperFunction,Conductor*%
%TO.N,GND*%
G36*
X112636640Y-22419685D02*
G01*
X112682395Y-22472489D01*
X112692339Y-22541647D01*
X112663314Y-22605203D01*
X112657282Y-22611681D01*
X112599526Y-22669436D01*
X112550091Y-22755059D01*
X112550091Y-22755060D01*
X112550090Y-22755062D01*
X112524500Y-22850565D01*
X112524500Y-22949435D01*
X112550090Y-23044938D01*
X112582886Y-23101742D01*
X112599500Y-23163743D01*
X112599500Y-23489562D01*
X112607251Y-23518487D01*
X112619979Y-23565990D01*
X112619980Y-23565991D01*
X112651437Y-23620478D01*
X112651439Y-23620480D01*
X112659540Y-23634511D01*
X112763182Y-23738153D01*
X112796666Y-23799474D01*
X112799500Y-23825833D01*
X112799500Y-24389562D01*
X112810298Y-24429860D01*
X112819979Y-24465990D01*
X112836140Y-24493981D01*
X112836141Y-24493982D01*
X112838242Y-24497621D01*
X112856945Y-24530017D01*
X112859539Y-24534509D01*
X112859541Y-24534512D01*
X112863181Y-24538152D01*
X112896666Y-24599475D01*
X112899500Y-24625833D01*
X112899500Y-24689562D01*
X112905094Y-24710438D01*
X112919979Y-24765990D01*
X112919980Y-24765991D01*
X112939387Y-24799605D01*
X112959540Y-24834511D01*
X112959542Y-24834513D01*
X112970482Y-24845453D01*
X113002575Y-24901038D01*
X113019979Y-24965989D01*
X113019979Y-24965990D01*
X113019980Y-24965991D01*
X113045122Y-25009539D01*
X113059540Y-25034511D01*
X113070482Y-25045453D01*
X113102575Y-25101038D01*
X113109138Y-25125529D01*
X113119979Y-25165991D01*
X113119981Y-25165994D01*
X113156944Y-25230014D01*
X113156946Y-25230023D01*
X113156949Y-25230022D01*
X113159247Y-25234004D01*
X113159540Y-25234511D01*
X113170482Y-25245453D01*
X113202575Y-25301038D01*
X113207583Y-25319726D01*
X113219979Y-25365990D01*
X113219980Y-25365991D01*
X113220393Y-25366707D01*
X113236151Y-25394000D01*
X113259540Y-25434511D01*
X113259542Y-25434513D01*
X113263181Y-25438152D01*
X113270635Y-25451804D01*
X113282039Y-25462387D01*
X113287754Y-25483154D01*
X113296666Y-25499475D01*
X113295754Y-25512222D01*
X113299500Y-25525833D01*
X113299500Y-25689562D01*
X113300540Y-25697462D01*
X113289775Y-25766497D01*
X113243395Y-25818753D01*
X113176126Y-25837639D01*
X113109326Y-25817159D01*
X113089982Y-25801391D01*
X113026027Y-25737521D01*
X112993736Y-25705230D01*
X112993734Y-25705229D01*
X112993607Y-25705144D01*
X112952326Y-25688077D01*
X112952253Y-25688047D01*
X112941719Y-25683684D01*
X112910855Y-25670900D01*
X112910854Y-25670900D01*
X112910847Y-25670897D01*
X112910709Y-25670869D01*
X112865090Y-25670900D01*
X112052128Y-25670900D01*
X112052067Y-25670894D01*
X112039830Y-25670895D01*
X111994991Y-25670899D01*
X111994974Y-25670900D01*
X111950134Y-25670900D01*
X111950122Y-25670904D01*
X111950121Y-25670905D01*
X111911695Y-25686826D01*
X111867339Y-25705199D01*
X111867250Y-25705236D01*
X111859505Y-25712983D01*
X111798184Y-25746472D01*
X111728492Y-25741493D01*
X111672556Y-25699625D01*
X111664431Y-25687308D01*
X111664153Y-25686826D01*
X111642480Y-25649287D01*
X111567913Y-25574720D01*
X111483238Y-25525833D01*
X111476589Y-25521994D01*
X111476588Y-25521993D01*
X111476587Y-25521993D01*
X111374727Y-25494700D01*
X111269273Y-25494700D01*
X111167413Y-25521993D01*
X111167410Y-25521994D01*
X111076087Y-25574720D01*
X111017425Y-25633382D01*
X110956101Y-25666866D01*
X110954644Y-25667174D01*
X110942321Y-25669700D01*
X110890966Y-25669700D01*
X110831159Y-25669696D01*
X110831149Y-25669700D01*
X110831145Y-25669700D01*
X110797382Y-25683684D01*
X110748277Y-25704022D01*
X110748272Y-25704026D01*
X110748264Y-25704030D01*
X110741411Y-25710882D01*
X110741410Y-25710883D01*
X110709478Y-25742815D01*
X110709474Y-25742820D01*
X109111341Y-27340757D01*
X109111308Y-27340785D01*
X109065465Y-27386627D01*
X109065464Y-27386628D01*
X109040835Y-27411254D01*
X109040831Y-27411262D01*
X109040830Y-27411263D01*
X109040830Y-27411264D01*
X109024748Y-27450090D01*
X109023363Y-27453434D01*
X109006501Y-27494132D01*
X109006500Y-27494138D01*
X109006500Y-27526007D01*
X109006496Y-27596411D01*
X109006500Y-27596450D01*
X109006500Y-28812114D01*
X109006462Y-28857468D01*
X109006499Y-28857655D01*
X109023502Y-28898702D01*
X109023522Y-28898806D01*
X109023542Y-28898799D01*
X109040723Y-28940376D01*
X109040829Y-28940534D01*
X109040830Y-28940536D01*
X109073273Y-28972979D01*
X109265251Y-29165282D01*
X109269255Y-29169292D01*
X109302688Y-29230643D01*
X109305500Y-29256899D01*
X109305500Y-29340327D01*
X109325743Y-29415873D01*
X109332793Y-29442186D01*
X109332794Y-29442189D01*
X109337630Y-29450565D01*
X109385520Y-29533513D01*
X109460087Y-29608080D01*
X109551413Y-29660807D01*
X109653273Y-29688100D01*
X109653275Y-29688100D01*
X109758725Y-29688100D01*
X109758727Y-29688100D01*
X109860587Y-29660807D01*
X109951913Y-29608080D01*
X110026480Y-29533513D01*
X110079207Y-29442187D01*
X110106500Y-29340327D01*
X110106500Y-29234873D01*
X110079207Y-29133013D01*
X110026480Y-29041687D01*
X109967424Y-28982631D01*
X109953724Y-28957541D01*
X109937430Y-28934047D01*
X109937191Y-28927264D01*
X109933939Y-28921308D01*
X109935978Y-28892791D01*
X109934973Y-28864221D01*
X109938459Y-28858102D01*
X109938923Y-28851616D01*
X109952455Y-28833538D01*
X109967425Y-28807268D01*
X110014576Y-28760118D01*
X110075899Y-28726634D01*
X110102256Y-28723800D01*
X110112877Y-28723800D01*
X110112941Y-28723786D01*
X110114121Y-28723280D01*
X110153198Y-28707089D01*
X110195736Y-28689470D01*
X110195744Y-28689461D01*
X110195753Y-28689458D01*
X110223563Y-28661643D01*
X110259170Y-28626036D01*
X110259170Y-28626034D01*
X110269862Y-28615343D01*
X110269898Y-28615296D01*
X112056129Y-26828726D01*
X112117449Y-26795236D01*
X112143819Y-26792400D01*
X112226725Y-26792400D01*
X112226727Y-26792400D01*
X112328587Y-26765107D01*
X112419913Y-26712380D01*
X112494480Y-26637813D01*
X112547207Y-26546487D01*
X112574500Y-26444627D01*
X112574500Y-26339173D01*
X112558107Y-26277992D01*
X112559770Y-26208143D01*
X112598933Y-26150281D01*
X112663162Y-26122777D01*
X112677882Y-26121900D01*
X112721369Y-26121900D01*
X112788408Y-26141585D01*
X112808992Y-26158161D01*
X112859040Y-26208143D01*
X112971517Y-26320471D01*
X113032123Y-26380996D01*
X113065649Y-26442296D01*
X113068500Y-26468735D01*
X113068500Y-26551327D01*
X113095793Y-26653187D01*
X113148520Y-26744513D01*
X113223087Y-26819080D01*
X113314413Y-26871807D01*
X113416273Y-26899100D01*
X113416275Y-26899100D01*
X113521724Y-26899100D01*
X113521727Y-26899100D01*
X113597409Y-26878821D01*
X113667256Y-26880484D01*
X113725119Y-26919646D01*
X113752623Y-26983875D01*
X113753500Y-26998596D01*
X113753500Y-29343244D01*
X113733815Y-29410283D01*
X113717184Y-29430923D01*
X113704510Y-29443596D01*
X113704334Y-29443826D01*
X113678339Y-29488932D01*
X113678292Y-29489013D01*
X113651792Y-29534911D01*
X113651692Y-29535154D01*
X113651674Y-29535195D01*
X113638128Y-29585909D01*
X113638104Y-29586000D01*
X113624499Y-29636775D01*
X113624484Y-29636893D01*
X113624466Y-29637033D01*
X113624459Y-29637084D01*
X113624500Y-29689810D01*
X113624500Y-39800311D01*
X113604815Y-39867350D01*
X113552011Y-39913105D01*
X113482853Y-39923049D01*
X113419297Y-39894024D01*
X113412817Y-39887991D01*
X109055083Y-35530118D01*
X108975533Y-35450565D01*
X112224500Y-35450565D01*
X112224500Y-35549435D01*
X112250090Y-35644938D01*
X112299525Y-35730562D01*
X112369438Y-35800475D01*
X112455062Y-35849910D01*
X112550565Y-35875500D01*
X112550567Y-35875500D01*
X112649432Y-35875500D01*
X112649435Y-35875500D01*
X112744938Y-35849910D01*
X112830562Y-35800475D01*
X112900475Y-35730562D01*
X112949910Y-35644938D01*
X112975500Y-35549435D01*
X112975500Y-35450565D01*
X112949910Y-35355062D01*
X112900475Y-35269438D01*
X112830562Y-35199525D01*
X112744938Y-35150090D01*
X112649435Y-35124500D01*
X112550565Y-35124500D01*
X112455062Y-35150090D01*
X112455060Y-35150091D01*
X112455059Y-35150091D01*
X112369436Y-35199526D01*
X112299526Y-35269436D01*
X112250091Y-35355059D01*
X112250091Y-35355060D01*
X112250090Y-35355062D01*
X112224500Y-35450565D01*
X108975533Y-35450565D01*
X104767817Y-31242715D01*
X104734333Y-31181391D01*
X104731500Y-31155035D01*
X104731500Y-30147273D01*
X105303500Y-30147273D01*
X105303500Y-30252727D01*
X105330793Y-30354587D01*
X105383520Y-30445913D01*
X105458087Y-30520480D01*
X105549413Y-30573207D01*
X105651273Y-30600500D01*
X105651275Y-30600500D01*
X105756725Y-30600500D01*
X105756727Y-30600500D01*
X105858587Y-30573207D01*
X105949913Y-30520480D01*
X106024480Y-30445913D01*
X106077207Y-30354587D01*
X106104500Y-30252727D01*
X106104500Y-30147273D01*
X106077207Y-30045413D01*
X106024480Y-29954087D01*
X105965818Y-29895425D01*
X105932334Y-29834101D01*
X105929500Y-29807744D01*
X105929500Y-28195188D01*
X105949185Y-28128149D01*
X105965825Y-28107500D01*
X106889848Y-27183673D01*
X107387500Y-27183673D01*
X107387500Y-27289127D01*
X107414793Y-27390987D01*
X107467520Y-27482313D01*
X107542087Y-27556880D01*
X107633413Y-27609607D01*
X107735273Y-27636900D01*
X107735275Y-27636900D01*
X107840725Y-27636900D01*
X107840727Y-27636900D01*
X107942587Y-27609607D01*
X108033913Y-27556880D01*
X108108480Y-27482313D01*
X108161207Y-27390987D01*
X108188500Y-27289127D01*
X108188500Y-27183673D01*
X108161207Y-27081813D01*
X108108480Y-26990487D01*
X108033913Y-26915920D01*
X107966269Y-26876866D01*
X107942589Y-26863194D01*
X107942588Y-26863193D01*
X107942587Y-26863193D01*
X107840727Y-26835900D01*
X107735273Y-26835900D01*
X107633413Y-26863193D01*
X107633410Y-26863194D01*
X107542085Y-26915921D01*
X107467521Y-26990485D01*
X107414794Y-27081810D01*
X107414793Y-27081813D01*
X107387500Y-27183673D01*
X106889848Y-27183673D01*
X108894037Y-25179908D01*
X108955364Y-25146431D01*
X108981709Y-25143600D01*
X109064725Y-25143600D01*
X109064727Y-25143600D01*
X109166587Y-25116307D01*
X109257913Y-25063580D01*
X109332480Y-24989013D01*
X109385207Y-24897687D01*
X109412500Y-24795827D01*
X109412500Y-24690373D01*
X109385207Y-24588513D01*
X109332480Y-24497187D01*
X109257913Y-24422620D01*
X109166587Y-24369893D01*
X109064727Y-24342600D01*
X108959273Y-24342600D01*
X108857413Y-24369893D01*
X108857410Y-24369894D01*
X108766085Y-24422621D01*
X108691521Y-24497185D01*
X108638794Y-24588510D01*
X108638793Y-24588513D01*
X108611500Y-24690373D01*
X108611500Y-24773271D01*
X108591815Y-24840310D01*
X108575172Y-24860962D01*
X105583347Y-27852154D01*
X105583296Y-27852197D01*
X105541220Y-27894272D01*
X105541215Y-27894278D01*
X105512834Y-27922653D01*
X105497249Y-27960282D01*
X105497243Y-27960296D01*
X105478500Y-28005531D01*
X105478500Y-28045404D01*
X105478494Y-28107469D01*
X105478500Y-28107530D01*
X105478500Y-29807744D01*
X105458815Y-29874783D01*
X105442182Y-29895425D01*
X105383520Y-29954087D01*
X105330794Y-30045410D01*
X105330793Y-30045413D01*
X105303500Y-30147273D01*
X104731500Y-30147273D01*
X104731500Y-29320804D01*
X104731500Y-29296201D01*
X104731521Y-29296151D01*
X104731500Y-29249500D01*
X104731500Y-29206545D01*
X104731480Y-29206496D01*
X104731480Y-29206442D01*
X104714408Y-29165282D01*
X104697170Y-29123664D01*
X104697130Y-29123624D01*
X104697111Y-29123577D01*
X104666665Y-29093159D01*
X104633736Y-29060230D01*
X104633684Y-29060208D01*
X104014266Y-28441360D01*
X104014270Y-28441355D01*
X104014225Y-28441319D01*
X103981734Y-28408828D01*
X103981647Y-28408770D01*
X103940144Y-28391601D01*
X103940094Y-28391581D01*
X103898849Y-28374497D01*
X103898752Y-28374478D01*
X103852824Y-28374499D01*
X103852802Y-28374500D01*
X102690256Y-28374500D01*
X102623217Y-28354815D01*
X102602575Y-28338182D01*
X102579281Y-28314888D01*
X102543913Y-28279520D01*
X102461725Y-28232069D01*
X102452589Y-28226794D01*
X102452588Y-28226793D01*
X102452587Y-28226793D01*
X102350727Y-28199500D01*
X102245273Y-28199500D01*
X102143413Y-28226793D01*
X102143408Y-28226795D01*
X102120498Y-28240022D01*
X102052597Y-28256493D01*
X101986571Y-28233640D01*
X101943381Y-28178718D01*
X101934500Y-28132634D01*
X101934500Y-27774471D01*
X101954185Y-27707432D01*
X101970818Y-27686791D01*
X102567964Y-27089673D01*
X104119500Y-27089673D01*
X104119500Y-27195127D01*
X104144687Y-27289125D01*
X104146793Y-27296986D01*
X104146794Y-27296989D01*
X104150395Y-27303226D01*
X104199520Y-27388313D01*
X104274087Y-27462880D01*
X104365413Y-27515607D01*
X104467273Y-27542900D01*
X104467275Y-27542900D01*
X104572725Y-27542900D01*
X104572727Y-27542900D01*
X104674587Y-27515607D01*
X104765913Y-27462880D01*
X104840480Y-27388313D01*
X104893207Y-27296987D01*
X104920500Y-27195127D01*
X104920500Y-27089673D01*
X104893207Y-26987813D01*
X104840480Y-26896487D01*
X104765913Y-26821920D01*
X104674587Y-26769193D01*
X104572727Y-26741900D01*
X104467273Y-26741900D01*
X104365413Y-26769193D01*
X104365410Y-26769194D01*
X104274085Y-26821921D01*
X104199521Y-26896485D01*
X104146794Y-26987810D01*
X104146793Y-26987813D01*
X104119500Y-27089673D01*
X102567964Y-27089673D01*
X103672592Y-25985097D01*
X103733915Y-25951614D01*
X103803606Y-25956600D01*
X103859539Y-25998473D01*
X103867652Y-26010772D01*
X103891520Y-26052113D01*
X103966087Y-26126680D01*
X104057413Y-26179407D01*
X104159273Y-26206700D01*
X104159275Y-26206700D01*
X104264725Y-26206700D01*
X104264727Y-26206700D01*
X104366587Y-26179407D01*
X104457913Y-26126680D01*
X104532480Y-26052113D01*
X104585207Y-25960787D01*
X104612500Y-25858927D01*
X104612500Y-25753473D01*
X104585207Y-25651613D01*
X104532480Y-25560287D01*
X104457913Y-25485720D01*
X104453469Y-25483154D01*
X104416601Y-25461868D01*
X104368386Y-25411301D01*
X104355164Y-25342694D01*
X104381132Y-25277829D01*
X104390911Y-25266812D01*
X105857075Y-23800716D01*
X105918399Y-23767233D01*
X105944754Y-23764400D01*
X106027725Y-23764400D01*
X106027727Y-23764400D01*
X106129587Y-23737107D01*
X106220913Y-23684380D01*
X106295480Y-23609813D01*
X106348207Y-23518487D01*
X106375500Y-23416627D01*
X106375500Y-23311173D01*
X106348207Y-23209313D01*
X106295480Y-23117987D01*
X106220913Y-23043420D01*
X106146617Y-23000525D01*
X106129589Y-22990694D01*
X106129588Y-22990693D01*
X106129587Y-22990693D01*
X106027727Y-22963400D01*
X105922273Y-22963400D01*
X105820413Y-22990693D01*
X105820410Y-22990694D01*
X105729085Y-23043421D01*
X105654521Y-23117985D01*
X105601794Y-23209310D01*
X105601793Y-23209313D01*
X105574500Y-23311173D01*
X105574500Y-23394119D01*
X105554815Y-23461158D01*
X105538179Y-23481802D01*
X101585599Y-27434195D01*
X101585593Y-27434201D01*
X101539158Y-27480634D01*
X101517835Y-27501958D01*
X101517832Y-27501960D01*
X101517827Y-27501970D01*
X101507874Y-27525998D01*
X101507874Y-27525999D01*
X101483500Y-27584838D01*
X101483499Y-27584842D01*
X101483498Y-27688976D01*
X101483500Y-27688993D01*
X101483500Y-29807744D01*
X101463815Y-29874783D01*
X101447182Y-29895425D01*
X101388520Y-29954087D01*
X101335794Y-30045410D01*
X101335793Y-30045413D01*
X101308500Y-30147273D01*
X101308500Y-30252727D01*
X101335793Y-30354587D01*
X101388520Y-30445913D01*
X101463087Y-30520480D01*
X101554413Y-30573207D01*
X101656273Y-30600500D01*
X101656275Y-30600500D01*
X101761725Y-30600500D01*
X101761727Y-30600500D01*
X101863587Y-30573207D01*
X101954913Y-30520480D01*
X102029480Y-30445913D01*
X102082207Y-30354587D01*
X102109500Y-30252727D01*
X102109500Y-30147273D01*
X102082207Y-30045413D01*
X102029480Y-29954087D01*
X101970818Y-29895425D01*
X101937334Y-29834101D01*
X101934500Y-29807744D01*
X101934500Y-29067365D01*
X101954185Y-29000326D01*
X102006989Y-28954571D01*
X102076147Y-28944627D01*
X102120497Y-28959976D01*
X102143413Y-28973207D01*
X102245273Y-29000500D01*
X102245275Y-29000500D01*
X102350725Y-29000500D01*
X102350727Y-29000500D01*
X102452587Y-28973207D01*
X102543913Y-28920480D01*
X102602575Y-28861818D01*
X102663899Y-28828334D01*
X102690256Y-28825500D01*
X103647289Y-28825500D01*
X103714328Y-28845185D01*
X103760083Y-28897989D01*
X103770027Y-28967147D01*
X103741002Y-29030703D01*
X103709293Y-29056884D01*
X103670087Y-29079520D01*
X103670084Y-29079522D01*
X103595521Y-29154085D01*
X103542794Y-29245410D01*
X103542793Y-29245413D01*
X103515500Y-29347273D01*
X103515500Y-29452727D01*
X103542793Y-29554587D01*
X103595520Y-29645913D01*
X103670087Y-29720480D01*
X103761413Y-29773207D01*
X103780594Y-29778346D01*
X103840251Y-29814707D01*
X103870782Y-29877553D01*
X103872500Y-29898120D01*
X103872500Y-30526043D01*
X103852815Y-30593082D01*
X103800011Y-30638837D01*
X103730853Y-30648781D01*
X103716408Y-30645818D01*
X103670436Y-30633500D01*
X103670435Y-30633500D01*
X103571565Y-30633500D01*
X103476062Y-30659090D01*
X103476060Y-30659091D01*
X103476059Y-30659091D01*
X103390436Y-30708526D01*
X103320526Y-30778436D01*
X103271091Y-30864059D01*
X103271091Y-30864060D01*
X103271090Y-30864062D01*
X103245500Y-30959565D01*
X103245500Y-31058435D01*
X103271090Y-31153938D01*
X103320525Y-31239562D01*
X103390438Y-31309475D01*
X103476062Y-31358910D01*
X103571565Y-31384500D01*
X103571567Y-31384500D01*
X103670432Y-31384500D01*
X103670435Y-31384500D01*
X103755047Y-31361828D01*
X103824894Y-31363491D01*
X103882757Y-31402653D01*
X103901698Y-31434148D01*
X103906829Y-31446535D01*
X103906830Y-31446537D01*
X103955145Y-31494851D01*
X103955147Y-31494854D01*
X103955148Y-31494854D01*
X113584763Y-41124768D01*
X113584762Y-41124768D01*
X113591830Y-41131836D01*
X113609921Y-41149927D01*
X113655261Y-41195268D01*
X113655262Y-41195268D01*
X113655264Y-41195270D01*
X113686644Y-41208268D01*
X113686646Y-41208269D01*
X113738139Y-41229599D01*
X113738140Y-41229599D01*
X113738142Y-41229600D01*
X113827851Y-41229601D01*
X113827853Y-41229600D01*
X116257896Y-41229600D01*
X116274206Y-41229602D01*
X116306826Y-41229606D01*
X116306826Y-41229605D01*
X116306828Y-41229606D01*
X116306829Y-41229605D01*
X116306858Y-41229600D01*
X116307049Y-41229519D01*
X116347903Y-41212597D01*
X116347910Y-41212596D01*
X116347910Y-41212595D01*
X116356293Y-41209123D01*
X116387025Y-41196397D01*
X116389779Y-41195336D01*
X116389795Y-41195325D01*
X116391942Y-41193064D01*
X116423571Y-41161435D01*
X116423581Y-41161424D01*
X116517043Y-41067984D01*
X118425538Y-39159940D01*
X118486862Y-39126465D01*
X118556553Y-39131457D01*
X118612482Y-39173335D01*
X118620587Y-39185624D01*
X118642520Y-39223613D01*
X118717087Y-39298180D01*
X118808413Y-39350907D01*
X118910273Y-39378200D01*
X118910275Y-39378200D01*
X119015725Y-39378200D01*
X119015727Y-39378200D01*
X119117587Y-39350907D01*
X119208913Y-39298180D01*
X119283480Y-39223613D01*
X119336207Y-39132287D01*
X119363500Y-39030427D01*
X119363500Y-38924973D01*
X119343489Y-38850290D01*
X119345152Y-38780444D01*
X119384314Y-38722581D01*
X119448543Y-38695077D01*
X119463264Y-38694200D01*
X124230862Y-38694200D01*
X124297901Y-38713885D01*
X124343656Y-38766689D01*
X124353600Y-38835847D01*
X124342369Y-38868291D01*
X124343604Y-38868803D01*
X124340493Y-38876313D01*
X124313200Y-38978173D01*
X124313200Y-39083627D01*
X124333649Y-39159942D01*
X124340493Y-39185486D01*
X124340493Y-39185487D01*
X124357638Y-39215183D01*
X124374110Y-39283083D01*
X124351257Y-39349110D01*
X124337931Y-39364863D01*
X121206213Y-42496581D01*
X121144890Y-42530066D01*
X121118532Y-42532900D01*
X121035573Y-42532900D01*
X120933713Y-42560193D01*
X120933710Y-42560194D01*
X120842385Y-42612921D01*
X120767821Y-42687485D01*
X120715094Y-42778810D01*
X120715093Y-42778813D01*
X120687800Y-42880673D01*
X120687800Y-42986127D01*
X120715093Y-43087987D01*
X120767820Y-43179313D01*
X120842387Y-43253880D01*
X120933713Y-43306607D01*
X121035573Y-43333900D01*
X121035575Y-43333900D01*
X121141025Y-43333900D01*
X121141027Y-43333900D01*
X121242887Y-43306607D01*
X121334213Y-43253880D01*
X121408780Y-43179313D01*
X121461507Y-43087987D01*
X121488800Y-42986127D01*
X121488800Y-42903166D01*
X121508485Y-42836127D01*
X121525119Y-42815485D01*
X123170498Y-41170106D01*
X124823994Y-39516610D01*
X124823997Y-39516608D01*
X124841435Y-39499170D01*
X124841436Y-39499170D01*
X124904870Y-39435736D01*
X124917869Y-39404352D01*
X124954003Y-39357266D01*
X124953865Y-39357128D01*
X124954915Y-39356077D01*
X124956958Y-39353416D01*
X124959605Y-39351384D01*
X124959613Y-39351380D01*
X125034180Y-39276813D01*
X125074278Y-39207360D01*
X125124844Y-39159146D01*
X125193451Y-39145923D01*
X125258316Y-39171891D01*
X125289050Y-39207361D01*
X125337520Y-39291313D01*
X125412087Y-39365880D01*
X125503413Y-39418607D01*
X125605273Y-39445900D01*
X125605275Y-39445900D01*
X125688315Y-39445900D01*
X125755354Y-39465585D01*
X125775983Y-39482206D01*
X126216956Y-39923049D01*
X127098168Y-40804003D01*
X127131662Y-40865320D01*
X127134500Y-40891696D01*
X127134500Y-41383744D01*
X127114815Y-41450783D01*
X127098182Y-41471425D01*
X127039520Y-41530087D01*
X126986794Y-41621410D01*
X126986793Y-41621413D01*
X126959500Y-41723273D01*
X126959500Y-41828727D01*
X126986793Y-41930587D01*
X127039520Y-42021913D01*
X127114087Y-42096480D01*
X127168699Y-42128010D01*
X127216914Y-42178576D01*
X127230137Y-42247183D01*
X127204169Y-42312048D01*
X127194390Y-42323066D01*
X125163384Y-44354586D01*
X124844641Y-44673410D01*
X124771899Y-44746170D01*
X124710580Y-44779663D01*
X124684207Y-44782500D01*
X123259872Y-44782500D01*
X123192833Y-44762815D01*
X123172145Y-44746135D01*
X123160773Y-44734751D01*
X123127320Y-44673410D01*
X123124500Y-44647116D01*
X123124500Y-44563875D01*
X123124499Y-44563871D01*
X123117641Y-44538276D01*
X123119303Y-44468426D01*
X123158464Y-44410563D01*
X123205320Y-44386407D01*
X123254587Y-44373207D01*
X123345913Y-44320480D01*
X123420480Y-44245913D01*
X123473207Y-44154587D01*
X123500500Y-44052727D01*
X123500500Y-44028971D01*
X123520185Y-43961932D01*
X123572989Y-43916177D01*
X123640692Y-43906033D01*
X123647271Y-43906899D01*
X123647273Y-43906900D01*
X123647275Y-43906900D01*
X123752725Y-43906900D01*
X123752727Y-43906900D01*
X123815787Y-43890003D01*
X123885635Y-43891665D01*
X123943498Y-43930827D01*
X123962439Y-43962320D01*
X123963790Y-43965583D01*
X123996501Y-44022239D01*
X124016520Y-44056913D01*
X124091087Y-44131480D01*
X124182413Y-44184207D01*
X124284273Y-44211500D01*
X124284275Y-44211500D01*
X124389725Y-44211500D01*
X124389727Y-44211500D01*
X124491587Y-44184207D01*
X124582913Y-44131480D01*
X124657480Y-44056913D01*
X124710207Y-43965587D01*
X124737500Y-43863727D01*
X124737500Y-43758273D01*
X124710207Y-43656413D01*
X124657480Y-43565087D01*
X124582913Y-43490520D01*
X124491587Y-43437793D01*
X124389727Y-43410500D01*
X124284273Y-43410500D01*
X124221212Y-43427397D01*
X124151362Y-43425734D01*
X124093500Y-43386571D01*
X124074558Y-43355074D01*
X124073207Y-43351814D01*
X124073207Y-43351813D01*
X124020480Y-43260487D01*
X123945913Y-43185920D01*
X123854587Y-43133193D01*
X123752727Y-43105900D01*
X123647273Y-43105900D01*
X123545413Y-43133193D01*
X123545410Y-43133194D01*
X123454085Y-43185921D01*
X123379521Y-43260485D01*
X123326794Y-43351810D01*
X123326793Y-43351813D01*
X123299500Y-43453673D01*
X123299500Y-43477428D01*
X123279815Y-43544467D01*
X123227011Y-43590222D01*
X123159316Y-43600367D01*
X123152730Y-43599500D01*
X123152727Y-43599500D01*
X123047273Y-43599500D01*
X122945413Y-43626793D01*
X122945410Y-43626794D01*
X122854085Y-43679521D01*
X122779521Y-43754085D01*
X122726794Y-43845410D01*
X122726793Y-43845413D01*
X122699500Y-43947273D01*
X122699500Y-43974590D01*
X122679815Y-44041629D01*
X122627011Y-44087384D01*
X122557853Y-44097328D01*
X122494297Y-44068303D01*
X122468113Y-44036590D01*
X122432317Y-43974590D01*
X122420480Y-43954087D01*
X122345913Y-43879520D01*
X122254587Y-43826793D01*
X122152727Y-43799500D01*
X122047273Y-43799500D01*
X121945413Y-43826793D01*
X121945410Y-43826794D01*
X121854085Y-43879521D01*
X121779521Y-43954085D01*
X121726794Y-44045410D01*
X121726793Y-44045413D01*
X121699500Y-44147273D01*
X121699500Y-44252727D01*
X121726793Y-44354587D01*
X121779520Y-44445913D01*
X121854087Y-44520480D01*
X121945413Y-44573207D01*
X122047273Y-44600500D01*
X122047275Y-44600500D01*
X122152725Y-44600500D01*
X122152727Y-44600500D01*
X122175078Y-44594511D01*
X122244927Y-44596172D01*
X122302790Y-44635334D01*
X122326947Y-44682191D01*
X122350793Y-44771188D01*
X122350794Y-44771189D01*
X122364922Y-44795659D01*
X122403520Y-44862513D01*
X122478087Y-44937080D01*
X122569413Y-44989807D01*
X122671273Y-45017100D01*
X122671275Y-45017100D01*
X122753949Y-45017100D01*
X122820988Y-45036785D01*
X122841676Y-45053464D01*
X122906494Y-45118349D01*
X122906495Y-45118350D01*
X122923806Y-45135678D01*
X122923830Y-45135736D01*
X122956808Y-45168714D01*
X122987167Y-45199104D01*
X122987219Y-45199125D01*
X122987264Y-45199170D01*
X123029573Y-45216695D01*
X123070030Y-45233477D01*
X123070089Y-45233477D01*
X123070145Y-45233500D01*
X123114885Y-45233500D01*
X123159739Y-45233523D01*
X123159795Y-45233500D01*
X124771552Y-45233500D01*
X124771630Y-45233507D01*
X124784173Y-45233505D01*
X124784174Y-45233506D01*
X124833106Y-45233500D01*
X124873855Y-45233500D01*
X124873857Y-45233499D01*
X124873875Y-45233495D01*
X124873883Y-45233495D01*
X124915716Y-45216160D01*
X124915718Y-45216159D01*
X124915718Y-45216160D01*
X124915725Y-45216156D01*
X124952789Y-45200804D01*
X124956586Y-45199387D01*
X124956652Y-45199343D01*
X124958562Y-45197350D01*
X124984520Y-45171386D01*
X124984521Y-45171387D01*
X124984529Y-45171375D01*
X125020170Y-45135736D01*
X125020170Y-45135735D01*
X125029514Y-45126392D01*
X125029567Y-45126326D01*
X128455101Y-41699929D01*
X128516420Y-41666437D01*
X128542793Y-41663600D01*
X137986744Y-41663600D01*
X138053783Y-41683285D01*
X138074425Y-41699918D01*
X138133087Y-41758580D01*
X138224413Y-41811307D01*
X138326273Y-41838600D01*
X138326275Y-41838600D01*
X138431725Y-41838600D01*
X138431727Y-41838600D01*
X138533587Y-41811307D01*
X138533593Y-41811303D01*
X138541043Y-41808218D01*
X138610512Y-41800746D01*
X138672993Y-41832019D01*
X138708647Y-41892107D01*
X138712500Y-41922777D01*
X138712500Y-42498841D01*
X138692815Y-42565880D01*
X138676185Y-42586519D01*
X138573057Y-42689655D01*
X138511735Y-42723142D01*
X138442043Y-42718160D01*
X138386108Y-42676291D01*
X138377990Y-42663984D01*
X138336480Y-42592087D01*
X138261913Y-42517520D01*
X138170587Y-42464793D01*
X138068727Y-42437500D01*
X137963273Y-42437500D01*
X137861413Y-42464793D01*
X137861410Y-42464794D01*
X137770085Y-42517521D01*
X137695521Y-42592085D01*
X137642794Y-42683410D01*
X137642793Y-42683413D01*
X137615500Y-42785273D01*
X137615500Y-42868239D01*
X137595815Y-42935278D01*
X137579182Y-42955919D01*
X134140911Y-46394280D01*
X134079589Y-46427766D01*
X134053229Y-46430600D01*
X123692256Y-46430600D01*
X123625217Y-46410915D01*
X123604575Y-46394282D01*
X123604573Y-46394280D01*
X123545913Y-46335620D01*
X123454587Y-46282893D01*
X123352727Y-46255600D01*
X123247273Y-46255600D01*
X123145413Y-46282893D01*
X123145410Y-46282894D01*
X123054085Y-46335621D01*
X122979521Y-46410185D01*
X122926794Y-46501510D01*
X122926793Y-46501513D01*
X122899500Y-46603373D01*
X122899500Y-46708827D01*
X122926793Y-46810687D01*
X122975530Y-46895103D01*
X122992003Y-46963001D01*
X122969151Y-47029028D01*
X122955826Y-47044780D01*
X122938521Y-47062085D01*
X122885794Y-47153410D01*
X122885793Y-47153413D01*
X122858500Y-47255273D01*
X122858500Y-47360727D01*
X122878599Y-47435736D01*
X122885793Y-47462586D01*
X122885794Y-47462589D01*
X122893464Y-47475874D01*
X122938520Y-47553913D01*
X123013087Y-47628480D01*
X123104413Y-47681207D01*
X123206273Y-47708500D01*
X123206275Y-47708500D01*
X123311725Y-47708500D01*
X123311727Y-47708500D01*
X123413587Y-47681207D01*
X123504913Y-47628480D01*
X123563575Y-47569818D01*
X123624899Y-47536334D01*
X123651256Y-47533500D01*
X134216545Y-47533500D01*
X134216583Y-47533503D01*
X134229153Y-47533502D01*
X134229155Y-47533503D01*
X134296437Y-47533500D01*
X134318855Y-47533500D01*
X134319036Y-47533500D01*
X134319408Y-47533419D01*
X134322857Y-47531844D01*
X134360621Y-47516199D01*
X134393291Y-47502667D01*
X134400516Y-47500282D01*
X134401817Y-47499647D01*
X134406571Y-47494336D01*
X134425031Y-47475874D01*
X134465170Y-47435736D01*
X134465170Y-47435733D01*
X134475365Y-47425540D01*
X134475379Y-47425521D01*
X138250011Y-43650565D01*
X143374500Y-43650565D01*
X143374500Y-43749435D01*
X143400090Y-43844938D01*
X143400091Y-43844939D01*
X143400091Y-43844940D01*
X143400364Y-43845413D01*
X143449525Y-43930562D01*
X143519438Y-44000475D01*
X143605062Y-44049910D01*
X143700565Y-44075500D01*
X143700567Y-44075500D01*
X143799432Y-44075500D01*
X143799435Y-44075500D01*
X143894938Y-44049910D01*
X143980562Y-44000475D01*
X144050475Y-43930562D01*
X144099910Y-43844938D01*
X144125500Y-43749435D01*
X144125500Y-43650565D01*
X144099910Y-43555062D01*
X144050475Y-43469438D01*
X143980562Y-43399525D01*
X143894938Y-43350090D01*
X143799435Y-43324500D01*
X143700565Y-43324500D01*
X143605062Y-43350090D01*
X143605060Y-43350091D01*
X143605059Y-43350091D01*
X143519436Y-43399526D01*
X143449526Y-43469436D01*
X143400091Y-43555059D01*
X143400091Y-43555060D01*
X143400090Y-43555062D01*
X143374500Y-43650565D01*
X138250011Y-43650565D01*
X139082599Y-42817906D01*
X139120511Y-42779994D01*
X139125233Y-42776123D01*
X139125309Y-42776032D01*
X139129620Y-42771277D01*
X139131877Y-42764803D01*
X139154467Y-42710262D01*
X139163326Y-42688874D01*
X139163500Y-42688461D01*
X139163502Y-42688450D01*
X139163501Y-42688447D01*
X139163503Y-42688445D01*
X139163500Y-42612499D01*
X139163500Y-40890473D01*
X139699500Y-40890473D01*
X139699500Y-40995927D01*
X139726793Y-41097787D01*
X139779520Y-41189113D01*
X139854087Y-41263680D01*
X139945413Y-41316407D01*
X140047273Y-41343700D01*
X140047275Y-41343700D01*
X140152725Y-41343700D01*
X140152727Y-41343700D01*
X140254587Y-41316407D01*
X140345913Y-41263680D01*
X140420480Y-41189113D01*
X140473207Y-41097787D01*
X140500500Y-40995927D01*
X140500500Y-40890473D01*
X140473207Y-40788613D01*
X140420480Y-40697287D01*
X140345913Y-40622720D01*
X140254587Y-40569993D01*
X140152727Y-40542700D01*
X140047273Y-40542700D01*
X139945413Y-40569993D01*
X139945410Y-40569994D01*
X139854085Y-40622721D01*
X139779521Y-40697285D01*
X139726794Y-40788610D01*
X139726793Y-40788613D01*
X139699500Y-40890473D01*
X139163500Y-40890473D01*
X139163500Y-40848055D01*
X139183185Y-40781016D01*
X139199819Y-40760374D01*
X139217901Y-40742292D01*
X139258480Y-40701713D01*
X139311207Y-40610387D01*
X139338500Y-40508527D01*
X139338500Y-40403073D01*
X139311207Y-40301213D01*
X139258480Y-40209887D01*
X139183913Y-40135320D01*
X139092587Y-40082593D01*
X138990727Y-40055300D01*
X138885273Y-40055300D01*
X138783413Y-40082593D01*
X138783410Y-40082594D01*
X138692085Y-40135321D01*
X138617521Y-40209885D01*
X138564794Y-40301210D01*
X138564793Y-40301213D01*
X138537500Y-40403073D01*
X138537500Y-40508527D01*
X138564793Y-40610387D01*
X138617508Y-40701693D01*
X138617521Y-40701714D01*
X138676181Y-40760374D01*
X138709666Y-40821697D01*
X138712500Y-40848055D01*
X138712500Y-40953422D01*
X138692815Y-41020461D01*
X138640011Y-41066216D01*
X138570853Y-41076160D01*
X138541050Y-41067984D01*
X138533590Y-41064894D01*
X138533587Y-41064893D01*
X138431727Y-41037600D01*
X138326273Y-41037600D01*
X138224413Y-41064893D01*
X138224410Y-41064894D01*
X138133087Y-41117620D01*
X138074425Y-41176282D01*
X138013101Y-41209766D01*
X137986744Y-41212600D01*
X128455007Y-41212600D01*
X128454914Y-41212591D01*
X128390496Y-41212600D01*
X128353129Y-41212600D01*
X128312114Y-41229595D01*
X128312099Y-41229601D01*
X128270251Y-41246934D01*
X128242482Y-41274710D01*
X128199206Y-41317986D01*
X128199149Y-41318054D01*
X127907023Y-41610254D01*
X127845704Y-41643747D01*
X127776012Y-41638771D01*
X127720073Y-41596907D01*
X127711944Y-41584585D01*
X127680480Y-41530087D01*
X127621818Y-41471425D01*
X127588334Y-41410101D01*
X127585500Y-41383744D01*
X127585500Y-40804582D01*
X127585508Y-40804495D01*
X127585506Y-40791723D01*
X127585507Y-40791722D01*
X127585500Y-40743416D01*
X127585500Y-40702045D01*
X127585494Y-40702030D01*
X127585494Y-40702012D01*
X127568486Y-40660969D01*
X127551170Y-40619164D01*
X127551156Y-40619150D01*
X127551151Y-40619137D01*
X127523885Y-40591879D01*
X127487736Y-40555730D01*
X127487717Y-40555722D01*
X126383771Y-39452099D01*
X126094832Y-39163244D01*
X126061338Y-39101926D01*
X126058500Y-39075550D01*
X126058500Y-38992675D01*
X126058500Y-38992673D01*
X126031207Y-38890813D01*
X126030177Y-38889029D01*
X126025079Y-38880198D01*
X126008608Y-38812298D01*
X126031461Y-38746271D01*
X126086383Y-38703082D01*
X126132467Y-38694200D01*
X127645109Y-38694200D01*
X127712148Y-38713885D01*
X127732838Y-38730567D01*
X127933236Y-38931206D01*
X127966682Y-38992547D01*
X127969500Y-39018832D01*
X127969500Y-39102127D01*
X127984992Y-39159942D01*
X127996793Y-39203986D01*
X127996794Y-39203989D01*
X128002550Y-39213958D01*
X128049520Y-39295313D01*
X128124087Y-39369880D01*
X128215413Y-39422607D01*
X128317273Y-39449900D01*
X128317275Y-39449900D01*
X128422725Y-39449900D01*
X128422727Y-39449900D01*
X128524587Y-39422607D01*
X128615913Y-39369880D01*
X128690480Y-39295313D01*
X128701978Y-39275396D01*
X128752541Y-39227183D01*
X128821148Y-39213958D01*
X128886013Y-39239924D01*
X128916748Y-39275392D01*
X128929520Y-39297513D01*
X129004087Y-39372080D01*
X129095413Y-39424807D01*
X129197273Y-39452100D01*
X129197275Y-39452100D01*
X129302725Y-39452100D01*
X129302727Y-39452100D01*
X129404587Y-39424807D01*
X129495913Y-39372080D01*
X129570480Y-39297513D01*
X129623207Y-39206187D01*
X129650500Y-39104327D01*
X129650500Y-38998873D01*
X129623207Y-38897013D01*
X129570480Y-38805687D01*
X129495913Y-38731120D01*
X129404587Y-38678393D01*
X129302727Y-38651100D01*
X129219892Y-38651100D01*
X129152853Y-38631415D01*
X129132191Y-38614762D01*
X128567075Y-38049393D01*
X128567074Y-38049392D01*
X128549180Y-38031490D01*
X128549170Y-38031464D01*
X128514797Y-37997091D01*
X128485778Y-37968059D01*
X128485755Y-37968049D01*
X128485736Y-37968030D01*
X128444531Y-37950962D01*
X128402905Y-37933709D01*
X128402876Y-37933708D01*
X128402855Y-37933700D01*
X128362536Y-37933700D01*
X128313196Y-37933689D01*
X128313169Y-37933700D01*
X117015006Y-37933700D01*
X117014763Y-37933699D01*
X116970150Y-37933699D01*
X116970149Y-37933699D01*
X116969965Y-37933699D01*
X116969595Y-37933779D01*
X116966098Y-37935376D01*
X116907377Y-37959698D01*
X116907374Y-37959699D01*
X116892921Y-37965685D01*
X116888308Y-37967334D01*
X116887265Y-37968029D01*
X116836337Y-38018956D01*
X116836336Y-38018956D01*
X114754088Y-40101121D01*
X114692765Y-40134605D01*
X114623073Y-40129619D01*
X114567140Y-40087746D01*
X114546634Y-40045532D01*
X114536207Y-40006613D01*
X114536204Y-40006608D01*
X114536047Y-40006229D01*
X114536036Y-40006202D01*
X114509729Y-39960752D01*
X114509660Y-39960633D01*
X114483485Y-39915296D01*
X114483480Y-39915287D01*
X114483472Y-39915279D01*
X114483451Y-39915251D01*
X114483380Y-39915158D01*
X114483213Y-39914941D01*
X114483212Y-39914938D01*
X114483209Y-39914935D01*
X114483206Y-39914931D01*
X114461913Y-39893684D01*
X114428362Y-39832397D01*
X114425500Y-39805909D01*
X114425500Y-30475541D01*
X114445185Y-30408502D01*
X114497989Y-30362747D01*
X114567147Y-30352803D01*
X114581577Y-30355762D01*
X114674273Y-30380600D01*
X114674276Y-30380600D01*
X114757240Y-30380600D01*
X114824279Y-30400285D01*
X114844919Y-30416917D01*
X118900829Y-34472735D01*
X118900830Y-34472736D01*
X118964264Y-34536170D01*
X119047145Y-34570500D01*
X119047146Y-34570500D01*
X119047148Y-34570501D01*
X119136857Y-34570500D01*
X120777744Y-34570500D01*
X120844783Y-34590185D01*
X120865425Y-34606818D01*
X120924087Y-34665480D01*
X121015413Y-34718207D01*
X121117273Y-34745500D01*
X121117275Y-34745500D01*
X121222725Y-34745500D01*
X121222727Y-34745500D01*
X121324587Y-34718207D01*
X121415913Y-34665480D01*
X121490480Y-34590913D01*
X121543207Y-34499587D01*
X121570500Y-34397727D01*
X121570500Y-34292273D01*
X121543207Y-34190413D01*
X121490480Y-34099087D01*
X121415913Y-34024520D01*
X121324587Y-33971793D01*
X121222727Y-33944500D01*
X121117273Y-33944500D01*
X121015413Y-33971793D01*
X121015410Y-33971794D01*
X120924087Y-34024520D01*
X120865425Y-34083182D01*
X120804101Y-34116666D01*
X120777744Y-34119500D01*
X119236765Y-34119500D01*
X119169726Y-34099815D01*
X119149085Y-34083182D01*
X119121796Y-34055894D01*
X118931971Y-33866073D01*
X122520500Y-33866073D01*
X122520500Y-33971527D01*
X122547793Y-34073387D01*
X122600520Y-34164713D01*
X122675087Y-34239280D01*
X122766413Y-34292007D01*
X122868273Y-34319300D01*
X122868275Y-34319300D01*
X122973725Y-34319300D01*
X122973727Y-34319300D01*
X123075587Y-34292007D01*
X123166913Y-34239280D01*
X123241480Y-34164713D01*
X123246180Y-34156573D01*
X126808500Y-34156573D01*
X126808500Y-34262027D01*
X126835793Y-34363887D01*
X126888520Y-34455213D01*
X126963087Y-34529780D01*
X127054413Y-34582507D01*
X127156273Y-34609800D01*
X127156275Y-34609800D01*
X127261725Y-34609800D01*
X127261727Y-34609800D01*
X127363587Y-34582507D01*
X127454913Y-34529780D01*
X127529480Y-34455213D01*
X127582207Y-34363887D01*
X127609500Y-34262027D01*
X127609500Y-34156573D01*
X127582207Y-34054713D01*
X127529480Y-33963387D01*
X127454913Y-33888820D01*
X127363587Y-33836093D01*
X127261727Y-33808800D01*
X127156273Y-33808800D01*
X127054413Y-33836093D01*
X127054410Y-33836094D01*
X126963085Y-33888821D01*
X126888521Y-33963385D01*
X126835794Y-34054710D01*
X126835793Y-34054713D01*
X126808500Y-34156573D01*
X123246180Y-34156573D01*
X123294207Y-34073387D01*
X123321500Y-33971527D01*
X123321500Y-33866073D01*
X123294207Y-33764213D01*
X123241480Y-33672887D01*
X123177466Y-33608873D01*
X123938500Y-33608873D01*
X123938500Y-33714327D01*
X123965793Y-33816187D01*
X124018520Y-33907513D01*
X124093087Y-33982080D01*
X124184413Y-34034807D01*
X124286273Y-34062100D01*
X124286275Y-34062100D01*
X124391725Y-34062100D01*
X124391727Y-34062100D01*
X124493587Y-34034807D01*
X124584913Y-33982080D01*
X124659480Y-33907513D01*
X124712207Y-33816187D01*
X124739500Y-33714327D01*
X124739500Y-33608873D01*
X124712207Y-33507013D01*
X124659480Y-33415687D01*
X124584913Y-33341120D01*
X124493587Y-33288393D01*
X124391727Y-33261100D01*
X124286273Y-33261100D01*
X124184413Y-33288393D01*
X124184410Y-33288394D01*
X124093085Y-33341121D01*
X124018521Y-33415685D01*
X123965794Y-33507010D01*
X123965793Y-33507013D01*
X123938500Y-33608873D01*
X123177466Y-33608873D01*
X123166913Y-33598320D01*
X123075587Y-33545593D01*
X122973727Y-33518300D01*
X122868273Y-33518300D01*
X122766413Y-33545593D01*
X122766410Y-33545594D01*
X122675085Y-33598321D01*
X122600521Y-33672885D01*
X122547794Y-33764210D01*
X122547793Y-33764213D01*
X122520500Y-33866073D01*
X118931971Y-33866073D01*
X117653051Y-32587182D01*
X117619565Y-32525859D01*
X117624549Y-32456168D01*
X117666419Y-32400234D01*
X117731884Y-32375816D01*
X117740731Y-32375500D01*
X117799432Y-32375500D01*
X117799435Y-32375500D01*
X117894938Y-32349910D01*
X117980562Y-32300475D01*
X118050475Y-32230562D01*
X118099910Y-32144938D01*
X118125500Y-32049435D01*
X118125500Y-31950565D01*
X118099910Y-31855062D01*
X118050475Y-31769438D01*
X117980562Y-31699525D01*
X117894938Y-31650090D01*
X117799435Y-31624500D01*
X117700565Y-31624500D01*
X117605062Y-31650090D01*
X117605060Y-31650091D01*
X117605059Y-31650091D01*
X117519436Y-31699526D01*
X117449526Y-31769436D01*
X117400091Y-31855059D01*
X117400091Y-31855060D01*
X117400090Y-31855062D01*
X117374500Y-31950565D01*
X117374500Y-31950567D01*
X117374500Y-32009280D01*
X117354815Y-32076319D01*
X117302011Y-32122074D01*
X117232853Y-32132018D01*
X117169297Y-32102993D01*
X117162820Y-32096962D01*
X115745945Y-30680120D01*
X115666388Y-30600565D01*
X118124500Y-30600565D01*
X118124500Y-30699435D01*
X118150090Y-30794938D01*
X118199525Y-30880562D01*
X118269438Y-30950475D01*
X118355062Y-30999910D01*
X118450565Y-31025500D01*
X118450567Y-31025500D01*
X118549432Y-31025500D01*
X118549435Y-31025500D01*
X118644938Y-30999910D01*
X118730562Y-30950475D01*
X118758921Y-30922116D01*
X118769220Y-30911818D01*
X118830543Y-30878333D01*
X118856900Y-30875500D01*
X119349216Y-30875500D01*
X119416255Y-30895185D01*
X119462010Y-30947989D01*
X119471954Y-31017147D01*
X119456603Y-31061500D01*
X119411794Y-31139110D01*
X119411793Y-31139113D01*
X119384500Y-31240973D01*
X119384500Y-31346427D01*
X119411095Y-31445680D01*
X119411793Y-31448286D01*
X119411794Y-31448289D01*
X119424860Y-31470920D01*
X119464520Y-31539613D01*
X119539087Y-31614180D01*
X119630413Y-31666907D01*
X119732273Y-31694200D01*
X119732275Y-31694200D01*
X119837725Y-31694200D01*
X119837727Y-31694200D01*
X119939587Y-31666907D01*
X120030913Y-31614180D01*
X120094528Y-31550565D01*
X120524500Y-31550565D01*
X120524500Y-31649435D01*
X120550090Y-31744938D01*
X120599525Y-31830562D01*
X120669438Y-31900475D01*
X120755062Y-31949910D01*
X120850565Y-31975500D01*
X120850567Y-31975500D01*
X120949432Y-31975500D01*
X120949435Y-31975500D01*
X121044938Y-31949910D01*
X121130562Y-31900475D01*
X121200475Y-31830562D01*
X121249910Y-31744938D01*
X121275500Y-31649435D01*
X121275500Y-31550565D01*
X121249910Y-31455062D01*
X121200475Y-31369438D01*
X121130562Y-31299525D01*
X121044938Y-31250090D01*
X120949435Y-31224500D01*
X120850565Y-31224500D01*
X120755062Y-31250090D01*
X120755060Y-31250091D01*
X120755059Y-31250091D01*
X120669436Y-31299526D01*
X120599526Y-31369436D01*
X120550091Y-31455059D01*
X120550091Y-31455060D01*
X120550090Y-31455062D01*
X120524500Y-31550565D01*
X120094528Y-31550565D01*
X120105480Y-31539613D01*
X120158207Y-31448287D01*
X120185500Y-31346427D01*
X120185500Y-31240973D01*
X120158207Y-31139113D01*
X120113396Y-31061499D01*
X120096924Y-30993600D01*
X120119776Y-30927573D01*
X120174698Y-30884382D01*
X120220784Y-30875500D01*
X121255232Y-30875500D01*
X121322271Y-30895185D01*
X121342913Y-30911819D01*
X121372266Y-30941172D01*
X121436365Y-30967721D01*
X121455145Y-30975500D01*
X121555233Y-30975500D01*
X121622272Y-30995185D01*
X121642914Y-31011819D01*
X121701759Y-31070664D01*
X121701762Y-31070668D01*
X121708830Y-31077736D01*
X121772264Y-31141170D01*
X121803089Y-31153938D01*
X121855146Y-31175501D01*
X121855234Y-31175501D01*
X121855416Y-31175554D01*
X121867123Y-31177883D01*
X121866914Y-31178930D01*
X121922273Y-31195186D01*
X121942915Y-31211820D01*
X121972264Y-31241169D01*
X121972265Y-31241169D01*
X121972266Y-31241170D01*
X122055147Y-31275500D01*
X122144856Y-31275500D01*
X122144858Y-31275499D01*
X122167532Y-31275499D01*
X122179601Y-31277918D01*
X122200082Y-31288669D01*
X122222271Y-31295185D01*
X122240544Y-31309910D01*
X122241464Y-31310393D01*
X122241734Y-31310869D01*
X122242913Y-31311819D01*
X122272264Y-31341170D01*
X122315091Y-31358909D01*
X122315092Y-31358910D01*
X122355141Y-31375499D01*
X122355142Y-31375499D01*
X122355144Y-31375500D01*
X122355232Y-31375500D01*
X122355414Y-31375553D01*
X122367121Y-31377882D01*
X122366912Y-31378929D01*
X122422271Y-31395185D01*
X122442913Y-31411819D01*
X122472266Y-31441172D01*
X122536365Y-31467721D01*
X122555145Y-31475500D01*
X122555232Y-31475500D01*
X122555411Y-31475552D01*
X122567122Y-31477882D01*
X122566913Y-31478930D01*
X122622271Y-31495185D01*
X122642913Y-31511819D01*
X122672266Y-31541172D01*
X122736365Y-31567721D01*
X122755145Y-31575500D01*
X122755232Y-31575500D01*
X122755411Y-31575552D01*
X122767122Y-31577882D01*
X122766913Y-31578930D01*
X122822271Y-31595185D01*
X122842913Y-31611819D01*
X122872264Y-31641170D01*
X122872266Y-31641171D01*
X122882419Y-31647955D01*
X122880930Y-31650181D01*
X122921488Y-31682863D01*
X122927020Y-31691584D01*
X122931606Y-31699526D01*
X122949525Y-31730562D01*
X123019438Y-31800475D01*
X123105062Y-31849910D01*
X123200565Y-31875500D01*
X123200567Y-31875500D01*
X123299432Y-31875500D01*
X123299435Y-31875500D01*
X123394938Y-31849910D01*
X123480562Y-31800475D01*
X123542364Y-31738673D01*
X124746500Y-31738673D01*
X124746500Y-31844127D01*
X124773793Y-31945987D01*
X124826520Y-32037313D01*
X124901087Y-32111880D01*
X124992413Y-32164607D01*
X125094273Y-32191900D01*
X125094275Y-32191900D01*
X125199725Y-32191900D01*
X125199727Y-32191900D01*
X125301587Y-32164607D01*
X125392913Y-32111880D01*
X125467480Y-32037313D01*
X125520207Y-31945987D01*
X125547500Y-31844127D01*
X125547500Y-31743773D01*
X126971500Y-31743773D01*
X126971500Y-31849227D01*
X126998793Y-31951087D01*
X127051520Y-32042413D01*
X127126087Y-32116980D01*
X127217413Y-32169707D01*
X127319273Y-32197000D01*
X127319275Y-32197000D01*
X127424725Y-32197000D01*
X127424727Y-32197000D01*
X127526587Y-32169707D01*
X127617913Y-32116980D01*
X127692480Y-32042413D01*
X127745207Y-31951087D01*
X127772500Y-31849227D01*
X127772500Y-31743773D01*
X127745207Y-31641913D01*
X127692480Y-31550587D01*
X127617913Y-31476020D01*
X127551059Y-31437422D01*
X127526589Y-31423294D01*
X127526588Y-31423293D01*
X127526587Y-31423293D01*
X127424727Y-31396000D01*
X127319273Y-31396000D01*
X127222160Y-31422021D01*
X127217413Y-31423293D01*
X127217410Y-31423294D01*
X127126085Y-31476021D01*
X127051521Y-31550585D01*
X126998794Y-31641910D01*
X126998793Y-31641913D01*
X126971500Y-31743773D01*
X125547500Y-31743773D01*
X125547500Y-31738673D01*
X125520207Y-31636813D01*
X125473518Y-31555945D01*
X125457046Y-31488048D01*
X125479898Y-31422021D01*
X125493220Y-31406272D01*
X125528380Y-31371113D01*
X125581107Y-31279787D01*
X125589783Y-31247404D01*
X125626148Y-31187746D01*
X125688995Y-31157217D01*
X125709558Y-31155500D01*
X128947744Y-31155500D01*
X129014783Y-31175185D01*
X129060538Y-31227989D01*
X129070482Y-31297147D01*
X129067519Y-31311590D01*
X129048500Y-31382573D01*
X129048500Y-31488027D01*
X129075793Y-31589887D01*
X129128520Y-31681213D01*
X129203087Y-31755780D01*
X129294413Y-31808507D01*
X129396273Y-31835800D01*
X129396275Y-31835800D01*
X129501725Y-31835800D01*
X129501727Y-31835800D01*
X129603587Y-31808507D01*
X129694913Y-31755780D01*
X129769480Y-31681213D01*
X129796715Y-31634039D01*
X129847279Y-31585827D01*
X129915886Y-31572603D01*
X129980751Y-31598571D01*
X130011486Y-31634040D01*
X130042820Y-31688313D01*
X130117387Y-31762880D01*
X130208713Y-31815607D01*
X130310573Y-31842900D01*
X130310575Y-31842900D01*
X130416025Y-31842900D01*
X130416027Y-31842900D01*
X130517887Y-31815607D01*
X130609213Y-31762880D01*
X130683780Y-31688313D01*
X130686502Y-31683597D01*
X130737064Y-31635383D01*
X130805670Y-31622157D01*
X130870536Y-31648122D01*
X130893667Y-31674814D01*
X130894578Y-31674116D01*
X130899523Y-31680561D01*
X130899524Y-31680562D01*
X130969437Y-31750475D01*
X131055061Y-31799910D01*
X131150564Y-31825500D01*
X131150566Y-31825500D01*
X131249431Y-31825500D01*
X131249434Y-31825500D01*
X131344937Y-31799910D01*
X131430561Y-31750475D01*
X131500474Y-31680562D01*
X131549909Y-31594938D01*
X131575499Y-31499435D01*
X131575499Y-31400565D01*
X131549909Y-31305062D01*
X131500474Y-31219438D01*
X131430561Y-31149525D01*
X131344937Y-31100090D01*
X131249434Y-31074500D01*
X131150564Y-31074500D01*
X131055061Y-31100090D01*
X131055059Y-31100091D01*
X131055058Y-31100091D01*
X130969435Y-31149526D01*
X130899525Y-31219436D01*
X130896942Y-31222803D01*
X130894041Y-31224920D01*
X130893777Y-31225185D01*
X130893735Y-31225143D01*
X130840512Y-31264002D01*
X130770766Y-31268154D01*
X130709847Y-31233938D01*
X130691187Y-31209317D01*
X130683780Y-31196487D01*
X130609213Y-31121920D01*
X130532684Y-31077736D01*
X130517889Y-31069194D01*
X130517888Y-31069193D01*
X130517887Y-31069193D01*
X130416027Y-31041900D01*
X130333067Y-31041900D01*
X130266028Y-31022215D01*
X130245386Y-31005581D01*
X130059511Y-30819706D01*
X130059509Y-30819703D01*
X129978634Y-30738828D01*
X129945836Y-30725244D01*
X129944040Y-30724500D01*
X129944038Y-30724499D01*
X129895757Y-30704499D01*
X129895755Y-30704499D01*
X129806045Y-30704499D01*
X129791611Y-30704499D01*
X129791603Y-30704500D01*
X129294638Y-30704500D01*
X129227599Y-30684815D01*
X129181844Y-30632011D01*
X129171900Y-30562853D01*
X129174863Y-30548407D01*
X129180855Y-30526043D01*
X129200500Y-30452727D01*
X129200500Y-30347273D01*
X129173207Y-30245413D01*
X129120480Y-30154087D01*
X129045913Y-30079520D01*
X128959908Y-30029865D01*
X128954589Y-30026794D01*
X128954588Y-30026793D01*
X128954587Y-30026793D01*
X128852727Y-29999500D01*
X128747273Y-29999500D01*
X128645413Y-30026793D01*
X128645410Y-30026794D01*
X128554085Y-30079521D01*
X128479521Y-30154085D01*
X128426794Y-30245410D01*
X128426793Y-30245413D01*
X128399500Y-30347273D01*
X128399500Y-30452727D01*
X128413457Y-30504814D01*
X128425137Y-30548407D01*
X128423474Y-30618257D01*
X128384311Y-30676119D01*
X128320082Y-30703623D01*
X128305362Y-30704500D01*
X125447954Y-30704500D01*
X125358245Y-30704500D01*
X125358243Y-30704500D01*
X125358239Y-30704501D01*
X125328385Y-30716866D01*
X125264765Y-30725244D01*
X125260630Y-30724700D01*
X125260627Y-30724700D01*
X125155173Y-30724700D01*
X125053313Y-30751993D01*
X125053310Y-30751994D01*
X124961985Y-30804721D01*
X124887421Y-30879285D01*
X124834694Y-30970610D01*
X124834693Y-30970613D01*
X124807400Y-31072473D01*
X124807400Y-31177927D01*
X124834144Y-31277736D01*
X124834693Y-31279786D01*
X124834694Y-31279789D01*
X124851832Y-31309473D01*
X124880373Y-31358908D01*
X124881380Y-31360651D01*
X124897853Y-31428551D01*
X124875001Y-31494578D01*
X124861675Y-31510331D01*
X124826521Y-31545485D01*
X124773794Y-31636810D01*
X124773793Y-31636813D01*
X124746500Y-31738673D01*
X123542364Y-31738673D01*
X123550475Y-31730562D01*
X123599910Y-31644938D01*
X123625500Y-31549435D01*
X123625500Y-31450565D01*
X123599910Y-31355062D01*
X123550475Y-31269438D01*
X123480562Y-31199525D01*
X123394938Y-31150090D01*
X123299435Y-31124500D01*
X123200565Y-31124500D01*
X123146541Y-31138975D01*
X123105053Y-31150092D01*
X123103293Y-31150822D01*
X123101689Y-31150994D01*
X123097212Y-31152194D01*
X123097024Y-31151495D01*
X123033823Y-31158286D01*
X123008400Y-31150820D01*
X122995489Y-31145473D01*
X122995487Y-31145472D01*
X122944857Y-31124499D01*
X122944855Y-31124499D01*
X122944767Y-31124499D01*
X122944584Y-31124445D01*
X122932875Y-31122116D01*
X122933083Y-31121068D01*
X122877728Y-31104814D01*
X122857086Y-31088180D01*
X122827737Y-31058831D01*
X122827736Y-31058830D01*
X122801076Y-31047787D01*
X122801073Y-31047785D01*
X122801072Y-31047785D01*
X122744857Y-31024499D01*
X122744855Y-31024499D01*
X122744767Y-31024499D01*
X122744584Y-31024445D01*
X122732878Y-31022117D01*
X122733086Y-31021069D01*
X122677728Y-31004814D01*
X122657086Y-30988180D01*
X122627738Y-30958832D01*
X122627736Y-30958830D01*
X122602024Y-30948180D01*
X122602022Y-30948179D01*
X122544857Y-30924499D01*
X122544855Y-30924499D01*
X122544768Y-30924499D01*
X122544587Y-30924445D01*
X122532875Y-30922116D01*
X122533083Y-30921068D01*
X122477729Y-30904814D01*
X122457087Y-30888180D01*
X122427735Y-30858828D01*
X122398433Y-30846691D01*
X122369130Y-30834554D01*
X122369128Y-30834553D01*
X122344858Y-30824499D01*
X122344853Y-30824498D01*
X122244765Y-30824498D01*
X122177726Y-30804813D01*
X122157085Y-30788179D01*
X122127736Y-30758830D01*
X122111230Y-30751993D01*
X122048910Y-30726179D01*
X122045629Y-30724681D01*
X122044854Y-30724499D01*
X122044853Y-30724499D01*
X122044766Y-30724499D01*
X122044403Y-30724392D01*
X122030803Y-30721182D01*
X122030975Y-30720449D01*
X121977727Y-30704814D01*
X121957085Y-30688180D01*
X121908610Y-30639705D01*
X121891170Y-30622264D01*
X121827736Y-30558830D01*
X121827735Y-30558829D01*
X121803457Y-30548772D01*
X121803457Y-30548771D01*
X121744858Y-30524500D01*
X121744856Y-30524499D01*
X121744855Y-30524499D01*
X121655145Y-30524499D01*
X121644767Y-30524499D01*
X121577728Y-30504814D01*
X121557086Y-30488180D01*
X121527738Y-30458832D01*
X121527736Y-30458830D01*
X121496551Y-30445913D01*
X121496549Y-30445912D01*
X121444857Y-30424499D01*
X121444855Y-30424499D01*
X121355145Y-30424499D01*
X121340711Y-30424499D01*
X121340703Y-30424500D01*
X118856900Y-30424500D01*
X118789861Y-30404815D01*
X118769220Y-30388182D01*
X118730563Y-30349526D01*
X118730562Y-30349525D01*
X118644938Y-30300090D01*
X118549435Y-30274500D01*
X118450565Y-30274500D01*
X118355062Y-30300090D01*
X118355060Y-30300091D01*
X118355059Y-30300091D01*
X118269436Y-30349526D01*
X118199526Y-30419436D01*
X118150091Y-30505059D01*
X118150091Y-30505060D01*
X118150090Y-30505062D01*
X118124500Y-30600565D01*
X115666388Y-30600565D01*
X115163820Y-30098009D01*
X115130334Y-30036687D01*
X115127500Y-30010327D01*
X115127500Y-29927375D01*
X115127500Y-29927373D01*
X115100207Y-29825513D01*
X115047480Y-29734187D01*
X114972913Y-29659620D01*
X114900834Y-29618005D01*
X114881589Y-29606894D01*
X114881588Y-29606893D01*
X114881587Y-29606893D01*
X114779727Y-29579600D01*
X114678500Y-29579600D01*
X114669814Y-29577049D01*
X114660853Y-29578338D01*
X114636812Y-29567359D01*
X114611461Y-29559915D01*
X114605533Y-29553074D01*
X114597297Y-29549313D01*
X114583007Y-29527078D01*
X114565706Y-29507111D01*
X114563418Y-29496596D01*
X114559523Y-29490535D01*
X114554500Y-29455600D01*
X114554500Y-29450565D01*
X124024500Y-29450565D01*
X124024500Y-29549435D01*
X124050090Y-29644938D01*
X124099525Y-29730562D01*
X124169438Y-29800475D01*
X124255062Y-29849910D01*
X124350565Y-29875500D01*
X124350567Y-29875500D01*
X124449432Y-29875500D01*
X124449435Y-29875500D01*
X124544938Y-29849910D01*
X124630562Y-29800475D01*
X124700475Y-29730562D01*
X124749910Y-29644938D01*
X124775500Y-29549435D01*
X124775500Y-29450565D01*
X124749910Y-29355062D01*
X124700475Y-29269438D01*
X124630562Y-29199525D01*
X124544938Y-29150090D01*
X124449435Y-29124500D01*
X124350565Y-29124500D01*
X124255062Y-29150090D01*
X124255060Y-29150091D01*
X124255059Y-29150091D01*
X124169436Y-29199526D01*
X124099526Y-29269436D01*
X124050091Y-29355059D01*
X124050091Y-29355060D01*
X124050090Y-29355062D01*
X124024500Y-29450565D01*
X114554500Y-29450565D01*
X114554500Y-26875466D01*
X114574185Y-26808427D01*
X114589697Y-26788921D01*
X115760235Y-25587950D01*
X115821123Y-25553682D01*
X115849034Y-25550500D01*
X116709560Y-25550500D01*
X116709562Y-25550500D01*
X116785989Y-25530021D01*
X116854511Y-25490460D01*
X116910460Y-25434511D01*
X117758152Y-24586819D01*
X117819475Y-24553334D01*
X117845833Y-24550500D01*
X117909560Y-24550500D01*
X117909562Y-24550500D01*
X117985989Y-24530021D01*
X118054511Y-24490460D01*
X118110460Y-24434511D01*
X118204948Y-24340022D01*
X118266267Y-24306540D01*
X118335959Y-24311524D01*
X118391893Y-24353395D01*
X118400012Y-24365705D01*
X118424413Y-24407968D01*
X118429520Y-24416813D01*
X118504087Y-24491380D01*
X118595413Y-24544107D01*
X118697273Y-24571400D01*
X118697275Y-24571400D01*
X118802725Y-24571400D01*
X118802727Y-24571400D01*
X118904587Y-24544107D01*
X118995913Y-24491380D01*
X119070480Y-24416813D01*
X119123207Y-24325487D01*
X119150500Y-24223627D01*
X119150500Y-24118173D01*
X119123207Y-24016313D01*
X119119221Y-24009409D01*
X119102749Y-23941512D01*
X119125601Y-23875485D01*
X119179165Y-23832846D01*
X119185976Y-23830024D01*
X119185989Y-23830021D01*
X119254511Y-23790460D01*
X119258152Y-23786819D01*
X119319475Y-23753334D01*
X119345833Y-23750500D01*
X119366988Y-23750500D01*
X119434027Y-23770185D01*
X119479782Y-23822989D01*
X119489726Y-23892147D01*
X119474377Y-23936494D01*
X119426793Y-24018913D01*
X119399500Y-24120773D01*
X119399500Y-24226227D01*
X119426793Y-24328087D01*
X119479520Y-24419413D01*
X119554087Y-24493980D01*
X119645413Y-24546707D01*
X119747273Y-24574000D01*
X119747275Y-24574000D01*
X119830223Y-24574000D01*
X119897262Y-24593685D01*
X119917903Y-24610318D01*
X121476567Y-26169034D01*
X122600763Y-27293268D01*
X122600762Y-27293268D01*
X122641526Y-27334032D01*
X122641527Y-27334034D01*
X122671261Y-27363769D01*
X122697256Y-27374536D01*
X122697261Y-27374538D01*
X122754141Y-27398100D01*
X122843851Y-27398101D01*
X122843853Y-27398100D01*
X128321231Y-27398100D01*
X128388270Y-27417785D01*
X128408911Y-27434417D01*
X131479286Y-30504814D01*
X141478706Y-40504304D01*
X141512190Y-40565627D01*
X141507206Y-40635319D01*
X141465334Y-40691252D01*
X141399870Y-40715669D01*
X141358933Y-40711760D01*
X141302727Y-40696700D01*
X141197273Y-40696700D01*
X141095413Y-40723993D01*
X141095410Y-40723994D01*
X141004085Y-40776721D01*
X140929521Y-40851285D01*
X140876794Y-40942610D01*
X140876793Y-40942613D01*
X140849500Y-41044473D01*
X140849500Y-41149927D01*
X140876793Y-41251787D01*
X140929520Y-41343113D01*
X141004087Y-41417680D01*
X141095413Y-41470407D01*
X141197273Y-41497700D01*
X141197275Y-41497700D01*
X141302725Y-41497700D01*
X141302727Y-41497700D01*
X141404587Y-41470407D01*
X141495913Y-41417680D01*
X141570480Y-41343113D01*
X141623207Y-41251787D01*
X141650500Y-41149927D01*
X141650500Y-41044473D01*
X141635440Y-40988268D01*
X141637103Y-40918422D01*
X141676265Y-40860560D01*
X141740493Y-40833055D01*
X141809396Y-40844641D01*
X141842897Y-40868497D01*
X142384497Y-41410101D01*
X142717264Y-41742870D01*
X142800145Y-41777201D01*
X142800146Y-41777201D01*
X142904288Y-41777201D01*
X142904296Y-41777200D01*
X144920228Y-41777200D01*
X144920308Y-41777233D01*
X144965853Y-41777200D01*
X145009855Y-41777200D01*
X145009932Y-41777168D01*
X145010017Y-41777168D01*
X145051355Y-41760010D01*
X145092736Y-41742870D01*
X145092796Y-41742809D01*
X145092873Y-41742778D01*
X145105003Y-41730629D01*
X145124033Y-41711573D01*
X145125487Y-41710119D01*
X145186810Y-41676634D01*
X145213168Y-41673800D01*
X145295725Y-41673800D01*
X145295727Y-41673800D01*
X145397587Y-41646507D01*
X145488913Y-41593780D01*
X145563480Y-41519213D01*
X145616207Y-41427887D01*
X145643500Y-41326027D01*
X145643500Y-41220573D01*
X145616207Y-41118713D01*
X145563480Y-41027387D01*
X145488913Y-40952820D01*
X145397587Y-40900093D01*
X145295727Y-40872800D01*
X145190273Y-40872800D01*
X145088413Y-40900093D01*
X145088410Y-40900094D01*
X144997085Y-40952821D01*
X144922522Y-41027384D01*
X144922520Y-41027386D01*
X144922520Y-41027387D01*
X144894361Y-41076160D01*
X144881887Y-41097766D01*
X144831319Y-41145981D01*
X144762712Y-41159203D01*
X144697847Y-41133235D01*
X144657320Y-41076320D01*
X144650500Y-41035765D01*
X144650500Y-41022175D01*
X144650500Y-41022173D01*
X144623207Y-40920313D01*
X144570480Y-40828987D01*
X144495913Y-40754420D01*
X144405140Y-40702012D01*
X144404589Y-40701694D01*
X144404588Y-40701693D01*
X144404587Y-40701693D01*
X144302727Y-40674400D01*
X144219743Y-40674400D01*
X144152704Y-40654715D01*
X144132066Y-40638085D01*
X144113143Y-40619164D01*
X142859747Y-39365878D01*
X139999823Y-36506207D01*
X139966335Y-36444885D01*
X139963500Y-36418522D01*
X139963500Y-34376373D01*
X143437500Y-34376373D01*
X143437500Y-34481827D01*
X143464793Y-34583685D01*
X143464793Y-34583686D01*
X143464794Y-34583689D01*
X143478148Y-34606818D01*
X143517520Y-34675013D01*
X143592087Y-34749580D01*
X143683413Y-34802307D01*
X143785273Y-34829600D01*
X143785275Y-34829600D01*
X143890725Y-34829600D01*
X143890727Y-34829600D01*
X143992587Y-34802307D01*
X144083913Y-34749580D01*
X144158480Y-34675013D01*
X144211207Y-34583687D01*
X144213783Y-34574073D01*
X147447500Y-34574073D01*
X147447500Y-34679527D01*
X147474793Y-34781387D01*
X147527520Y-34872713D01*
X147602087Y-34947280D01*
X147693413Y-35000007D01*
X147795273Y-35027300D01*
X147795275Y-35027300D01*
X147900725Y-35027300D01*
X147900727Y-35027300D01*
X148002587Y-35000007D01*
X148093913Y-34947280D01*
X148168480Y-34872713D01*
X148221207Y-34781387D01*
X148248500Y-34679527D01*
X148248500Y-34574073D01*
X148221207Y-34472213D01*
X148168480Y-34380887D01*
X148093913Y-34306320D01*
X148017195Y-34262027D01*
X148002589Y-34253594D01*
X148002588Y-34253593D01*
X148002587Y-34253593D01*
X147900727Y-34226300D01*
X147795273Y-34226300D01*
X147693413Y-34253593D01*
X147693410Y-34253594D01*
X147602085Y-34306321D01*
X147527521Y-34380885D01*
X147474794Y-34472210D01*
X147474793Y-34472213D01*
X147447500Y-34574073D01*
X144213783Y-34574073D01*
X144238500Y-34481827D01*
X144238500Y-34376373D01*
X144211207Y-34274513D01*
X144158480Y-34183187D01*
X144083913Y-34108620D01*
X143992587Y-34055893D01*
X143890727Y-34028600D01*
X143785273Y-34028600D01*
X143683413Y-34055893D01*
X143683410Y-34055894D01*
X143592085Y-34108621D01*
X143517521Y-34183185D01*
X143464794Y-34274510D01*
X143464793Y-34274513D01*
X143437500Y-34376373D01*
X139963500Y-34376373D01*
X139963500Y-31000906D01*
X139963503Y-30955852D01*
X139943031Y-30906426D01*
X139943031Y-30906425D01*
X139929961Y-30874870D01*
X139929253Y-30873076D01*
X139929197Y-30872992D01*
X139929170Y-30872965D01*
X139929170Y-30872964D01*
X139878470Y-30822264D01*
X139705005Y-30648781D01*
X139631205Y-30574973D01*
X140903500Y-30574973D01*
X140903500Y-30680427D01*
X140919149Y-30738828D01*
X140930793Y-30782286D01*
X140930794Y-30782289D01*
X140942327Y-30802264D01*
X140983520Y-30873613D01*
X141058087Y-30948180D01*
X141149413Y-31000907D01*
X141251273Y-31028200D01*
X141251275Y-31028200D01*
X141356725Y-31028200D01*
X141356727Y-31028200D01*
X141458587Y-31000907D01*
X141549913Y-30948180D01*
X141624480Y-30873613D01*
X141677207Y-30782287D01*
X141704500Y-30680427D01*
X141704500Y-30574973D01*
X141677207Y-30473113D01*
X141624480Y-30381787D01*
X141549913Y-30307220D01*
X141458587Y-30254493D01*
X141356727Y-30227200D01*
X141251273Y-30227200D01*
X141149413Y-30254493D01*
X141149410Y-30254494D01*
X141058085Y-30307221D01*
X140983521Y-30381785D01*
X140930794Y-30473110D01*
X140930793Y-30473113D01*
X140903500Y-30574973D01*
X139631205Y-30574973D01*
X139014871Y-29958573D01*
X144314500Y-29958573D01*
X144314500Y-30064027D01*
X144341793Y-30165887D01*
X144394520Y-30257213D01*
X144469087Y-30331780D01*
X144560413Y-30384507D01*
X144662273Y-30411800D01*
X144662275Y-30411800D01*
X144767725Y-30411800D01*
X144767727Y-30411800D01*
X144869587Y-30384507D01*
X144960913Y-30331780D01*
X145035480Y-30257213D01*
X145088207Y-30165887D01*
X145115500Y-30064027D01*
X145115500Y-29958573D01*
X145088207Y-29856713D01*
X145035480Y-29765387D01*
X144960913Y-29690820D01*
X144894059Y-29652222D01*
X144869589Y-29638094D01*
X144869588Y-29638093D01*
X144869587Y-29638093D01*
X144767727Y-29610800D01*
X144662273Y-29610800D01*
X144560413Y-29638093D01*
X144560410Y-29638094D01*
X144469085Y-29690821D01*
X144394521Y-29765385D01*
X144341794Y-29856710D01*
X144341793Y-29856713D01*
X144314500Y-29958573D01*
X139014871Y-29958573D01*
X138551770Y-29495423D01*
X138472228Y-29415873D01*
X140879500Y-29415873D01*
X140879500Y-29521327D01*
X140902428Y-29606894D01*
X140906793Y-29623186D01*
X140906794Y-29623189D01*
X140919352Y-29644940D01*
X140959520Y-29714513D01*
X141034087Y-29789080D01*
X141125413Y-29841807D01*
X141227273Y-29869100D01*
X141227275Y-29869100D01*
X141332725Y-29869100D01*
X141332727Y-29869100D01*
X141434587Y-29841807D01*
X141525913Y-29789080D01*
X141600480Y-29714513D01*
X141653207Y-29623187D01*
X141680500Y-29521327D01*
X141680500Y-29415873D01*
X141653207Y-29314013D01*
X141618081Y-29253173D01*
X142599500Y-29253173D01*
X142599500Y-29358627D01*
X142626793Y-29460487D01*
X142679520Y-29551813D01*
X142754087Y-29626380D01*
X142845413Y-29679107D01*
X142947273Y-29706400D01*
X142947275Y-29706400D01*
X143052725Y-29706400D01*
X143052727Y-29706400D01*
X143154587Y-29679107D01*
X143245913Y-29626380D01*
X143320480Y-29551813D01*
X143373207Y-29460487D01*
X143400500Y-29358627D01*
X143400500Y-29253173D01*
X143373207Y-29151313D01*
X143320480Y-29059987D01*
X143245913Y-28985420D01*
X143168173Y-28940537D01*
X143154589Y-28932694D01*
X143154588Y-28932693D01*
X143154587Y-28932693D01*
X143052727Y-28905400D01*
X142947273Y-28905400D01*
X142845413Y-28932693D01*
X142845410Y-28932694D01*
X142754085Y-28985421D01*
X142679521Y-29059985D01*
X142626794Y-29151310D01*
X142626793Y-29151313D01*
X142599500Y-29253173D01*
X141618081Y-29253173D01*
X141600480Y-29222687D01*
X141525913Y-29148120D01*
X141434587Y-29095393D01*
X141332727Y-29068100D01*
X141227273Y-29068100D01*
X141125413Y-29095393D01*
X141125410Y-29095394D01*
X141034085Y-29148121D01*
X140959521Y-29222685D01*
X140906794Y-29314010D01*
X140906793Y-29314013D01*
X140879500Y-29415873D01*
X138472228Y-29415873D01*
X137970802Y-28914393D01*
X137371359Y-28314887D01*
X137337878Y-28253563D01*
X137342867Y-28183871D01*
X137384741Y-28127940D01*
X137397032Y-28119833D01*
X137430562Y-28100475D01*
X137500475Y-28030562D01*
X137549910Y-27944938D01*
X137575500Y-27849435D01*
X137575500Y-27750565D01*
X137549910Y-27655062D01*
X137500475Y-27569438D01*
X137430562Y-27499525D01*
X137344938Y-27450090D01*
X137249435Y-27424500D01*
X137150565Y-27424500D01*
X137055062Y-27450090D01*
X137055060Y-27450090D01*
X137055060Y-27450091D01*
X136969436Y-27499526D01*
X136899527Y-27569435D01*
X136899525Y-27569437D01*
X136899525Y-27569438D01*
X136890634Y-27584838D01*
X136880200Y-27602910D01*
X136829631Y-27651124D01*
X136761024Y-27664345D01*
X136696160Y-27638376D01*
X136685134Y-27628589D01*
X136254364Y-27197773D01*
X138824500Y-27197773D01*
X138824500Y-27303227D01*
X138848016Y-27390989D01*
X138851793Y-27405086D01*
X138851794Y-27405089D01*
X138855356Y-27411258D01*
X138904520Y-27496413D01*
X138979087Y-27570980D01*
X139070413Y-27623707D01*
X139172273Y-27651000D01*
X139172275Y-27651000D01*
X139277725Y-27651000D01*
X139277727Y-27651000D01*
X139379587Y-27623707D01*
X139470913Y-27570980D01*
X139545480Y-27496413D01*
X139598207Y-27405087D01*
X139625500Y-27303227D01*
X139625500Y-27197773D01*
X139598207Y-27095913D01*
X139545480Y-27004587D01*
X139470913Y-26930020D01*
X139404059Y-26891422D01*
X139379589Y-26877294D01*
X139379588Y-26877293D01*
X139379587Y-26877293D01*
X139277727Y-26850000D01*
X139172273Y-26850000D01*
X139070413Y-26877293D01*
X139070410Y-26877294D01*
X138979085Y-26930021D01*
X138904521Y-27004585D01*
X138851794Y-27095910D01*
X138851793Y-27095913D01*
X138824500Y-27197773D01*
X136254364Y-27197773D01*
X134792316Y-25735571D01*
X134758835Y-25674247D01*
X134763824Y-25604555D01*
X134805698Y-25548624D01*
X134817993Y-25540514D01*
X134862913Y-25514580D01*
X134921575Y-25455918D01*
X134982899Y-25422434D01*
X135009256Y-25419600D01*
X142380233Y-25419600D01*
X142447272Y-25439285D01*
X142467914Y-25455919D01*
X142537793Y-25525798D01*
X142571278Y-25587121D01*
X142566294Y-25656813D01*
X142524422Y-25712746D01*
X142512114Y-25720865D01*
X142474085Y-25742821D01*
X142399521Y-25817385D01*
X142346794Y-25908710D01*
X142346793Y-25908713D01*
X142319500Y-26010573D01*
X142319500Y-26116027D01*
X142346793Y-26217887D01*
X142399520Y-26309213D01*
X142474087Y-26383780D01*
X142565413Y-26436507D01*
X142667273Y-26463800D01*
X142667275Y-26463800D01*
X142772725Y-26463800D01*
X142772727Y-26463800D01*
X142874587Y-26436507D01*
X142965913Y-26383780D01*
X143040480Y-26309213D01*
X143062435Y-26271184D01*
X143112999Y-26222972D01*
X143181605Y-26209748D01*
X143246471Y-26235716D01*
X143257501Y-26245506D01*
X145296388Y-28284393D01*
X145329873Y-28345716D01*
X145324889Y-28415408D01*
X145283017Y-28471341D01*
X145234700Y-28491021D01*
X145235123Y-28492597D01*
X145227274Y-28494700D01*
X145227273Y-28494700D01*
X145125413Y-28521993D01*
X145125410Y-28521994D01*
X145034085Y-28574721D01*
X144959521Y-28649285D01*
X144906794Y-28740610D01*
X144906793Y-28740613D01*
X144879500Y-28842473D01*
X144879500Y-28947927D01*
X144893587Y-29000499D01*
X144906793Y-29049786D01*
X144906794Y-29049789D01*
X144912822Y-29060230D01*
X144959520Y-29141113D01*
X145034087Y-29215680D01*
X145125413Y-29268407D01*
X145227273Y-29295700D01*
X145227275Y-29295700D01*
X145332725Y-29295700D01*
X145332727Y-29295700D01*
X145434587Y-29268407D01*
X145525913Y-29215680D01*
X145600480Y-29141113D01*
X145653207Y-29049787D01*
X145680500Y-28947927D01*
X145680500Y-28947925D01*
X145682603Y-28940077D01*
X145684489Y-28940582D01*
X145708445Y-28886419D01*
X145766766Y-28847942D01*
X145836631Y-28847105D01*
X145890806Y-28878811D01*
X147297181Y-30285186D01*
X147330666Y-30346509D01*
X147333500Y-30372867D01*
X147333500Y-30461444D01*
X147313815Y-30528483D01*
X147297182Y-30549125D01*
X147238520Y-30607787D01*
X147185794Y-30699110D01*
X147185793Y-30699113D01*
X147158500Y-30800973D01*
X147158500Y-30906427D01*
X147185793Y-31008287D01*
X147238520Y-31099613D01*
X147313087Y-31174180D01*
X147404413Y-31226907D01*
X147506273Y-31254200D01*
X147506275Y-31254200D01*
X147611725Y-31254200D01*
X147611727Y-31254200D01*
X147713587Y-31226907D01*
X147804913Y-31174180D01*
X147879480Y-31099613D01*
X147932207Y-31008287D01*
X147959500Y-30906427D01*
X147959500Y-30800973D01*
X147932207Y-30699113D01*
X147879480Y-30607787D01*
X147820818Y-30549125D01*
X147787334Y-30487801D01*
X147784500Y-30461444D01*
X147784500Y-30287397D01*
X147784501Y-30287388D01*
X147784501Y-30183246D01*
X147784501Y-30183245D01*
X147750170Y-30100365D01*
X147750170Y-30100364D01*
X147686736Y-30036930D01*
X147679671Y-30029865D01*
X147679664Y-30029859D01*
X142733611Y-25083806D01*
X142733609Y-25083803D01*
X142652738Y-25002932D01*
X142652736Y-25002930D01*
X142625141Y-24991500D01*
X142623258Y-24990720D01*
X142569857Y-24968599D01*
X142569855Y-24968599D01*
X142480145Y-24968599D01*
X142465711Y-24968599D01*
X142465703Y-24968600D01*
X135009256Y-24968600D01*
X134942217Y-24948915D01*
X134921575Y-24932282D01*
X134895673Y-24906380D01*
X134862913Y-24873620D01*
X134771587Y-24820893D01*
X134669727Y-24793600D01*
X134564273Y-24793600D01*
X134462413Y-24820893D01*
X134462410Y-24820894D01*
X134371085Y-24873621D01*
X134296522Y-24948184D01*
X134296520Y-24948186D01*
X134296520Y-24948187D01*
X134289564Y-24960235D01*
X134270618Y-24993050D01*
X134220049Y-25041264D01*
X134151442Y-25054485D01*
X134086578Y-25028516D01*
X134075546Y-25018724D01*
X132469014Y-23412023D01*
X132389472Y-23332473D01*
X133433500Y-23332473D01*
X133433500Y-23437927D01*
X133458177Y-23530021D01*
X133460793Y-23539786D01*
X133460794Y-23539789D01*
X133466978Y-23550500D01*
X133513520Y-23631113D01*
X133588087Y-23705680D01*
X133679413Y-23758407D01*
X133781273Y-23785700D01*
X133781275Y-23785700D01*
X133886725Y-23785700D01*
X133886727Y-23785700D01*
X133988587Y-23758407D01*
X134079913Y-23705680D01*
X134154480Y-23631113D01*
X134154483Y-23631106D01*
X134159430Y-23624662D01*
X134162208Y-23626794D01*
X134200962Y-23589683D01*
X134269540Y-23576311D01*
X134334461Y-23602139D01*
X134345701Y-23612094D01*
X134354087Y-23620480D01*
X134445413Y-23673207D01*
X134547273Y-23700500D01*
X134547275Y-23700500D01*
X134652725Y-23700500D01*
X134652727Y-23700500D01*
X134754587Y-23673207D01*
X134845913Y-23620480D01*
X134920480Y-23545913D01*
X134973207Y-23454587D01*
X135000500Y-23352727D01*
X135000500Y-23247273D01*
X134973207Y-23145413D01*
X134920480Y-23054087D01*
X134845913Y-22979520D01*
X134754587Y-22926793D01*
X134652727Y-22899500D01*
X134547273Y-22899500D01*
X134445413Y-22926793D01*
X134445410Y-22926794D01*
X134354085Y-22979521D01*
X134279522Y-23054084D01*
X134274572Y-23060536D01*
X134271853Y-23058449D01*
X134232598Y-23095743D01*
X134163967Y-23108841D01*
X134099149Y-23082754D01*
X134088298Y-23073105D01*
X134079914Y-23064721D01*
X134079913Y-23064720D01*
X133988587Y-23011993D01*
X133886727Y-22984700D01*
X133781273Y-22984700D01*
X133679413Y-23011993D01*
X133679410Y-23011994D01*
X133588085Y-23064721D01*
X133513521Y-23139285D01*
X133460794Y-23230610D01*
X133460793Y-23230613D01*
X133433500Y-23332473D01*
X132389472Y-23332473D01*
X132382563Y-23325563D01*
X132382535Y-23325528D01*
X132326986Y-23269980D01*
X132326985Y-23269979D01*
X132309745Y-23252737D01*
X132309744Y-23252736D01*
X132309738Y-23252730D01*
X132264551Y-23234014D01*
X132264544Y-23234008D01*
X132264543Y-23234010D01*
X132248934Y-23227544D01*
X132226866Y-23218401D01*
X132226861Y-23218400D01*
X132226855Y-23218400D01*
X132190983Y-23218400D01*
X132190972Y-23218399D01*
X132142244Y-23218397D01*
X132075206Y-23198708D01*
X132054571Y-23182078D01*
X131995914Y-23123421D01*
X131995913Y-23123420D01*
X131904587Y-23070693D01*
X131802727Y-23043400D01*
X131697273Y-23043400D01*
X131595413Y-23070693D01*
X131595410Y-23070694D01*
X131504085Y-23123421D01*
X131429521Y-23197985D01*
X131376794Y-23289310D01*
X131376793Y-23289313D01*
X131349500Y-23391173D01*
X131349500Y-23496627D01*
X131376793Y-23598487D01*
X131429520Y-23689813D01*
X131504087Y-23764380D01*
X131595413Y-23817107D01*
X131697273Y-23844400D01*
X131697275Y-23844400D01*
X131802725Y-23844400D01*
X131802727Y-23844400D01*
X131904587Y-23817107D01*
X131995913Y-23764380D01*
X132002054Y-23758238D01*
X132063372Y-23724754D01*
X132133064Y-23729735D01*
X132177419Y-23758241D01*
X134265153Y-25846196D01*
X134552450Y-26133523D01*
X134585932Y-26194848D01*
X134580943Y-26264540D01*
X134539069Y-26320471D01*
X134473603Y-26344885D01*
X134464764Y-26345200D01*
X124867781Y-26345200D01*
X124800742Y-26325515D01*
X124780094Y-26308876D01*
X123765169Y-25293822D01*
X123685630Y-25214273D01*
X128939500Y-25214273D01*
X128939500Y-25319727D01*
X128966793Y-25421587D01*
X129019520Y-25512913D01*
X129094087Y-25587480D01*
X129185413Y-25640207D01*
X129287273Y-25667500D01*
X129287275Y-25667500D01*
X129392725Y-25667500D01*
X129392727Y-25667500D01*
X129494587Y-25640207D01*
X129585913Y-25587480D01*
X129660480Y-25512913D01*
X129713207Y-25421587D01*
X129740500Y-25319727D01*
X129740500Y-25214273D01*
X129721266Y-25142490D01*
X129722929Y-25072644D01*
X129762091Y-25014781D01*
X129826320Y-24987277D01*
X129841041Y-24986400D01*
X129881006Y-24986400D01*
X129948045Y-25006085D01*
X129993800Y-25058889D01*
X130003744Y-25128047D01*
X130000781Y-25142492D01*
X129999500Y-25147271D01*
X129999500Y-25147273D01*
X129999500Y-25252727D01*
X130026659Y-25354085D01*
X130026793Y-25354586D01*
X130026794Y-25354589D01*
X130033377Y-25365991D01*
X130079520Y-25445913D01*
X130154087Y-25520480D01*
X130245413Y-25573207D01*
X130347273Y-25600500D01*
X130347275Y-25600500D01*
X130390357Y-25600500D01*
X130457396Y-25620185D01*
X130503151Y-25672989D01*
X130510131Y-25692404D01*
X130513545Y-25705144D01*
X130526793Y-25754588D01*
X130526794Y-25754589D01*
X130534993Y-25768790D01*
X130579520Y-25845913D01*
X130654087Y-25920480D01*
X130745413Y-25973207D01*
X130847273Y-26000500D01*
X130847275Y-26000500D01*
X130952725Y-26000500D01*
X130952727Y-26000500D01*
X131054587Y-25973207D01*
X131145913Y-25920480D01*
X131220480Y-25845913D01*
X131273207Y-25754587D01*
X131300500Y-25652727D01*
X131300500Y-25547273D01*
X131273207Y-25445413D01*
X131220480Y-25354087D01*
X131145913Y-25279520D01*
X131054587Y-25226793D01*
X130952727Y-25199500D01*
X130909643Y-25199500D01*
X130842604Y-25179815D01*
X130796849Y-25127011D01*
X130789868Y-25107594D01*
X130787554Y-25098958D01*
X130773207Y-25045413D01*
X130720480Y-24954087D01*
X130645913Y-24879520D01*
X130577999Y-24840310D01*
X130554589Y-24826794D01*
X130554588Y-24826793D01*
X130554587Y-24826793D01*
X130452727Y-24799500D01*
X130374994Y-24799500D01*
X130307955Y-24779815D01*
X130262200Y-24727011D01*
X130252256Y-24657853D01*
X130255219Y-24643408D01*
X130255302Y-24643097D01*
X130256500Y-24638627D01*
X130256500Y-24533173D01*
X130229207Y-24431313D01*
X130176480Y-24339987D01*
X130101913Y-24265420D01*
X130010587Y-24212693D01*
X129908727Y-24185400D01*
X129803273Y-24185400D01*
X129701413Y-24212693D01*
X129701410Y-24212694D01*
X129610085Y-24265421D01*
X129535521Y-24339985D01*
X129482794Y-24431310D01*
X129482793Y-24431313D01*
X129455500Y-24533173D01*
X129455500Y-24638627D01*
X129474733Y-24710409D01*
X129473071Y-24780256D01*
X129433909Y-24838119D01*
X129369680Y-24865623D01*
X129354959Y-24866500D01*
X129287273Y-24866500D01*
X129185413Y-24893793D01*
X129185410Y-24893794D01*
X129094085Y-24946521D01*
X129019521Y-25021085D01*
X128966794Y-25112410D01*
X128966793Y-25112413D01*
X128939500Y-25214273D01*
X123685630Y-25214273D01*
X123582813Y-25111443D01*
X123549332Y-25050117D01*
X123546500Y-25023767D01*
X123546500Y-24940773D01*
X123542415Y-24925529D01*
X123519207Y-24838913D01*
X123466480Y-24747587D01*
X123391913Y-24673020D01*
X123300587Y-24620293D01*
X123198727Y-24593000D01*
X123093273Y-24593000D01*
X122991413Y-24620293D01*
X122991410Y-24620294D01*
X122900085Y-24673021D01*
X122825521Y-24747585D01*
X122772794Y-24838910D01*
X122772793Y-24838913D01*
X122745500Y-24940773D01*
X122745500Y-25046227D01*
X122772793Y-25148087D01*
X122825520Y-25239413D01*
X122900087Y-25313980D01*
X122991413Y-25366707D01*
X123093273Y-25394000D01*
X123093275Y-25394000D01*
X123176197Y-25394000D01*
X123243236Y-25413685D01*
X123263881Y-25430322D01*
X124111445Y-26277993D01*
X124523461Y-26690062D01*
X124523486Y-26690092D01*
X124563409Y-26730015D01*
X124563415Y-26730025D01*
X124563417Y-26730024D01*
X124568819Y-26735427D01*
X124602299Y-26796753D01*
X124597308Y-26866444D01*
X124555431Y-26922374D01*
X124489965Y-26946785D01*
X124481130Y-26947100D01*
X122943771Y-26947100D01*
X122876732Y-26927415D01*
X122856088Y-26910780D01*
X122844408Y-26899100D01*
X121118921Y-25173555D01*
X121085438Y-25112232D01*
X121090424Y-25042541D01*
X121132296Y-24986608D01*
X121147832Y-24977764D01*
X121147548Y-24977271D01*
X121160178Y-24969979D01*
X121245913Y-24920480D01*
X121320480Y-24845913D01*
X121373207Y-24754587D01*
X121400500Y-24652727D01*
X121400500Y-24547273D01*
X121400500Y-24547272D01*
X121399439Y-24539214D01*
X121401370Y-24538959D01*
X121401371Y-24497875D01*
X121399439Y-24497621D01*
X121400500Y-24489562D01*
X121400500Y-24463672D01*
X121400757Y-24455692D01*
X121401420Y-24445413D01*
X121402423Y-24429860D01*
X121402421Y-24429852D01*
X121401919Y-24422307D01*
X121400500Y-24407968D01*
X121400500Y-23971850D01*
X121420185Y-23904811D01*
X121472989Y-23859056D01*
X121542147Y-23849112D01*
X121605703Y-23878137D01*
X121631884Y-23909847D01*
X121659520Y-23957713D01*
X121734087Y-24032280D01*
X121825413Y-24085007D01*
X121927273Y-24112300D01*
X121927275Y-24112300D01*
X122032725Y-24112300D01*
X122032727Y-24112300D01*
X122134587Y-24085007D01*
X122216052Y-24037973D01*
X128349500Y-24037973D01*
X128349500Y-24143427D01*
X128376793Y-24245287D01*
X128429520Y-24336613D01*
X128504087Y-24411180D01*
X128595413Y-24463907D01*
X128697273Y-24491200D01*
X128697275Y-24491200D01*
X128802725Y-24491200D01*
X128802727Y-24491200D01*
X128904587Y-24463907D01*
X128995913Y-24411180D01*
X129070480Y-24336613D01*
X129123207Y-24245287D01*
X129150500Y-24143427D01*
X129150500Y-24037973D01*
X129123207Y-23936113D01*
X129070480Y-23844787D01*
X128995913Y-23770220D01*
X128925791Y-23729735D01*
X128904589Y-23717494D01*
X128904588Y-23717493D01*
X128904587Y-23717493D01*
X128802727Y-23690200D01*
X128697273Y-23690200D01*
X128595413Y-23717493D01*
X128595410Y-23717494D01*
X128504085Y-23770221D01*
X128429521Y-23844785D01*
X128376794Y-23936110D01*
X128376793Y-23936113D01*
X128349500Y-24037973D01*
X122216052Y-24037973D01*
X122225913Y-24032280D01*
X122300480Y-23957713D01*
X122353207Y-23866387D01*
X122380500Y-23764527D01*
X122380500Y-23659073D01*
X122353207Y-23557213D01*
X122300480Y-23465887D01*
X122270466Y-23435873D01*
X130000500Y-23435873D01*
X130000500Y-23541327D01*
X130025469Y-23634511D01*
X130027793Y-23643186D01*
X130027794Y-23643189D01*
X130032123Y-23650687D01*
X130080520Y-23734513D01*
X130155087Y-23809080D01*
X130246413Y-23861807D01*
X130348273Y-23889100D01*
X130348275Y-23889100D01*
X130453725Y-23889100D01*
X130453727Y-23889100D01*
X130555587Y-23861807D01*
X130646913Y-23809080D01*
X130721480Y-23734513D01*
X130774207Y-23643187D01*
X130801500Y-23541327D01*
X130801500Y-23435873D01*
X130774207Y-23334013D01*
X130721480Y-23242687D01*
X130646913Y-23168120D01*
X130568579Y-23122894D01*
X130555589Y-23115394D01*
X130555588Y-23115393D01*
X130555587Y-23115393D01*
X130453727Y-23088100D01*
X130348273Y-23088100D01*
X130246413Y-23115393D01*
X130246410Y-23115394D01*
X130155085Y-23168121D01*
X130080521Y-23242685D01*
X130027794Y-23334010D01*
X130027793Y-23334013D01*
X130000500Y-23435873D01*
X122270466Y-23435873D01*
X122225913Y-23391320D01*
X122153479Y-23349500D01*
X122134589Y-23338594D01*
X122134588Y-23338593D01*
X122134587Y-23338593D01*
X122032727Y-23311300D01*
X121927273Y-23311300D01*
X121825413Y-23338593D01*
X121825410Y-23338594D01*
X121734085Y-23391321D01*
X121659522Y-23465884D01*
X121659520Y-23465886D01*
X121659520Y-23465887D01*
X121631885Y-23513751D01*
X121581319Y-23561965D01*
X121512712Y-23575187D01*
X121447848Y-23549219D01*
X121407320Y-23492305D01*
X121400500Y-23451749D01*
X121400500Y-23210439D01*
X121400259Y-23209538D01*
X121380021Y-23134011D01*
X121370770Y-23117987D01*
X121340464Y-23065495D01*
X121340458Y-23065487D01*
X121336819Y-23061848D01*
X121303334Y-23000525D01*
X121300500Y-22974167D01*
X121300500Y-22941337D01*
X121311475Y-22890334D01*
X121327178Y-22855534D01*
X121327231Y-22855358D01*
X121333586Y-22816340D01*
X121333599Y-22816342D01*
X121333597Y-22816266D01*
X121339945Y-22777445D01*
X121339944Y-22777437D01*
X121339945Y-22777415D01*
X121339949Y-22777273D01*
X121339951Y-22777264D01*
X121335995Y-22737967D01*
X121332068Y-22698716D01*
X121332064Y-22698706D01*
X121332025Y-22698535D01*
X121318060Y-22661675D01*
X121318033Y-22661602D01*
X121304083Y-22624713D01*
X121304081Y-22624707D01*
X121304076Y-22624701D01*
X121304063Y-22624675D01*
X121304012Y-22624580D01*
X121303997Y-22624552D01*
X121303995Y-22624547D01*
X121283764Y-22596444D01*
X121260574Y-22530536D01*
X121276698Y-22462552D01*
X121327017Y-22414078D01*
X121384402Y-22400000D01*
X151248013Y-22400000D01*
X151315052Y-22419685D01*
X151360807Y-22472489D01*
X151370751Y-22541647D01*
X151341726Y-22605203D01*
X151301815Y-22635720D01*
X150997869Y-22782092D01*
X150703000Y-22967371D01*
X150702998Y-22967372D01*
X150430743Y-23184487D01*
X150184487Y-23430743D01*
X149967372Y-23702998D01*
X149967371Y-23703000D01*
X149782092Y-23997869D01*
X149630999Y-24311617D01*
X149515985Y-24640307D01*
X149515982Y-24640315D01*
X149438491Y-24979829D01*
X149438489Y-24979841D01*
X149399500Y-25325875D01*
X149399500Y-25674124D01*
X149438489Y-26020158D01*
X149438490Y-26020167D01*
X149438491Y-26020171D01*
X149453700Y-26086804D01*
X149515982Y-26359684D01*
X149515985Y-26359692D01*
X149630999Y-26688382D01*
X149782092Y-27002130D01*
X149967371Y-27296999D01*
X149967372Y-27297001D01*
X150184487Y-27569256D01*
X150430743Y-27815512D01*
X150702998Y-28032627D01*
X150703001Y-28032628D01*
X150703003Y-28032630D01*
X150968574Y-28199500D01*
X150997869Y-28217907D01*
X151077994Y-28256493D01*
X151311621Y-28369002D01*
X151518292Y-28441319D01*
X151640307Y-28484014D01*
X151640315Y-28484017D01*
X151640318Y-28484017D01*
X151640319Y-28484018D01*
X151979829Y-28561509D01*
X152325876Y-28600499D01*
X152325877Y-28600500D01*
X152325880Y-28600500D01*
X152674123Y-28600500D01*
X152674123Y-28600499D01*
X153020171Y-28561509D01*
X153359681Y-28484018D01*
X153688379Y-28369002D01*
X154002133Y-28217906D01*
X154296997Y-28032630D01*
X154330978Y-28005531D01*
X154569256Y-27815512D01*
X154569258Y-27815509D01*
X154569263Y-27815506D01*
X154815506Y-27569263D01*
X154844904Y-27532400D01*
X155032627Y-27297001D01*
X155032628Y-27296999D01*
X155032630Y-27296997D01*
X155217906Y-27002133D01*
X155221889Y-26993863D01*
X155364280Y-26698185D01*
X155411102Y-26646325D01*
X155478529Y-26628012D01*
X155545153Y-26649060D01*
X155589822Y-26702786D01*
X155600000Y-26751986D01*
X155600000Y-45248013D01*
X155580315Y-45315052D01*
X155527511Y-45360807D01*
X155458353Y-45370751D01*
X155394797Y-45341726D01*
X155364280Y-45301815D01*
X155217907Y-44997869D01*
X155212841Y-44989807D01*
X155032630Y-44703003D01*
X155032628Y-44703000D01*
X155032627Y-44702998D01*
X154815512Y-44430743D01*
X154569256Y-44184487D01*
X154297001Y-43967372D01*
X154296999Y-43967371D01*
X154002130Y-43782092D01*
X153688382Y-43630999D01*
X153359692Y-43515985D01*
X153359684Y-43515982D01*
X153105048Y-43457863D01*
X153020171Y-43438491D01*
X153020167Y-43438490D01*
X153020158Y-43438489D01*
X152674124Y-43399500D01*
X152674120Y-43399500D01*
X152325880Y-43399500D01*
X152325875Y-43399500D01*
X151979841Y-43438489D01*
X151979829Y-43438491D01*
X151640315Y-43515982D01*
X151640307Y-43515985D01*
X151311617Y-43630999D01*
X150997869Y-43782092D01*
X150703000Y-43967371D01*
X150702998Y-43967372D01*
X150430743Y-44184487D01*
X150184487Y-44430743D01*
X149967372Y-44702998D01*
X149967371Y-44703000D01*
X149782092Y-44997869D01*
X149630999Y-45311617D01*
X149515985Y-45640307D01*
X149515982Y-45640315D01*
X149438491Y-45979829D01*
X149438489Y-45979841D01*
X149399500Y-46325875D01*
X149399500Y-46674124D01*
X149438489Y-47020158D01*
X149438491Y-47020170D01*
X149515982Y-47359684D01*
X149515985Y-47359692D01*
X149630999Y-47688382D01*
X149782092Y-48002130D01*
X149967371Y-48296999D01*
X149967372Y-48297001D01*
X150184487Y-48569256D01*
X150430743Y-48815512D01*
X150702998Y-49032627D01*
X150703001Y-49032628D01*
X150703003Y-49032630D01*
X150997867Y-49217906D01*
X151311621Y-49369002D01*
X151558488Y-49455384D01*
X151640307Y-49484014D01*
X151640315Y-49484017D01*
X151640318Y-49484017D01*
X151640319Y-49484018D01*
X151979829Y-49561509D01*
X152325876Y-49600499D01*
X152325877Y-49600500D01*
X152325880Y-49600500D01*
X152674123Y-49600500D01*
X152674123Y-49600499D01*
X153020171Y-49561509D01*
X153359681Y-49484018D01*
X153688379Y-49369002D01*
X154002133Y-49217906D01*
X154296997Y-49032630D01*
X154297001Y-49032627D01*
X154569256Y-48815512D01*
X154569258Y-48815509D01*
X154569263Y-48815506D01*
X154815506Y-48569263D01*
X155032630Y-48296997D01*
X155217906Y-48002133D01*
X155217909Y-48002127D01*
X155364280Y-47698185D01*
X155411102Y-47646325D01*
X155478529Y-47628012D01*
X155545153Y-47649060D01*
X155589822Y-47702786D01*
X155600000Y-47751986D01*
X155600000Y-49726000D01*
X155580315Y-49793039D01*
X155527511Y-49838794D01*
X155476000Y-49850000D01*
X91524000Y-49850000D01*
X91456961Y-49830315D01*
X91411206Y-49777511D01*
X91400000Y-49726000D01*
X91400000Y-47751986D01*
X91419685Y-47684947D01*
X91472489Y-47639192D01*
X91541647Y-47629248D01*
X91605203Y-47658273D01*
X91635720Y-47698185D01*
X91782090Y-48002127D01*
X91967371Y-48296999D01*
X91967372Y-48297001D01*
X92184487Y-48569256D01*
X92430743Y-48815512D01*
X92702998Y-49032627D01*
X92703001Y-49032628D01*
X92703003Y-49032630D01*
X92997867Y-49217906D01*
X93311621Y-49369002D01*
X93558488Y-49455384D01*
X93640307Y-49484014D01*
X93640315Y-49484017D01*
X93640318Y-49484017D01*
X93640319Y-49484018D01*
X93979829Y-49561509D01*
X94325876Y-49600499D01*
X94325877Y-49600500D01*
X94325880Y-49600500D01*
X94674123Y-49600500D01*
X94674123Y-49600499D01*
X95020171Y-49561509D01*
X95359681Y-49484018D01*
X95688379Y-49369002D01*
X96002133Y-49217906D01*
X96296997Y-49032630D01*
X96297001Y-49032627D01*
X96569256Y-48815512D01*
X96569258Y-48815509D01*
X96569263Y-48815506D01*
X96815506Y-48569263D01*
X97032630Y-48296997D01*
X97217906Y-48002133D01*
X97369002Y-47688379D01*
X97484018Y-47359681D01*
X97561509Y-47020171D01*
X97600500Y-46674120D01*
X97600500Y-46325880D01*
X97561509Y-45979829D01*
X97484018Y-45640319D01*
X97462947Y-45580100D01*
X97462946Y-45580097D01*
X97451460Y-45547273D01*
X129099500Y-45547273D01*
X129099500Y-45652727D01*
X129126793Y-45754587D01*
X129179520Y-45845913D01*
X129254087Y-45920480D01*
X129345413Y-45973207D01*
X129447273Y-46000500D01*
X129447275Y-46000500D01*
X129552725Y-46000500D01*
X129552727Y-46000500D01*
X129654587Y-45973207D01*
X129745913Y-45920480D01*
X129820480Y-45845913D01*
X129873207Y-45754587D01*
X129900500Y-45652727D01*
X129900500Y-45547273D01*
X129873207Y-45445413D01*
X129820480Y-45354087D01*
X129745913Y-45279520D01*
X129654587Y-45226793D01*
X129552727Y-45199500D01*
X129447273Y-45199500D01*
X129345413Y-45226793D01*
X129345410Y-45226794D01*
X129254085Y-45279521D01*
X129179521Y-45354085D01*
X129126794Y-45445410D01*
X129126793Y-45445413D01*
X129099500Y-45547273D01*
X97451460Y-45547273D01*
X97389692Y-45370751D01*
X97369002Y-45311621D01*
X97217906Y-44997867D01*
X97032630Y-44703003D01*
X97032628Y-44703000D01*
X97032627Y-44702998D01*
X96815512Y-44430743D01*
X96569256Y-44184487D01*
X96297001Y-43967372D01*
X96296999Y-43967371D01*
X96002130Y-43782092D01*
X95688382Y-43630999D01*
X95359692Y-43515985D01*
X95359684Y-43515982D01*
X95105048Y-43457863D01*
X95020171Y-43438491D01*
X95020167Y-43438490D01*
X95020158Y-43438489D01*
X94674124Y-43399500D01*
X94674120Y-43399500D01*
X94325880Y-43399500D01*
X94325875Y-43399500D01*
X93979841Y-43438489D01*
X93979829Y-43438491D01*
X93640315Y-43515982D01*
X93640307Y-43515985D01*
X93311617Y-43630999D01*
X92997869Y-43782092D01*
X92703000Y-43967371D01*
X92702998Y-43967372D01*
X92430743Y-44184487D01*
X92184487Y-44430743D01*
X91967372Y-44702998D01*
X91967371Y-44703000D01*
X91782092Y-44997869D01*
X91635720Y-45301815D01*
X91588898Y-45353674D01*
X91521471Y-45371987D01*
X91454847Y-45350939D01*
X91410178Y-45297213D01*
X91400000Y-45248013D01*
X91400000Y-42252675D01*
X109443492Y-42252675D01*
X109443498Y-42252721D01*
X109443500Y-42252727D01*
X109456425Y-42300966D01*
X109456429Y-42300981D01*
X109470771Y-42354538D01*
X109470789Y-42354581D01*
X109496455Y-42399036D01*
X109496453Y-42399037D01*
X109496462Y-42399048D01*
X109523490Y-42445877D01*
X109523513Y-42445906D01*
X109562223Y-42484616D01*
X109562232Y-42484632D01*
X109562236Y-42484629D01*
X110183330Y-43105900D01*
X110227504Y-43150086D01*
X110227520Y-43150113D01*
X110266813Y-43189406D01*
X110302042Y-43224645D01*
X110302065Y-43224658D01*
X110302087Y-43224680D01*
X110347305Y-43250786D01*
X110393359Y-43277385D01*
X110393388Y-43277392D01*
X110393413Y-43277407D01*
X110441896Y-43290397D01*
X110495216Y-43304693D01*
X110495246Y-43304693D01*
X110495273Y-43304700D01*
X110544428Y-43304700D01*
X110600670Y-43304708D01*
X110600700Y-43304700D01*
X114249273Y-43304700D01*
X114354727Y-43304700D01*
X114456587Y-43277407D01*
X114547913Y-43224680D01*
X114622480Y-43150113D01*
X114675207Y-43058787D01*
X114702500Y-42956927D01*
X114702500Y-42851473D01*
X114675207Y-42749613D01*
X114622480Y-42658287D01*
X114547913Y-42583720D01*
X114456587Y-42530993D01*
X114354727Y-42503700D01*
X114354726Y-42503700D01*
X110765299Y-42503700D01*
X110698260Y-42484015D01*
X110677605Y-42467369D01*
X110170259Y-41959878D01*
X110170169Y-41959776D01*
X110125198Y-41914805D01*
X110125189Y-41914790D01*
X110125187Y-41914793D01*
X110089959Y-41879556D01*
X110089936Y-41879538D01*
X110089912Y-41879519D01*
X110067303Y-41866466D01*
X110044694Y-41853413D01*
X110019044Y-41838599D01*
X109998640Y-41826814D01*
X109998593Y-41826794D01*
X109950103Y-41813802D01*
X109950103Y-41813799D01*
X109950084Y-41813797D01*
X109896758Y-41799500D01*
X109896727Y-41799500D01*
X109847573Y-41799500D01*
X109839537Y-41799498D01*
X109791330Y-41799492D01*
X109791329Y-41799492D01*
X109791324Y-41799492D01*
X109791278Y-41799498D01*
X109747213Y-41811305D01*
X109743033Y-41812425D01*
X109689465Y-41826771D01*
X109689464Y-41826771D01*
X109689436Y-41826779D01*
X109644963Y-41852455D01*
X109644951Y-41852462D01*
X109598106Y-41879499D01*
X109559079Y-41918527D01*
X109559067Y-41918539D01*
X109523534Y-41954061D01*
X109497412Y-41999306D01*
X109497404Y-41999319D01*
X109470802Y-42045379D01*
X109457802Y-42093896D01*
X109457797Y-42093912D01*
X109443500Y-42147239D01*
X109443500Y-42196444D01*
X109443492Y-42252675D01*
X91400000Y-42252675D01*
X91400000Y-37499573D01*
X99660500Y-37499573D01*
X99660500Y-37605027D01*
X99687793Y-37706887D01*
X99740520Y-37798213D01*
X99815087Y-37872780D01*
X99906413Y-37925507D01*
X100008273Y-37952800D01*
X100008275Y-37952800D01*
X100113725Y-37952800D01*
X100113727Y-37952800D01*
X100215587Y-37925507D01*
X100306913Y-37872780D01*
X100381480Y-37798213D01*
X100434207Y-37706887D01*
X100461500Y-37605027D01*
X100461500Y-37499573D01*
X100434207Y-37397713D01*
X100381480Y-37306387D01*
X100306913Y-37231820D01*
X100215587Y-37179093D01*
X100113727Y-37151800D01*
X100008273Y-37151800D01*
X99906413Y-37179093D01*
X99906410Y-37179094D01*
X99815085Y-37231821D01*
X99740521Y-37306385D01*
X99687794Y-37397710D01*
X99687793Y-37397713D01*
X99660500Y-37499573D01*
X91400000Y-37499573D01*
X91400000Y-34776773D01*
X99987500Y-34776773D01*
X99987500Y-34882227D01*
X100014793Y-34984087D01*
X100067520Y-35075413D01*
X100142087Y-35149980D01*
X100233413Y-35202707D01*
X100335273Y-35230000D01*
X100335275Y-35230000D01*
X100440725Y-35230000D01*
X100440727Y-35230000D01*
X100542587Y-35202707D01*
X100633913Y-35149980D01*
X100708480Y-35075413D01*
X100761207Y-34984087D01*
X100788500Y-34882227D01*
X100788500Y-34776773D01*
X100761207Y-34674913D01*
X100708480Y-34583587D01*
X100633913Y-34509020D01*
X100542587Y-34456293D01*
X100440727Y-34429000D01*
X100335273Y-34429000D01*
X100233413Y-34456293D01*
X100233410Y-34456294D01*
X100142085Y-34509021D01*
X100067521Y-34583585D01*
X100014794Y-34674910D01*
X100014793Y-34674913D01*
X99987500Y-34776773D01*
X91400000Y-34776773D01*
X91400000Y-26751986D01*
X91419685Y-26684947D01*
X91472489Y-26639192D01*
X91541647Y-26629248D01*
X91605203Y-26658273D01*
X91635720Y-26698185D01*
X91782090Y-27002127D01*
X91967371Y-27296999D01*
X91967372Y-27297001D01*
X92184487Y-27569256D01*
X92430743Y-27815512D01*
X92702998Y-28032627D01*
X92703001Y-28032628D01*
X92703003Y-28032630D01*
X92968574Y-28199500D01*
X92997869Y-28217907D01*
X93077994Y-28256493D01*
X93311621Y-28369002D01*
X93518292Y-28441319D01*
X93640307Y-28484014D01*
X93640315Y-28484017D01*
X93640318Y-28484017D01*
X93640319Y-28484018D01*
X93979829Y-28561509D01*
X94325876Y-28600499D01*
X94325877Y-28600500D01*
X94325880Y-28600500D01*
X94674123Y-28600500D01*
X94674123Y-28600499D01*
X95020171Y-28561509D01*
X95359681Y-28484018D01*
X95688379Y-28369002D01*
X96002133Y-28217906D01*
X96188879Y-28100565D01*
X97924500Y-28100565D01*
X97924500Y-28199435D01*
X97950090Y-28294938D01*
X97999525Y-28380562D01*
X98069438Y-28450475D01*
X98155062Y-28499910D01*
X98250565Y-28525500D01*
X98250567Y-28525500D01*
X98349432Y-28525500D01*
X98349435Y-28525500D01*
X98444938Y-28499910D01*
X98530562Y-28450475D01*
X98600475Y-28380562D01*
X98649910Y-28294938D01*
X98675500Y-28199435D01*
X98675500Y-28100565D01*
X98649910Y-28005062D01*
X98600475Y-27919438D01*
X98530562Y-27849525D01*
X98444938Y-27800090D01*
X98349435Y-27774500D01*
X98250565Y-27774500D01*
X98155062Y-27800090D01*
X98155060Y-27800091D01*
X98155059Y-27800091D01*
X98069436Y-27849526D01*
X97999526Y-27919436D01*
X97950091Y-28005059D01*
X97950091Y-28005060D01*
X97950090Y-28005062D01*
X97924500Y-28100565D01*
X96188879Y-28100565D01*
X96296997Y-28032630D01*
X96330990Y-28005522D01*
X96343563Y-27995495D01*
X96343568Y-27995491D01*
X96406958Y-27944939D01*
X96569263Y-27815506D01*
X96815506Y-27569263D01*
X96844904Y-27532400D01*
X97032627Y-27297001D01*
X97032628Y-27296999D01*
X97032630Y-27296997D01*
X97169498Y-27079173D01*
X99448700Y-27079173D01*
X99448700Y-27184627D01*
X99452223Y-27197773D01*
X99475993Y-27286486D01*
X99475994Y-27286489D01*
X99483989Y-27300336D01*
X99528720Y-27377813D01*
X99603287Y-27452380D01*
X99694613Y-27505107D01*
X99796473Y-27532400D01*
X99796475Y-27532400D01*
X99901925Y-27532400D01*
X99901927Y-27532400D01*
X100003787Y-27505107D01*
X100095113Y-27452380D01*
X100169680Y-27377813D01*
X100222407Y-27286487D01*
X100249700Y-27184627D01*
X100249700Y-27079173D01*
X100222407Y-26977313D01*
X100169680Y-26885987D01*
X100095113Y-26811420D01*
X100021974Y-26769193D01*
X100003789Y-26758694D01*
X100003788Y-26758693D01*
X100003787Y-26758693D01*
X99901927Y-26731400D01*
X99796473Y-26731400D01*
X99694613Y-26758693D01*
X99694610Y-26758694D01*
X99603285Y-26811421D01*
X99528721Y-26885985D01*
X99475994Y-26977310D01*
X99475993Y-26977313D01*
X99448700Y-27079173D01*
X97169498Y-27079173D01*
X97217906Y-27002133D01*
X97369002Y-26688379D01*
X97484018Y-26359681D01*
X97561509Y-26020171D01*
X97600500Y-25674120D01*
X97600500Y-25325880D01*
X97561509Y-24979829D01*
X97484018Y-24640319D01*
X97467460Y-24593000D01*
X97451262Y-24546707D01*
X97369002Y-24311621D01*
X97217906Y-23997867D01*
X97032630Y-23703003D01*
X97032628Y-23703000D01*
X97032627Y-23702998D01*
X96815512Y-23430743D01*
X96569256Y-23184487D01*
X96297001Y-22967372D01*
X96296999Y-22967371D01*
X96002130Y-22782092D01*
X95698185Y-22635720D01*
X95646326Y-22588898D01*
X95628013Y-22521471D01*
X95649061Y-22454847D01*
X95702787Y-22410178D01*
X95751987Y-22400000D01*
X112569601Y-22400000D01*
X112636640Y-22419685D01*
G37*
%TD.AperFunction*%
%TA.AperFunction,Conductor*%
G36*
X113905389Y-22419685D02*
G01*
X113951144Y-22472489D01*
X113961088Y-22541647D01*
X113945738Y-22585996D01*
X113919757Y-22630998D01*
X113900090Y-22665061D01*
X113900090Y-22665062D01*
X113874500Y-22760565D01*
X113874500Y-22859435D01*
X113900090Y-22954938D01*
X113900091Y-22954939D01*
X113900091Y-22954940D01*
X113907268Y-22967370D01*
X113949525Y-23040562D01*
X114019438Y-23110475D01*
X114105062Y-23159910D01*
X114200565Y-23185500D01*
X114200567Y-23185500D01*
X114299432Y-23185500D01*
X114299435Y-23185500D01*
X114394938Y-23159910D01*
X114480562Y-23110475D01*
X114550475Y-23040562D01*
X114599910Y-22954938D01*
X114625500Y-22859435D01*
X114625500Y-22760565D01*
X114599910Y-22665062D01*
X114554262Y-22585997D01*
X114537790Y-22518100D01*
X114560642Y-22452073D01*
X114615563Y-22408883D01*
X114661650Y-22400000D01*
X114838350Y-22400000D01*
X114905389Y-22419685D01*
X114951144Y-22472489D01*
X114961088Y-22541647D01*
X114945738Y-22585996D01*
X114919757Y-22630998D01*
X114900090Y-22665061D01*
X114900090Y-22665062D01*
X114874500Y-22760565D01*
X114874500Y-22859435D01*
X114900090Y-22954938D01*
X114900091Y-22954939D01*
X114900091Y-22954940D01*
X114907268Y-22967370D01*
X114949525Y-23040562D01*
X115019438Y-23110475D01*
X115104609Y-23159649D01*
X115152825Y-23210215D01*
X115166048Y-23278822D01*
X115149999Y-23329030D01*
X115142795Y-23341508D01*
X115142793Y-23341513D01*
X115115500Y-23443373D01*
X115115500Y-23548827D01*
X115142793Y-23650687D01*
X115195520Y-23742013D01*
X115270087Y-23816580D01*
X115361413Y-23869307D01*
X115463273Y-23896600D01*
X115463275Y-23896600D01*
X115568725Y-23896600D01*
X115568727Y-23896600D01*
X115670587Y-23869307D01*
X115761913Y-23816580D01*
X115836480Y-23742013D01*
X115889207Y-23650687D01*
X115916500Y-23548827D01*
X115916500Y-23443373D01*
X115889207Y-23341513D01*
X115836480Y-23250187D01*
X115761913Y-23175620D01*
X115683794Y-23130518D01*
X115670589Y-23122894D01*
X115665441Y-23120762D01*
X115611037Y-23076922D01*
X115588971Y-23010628D01*
X115598334Y-22958739D01*
X115599902Y-22954950D01*
X115599910Y-22954938D01*
X115625500Y-22859435D01*
X115625500Y-22760565D01*
X115599910Y-22665062D01*
X115554262Y-22585997D01*
X115537790Y-22518100D01*
X115560642Y-22452073D01*
X115615563Y-22408883D01*
X115661650Y-22400000D01*
X120195667Y-22400000D01*
X120262706Y-22419685D01*
X120308461Y-22472489D01*
X120318405Y-22541647D01*
X120289380Y-22605203D01*
X120283343Y-22611686D01*
X120274541Y-22620487D01*
X120218960Y-22652575D01*
X120154015Y-22669977D01*
X120154008Y-22669980D01*
X120104545Y-22698538D01*
X120085492Y-22709538D01*
X120085486Y-22709542D01*
X119874546Y-22920482D01*
X119818959Y-22952575D01*
X119810162Y-22954933D01*
X119754008Y-22969979D01*
X119754007Y-22969980D01*
X119713631Y-22993292D01*
X119685492Y-23009537D01*
X119674544Y-23020485D01*
X119618959Y-23052575D01*
X119609087Y-23055220D01*
X119554008Y-23069979D01*
X119554005Y-23069981D01*
X119522106Y-23088399D01*
X119522105Y-23088400D01*
X119511226Y-23094680D01*
X119485489Y-23109539D01*
X119485487Y-23109541D01*
X119481848Y-23113181D01*
X119420525Y-23146666D01*
X119394167Y-23149500D01*
X119130438Y-23149500D01*
X119092566Y-23159648D01*
X119054009Y-23169979D01*
X119054008Y-23169980D01*
X119001190Y-23200475D01*
X118985492Y-23209538D01*
X118985486Y-23209542D01*
X118981848Y-23213181D01*
X118920525Y-23246666D01*
X118894167Y-23249500D01*
X118630438Y-23249500D01*
X118596567Y-23258576D01*
X118554009Y-23269979D01*
X118554008Y-23269980D01*
X118520523Y-23289313D01*
X118501104Y-23300525D01*
X118486248Y-23309102D01*
X118485487Y-23309541D01*
X118485485Y-23309542D01*
X118474546Y-23320482D01*
X118418960Y-23352575D01*
X118354015Y-23369977D01*
X118354008Y-23369980D01*
X118286840Y-23408760D01*
X118285492Y-23409538D01*
X118285486Y-23409542D01*
X117781848Y-23913181D01*
X117720525Y-23946666D01*
X117694167Y-23949500D01*
X117630438Y-23949500D01*
X117554010Y-23969978D01*
X117485489Y-24009540D01*
X117485486Y-24009542D01*
X116581848Y-24913181D01*
X116520525Y-24946666D01*
X116494167Y-24949500D01*
X115717094Y-24949500D01*
X115708363Y-24948984D01*
X115705702Y-24949018D01*
X115670598Y-24949468D01*
X115668910Y-24949490D01*
X115667320Y-24949500D01*
X115630265Y-24949500D01*
X115629395Y-24949626D01*
X115627769Y-24949850D01*
X115626763Y-24949982D01*
X115591097Y-24960030D01*
X115589571Y-24960450D01*
X115553830Y-24970027D01*
X115552952Y-24970405D01*
X115551487Y-24971023D01*
X115550584Y-24971396D01*
X115518756Y-24990320D01*
X115517391Y-24991120D01*
X115485332Y-25009630D01*
X115484573Y-25010229D01*
X115483314Y-25011207D01*
X115482546Y-25011796D01*
X115456683Y-25038329D01*
X115455573Y-25039453D01*
X115427668Y-25067359D01*
X115421931Y-25073986D01*
X114434779Y-26086804D01*
X114373891Y-26121073D01*
X114304141Y-26116983D01*
X114247675Y-26075833D01*
X114242770Y-26068500D01*
X114240458Y-26065487D01*
X114229517Y-26054546D01*
X114197424Y-25998960D01*
X114180021Y-25934011D01*
X114165414Y-25908710D01*
X114140464Y-25865495D01*
X114140458Y-25865487D01*
X114129518Y-25854547D01*
X114097424Y-25798958D01*
X114089341Y-25768790D01*
X114089341Y-25768789D01*
X114083749Y-25747924D01*
X114080022Y-25734012D01*
X114040460Y-25665489D01*
X113936819Y-25561848D01*
X113903334Y-25500525D01*
X113900500Y-25474167D01*
X113900500Y-25310439D01*
X113900500Y-25310438D01*
X113880021Y-25234011D01*
X113875854Y-25226793D01*
X113840464Y-25165495D01*
X113840458Y-25165487D01*
X113829517Y-25154546D01*
X113797424Y-25098960D01*
X113780021Y-25034011D01*
X113780017Y-25034004D01*
X113740464Y-24965495D01*
X113740458Y-24965487D01*
X113729517Y-24954546D01*
X113697424Y-24898960D01*
X113680021Y-24834011D01*
X113657975Y-24795826D01*
X113640464Y-24765495D01*
X113640458Y-24765487D01*
X113629517Y-24754546D01*
X113597424Y-24698960D01*
X113580021Y-24634011D01*
X113580017Y-24634004D01*
X113540464Y-24565495D01*
X113540458Y-24565487D01*
X113536819Y-24561848D01*
X113503334Y-24500525D01*
X113500500Y-24474167D01*
X113500500Y-24410439D01*
X113494906Y-24389562D01*
X113480021Y-24334011D01*
X113445243Y-24273773D01*
X113440464Y-24265495D01*
X113440458Y-24265487D01*
X113436819Y-24261848D01*
X113403334Y-24200525D01*
X113400500Y-24174167D01*
X113400500Y-23610440D01*
X113400499Y-23610436D01*
X113400332Y-23609814D01*
X113392214Y-23579514D01*
X113380022Y-23534012D01*
X113340460Y-23465489D01*
X113236819Y-23361848D01*
X113203334Y-23300525D01*
X113200500Y-23274167D01*
X113200500Y-23163743D01*
X113217113Y-23101742D01*
X113249910Y-23044938D01*
X113275500Y-22949435D01*
X113275500Y-22850565D01*
X113249910Y-22755062D01*
X113200475Y-22669438D01*
X113142718Y-22611681D01*
X113109233Y-22550358D01*
X113114217Y-22480666D01*
X113156089Y-22424733D01*
X113221553Y-22400316D01*
X113230399Y-22400000D01*
X113838350Y-22400000D01*
X113905389Y-22419685D01*
G37*
%TD.AperFunction*%
%TA.AperFunction,Conductor*%
G36*
X120674273Y-23205018D02*
G01*
X120716909Y-23258576D01*
X120719979Y-23265990D01*
X120727388Y-23278822D01*
X120749683Y-23317438D01*
X120749684Y-23317440D01*
X120759537Y-23334507D01*
X120759541Y-23334512D01*
X120763181Y-23338152D01*
X120764523Y-23340610D01*
X120766921Y-23342059D01*
X120781167Y-23371091D01*
X120796666Y-23399475D01*
X120796466Y-23402268D01*
X120797700Y-23404783D01*
X120799500Y-23425833D01*
X120799500Y-24183522D01*
X120779815Y-24250561D01*
X120759121Y-24273060D01*
X120759834Y-24273773D01*
X120679520Y-24354087D01*
X120622729Y-24452452D01*
X120620408Y-24451112D01*
X120584837Y-24495242D01*
X120518540Y-24517299D01*
X120450843Y-24500011D01*
X120426447Y-24481057D01*
X120236817Y-24291421D01*
X120203333Y-24230097D01*
X120200500Y-24203741D01*
X120200500Y-24120775D01*
X120200500Y-24120773D01*
X120173207Y-24018913D01*
X120120480Y-23927587D01*
X120045913Y-23853020D01*
X119958826Y-23802740D01*
X119910612Y-23752173D01*
X119897390Y-23683566D01*
X119923358Y-23618701D01*
X119948932Y-23596547D01*
X119948060Y-23595410D01*
X119954506Y-23590463D01*
X119954506Y-23590462D01*
X119954511Y-23590460D01*
X119965454Y-23579516D01*
X120021037Y-23547425D01*
X120085989Y-23530021D01*
X120154511Y-23490460D01*
X120210460Y-23434511D01*
X120365456Y-23279514D01*
X120376275Y-23273268D01*
X120383223Y-23264785D01*
X120400878Y-23259063D01*
X120421037Y-23247425D01*
X120485989Y-23230021D01*
X120540346Y-23198637D01*
X120608246Y-23182165D01*
X120674273Y-23205018D01*
G37*
%TD.AperFunction*%
%TD*%
M02*
