%TF.GenerationSoftware,KiCad,Pcbnew,10.99.0-2191-g6e8e92d84a*%
%TF.CreationDate,2026-08-13T22:40:36+07:00*%
%TF.ProjectId,koyomi-lvds-hat,6b6f796f-6d69-42d6-9c76-64732d686174,rev?*%
%TF.SameCoordinates,Original*%
%TF.FileFunction,Paste,Top*%
%TF.FilePolarity,Positive*%
%FSLAX46Y46*%
G04 Gerber Fmt 4.6, Leading zero omitted, Abs format (unit mm)*
G04 Created by KiCad (PCBNEW 10.99.0-2191-g6e8e92d84a) date 2026-08-13 22:40:36*
%MOMM*%
%LPD*%
G01*
G04 APERTURE LIST*
G04 Aperture macros list*
%AMRoundRect*
0 Rectangle with rounded corners*
0 $1 Rounding radius*
0 $2 $3 $4 $5 $6 $7 $8 $9 X,Y pos of 4 corners*
0 Add a 4 corners polygon primitive as box body*
4,1,4,$2,$3,$4,$5,$6,$7,$8,$9,$2,$3,0*
0 Add four circle primitives for the rounded corners*
1,1,$1+$1,$2,$3*
1,1,$1+$1,$4,$5*
1,1,$1+$1,$6,$7*
1,1,$1+$1,$8,$9*
0 Add four rect primitives between the rounded corners*
20,1,$1+$1,$2,$3,$4,$5,0*
20,1,$1+$1,$4,$5,$6,$7,0*
20,1,$1+$1,$6,$7,$8,$9,0*
20,1,$1+$1,$8,$9,$2,$3,0*%
G04 Aperture macros list end*
%ADD10RoundRect,0.237500X-0.300000X-0.237500X0.300000X-0.237500X0.300000X0.237500X-0.300000X0.237500X0*%
%ADD11R,0.250000X0.550000*%
%ADD12R,0.300000X1.300000*%
%ADD13R,1.800000X2.200000*%
%ADD14R,0.800000X0.500000*%
%ADD15R,0.800000X0.400000*%
%ADD16R,0.200000X1.200000*%
%ADD17R,1.400000X2.000000*%
%ADD18RoundRect,0.237500X-0.237500X0.300000X-0.237500X-0.300000X0.237500X-0.300000X0.237500X0.300000X0*%
%ADD19RoundRect,0.375000X-0.375000X0.625000X-0.375000X-0.625000X0.375000X-0.625000X0.375000X0.625000X0*%
%ADD20RoundRect,0.500000X-1.400000X0.500000X-1.400000X-0.500000X1.400000X-0.500000X1.400000X0.500000X0*%
%ADD21RoundRect,0.009000X-0.141000X0.491000X-0.141000X-0.491000X0.141000X-0.491000X0.141000X0.491000X0*%
%ADD22R,0.250000X0.650000*%
%ADD23R,0.400000X1.000000*%
%ADD24R,0.400000X1.550000*%
%ADD25RoundRect,0.237500X-0.237500X0.250000X-0.237500X-0.250000X0.237500X-0.250000X0.237500X0.250000X0*%
G04 APERTURE END LIST*
D10*
%TO.C,C2*%
X113337500Y-36200000D03*
X115062500Y-36200000D03*
%TD*%
D11*
%TO.C,FL1*%
X127849900Y-43025000D03*
X127849900Y-43975000D03*
X128350100Y-43025000D03*
X128350100Y-43975000D03*
X128849900Y-43025000D03*
X128849900Y-43975000D03*
X129350100Y-43025000D03*
X129350100Y-43975000D03*
%TD*%
D12*
%TO.C,JBL1*%
X139250000Y-42150000D03*
X139750000Y-42150000D03*
X140250000Y-42150000D03*
X140750000Y-42150000D03*
X141250000Y-42150000D03*
X141750000Y-42150000D03*
X142250000Y-42150000D03*
X142750000Y-42150000D03*
X143250000Y-42150000D03*
X143750000Y-42150000D03*
X144250000Y-42150000D03*
X144750000Y-42150000D03*
D13*
X137350000Y-45400000D03*
X146650000Y-45400000D03*
%TD*%
D14*
%TO.C,RN4*%
X138100000Y-27800000D03*
D15*
X138100000Y-28600000D03*
X138100000Y-29400000D03*
D14*
X138100000Y-30200000D03*
X139900000Y-30200000D03*
D15*
X139900000Y-29400000D03*
X139900000Y-28600000D03*
D14*
X139900000Y-27800000D03*
%TD*%
D10*
%TO.C,C6*%
X118637500Y-42200000D03*
X120362500Y-42200000D03*
%TD*%
D14*
%TO.C,RN5*%
X142100000Y-27800000D03*
D15*
X142100000Y-28600000D03*
X142100000Y-29400000D03*
D14*
X142100000Y-30200000D03*
X143900000Y-30200000D03*
D15*
X143900000Y-29400000D03*
X143900000Y-28600000D03*
D14*
X143900000Y-27800000D03*
%TD*%
D16*
%TO.C,J2*%
X117700000Y-45630000D03*
X118100000Y-45630000D03*
X118500000Y-45630000D03*
X118900000Y-45630000D03*
X119300000Y-45630000D03*
X119700000Y-45630000D03*
X120100000Y-45630000D03*
X120500000Y-45630000D03*
X120900000Y-45630000D03*
X121300000Y-45630000D03*
X121700000Y-45630000D03*
X122100000Y-45630000D03*
X122500000Y-45630000D03*
X122900000Y-45630000D03*
X123300000Y-45630000D03*
X123700000Y-45630000D03*
X124100000Y-45630000D03*
X124500000Y-45630000D03*
X124900000Y-45630000D03*
X125300000Y-45630000D03*
X125700000Y-45630000D03*
X126100000Y-45630000D03*
X126500000Y-45630000D03*
X126900000Y-45630000D03*
X127300000Y-45630000D03*
X127700000Y-45630000D03*
X128100000Y-45630000D03*
X128500000Y-45630000D03*
X128900000Y-45630000D03*
X129300000Y-45630000D03*
D17*
X115200000Y-47000000D03*
X131800000Y-47000000D03*
%TD*%
D10*
%TO.C,C5*%
X115137500Y-42200000D03*
X116862500Y-42200000D03*
%TD*%
%TO.C,C3*%
X113337500Y-39400000D03*
X115062500Y-39400000D03*
%TD*%
D18*
%TO.C,C7*%
X100500000Y-41137500D03*
X100500000Y-42862500D03*
%TD*%
D14*
%TO.C,RN3*%
X107100000Y-27800000D03*
D15*
X107100000Y-28600000D03*
X107100000Y-29400000D03*
D14*
X107100000Y-30200000D03*
X108900000Y-30200000D03*
D15*
X108900000Y-29400000D03*
X108900000Y-28600000D03*
D14*
X108900000Y-27800000D03*
%TD*%
D19*
%TO.C,U1*%
X108300000Y-34850000D03*
X106000000Y-34850000D03*
D20*
X106000000Y-41150000D03*
D19*
X103700000Y-34850000D03*
%TD*%
D14*
%TO.C,RN1*%
X99100000Y-27800000D03*
D15*
X99100000Y-28600000D03*
X99100000Y-29400000D03*
D14*
X99100000Y-30200000D03*
X100900000Y-30200000D03*
D15*
X100900000Y-29400000D03*
X100900000Y-28600000D03*
D14*
X100900000Y-27800000D03*
%TD*%
D11*
%TO.C,FL2*%
X125049900Y-43025000D03*
X125049900Y-43975000D03*
X125550100Y-43025000D03*
X125550100Y-43975000D03*
X126049900Y-43025000D03*
X126049900Y-43975000D03*
X126550100Y-43025000D03*
X126550100Y-43975000D03*
%TD*%
D21*
%TO.C,IC1*%
X130250000Y-32700000D03*
X129750000Y-32700000D03*
X129250000Y-32700000D03*
X128750000Y-32700000D03*
X128250000Y-32700000D03*
X127750000Y-32700000D03*
X127250000Y-32700000D03*
X126750000Y-32700000D03*
X126250000Y-32700000D03*
X125750000Y-32700000D03*
X125250000Y-32700000D03*
X124750000Y-32700000D03*
X124250000Y-32700000D03*
X123750000Y-32700000D03*
X123250000Y-32700000D03*
X122750000Y-32700000D03*
X122250000Y-32700000D03*
X121750000Y-32700000D03*
X121250000Y-32700000D03*
X120750000Y-32700000D03*
X120250000Y-32700000D03*
X119750000Y-32700000D03*
X119250000Y-32700000D03*
X118750000Y-32700000D03*
X118250000Y-32700000D03*
X117750000Y-32700000D03*
X117250000Y-32700000D03*
X116750000Y-32700000D03*
X116750000Y-39960000D03*
X117250000Y-39960000D03*
X117750000Y-39960000D03*
X118250000Y-39960000D03*
X118750000Y-39960000D03*
X119250000Y-39960000D03*
X119750000Y-39960000D03*
X120250000Y-39960000D03*
X120750000Y-39960000D03*
X121250000Y-39960000D03*
X121750000Y-39960000D03*
X122250000Y-39960000D03*
X122750000Y-39960000D03*
X123250000Y-39960000D03*
X123750000Y-39960000D03*
X124250000Y-39960000D03*
X124750000Y-39960000D03*
X125250000Y-39960000D03*
X125750000Y-39960000D03*
X126250000Y-39960000D03*
X126750000Y-39960000D03*
X127250000Y-39960000D03*
X127750000Y-39960000D03*
X128250000Y-39960000D03*
X128750000Y-39960000D03*
X129250000Y-39960000D03*
X129750000Y-39960000D03*
X130250000Y-39960000D03*
%TD*%
D14*
%TO.C,RN2*%
X103100000Y-27800000D03*
D15*
X103100000Y-28600000D03*
X103100000Y-29400000D03*
D14*
X103100000Y-30200000D03*
X104900000Y-30200000D03*
D15*
X104900000Y-29400000D03*
X104900000Y-28600000D03*
D14*
X104900000Y-27800000D03*
%TD*%
%TO.C,RN6*%
X146100000Y-27800000D03*
D15*
X146100000Y-28600000D03*
X146100000Y-29400000D03*
D14*
X146100000Y-30200000D03*
X147900000Y-30200000D03*
D15*
X147900000Y-29400000D03*
X147900000Y-28600000D03*
D14*
X147900000Y-27800000D03*
%TD*%
D10*
%TO.C,C8*%
X105637500Y-45000000D03*
X107362500Y-45000000D03*
%TD*%
D22*
%TO.C,JFFC1*%
X113750000Y-22710000D03*
X114250000Y-22710000D03*
X114750000Y-22710000D03*
X115250000Y-22710000D03*
X115750000Y-22710000D03*
X116250000Y-22710000D03*
X116750000Y-22710000D03*
X117250000Y-22710000D03*
X117750000Y-22710000D03*
X118250000Y-22710000D03*
X118750000Y-22710000D03*
X119250000Y-22710000D03*
X119750000Y-22710000D03*
X120250000Y-22710000D03*
X120750000Y-22710000D03*
X121250000Y-22710000D03*
X121750000Y-22710000D03*
X122250000Y-22710000D03*
X122750000Y-22710000D03*
X123250000Y-22710000D03*
X123750000Y-22710000D03*
X124250000Y-22710000D03*
X124750000Y-22710000D03*
X125250000Y-22710000D03*
X125750000Y-22710000D03*
X126250000Y-22710000D03*
X126750000Y-22710000D03*
X127250000Y-22710000D03*
X127750000Y-22710000D03*
X128250000Y-22710000D03*
X128750000Y-22710000D03*
X129250000Y-22710000D03*
X129750000Y-22710000D03*
X130250000Y-22710000D03*
X130750000Y-22710000D03*
X131250000Y-22710000D03*
X131750000Y-22710000D03*
X132250000Y-22710000D03*
X132750000Y-22710000D03*
X133250000Y-22710000D03*
D23*
X114750000Y-28490000D03*
X117250000Y-28490000D03*
X119750000Y-28490000D03*
X122250000Y-28490000D03*
X124750000Y-28490000D03*
X127250000Y-28490000D03*
X129750000Y-28490000D03*
X132250000Y-28490000D03*
D24*
X134500000Y-27960000D03*
X112500000Y-27960000D03*
%TD*%
D10*
%TO.C,C1*%
X113337500Y-33000000D03*
X115062500Y-33000000D03*
%TD*%
D25*
%TO.C,R1*%
X99500000Y-33087500D03*
X99500000Y-34912500D03*
%TD*%
D10*
%TO.C,C4*%
X111637500Y-42200000D03*
X113362500Y-42200000D03*
%TD*%
D25*
%TO.C,R2*%
X99500000Y-36587500D03*
X99500000Y-38412500D03*
%TD*%
M02*
