%TF.GenerationSoftware,KiCad,Pcbnew,10.99.0-2191-g6e8e92d84a*%
%TF.CreationDate,2026-08-13T22:40:36+07:00*%
%TF.ProjectId,koyomi-lvds-hat,6b6f796f-6d69-42d6-9c76-64732d686174,rev?*%
%TF.SameCoordinates,Original*%
%TF.FileFunction,Copper,L4,Bot*%
%TF.FilePolarity,Positive*%
%FSLAX46Y46*%
G04 Gerber Fmt 4.6, Leading zero omitted, Abs format (unit mm)*
G04 Created by KiCad (PCBNEW 10.99.0-2191-g6e8e92d84a) date 2026-08-13 22:40:36*
%MOMM*%
%LPD*%
G01*
G04 APERTURE LIST*
%TA.AperFunction,ViaPad*%
%ADD10C,0.500000*%
%TD*%
%TA.AperFunction,ViaPad*%
%ADD11C,0.450000*%
%TD*%
%TA.AperFunction,Conductor*%
%ADD12C,0.150000*%
%TD*%
%TA.AperFunction,Conductor*%
%ADD13C,0.300000*%
%TD*%
%TA.AperFunction,Conductor*%
%ADD14C,0.400000*%
%TD*%
G04 APERTURE END LIST*
D10*
%TO.N,+3V3*%
X130363300Y-31442400D03*
X114163000Y-40161200D03*
D11*
X117750000Y-32000000D03*
X112600000Y-35500000D03*
D10*
X121000000Y-24600000D03*
X124713700Y-39030900D03*
X121088300Y-42933400D03*
D11*
X112900000Y-22900000D03*
D10*
X125207900Y-31125200D03*
D11*
%TO.N,GND*%
X122650000Y-42060000D03*
D10*
X123250000Y-23531400D03*
D11*
X129550000Y-41960000D03*
X120250000Y-41360000D03*
X121250000Y-39050000D03*
D10*
X120543000Y-23489000D03*
X117690000Y-23562500D03*
X125750000Y-23520100D03*
X116256000Y-34254100D03*
D11*
X121950000Y-41360000D03*
D10*
X116250000Y-23522400D03*
D11*
X126050000Y-33640100D03*
D10*
X128144000Y-23490200D03*
D11*
X122350000Y-31800000D03*
X124250000Y-31300000D03*
X142450000Y-43550000D03*
X123950000Y-39060000D03*
X120950000Y-35400000D03*
X122850000Y-35550000D03*
X128500000Y-31400000D03*
X122650000Y-29700000D03*
X117750000Y-41400000D03*
D10*
%TO.N,Net-(IC1-Y1M)*%
X127360000Y-41776000D03*
X125658000Y-39045400D03*
%TO.N,VCD6*%
X138379000Y-41438100D03*
X122724000Y-44616600D03*
%TO.N,VCD5*%
X123259000Y-47308000D03*
X138938000Y-40455800D03*
%TO.N,VCD4*%
X123300000Y-46656100D03*
X138016000Y-42838000D03*
%TO.N,VCD3*%
X123700000Y-43506400D03*
X140100000Y-40943200D03*
%TO.N,VCD2*%
X141250000Y-41097200D03*
X124337000Y-43811000D03*
D11*
%TO.N,+5V*%
X143750000Y-43700000D03*
X115250000Y-22810000D03*
X114250000Y-22810000D03*
D10*
%TO.N,PWM*%
X131750000Y-23443900D03*
X144250000Y-41074900D03*
%TO.N,EN*%
X119800000Y-24173500D03*
X145243000Y-41273300D03*
D11*
%TO.N,D18*%
X120900000Y-31600000D03*
X137200000Y-27800000D03*
D10*
%TO.N,G1*%
X123146000Y-24993500D03*
X139262000Y-31198200D03*
%TO.N,B1*%
X139225000Y-27250500D03*
X129340000Y-25267000D03*
%TO.N,+2V5*%
X114302000Y-42904200D03*
X109844000Y-42200000D03*
%TO.N,D12*%
X125147000Y-31791400D03*
X143000000Y-29305900D03*
%TO.N,D9*%
X141280000Y-29468600D03*
X127372000Y-31796500D03*
%TO.N,D19*%
X141304000Y-30627700D03*
X127209000Y-34209300D03*
%TO.N,B2*%
X128750000Y-24090700D03*
X144715000Y-30011300D03*
%TO.N,G2*%
X129856000Y-24585900D03*
X142720000Y-26063300D03*
%TO.N,CLKSEL*%
X100388000Y-34829500D03*
X122921000Y-33918800D03*
X143838000Y-34429100D03*
%TO.N,PANEL_ID0*%
X122100000Y-44200000D03*
X121980000Y-23711800D03*
%TO.N,PANEL_ID1*%
X123100000Y-44000000D03*
X130900000Y-25600000D03*
X130401000Y-23488600D03*
X128800000Y-30400000D03*
X130400000Y-28300000D03*
X130400000Y-25200000D03*
D11*
%TO.N,LCD_INS*%
X131199999Y-31450000D03*
D10*
X133834000Y-23385200D03*
X132900000Y-29600000D03*
X129500000Y-45600000D03*
X134600000Y-23300000D03*
%TO.N,D20*%
X119785000Y-31293700D03*
X107788000Y-27236400D03*
%TO.N,D7*%
X114727000Y-29980100D03*
X121170000Y-34345000D03*
%TO.N,B5*%
X109706000Y-29287600D03*
X111322000Y-25895200D03*
%TO.N,B4*%
X109710000Y-28498300D03*
X112174000Y-26391900D03*
%TO.N,B3*%
X113469000Y-26498600D03*
X109726000Y-27734800D03*
%TO.N,D13*%
X124339000Y-33661600D03*
X99849200Y-27131900D03*
D11*
%TO.N,D15*%
X123250000Y-31500000D03*
X98300000Y-28150000D03*
X118500000Y-30650000D03*
D10*
%TO.N,VSYNC*%
X105975000Y-23363900D03*
X101709000Y-30200000D03*
%TO.N,HSYNC*%
X104212000Y-25806200D03*
X115516000Y-23496100D03*
%TO.N,D6*%
X129449000Y-31435300D03*
X145280000Y-28895200D03*
D11*
%TO.N,D14*%
X124400000Y-29500000D03*
X103621000Y-31009000D03*
D10*
%TO.N,SHTDN*%
X118963000Y-38977700D03*
X147848000Y-34626800D03*
X100061000Y-37552300D03*
%TO.N,D1*%
X103916000Y-29400000D03*
X128370000Y-39049400D03*
%TO.N,D2*%
X129250000Y-39051600D03*
X102298000Y-28600000D03*
%TO.N,G5*%
X105704000Y-30200000D03*
X109012000Y-24743100D03*
%TO.N,R1*%
X104520000Y-27142400D03*
X118750000Y-24170900D03*
%TO.N,R3*%
X147559000Y-30853700D03*
X134617000Y-25194100D03*
%TD*%
%TO.N,+3V3*%
D12*
X112699999Y-35400000D02*
X115800000Y-35400000D01*
X121000000Y-30500000D02*
X120899999Y-30600000D01*
X117500000Y-32700000D02*
X117500000Y-32600000D01*
X115800000Y-35400000D02*
X116800000Y-34400000D01*
X121100000Y-32100000D02*
X122100000Y-31100000D01*
D13*
X121400000Y-25350000D02*
X121300000Y-25250000D01*
X121500000Y-25550000D02*
X121400000Y-25450000D01*
D12*
X118699999Y-33000000D02*
X120199999Y-33000000D01*
X122100000Y-31100000D02*
X122100000Y-30900000D01*
X118399999Y-31700000D02*
X118300000Y-31800000D01*
X120199999Y-33000000D02*
X122500000Y-30700000D01*
X122300000Y-30700000D02*
X122300000Y-30300000D01*
X117300000Y-33000000D02*
X117399999Y-32900000D01*
X122199999Y-30000000D02*
X121800000Y-30000000D01*
D13*
X121700000Y-26250000D02*
X121700000Y-26050000D01*
D12*
X120900000Y-32100000D02*
X121100000Y-32100000D01*
X118899999Y-31500000D02*
X118800000Y-31500000D01*
X122500000Y-30300000D02*
X122199999Y-30000000D01*
X117300000Y-33200000D02*
X117300000Y-33000000D01*
D13*
X121300000Y-25050000D02*
X121100000Y-24850000D01*
D12*
X117199999Y-33299999D02*
X117300000Y-33200000D01*
X118300000Y-31800000D02*
X118199999Y-31800000D01*
X121800000Y-30000000D02*
X121500000Y-30300000D01*
X118800000Y-31500000D02*
X118699999Y-31600000D01*
X117199999Y-33400000D02*
X117199999Y-33299999D01*
X120899999Y-30600000D02*
X120699999Y-30600000D01*
X119100000Y-33000000D02*
X120199999Y-33000000D01*
X117000000Y-33800000D02*
X117000000Y-33700000D01*
X121199999Y-30400000D02*
X121100000Y-30500000D01*
X116800000Y-34400000D02*
X116800000Y-34100000D01*
X117699999Y-32299999D02*
X117699999Y-32100000D01*
X120000000Y-33000000D02*
X120900000Y-32100000D01*
X117100000Y-33500000D02*
X117199999Y-33400000D01*
X123862100Y-38179300D02*
X124713700Y-39030900D01*
X116800000Y-34100000D02*
X116899999Y-34000000D01*
X120699999Y-30600000D02*
X120500000Y-30800000D01*
X117500000Y-32600000D02*
X117600000Y-32500000D01*
D13*
X121600000Y-25850000D02*
X121500000Y-25750000D01*
D12*
X121600000Y-30000000D02*
X121100000Y-30500000D01*
D13*
X121400000Y-25450000D02*
X121400000Y-25350000D01*
D12*
X121100000Y-30500000D02*
X121000000Y-30500000D01*
X117600000Y-32500000D02*
X117600000Y-32400000D01*
X122000000Y-30000000D02*
X121600000Y-30000000D01*
X117100000Y-33600000D02*
X117100000Y-33500000D01*
D13*
X121100000Y-24650000D02*
X121000000Y-24600000D01*
D12*
X118600000Y-31600000D02*
X118500000Y-31700000D01*
D13*
X121100000Y-24850000D02*
X121100000Y-24650000D01*
D12*
X123862100Y-32396500D02*
X123862100Y-38179300D01*
D13*
X121800000Y-26350000D02*
X121700000Y-26250000D01*
X121700000Y-26050000D02*
X121600000Y-25950000D01*
X121980000Y-27897300D02*
X122000000Y-27750000D01*
X122000000Y-27250000D02*
X121800000Y-27050000D01*
D12*
X117399999Y-32799999D02*
X117500000Y-32700000D01*
X119600000Y-30800000D02*
X118899999Y-31500000D01*
X121500000Y-30300000D02*
X121399999Y-30300000D01*
D13*
X121300000Y-25250000D02*
X121300000Y-25050000D01*
D12*
X120500000Y-30800000D02*
X119600000Y-30800000D01*
X116899999Y-33900000D02*
X117000000Y-33800000D01*
X116899999Y-34000000D02*
X116899999Y-33900000D01*
X118199999Y-31800000D02*
X118100000Y-31900000D01*
X118500000Y-31700000D02*
X118399999Y-31700000D01*
X121399999Y-30300000D02*
X121300000Y-30400000D01*
D13*
X122000000Y-27750000D02*
X122000000Y-27250000D01*
D12*
X117699999Y-32100000D02*
X117750000Y-32000000D01*
X122300000Y-30300000D02*
X122000000Y-30000000D01*
X112600000Y-35500000D02*
X112699999Y-35400000D01*
X121300000Y-30400000D02*
X121199999Y-30400000D01*
X117399999Y-32900000D02*
X117399999Y-32799999D01*
X122500000Y-30700000D02*
X122500000Y-30300000D01*
X122100000Y-30900000D02*
X122300000Y-30700000D01*
X117000000Y-33700000D02*
X117100000Y-33600000D01*
X118699999Y-33000000D02*
X120000000Y-33000000D01*
D13*
X121800000Y-27050000D02*
X121800000Y-26350000D01*
D12*
X125207900Y-31125200D02*
X125133400Y-31125200D01*
X118699999Y-31600000D02*
X118600000Y-31600000D01*
X118100000Y-31900000D02*
X117899999Y-31900000D01*
D13*
X121600000Y-25950000D02*
X121600000Y-25850000D01*
D12*
X117600000Y-32400000D02*
X117699999Y-32299999D01*
X125207900Y-31125200D02*
X121980000Y-27897300D01*
X125133400Y-31125200D02*
X123862100Y-32396500D01*
D13*
X121500000Y-25750000D02*
X121500000Y-25550000D01*
%TO.N,GND*%
D12*
X121750000Y-38000000D02*
X121750000Y-38200000D01*
X121850000Y-37800000D02*
X121850000Y-37900000D01*
D13*
X116256000Y-23528900D02*
X116256000Y-34254100D01*
D12*
X122150000Y-37200000D02*
X122150000Y-37300000D01*
X122350000Y-36800000D02*
X122250000Y-36900000D01*
X121350000Y-39000000D02*
X121250000Y-39050000D01*
X121550000Y-38600000D02*
X121450000Y-38700000D01*
X121450000Y-38700000D02*
X121450000Y-38800000D01*
X121350000Y-38900000D02*
X121350000Y-39000000D01*
X121750000Y-38200000D02*
X121650000Y-38300000D01*
X121950000Y-37600000D02*
X121950000Y-37700000D01*
X122550000Y-36300000D02*
X122550000Y-36400000D01*
X122750000Y-35800000D02*
X122750000Y-36000000D01*
X122550000Y-36400000D02*
X122450000Y-36500000D01*
X122050000Y-37400000D02*
X122050000Y-37500000D01*
X121650000Y-38300000D02*
X121650000Y-38400000D01*
X122450000Y-36600000D02*
X122350000Y-36700000D01*
X122650000Y-36200000D02*
X122550000Y-36300000D01*
X121650000Y-38400000D02*
X121550000Y-38500000D01*
X122050000Y-37500000D02*
X121950000Y-37600000D01*
X122250000Y-36900000D02*
X122250000Y-37100000D01*
D13*
X116250000Y-23522400D02*
X116256000Y-23528900D01*
D12*
X122150000Y-37300000D02*
X122050000Y-37400000D01*
X122850000Y-35700000D02*
X122750000Y-35800000D01*
X122250000Y-37100000D02*
X122150000Y-37200000D01*
X121550000Y-38500000D02*
X121550000Y-38600000D01*
X122450000Y-36500000D02*
X122450000Y-36600000D01*
X122350000Y-36700000D02*
X122350000Y-36800000D01*
X122850000Y-35550000D02*
X122850000Y-35700000D01*
X121850000Y-37900000D02*
X121750000Y-38000000D01*
X122650000Y-36100000D02*
X122650000Y-36200000D01*
X121950000Y-37700000D02*
X121850000Y-37800000D01*
X122750000Y-36000000D02*
X122650000Y-36100000D01*
X121450000Y-38800000D02*
X121350000Y-38900000D01*
%TO.N,+5V*%
D14*
X143350000Y-42850000D02*
X143350000Y-42950000D01*
D12*
X115250000Y-22810000D02*
X114750000Y-23350000D01*
D14*
X123550000Y-22950000D02*
X141050000Y-40450000D01*
X143650000Y-43650000D02*
X143750000Y-43700000D01*
X143350000Y-42950000D02*
X143450000Y-43050000D01*
X114750000Y-23350000D02*
X115150000Y-22950000D01*
X143650000Y-43450000D02*
X143650000Y-43650000D01*
X143550000Y-43350000D02*
X143650000Y-43450000D01*
X143250000Y-42550000D02*
X143250000Y-42750000D01*
X142950000Y-42050000D02*
X143050000Y-42150000D01*
X141550000Y-40550000D02*
X141650000Y-40550000D01*
X143250000Y-42750000D02*
X143350000Y-42850000D01*
X123350000Y-22850000D02*
X123450000Y-22950000D01*
X142850000Y-41750000D02*
X142850000Y-41850000D01*
X141050000Y-40450000D02*
X141450000Y-40450000D01*
X143450000Y-43050000D02*
X143450000Y-43150000D01*
X142850000Y-41850000D02*
X142950000Y-41950000D01*
X141650000Y-40550000D02*
X142850000Y-41750000D01*
X143050000Y-42250000D02*
X143150000Y-42350000D01*
X143550000Y-43250000D02*
X143550000Y-43350000D01*
X115250000Y-22950000D02*
X115350000Y-22850000D01*
X123450000Y-22950000D02*
X123550000Y-22950000D01*
X143050000Y-42150000D02*
X143050000Y-42250000D01*
X115350000Y-22850000D02*
X123350000Y-22850000D01*
X143150000Y-42450000D02*
X143250000Y-42550000D01*
X143450000Y-43150000D02*
X143550000Y-43250000D01*
D12*
X114250000Y-22810000D02*
X114750000Y-23350000D01*
D14*
X141450000Y-40450000D02*
X141550000Y-40550000D01*
X143150000Y-42350000D02*
X143150000Y-42450000D01*
X142950000Y-41950000D02*
X142950000Y-42050000D01*
X115150000Y-22950000D02*
X115250000Y-22950000D01*
%TO.N,PANEL_ID0*%
D12*
X121880000Y-23850000D02*
X121780000Y-23850000D01*
X122180000Y-43850000D02*
X122180000Y-44050000D01*
X122580000Y-43150000D02*
X122480000Y-43250000D01*
X123180000Y-30750000D02*
X123680000Y-31250000D01*
X120880000Y-24050000D02*
X120780000Y-24150000D01*
X120780000Y-24150000D02*
X120680000Y-24150000D01*
X123180000Y-29650000D02*
X123180000Y-30750000D01*
X122680000Y-42850000D02*
X122580000Y-42950000D01*
X121980000Y-23711800D02*
X121880000Y-23850000D01*
X122180000Y-44050000D02*
X122100000Y-44200000D01*
X123680000Y-31250000D02*
X123680000Y-31350000D01*
X121580000Y-24050000D02*
X120880000Y-24050000D01*
X123380000Y-41250000D02*
X123380000Y-41350000D01*
X123080000Y-42350000D02*
X122680000Y-42750000D01*
X122480000Y-43350000D02*
X122380000Y-43450000D01*
X120580000Y-24250000D02*
X120580000Y-24350000D01*
X123780000Y-32050000D02*
X123480000Y-32350000D01*
X123180000Y-41650000D02*
X123180000Y-42150000D01*
X121780000Y-23850000D02*
X121580000Y-24050000D01*
X123680000Y-31350000D02*
X123780000Y-31450000D01*
X123280000Y-41550000D02*
X123180000Y-41650000D01*
X122780000Y-29250000D02*
X122880000Y-29250000D01*
X123180000Y-42150000D02*
X123080000Y-42250000D01*
X122580000Y-42950000D02*
X122580000Y-43150000D01*
X123480000Y-41150000D02*
X123380000Y-41250000D01*
X122280000Y-43750000D02*
X122180000Y-43850000D01*
X123780000Y-31450000D02*
X123780000Y-32050000D01*
X123080000Y-29550000D02*
X123180000Y-29650000D01*
X122680000Y-42750000D02*
X122680000Y-42850000D01*
X123480000Y-32350000D02*
X123480000Y-41150000D01*
X120480000Y-24450000D02*
X120480000Y-26950000D01*
X123080000Y-29450000D02*
X123080000Y-29550000D01*
X122380000Y-43550000D02*
X122280000Y-43650000D01*
X122280000Y-43650000D02*
X122280000Y-43750000D01*
X123080000Y-42250000D02*
X123080000Y-42350000D01*
X120680000Y-24150000D02*
X120580000Y-24250000D01*
X122380000Y-43450000D02*
X122380000Y-43550000D01*
X122480000Y-43250000D02*
X122480000Y-43350000D01*
X120480000Y-26950000D02*
X122780000Y-29250000D01*
X123280000Y-41450000D02*
X123280000Y-41550000D01*
X122880000Y-29250000D02*
X123080000Y-29450000D01*
X120580000Y-24350000D02*
X120480000Y-24450000D01*
X123380000Y-41350000D02*
X123280000Y-41450000D01*
%TO.N,PANEL_ID1*%
X127800000Y-33600000D02*
X127800000Y-33700000D01*
X127699999Y-33800000D02*
X127699999Y-34400000D01*
X126399999Y-36700000D02*
X126399999Y-36800000D01*
X130700000Y-26350000D02*
X130700000Y-27050000D01*
X127899999Y-33500000D02*
X127800000Y-33600000D01*
X130700000Y-27050000D02*
X130600000Y-27150000D01*
X127000000Y-35400000D02*
X127000000Y-35500000D01*
X127000000Y-35500000D02*
X126899999Y-35600000D01*
X124199999Y-41500000D02*
X124199999Y-41600000D01*
X126899999Y-35700000D02*
X126800000Y-35800000D01*
X126699999Y-36100000D02*
X126600000Y-36200000D01*
X123600000Y-42800000D02*
X123600000Y-42900000D01*
X128000000Y-31200000D02*
X128000000Y-33299999D01*
X130500000Y-27950000D02*
X130500000Y-28150000D01*
X123199999Y-43900000D02*
X123100000Y-44000000D01*
X124500000Y-41000000D02*
X124399999Y-41099999D01*
X126399999Y-36800000D02*
X126300000Y-36900000D01*
X126500000Y-36600000D02*
X126399999Y-36700000D01*
X127800000Y-33700000D02*
X127699999Y-33800000D01*
X126199999Y-39200000D02*
X124500000Y-40900000D01*
X130500000Y-28150000D02*
X130400000Y-28300000D01*
X127100000Y-35200000D02*
X127100000Y-35300000D01*
X123800000Y-42400000D02*
X123800000Y-42500000D01*
X126199999Y-37100000D02*
X126199999Y-39200000D01*
X127199999Y-35100000D02*
X127100000Y-35200000D01*
X127100000Y-35300000D02*
X127000000Y-35400000D01*
X124500000Y-40900000D02*
X124500000Y-41000000D01*
X124000000Y-42100000D02*
X123899999Y-42200000D01*
X124000000Y-42000000D02*
X124000000Y-42100000D01*
X126300000Y-36900000D02*
X126300000Y-37000000D01*
X128800000Y-30400000D02*
X128000000Y-31200000D01*
X126300000Y-37000000D02*
X126199999Y-37100000D01*
X124300000Y-41400000D02*
X124199999Y-41500000D01*
X123699999Y-42600000D02*
X123699999Y-42700000D01*
X126600000Y-36400000D02*
X126500000Y-36500000D01*
X123800000Y-42500000D02*
X123699999Y-42600000D01*
X124399999Y-41200000D02*
X124300000Y-41300000D01*
X126800000Y-35900000D02*
X126699999Y-36000000D01*
X123600000Y-42900000D02*
X123199999Y-43300000D01*
X123199999Y-43300000D02*
X123199999Y-43900000D01*
X123899999Y-42300000D02*
X123800000Y-42400000D01*
X127199999Y-34900000D02*
X127199999Y-35100000D01*
X130401000Y-23488600D02*
X130400000Y-23550000D01*
X123699999Y-42700000D02*
X123600000Y-42800000D01*
X128000000Y-33299999D02*
X127899999Y-33400000D01*
X124100000Y-41700000D02*
X124100000Y-41900000D01*
X123899999Y-42200000D02*
X123899999Y-42300000D01*
X126500000Y-36500000D02*
X126500000Y-36600000D01*
X124399999Y-41099999D02*
X124399999Y-41200000D01*
X130900000Y-26150000D02*
X130700000Y-26350000D01*
X130600000Y-27850000D02*
X130500000Y-27950000D01*
X130600000Y-27150000D02*
X130600000Y-27850000D01*
X126600000Y-36200000D02*
X126600000Y-36400000D01*
X126899999Y-35600000D02*
X126899999Y-35700000D01*
X124100000Y-41900000D02*
X124000000Y-42000000D01*
X126699999Y-36000000D02*
X126699999Y-36100000D01*
X127699999Y-34400000D02*
X127199999Y-34900000D01*
X124199999Y-41600000D02*
X124100000Y-41700000D01*
X130400000Y-23550000D02*
X130400000Y-25200000D01*
X127899999Y-33400000D02*
X127899999Y-33500000D01*
X130900000Y-25600000D02*
X130900000Y-26150000D01*
X124300000Y-41300000D02*
X124300000Y-41400000D01*
X126800000Y-35800000D02*
X126800000Y-35900000D01*
%TO.N,LCD_INS*%
X133200000Y-28950000D02*
X133100000Y-29050000D01*
X129699999Y-45150000D02*
X129600000Y-45250000D01*
X133700000Y-27750000D02*
X133700000Y-27850000D01*
X134100000Y-25050000D02*
X134100000Y-26950000D01*
X133800000Y-27650000D02*
X133700000Y-27750000D01*
X133400000Y-28350000D02*
X133400000Y-28550000D01*
X129699999Y-45050000D02*
X129699999Y-45150000D01*
X129800000Y-44950000D02*
X129699999Y-45050000D01*
X134600000Y-23300000D02*
X134600000Y-23850000D01*
X129900000Y-44750000D02*
X129800000Y-44850000D01*
X134000000Y-27150000D02*
X133900000Y-27250000D01*
X133300000Y-28650000D02*
X133300000Y-28750000D01*
X134200000Y-24850000D02*
X134200000Y-24950000D01*
X133700000Y-27850000D02*
X133600000Y-27950000D01*
X134000000Y-27050000D02*
X134000000Y-27150000D01*
X129600000Y-45450000D02*
X129500000Y-45600000D01*
X133500000Y-28150000D02*
X133500000Y-28250000D01*
X133400000Y-28550000D02*
X133300000Y-28650000D01*
X134200000Y-24950000D02*
X134100000Y-25050000D01*
X130199999Y-40350000D02*
X130199999Y-44050000D01*
X133000000Y-29250000D02*
X133000000Y-29450000D01*
X133100000Y-29150000D02*
X133000000Y-29250000D01*
X133500000Y-28250000D02*
X133400000Y-28350000D01*
X134100000Y-26950000D02*
X134000000Y-27050000D01*
X130000000Y-44350000D02*
X130000000Y-44550000D01*
X129900000Y-44650000D02*
X129900000Y-44750000D01*
X130100000Y-44250000D02*
X130000000Y-44350000D01*
X133600000Y-28050000D02*
X133500000Y-28150000D01*
X133200000Y-28850000D02*
X133200000Y-28950000D01*
X131199999Y-39350000D02*
X130199999Y-40350000D01*
X133100000Y-29050000D02*
X133100000Y-29150000D01*
X133900000Y-27450000D02*
X133800000Y-27550000D01*
X130000000Y-44550000D02*
X129900000Y-44650000D01*
X133900000Y-27250000D02*
X133900000Y-27450000D01*
X133300000Y-28750000D02*
X133200000Y-28850000D01*
X133800000Y-27550000D02*
X133800000Y-27650000D01*
X134400000Y-24050000D02*
X134400000Y-24650000D01*
X134400000Y-24650000D02*
X134200000Y-24850000D01*
X134600000Y-23850000D02*
X134400000Y-24050000D01*
X130100000Y-44150000D02*
X130100000Y-44250000D01*
X131199999Y-31450000D02*
X131199999Y-39350000D01*
X133600000Y-27950000D02*
X133600000Y-28050000D01*
X129800000Y-44850000D02*
X129800000Y-44950000D01*
X129600000Y-45250000D02*
X129600000Y-45450000D01*
X133000000Y-29450000D02*
X132900000Y-29600000D01*
X130199999Y-44050000D02*
X130100000Y-44150000D01*
%TD*%
M02*
