%TF.GenerationSoftware,KiCad,Pcbnew,10.99.0-2191-g6e8e92d84a*%
%TF.CreationDate,2026-08-13T22:40:36+07:00*%
%TF.ProjectId,koyomi-lvds-hat,6b6f796f-6d69-42d6-9c76-64732d686174,rev?*%
%TF.SameCoordinates,Original*%
%TF.FileFunction,Legend,Top*%
%TF.FilePolarity,Positive*%
%FSLAX46Y46*%
G04 Gerber Fmt 4.6, Leading zero omitted, Abs format (unit mm)*
G04 Created by KiCad (PCBNEW 10.99.0-2191-g6e8e92d84a) date 2026-08-13 22:40:36*
%MOMM*%
%LPD*%
G01*
G04 APERTURE LIST*
%ADD10C,0.150000*%
%ADD11C,0.120000*%
%ADD12C,0.200000*%
%ADD13C,0.127000*%
%ADD14C,0.250000*%
%ADD15C,0.060000*%
G04 APERTURE END LIST*
D10*
X135904761Y-38454819D02*
X135904761Y-39169104D01*
X135904761Y-39169104D02*
X135857142Y-39311961D01*
X135857142Y-39311961D02*
X135761904Y-39407200D01*
X135761904Y-39407200D02*
X135619047Y-39454819D01*
X135619047Y-39454819D02*
X135523809Y-39454819D01*
X136714285Y-38931009D02*
X136857142Y-38978628D01*
X136857142Y-38978628D02*
X136904761Y-39026247D01*
X136904761Y-39026247D02*
X136952380Y-39121485D01*
X136952380Y-39121485D02*
X136952380Y-39264342D01*
X136952380Y-39264342D02*
X136904761Y-39359580D01*
X136904761Y-39359580D02*
X136857142Y-39407200D01*
X136857142Y-39407200D02*
X136761904Y-39454819D01*
X136761904Y-39454819D02*
X136380952Y-39454819D01*
X136380952Y-39454819D02*
X136380952Y-38454819D01*
X136380952Y-38454819D02*
X136714285Y-38454819D01*
X136714285Y-38454819D02*
X136809523Y-38502438D01*
X136809523Y-38502438D02*
X136857142Y-38550057D01*
X136857142Y-38550057D02*
X136904761Y-38645295D01*
X136904761Y-38645295D02*
X136904761Y-38740533D01*
X136904761Y-38740533D02*
X136857142Y-38835771D01*
X136857142Y-38835771D02*
X136809523Y-38883390D01*
X136809523Y-38883390D02*
X136714285Y-38931009D01*
X136714285Y-38931009D02*
X136380952Y-38931009D01*
X137857142Y-39454819D02*
X137380952Y-39454819D01*
X137380952Y-39454819D02*
X137380952Y-38454819D01*
X138714285Y-39454819D02*
X138142857Y-39454819D01*
X138428571Y-39454819D02*
X138428571Y-38454819D01*
X138428571Y-38454819D02*
X138333333Y-38597676D01*
X138333333Y-38597676D02*
X138238095Y-38692914D01*
X138238095Y-38692914D02*
X138142857Y-38740533D01*
X140238095Y-38931009D02*
X140380952Y-38978628D01*
X140380952Y-38978628D02*
X140428571Y-39026247D01*
X140428571Y-39026247D02*
X140476190Y-39121485D01*
X140476190Y-39121485D02*
X140476190Y-39264342D01*
X140476190Y-39264342D02*
X140428571Y-39359580D01*
X140428571Y-39359580D02*
X140380952Y-39407200D01*
X140380952Y-39407200D02*
X140285714Y-39454819D01*
X140285714Y-39454819D02*
X139904762Y-39454819D01*
X139904762Y-39454819D02*
X139904762Y-38454819D01*
X139904762Y-38454819D02*
X140238095Y-38454819D01*
X140238095Y-38454819D02*
X140333333Y-38502438D01*
X140333333Y-38502438D02*
X140380952Y-38550057D01*
X140380952Y-38550057D02*
X140428571Y-38645295D01*
X140428571Y-38645295D02*
X140428571Y-38740533D01*
X140428571Y-38740533D02*
X140380952Y-38835771D01*
X140380952Y-38835771D02*
X140333333Y-38883390D01*
X140333333Y-38883390D02*
X140238095Y-38931009D01*
X140238095Y-38931009D02*
X139904762Y-38931009D01*
X140857143Y-39169104D02*
X141333333Y-39169104D01*
X140761905Y-39454819D02*
X141095238Y-38454819D01*
X141095238Y-38454819D02*
X141428571Y-39454819D01*
X142333333Y-39359580D02*
X142285714Y-39407200D01*
X142285714Y-39407200D02*
X142142857Y-39454819D01*
X142142857Y-39454819D02*
X142047619Y-39454819D01*
X142047619Y-39454819D02*
X141904762Y-39407200D01*
X141904762Y-39407200D02*
X141809524Y-39311961D01*
X141809524Y-39311961D02*
X141761905Y-39216723D01*
X141761905Y-39216723D02*
X141714286Y-39026247D01*
X141714286Y-39026247D02*
X141714286Y-38883390D01*
X141714286Y-38883390D02*
X141761905Y-38692914D01*
X141761905Y-38692914D02*
X141809524Y-38597676D01*
X141809524Y-38597676D02*
X141904762Y-38502438D01*
X141904762Y-38502438D02*
X142047619Y-38454819D01*
X142047619Y-38454819D02*
X142142857Y-38454819D01*
X142142857Y-38454819D02*
X142285714Y-38502438D01*
X142285714Y-38502438D02*
X142333333Y-38550057D01*
X142761905Y-39454819D02*
X142761905Y-38454819D01*
X143333333Y-39454819D02*
X142904762Y-38883390D01*
X143333333Y-38454819D02*
X142761905Y-39026247D01*
X144238095Y-39454819D02*
X143761905Y-39454819D01*
X143761905Y-39454819D02*
X143761905Y-38454819D01*
X144571429Y-39454819D02*
X144571429Y-38454819D01*
X145571428Y-38502438D02*
X145476190Y-38454819D01*
X145476190Y-38454819D02*
X145333333Y-38454819D01*
X145333333Y-38454819D02*
X145190476Y-38502438D01*
X145190476Y-38502438D02*
X145095238Y-38597676D01*
X145095238Y-38597676D02*
X145047619Y-38692914D01*
X145047619Y-38692914D02*
X145000000Y-38883390D01*
X145000000Y-38883390D02*
X145000000Y-39026247D01*
X145000000Y-39026247D02*
X145047619Y-39216723D01*
X145047619Y-39216723D02*
X145095238Y-39311961D01*
X145095238Y-39311961D02*
X145190476Y-39407200D01*
X145190476Y-39407200D02*
X145333333Y-39454819D01*
X145333333Y-39454819D02*
X145428571Y-39454819D01*
X145428571Y-39454819D02*
X145571428Y-39407200D01*
X145571428Y-39407200D02*
X145619047Y-39359580D01*
X145619047Y-39359580D02*
X145619047Y-39026247D01*
X145619047Y-39026247D02*
X145428571Y-39026247D01*
X146047619Y-39454819D02*
X146047619Y-38454819D01*
X146047619Y-38931009D02*
X146619047Y-38931009D01*
X146619047Y-39454819D02*
X146619047Y-38454819D01*
X146952381Y-38454819D02*
X147523809Y-38454819D01*
X147238095Y-39454819D02*
X147238095Y-38454819D01*
X140023809Y-37454819D02*
X139690476Y-36978628D01*
X139452381Y-37454819D02*
X139452381Y-36454819D01*
X139452381Y-36454819D02*
X139833333Y-36454819D01*
X139833333Y-36454819D02*
X139928571Y-36502438D01*
X139928571Y-36502438D02*
X139976190Y-36550057D01*
X139976190Y-36550057D02*
X140023809Y-36645295D01*
X140023809Y-36645295D02*
X140023809Y-36788152D01*
X140023809Y-36788152D02*
X139976190Y-36883390D01*
X139976190Y-36883390D02*
X139928571Y-36931009D01*
X139928571Y-36931009D02*
X139833333Y-36978628D01*
X139833333Y-36978628D02*
X139452381Y-36978628D01*
X140404762Y-36550057D02*
X140452381Y-36502438D01*
X140452381Y-36502438D02*
X140547619Y-36454819D01*
X140547619Y-36454819D02*
X140785714Y-36454819D01*
X140785714Y-36454819D02*
X140880952Y-36502438D01*
X140880952Y-36502438D02*
X140928571Y-36550057D01*
X140928571Y-36550057D02*
X140976190Y-36645295D01*
X140976190Y-36645295D02*
X140976190Y-36740533D01*
X140976190Y-36740533D02*
X140928571Y-36883390D01*
X140928571Y-36883390D02*
X140357143Y-37454819D01*
X140357143Y-37454819D02*
X140976190Y-37454819D01*
X141404762Y-37359580D02*
X141452381Y-37407200D01*
X141452381Y-37407200D02*
X141404762Y-37454819D01*
X141404762Y-37454819D02*
X141357143Y-37407200D01*
X141357143Y-37407200D02*
X141404762Y-37359580D01*
X141404762Y-37359580D02*
X141404762Y-37454819D01*
X142309523Y-36454819D02*
X142119047Y-36454819D01*
X142119047Y-36454819D02*
X142023809Y-36502438D01*
X142023809Y-36502438D02*
X141976190Y-36550057D01*
X141976190Y-36550057D02*
X141880952Y-36692914D01*
X141880952Y-36692914D02*
X141833333Y-36883390D01*
X141833333Y-36883390D02*
X141833333Y-37264342D01*
X141833333Y-37264342D02*
X141880952Y-37359580D01*
X141880952Y-37359580D02*
X141928571Y-37407200D01*
X141928571Y-37407200D02*
X142023809Y-37454819D01*
X142023809Y-37454819D02*
X142214285Y-37454819D01*
X142214285Y-37454819D02*
X142309523Y-37407200D01*
X142309523Y-37407200D02*
X142357142Y-37359580D01*
X142357142Y-37359580D02*
X142404761Y-37264342D01*
X142404761Y-37264342D02*
X142404761Y-37026247D01*
X142404761Y-37026247D02*
X142357142Y-36931009D01*
X142357142Y-36931009D02*
X142309523Y-36883390D01*
X142309523Y-36883390D02*
X142214285Y-36835771D01*
X142214285Y-36835771D02*
X142023809Y-36835771D01*
X142023809Y-36835771D02*
X141928571Y-36883390D01*
X141928571Y-36883390D02*
X141880952Y-36931009D01*
X141880952Y-36931009D02*
X141833333Y-37026247D01*
X143595238Y-37454819D02*
X143595238Y-36454819D01*
X143595238Y-36454819D02*
X143976190Y-36454819D01*
X143976190Y-36454819D02*
X144071428Y-36502438D01*
X144071428Y-36502438D02*
X144119047Y-36550057D01*
X144119047Y-36550057D02*
X144166666Y-36645295D01*
X144166666Y-36645295D02*
X144166666Y-36788152D01*
X144166666Y-36788152D02*
X144119047Y-36883390D01*
X144119047Y-36883390D02*
X144071428Y-36931009D01*
X144071428Y-36931009D02*
X143976190Y-36978628D01*
X143976190Y-36978628D02*
X143595238Y-36978628D01*
X145166666Y-37454819D02*
X144833333Y-36978628D01*
X144595238Y-37454819D02*
X144595238Y-36454819D01*
X144595238Y-36454819D02*
X144976190Y-36454819D01*
X144976190Y-36454819D02*
X145071428Y-36502438D01*
X145071428Y-36502438D02*
X145119047Y-36550057D01*
X145119047Y-36550057D02*
X145166666Y-36645295D01*
X145166666Y-36645295D02*
X145166666Y-36788152D01*
X145166666Y-36788152D02*
X145119047Y-36883390D01*
X145119047Y-36883390D02*
X145071428Y-36931009D01*
X145071428Y-36931009D02*
X144976190Y-36978628D01*
X144976190Y-36978628D02*
X144595238Y-36978628D01*
X145785714Y-36454819D02*
X145976190Y-36454819D01*
X145976190Y-36454819D02*
X146071428Y-36502438D01*
X146071428Y-36502438D02*
X146166666Y-36597676D01*
X146166666Y-36597676D02*
X146214285Y-36788152D01*
X146214285Y-36788152D02*
X146214285Y-37121485D01*
X146214285Y-37121485D02*
X146166666Y-37311961D01*
X146166666Y-37311961D02*
X146071428Y-37407200D01*
X146071428Y-37407200D02*
X145976190Y-37454819D01*
X145976190Y-37454819D02*
X145785714Y-37454819D01*
X145785714Y-37454819D02*
X145690476Y-37407200D01*
X145690476Y-37407200D02*
X145595238Y-37311961D01*
X145595238Y-37311961D02*
X145547619Y-37121485D01*
X145547619Y-37121485D02*
X145547619Y-36788152D01*
X145547619Y-36788152D02*
X145595238Y-36597676D01*
X145595238Y-36597676D02*
X145690476Y-36502438D01*
X145690476Y-36502438D02*
X145785714Y-36454819D01*
X146642857Y-37454819D02*
X146642857Y-36454819D01*
X146642857Y-36454819D02*
X146880952Y-36454819D01*
X146880952Y-36454819D02*
X147023809Y-36502438D01*
X147023809Y-36502438D02*
X147119047Y-36597676D01*
X147119047Y-36597676D02*
X147166666Y-36692914D01*
X147166666Y-36692914D02*
X147214285Y-36883390D01*
X147214285Y-36883390D02*
X147214285Y-37026247D01*
X147214285Y-37026247D02*
X147166666Y-37216723D01*
X147166666Y-37216723D02*
X147119047Y-37311961D01*
X147119047Y-37311961D02*
X147023809Y-37407200D01*
X147023809Y-37407200D02*
X146880952Y-37454819D01*
X146880952Y-37454819D02*
X146642857Y-37454819D01*
X147642857Y-36454819D02*
X147642857Y-37264342D01*
X147642857Y-37264342D02*
X147690476Y-37359580D01*
X147690476Y-37359580D02*
X147738095Y-37407200D01*
X147738095Y-37407200D02*
X147833333Y-37454819D01*
X147833333Y-37454819D02*
X148023809Y-37454819D01*
X148023809Y-37454819D02*
X148119047Y-37407200D01*
X148119047Y-37407200D02*
X148166666Y-37359580D01*
X148166666Y-37359580D02*
X148214285Y-37264342D01*
X148214285Y-37264342D02*
X148214285Y-36454819D01*
X149261904Y-37359580D02*
X149214285Y-37407200D01*
X149214285Y-37407200D02*
X149071428Y-37454819D01*
X149071428Y-37454819D02*
X148976190Y-37454819D01*
X148976190Y-37454819D02*
X148833333Y-37407200D01*
X148833333Y-37407200D02*
X148738095Y-37311961D01*
X148738095Y-37311961D02*
X148690476Y-37216723D01*
X148690476Y-37216723D02*
X148642857Y-37026247D01*
X148642857Y-37026247D02*
X148642857Y-36883390D01*
X148642857Y-36883390D02*
X148690476Y-36692914D01*
X148690476Y-36692914D02*
X148738095Y-36597676D01*
X148738095Y-36597676D02*
X148833333Y-36502438D01*
X148833333Y-36502438D02*
X148976190Y-36454819D01*
X148976190Y-36454819D02*
X149071428Y-36454819D01*
X149071428Y-36454819D02*
X149214285Y-36502438D01*
X149214285Y-36502438D02*
X149261904Y-36550057D01*
X149547619Y-36454819D02*
X150119047Y-36454819D01*
X149833333Y-37454819D02*
X149833333Y-36454819D01*
X150452381Y-37454819D02*
X150452381Y-36454819D01*
X151119047Y-36454819D02*
X151309523Y-36454819D01*
X151309523Y-36454819D02*
X151404761Y-36502438D01*
X151404761Y-36502438D02*
X151499999Y-36597676D01*
X151499999Y-36597676D02*
X151547618Y-36788152D01*
X151547618Y-36788152D02*
X151547618Y-37121485D01*
X151547618Y-37121485D02*
X151499999Y-37311961D01*
X151499999Y-37311961D02*
X151404761Y-37407200D01*
X151404761Y-37407200D02*
X151309523Y-37454819D01*
X151309523Y-37454819D02*
X151119047Y-37454819D01*
X151119047Y-37454819D02*
X151023809Y-37407200D01*
X151023809Y-37407200D02*
X150928571Y-37311961D01*
X150928571Y-37311961D02*
X150880952Y-37121485D01*
X150880952Y-37121485D02*
X150880952Y-36788152D01*
X150880952Y-36788152D02*
X150928571Y-36597676D01*
X150928571Y-36597676D02*
X151023809Y-36502438D01*
X151023809Y-36502438D02*
X151119047Y-36454819D01*
X151976190Y-37454819D02*
X151976190Y-36454819D01*
X151976190Y-36454819D02*
X152547618Y-37454819D01*
X152547618Y-37454819D02*
X152547618Y-36454819D01*
X114053332Y-37929580D02*
X114005713Y-37977200D01*
X114005713Y-37977200D02*
X113862856Y-38024819D01*
X113862856Y-38024819D02*
X113767618Y-38024819D01*
X113767618Y-38024819D02*
X113624761Y-37977200D01*
X113624761Y-37977200D02*
X113529523Y-37881961D01*
X113529523Y-37881961D02*
X113481904Y-37786723D01*
X113481904Y-37786723D02*
X113434285Y-37596247D01*
X113434285Y-37596247D02*
X113434285Y-37453390D01*
X113434285Y-37453390D02*
X113481904Y-37262914D01*
X113481904Y-37262914D02*
X113529523Y-37167676D01*
X113529523Y-37167676D02*
X113624761Y-37072438D01*
X113624761Y-37072438D02*
X113767618Y-37024819D01*
X113767618Y-37024819D02*
X113862856Y-37024819D01*
X113862856Y-37024819D02*
X114005713Y-37072438D01*
X114005713Y-37072438D02*
X114053332Y-37120057D01*
X114434285Y-37120057D02*
X114481904Y-37072438D01*
X114481904Y-37072438D02*
X114577142Y-37024819D01*
X114577142Y-37024819D02*
X114815237Y-37024819D01*
X114815237Y-37024819D02*
X114910475Y-37072438D01*
X114910475Y-37072438D02*
X114958094Y-37120057D01*
X114958094Y-37120057D02*
X115005713Y-37215295D01*
X115005713Y-37215295D02*
X115005713Y-37310533D01*
X115005713Y-37310533D02*
X114958094Y-37453390D01*
X114958094Y-37453390D02*
X114386666Y-38024819D01*
X114386666Y-38024819D02*
X115005713Y-38024819D01*
X126353696Y-41731009D02*
X126020363Y-41731009D01*
X126020363Y-42254819D02*
X126020363Y-41254819D01*
X126020363Y-41254819D02*
X126496553Y-41254819D01*
X127353696Y-42254819D02*
X126877506Y-42254819D01*
X126877506Y-42254819D02*
X126877506Y-41254819D01*
X128210839Y-42254819D02*
X127639411Y-42254819D01*
X127925125Y-42254819D02*
X127925125Y-41254819D01*
X127925125Y-41254819D02*
X127829887Y-41397676D01*
X127829887Y-41397676D02*
X127734649Y-41492914D01*
X127734649Y-41492914D02*
X127639411Y-41540533D01*
X138309523Y-26654819D02*
X137976190Y-26178628D01*
X137738095Y-26654819D02*
X137738095Y-25654819D01*
X137738095Y-25654819D02*
X138119047Y-25654819D01*
X138119047Y-25654819D02*
X138214285Y-25702438D01*
X138214285Y-25702438D02*
X138261904Y-25750057D01*
X138261904Y-25750057D02*
X138309523Y-25845295D01*
X138309523Y-25845295D02*
X138309523Y-25988152D01*
X138309523Y-25988152D02*
X138261904Y-26083390D01*
X138261904Y-26083390D02*
X138214285Y-26131009D01*
X138214285Y-26131009D02*
X138119047Y-26178628D01*
X138119047Y-26178628D02*
X137738095Y-26178628D01*
X138738095Y-26654819D02*
X138738095Y-25654819D01*
X138738095Y-25654819D02*
X139309523Y-26654819D01*
X139309523Y-26654819D02*
X139309523Y-25654819D01*
X140214285Y-25988152D02*
X140214285Y-26654819D01*
X139976190Y-25607200D02*
X139738095Y-26321485D01*
X139738095Y-26321485D02*
X140357142Y-26321485D01*
X119333333Y-41129580D02*
X119285714Y-41177200D01*
X119285714Y-41177200D02*
X119142857Y-41224819D01*
X119142857Y-41224819D02*
X119047619Y-41224819D01*
X119047619Y-41224819D02*
X118904762Y-41177200D01*
X118904762Y-41177200D02*
X118809524Y-41081961D01*
X118809524Y-41081961D02*
X118761905Y-40986723D01*
X118761905Y-40986723D02*
X118714286Y-40796247D01*
X118714286Y-40796247D02*
X118714286Y-40653390D01*
X118714286Y-40653390D02*
X118761905Y-40462914D01*
X118761905Y-40462914D02*
X118809524Y-40367676D01*
X118809524Y-40367676D02*
X118904762Y-40272438D01*
X118904762Y-40272438D02*
X119047619Y-40224819D01*
X119047619Y-40224819D02*
X119142857Y-40224819D01*
X119142857Y-40224819D02*
X119285714Y-40272438D01*
X119285714Y-40272438D02*
X119333333Y-40320057D01*
X120190476Y-40224819D02*
X120000000Y-40224819D01*
X120000000Y-40224819D02*
X119904762Y-40272438D01*
X119904762Y-40272438D02*
X119857143Y-40320057D01*
X119857143Y-40320057D02*
X119761905Y-40462914D01*
X119761905Y-40462914D02*
X119714286Y-40653390D01*
X119714286Y-40653390D02*
X119714286Y-41034342D01*
X119714286Y-41034342D02*
X119761905Y-41129580D01*
X119761905Y-41129580D02*
X119809524Y-41177200D01*
X119809524Y-41177200D02*
X119904762Y-41224819D01*
X119904762Y-41224819D02*
X120095238Y-41224819D01*
X120095238Y-41224819D02*
X120190476Y-41177200D01*
X120190476Y-41177200D02*
X120238095Y-41129580D01*
X120238095Y-41129580D02*
X120285714Y-41034342D01*
X120285714Y-41034342D02*
X120285714Y-40796247D01*
X120285714Y-40796247D02*
X120238095Y-40701009D01*
X120238095Y-40701009D02*
X120190476Y-40653390D01*
X120190476Y-40653390D02*
X120095238Y-40605771D01*
X120095238Y-40605771D02*
X119904762Y-40605771D01*
X119904762Y-40605771D02*
X119809524Y-40653390D01*
X119809524Y-40653390D02*
X119761905Y-40701009D01*
X119761905Y-40701009D02*
X119714286Y-40796247D01*
X142309523Y-26654819D02*
X141976190Y-26178628D01*
X141738095Y-26654819D02*
X141738095Y-25654819D01*
X141738095Y-25654819D02*
X142119047Y-25654819D01*
X142119047Y-25654819D02*
X142214285Y-25702438D01*
X142214285Y-25702438D02*
X142261904Y-25750057D01*
X142261904Y-25750057D02*
X142309523Y-25845295D01*
X142309523Y-25845295D02*
X142309523Y-25988152D01*
X142309523Y-25988152D02*
X142261904Y-26083390D01*
X142261904Y-26083390D02*
X142214285Y-26131009D01*
X142214285Y-26131009D02*
X142119047Y-26178628D01*
X142119047Y-26178628D02*
X141738095Y-26178628D01*
X142738095Y-26654819D02*
X142738095Y-25654819D01*
X142738095Y-25654819D02*
X143309523Y-26654819D01*
X143309523Y-26654819D02*
X143309523Y-25654819D01*
X144261904Y-25654819D02*
X143785714Y-25654819D01*
X143785714Y-25654819D02*
X143738095Y-26131009D01*
X143738095Y-26131009D02*
X143785714Y-26083390D01*
X143785714Y-26083390D02*
X143880952Y-26035771D01*
X143880952Y-26035771D02*
X144119047Y-26035771D01*
X144119047Y-26035771D02*
X144214285Y-26083390D01*
X144214285Y-26083390D02*
X144261904Y-26131009D01*
X144261904Y-26131009D02*
X144309523Y-26226247D01*
X144309523Y-26226247D02*
X144309523Y-26464342D01*
X144309523Y-26464342D02*
X144261904Y-26559580D01*
X144261904Y-26559580D02*
X144214285Y-26607200D01*
X144214285Y-26607200D02*
X144119047Y-26654819D01*
X144119047Y-26654819D02*
X143880952Y-26654819D01*
X143880952Y-26654819D02*
X143785714Y-26607200D01*
X143785714Y-26607200D02*
X143738095Y-26559580D01*
X146354819Y-35833333D02*
X147069104Y-35833333D01*
X147069104Y-35833333D02*
X147211961Y-35880952D01*
X147211961Y-35880952D02*
X147307200Y-35976190D01*
X147307200Y-35976190D02*
X147354819Y-36119047D01*
X147354819Y-36119047D02*
X147354819Y-36214285D01*
X147354819Y-35357142D02*
X146354819Y-35357142D01*
X146354819Y-35357142D02*
X146354819Y-34976190D01*
X146354819Y-34976190D02*
X146402438Y-34880952D01*
X146402438Y-34880952D02*
X146450057Y-34833333D01*
X146450057Y-34833333D02*
X146545295Y-34785714D01*
X146545295Y-34785714D02*
X146688152Y-34785714D01*
X146688152Y-34785714D02*
X146783390Y-34833333D01*
X146783390Y-34833333D02*
X146831009Y-34880952D01*
X146831009Y-34880952D02*
X146878628Y-34976190D01*
X146878628Y-34976190D02*
X146878628Y-35357142D01*
X147354819Y-33833333D02*
X147354819Y-34404761D01*
X147354819Y-34119047D02*
X146354819Y-34119047D01*
X146354819Y-34119047D02*
X146497676Y-34214285D01*
X146497676Y-34214285D02*
X146592914Y-34309523D01*
X146592914Y-34309523D02*
X146640533Y-34404761D01*
X117041666Y-42869819D02*
X117041666Y-43584104D01*
X117041666Y-43584104D02*
X116994047Y-43726961D01*
X116994047Y-43726961D02*
X116898809Y-43822200D01*
X116898809Y-43822200D02*
X116755952Y-43869819D01*
X116755952Y-43869819D02*
X116660714Y-43869819D01*
X117470238Y-42965057D02*
X117517857Y-42917438D01*
X117517857Y-42917438D02*
X117613095Y-42869819D01*
X117613095Y-42869819D02*
X117851190Y-42869819D01*
X117851190Y-42869819D02*
X117946428Y-42917438D01*
X117946428Y-42917438D02*
X117994047Y-42965057D01*
X117994047Y-42965057D02*
X118041666Y-43060295D01*
X118041666Y-43060295D02*
X118041666Y-43155533D01*
X118041666Y-43155533D02*
X117994047Y-43298390D01*
X117994047Y-43298390D02*
X117422619Y-43869819D01*
X117422619Y-43869819D02*
X118041666Y-43869819D01*
X115833333Y-41129580D02*
X115785714Y-41177200D01*
X115785714Y-41177200D02*
X115642857Y-41224819D01*
X115642857Y-41224819D02*
X115547619Y-41224819D01*
X115547619Y-41224819D02*
X115404762Y-41177200D01*
X115404762Y-41177200D02*
X115309524Y-41081961D01*
X115309524Y-41081961D02*
X115261905Y-40986723D01*
X115261905Y-40986723D02*
X115214286Y-40796247D01*
X115214286Y-40796247D02*
X115214286Y-40653390D01*
X115214286Y-40653390D02*
X115261905Y-40462914D01*
X115261905Y-40462914D02*
X115309524Y-40367676D01*
X115309524Y-40367676D02*
X115404762Y-40272438D01*
X115404762Y-40272438D02*
X115547619Y-40224819D01*
X115547619Y-40224819D02*
X115642857Y-40224819D01*
X115642857Y-40224819D02*
X115785714Y-40272438D01*
X115785714Y-40272438D02*
X115833333Y-40320057D01*
X116738095Y-40224819D02*
X116261905Y-40224819D01*
X116261905Y-40224819D02*
X116214286Y-40701009D01*
X116214286Y-40701009D02*
X116261905Y-40653390D01*
X116261905Y-40653390D02*
X116357143Y-40605771D01*
X116357143Y-40605771D02*
X116595238Y-40605771D01*
X116595238Y-40605771D02*
X116690476Y-40653390D01*
X116690476Y-40653390D02*
X116738095Y-40701009D01*
X116738095Y-40701009D02*
X116785714Y-40796247D01*
X116785714Y-40796247D02*
X116785714Y-41034342D01*
X116785714Y-41034342D02*
X116738095Y-41129580D01*
X116738095Y-41129580D02*
X116690476Y-41177200D01*
X116690476Y-41177200D02*
X116595238Y-41224819D01*
X116595238Y-41224819D02*
X116357143Y-41224819D01*
X116357143Y-41224819D02*
X116261905Y-41177200D01*
X116261905Y-41177200D02*
X116214286Y-41129580D01*
X114053332Y-41129580D02*
X114005713Y-41177200D01*
X114005713Y-41177200D02*
X113862856Y-41224819D01*
X113862856Y-41224819D02*
X113767618Y-41224819D01*
X113767618Y-41224819D02*
X113624761Y-41177200D01*
X113624761Y-41177200D02*
X113529523Y-41081961D01*
X113529523Y-41081961D02*
X113481904Y-40986723D01*
X113481904Y-40986723D02*
X113434285Y-40796247D01*
X113434285Y-40796247D02*
X113434285Y-40653390D01*
X113434285Y-40653390D02*
X113481904Y-40462914D01*
X113481904Y-40462914D02*
X113529523Y-40367676D01*
X113529523Y-40367676D02*
X113624761Y-40272438D01*
X113624761Y-40272438D02*
X113767618Y-40224819D01*
X113767618Y-40224819D02*
X113862856Y-40224819D01*
X113862856Y-40224819D02*
X114005713Y-40272438D01*
X114005713Y-40272438D02*
X114053332Y-40320057D01*
X114386666Y-40224819D02*
X115005713Y-40224819D01*
X115005713Y-40224819D02*
X114672380Y-40605771D01*
X114672380Y-40605771D02*
X114815237Y-40605771D01*
X114815237Y-40605771D02*
X114910475Y-40653390D01*
X114910475Y-40653390D02*
X114958094Y-40701009D01*
X114958094Y-40701009D02*
X115005713Y-40796247D01*
X115005713Y-40796247D02*
X115005713Y-41034342D01*
X115005713Y-41034342D02*
X114958094Y-41129580D01*
X114958094Y-41129580D02*
X114910475Y-41177200D01*
X114910475Y-41177200D02*
X114815237Y-41224819D01*
X114815237Y-41224819D02*
X114529523Y-41224819D01*
X114529523Y-41224819D02*
X114434285Y-41177200D01*
X114434285Y-41177200D02*
X114386666Y-41129580D01*
X99459580Y-42166666D02*
X99507200Y-42214285D01*
X99507200Y-42214285D02*
X99554819Y-42357142D01*
X99554819Y-42357142D02*
X99554819Y-42452380D01*
X99554819Y-42452380D02*
X99507200Y-42595237D01*
X99507200Y-42595237D02*
X99411961Y-42690475D01*
X99411961Y-42690475D02*
X99316723Y-42738094D01*
X99316723Y-42738094D02*
X99126247Y-42785713D01*
X99126247Y-42785713D02*
X98983390Y-42785713D01*
X98983390Y-42785713D02*
X98792914Y-42738094D01*
X98792914Y-42738094D02*
X98697676Y-42690475D01*
X98697676Y-42690475D02*
X98602438Y-42595237D01*
X98602438Y-42595237D02*
X98554819Y-42452380D01*
X98554819Y-42452380D02*
X98554819Y-42357142D01*
X98554819Y-42357142D02*
X98602438Y-42214285D01*
X98602438Y-42214285D02*
X98650057Y-42166666D01*
X98554819Y-41833332D02*
X98554819Y-41166666D01*
X98554819Y-41166666D02*
X99554819Y-41595237D01*
X107309523Y-26654819D02*
X106976190Y-26178628D01*
X106738095Y-26654819D02*
X106738095Y-25654819D01*
X106738095Y-25654819D02*
X107119047Y-25654819D01*
X107119047Y-25654819D02*
X107214285Y-25702438D01*
X107214285Y-25702438D02*
X107261904Y-25750057D01*
X107261904Y-25750057D02*
X107309523Y-25845295D01*
X107309523Y-25845295D02*
X107309523Y-25988152D01*
X107309523Y-25988152D02*
X107261904Y-26083390D01*
X107261904Y-26083390D02*
X107214285Y-26131009D01*
X107214285Y-26131009D02*
X107119047Y-26178628D01*
X107119047Y-26178628D02*
X106738095Y-26178628D01*
X107738095Y-26654819D02*
X107738095Y-25654819D01*
X107738095Y-25654819D02*
X108309523Y-26654819D01*
X108309523Y-26654819D02*
X108309523Y-25654819D01*
X108690476Y-25654819D02*
X109309523Y-25654819D01*
X109309523Y-25654819D02*
X108976190Y-26035771D01*
X108976190Y-26035771D02*
X109119047Y-26035771D01*
X109119047Y-26035771D02*
X109214285Y-26083390D01*
X109214285Y-26083390D02*
X109261904Y-26131009D01*
X109261904Y-26131009D02*
X109309523Y-26226247D01*
X109309523Y-26226247D02*
X109309523Y-26464342D01*
X109309523Y-26464342D02*
X109261904Y-26559580D01*
X109261904Y-26559580D02*
X109214285Y-26607200D01*
X109214285Y-26607200D02*
X109119047Y-26654819D01*
X109119047Y-26654819D02*
X108833333Y-26654819D01*
X108833333Y-26654819D02*
X108738095Y-26607200D01*
X108738095Y-26607200D02*
X108690476Y-26559580D01*
X109954819Y-38761904D02*
X110764342Y-38761904D01*
X110764342Y-38761904D02*
X110859580Y-38714285D01*
X110859580Y-38714285D02*
X110907200Y-38666666D01*
X110907200Y-38666666D02*
X110954819Y-38571428D01*
X110954819Y-38571428D02*
X110954819Y-38380952D01*
X110954819Y-38380952D02*
X110907200Y-38285714D01*
X110907200Y-38285714D02*
X110859580Y-38238095D01*
X110859580Y-38238095D02*
X110764342Y-38190476D01*
X110764342Y-38190476D02*
X109954819Y-38190476D01*
X110954819Y-37190476D02*
X110954819Y-37761904D01*
X110954819Y-37476190D02*
X109954819Y-37476190D01*
X109954819Y-37476190D02*
X110097676Y-37571428D01*
X110097676Y-37571428D02*
X110192914Y-37666666D01*
X110192914Y-37666666D02*
X110240533Y-37761904D01*
X99309523Y-26654819D02*
X98976190Y-26178628D01*
X98738095Y-26654819D02*
X98738095Y-25654819D01*
X98738095Y-25654819D02*
X99119047Y-25654819D01*
X99119047Y-25654819D02*
X99214285Y-25702438D01*
X99214285Y-25702438D02*
X99261904Y-25750057D01*
X99261904Y-25750057D02*
X99309523Y-25845295D01*
X99309523Y-25845295D02*
X99309523Y-25988152D01*
X99309523Y-25988152D02*
X99261904Y-26083390D01*
X99261904Y-26083390D02*
X99214285Y-26131009D01*
X99214285Y-26131009D02*
X99119047Y-26178628D01*
X99119047Y-26178628D02*
X98738095Y-26178628D01*
X99738095Y-26654819D02*
X99738095Y-25654819D01*
X99738095Y-25654819D02*
X100309523Y-26654819D01*
X100309523Y-26654819D02*
X100309523Y-25654819D01*
X101309523Y-26654819D02*
X100738095Y-26654819D01*
X101023809Y-26654819D02*
X101023809Y-25654819D01*
X101023809Y-25654819D02*
X100928571Y-25797676D01*
X100928571Y-25797676D02*
X100833333Y-25892914D01*
X100833333Y-25892914D02*
X100738095Y-25940533D01*
X123553696Y-41731009D02*
X123220363Y-41731009D01*
X123220363Y-42254819D02*
X123220363Y-41254819D01*
X123220363Y-41254819D02*
X123696553Y-41254819D01*
X124553696Y-42254819D02*
X124077506Y-42254819D01*
X124077506Y-42254819D02*
X124077506Y-41254819D01*
X124839411Y-41350057D02*
X124887030Y-41302438D01*
X124887030Y-41302438D02*
X124982268Y-41254819D01*
X124982268Y-41254819D02*
X125220363Y-41254819D01*
X125220363Y-41254819D02*
X125315601Y-41302438D01*
X125315601Y-41302438D02*
X125363220Y-41350057D01*
X125363220Y-41350057D02*
X125410839Y-41445295D01*
X125410839Y-41445295D02*
X125410839Y-41540533D01*
X125410839Y-41540533D02*
X125363220Y-41683390D01*
X125363220Y-41683390D02*
X124791792Y-42254819D01*
X124791792Y-42254819D02*
X125410839Y-42254819D01*
X131754819Y-37276189D02*
X130754819Y-37276189D01*
X131659580Y-36228571D02*
X131707200Y-36276190D01*
X131707200Y-36276190D02*
X131754819Y-36419047D01*
X131754819Y-36419047D02*
X131754819Y-36514285D01*
X131754819Y-36514285D02*
X131707200Y-36657142D01*
X131707200Y-36657142D02*
X131611961Y-36752380D01*
X131611961Y-36752380D02*
X131516723Y-36799999D01*
X131516723Y-36799999D02*
X131326247Y-36847618D01*
X131326247Y-36847618D02*
X131183390Y-36847618D01*
X131183390Y-36847618D02*
X130992914Y-36799999D01*
X130992914Y-36799999D02*
X130897676Y-36752380D01*
X130897676Y-36752380D02*
X130802438Y-36657142D01*
X130802438Y-36657142D02*
X130754819Y-36514285D01*
X130754819Y-36514285D02*
X130754819Y-36419047D01*
X130754819Y-36419047D02*
X130802438Y-36276190D01*
X130802438Y-36276190D02*
X130850057Y-36228571D01*
X131754819Y-35276190D02*
X131754819Y-35847618D01*
X131754819Y-35561904D02*
X130754819Y-35561904D01*
X130754819Y-35561904D02*
X130897676Y-35657142D01*
X130897676Y-35657142D02*
X130992914Y-35752380D01*
X130992914Y-35752380D02*
X131040533Y-35847618D01*
X103309523Y-26654819D02*
X102976190Y-26178628D01*
X102738095Y-26654819D02*
X102738095Y-25654819D01*
X102738095Y-25654819D02*
X103119047Y-25654819D01*
X103119047Y-25654819D02*
X103214285Y-25702438D01*
X103214285Y-25702438D02*
X103261904Y-25750057D01*
X103261904Y-25750057D02*
X103309523Y-25845295D01*
X103309523Y-25845295D02*
X103309523Y-25988152D01*
X103309523Y-25988152D02*
X103261904Y-26083390D01*
X103261904Y-26083390D02*
X103214285Y-26131009D01*
X103214285Y-26131009D02*
X103119047Y-26178628D01*
X103119047Y-26178628D02*
X102738095Y-26178628D01*
X103738095Y-26654819D02*
X103738095Y-25654819D01*
X103738095Y-25654819D02*
X104309523Y-26654819D01*
X104309523Y-26654819D02*
X104309523Y-25654819D01*
X104738095Y-25750057D02*
X104785714Y-25702438D01*
X104785714Y-25702438D02*
X104880952Y-25654819D01*
X104880952Y-25654819D02*
X105119047Y-25654819D01*
X105119047Y-25654819D02*
X105214285Y-25702438D01*
X105214285Y-25702438D02*
X105261904Y-25750057D01*
X105261904Y-25750057D02*
X105309523Y-25845295D01*
X105309523Y-25845295D02*
X105309523Y-25940533D01*
X105309523Y-25940533D02*
X105261904Y-26083390D01*
X105261904Y-26083390D02*
X104690476Y-26654819D01*
X104690476Y-26654819D02*
X105309523Y-26654819D01*
X146309523Y-26654819D02*
X145976190Y-26178628D01*
X145738095Y-26654819D02*
X145738095Y-25654819D01*
X145738095Y-25654819D02*
X146119047Y-25654819D01*
X146119047Y-25654819D02*
X146214285Y-25702438D01*
X146214285Y-25702438D02*
X146261904Y-25750057D01*
X146261904Y-25750057D02*
X146309523Y-25845295D01*
X146309523Y-25845295D02*
X146309523Y-25988152D01*
X146309523Y-25988152D02*
X146261904Y-26083390D01*
X146261904Y-26083390D02*
X146214285Y-26131009D01*
X146214285Y-26131009D02*
X146119047Y-26178628D01*
X146119047Y-26178628D02*
X145738095Y-26178628D01*
X146738095Y-26654819D02*
X146738095Y-25654819D01*
X146738095Y-25654819D02*
X147309523Y-26654819D01*
X147309523Y-26654819D02*
X147309523Y-25654819D01*
X148214285Y-25654819D02*
X148023809Y-25654819D01*
X148023809Y-25654819D02*
X147928571Y-25702438D01*
X147928571Y-25702438D02*
X147880952Y-25750057D01*
X147880952Y-25750057D02*
X147785714Y-25892914D01*
X147785714Y-25892914D02*
X147738095Y-26083390D01*
X147738095Y-26083390D02*
X147738095Y-26464342D01*
X147738095Y-26464342D02*
X147785714Y-26559580D01*
X147785714Y-26559580D02*
X147833333Y-26607200D01*
X147833333Y-26607200D02*
X147928571Y-26654819D01*
X147928571Y-26654819D02*
X148119047Y-26654819D01*
X148119047Y-26654819D02*
X148214285Y-26607200D01*
X148214285Y-26607200D02*
X148261904Y-26559580D01*
X148261904Y-26559580D02*
X148309523Y-26464342D01*
X148309523Y-26464342D02*
X148309523Y-26226247D01*
X148309523Y-26226247D02*
X148261904Y-26131009D01*
X148261904Y-26131009D02*
X148214285Y-26083390D01*
X148214285Y-26083390D02*
X148119047Y-26035771D01*
X148119047Y-26035771D02*
X147928571Y-26035771D01*
X147928571Y-26035771D02*
X147833333Y-26083390D01*
X147833333Y-26083390D02*
X147785714Y-26131009D01*
X147785714Y-26131009D02*
X147738095Y-26226247D01*
X106333333Y-43929580D02*
X106285714Y-43977200D01*
X106285714Y-43977200D02*
X106142857Y-44024819D01*
X106142857Y-44024819D02*
X106047619Y-44024819D01*
X106047619Y-44024819D02*
X105904762Y-43977200D01*
X105904762Y-43977200D02*
X105809524Y-43881961D01*
X105809524Y-43881961D02*
X105761905Y-43786723D01*
X105761905Y-43786723D02*
X105714286Y-43596247D01*
X105714286Y-43596247D02*
X105714286Y-43453390D01*
X105714286Y-43453390D02*
X105761905Y-43262914D01*
X105761905Y-43262914D02*
X105809524Y-43167676D01*
X105809524Y-43167676D02*
X105904762Y-43072438D01*
X105904762Y-43072438D02*
X106047619Y-43024819D01*
X106047619Y-43024819D02*
X106142857Y-43024819D01*
X106142857Y-43024819D02*
X106285714Y-43072438D01*
X106285714Y-43072438D02*
X106333333Y-43120057D01*
X106904762Y-43453390D02*
X106809524Y-43405771D01*
X106809524Y-43405771D02*
X106761905Y-43358152D01*
X106761905Y-43358152D02*
X106714286Y-43262914D01*
X106714286Y-43262914D02*
X106714286Y-43215295D01*
X106714286Y-43215295D02*
X106761905Y-43120057D01*
X106761905Y-43120057D02*
X106809524Y-43072438D01*
X106809524Y-43072438D02*
X106904762Y-43024819D01*
X106904762Y-43024819D02*
X107095238Y-43024819D01*
X107095238Y-43024819D02*
X107190476Y-43072438D01*
X107190476Y-43072438D02*
X107238095Y-43120057D01*
X107238095Y-43120057D02*
X107285714Y-43215295D01*
X107285714Y-43215295D02*
X107285714Y-43262914D01*
X107285714Y-43262914D02*
X107238095Y-43358152D01*
X107238095Y-43358152D02*
X107190476Y-43405771D01*
X107190476Y-43405771D02*
X107095238Y-43453390D01*
X107095238Y-43453390D02*
X106904762Y-43453390D01*
X106904762Y-43453390D02*
X106809524Y-43501009D01*
X106809524Y-43501009D02*
X106761905Y-43548628D01*
X106761905Y-43548628D02*
X106714286Y-43643866D01*
X106714286Y-43643866D02*
X106714286Y-43834342D01*
X106714286Y-43834342D02*
X106761905Y-43929580D01*
X106761905Y-43929580D02*
X106809524Y-43977200D01*
X106809524Y-43977200D02*
X106904762Y-44024819D01*
X106904762Y-44024819D02*
X107095238Y-44024819D01*
X107095238Y-44024819D02*
X107190476Y-43977200D01*
X107190476Y-43977200D02*
X107238095Y-43929580D01*
X107238095Y-43929580D02*
X107285714Y-43834342D01*
X107285714Y-43834342D02*
X107285714Y-43643866D01*
X107285714Y-43643866D02*
X107238095Y-43548628D01*
X107238095Y-43548628D02*
X107190476Y-43501009D01*
X107190476Y-43501009D02*
X107095238Y-43453390D01*
X121809523Y-30104819D02*
X121809523Y-30819104D01*
X121809523Y-30819104D02*
X121761904Y-30961961D01*
X121761904Y-30961961D02*
X121666666Y-31057200D01*
X121666666Y-31057200D02*
X121523809Y-31104819D01*
X121523809Y-31104819D02*
X121428571Y-31104819D01*
X122619047Y-30581009D02*
X122285714Y-30581009D01*
X122285714Y-31104819D02*
X122285714Y-30104819D01*
X122285714Y-30104819D02*
X122761904Y-30104819D01*
X123476190Y-30581009D02*
X123142857Y-30581009D01*
X123142857Y-31104819D02*
X123142857Y-30104819D01*
X123142857Y-30104819D02*
X123619047Y-30104819D01*
X124571428Y-31009580D02*
X124523809Y-31057200D01*
X124523809Y-31057200D02*
X124380952Y-31104819D01*
X124380952Y-31104819D02*
X124285714Y-31104819D01*
X124285714Y-31104819D02*
X124142857Y-31057200D01*
X124142857Y-31057200D02*
X124047619Y-30961961D01*
X124047619Y-30961961D02*
X124000000Y-30866723D01*
X124000000Y-30866723D02*
X123952381Y-30676247D01*
X123952381Y-30676247D02*
X123952381Y-30533390D01*
X123952381Y-30533390D02*
X124000000Y-30342914D01*
X124000000Y-30342914D02*
X124047619Y-30247676D01*
X124047619Y-30247676D02*
X124142857Y-30152438D01*
X124142857Y-30152438D02*
X124285714Y-30104819D01*
X124285714Y-30104819D02*
X124380952Y-30104819D01*
X124380952Y-30104819D02*
X124523809Y-30152438D01*
X124523809Y-30152438D02*
X124571428Y-30200057D01*
X125523809Y-31104819D02*
X124952381Y-31104819D01*
X125238095Y-31104819D02*
X125238095Y-30104819D01*
X125238095Y-30104819D02*
X125142857Y-30247676D01*
X125142857Y-30247676D02*
X125047619Y-30342914D01*
X125047619Y-30342914D02*
X124952381Y-30390533D01*
X150354819Y-35833333D02*
X151069104Y-35833333D01*
X151069104Y-35833333D02*
X151211961Y-35880952D01*
X151211961Y-35880952D02*
X151307200Y-35976190D01*
X151307200Y-35976190D02*
X151354819Y-36119047D01*
X151354819Y-36119047D02*
X151354819Y-36214285D01*
X151354819Y-35357142D02*
X150354819Y-35357142D01*
X150354819Y-35357142D02*
X150354819Y-34976190D01*
X150354819Y-34976190D02*
X150402438Y-34880952D01*
X150402438Y-34880952D02*
X150450057Y-34833333D01*
X150450057Y-34833333D02*
X150545295Y-34785714D01*
X150545295Y-34785714D02*
X150688152Y-34785714D01*
X150688152Y-34785714D02*
X150783390Y-34833333D01*
X150783390Y-34833333D02*
X150831009Y-34880952D01*
X150831009Y-34880952D02*
X150878628Y-34976190D01*
X150878628Y-34976190D02*
X150878628Y-35357142D01*
X150450057Y-34404761D02*
X150402438Y-34357142D01*
X150402438Y-34357142D02*
X150354819Y-34261904D01*
X150354819Y-34261904D02*
X150354819Y-34023809D01*
X150354819Y-34023809D02*
X150402438Y-33928571D01*
X150402438Y-33928571D02*
X150450057Y-33880952D01*
X150450057Y-33880952D02*
X150545295Y-33833333D01*
X150545295Y-33833333D02*
X150640533Y-33833333D01*
X150640533Y-33833333D02*
X150783390Y-33880952D01*
X150783390Y-33880952D02*
X151354819Y-34452380D01*
X151354819Y-34452380D02*
X151354819Y-33833333D01*
X114053332Y-34729580D02*
X114005713Y-34777200D01*
X114005713Y-34777200D02*
X113862856Y-34824819D01*
X113862856Y-34824819D02*
X113767618Y-34824819D01*
X113767618Y-34824819D02*
X113624761Y-34777200D01*
X113624761Y-34777200D02*
X113529523Y-34681961D01*
X113529523Y-34681961D02*
X113481904Y-34586723D01*
X113481904Y-34586723D02*
X113434285Y-34396247D01*
X113434285Y-34396247D02*
X113434285Y-34253390D01*
X113434285Y-34253390D02*
X113481904Y-34062914D01*
X113481904Y-34062914D02*
X113529523Y-33967676D01*
X113529523Y-33967676D02*
X113624761Y-33872438D01*
X113624761Y-33872438D02*
X113767618Y-33824819D01*
X113767618Y-33824819D02*
X113862856Y-33824819D01*
X113862856Y-33824819D02*
X114005713Y-33872438D01*
X114005713Y-33872438D02*
X114053332Y-33920057D01*
X115005713Y-34824819D02*
X114434285Y-34824819D01*
X114719999Y-34824819D02*
X114719999Y-33824819D01*
X114719999Y-33824819D02*
X114624761Y-33967676D01*
X114624761Y-33967676D02*
X114529523Y-34062914D01*
X114529523Y-34062914D02*
X114434285Y-34110533D01*
X101384819Y-34166666D02*
X100908628Y-34499999D01*
X101384819Y-34738094D02*
X100384819Y-34738094D01*
X100384819Y-34738094D02*
X100384819Y-34357142D01*
X100384819Y-34357142D02*
X100432438Y-34261904D01*
X100432438Y-34261904D02*
X100480057Y-34214285D01*
X100480057Y-34214285D02*
X100575295Y-34166666D01*
X100575295Y-34166666D02*
X100718152Y-34166666D01*
X100718152Y-34166666D02*
X100813390Y-34214285D01*
X100813390Y-34214285D02*
X100861009Y-34261904D01*
X100861009Y-34261904D02*
X100908628Y-34357142D01*
X100908628Y-34357142D02*
X100908628Y-34738094D01*
X101384819Y-33214285D02*
X101384819Y-33785713D01*
X101384819Y-33499999D02*
X100384819Y-33499999D01*
X100384819Y-33499999D02*
X100527676Y-33595237D01*
X100527676Y-33595237D02*
X100622914Y-33690475D01*
X100622914Y-33690475D02*
X100670533Y-33785713D01*
X112333333Y-41129580D02*
X112285714Y-41177200D01*
X112285714Y-41177200D02*
X112142857Y-41224819D01*
X112142857Y-41224819D02*
X112047619Y-41224819D01*
X112047619Y-41224819D02*
X111904762Y-41177200D01*
X111904762Y-41177200D02*
X111809524Y-41081961D01*
X111809524Y-41081961D02*
X111761905Y-40986723D01*
X111761905Y-40986723D02*
X111714286Y-40796247D01*
X111714286Y-40796247D02*
X111714286Y-40653390D01*
X111714286Y-40653390D02*
X111761905Y-40462914D01*
X111761905Y-40462914D02*
X111809524Y-40367676D01*
X111809524Y-40367676D02*
X111904762Y-40272438D01*
X111904762Y-40272438D02*
X112047619Y-40224819D01*
X112047619Y-40224819D02*
X112142857Y-40224819D01*
X112142857Y-40224819D02*
X112285714Y-40272438D01*
X112285714Y-40272438D02*
X112333333Y-40320057D01*
X113190476Y-40558152D02*
X113190476Y-41224819D01*
X112952381Y-40177200D02*
X112714286Y-40891485D01*
X112714286Y-40891485D02*
X113333333Y-40891485D01*
X101384819Y-37666666D02*
X100908628Y-37999999D01*
X101384819Y-38238094D02*
X100384819Y-38238094D01*
X100384819Y-38238094D02*
X100384819Y-37857142D01*
X100384819Y-37857142D02*
X100432438Y-37761904D01*
X100432438Y-37761904D02*
X100480057Y-37714285D01*
X100480057Y-37714285D02*
X100575295Y-37666666D01*
X100575295Y-37666666D02*
X100718152Y-37666666D01*
X100718152Y-37666666D02*
X100813390Y-37714285D01*
X100813390Y-37714285D02*
X100861009Y-37761904D01*
X100861009Y-37761904D02*
X100908628Y-37857142D01*
X100908628Y-37857142D02*
X100908628Y-38238094D01*
X100480057Y-37285713D02*
X100432438Y-37238094D01*
X100432438Y-37238094D02*
X100384819Y-37142856D01*
X100384819Y-37142856D02*
X100384819Y-36904761D01*
X100384819Y-36904761D02*
X100432438Y-36809523D01*
X100432438Y-36809523D02*
X100480057Y-36761904D01*
X100480057Y-36761904D02*
X100575295Y-36714285D01*
X100575295Y-36714285D02*
X100670533Y-36714285D01*
X100670533Y-36714285D02*
X100813390Y-36761904D01*
X100813390Y-36761904D02*
X101384819Y-37333332D01*
X101384819Y-37333332D02*
X101384819Y-36714285D01*
%TO.C,C2*%
D11*
X114053733Y-36710000D02*
X114346266Y-36710000D01*
X114053734Y-35690000D02*
X114346267Y-35690000D01*
%TO.C,FL1*%
D12*
X127475000Y-42775000D02*
X127475000Y-44275000D01*
X129724900Y-42775000D02*
X129724900Y-44275000D01*
%TO.C,JBL1*%
D11*
X137350000Y-42700000D02*
X137350000Y-44040000D01*
X137350000Y-46760000D02*
X137350000Y-48500000D01*
X137350000Y-48500000D02*
X146650000Y-48500000D01*
X138840000Y-42700000D02*
X137350000Y-42700000D01*
X138840000Y-42700000D02*
X138840000Y-41500000D01*
X145160000Y-42700000D02*
X146650000Y-42700000D01*
X146650000Y-42700000D02*
X146650000Y-44040000D01*
X146650000Y-48500000D02*
X146650000Y-46760000D01*
%TO.C,RN4*%
X139500000Y-27320000D02*
X138500000Y-27320000D01*
X139500000Y-30680000D02*
X138500000Y-30680000D01*
%TO.C,C6*%
X119353733Y-42710000D02*
X119646266Y-42710000D01*
X119353734Y-41690000D02*
X119646267Y-41690000D01*
%TO.C,RN5*%
X143500000Y-27320000D02*
X142500000Y-27320000D01*
X143500000Y-30680000D02*
X142500000Y-30680000D01*
%TO.C,JP1*%
X144700000Y-33600000D02*
X145300000Y-33600000D01*
X146000000Y-34300000D02*
X146000000Y-35700000D01*
X144000000Y-35700000D02*
X144000000Y-34300000D01*
X145300000Y-36400000D02*
X144700000Y-36400000D01*
X145000001Y-35000000D02*
X145000001Y-35000000D01*
X145000001Y-35000000D01*
X145000001Y-35000000D01*
X145000001Y-35000000D01*
X145000001Y-35000000D01*
X145000001Y-35000001D01*
X145000001Y-35000001D01*
X145000001Y-35000001D01*
X145000001Y-35000001D01*
X145000001Y-35000001D01*
X145000001Y-35000001D01*
X145000001Y-35000001D01*
X145000000Y-35000001D01*
X145000000Y-35000001D01*
X145000000Y-35000001D01*
X145000000Y-35000001D01*
X145000000Y-35000001D01*
X145000000Y-35000001D01*
X145000000Y-35000001D01*
X145000000Y-35000001D01*
X145000000Y-35000001D01*
X145000000Y-35000001D01*
X145000000Y-35000001D01*
X145000000Y-35000001D01*
X144999999Y-35000001D01*
X144999999Y-35000001D01*
X144999999Y-35000001D01*
X144999999Y-35000001D01*
X144999999Y-35000001D01*
X144999999Y-35000001D01*
X144999999Y-35000000D01*
X144999999Y-35000000D01*
X144999999Y-35000000D01*
X144999999Y-35000000D01*
X144999999Y-35000000D01*
X144999999Y-35000000D01*
X144999999Y-35000000D02*
X144999999Y-35000000D01*
X144999999Y-35000000D01*
X144999999Y-35000000D01*
X144999999Y-35000000D01*
X144999999Y-35000000D01*
X144999999Y-35000000D01*
X144999999Y-34999999D01*
X144999999Y-34999999D01*
X144999999Y-34999999D01*
X144999999Y-34999999D01*
X144999999Y-34999999D01*
X145000000Y-34999999D01*
X145000000Y-34999999D01*
X145000000Y-34999999D01*
X145000000Y-34999999D01*
X145000000Y-34999999D01*
X145000000Y-34999999D01*
X145000000Y-34999999D01*
X145000000Y-34999999D01*
X145000000Y-34999999D01*
X145000000Y-34999999D01*
X145000000Y-34999999D01*
X145000000Y-34999999D01*
X145000001Y-34999999D01*
X145000001Y-34999999D01*
X145000001Y-34999999D01*
X145000001Y-34999999D01*
X145000001Y-34999999D01*
X145000001Y-34999999D01*
X145000001Y-35000000D01*
X145000001Y-35000000D01*
X145000001Y-35000000D01*
X145000001Y-35000000D01*
X145000001Y-35000000D01*
X145000001Y-35000000D01*
X145000001Y-35000000D01*
X145000001Y-35000000D02*
X145000001Y-35000000D01*
X145000001Y-35000000D01*
X145000001Y-35000000D01*
X145000001Y-35000000D01*
X145000001Y-35000000D01*
X145000001Y-35000001D01*
X145000001Y-35000001D01*
X145000001Y-35000001D01*
X145000001Y-35000001D01*
X145000001Y-35000001D01*
X145000001Y-35000001D01*
X145000001Y-35000001D01*
X145000000Y-35000001D01*
X145000000Y-35000001D01*
X145000000Y-35000001D01*
X145000000Y-35000001D01*
X145000000Y-35000001D01*
X145000000Y-35000001D01*
X145000000Y-35000001D01*
X145000000Y-35000001D01*
X145000000Y-35000001D01*
X145000000Y-35000001D01*
X145000000Y-35000001D01*
X145000000Y-35000001D01*
X144999999Y-35000001D01*
X144999999Y-35000001D01*
X144999999Y-35000001D01*
X144999999Y-35000001D01*
X144999999Y-35000001D01*
X144999999Y-35000001D01*
X144999999Y-35000000D01*
X144999999Y-35000000D01*
X144999999Y-35000000D01*
X144999999Y-35000000D01*
X144999999Y-35000000D01*
X144999999Y-35000000D01*
X144999999Y-35000000D02*
X144999999Y-35000000D01*
X144999999Y-35000000D01*
X144999999Y-35000000D01*
X144999999Y-35000000D01*
X144999999Y-35000000D01*
X144999999Y-35000000D01*
X144999999Y-34999999D01*
X144999999Y-34999999D01*
X144999999Y-34999999D01*
X144999999Y-34999999D01*
X144999999Y-34999999D01*
X145000000Y-34999999D01*
X145000000Y-34999999D01*
X145000000Y-34999999D01*
X145000000Y-34999999D01*
X145000000Y-34999999D01*
X145000000Y-34999999D01*
X145000000Y-34999999D01*
X145000000Y-34999999D01*
X145000000Y-34999999D01*
X145000000Y-34999999D01*
X145000000Y-34999999D01*
X145000000Y-34999999D01*
X145000001Y-34999999D01*
X145000001Y-34999999D01*
X145000001Y-34999999D01*
X145000001Y-34999999D01*
X145000001Y-34999999D01*
X145000001Y-34999999D01*
X145000001Y-35000000D01*
X145000001Y-35000000D01*
X145000001Y-35000000D01*
X145000001Y-35000000D01*
X145000001Y-35000000D01*
X145000001Y-35000000D01*
X145000001Y-35000000D01*
X145000001Y-35000000D02*
X145000001Y-35000000D01*
X145000001Y-35000000D01*
X145000001Y-35000000D01*
X145000001Y-35000000D01*
X145000001Y-35000000D01*
X145000001Y-35000001D01*
X145000001Y-35000001D01*
X145000001Y-35000001D01*
X145000001Y-35000001D01*
X145000001Y-35000001D01*
X145000001Y-35000001D01*
X145000001Y-35000001D01*
X145000000Y-35000001D01*
X145000000Y-35000001D01*
X145000000Y-35000001D01*
X145000000Y-35000001D01*
X145000000Y-35000001D01*
X145000000Y-35000001D01*
X145000000Y-35000001D01*
X145000000Y-35000001D01*
X145000000Y-35000001D01*
X145000000Y-35000001D01*
X145000000Y-35000001D01*
X145000000Y-35000001D01*
X144999999Y-35000001D01*
X144999999Y-35000001D01*
X144999999Y-35000001D01*
X144999999Y-35000001D01*
X144999999Y-35000001D01*
X144999999Y-35000001D01*
X144999999Y-35000000D01*
X144999999Y-35000000D01*
X144999999Y-35000000D01*
X144999999Y-35000000D01*
X144999999Y-35000000D01*
X144999999Y-35000000D01*
X144999999Y-35000000D02*
X144999999Y-35000000D01*
X144999999Y-35000000D01*
X144999999Y-35000000D01*
X144999999Y-35000000D01*
X144999999Y-35000000D01*
X144999999Y-35000000D01*
X144999999Y-34999999D01*
X144999999Y-34999999D01*
X144999999Y-34999999D01*
X144999999Y-34999999D01*
X144999999Y-34999999D01*
X145000000Y-34999999D01*
X145000000Y-34999999D01*
X145000000Y-34999999D01*
X145000000Y-34999999D01*
X145000000Y-34999999D01*
X145000000Y-34999999D01*
X145000000Y-34999999D01*
X145000000Y-34999999D01*
X145000000Y-34999999D01*
X145000000Y-34999999D01*
X145000000Y-34999999D01*
X145000000Y-34999999D01*
X145000001Y-34999999D01*
X145000001Y-34999999D01*
X145000001Y-34999999D01*
X145000001Y-34999999D01*
X145000001Y-34999999D01*
X145000001Y-34999999D01*
X145000001Y-35000000D01*
X145000001Y-35000000D01*
X145000001Y-35000000D01*
X145000001Y-35000000D01*
X145000001Y-35000000D01*
X145000001Y-35000000D01*
X145000001Y-35000000D01*
X145000001Y-35000000D02*
X145000001Y-35000000D01*
X145000001Y-35000000D01*
X145000001Y-35000000D01*
X145000001Y-35000000D01*
X145000001Y-35000000D01*
X145000001Y-35000001D01*
X145000001Y-35000001D01*
X145000001Y-35000001D01*
X145000001Y-35000001D01*
X145000001Y-35000001D01*
X145000001Y-35000001D01*
X145000001Y-35000001D01*
X145000000Y-35000001D01*
X145000000Y-35000001D01*
X145000000Y-35000001D01*
X145000000Y-35000001D01*
X145000000Y-35000001D01*
X145000000Y-35000001D01*
X145000000Y-35000001D01*
X145000000Y-35000001D01*
X145000000Y-35000001D01*
X145000000Y-35000001D01*
X145000000Y-35000001D01*
X145000000Y-35000001D01*
X144999999Y-35000001D01*
X144999999Y-35000001D01*
X144999999Y-35000001D01*
X144999999Y-35000001D01*
X144999999Y-35000001D01*
X144999999Y-35000001D01*
X144999999Y-35000000D01*
X144999999Y-35000000D01*
X144999999Y-35000000D01*
X144999999Y-35000000D01*
X144999999Y-35000000D01*
X144999999Y-35000000D01*
X144999999Y-35000000D02*
X144999999Y-35000000D01*
X144999999Y-35000000D01*
X144999999Y-35000000D01*
X144999999Y-35000000D01*
X144999999Y-35000000D01*
X144999999Y-35000000D01*
X144999999Y-34999999D01*
X144999999Y-34999999D01*
X144999999Y-34999999D01*
X144999999Y-34999999D01*
X144999999Y-34999999D01*
X145000000Y-34999999D01*
X145000000Y-34999999D01*
X145000000Y-34999999D01*
X145000000Y-34999999D01*
X145000000Y-34999999D01*
X145000000Y-34999999D01*
X145000000Y-34999999D01*
X145000000Y-34999999D01*
X145000000Y-34999999D01*
X145000000Y-34999999D01*
X145000000Y-34999999D01*
X145000000Y-34999999D01*
X145000001Y-34999999D01*
X145000001Y-34999999D01*
X145000001Y-34999999D01*
X145000001Y-34999999D01*
X145000001Y-34999999D01*
X145000001Y-34999999D01*
X145000001Y-35000000D01*
X145000001Y-35000000D01*
X145000001Y-35000000D01*
X145000001Y-35000000D01*
X145000001Y-35000000D01*
X145000001Y-35000000D01*
X145000001Y-35000000D01*
%TO.C,J2*%
D13*
X115700000Y-45675000D02*
X117285000Y-45675000D01*
X115700000Y-48525000D02*
X131300000Y-48525000D01*
X129715000Y-45675000D02*
X131300000Y-45675000D01*
D12*
X117800000Y-44500000D02*
G75*
G02*
X117600000Y-44500000I-100000J0D01*
G01*
X117600000Y-44500000D02*
G75*
G02*
X117800000Y-44500000I100000J0D01*
G01*
%TO.C,C5*%
D11*
X115853733Y-42710000D02*
X116146266Y-42710000D01*
X115853734Y-41690000D02*
X116146267Y-41690000D01*
%TO.C,C3*%
X114053733Y-39910000D02*
X114346266Y-39910000D01*
X114053734Y-38890000D02*
X114346267Y-38890000D01*
%TO.C,C7*%
X101010000Y-41853733D02*
X101010000Y-42146267D01*
X99990000Y-41853733D02*
X99990000Y-42146267D01*
%TO.C,RN3*%
X108500000Y-27320000D02*
X107500000Y-27320000D01*
X108500000Y-30680000D02*
X107500000Y-30680000D01*
%TO.C,U1*%
X109410000Y-36150000D02*
X109410000Y-39910000D01*
X102590000Y-36150000D02*
X102590000Y-39910000D01*
X109410000Y-39910000D02*
X108150000Y-39910000D01*
X102590000Y-39910000D02*
X103850000Y-39910000D01*
X109310000Y-34870000D02*
X109640000Y-34630000D01*
X109640000Y-35110000D01*
X109310000Y-34870000D01*
G36*
X109640000Y-35110000D02*
G01*
X109310000Y-34870000D01*
X109640000Y-34630000D01*
X109640000Y-35110000D01*
G37*
%TO.C,RN1*%
X100500000Y-27320000D02*
X99500000Y-27320000D01*
X100500000Y-30680000D02*
X99500000Y-30680000D01*
%TO.C,FL2*%
D12*
X124675000Y-42775000D02*
X124675000Y-44275000D01*
X126924900Y-42775000D02*
X126924900Y-44275000D01*
%TO.C,IC1*%
D13*
X130500000Y-33600000D02*
X116500000Y-33600000D01*
X116500000Y-33600000D02*
X116500000Y-39100000D01*
X130500000Y-39100000D02*
X130500000Y-33600000D01*
X116500000Y-39100000D02*
X130500000Y-39100000D01*
X130337500Y-34000000D02*
G75*
G02*
X129937500Y-34000000I-200000J0D01*
G01*
X129937500Y-34000000D02*
G75*
G02*
X130337500Y-34000000I200000J0D01*
G01*
%TO.C,RN2*%
D11*
X104500000Y-27320000D02*
X103500000Y-27320000D01*
X104500000Y-30680000D02*
X103500000Y-30680000D01*
%TO.C,RN6*%
X147500000Y-27320000D02*
X146500000Y-27320000D01*
X147500000Y-30680000D02*
X146500000Y-30680000D01*
%TO.C,C8*%
X106353733Y-45510000D02*
X106646266Y-45510000D01*
X106353734Y-44490000D02*
X106646267Y-44490000D01*
%TO.C,JFFC1*%
D14*
X111500000Y-23050000D02*
X113390000Y-23050000D01*
X111500000Y-28500000D02*
X111500000Y-23050000D01*
X112070000Y-28500000D02*
X111500000Y-28500000D01*
X112930000Y-28500000D02*
X114320000Y-28500000D01*
X115180000Y-28500000D02*
X116820000Y-28500000D01*
X117680000Y-28500000D02*
X119320000Y-28500000D01*
X120180000Y-28500000D02*
X121820000Y-28500000D01*
X122680000Y-28500000D02*
X124320000Y-28500000D01*
X125180000Y-28500000D02*
X126820000Y-28500000D01*
X127680000Y-28500000D02*
X129320000Y-28500000D01*
X130180000Y-28500000D02*
X131820000Y-28500000D01*
X132680000Y-28500000D02*
X134070000Y-28500000D01*
X133610000Y-23050000D02*
X135500000Y-23050000D01*
X135500000Y-23040000D02*
X135500000Y-28500000D01*
X135500000Y-28500000D02*
X134930000Y-28500000D01*
D15*
X111530000Y-22540000D02*
G75*
G02*
X111470000Y-22540000I-30000J0D01*
G01*
X111470000Y-22540000D02*
G75*
G02*
X111530000Y-22540000I30000J0D01*
G01*
D14*
X112750000Y-22560000D02*
G75*
G02*
X112350000Y-22560000I-200000J0D01*
G01*
X112350000Y-22560000D02*
G75*
G02*
X112750000Y-22560000I200000J0D01*
G01*
%TO.C,JP2*%
D11*
X148700000Y-33600000D02*
X149300000Y-33600000D01*
X150000000Y-34300000D02*
X150000000Y-35700000D01*
X148000000Y-35700000D02*
X148000000Y-34300000D01*
X149300000Y-36400000D02*
X148700000Y-36400000D01*
X149000001Y-35000000D02*
X149000001Y-35000000D01*
X149000001Y-35000000D01*
X149000001Y-35000000D01*
X149000001Y-35000000D01*
X149000001Y-35000000D01*
X149000001Y-35000001D01*
X149000001Y-35000001D01*
X149000001Y-35000001D01*
X149000001Y-35000001D01*
X149000001Y-35000001D01*
X149000001Y-35000001D01*
X149000001Y-35000001D01*
X149000000Y-35000001D01*
X149000000Y-35000001D01*
X149000000Y-35000001D01*
X149000000Y-35000001D01*
X149000000Y-35000001D01*
X149000000Y-35000001D01*
X149000000Y-35000001D01*
X149000000Y-35000001D01*
X149000000Y-35000001D01*
X149000000Y-35000001D01*
X149000000Y-35000001D01*
X149000000Y-35000001D01*
X148999999Y-35000001D01*
X148999999Y-35000001D01*
X148999999Y-35000001D01*
X148999999Y-35000001D01*
X148999999Y-35000001D01*
X148999999Y-35000001D01*
X148999999Y-35000000D01*
X148999999Y-35000000D01*
X148999999Y-35000000D01*
X148999999Y-35000000D01*
X148999999Y-35000000D01*
X148999999Y-35000000D01*
X148999999Y-35000000D02*
X148999999Y-35000000D01*
X148999999Y-35000000D01*
X148999999Y-35000000D01*
X148999999Y-35000000D01*
X148999999Y-35000000D01*
X148999999Y-35000000D01*
X148999999Y-34999999D01*
X148999999Y-34999999D01*
X148999999Y-34999999D01*
X148999999Y-34999999D01*
X148999999Y-34999999D01*
X149000000Y-34999999D01*
X149000000Y-34999999D01*
X149000000Y-34999999D01*
X149000000Y-34999999D01*
X149000000Y-34999999D01*
X149000000Y-34999999D01*
X149000000Y-34999999D01*
X149000000Y-34999999D01*
X149000000Y-34999999D01*
X149000000Y-34999999D01*
X149000000Y-34999999D01*
X149000000Y-34999999D01*
X149000001Y-34999999D01*
X149000001Y-34999999D01*
X149000001Y-34999999D01*
X149000001Y-34999999D01*
X149000001Y-34999999D01*
X149000001Y-34999999D01*
X149000001Y-35000000D01*
X149000001Y-35000000D01*
X149000001Y-35000000D01*
X149000001Y-35000000D01*
X149000001Y-35000000D01*
X149000001Y-35000000D01*
X149000001Y-35000000D01*
X149000001Y-35000000D02*
X149000001Y-35000000D01*
X149000001Y-35000000D01*
X149000001Y-35000000D01*
X149000001Y-35000000D01*
X149000001Y-35000000D01*
X149000001Y-35000001D01*
X149000001Y-35000001D01*
X149000001Y-35000001D01*
X149000001Y-35000001D01*
X149000001Y-35000001D01*
X149000001Y-35000001D01*
X149000001Y-35000001D01*
X149000000Y-35000001D01*
X149000000Y-35000001D01*
X149000000Y-35000001D01*
X149000000Y-35000001D01*
X149000000Y-35000001D01*
X149000000Y-35000001D01*
X149000000Y-35000001D01*
X149000000Y-35000001D01*
X149000000Y-35000001D01*
X149000000Y-35000001D01*
X149000000Y-35000001D01*
X149000000Y-35000001D01*
X148999999Y-35000001D01*
X148999999Y-35000001D01*
X148999999Y-35000001D01*
X148999999Y-35000001D01*
X148999999Y-35000001D01*
X148999999Y-35000001D01*
X148999999Y-35000000D01*
X148999999Y-35000000D01*
X148999999Y-35000000D01*
X148999999Y-35000000D01*
X148999999Y-35000000D01*
X148999999Y-35000000D01*
X148999999Y-35000000D02*
X148999999Y-35000000D01*
X148999999Y-35000000D01*
X148999999Y-35000000D01*
X148999999Y-35000000D01*
X148999999Y-35000000D01*
X148999999Y-35000000D01*
X148999999Y-34999999D01*
X148999999Y-34999999D01*
X148999999Y-34999999D01*
X148999999Y-34999999D01*
X148999999Y-34999999D01*
X149000000Y-34999999D01*
X149000000Y-34999999D01*
X149000000Y-34999999D01*
X149000000Y-34999999D01*
X149000000Y-34999999D01*
X149000000Y-34999999D01*
X149000000Y-34999999D01*
X149000000Y-34999999D01*
X149000000Y-34999999D01*
X149000000Y-34999999D01*
X149000000Y-34999999D01*
X149000000Y-34999999D01*
X149000001Y-34999999D01*
X149000001Y-34999999D01*
X149000001Y-34999999D01*
X149000001Y-34999999D01*
X149000001Y-34999999D01*
X149000001Y-34999999D01*
X149000001Y-35000000D01*
X149000001Y-35000000D01*
X149000001Y-35000000D01*
X149000001Y-35000000D01*
X149000001Y-35000000D01*
X149000001Y-35000000D01*
X149000001Y-35000000D01*
X149000001Y-35000000D02*
X149000001Y-35000000D01*
X149000001Y-35000000D01*
X149000001Y-35000000D01*
X149000001Y-35000000D01*
X149000001Y-35000000D01*
X149000001Y-35000001D01*
X149000001Y-35000001D01*
X149000001Y-35000001D01*
X149000001Y-35000001D01*
X149000001Y-35000001D01*
X149000001Y-35000001D01*
X149000001Y-35000001D01*
X149000000Y-35000001D01*
X149000000Y-35000001D01*
X149000000Y-35000001D01*
X149000000Y-35000001D01*
X149000000Y-35000001D01*
X149000000Y-35000001D01*
X149000000Y-35000001D01*
X149000000Y-35000001D01*
X149000000Y-35000001D01*
X149000000Y-35000001D01*
X149000000Y-35000001D01*
X149000000Y-35000001D01*
X148999999Y-35000001D01*
X148999999Y-35000001D01*
X148999999Y-35000001D01*
X148999999Y-35000001D01*
X148999999Y-35000001D01*
X148999999Y-35000001D01*
X148999999Y-35000000D01*
X148999999Y-35000000D01*
X148999999Y-35000000D01*
X148999999Y-35000000D01*
X148999999Y-35000000D01*
X148999999Y-35000000D01*
X148999999Y-35000000D02*
X148999999Y-35000000D01*
X148999999Y-35000000D01*
X148999999Y-35000000D01*
X148999999Y-35000000D01*
X148999999Y-35000000D01*
X148999999Y-35000000D01*
X148999999Y-34999999D01*
X148999999Y-34999999D01*
X148999999Y-34999999D01*
X148999999Y-34999999D01*
X148999999Y-34999999D01*
X149000000Y-34999999D01*
X149000000Y-34999999D01*
X149000000Y-34999999D01*
X149000000Y-34999999D01*
X149000000Y-34999999D01*
X149000000Y-34999999D01*
X149000000Y-34999999D01*
X149000000Y-34999999D01*
X149000000Y-34999999D01*
X149000000Y-34999999D01*
X149000000Y-34999999D01*
X149000000Y-34999999D01*
X149000001Y-34999999D01*
X149000001Y-34999999D01*
X149000001Y-34999999D01*
X149000001Y-34999999D01*
X149000001Y-34999999D01*
X149000001Y-34999999D01*
X149000001Y-35000000D01*
X149000001Y-35000000D01*
X149000001Y-35000000D01*
X149000001Y-35000000D01*
X149000001Y-35000000D01*
X149000001Y-35000000D01*
X149000001Y-35000000D01*
X149000001Y-35000000D02*
X149000001Y-35000000D01*
X149000001Y-35000000D01*
X149000001Y-35000000D01*
X149000001Y-35000000D01*
X149000001Y-35000000D01*
X149000001Y-35000001D01*
X149000001Y-35000001D01*
X149000001Y-35000001D01*
X149000001Y-35000001D01*
X149000001Y-35000001D01*
X149000001Y-35000001D01*
X149000001Y-35000001D01*
X149000000Y-35000001D01*
X149000000Y-35000001D01*
X149000000Y-35000001D01*
X149000000Y-35000001D01*
X149000000Y-35000001D01*
X149000000Y-35000001D01*
X149000000Y-35000001D01*
X149000000Y-35000001D01*
X149000000Y-35000001D01*
X149000000Y-35000001D01*
X149000000Y-35000001D01*
X149000000Y-35000001D01*
X148999999Y-35000001D01*
X148999999Y-35000001D01*
X148999999Y-35000001D01*
X148999999Y-35000001D01*
X148999999Y-35000001D01*
X148999999Y-35000001D01*
X148999999Y-35000000D01*
X148999999Y-35000000D01*
X148999999Y-35000000D01*
X148999999Y-35000000D01*
X148999999Y-35000000D01*
X148999999Y-35000000D01*
X148999999Y-35000000D02*
X148999999Y-35000000D01*
X148999999Y-35000000D01*
X148999999Y-35000000D01*
X148999999Y-35000000D01*
X148999999Y-35000000D01*
X148999999Y-35000000D01*
X148999999Y-34999999D01*
X148999999Y-34999999D01*
X148999999Y-34999999D01*
X148999999Y-34999999D01*
X148999999Y-34999999D01*
X149000000Y-34999999D01*
X149000000Y-34999999D01*
X149000000Y-34999999D01*
X149000000Y-34999999D01*
X149000000Y-34999999D01*
X149000000Y-34999999D01*
X149000000Y-34999999D01*
X149000000Y-34999999D01*
X149000000Y-34999999D01*
X149000000Y-34999999D01*
X149000000Y-34999999D01*
X149000000Y-34999999D01*
X149000001Y-34999999D01*
X149000001Y-34999999D01*
X149000001Y-34999999D01*
X149000001Y-34999999D01*
X149000001Y-34999999D01*
X149000001Y-34999999D01*
X149000001Y-35000000D01*
X149000001Y-35000000D01*
X149000001Y-35000000D01*
X149000001Y-35000000D01*
X149000001Y-35000000D01*
X149000001Y-35000000D01*
X149000001Y-35000000D01*
%TO.C,C1*%
X114053733Y-33510000D02*
X114346266Y-33510000D01*
X114053734Y-32490000D02*
X114346267Y-32490000D01*
%TO.C,R1*%
X100022500Y-33745276D02*
X100022500Y-34254724D01*
X98977500Y-33745276D02*
X98977500Y-34254724D01*
%TO.C,C4*%
X112353733Y-42710000D02*
X112646266Y-42710000D01*
X112353734Y-41690000D02*
X112646267Y-41690000D01*
%TO.C,R2*%
X100022500Y-37245276D02*
X100022500Y-37754724D01*
X98977500Y-37245276D02*
X98977500Y-37754724D01*
%TD*%
M02*
