%TF.GenerationSoftware,KiCad,Pcbnew,10.99.0-2191-g6e8e92d84a*%
%TF.CreationDate,2026-08-13T22:40:36+07:00*%
%TF.ProjectId,koyomi-lvds-hat,6b6f796f-6d69-42d6-9c76-64732d686174,rev?*%
%TF.SameCoordinates,Original*%
%TF.FileFunction,Copper,L1,Top*%
%TF.FilePolarity,Positive*%
%FSLAX46Y46*%
G04 Gerber Fmt 4.6, Leading zero omitted, Abs format (unit mm)*
G04 Created by KiCad (PCBNEW 10.99.0-2191-g6e8e92d84a) date 2026-08-13 22:40:36*
%MOMM*%
%LPD*%
G01*
G04 APERTURE LIST*
G04 Aperture macros list*
%AMRoundRect*
0 Rectangle with rounded corners*
0 $1 Rounding radius*
0 $2 $3 $4 $5 $6 $7 $8 $9 X,Y pos of 4 corners*
0 Add a 4 corners polygon primitive as box body*
4,1,4,$2,$3,$4,$5,$6,$7,$8,$9,$2,$3,0*
0 Add four circle primitives for the rounded corners*
1,1,$1+$1,$2,$3*
1,1,$1+$1,$4,$5*
1,1,$1+$1,$6,$7*
1,1,$1+$1,$8,$9*
0 Add four rect primitives between the rounded corners*
20,1,$1+$1,$2,$3,$4,$5,0*
20,1,$1+$1,$4,$5,$6,$7,0*
20,1,$1+$1,$6,$7,$8,$9,0*
20,1,$1+$1,$8,$9,$2,$3,0*%
%AMFreePoly0*
4,1,23,0.500000,-0.750000,0.000000,-0.750000,0.000000,-0.745722,-0.065263,-0.745722,-0.191342,-0.711940,-0.304381,-0.646677,-0.396677,-0.554381,-0.461940,-0.441342,-0.495722,-0.315263,-0.495722,-0.250000,-0.500000,-0.250000,-0.500000,0.250000,-0.495722,0.250000,-0.495722,0.315263,-0.461940,0.441342,-0.396677,0.554381,-0.304381,0.646677,-0.191342,0.711940,-0.065263,0.745722,0.000000,0.745722,
0.000000,0.750000,0.500000,0.750000,0.500000,-0.750000,0.500000,-0.750000,$1*%
%AMFreePoly1*
4,1,23,0.000000,0.745722,0.065263,0.745722,0.191342,0.711940,0.304381,0.646677,0.396677,0.554381,0.461940,0.441342,0.495722,0.315263,0.495722,0.250000,0.500000,0.250000,0.500000,-0.250000,0.495722,-0.250000,0.495722,-0.315263,0.461940,-0.441342,0.396677,-0.554381,0.304381,-0.646677,0.191342,-0.711940,0.065263,-0.745722,0.000000,-0.745722,0.000000,-0.750000,-0.500000,-0.750000,
-0.500000,0.750000,0.000000,0.750000,0.000000,0.745722,0.000000,0.745722,$1*%
G04 Aperture macros list end*
%TA.AperFunction,SMDPad,CuDef*%
%ADD10RoundRect,0.237500X-0.300000X-0.237500X0.300000X-0.237500X0.300000X0.237500X-0.300000X0.237500X0*%
%TD*%
%TA.AperFunction,SMDPad,CuDef*%
%ADD11R,0.250000X0.550000*%
%TD*%
%TA.AperFunction,SMDPad,CuDef*%
%ADD12R,0.300000X1.300000*%
%TD*%
%TA.AperFunction,SMDPad,CuDef*%
%ADD13R,1.800000X2.200000*%
%TD*%
%TA.AperFunction,SMDPad,CuDef*%
%ADD14R,0.800000X0.500000*%
%TD*%
%TA.AperFunction,SMDPad,CuDef*%
%ADD15R,0.800000X0.400000*%
%TD*%
%TA.AperFunction,SMDPad,CuDef*%
%ADD16FreePoly0,-90.000000*%
%TD*%
%TA.AperFunction,SMDPad,CuDef*%
%ADD17FreePoly1,-90.000000*%
%TD*%
%TA.AperFunction,SMDPad,CuDef*%
%ADD18R,0.200000X1.200000*%
%TD*%
%TA.AperFunction,SMDPad,CuDef*%
%ADD19R,1.400000X2.000000*%
%TD*%
%TA.AperFunction,SMDPad,CuDef*%
%ADD20RoundRect,0.237500X-0.237500X0.300000X-0.237500X-0.300000X0.237500X-0.300000X0.237500X0.300000X0*%
%TD*%
%TA.AperFunction,SMDPad,CuDef*%
%ADD21RoundRect,0.375000X-0.375000X0.625000X-0.375000X-0.625000X0.375000X-0.625000X0.375000X0.625000X0*%
%TD*%
%TA.AperFunction,SMDPad,CuDef*%
%ADD22RoundRect,0.500000X-1.400000X0.500000X-1.400000X-0.500000X1.400000X-0.500000X1.400000X0.500000X0*%
%TD*%
%TA.AperFunction,SMDPad,CuDef*%
%ADD23RoundRect,0.009000X-0.141000X0.491000X-0.141000X-0.491000X0.141000X-0.491000X0.141000X0.491000X0*%
%TD*%
%TA.AperFunction,SMDPad,CuDef*%
%ADD24R,0.250000X0.650000*%
%TD*%
%TA.AperFunction,SMDPad,CuDef*%
%ADD25R,0.400000X1.000000*%
%TD*%
%TA.AperFunction,SMDPad,CuDef*%
%ADD26R,0.400000X1.550000*%
%TD*%
%TA.AperFunction,SMDPad,CuDef*%
%ADD27RoundRect,0.237500X-0.237500X0.250000X-0.237500X-0.250000X0.237500X-0.250000X0.237500X0.250000X0*%
%TD*%
%TA.AperFunction,ViaPad*%
%ADD28C,0.500000*%
%TD*%
%TA.AperFunction,ViaPad*%
%ADD29C,0.450000*%
%TD*%
%TA.AperFunction,Conductor*%
%ADD30C,0.150000*%
%TD*%
%TA.AperFunction,Conductor*%
%ADD31C,0.500000*%
%TD*%
%TA.AperFunction,Conductor*%
%ADD32C,0.300000*%
%TD*%
%TA.AperFunction,Conductor*%
%ADD33C,0.199800*%
%TD*%
%TA.AperFunction,Conductor*%
%ADD34C,0.100000*%
%TD*%
%TA.AperFunction,Conductor*%
%ADD35C,0.249800*%
%TD*%
%TA.AperFunction,Conductor*%
%ADD36C,0.090000*%
%TD*%
G04 APERTURE END LIST*
D10*
%TO.P,C2,1*%
%TO.N,+3V3*%
X113337500Y-36200000D03*
%TO.P,C2,2*%
%TO.N,GND*%
X115062500Y-36200000D03*
%TD*%
D11*
%TO.P,FL1,1,1_1*%
%TO.N,Net-(IC1-Y1P)*%
X127849900Y-43025000D03*
%TO.P,FL1,2,2_2*%
%TO.N,RX1+*%
X127849900Y-43975000D03*
%TO.P,FL1,3,3_3*%
%TO.N,Net-(IC1-Y1M)*%
X128350100Y-43025000D03*
%TO.P,FL1,4,4_4*%
%TO.N,RX1-*%
X128350100Y-43975000D03*
%TO.P,FL1,5,5_5*%
%TO.N,Net-(IC1-Y0P)*%
X128849900Y-43025000D03*
%TO.P,FL1,6,6_6*%
%TO.N,RX0+*%
X128849900Y-43975000D03*
%TO.P,FL1,7,7_7*%
%TO.N,Net-(IC1-Y0M)*%
X129350100Y-43025000D03*
%TO.P,FL1,8,8_8*%
%TO.N,RX0-*%
X129350100Y-43975000D03*
%TD*%
D12*
%TO.P,JBL1,1,Pin_1_1*%
%TO.N,VCD6*%
X139250000Y-42150000D03*
%TO.P,JBL1,2,Pin_2_2*%
%TO.N,VCD5*%
X139750000Y-42150000D03*
%TO.P,JBL1,3,Pin_3_3*%
%TO.N,VCD4*%
X140250000Y-42150000D03*
%TO.P,JBL1,4,Pin_4_4*%
%TO.N,VCD3*%
X140750000Y-42150000D03*
%TO.P,JBL1,5,Pin_5_5*%
%TO.N,VCD2*%
X141250000Y-42150000D03*
%TO.P,JBL1,6,Pin_6_6*%
%TO.N,VCD1*%
X141750000Y-42150000D03*
%TO.P,JBL1,7,Pin_7_7*%
%TO.N,VAD*%
X142250000Y-42150000D03*
%TO.P,JBL1,8,Pin_8_8*%
%TO.N,unconnected-(JBL1-Pin_8-Pad8)*%
X142750000Y-42150000D03*
%TO.P,JBL1,9,Pin_9_9*%
%TO.N,GND*%
X143250000Y-42150000D03*
%TO.P,JBL1,10,Pin_10_10*%
%TO.N,+5V*%
X143750000Y-42150000D03*
%TO.P,JBL1,11,Pin_11_11*%
%TO.N,PWM*%
X144250000Y-42150000D03*
%TO.P,JBL1,12,Pin_12_12*%
%TO.N,EN*%
X144750000Y-42150000D03*
D13*
%TO.P,JBL1,MP*%
%TO.N,N/C*%
X137350000Y-45400000D03*
X146650000Y-45400000D03*
%TD*%
D14*
%TO.P,RN4,1,R1.1_1*%
%TO.N,D18*%
X138100000Y-27800000D03*
D15*
%TO.P,RN4,2,R2.1_2*%
%TO.N,L_CLKIN*%
X138100000Y-28600000D03*
%TO.P,RN4,3,R3.1_3*%
%TO.N,D26*%
X138100000Y-29400000D03*
D14*
%TO.P,RN4,4,R4.1_4*%
%TO.N,D8*%
X138100000Y-30200000D03*
%TO.P,RN4,5,R4.2_5*%
%TO.N,G1*%
X139900000Y-30200000D03*
D15*
%TO.P,RN4,6,R3.2_6*%
%TO.N,ENABLE*%
X139900000Y-29400000D03*
%TO.P,RN4,7,R2.2_7*%
%TO.N,CLKIN*%
X139900000Y-28600000D03*
D14*
%TO.P,RN4,8,R1.2_8*%
%TO.N,B1*%
X139900000Y-27800000D03*
%TD*%
D10*
%TO.P,C6,1*%
%TO.N,+2V5*%
X118637500Y-42200000D03*
%TO.P,C6,2*%
%TO.N,GND*%
X120362500Y-42200000D03*
%TD*%
D14*
%TO.P,RN5,1,R1.1_1*%
%TO.N,D0*%
X142100000Y-27800000D03*
D15*
%TO.P,RN5,2,R2.1_2*%
%TO.N,D12*%
X142100000Y-28600000D03*
%TO.P,RN5,3,R3.1_3*%
%TO.N,D9*%
X142100000Y-29400000D03*
D14*
%TO.P,RN5,4,R4.1_4*%
%TO.N,D19*%
X142100000Y-30200000D03*
%TO.P,RN5,5,R4.2_5*%
%TO.N,B2*%
X143900000Y-30200000D03*
D15*
%TO.P,RN5,6,R3.2_6*%
%TO.N,G2*%
X143900000Y-29400000D03*
%TO.P,RN5,7,R2.2_7*%
%TO.N,G3*%
X143900000Y-28600000D03*
D14*
%TO.P,RN5,8,R1.2_8*%
%TO.N,R0*%
X143900000Y-27800000D03*
%TD*%
D16*
%TO.P,JP1,1,A_1*%
%TO.N,CLKSEL*%
X145000000Y-34350000D03*
D17*
%TO.P,JP1,2,B_2*%
%TO.N,GND*%
X145000000Y-35650000D03*
%TD*%
D18*
%TO.P,J2,1,1_1*%
%TO.N,VAD*%
X117700000Y-45630000D03*
%TO.P,J2,2,2_2*%
X118100000Y-45630000D03*
%TO.P,J2,3,3_3*%
%TO.N,unconnected-(J2-Pad3)*%
X118500000Y-45630000D03*
%TO.P,J2,4,4_4*%
%TO.N,+2V5*%
X118900000Y-45630000D03*
%TO.P,J2,5,5_5*%
X119300000Y-45630000D03*
%TO.P,J2,6,6_6*%
X119700000Y-45630000D03*
%TO.P,J2,7,7_7*%
%TO.N,GND*%
X120100000Y-45630000D03*
%TO.P,J2,8,8_8*%
X120500000Y-45630000D03*
%TO.P,J2,9,9_9*%
X120900000Y-45630000D03*
%TO.P,J2,10,10_10*%
%TO.N,PANEL_ID0*%
X121300000Y-45630000D03*
%TO.P,J2,11,11_11*%
%TO.N,unconnected-(J2-Pad11)*%
X121700000Y-45630000D03*
%TO.P,J2,12,12_12*%
%TO.N,unconnected-(J2-Pad12)*%
X122100000Y-45630000D03*
%TO.P,J2,13,13_13*%
%TO.N,VCD6*%
X122500000Y-45630000D03*
%TO.P,J2,14,14_14*%
%TO.N,VCD5*%
X122900000Y-45630000D03*
%TO.P,J2,15,15_15*%
%TO.N,VCD4*%
X123300000Y-45630000D03*
%TO.P,J2,16,16_16*%
%TO.N,VCD3*%
X123700000Y-45630000D03*
%TO.P,J2,17,17_17*%
%TO.N,VCD2*%
X124100000Y-45630000D03*
%TO.P,J2,18,18_18*%
%TO.N,VCD1*%
X124500000Y-45630000D03*
%TO.P,J2,19,19_19*%
%TO.N,unconnected-(J2-Pad19)*%
X124900000Y-45630000D03*
%TO.P,J2,20,20_20*%
%TO.N,unconnected-(J2-Pad20)*%
X125300000Y-45630000D03*
%TO.P,J2,21,21_21*%
%TO.N,PANEL_ID1*%
X125700000Y-45630000D03*
%TO.P,J2,22,22_22*%
%TO.N,RXCLK+*%
X126100000Y-45630000D03*
%TO.P,J2,23,23_23*%
%TO.N,RXCLK-*%
X126500000Y-45630000D03*
%TO.P,J2,24,24_24*%
%TO.N,RX2+*%
X126900000Y-45630000D03*
%TO.P,J2,25,25_25*%
%TO.N,RX2-*%
X127300000Y-45630000D03*
%TO.P,J2,26,26_26*%
%TO.N,RX1+*%
X127700000Y-45630000D03*
%TO.P,J2,27,27_27*%
%TO.N,RX1-*%
X128100000Y-45630000D03*
%TO.P,J2,28,28_28*%
%TO.N,RX0+*%
X128500000Y-45630000D03*
%TO.P,J2,29,29_29*%
%TO.N,RX0-*%
X128900000Y-45630000D03*
%TO.P,J2,30,30_30*%
%TO.N,LCD_INS*%
X129300000Y-45630000D03*
D19*
%TO.P,J2,S1,SHIELD_S1*%
%TO.N,GND*%
X115200000Y-47000000D03*
%TO.P,J2,S2,SHIELD__1_S2*%
X131800000Y-47000000D03*
%TD*%
D10*
%TO.P,C5,1*%
%TO.N,+2V5*%
X115137500Y-42200000D03*
%TO.P,C5,2*%
%TO.N,GND*%
X116862500Y-42200000D03*
%TD*%
%TO.P,C3,1*%
%TO.N,+3V3*%
X113337500Y-39400000D03*
%TO.P,C3,2*%
%TO.N,GND*%
X115062500Y-39400000D03*
%TD*%
D20*
%TO.P,C7,1*%
%TO.N,+3V3*%
X100500000Y-41137500D03*
%TO.P,C7,2*%
%TO.N,GND*%
X100500000Y-42862500D03*
%TD*%
D14*
%TO.P,RN3,1,R1.1_1*%
%TO.N,D20*%
X107100000Y-27800000D03*
D15*
%TO.P,RN3,2,R2.1_2*%
%TO.N,D21*%
X107100000Y-28600000D03*
%TO.P,RN3,3,R3.1_3*%
%TO.N,D22*%
X107100000Y-29400000D03*
D14*
%TO.P,RN3,4,R4.1_4*%
%TO.N,G0*%
X107100000Y-30200000D03*
%TO.P,RN3,5,R4.2_5*%
%TO.N,D7*%
X108900000Y-30200000D03*
D15*
%TO.P,RN3,6,R3.2_6*%
%TO.N,B5*%
X108900000Y-29400000D03*
%TO.P,RN3,7,R2.2_7*%
%TO.N,B4*%
X108900000Y-28600000D03*
D14*
%TO.P,RN3,8,R1.2_8*%
%TO.N,B3*%
X108900000Y-27800000D03*
%TD*%
D21*
%TO.P,U1,1,GND_1*%
%TO.N,GND*%
X108300000Y-34850000D03*
%TO.P,U1,2,VO_2*%
%TO.N,+2V5*%
X106000000Y-34850000D03*
D22*
X106000000Y-41150000D03*
D21*
%TO.P,U1,3,VI_3*%
%TO.N,+3V3*%
X103700000Y-34850000D03*
%TD*%
D14*
%TO.P,RN1,1,R1.1_1*%
%TO.N,D13*%
X99100000Y-27800000D03*
D15*
%TO.P,RN1,2,R2.1_2*%
%TO.N,D15*%
X99100000Y-28600000D03*
%TO.P,RN1,3,R3.1_3*%
%TO.N,D24*%
X99100000Y-29400000D03*
D14*
%TO.P,RN1,4,R4.1_4*%
%TO.N,D25*%
X99100000Y-30200000D03*
%TO.P,RN1,5,R4.2_5*%
%TO.N,VSYNC*%
X100900000Y-30200000D03*
D15*
%TO.P,RN1,6,R3.2_6*%
%TO.N,HSYNC*%
X100900000Y-29400000D03*
%TO.P,RN1,7,R2.2_7*%
%TO.N,B0*%
X100900000Y-28600000D03*
D14*
%TO.P,RN1,8,R1.2_8*%
%TO.N,G4*%
X100900000Y-27800000D03*
%TD*%
D11*
%TO.P,FL2,1,1_1*%
%TO.N,Net-(IC1-CLCKOUTP)*%
X125049900Y-43025000D03*
%TO.P,FL2,2,2_2*%
%TO.N,RXCLK+*%
X125049900Y-43975000D03*
%TO.P,FL2,3,3_3*%
%TO.N,Net-(IC1-CLCKOUTM)*%
X125550100Y-43025000D03*
%TO.P,FL2,4,4_4*%
%TO.N,RXCLK-*%
X125550100Y-43975000D03*
%TO.P,FL2,5,5_5*%
%TO.N,Net-(IC1-Y2P)*%
X126049900Y-43025000D03*
%TO.P,FL2,6,6_6*%
%TO.N,RX2+*%
X126049900Y-43975000D03*
%TO.P,FL2,7,7_7*%
%TO.N,Net-(IC1-Y2M)*%
X126550100Y-43025000D03*
%TO.P,FL2,8,8_8*%
%TO.N,RX2-*%
X126550100Y-43975000D03*
%TD*%
D23*
%TO.P,IC1,1,IOVCC@1_1*%
%TO.N,+3V3*%
X130250000Y-32700000D03*
%TO.P,IC1,2,D5_2*%
%TO.N,GND*%
X129750000Y-32700000D03*
%TO.P,IC1,3,D6_3*%
%TO.N,D6*%
X129250000Y-32700000D03*
%TO.P,IC1,4,D7_4*%
%TO.N,D7*%
X128750000Y-32700000D03*
%TO.P,IC1,5,GND@1_5*%
%TO.N,GND*%
X128250000Y-32700000D03*
%TO.P,IC1,6,D8_6*%
%TO.N,D8*%
X127750000Y-32700000D03*
%TO.P,IC1,7,D9_7*%
%TO.N,D9*%
X127250000Y-32700000D03*
%TO.P,IC1,8,D10_8*%
%TO.N,GND*%
X126750000Y-32700000D03*
%TO.P,IC1,9,VCC@1_9*%
%TO.N,+3V3*%
X126250000Y-32700000D03*
%TO.P,IC1,10,D11_10*%
%TO.N,GND*%
X125750000Y-32700000D03*
%TO.P,IC1,11,D12_11*%
%TO.N,D12*%
X125250000Y-32700000D03*
%TO.P,IC1,12,D13_12*%
%TO.N,D13*%
X124750000Y-32700000D03*
%TO.P,IC1,13,GND@2_13*%
%TO.N,GND*%
X124250000Y-32700000D03*
%TO.P,IC1,14,D14_14*%
%TO.N,D14*%
X123750000Y-32700000D03*
%TO.P,IC1,15,D15_15*%
%TO.N,D15*%
X123250000Y-32700000D03*
%TO.P,IC1,16,D16_16*%
%TO.N,GND*%
X122750000Y-32700000D03*
%TO.P,IC1,17,CLKSEL_17*%
%TO.N,CLKSEL*%
X122250000Y-32700000D03*
%TO.P,IC1,18,D17_18*%
%TO.N,GND*%
X121750000Y-32700000D03*
%TO.P,IC1,19,D18_19*%
%TO.N,D18*%
X121250000Y-32700000D03*
%TO.P,IC1,20,D19_20*%
%TO.N,D19*%
X120750000Y-32700000D03*
%TO.P,IC1,21,GND@3_21*%
%TO.N,GND*%
X120250000Y-32700000D03*
%TO.P,IC1,22,D20_22*%
%TO.N,D20*%
X119750000Y-32700000D03*
%TO.P,IC1,23,D21_23*%
%TO.N,D21*%
X119250000Y-32700000D03*
%TO.P,IC1,24,D22_24*%
%TO.N,D22*%
X118750000Y-32700000D03*
%TO.P,IC1,25,D23_25*%
%TO.N,GND*%
X118250000Y-32700000D03*
%TO.P,IC1,26,IOVCC@2_26*%
%TO.N,+3V3*%
X117750000Y-32700000D03*
%TO.P,IC1,27,D24_27*%
%TO.N,D24*%
X117250000Y-32700000D03*
%TO.P,IC1,28,D25_28*%
%TO.N,D25*%
X116750000Y-32700000D03*
%TO.P,IC1,29,GND@4_29*%
%TO.N,GND*%
X116750000Y-39960000D03*
%TO.P,IC1,30,D26_30*%
%TO.N,D26*%
X117250000Y-39960000D03*
%TO.P,IC1,31,CLKIN_31*%
%TO.N,L_CLKIN*%
X117750000Y-39960000D03*
%TO.P,IC1,32,~{SHTDN}_32*%
%TO.N,SHTDN*%
X118250000Y-39960000D03*
%TO.P,IC1,33,GND@5_33*%
%TO.N,GND*%
X118750000Y-39960000D03*
%TO.P,IC1,34,PLLVCC_34*%
%TO.N,+3V3*%
X119250000Y-39960000D03*
%TO.P,IC1,35,GND@6_35*%
%TO.N,GND*%
X119750000Y-39960000D03*
%TO.P,IC1,36,GND@7_36*%
X120250000Y-39960000D03*
%TO.P,IC1,37,Y3P_37*%
%TO.N,unconnected-(IC1-Y3P-Pad37)*%
X120750000Y-39960000D03*
%TO.P,IC1,38,Y3M_38*%
%TO.N,unconnected-(IC1-Y3M-Pad38)*%
X121250000Y-39960000D03*
%TO.P,IC1,39,CLCKOUTP_39*%
%TO.N,Net-(IC1-CLCKOUTP)*%
X121750000Y-39960000D03*
%TO.P,IC1,40,CLCKOUTM_40*%
%TO.N,Net-(IC1-CLCKOUTM)*%
X122250000Y-39960000D03*
%TO.P,IC1,41,Y2P_41*%
%TO.N,Net-(IC1-Y2P)*%
X122750000Y-39960000D03*
%TO.P,IC1,42,Y2M_42*%
%TO.N,Net-(IC1-Y2M)*%
X123250000Y-39960000D03*
%TO.P,IC1,43,GND@8_43*%
%TO.N,GND*%
X123750000Y-39960000D03*
%TO.P,IC1,44,LVDSVCC_44*%
%TO.N,+3V3*%
X124250000Y-39960000D03*
%TO.P,IC1,45,Y1P_45*%
%TO.N,Net-(IC1-Y1P)*%
X124750000Y-39960000D03*
%TO.P,IC1,46,Y1M_46*%
%TO.N,Net-(IC1-Y1M)*%
X125250000Y-39960000D03*
%TO.P,IC1,47,Y0P_47*%
%TO.N,Net-(IC1-Y0P)*%
X125750000Y-39960000D03*
%TO.P,IC1,48,Y0M_48*%
%TO.N,Net-(IC1-Y0M)*%
X126250000Y-39960000D03*
%TO.P,IC1,49,GND@9_49*%
%TO.N,GND*%
X126750000Y-39960000D03*
%TO.P,IC1,50,D27_50*%
X127250000Y-39960000D03*
%TO.P,IC1,51,D0_51*%
%TO.N,D0*%
X127750000Y-39960000D03*
%TO.P,IC1,52,D1_52*%
%TO.N,D1*%
X128250000Y-39960000D03*
%TO.P,IC1,53,GND@10_53*%
%TO.N,GND*%
X128750000Y-39960000D03*
%TO.P,IC1,54,D2_54*%
%TO.N,D2*%
X129250000Y-39960000D03*
%TO.P,IC1,55,D3_55*%
%TO.N,D3*%
X129750000Y-39960000D03*
%TO.P,IC1,56,D4_56*%
%TO.N,D4*%
X130250000Y-39960000D03*
%TD*%
D14*
%TO.P,RN2,1,R1.1_1*%
%TO.N,unconnected-(RN2-R1.1-Pad1)*%
X103100000Y-27800000D03*
D15*
%TO.P,RN2,2,R2.1_2*%
%TO.N,D2*%
X103100000Y-28600000D03*
%TO.P,RN2,3,R3.1_3*%
%TO.N,D1*%
X103100000Y-29400000D03*
D14*
%TO.P,RN2,4,R4.1_4*%
%TO.N,D14*%
X103100000Y-30200000D03*
%TO.P,RN2,5,R4.2_5*%
%TO.N,G5*%
X104900000Y-30200000D03*
D15*
%TO.P,RN2,6,R3.2_6*%
%TO.N,R1*%
X104900000Y-29400000D03*
%TO.P,RN2,7,R2.2_7*%
%TO.N,R2*%
X104900000Y-28600000D03*
D14*
%TO.P,RN2,8,R1.2_8*%
%TO.N,unconnected-(RN2-R1.2-Pad8)*%
X104900000Y-27800000D03*
%TD*%
%TO.P,RN6,1,R1.1_1*%
%TO.N,unconnected-(RN6-R1.1-Pad1)*%
X146100000Y-27800000D03*
D15*
%TO.P,RN6,2,R2.1_2*%
%TO.N,D6*%
X146100000Y-28600000D03*
%TO.P,RN6,3,R3.1_3*%
%TO.N,D4*%
X146100000Y-29400000D03*
D14*
%TO.P,RN6,4,R4.1_4*%
%TO.N,D3*%
X146100000Y-30200000D03*
%TO.P,RN6,5,R4.2_5*%
%TO.N,R3*%
X147900000Y-30200000D03*
D15*
%TO.P,RN6,6,R3.2_6*%
%TO.N,R4*%
X147900000Y-29400000D03*
%TO.P,RN6,7,R2.2_7*%
%TO.N,R5*%
X147900000Y-28600000D03*
D14*
%TO.P,RN6,8,R1.2_8*%
%TO.N,unconnected-(RN6-R1.2-Pad8)*%
X147900000Y-27800000D03*
%TD*%
D10*
%TO.P,C8,1*%
%TO.N,+2V5*%
X105637500Y-45000000D03*
%TO.P,C8,2*%
%TO.N,GND*%
X107362500Y-45000000D03*
%TD*%
D24*
%TO.P,JFFC1,1,3.3V_1*%
%TO.N,+3V3*%
X113750000Y-22710000D03*
%TO.P,JFFC1,2,5V_2*%
%TO.N,+5V*%
X114250000Y-22710000D03*
%TO.P,JFFC1,3,BCM2_SDA_3*%
%TO.N,VSYNC*%
X114750000Y-22710000D03*
%TO.P,JFFC1,4,5V_4*%
%TO.N,+5V*%
X115250000Y-22710000D03*
%TO.P,JFFC1,5,BCM3_SCL_5*%
%TO.N,HSYNC*%
X115750000Y-22710000D03*
%TO.P,JFFC1,6,GND_6*%
%TO.N,GND*%
X116250000Y-22710000D03*
%TO.P,JFFC1,7,BCM4_GPCLK0_7*%
%TO.N,B0*%
X116750000Y-22710000D03*
%TO.P,JFFC1,8,BCM14_TXD_8*%
%TO.N,G4*%
X117250000Y-22710000D03*
%TO.P,JFFC1,9,GND_9*%
%TO.N,GND*%
X117750000Y-22710000D03*
%TO.P,JFFC1,10,BCM15_RXD_10*%
%TO.N,G5*%
X118250000Y-22710000D03*
%TO.P,JFFC1,11,BCM17_11*%
%TO.N,R1*%
X118750000Y-22710000D03*
%TO.P,JFFC1,12,BCM18_PCM_C_12*%
%TO.N,R2*%
X119250000Y-22710000D03*
%TO.P,JFFC1,13,BCM27_13*%
%TO.N,EN*%
X119750000Y-22710000D03*
%TO.P,JFFC1,14,GND_14*%
%TO.N,GND*%
X120250000Y-22710000D03*
%TO.P,JFFC1,15,BCM22_15*%
%TO.N,GP22*%
X120750000Y-22710000D03*
%TO.P,JFFC1,16,BCM23_16*%
%TO.N,SDA*%
X121250000Y-22710000D03*
%TO.P,JFFC1,17,3.3V_17*%
%TO.N,PANEL_ID0*%
X121750000Y-22710000D03*
%TO.P,JFFC1,18,BCM24_18*%
%TO.N,SCL*%
X122250000Y-22710000D03*
%TO.P,JFFC1,19,BCM10_MOSI_19*%
%TO.N,G0*%
X122750000Y-22710000D03*
%TO.P,JFFC1,20,GND_20*%
%TO.N,GND*%
X123250000Y-22710000D03*
%TO.P,JFFC1,21,BCM9_MISO_21*%
%TO.N,B5*%
X123750000Y-22710000D03*
%TO.P,JFFC1,22,BCM25_22*%
%TO.N,GP25*%
X124250000Y-22710000D03*
%TO.P,JFFC1,23,BCM11_SCLK_23*%
%TO.N,G1*%
X124750000Y-22710000D03*
%TO.P,JFFC1,24,BCM8_CE0_24*%
%TO.N,B4*%
X125250000Y-22710000D03*
%TO.P,JFFC1,25,GND_25*%
%TO.N,GND*%
X125750000Y-22710000D03*
%TO.P,JFFC1,26,BCM7_CE1_26*%
%TO.N,B3*%
X126250000Y-22710000D03*
%TO.P,JFFC1,27,BCM0_ID_SD_27*%
%TO.N,CLKIN*%
X126750000Y-22710000D03*
%TO.P,JFFC1,28,BCM1_ID_SC_28*%
%TO.N,ENABLE*%
X127250000Y-22710000D03*
%TO.P,JFFC1,29,BCM5_29*%
%TO.N,B1*%
X127750000Y-22710000D03*
%TO.P,JFFC1,30,GND_30*%
%TO.N,GND*%
X128250000Y-22710000D03*
%TO.P,JFFC1,31,BCM6_31*%
%TO.N,B2*%
X128750000Y-22710000D03*
%TO.P,JFFC1,32,BCM12_PWM0_32*%
%TO.N,G2*%
X129250000Y-22710000D03*
%TO.P,JFFC1,33,BCM13_PWM1_33*%
%TO.N,G3*%
X129750000Y-22710000D03*
%TO.P,JFFC1,34,GND_34*%
%TO.N,PANEL_ID1*%
X130250000Y-22710000D03*
%TO.P,JFFC1,35,BCM19_MISO_PCM_FS_35*%
%TO.N,R3*%
X130750000Y-22710000D03*
%TO.P,JFFC1,36,BCM16_36*%
%TO.N,R0*%
X131250000Y-22710000D03*
%TO.P,JFFC1,37,BCM26_37*%
%TO.N,PWM*%
X131750000Y-22710000D03*
%TO.P,JFFC1,38,BCM20_MOSI_PCM_DI_38*%
%TO.N,R4*%
X132250000Y-22710000D03*
%TO.P,JFFC1,39,GND_39*%
%TO.N,LCD_INS*%
X132750000Y-22710000D03*
%TO.P,JFFC1,40,BCM21_SCLK_PCM_DO_40*%
%TO.N,R5*%
X133250000Y-22710000D03*
D25*
%TO.P,JFFC1,41*%
%TO.N,N/C*%
X114750000Y-28490000D03*
%TO.P,JFFC1,42*%
X117250000Y-28490000D03*
%TO.P,JFFC1,43*%
X119750000Y-28490000D03*
%TO.P,JFFC1,44*%
X122250000Y-28490000D03*
%TO.P,JFFC1,45*%
X124750000Y-28490000D03*
%TO.P,JFFC1,46*%
X127250000Y-28490000D03*
%TO.P,JFFC1,47*%
X129750000Y-28490000D03*
%TO.P,JFFC1,48*%
X132250000Y-28490000D03*
D26*
%TO.P,JFFC1,49*%
X134500000Y-27960000D03*
%TO.P,JFFC1,50*%
X112500000Y-27960000D03*
%TD*%
D16*
%TO.P,JP2,1,A_1*%
%TO.N,SHTDN*%
X149000000Y-34350000D03*
D17*
%TO.P,JP2,2,B_2*%
%TO.N,GND*%
X149000000Y-35650000D03*
%TD*%
D10*
%TO.P,C1,1*%
%TO.N,+3V3*%
X113337500Y-33000000D03*
%TO.P,C1,2*%
%TO.N,GND*%
X115062500Y-33000000D03*
%TD*%
D27*
%TO.P,R1,1*%
%TO.N,+3V3*%
X99500000Y-33087500D03*
%TO.P,R1,2*%
%TO.N,CLKSEL*%
X99500000Y-34912500D03*
%TD*%
D10*
%TO.P,C4,1*%
%TO.N,+2V5*%
X111637500Y-42200000D03*
%TO.P,C4,2*%
%TO.N,GND*%
X113362500Y-42200000D03*
%TD*%
D27*
%TO.P,R2,1*%
%TO.N,+3V3*%
X99500000Y-36587500D03*
%TO.P,R2,2*%
%TO.N,SHTDN*%
X99500000Y-38412500D03*
%TD*%
D28*
%TO.N,+3V3*%
X130363300Y-31442400D03*
X114163000Y-40161200D03*
D29*
X117750000Y-32000000D03*
X112600000Y-35500000D03*
D28*
X121000000Y-24600000D03*
X124713700Y-39030900D03*
X121088300Y-42933400D03*
D29*
X112900000Y-22900000D03*
D28*
X125207900Y-31125200D03*
D29*
%TO.N,GND*%
X122650000Y-42060000D03*
D28*
X123250000Y-23531400D03*
D29*
X129550000Y-41960000D03*
X120250000Y-41360000D03*
X121250000Y-39050000D03*
D28*
X120543000Y-23489000D03*
X117690000Y-23562500D03*
X125750000Y-23520100D03*
X116256000Y-34254100D03*
D29*
X121950000Y-41360000D03*
D28*
X116250000Y-23522400D03*
D29*
X126050000Y-33640100D03*
D28*
X128144000Y-23490200D03*
D29*
X122350000Y-31800000D03*
X124250000Y-31300000D03*
X142450000Y-43550000D03*
X123950000Y-39060000D03*
X120950000Y-35400000D03*
X122850000Y-35550000D03*
X128500000Y-31400000D03*
X122650000Y-29700000D03*
X117750000Y-41400000D03*
D28*
%TO.N,Net-(IC1-Y1M)*%
X127360000Y-41776000D03*
X125658000Y-39045400D03*
%TO.N,VCD6*%
X138379000Y-41438100D03*
X122724000Y-44616600D03*
%TO.N,VCD5*%
X123259000Y-47308000D03*
X138938000Y-40455800D03*
%TO.N,VCD4*%
X123300000Y-46656100D03*
X138016000Y-42838000D03*
%TO.N,VCD3*%
X123700000Y-43506400D03*
X140100000Y-40943200D03*
%TO.N,VCD2*%
X141250000Y-41097200D03*
X124337000Y-43811000D03*
D29*
%TO.N,+5V*%
X143750000Y-43700000D03*
X115250000Y-22810000D03*
X114250000Y-22810000D03*
D28*
%TO.N,PWM*%
X131750000Y-23443900D03*
X144250000Y-41074900D03*
%TO.N,EN*%
X119800000Y-24173500D03*
X145243000Y-41273300D03*
D29*
%TO.N,D18*%
X120900000Y-31600000D03*
X137200000Y-27800000D03*
D28*
%TO.N,G1*%
X123146000Y-24993500D03*
X139262000Y-31198200D03*
%TO.N,B1*%
X139225000Y-27250500D03*
X129340000Y-25267000D03*
%TO.N,+2V5*%
X114302000Y-42904200D03*
X109844000Y-42200000D03*
%TO.N,D12*%
X125147000Y-31791400D03*
X143000000Y-29305900D03*
%TO.N,D9*%
X141280000Y-29468600D03*
X127372000Y-31796500D03*
%TO.N,D19*%
X141304000Y-30627700D03*
X127209000Y-34209300D03*
%TO.N,B2*%
X128750000Y-24090700D03*
X144715000Y-30011300D03*
%TO.N,G2*%
X129856000Y-24585900D03*
X142720000Y-26063300D03*
%TO.N,CLKSEL*%
X100388000Y-34829500D03*
X122921000Y-33918800D03*
X143838000Y-34429100D03*
%TO.N,PANEL_ID0*%
X122100000Y-44200000D03*
X121980000Y-23711800D03*
%TO.N,PANEL_ID1*%
X123100000Y-44000000D03*
X130900000Y-25600000D03*
X130401000Y-23488600D03*
X128800000Y-30400000D03*
X130400000Y-28300000D03*
X130400000Y-25200000D03*
D29*
%TO.N,LCD_INS*%
X131199999Y-31450000D03*
D28*
X133834000Y-23385200D03*
X132900000Y-29600000D03*
X129500000Y-45600000D03*
X134600000Y-23300000D03*
%TO.N,D20*%
X119785000Y-31293700D03*
X107788000Y-27236400D03*
%TO.N,D7*%
X114727000Y-29980100D03*
X121170000Y-34345000D03*
%TO.N,B5*%
X109706000Y-29287600D03*
X111322000Y-25895200D03*
%TO.N,B4*%
X109710000Y-28498300D03*
X112174000Y-26391900D03*
%TO.N,B3*%
X113469000Y-26498600D03*
X109726000Y-27734800D03*
%TO.N,D13*%
X124339000Y-33661600D03*
X99849200Y-27131900D03*
D29*
%TO.N,D15*%
X123250000Y-31500000D03*
X98300000Y-28150000D03*
X118500000Y-30650000D03*
D28*
%TO.N,VSYNC*%
X105975000Y-23363900D03*
X101709000Y-30200000D03*
%TO.N,HSYNC*%
X104212000Y-25806200D03*
X115516000Y-23496100D03*
%TO.N,D6*%
X129449000Y-31435300D03*
X145280000Y-28895200D03*
D29*
%TO.N,D14*%
X124400000Y-29500000D03*
X103621000Y-31009000D03*
D28*
%TO.N,SHTDN*%
X118963000Y-38977700D03*
X147848000Y-34626800D03*
X100061000Y-37552300D03*
%TO.N,D1*%
X103916000Y-29400000D03*
X128370000Y-39049400D03*
%TO.N,D2*%
X129250000Y-39051600D03*
X102298000Y-28600000D03*
%TO.N,G5*%
X105704000Y-30200000D03*
X109012000Y-24743100D03*
%TO.N,R1*%
X104520000Y-27142400D03*
X118750000Y-24170900D03*
%TO.N,R3*%
X147559000Y-30853700D03*
X134617000Y-25194100D03*
%TD*%
%TO.N,+3V3*%
D30*
X130250000Y-31555700D02*
X130363300Y-31442400D01*
D31*
X113056000Y-35918000D02*
X113338000Y-36200000D01*
X113056000Y-33087500D02*
X113056000Y-35918000D01*
D30*
X119807500Y-42933400D02*
X121088300Y-42933400D01*
D31*
X101962000Y-36587500D02*
X103700000Y-34850000D01*
X100762000Y-40875200D02*
X100762000Y-36587500D01*
X113143000Y-33000000D02*
X113056000Y-33087500D01*
D30*
X126250000Y-32167300D02*
X125207900Y-31125200D01*
D31*
X113338000Y-39400000D02*
X114099000Y-40161200D01*
X114099000Y-40161200D02*
X114163000Y-40161200D01*
D30*
X119474800Y-42600700D02*
X119807500Y-42933400D01*
D31*
X98552100Y-35639600D02*
X99500000Y-36587500D01*
X99500000Y-33087500D02*
X113056000Y-33087500D01*
X100762000Y-36587500D02*
X101962000Y-36587500D01*
D30*
X119250000Y-41498000D02*
X119474800Y-41722800D01*
D31*
X100500000Y-41137500D02*
X100762000Y-40875200D01*
X98552100Y-34035400D02*
X98552100Y-35639600D01*
X99500000Y-33087500D02*
X98552100Y-34035400D01*
D30*
X124250000Y-39494600D02*
X124713700Y-39030900D01*
X126250000Y-32700000D02*
X126250000Y-32167300D01*
X119250000Y-39960000D02*
X119250000Y-41498000D01*
X117750000Y-32000000D02*
X117750000Y-32700000D01*
D31*
X99500000Y-36587500D02*
X100762000Y-36587500D01*
D30*
X119474800Y-41722800D02*
X119474800Y-42600700D01*
X124250000Y-39960000D02*
X124250000Y-39494600D01*
X113338000Y-33000000D02*
X112600000Y-35500000D01*
X113750000Y-22710000D02*
X112900000Y-22900000D01*
D31*
X113338000Y-39400000D02*
X113338000Y-36200000D01*
X113338000Y-33000000D02*
X113143000Y-33000000D01*
D30*
X130250000Y-32700000D02*
X130250000Y-31555700D01*
%TO.N,GND*%
D32*
X108300000Y-36308900D02*
X108300000Y-34850000D01*
X117378200Y-34508300D02*
X118250000Y-33636500D01*
D30*
X121850000Y-31800000D02*
X122350000Y-31800000D01*
X142650000Y-43350000D02*
X142450000Y-43550000D01*
D32*
X116510200Y-34508300D02*
X117378200Y-34508300D01*
X125750000Y-33329900D02*
X125945800Y-33525700D01*
X125750000Y-32700000D02*
X125750000Y-33329900D01*
X120250000Y-22710000D02*
X120250000Y-23386700D01*
X121674100Y-42676200D02*
X121197900Y-42200000D01*
D33*
X120500000Y-45630000D02*
X120500000Y-44778400D01*
D32*
X120500000Y-45630000D02*
X120500000Y-46531700D01*
X129750000Y-32700000D02*
X129750000Y-33334000D01*
X121084500Y-35106300D02*
X120083400Y-34105200D01*
X110562000Y-45000000D02*
X111355000Y-44207100D01*
X127977700Y-35106300D02*
X121084500Y-35106300D01*
X120250000Y-23386700D02*
X120441000Y-23386700D01*
X118750000Y-40593900D02*
X118538700Y-40805200D01*
X118250000Y-33636500D02*
X118250000Y-33504200D01*
X120250000Y-39960000D02*
X119750000Y-39960000D01*
X115062000Y-36200000D02*
X115062000Y-34254100D01*
X131800000Y-47000000D02*
X130798300Y-47000000D01*
X120250000Y-32700000D02*
X120250000Y-33337600D01*
X115062000Y-34254100D02*
X115062000Y-39400000D01*
X120901700Y-46444000D02*
X120901700Y-46443900D01*
X116190000Y-39400000D02*
X115062500Y-39400000D01*
X116250000Y-22710000D02*
X116250000Y-23522400D01*
X118250000Y-32700000D02*
X118250000Y-33504200D01*
X103500000Y-45862500D02*
X106500000Y-45862500D01*
X118538700Y-40805200D02*
X116750000Y-40805200D01*
X129918500Y-47879800D02*
X130798300Y-47000000D01*
D30*
X125950000Y-38460000D02*
X124850000Y-38460000D01*
X121750000Y-31900000D02*
X121850000Y-31800000D01*
D32*
X116034000Y-41371400D02*
X113362000Y-41371400D01*
X113362000Y-42200000D02*
X113362000Y-41371400D01*
D30*
X128750000Y-39960000D02*
X128750000Y-41160000D01*
D32*
X128247000Y-23386700D02*
X128144000Y-23490200D01*
D30*
X124650000Y-38360000D02*
X124550000Y-38460000D01*
D32*
X116600200Y-40805200D02*
X116034000Y-41371400D01*
X111355000Y-44207100D02*
X113362000Y-42200000D01*
X115200000Y-47000000D02*
X114148000Y-47000000D01*
X118750000Y-39960000D02*
X118750000Y-40593900D01*
X106500000Y-45862500D02*
X107362000Y-45000000D01*
D30*
X124450000Y-38460000D02*
X124150000Y-38760000D01*
D32*
X121197900Y-42200000D02*
X120362500Y-42200000D01*
X120250000Y-42087500D02*
X120250000Y-39960000D01*
X116750000Y-39960000D02*
X116190000Y-39400000D01*
X127250000Y-39960000D02*
X126750000Y-39960000D01*
D30*
X124550000Y-38460000D02*
X124450000Y-38460000D01*
D32*
X117750000Y-23502200D02*
X117690000Y-23562500D01*
D30*
X128250000Y-31800000D02*
X128500000Y-31800000D01*
X120250000Y-32700000D02*
X120250000Y-34700000D01*
D33*
X120100000Y-44778400D02*
X120500000Y-44778400D01*
D32*
X125945800Y-33525700D02*
X126564400Y-33525700D01*
X116256000Y-34254100D02*
X116510200Y-34508300D01*
X107362000Y-45000000D02*
X110562000Y-45000000D01*
D30*
X124150000Y-38860000D02*
X123950000Y-39060000D01*
D32*
X121674100Y-43604300D02*
X121674100Y-42676200D01*
D33*
X120100000Y-45630000D02*
X120100000Y-44778400D01*
D30*
X128500000Y-31800000D02*
X128500000Y-31400000D01*
D32*
X120362500Y-42200000D02*
X120250000Y-42087500D01*
D30*
X122750000Y-32700000D02*
X122750000Y-31800000D01*
X122650000Y-31700000D02*
X122650000Y-29700000D01*
X120250000Y-39960000D02*
X120250000Y-41360000D01*
D32*
X125846200Y-38451800D02*
X124422000Y-38451800D01*
D30*
X126650000Y-39060000D02*
X126550000Y-39060000D01*
D32*
X116750000Y-39960000D02*
X116750000Y-40805200D01*
X120952600Y-46443900D02*
X122388500Y-47879800D01*
X149000000Y-35650000D02*
X145000000Y-35650000D01*
X124422000Y-38451800D02*
X123750000Y-39123800D01*
X120441000Y-23386700D02*
X120543000Y-23489000D01*
X116034000Y-41371400D02*
X116862000Y-42200000D01*
D30*
X120250000Y-34700000D02*
X120950000Y-35400000D01*
D32*
X120083400Y-33504200D02*
X118250000Y-33504200D01*
D30*
X126150000Y-33540100D02*
X126050000Y-33640100D01*
D32*
X123750000Y-39960000D02*
X123750000Y-39123800D01*
D30*
X124750000Y-38360000D02*
X124650000Y-38360000D01*
D32*
X120500000Y-46531700D02*
X120814000Y-46531700D01*
X128250000Y-22710000D02*
X128250000Y-23386700D01*
X120250000Y-33337600D02*
X120083400Y-33504200D01*
X120460600Y-39123800D02*
X120250000Y-39334400D01*
X125750000Y-22710000D02*
X125750000Y-23520100D01*
X113362000Y-41371400D02*
X108300000Y-36308900D01*
X126750000Y-39355600D02*
X125846200Y-38451800D01*
X116750000Y-40805200D02*
X116600200Y-40805200D01*
X114148000Y-47000000D02*
X111355000Y-44207100D01*
D30*
X118750000Y-40600000D02*
X117750000Y-41400000D01*
D32*
X120901700Y-46443900D02*
X120952600Y-46443900D01*
X116256000Y-34254100D02*
X115062000Y-34254100D01*
D30*
X126750000Y-33340100D02*
X126750000Y-33540100D01*
D32*
X120250000Y-39334400D02*
X120250000Y-39960000D01*
D30*
X143250000Y-43150000D02*
X143050000Y-43350000D01*
D32*
X143250000Y-37400000D02*
X145000000Y-35650000D01*
D30*
X128250000Y-32700000D02*
X128250000Y-31800000D01*
X126750000Y-33540100D02*
X126150000Y-33540100D01*
X121750000Y-32700000D02*
X121750000Y-31900000D01*
X127250000Y-39660000D02*
X126650000Y-39060000D01*
D32*
X120500000Y-44778400D02*
X121674100Y-43604300D01*
D30*
X143250000Y-42150000D02*
X143250000Y-43150000D01*
D32*
X116862500Y-42200000D02*
X116862000Y-42200000D01*
D30*
X118750000Y-39960000D02*
X118750000Y-40600000D01*
D32*
X115062500Y-36200000D02*
X115062000Y-36200000D01*
D30*
X127250000Y-39960000D02*
X127250000Y-39660000D01*
D32*
X120814000Y-46531700D02*
X120901700Y-46444000D01*
D33*
X120898100Y-45630000D02*
X120900000Y-45630000D01*
D32*
X126750000Y-39960000D02*
X126750000Y-39355600D01*
X115062500Y-33000000D02*
X115062000Y-33000000D01*
D30*
X124250000Y-32700000D02*
X124250000Y-31300000D01*
X126550000Y-39060000D02*
X125950000Y-38460000D01*
D32*
X100500000Y-42862500D02*
X103500000Y-45862500D01*
X123750000Y-39123800D02*
X120460600Y-39123800D01*
D30*
X124850000Y-38460000D02*
X124750000Y-38360000D01*
D32*
X120083400Y-34105200D02*
X120083400Y-33504200D01*
X129750000Y-33334000D02*
X127977700Y-35106300D01*
D30*
X124150000Y-38760000D02*
X124150000Y-38860000D01*
D32*
X115062000Y-33000000D02*
X115062000Y-34254100D01*
X128250000Y-23386700D02*
X128247000Y-23386700D01*
X126750000Y-33340100D02*
X126750000Y-32700000D01*
X126564400Y-33525700D02*
X126750000Y-33340100D01*
X143250000Y-42150000D02*
X143250000Y-37400000D01*
X120500000Y-45630000D02*
X120898100Y-45630000D01*
X122388500Y-47879800D02*
X129918500Y-47879800D01*
D30*
X143050000Y-43350000D02*
X142650000Y-43350000D01*
X121950000Y-41360000D02*
X122650000Y-42060000D01*
D32*
X117750000Y-22710000D02*
X117750000Y-23502200D01*
D30*
X128750000Y-41160000D02*
X129550000Y-41960000D01*
D32*
X123250000Y-23531400D02*
X123250000Y-22710000D01*
D30*
X122750000Y-31800000D02*
X122650000Y-31700000D01*
%TO.N,Net-(IC1-Y1P)*%
X124982000Y-40749900D02*
X124750000Y-40518000D01*
X126987000Y-42523300D02*
X125214000Y-40749900D01*
X127849900Y-43025000D02*
X127850000Y-43025000D01*
X125214000Y-40749900D02*
X124982000Y-40749900D01*
X124750000Y-40518000D02*
X124750000Y-39960000D01*
X127850000Y-42523300D02*
X126987000Y-42523300D01*
X127850000Y-43025000D02*
X127850000Y-42523300D01*
%TO.N,RX1+*%
X127700000Y-44626600D02*
X127700000Y-45630000D01*
X127850000Y-43975000D02*
X127850000Y-44476700D01*
X127850000Y-44476700D02*
X127700000Y-44626600D01*
X127849900Y-43975000D02*
X127850000Y-43975000D01*
%TO.N,Net-(IC1-Y1M)*%
X125250000Y-39453500D02*
X125658000Y-39045400D01*
X128350000Y-43025000D02*
X128350000Y-42523300D01*
X128350100Y-43025000D02*
X128350000Y-43025000D01*
X128350000Y-42523300D02*
X127603000Y-41776000D01*
X127603000Y-41776000D02*
X127360000Y-41776000D01*
X125250000Y-39960000D02*
X125250000Y-39453500D01*
%TO.N,RX1-*%
X128100000Y-45630000D02*
X128100000Y-44678900D01*
X128100000Y-44678900D02*
X128350000Y-44428800D01*
X128350000Y-44428800D02*
X128350000Y-43975000D01*
X128350100Y-43975000D02*
X128350000Y-43975000D01*
%TO.N,Net-(IC1-Y0P)*%
X127369000Y-41042700D02*
X126336000Y-41042700D01*
X125750000Y-40456400D02*
X125750000Y-39960000D01*
X126336000Y-41042700D02*
X125750000Y-40456400D01*
X128850000Y-43025000D02*
X128850000Y-42523300D01*
X128850000Y-42523300D02*
X127369000Y-41042700D01*
%TO.N,RX0+*%
X128500000Y-45630000D02*
X128500000Y-44705600D01*
X128849900Y-43975000D02*
X128850000Y-43975000D01*
X128850000Y-44476700D02*
X128850000Y-43975000D01*
X128500000Y-44705600D02*
X128729000Y-44476700D01*
X128729000Y-44476700D02*
X128850000Y-44476700D01*
%TO.N,Net-(IC1-Y0M)*%
X127568000Y-40741000D02*
X129350000Y-42523300D01*
X126480000Y-40741000D02*
X126250000Y-40511400D01*
X126250000Y-40511400D02*
X126250000Y-39960000D01*
X129350100Y-43025000D02*
X129350000Y-43025000D01*
X126480000Y-40741000D02*
X127568000Y-40741000D01*
X129350000Y-43025000D02*
X129350000Y-42523300D01*
%TO.N,RX0-*%
X129024000Y-44803300D02*
X128900000Y-44803300D01*
X128900000Y-45630000D02*
X128900000Y-44803300D01*
X129350000Y-44476700D02*
X129024000Y-44803300D01*
X129350000Y-43975000D02*
X129350000Y-44476700D01*
%TO.N,VCD6*%
X138544000Y-41273300D02*
X138379000Y-41438100D01*
X122500000Y-44803300D02*
X122537000Y-44803300D01*
X139250000Y-41273300D02*
X138544000Y-41273300D01*
X139250000Y-42150000D02*
X139250000Y-41273300D01*
X122537000Y-44803300D02*
X122724000Y-44616600D01*
X122500000Y-45630000D02*
X122500000Y-44803300D01*
%TO.N,VCD5*%
X122793000Y-46841700D02*
X123259000Y-47308000D01*
X122900000Y-45630000D02*
X122900000Y-46250600D01*
X122793000Y-46358000D02*
X122793000Y-46841700D01*
X139750000Y-41267300D02*
X139750000Y-42150000D01*
X138938000Y-40455800D02*
X139750000Y-41267300D01*
X122900000Y-46250600D02*
X122793000Y-46358000D01*
%TO.N,VCD4*%
X138204000Y-43026700D02*
X138016000Y-42838000D01*
X140250000Y-42150000D02*
X140250000Y-43026700D01*
X123300000Y-46656100D02*
X123300000Y-45630000D01*
X140250000Y-43026700D02*
X138204000Y-43026700D01*
%TO.N,VCD3*%
X140420000Y-40943200D02*
X140100000Y-40943200D01*
X140750000Y-42150000D02*
X140750000Y-41273300D01*
X123700000Y-45630000D02*
X123700000Y-43506400D01*
X140750000Y-41273300D02*
X140420000Y-40943200D01*
%TO.N,VCD2*%
X124100000Y-44048200D02*
X124337000Y-43811000D01*
X141250000Y-41097200D02*
X141250000Y-42150000D01*
X124100000Y-45630000D02*
X124100000Y-44048200D01*
%TO.N,VCD1*%
X129820000Y-46758400D02*
X133250000Y-43328400D01*
X141750000Y-43026700D02*
X141750000Y-42150000D01*
X124802000Y-46758400D02*
X129820000Y-46758400D01*
X133250000Y-43328400D02*
X140375000Y-43328400D01*
X124500000Y-45630000D02*
X124500000Y-46456700D01*
X140677000Y-43026800D02*
X140677000Y-43026700D01*
X140677000Y-43026700D02*
X141750000Y-43026700D01*
X140375000Y-43328400D02*
X140677000Y-43026800D01*
X124500000Y-46456700D02*
X124802000Y-46758400D01*
%TO.N,VAD*%
X117700000Y-46456700D02*
X119520000Y-48276700D01*
X142250000Y-42150000D02*
X142250000Y-43026700D01*
X117700000Y-46456700D02*
X117700000Y-45630000D01*
X118100000Y-44803300D02*
X118100000Y-45630000D01*
X142250000Y-43026700D02*
X137000000Y-48276700D01*
X137000000Y-48276700D02*
X119520000Y-48276700D01*
X118100000Y-44803300D02*
X117700000Y-44803300D01*
X117700000Y-45630000D02*
X117700000Y-44803300D01*
%TO.N,+5V*%
X115250000Y-22710000D02*
X115250000Y-22810000D01*
X143750000Y-43700000D02*
X143750000Y-42150000D01*
X114250000Y-22710000D02*
X114250000Y-22810000D01*
%TO.N,PWM*%
X131750000Y-22710000D02*
X131750000Y-23443900D01*
X144250000Y-42150000D02*
X144250000Y-41074900D01*
%TO.N,EN*%
X119800000Y-23311800D02*
X119800000Y-24173500D01*
X144750000Y-41273300D02*
X144750000Y-42150000D01*
X119750000Y-23261700D02*
X119800000Y-23311800D01*
X119750000Y-22710000D02*
X119750000Y-23261700D01*
X145243000Y-41273300D02*
X144750000Y-41273300D01*
%TO.N,D18*%
X138100000Y-27800000D02*
X137200000Y-27800000D01*
X120900000Y-31600000D02*
X121250000Y-31600000D01*
X121250000Y-31600000D02*
X121250000Y-32700000D01*
%TO.N,L_CLKIN*%
X139028000Y-28901700D02*
X139028000Y-30732600D01*
X120287000Y-36866300D02*
X117750000Y-39403100D01*
X139028000Y-30732600D02*
X138174000Y-31586700D01*
X128338000Y-36866300D02*
X120287000Y-36866300D01*
X138174000Y-31586700D02*
X133617000Y-31586700D01*
X117750000Y-39403100D02*
X117750000Y-39960000D01*
X133617000Y-31586700D02*
X128338000Y-36866300D01*
X138727000Y-28600000D02*
X139028000Y-28901700D01*
X138100000Y-28600000D02*
X138727000Y-28600000D01*
%TO.N,D26*%
X127967000Y-36033600D02*
X132821000Y-31179100D01*
X138155000Y-31179100D02*
X138727000Y-30607600D01*
X138100000Y-29400000D02*
X138727000Y-29400000D01*
X120625000Y-36033600D02*
X127967000Y-36033600D01*
X132821000Y-31179100D02*
X138155000Y-31179100D01*
X138727000Y-30607600D02*
X138727000Y-29400000D01*
X117250000Y-39960000D02*
X117250000Y-39408900D01*
X117250000Y-39408900D02*
X120625000Y-36033600D01*
%TO.N,D8*%
X137473000Y-30200100D02*
X137473000Y-30200000D01*
X138100000Y-30200000D02*
X137473000Y-30200000D01*
X129705000Y-30200100D02*
X137473000Y-30200100D01*
X129705000Y-29800000D02*
X129705000Y-30200100D01*
X127750000Y-32700000D02*
X127750000Y-32200000D01*
X127750000Y-32200000D02*
X127900000Y-32049999D01*
X127900000Y-32049999D02*
X127900000Y-29800000D01*
X127900000Y-29800000D02*
X129705000Y-29800000D01*
%TO.N,G1*%
X139900000Y-30559900D02*
X139900000Y-30200000D01*
X123146000Y-24865600D02*
X123146000Y-24993500D01*
X139262000Y-31198200D02*
X139900000Y-30559900D01*
X124750000Y-22710000D02*
X124750000Y-23261700D01*
X124750000Y-23261700D02*
X123146000Y-24865600D01*
%TO.N,ENABLE*%
X140527000Y-28893900D02*
X140527000Y-27426800D01*
X139289000Y-26189000D02*
X129588000Y-26189000D01*
X140021000Y-29400000D02*
X140527000Y-28893900D01*
X139900000Y-29400000D02*
X140021000Y-29400000D01*
X127250000Y-23851200D02*
X127250000Y-22710000D01*
X140527000Y-27426800D02*
X139289000Y-26189000D01*
X129588000Y-26189000D02*
X127250000Y-23851200D01*
%TO.N,CLKIN*%
X139900000Y-28600000D02*
X139273000Y-28600000D01*
X126750000Y-23777900D02*
X129585000Y-26612600D01*
X126750000Y-22710000D02*
X126750000Y-23777900D01*
X139273000Y-27985700D02*
X139273000Y-28600000D01*
X129585000Y-26612600D02*
X137900000Y-26612600D01*
X137900000Y-26612600D02*
X139273000Y-27985700D01*
%TO.N,B1*%
X139225000Y-27250500D02*
X139774000Y-27800000D01*
X139774000Y-27800000D02*
X139900000Y-27800000D01*
X129173000Y-25267000D02*
X129340000Y-25267000D01*
X127617000Y-22843100D02*
X127617000Y-23710600D01*
X127617000Y-23710600D02*
X129173000Y-25267000D01*
X127750000Y-22710000D02*
X127617000Y-22843100D01*
%TO.N,+2V5*%
X118900000Y-45630000D02*
X118900000Y-44803300D01*
D31*
X106000000Y-34850000D02*
X106000000Y-41150000D01*
X105638000Y-43612500D02*
X107050000Y-42200000D01*
X119300000Y-43812400D02*
X118638000Y-43149900D01*
D30*
X119100100Y-44803300D02*
X119300000Y-45003200D01*
X119300000Y-45003200D02*
X119300000Y-45630000D01*
X119300000Y-45003200D02*
X119300000Y-44803300D01*
D31*
X116087000Y-43149900D02*
X118638000Y-43149900D01*
D30*
X118900000Y-44803300D02*
X119100100Y-44803300D01*
D31*
X114302000Y-42904200D02*
X114433000Y-42904200D01*
X118638000Y-43149900D02*
X118638000Y-42200000D01*
X109844000Y-42200000D02*
X107050000Y-42200000D01*
D30*
X105637500Y-45000000D02*
X105638000Y-45000000D01*
D31*
X111638000Y-42200000D02*
X109844000Y-42200000D01*
X106000000Y-41150000D02*
X107050000Y-42200000D01*
D30*
X118637500Y-42200000D02*
X118638000Y-42200000D01*
D31*
X114433000Y-42904200D02*
X115138000Y-42200000D01*
D30*
X119700000Y-45630000D02*
X119700000Y-44803300D01*
D31*
X115138000Y-42200000D02*
X116087000Y-43149900D01*
X119300000Y-45630000D02*
X119300000Y-43812400D01*
D30*
X119700000Y-44803300D02*
X119300000Y-44803300D01*
D31*
X105638000Y-45000000D02*
X105638000Y-43612500D01*
%TO.N,D0*%
D30*
X140529000Y-30605000D02*
X139178000Y-31955600D01*
X141473000Y-28374000D02*
X140529000Y-29318200D01*
X139178000Y-31955600D02*
X134773000Y-31955600D01*
X134773000Y-31955600D02*
X127750000Y-38978500D01*
X142100000Y-27800000D02*
X141473000Y-27800000D01*
X127750000Y-38978500D02*
X127750000Y-39960000D01*
X141473000Y-27800000D02*
X141473000Y-28374000D01*
X140529000Y-29318200D02*
X140529000Y-30605000D01*
%TO.N,D12*%
X142100000Y-28600000D02*
X142727000Y-28600000D01*
X125250000Y-32700000D02*
X125147000Y-32597400D01*
X142727000Y-29032600D02*
X143000000Y-29305900D01*
X142727000Y-28600000D02*
X142727000Y-29032600D01*
X125147000Y-32597400D02*
X125147000Y-31791400D01*
%TO.N,D9*%
X141473000Y-29400000D02*
X142100000Y-29400000D01*
X141405000Y-29468600D02*
X141473000Y-29400000D01*
X127250000Y-31918600D02*
X127372000Y-31796500D01*
X127250000Y-32700000D02*
X127250000Y-31918600D01*
X141280000Y-29468600D02*
X141405000Y-29468600D01*
%TO.N,D19*%
X127023000Y-34395500D02*
X127209000Y-34209300D01*
X121955000Y-34395500D02*
X127023000Y-34395500D01*
X141473000Y-30200000D02*
X141473000Y-30458400D01*
X141473000Y-30458400D02*
X141304000Y-30627700D01*
X120750000Y-33190600D02*
X121955000Y-34395500D01*
X142100000Y-30200000D02*
X141473000Y-30200000D01*
X120750000Y-32700000D02*
X120750000Y-33190600D01*
%TO.N,B2*%
X144527000Y-30200000D02*
X143900000Y-30200000D01*
X144715000Y-30011300D02*
X144527000Y-30200000D01*
X128750000Y-22710000D02*
X128750000Y-24090700D01*
%TO.N,G2*%
X143176000Y-26063300D02*
X142720000Y-26063300D01*
X144527000Y-27414200D02*
X143176000Y-26063300D01*
X144527000Y-29400000D02*
X144527000Y-27414200D01*
X129856000Y-24585900D02*
X129250000Y-23979400D01*
X129250000Y-23979400D02*
X129250000Y-22710000D01*
X143900000Y-29400000D02*
X144527000Y-29400000D01*
%TO.N,G3*%
X142972000Y-28298300D02*
X142972000Y-27683900D01*
X129750000Y-23647000D02*
X129750000Y-22710000D01*
X131776000Y-25672500D02*
X129750000Y-23647000D01*
X140960000Y-25672500D02*
X131776000Y-25672500D01*
X143273000Y-28600000D02*
X142972000Y-28298300D01*
X143900000Y-28600000D02*
X143273000Y-28600000D01*
X142972000Y-27683900D02*
X140960000Y-25672500D01*
%TO.N,R0*%
X131265000Y-22725000D02*
X131250000Y-22710000D01*
X143900000Y-27800000D02*
X143273000Y-27800000D01*
X143273000Y-27479900D02*
X140345000Y-24551400D01*
X132173000Y-24551400D02*
X131265000Y-23643100D01*
X143273000Y-27800000D02*
X143273000Y-27479900D01*
X131265000Y-23643100D02*
X131265000Y-22725000D01*
X140345000Y-24551400D02*
X132173000Y-24551400D01*
%TO.N,CLKSEL*%
X122921000Y-33918800D02*
X122250000Y-33248000D01*
X143917000Y-34350000D02*
X143838000Y-34429100D01*
X99500000Y-34912500D02*
X99583000Y-34829500D01*
X122250000Y-33248000D02*
X122250000Y-32700000D01*
X99583000Y-34829500D02*
X100388000Y-34829500D01*
X145000000Y-34350000D02*
X143917000Y-34350000D01*
%TO.N,PANEL_ID0*%
D34*
X121350000Y-45550000D02*
X121399999Y-45500000D01*
X122000000Y-44250000D02*
X122050000Y-44250000D01*
X121300000Y-45630000D02*
X121350000Y-45600000D01*
X121399999Y-44850000D02*
X122000000Y-44250000D01*
X121350000Y-45600000D02*
X121350000Y-45550000D01*
D31*
X121754000Y-23485200D02*
X121980000Y-23711800D01*
D35*
X121750000Y-23485200D02*
X121750000Y-22710000D01*
D34*
X121399999Y-45500000D02*
X121399999Y-44850000D01*
D31*
X121750000Y-23485200D02*
X121754000Y-23485200D01*
D34*
X122050000Y-44250000D02*
X122100000Y-44200000D01*
%TO.N,PANEL_ID1*%
X129949999Y-45400000D02*
X129699999Y-45150000D01*
X123500000Y-43100000D02*
X123449999Y-43100000D01*
X123300000Y-43300000D02*
X123250000Y-43350000D01*
X123149999Y-43950000D02*
X123100000Y-44000000D01*
D32*
X130250000Y-23386700D02*
X130299000Y-23386700D01*
D34*
X123899999Y-43100000D02*
X123850000Y-43050000D01*
X123199999Y-43750000D02*
X123199999Y-43800000D01*
X130000000Y-45600000D02*
X129949999Y-45550000D01*
X124699999Y-43500000D02*
X124600000Y-43400000D01*
X129949999Y-45800000D02*
X129949999Y-45650000D01*
X123550000Y-43050000D02*
X123500000Y-43100000D01*
X123300000Y-43250000D02*
X123300000Y-43300000D01*
X129600000Y-46150000D02*
X129949999Y-45800000D01*
D32*
X130299000Y-23386700D02*
X130401000Y-23488600D01*
D34*
X125699999Y-46350000D02*
X125800000Y-46450000D01*
D32*
X130250000Y-22710000D02*
X130250000Y-23386700D01*
D34*
X124550000Y-43400000D02*
X124500000Y-43350000D01*
X123199999Y-43800000D02*
X123149999Y-43850000D01*
X123149999Y-43850000D02*
X123149999Y-43950000D01*
X124199999Y-43350000D02*
X123949999Y-43100000D01*
X123949999Y-43100000D02*
X123899999Y-43100000D01*
X123449999Y-43100000D02*
X123300000Y-43250000D01*
X125700000Y-45630000D02*
X125699999Y-46350000D01*
X124500000Y-43350000D02*
X124199999Y-43350000D01*
X129699999Y-45150000D02*
X129699999Y-43500000D01*
X129949999Y-45550000D02*
X129949999Y-45400000D01*
X123250000Y-43350000D02*
X123250000Y-43700000D01*
X125800000Y-46450000D02*
X129600000Y-46450000D01*
X129949999Y-45650000D02*
X130000000Y-45600000D01*
X123850000Y-43050000D02*
X123550000Y-43050000D01*
X129600000Y-46450000D02*
X129600000Y-46150000D01*
X129699999Y-43500000D02*
X124699999Y-43500000D01*
X124600000Y-43400000D02*
X124550000Y-43400000D01*
X123250000Y-43700000D02*
X123199999Y-43750000D01*
%TO.N,RXCLK+*%
D36*
X126100000Y-44950000D02*
X126100000Y-45630000D01*
X125049900Y-43975000D02*
X125049900Y-44300000D01*
X125049900Y-44300000D02*
X126100000Y-44950000D01*
%TO.N,RXCLK-*%
X125550100Y-44300000D02*
X126500000Y-44950000D01*
X126500000Y-44950000D02*
X126500000Y-45630000D01*
X125550100Y-43975000D02*
X125550100Y-44300000D01*
%TO.N,RX2+*%
X126049900Y-44300000D02*
X126900000Y-44950000D01*
X126900000Y-44950000D02*
X126900000Y-45630000D01*
X126049900Y-43975000D02*
X126049900Y-44300000D01*
%TO.N,RX2-*%
X126550100Y-43975000D02*
X126550100Y-44300000D01*
X126550100Y-44300000D02*
X127300000Y-44950000D01*
X127300000Y-44950000D02*
X127300000Y-45630000D01*
%TO.N,LCD_INS*%
D34*
X129450000Y-45650000D02*
X129500000Y-45600000D01*
D32*
X132750000Y-22710000D02*
X132750000Y-23110200D01*
D34*
X129350000Y-45650000D02*
X129450000Y-45650000D01*
D35*
X133013000Y-23385200D02*
X132750000Y-23121900D01*
X132750000Y-23121900D02*
X132750000Y-23110200D01*
D32*
X133725000Y-23385200D02*
X133834000Y-23385200D01*
D34*
X129300000Y-45630000D02*
X129350000Y-45650000D01*
D35*
X133725000Y-23385200D02*
X133013000Y-23385200D01*
%TO.N,D20*%
D30*
X107727000Y-27297800D02*
X107727000Y-27800000D01*
X119750000Y-31328300D02*
X119785000Y-31293700D01*
X107788000Y-27236400D02*
X107727000Y-27297800D01*
X119750000Y-32700000D02*
X119750000Y-31328300D01*
X107100000Y-27800000D02*
X107727000Y-27800000D01*
%TO.N,D21*%
X108273000Y-27436500D02*
X108273000Y-28053400D01*
X109923000Y-27258100D02*
X108452000Y-27258100D01*
X108273000Y-28053400D02*
X107727000Y-28600000D01*
X119250000Y-32188700D02*
X116278000Y-29216700D01*
X116278000Y-29216700D02*
X111882000Y-29216700D01*
X111882000Y-29216700D02*
X109923000Y-27258100D01*
X108452000Y-27258100D02*
X108273000Y-27436500D01*
X107727000Y-28600000D02*
X107100000Y-28600000D01*
X119250000Y-32700000D02*
X119250000Y-32188700D01*
%TO.N,D22*%
X117818000Y-31197800D02*
X108874000Y-31197800D01*
X118750000Y-32129500D02*
X117818000Y-31197800D01*
X107727000Y-29400000D02*
X107100000Y-29400000D01*
X118750000Y-32700000D02*
X118750000Y-32129500D01*
X107727000Y-30051000D02*
X107727000Y-29400000D01*
X108874000Y-31197800D02*
X107727000Y-30051000D01*
%TO.N,G0*%
X106473000Y-27432200D02*
X108384000Y-25521500D01*
X122507000Y-23504400D02*
X122750000Y-23261700D01*
X122750000Y-22710000D02*
X122750000Y-23261700D01*
X107100000Y-30200000D02*
X106473000Y-30200000D01*
X109437000Y-25418400D02*
X121019000Y-25418400D01*
X108384000Y-25521500D02*
X109334000Y-25521500D01*
X121019000Y-25418400D02*
X122507000Y-23930000D01*
X122507000Y-23930000D02*
X122507000Y-23504400D01*
X109334000Y-25521500D02*
X109437000Y-25418400D01*
X106473000Y-30200000D02*
X106473000Y-27432200D01*
%TO.N,D7*%
X109527000Y-30200000D02*
X109747000Y-29980100D01*
X114727000Y-29980100D02*
X109747000Y-29980100D01*
X128750000Y-33342800D02*
X128750000Y-32700000D01*
X127396000Y-34697200D02*
X128750000Y-33342800D01*
X121522000Y-34697200D02*
X127396000Y-34697200D01*
X121170000Y-34345000D02*
X121522000Y-34697200D01*
X108900000Y-30200000D02*
X109527000Y-30200000D01*
%TO.N,B5*%
X111497000Y-25720100D02*
X121745000Y-25720100D01*
X123040000Y-24516800D02*
X123818000Y-23738900D01*
X123818000Y-23738900D02*
X123818000Y-23329300D01*
X108900000Y-29400000D02*
X109527000Y-29400000D01*
X123750000Y-22710000D02*
X123750000Y-23261700D01*
X109527000Y-29400000D02*
X109639000Y-29287600D01*
X109639000Y-29287600D02*
X109706000Y-29287600D01*
X111322000Y-25895200D02*
X111497000Y-25720100D01*
X122949000Y-24516800D02*
X123040000Y-24516800D01*
X121745000Y-25720100D02*
X122949000Y-24516800D01*
X123818000Y-23329300D02*
X123750000Y-23261700D01*
%TO.N,B4*%
X125250000Y-22710000D02*
X125250000Y-23261700D01*
X123623000Y-25191000D02*
X123623000Y-24888900D01*
X109628000Y-28498300D02*
X109527000Y-28600000D01*
X112544000Y-26021800D02*
X122792000Y-26021800D01*
X123623000Y-24888900D02*
X125250000Y-23261700D01*
X109710000Y-28498300D02*
X109628000Y-28498300D01*
X122792000Y-26021800D02*
X123623000Y-25191000D01*
X112174000Y-26391900D02*
X112544000Y-26021800D01*
X109527000Y-28600000D02*
X108900000Y-28600000D01*
%TO.N,B3*%
X109726000Y-27734800D02*
X109592000Y-27734800D01*
X109527000Y-27800000D02*
X109592000Y-27734800D01*
X126318000Y-23329900D02*
X126318000Y-23712000D01*
X126250000Y-22710000D02*
X126250000Y-23261700D01*
X123532000Y-26498600D02*
X113469000Y-26498600D01*
X126318000Y-23712000D02*
X123532000Y-26498600D01*
X108900000Y-27800000D02*
X109527000Y-27800000D01*
X126250000Y-23261700D02*
X126318000Y-23329900D01*
%TO.N,D13*%
X99849200Y-27677500D02*
X99726700Y-27800000D01*
X99100000Y-27800000D02*
X99726700Y-27800000D01*
X99849200Y-27131900D02*
X99849200Y-27677500D01*
X124750000Y-32700000D02*
X124750000Y-33250200D01*
X124750000Y-33250200D02*
X124339000Y-33661600D01*
%TO.N,D15*%
X99100000Y-28600000D02*
X99000000Y-28550000D01*
X98699999Y-28550000D02*
X98300000Y-28150000D01*
X123250000Y-31500000D02*
X123250000Y-32700000D01*
X99000000Y-28550000D02*
X98699999Y-28550000D01*
%TO.N,D24*%
X99726700Y-30012200D02*
X99726700Y-29400000D01*
X101498000Y-31783300D02*
X99726700Y-30012200D01*
X116880000Y-31783300D02*
X101498000Y-31783300D01*
X99726700Y-29400000D02*
X99100000Y-29400000D01*
X117250000Y-32153300D02*
X116880000Y-31783300D01*
X117250000Y-32700000D02*
X117250000Y-32153300D01*
%TO.N,D25*%
X101001000Y-32101300D02*
X99100000Y-30200000D01*
X116151000Y-32101300D02*
X101001000Y-32101300D01*
X116750000Y-32700000D02*
X116151000Y-32101300D01*
%TO.N,VSYNC*%
X100900000Y-30200000D02*
X101527000Y-30200000D01*
X101527000Y-30200000D02*
X101709000Y-30200000D01*
X114750000Y-22710000D02*
X114750000Y-23261700D01*
X114648000Y-23363900D02*
X105975000Y-23363900D01*
X114750000Y-23261700D02*
X114648000Y-23363900D01*
%TO.N,HSYNC*%
X101527000Y-28358700D02*
X101527000Y-29400000D01*
X104079000Y-25806200D02*
X101527000Y-28358700D01*
X104212000Y-25806200D02*
X104079000Y-25806200D01*
X115750000Y-23261700D02*
X115750000Y-22710000D01*
X101527000Y-29400000D02*
X100900000Y-29400000D01*
X115516000Y-23496100D02*
X115750000Y-23261700D01*
%TO.N,B0*%
X116750000Y-23261700D02*
X116814000Y-23325800D01*
X109334000Y-23964700D02*
X103711000Y-23964700D01*
X116814000Y-23325800D02*
X116814000Y-23724600D01*
X109436000Y-24066300D02*
X109334000Y-23964700D01*
X103711000Y-23964700D02*
X100273000Y-27402400D01*
X116750000Y-22710000D02*
X116750000Y-23261700D01*
X116814000Y-23724600D02*
X116472000Y-24066300D01*
X100900000Y-28600000D02*
X100273000Y-28600000D01*
X100273000Y-27402400D02*
X100273000Y-28600000D01*
X116472000Y-24066300D02*
X109436000Y-24066300D01*
%TO.N,G4*%
X109311000Y-24368000D02*
X109209000Y-24266400D01*
X100900000Y-27800000D02*
X101527000Y-27800000D01*
X117163000Y-22797000D02*
X117163000Y-23804599D01*
X116600000Y-24368000D02*
X109311000Y-24368000D01*
X117250000Y-22710000D02*
X117163000Y-22797000D01*
X105060000Y-24266400D02*
X101527000Y-27800000D01*
X109209000Y-24266400D02*
X105060000Y-24266400D01*
X117163000Y-23804599D02*
X116600000Y-24368000D01*
%TO.N,Net-(IC1-CLCKOUTP)*%
X124330000Y-43025000D02*
X121750000Y-40445200D01*
X121750000Y-40445200D02*
X121750000Y-39960000D01*
X125050000Y-43025000D02*
X124330000Y-43025000D01*
%TO.N,Net-(IC1-CLCKOUTM)*%
X122250000Y-39960000D02*
X122250000Y-40445200D01*
X125550000Y-42523300D02*
X124328000Y-42523300D01*
X124328000Y-42523300D02*
X122250000Y-40445200D01*
X125550000Y-43025000D02*
X125550000Y-42523300D01*
X125550100Y-43025000D02*
X125550000Y-43025000D01*
%TO.N,Net-(IC1-Y2P)*%
X122750000Y-39960000D02*
X122750000Y-40487500D01*
X126050000Y-43025000D02*
X126050000Y-42523300D01*
X122750000Y-40487500D02*
X123741000Y-41478100D01*
X125005000Y-41478100D02*
X126050000Y-42523300D01*
X123741000Y-41478100D02*
X125005000Y-41478100D01*
%TO.N,Net-(IC1-Y2M)*%
X126550000Y-43025000D02*
X126550000Y-42523300D01*
X123250000Y-40552900D02*
X123874000Y-41176400D01*
X123874000Y-41176400D02*
X125203000Y-41176400D01*
X125203000Y-41176400D02*
X126550000Y-42523300D01*
X123250000Y-39960000D02*
X123250000Y-40552900D01*
%TO.N,D6*%
X145473000Y-28701500D02*
X145280000Y-28895200D01*
X146100000Y-28600000D02*
X145473000Y-28600000D01*
X129250000Y-31634600D02*
X129449000Y-31435300D01*
X129250000Y-32700000D02*
X129250000Y-31634600D01*
X145473000Y-28600000D02*
X145473000Y-28701500D01*
%TO.N,D14*%
X103100000Y-30200000D02*
X103621000Y-31009000D01*
X123750000Y-30150000D02*
X123750000Y-32700000D01*
X124400000Y-29500000D02*
X123750000Y-30150000D01*
%TO.N,SHTDN*%
X118681000Y-38977700D02*
X118963000Y-38977700D01*
X118250000Y-39960000D02*
X118250000Y-39408600D01*
X118250000Y-39408600D02*
X118681000Y-38977700D01*
X148723000Y-34626800D02*
X149000000Y-34350000D01*
X99500000Y-38112900D02*
X100061000Y-37552300D01*
X99500000Y-38412500D02*
X99500000Y-38112900D01*
X147848000Y-34626800D02*
X148723000Y-34626800D01*
%TO.N,D1*%
X128250000Y-39169600D02*
X128370000Y-39049400D01*
X103100000Y-29400000D02*
X103916000Y-29400000D01*
X128250000Y-39960000D02*
X128250000Y-39169600D01*
X103100000Y-29400000D02*
X103727000Y-29400000D01*
%TO.N,D2*%
X129250000Y-39960000D02*
X129250000Y-39051600D01*
X103100000Y-28600000D02*
X102298000Y-28600000D01*
%TO.N,D3*%
X136770000Y-32392700D02*
X143281000Y-32392700D01*
X146100000Y-30200000D02*
X145473000Y-30200000D01*
X129750000Y-39412700D02*
X136770000Y-32392700D01*
X129750000Y-39412700D02*
X129750000Y-39960000D01*
X143281000Y-32392700D02*
X145473000Y-30200000D01*
%TO.N,D4*%
X146727000Y-29400000D02*
X146727000Y-30570700D01*
X146727000Y-30570700D02*
X137337000Y-39960000D01*
X146100000Y-29400000D02*
X146727000Y-29400000D01*
X137337000Y-39960000D02*
X130250000Y-39960000D01*
%TO.N,G5*%
X118250000Y-23808000D02*
X117315000Y-24743100D01*
X117315000Y-24743100D02*
X109012000Y-24743100D01*
X104900000Y-30200000D02*
X105527000Y-30200000D01*
X104900000Y-30200000D02*
X105704000Y-30200000D01*
X118250000Y-22710000D02*
X118250000Y-23808000D01*
%TO.N,R1*%
X104520000Y-27142400D02*
X104237000Y-27425200D01*
X104237000Y-27425200D02*
X104237000Y-28891500D01*
X104237000Y-28891500D02*
X104746000Y-29400000D01*
X118750000Y-22710000D02*
X118750000Y-24170900D01*
X104746000Y-29400000D02*
X104900000Y-29400000D01*
%TO.N,R2*%
X118519000Y-25116700D02*
X119250000Y-24385500D01*
X104900000Y-28600000D02*
X105527000Y-28600000D01*
X109312000Y-25116700D02*
X118519000Y-25116700D01*
X109209000Y-25219800D02*
X109312000Y-25116700D01*
X108247000Y-25219800D02*
X109209000Y-25219800D01*
X105527000Y-27940300D02*
X108247000Y-25219800D01*
X119250000Y-24385500D02*
X119250000Y-22710000D01*
X105527000Y-28600000D02*
X105527000Y-27940300D01*
%TO.N,R3*%
X147273000Y-30200000D02*
X147900000Y-30200000D01*
X130750000Y-23057100D02*
X130963000Y-23270400D01*
X130963000Y-23270400D02*
X130963000Y-23768100D01*
X130963000Y-23768100D02*
X132389000Y-25194100D01*
X132389000Y-25194100D02*
X134617000Y-25194100D01*
X147273000Y-30567900D02*
X147273000Y-30200000D01*
X147559000Y-30853700D02*
X147273000Y-30567900D01*
X130750000Y-22710000D02*
X130750000Y-23057100D01*
%TO.N,R4*%
X132250000Y-22710000D02*
X132250000Y-23261700D01*
X143202000Y-23912200D02*
X132900000Y-23912200D01*
X147900000Y-29400000D02*
X147273000Y-29400000D01*
X132900000Y-23912200D02*
X132250000Y-23261700D01*
X147273000Y-27983800D02*
X143202000Y-23912200D01*
X147273000Y-29400000D02*
X147273000Y-27983800D01*
%TO.N,R5*%
X143781000Y-22710000D02*
X133250000Y-22710000D01*
X148527000Y-27455900D02*
X143781000Y-22710000D01*
X148527000Y-28600000D02*
X148527000Y-27455900D01*
X147900000Y-28600000D02*
X148527000Y-28600000D01*
%TD*%
M02*
