%TF.GenerationSoftware,KiCad,Pcbnew,10.99.0-2191-g6e8e92d84a*%
%TF.CreationDate,2026-08-13T22:40:36+07:00*%
%TF.ProjectId,koyomi-lvds-hat,6b6f796f-6d69-42d6-9c76-64732d686174,rev?*%
%TF.SameCoordinates,Original*%
%TF.FileFunction,Copper,L3,Inr*%
%TF.FilePolarity,Positive*%
%FSLAX46Y46*%
G04 Gerber Fmt 4.6, Leading zero omitted, Abs format (unit mm)*
G04 Created by KiCad (PCBNEW 10.99.0-2191-g6e8e92d84a) date 2026-08-13 22:40:36*
%MOMM*%
%LPD*%
G01*
G04 APERTURE LIST*
%TA.AperFunction,ViaPad*%
%ADD10C,0.500000*%
%TD*%
%TA.AperFunction,ViaPad*%
%ADD11C,0.450000*%
%TD*%
%TA.AperFunction,Conductor*%
%ADD12C,0.300000*%
%TD*%
%TA.AperFunction,Conductor*%
%ADD13C,0.150000*%
%TD*%
G04 APERTURE END LIST*
D10*
%TO.N,+3V3*%
X130363300Y-31442400D03*
X114163000Y-40161200D03*
D11*
X117750000Y-32000000D03*
X112600000Y-35500000D03*
D10*
X121000000Y-24600000D03*
X124713700Y-39030900D03*
X121088300Y-42933400D03*
D11*
X112900000Y-22900000D03*
D10*
X125207900Y-31125200D03*
D11*
%TO.N,GND*%
X122650000Y-42060000D03*
D10*
X123250000Y-23531400D03*
D11*
X129550000Y-41960000D03*
X120250000Y-41360000D03*
X121250000Y-39050000D03*
D10*
X120543000Y-23489000D03*
X117690000Y-23562500D03*
X125750000Y-23520100D03*
X116256000Y-34254100D03*
D11*
X121950000Y-41360000D03*
D10*
X116250000Y-23522400D03*
D11*
X126050000Y-33640100D03*
D10*
X128144000Y-23490200D03*
D11*
X122350000Y-31800000D03*
X124250000Y-31300000D03*
X142450000Y-43550000D03*
X123950000Y-39060000D03*
X120950000Y-35400000D03*
X122850000Y-35550000D03*
X128500000Y-31400000D03*
X122650000Y-29700000D03*
X117750000Y-41400000D03*
D10*
%TO.N,Net-(IC1-Y1M)*%
X127360000Y-41776000D03*
X125658000Y-39045400D03*
%TO.N,VCD6*%
X138379000Y-41438100D03*
X122724000Y-44616600D03*
%TO.N,VCD5*%
X123259000Y-47308000D03*
X138938000Y-40455800D03*
%TO.N,VCD4*%
X123300000Y-46656100D03*
X138016000Y-42838000D03*
%TO.N,VCD3*%
X123700000Y-43506400D03*
X140100000Y-40943200D03*
%TO.N,VCD2*%
X141250000Y-41097200D03*
X124337000Y-43811000D03*
D11*
%TO.N,+5V*%
X143750000Y-43700000D03*
X115250000Y-22810000D03*
X114250000Y-22810000D03*
D10*
%TO.N,PWM*%
X131750000Y-23443900D03*
X144250000Y-41074900D03*
%TO.N,EN*%
X119800000Y-24173500D03*
X145243000Y-41273300D03*
D11*
%TO.N,D18*%
X120900000Y-31600000D03*
X137200000Y-27800000D03*
D10*
%TO.N,G1*%
X123146000Y-24993500D03*
X139262000Y-31198200D03*
%TO.N,B1*%
X139225000Y-27250500D03*
X129340000Y-25267000D03*
%TO.N,+2V5*%
X114302000Y-42904200D03*
X109844000Y-42200000D03*
%TO.N,D12*%
X125147000Y-31791400D03*
X143000000Y-29305900D03*
%TO.N,D9*%
X141280000Y-29468600D03*
X127372000Y-31796500D03*
%TO.N,D19*%
X141304000Y-30627700D03*
X127209000Y-34209300D03*
%TO.N,B2*%
X128750000Y-24090700D03*
X144715000Y-30011300D03*
%TO.N,G2*%
X129856000Y-24585900D03*
X142720000Y-26063300D03*
%TO.N,CLKSEL*%
X100388000Y-34829500D03*
X122921000Y-33918800D03*
X143838000Y-34429100D03*
%TO.N,PANEL_ID0*%
X122100000Y-44200000D03*
X121980000Y-23711800D03*
%TO.N,PANEL_ID1*%
X123100000Y-44000000D03*
X130900000Y-25600000D03*
X130401000Y-23488600D03*
X128800000Y-30400000D03*
X130400000Y-28300000D03*
X130400000Y-25200000D03*
D11*
%TO.N,LCD_INS*%
X131199999Y-31450000D03*
D10*
X133834000Y-23385200D03*
X132900000Y-29600000D03*
X129500000Y-45600000D03*
X134600000Y-23300000D03*
%TO.N,D20*%
X119785000Y-31293700D03*
X107788000Y-27236400D03*
%TO.N,D7*%
X114727000Y-29980100D03*
X121170000Y-34345000D03*
%TO.N,B5*%
X109706000Y-29287600D03*
X111322000Y-25895200D03*
%TO.N,B4*%
X109710000Y-28498300D03*
X112174000Y-26391900D03*
%TO.N,B3*%
X113469000Y-26498600D03*
X109726000Y-27734800D03*
%TO.N,D13*%
X124339000Y-33661600D03*
X99849200Y-27131900D03*
D11*
%TO.N,D15*%
X123250000Y-31500000D03*
X98300000Y-28150000D03*
X118500000Y-30650000D03*
D10*
%TO.N,VSYNC*%
X105975000Y-23363900D03*
X101709000Y-30200000D03*
%TO.N,HSYNC*%
X104212000Y-25806200D03*
X115516000Y-23496100D03*
%TO.N,D6*%
X129449000Y-31435300D03*
X145280000Y-28895200D03*
D11*
%TO.N,D14*%
X124400000Y-29500000D03*
X103621000Y-31009000D03*
D10*
%TO.N,SHTDN*%
X118963000Y-38977700D03*
X147848000Y-34626800D03*
X100061000Y-37552300D03*
%TO.N,D1*%
X103916000Y-29400000D03*
X128370000Y-39049400D03*
%TO.N,D2*%
X129250000Y-39051600D03*
X102298000Y-28600000D03*
%TO.N,G5*%
X105704000Y-30200000D03*
X109012000Y-24743100D03*
%TO.N,R1*%
X104520000Y-27142400D03*
X118750000Y-24170900D03*
%TO.N,R3*%
X147559000Y-30853700D03*
X134617000Y-25194100D03*
%TD*%
%TO.N,GND*%
D12*
X122829000Y-23110100D02*
X120922000Y-23110100D01*
X120543000Y-23489000D02*
X120470000Y-23562500D01*
X116290000Y-23562500D02*
X116250000Y-23522400D01*
X120922000Y-23110100D02*
X120543000Y-23489000D01*
X123250000Y-23531400D02*
X122829000Y-23110100D01*
X120470000Y-23562500D02*
X117690000Y-23562500D01*
X128112000Y-23520100D02*
X128144000Y-23488600D01*
X125739000Y-23531400D02*
X125750000Y-23520100D01*
X123250000Y-23531400D02*
X125739000Y-23531400D01*
X125750000Y-23520100D02*
X128112000Y-23520100D01*
X117690000Y-23562500D02*
X116290000Y-23562500D01*
X128144000Y-23488600D02*
X128144000Y-23490200D01*
%TO.N,VCD3*%
D13*
X126263000Y-40943200D02*
X140100000Y-40943200D01*
X123700000Y-43506400D02*
X126263000Y-40943200D01*
%TO.N,VCD2*%
X140620000Y-41097200D02*
X141250000Y-41097200D01*
X140620000Y-41097300D02*
X140620000Y-41097200D01*
X137906000Y-43811000D02*
X140620000Y-41097300D01*
X124337000Y-43811000D02*
X137906000Y-43811000D01*
%TO.N,D18*%
X127700000Y-28450000D02*
X127600000Y-28550000D01*
X123300000Y-30450000D02*
X123200000Y-30550000D01*
X121900000Y-31050000D02*
X121800000Y-31150000D01*
X121500000Y-31250000D02*
X121400000Y-31350000D01*
X128100000Y-28250000D02*
X128000000Y-28350000D01*
X137200000Y-27800000D02*
X137100000Y-27750000D01*
X122700000Y-30750000D02*
X122600000Y-30750000D01*
X128500000Y-28050000D02*
X128400000Y-28150000D01*
X129200000Y-27750000D02*
X129100000Y-27850000D01*
X122400000Y-30850000D02*
X122300000Y-30950000D01*
X129100000Y-27850000D02*
X129000000Y-27850000D01*
X121300000Y-31350000D02*
X121200000Y-31450000D01*
X127800000Y-28450000D02*
X127700000Y-28450000D01*
X121400000Y-31350000D02*
X121300000Y-31350000D01*
X128000000Y-28350000D02*
X127900000Y-28350000D01*
X122900000Y-30650000D02*
X122800000Y-30650000D01*
X121600000Y-31250000D02*
X121500000Y-31250000D01*
X121200000Y-31450000D02*
X121000000Y-31450000D01*
X127900000Y-28350000D02*
X127800000Y-28450000D01*
X127600000Y-28550000D02*
X127500000Y-28550000D01*
X122600000Y-30750000D02*
X122500000Y-30850000D01*
X122500000Y-30850000D02*
X122400000Y-30850000D01*
X125600000Y-30450000D02*
X123300000Y-30450000D01*
X128200000Y-28250000D02*
X128100000Y-28250000D01*
X128700000Y-28050000D02*
X128500000Y-28050000D01*
X128300000Y-28150000D02*
X128200000Y-28250000D01*
X127500000Y-28550000D02*
X125600000Y-30450000D01*
X129000000Y-27850000D02*
X128900000Y-27950000D01*
X121700000Y-31150000D02*
X121600000Y-31250000D01*
X122300000Y-30950000D02*
X122200000Y-30950000D01*
X123200000Y-30550000D02*
X123000000Y-30550000D01*
X128800000Y-27950000D02*
X128700000Y-28050000D01*
X123000000Y-30550000D02*
X122900000Y-30650000D01*
X122100000Y-31050000D02*
X121900000Y-31050000D01*
X121800000Y-31150000D02*
X121700000Y-31150000D01*
X137100000Y-27750000D02*
X129200000Y-27750000D01*
X121000000Y-31450000D02*
X120900000Y-31600000D01*
X122800000Y-30650000D02*
X122700000Y-30750000D01*
X122200000Y-30950000D02*
X122100000Y-31050000D01*
X128900000Y-27950000D02*
X128800000Y-27950000D01*
X128400000Y-28150000D02*
X128300000Y-28150000D01*
%TO.N,B1*%
X129340000Y-25267000D02*
X131323000Y-27250500D01*
X131323000Y-27250500D02*
X139225000Y-27250500D01*
%TO.N,D12*%
X125648000Y-32292200D02*
X137383000Y-32292200D01*
X142155000Y-30150900D02*
X143000000Y-29305900D01*
X139524000Y-30150900D02*
X142155000Y-30150900D01*
X125147000Y-31791400D02*
X125648000Y-32292200D01*
X137383000Y-32292200D02*
X139524000Y-30150900D01*
%TO.N,D9*%
X139780000Y-29468600D02*
X137328000Y-31920500D01*
X127496000Y-31920500D02*
X127372000Y-31796500D01*
X141280000Y-29468600D02*
X139780000Y-29468600D01*
X137328000Y-31920500D02*
X127496000Y-31920500D01*
%TO.N,D19*%
X137722000Y-34209300D02*
X127209000Y-34209300D01*
X141304000Y-30627700D02*
X137722000Y-34209300D01*
%TO.N,B2*%
X144838000Y-30011300D02*
X145776000Y-29072900D01*
X145776000Y-28445200D02*
X141422000Y-24090700D01*
X141422000Y-24090700D02*
X128750000Y-24090700D01*
X145776000Y-29072900D02*
X145776000Y-28445200D01*
X144715000Y-30011300D02*
X144838000Y-30011300D01*
%TO.N,G2*%
X142720000Y-26063300D02*
X141243000Y-24585900D01*
X141243000Y-24585900D02*
X129856000Y-24585900D01*
%TO.N,CLKSEL*%
X122821000Y-34829500D02*
X122921000Y-34729400D01*
X122921000Y-34729400D02*
X143538000Y-34729400D01*
X100388000Y-34829500D02*
X122821000Y-34829500D01*
X122921000Y-34729400D02*
X122921000Y-33918800D01*
X143538000Y-34729400D02*
X143838000Y-34429100D01*
%TO.N,PANEL_ID1*%
X129200000Y-29450000D02*
X129200000Y-29550000D01*
X130500000Y-25250000D02*
X130600000Y-25250000D01*
X130400000Y-28300000D02*
X129200000Y-29450000D01*
X129100000Y-29650000D02*
X129100000Y-29750000D01*
X130600000Y-25250000D02*
X130900000Y-25600000D01*
X128900000Y-30250000D02*
X128800000Y-30400000D01*
X128900000Y-30050000D02*
X128900000Y-30250000D01*
X129200000Y-29550000D02*
X129100000Y-29650000D01*
X130400000Y-25200000D02*
X130500000Y-25250000D01*
X129000000Y-29850000D02*
X129000000Y-29950000D01*
X129000000Y-29950000D02*
X128900000Y-30050000D01*
X129100000Y-29750000D02*
X129000000Y-29850000D01*
%TO.N,LCD_INS*%
X132900000Y-29750000D02*
X131199999Y-31450000D01*
X132900000Y-29600000D02*
X132900000Y-29750000D01*
%TO.N,D20*%
X115727000Y-27236400D02*
X119785000Y-31293700D01*
X107788000Y-27236400D02*
X115727000Y-27236400D01*
%TO.N,D13*%
X103144000Y-30427100D02*
X103144000Y-31206300D01*
X103144000Y-31206300D02*
X105380000Y-33442100D01*
X105380000Y-33442100D02*
X124119000Y-33442100D01*
X124119000Y-33442100D02*
X124339000Y-33661600D01*
X99849200Y-27131900D02*
X103144000Y-30427100D01*
%TO.N,D15*%
X99199999Y-27050000D02*
X99600000Y-26650000D01*
X99600000Y-26650000D02*
X103000000Y-26650000D01*
X98300000Y-28150000D02*
X99199999Y-27250000D01*
X99199999Y-27250000D02*
X99199999Y-27050000D01*
X107000000Y-30650000D02*
X118500000Y-30650000D01*
X103000000Y-26650000D02*
X107000000Y-30650000D01*
%TO.N,HSYNC*%
X106522000Y-23496100D02*
X104212000Y-25806200D01*
X115516000Y-23496100D02*
X106522000Y-23496100D01*
%TO.N,D6*%
X145280000Y-28895200D02*
X145214000Y-28829200D01*
X145214000Y-28829200D02*
X132055000Y-28829200D01*
X132055000Y-28829200D02*
X129449000Y-31435300D01*
%TO.N,D14*%
X122920999Y-30150000D02*
X123021000Y-30050000D01*
X103621000Y-31009000D02*
X103720999Y-31050000D01*
X123221000Y-29950000D02*
X123420999Y-29950000D01*
X122521000Y-30350000D02*
X122621000Y-30250000D01*
X121221000Y-30950000D02*
X121321000Y-30850000D01*
X122721000Y-30250000D02*
X122821000Y-30150000D01*
X122021000Y-30550000D02*
X122121000Y-30450000D01*
X123121000Y-30050000D02*
X123221000Y-29950000D01*
X122420999Y-30350000D02*
X122521000Y-30350000D01*
X116221000Y-31350000D02*
X119121000Y-31350000D01*
X123021000Y-30050000D02*
X123121000Y-30050000D01*
X119621000Y-31750000D02*
X119721000Y-31850000D01*
X103720999Y-31050000D02*
X115920999Y-31050000D01*
X122821000Y-30150000D02*
X122920999Y-30150000D01*
X124321000Y-29550000D02*
X124400000Y-29500000D01*
X121721000Y-30650000D02*
X121821000Y-30650000D01*
X121920999Y-30550000D02*
X122021000Y-30550000D01*
X123920999Y-29650000D02*
X124021000Y-29650000D01*
X119821000Y-31850000D02*
X119920999Y-31750000D01*
X120721000Y-31150000D02*
X120821000Y-31050000D01*
X119521000Y-31750000D02*
X119621000Y-31750000D01*
X119721000Y-31850000D02*
X119821000Y-31850000D01*
X121321000Y-30850000D02*
X121420999Y-30850000D01*
X123420999Y-29950000D02*
X123521000Y-29850000D01*
X123521000Y-29850000D02*
X123621000Y-29850000D01*
X121521000Y-30750000D02*
X121621000Y-30750000D01*
X120621000Y-31150000D02*
X120721000Y-31150000D01*
X121821000Y-30650000D02*
X121920999Y-30550000D01*
X121621000Y-30750000D02*
X121721000Y-30650000D01*
X120920999Y-31050000D02*
X121021000Y-30950000D01*
X124021000Y-29650000D02*
X124121000Y-29550000D01*
X119920999Y-31750000D02*
X120021000Y-31750000D01*
X120821000Y-31050000D02*
X120920999Y-31050000D01*
X122121000Y-30450000D02*
X122321000Y-30450000D01*
X122321000Y-30450000D02*
X122420999Y-30350000D01*
X123721000Y-29750000D02*
X123821000Y-29750000D01*
X123621000Y-29850000D02*
X123721000Y-29750000D01*
X124121000Y-29550000D02*
X124321000Y-29550000D01*
X119121000Y-31350000D02*
X119521000Y-31750000D01*
X122621000Y-30250000D02*
X122721000Y-30250000D01*
X123821000Y-29750000D02*
X123920999Y-29650000D01*
X120021000Y-31750000D02*
X120621000Y-31150000D01*
X121021000Y-30950000D02*
X121221000Y-30950000D01*
X115920999Y-31050000D02*
X116221000Y-31350000D01*
X121420999Y-30850000D02*
X121521000Y-30750000D01*
%TO.N,SHTDN*%
X120284000Y-37656800D02*
X144818000Y-37656800D01*
X118963000Y-38977700D02*
X120284000Y-37656800D01*
X144818000Y-37656800D02*
X147848000Y-34626800D01*
X100061000Y-37552300D02*
X101486000Y-38977700D01*
X101486000Y-38977700D02*
X118963000Y-38977700D01*
%TO.N,R1*%
X104520000Y-27142400D02*
X107492000Y-24170900D01*
X107492000Y-24170900D02*
X118750000Y-24170900D01*
%TD*%
M02*
