%TF.GenerationSoftware,KiCad,Pcbnew,10.99.0-2630-ge98e17ed18*%
%TF.CreationDate,2026-08-20T19:01:19+07:00*%
%TF.ProjectId,koyomi-lvds-hat,6b6f796f-6d69-42d6-9c76-64732d686174,rev?*%
%TF.SameCoordinates,Original*%
%TF.FileFunction,Legend,Top*%
%TF.FilePolarity,Positive*%
%FSLAX46Y46*%
G04 Gerber Fmt 4.6, Leading zero omitted, Abs format (unit mm)*
G04 Created by KiCad (PCBNEW 10.99.0-2630-ge98e17ed18) date 2026-08-20 19:01:19*
%MOMM*%
%LPD*%
G01*
G04 APERTURE LIST*
%ADD10C,0.150000*%
%ADD11C,0.120000*%
%ADD12C,0.200000*%
%ADD13C,0.127000*%
%ADD14C,0.250000*%
%ADD15C,0.060000*%
G04 APERTURE END LIST*
D10*
X142561904Y-35754819D02*
X142561904Y-36469104D01*
X142561904Y-36469104D02*
X142514285Y-36611961D01*
X142514285Y-36611961D02*
X142419047Y-36707200D01*
X142419047Y-36707200D02*
X142276190Y-36754819D01*
X142276190Y-36754819D02*
X142180952Y-36754819D01*
X143371428Y-36231009D02*
X143514285Y-36278628D01*
X143514285Y-36278628D02*
X143561904Y-36326247D01*
X143561904Y-36326247D02*
X143609523Y-36421485D01*
X143609523Y-36421485D02*
X143609523Y-36564342D01*
X143609523Y-36564342D02*
X143561904Y-36659580D01*
X143561904Y-36659580D02*
X143514285Y-36707200D01*
X143514285Y-36707200D02*
X143419047Y-36754819D01*
X143419047Y-36754819D02*
X143038095Y-36754819D01*
X143038095Y-36754819D02*
X143038095Y-35754819D01*
X143038095Y-35754819D02*
X143371428Y-35754819D01*
X143371428Y-35754819D02*
X143466666Y-35802438D01*
X143466666Y-35802438D02*
X143514285Y-35850057D01*
X143514285Y-35850057D02*
X143561904Y-35945295D01*
X143561904Y-35945295D02*
X143561904Y-36040533D01*
X143561904Y-36040533D02*
X143514285Y-36135771D01*
X143514285Y-36135771D02*
X143466666Y-36183390D01*
X143466666Y-36183390D02*
X143371428Y-36231009D01*
X143371428Y-36231009D02*
X143038095Y-36231009D01*
X144514285Y-36754819D02*
X144038095Y-36754819D01*
X144038095Y-36754819D02*
X144038095Y-35754819D01*
X145371428Y-36754819D02*
X144800000Y-36754819D01*
X145085714Y-36754819D02*
X145085714Y-35754819D01*
X145085714Y-35754819D02*
X144990476Y-35897676D01*
X144990476Y-35897676D02*
X144895238Y-35992914D01*
X144895238Y-35992914D02*
X144800000Y-36040533D01*
X144119047Y-33454819D02*
X143785714Y-32978628D01*
X143547619Y-33454819D02*
X143547619Y-32454819D01*
X143547619Y-32454819D02*
X143928571Y-32454819D01*
X143928571Y-32454819D02*
X144023809Y-32502438D01*
X144023809Y-32502438D02*
X144071428Y-32550057D01*
X144071428Y-32550057D02*
X144119047Y-32645295D01*
X144119047Y-32645295D02*
X144119047Y-32788152D01*
X144119047Y-32788152D02*
X144071428Y-32883390D01*
X144071428Y-32883390D02*
X144023809Y-32931009D01*
X144023809Y-32931009D02*
X143928571Y-32978628D01*
X143928571Y-32978628D02*
X143547619Y-32978628D01*
X144500000Y-32550057D02*
X144547619Y-32502438D01*
X144547619Y-32502438D02*
X144642857Y-32454819D01*
X144642857Y-32454819D02*
X144880952Y-32454819D01*
X144880952Y-32454819D02*
X144976190Y-32502438D01*
X144976190Y-32502438D02*
X145023809Y-32550057D01*
X145023809Y-32550057D02*
X145071428Y-32645295D01*
X145071428Y-32645295D02*
X145071428Y-32740533D01*
X145071428Y-32740533D02*
X145023809Y-32883390D01*
X145023809Y-32883390D02*
X144452381Y-33454819D01*
X144452381Y-33454819D02*
X145071428Y-33454819D01*
X145500000Y-33359580D02*
X145547619Y-33407200D01*
X145547619Y-33407200D02*
X145500000Y-33454819D01*
X145500000Y-33454819D02*
X145452381Y-33407200D01*
X145452381Y-33407200D02*
X145500000Y-33359580D01*
X145500000Y-33359580D02*
X145500000Y-33454819D01*
X145880952Y-32454819D02*
X146547618Y-32454819D01*
X146547618Y-32454819D02*
X146119047Y-33454819D01*
X112653332Y-39829580D02*
X112605713Y-39877200D01*
X112605713Y-39877200D02*
X112462856Y-39924819D01*
X112462856Y-39924819D02*
X112367618Y-39924819D01*
X112367618Y-39924819D02*
X112224761Y-39877200D01*
X112224761Y-39877200D02*
X112129523Y-39781961D01*
X112129523Y-39781961D02*
X112081904Y-39686723D01*
X112081904Y-39686723D02*
X112034285Y-39496247D01*
X112034285Y-39496247D02*
X112034285Y-39353390D01*
X112034285Y-39353390D02*
X112081904Y-39162914D01*
X112081904Y-39162914D02*
X112129523Y-39067676D01*
X112129523Y-39067676D02*
X112224761Y-38972438D01*
X112224761Y-38972438D02*
X112367618Y-38924819D01*
X112367618Y-38924819D02*
X112462856Y-38924819D01*
X112462856Y-38924819D02*
X112605713Y-38972438D01*
X112605713Y-38972438D02*
X112653332Y-39020057D01*
X113034285Y-39020057D02*
X113081904Y-38972438D01*
X113081904Y-38972438D02*
X113177142Y-38924819D01*
X113177142Y-38924819D02*
X113415237Y-38924819D01*
X113415237Y-38924819D02*
X113510475Y-38972438D01*
X113510475Y-38972438D02*
X113558094Y-39020057D01*
X113558094Y-39020057D02*
X113605713Y-39115295D01*
X113605713Y-39115295D02*
X113605713Y-39210533D01*
X113605713Y-39210533D02*
X113558094Y-39353390D01*
X113558094Y-39353390D02*
X112986666Y-39924819D01*
X112986666Y-39924819D02*
X113605713Y-39924819D01*
X127253696Y-36231009D02*
X126920363Y-36231009D01*
X126920363Y-36754819D02*
X126920363Y-35754819D01*
X126920363Y-35754819D02*
X127396553Y-35754819D01*
X128253696Y-36754819D02*
X127777506Y-36754819D01*
X127777506Y-36754819D02*
X127777506Y-35754819D01*
X129110839Y-36754819D02*
X128539411Y-36754819D01*
X128825125Y-36754819D02*
X128825125Y-35754819D01*
X128825125Y-35754819D02*
X128729887Y-35897676D01*
X128729887Y-35897676D02*
X128634649Y-35992914D01*
X128634649Y-35992914D02*
X128539411Y-36040533D01*
X127809523Y-30954819D02*
X127476190Y-30478628D01*
X127238095Y-30954819D02*
X127238095Y-29954819D01*
X127238095Y-29954819D02*
X127619047Y-29954819D01*
X127619047Y-29954819D02*
X127714285Y-30002438D01*
X127714285Y-30002438D02*
X127761904Y-30050057D01*
X127761904Y-30050057D02*
X127809523Y-30145295D01*
X127809523Y-30145295D02*
X127809523Y-30288152D01*
X127809523Y-30288152D02*
X127761904Y-30383390D01*
X127761904Y-30383390D02*
X127714285Y-30431009D01*
X127714285Y-30431009D02*
X127619047Y-30478628D01*
X127619047Y-30478628D02*
X127238095Y-30478628D01*
X128238095Y-30954819D02*
X128238095Y-29954819D01*
X128238095Y-29954819D02*
X128809523Y-30954819D01*
X128809523Y-30954819D02*
X128809523Y-29954819D01*
X129714285Y-30288152D02*
X129714285Y-30954819D01*
X129476190Y-29907200D02*
X129238095Y-30621485D01*
X129238095Y-30621485D02*
X129857142Y-30621485D01*
X132333333Y-29929580D02*
X132285714Y-29977200D01*
X132285714Y-29977200D02*
X132142857Y-30024819D01*
X132142857Y-30024819D02*
X132047619Y-30024819D01*
X132047619Y-30024819D02*
X131904762Y-29977200D01*
X131904762Y-29977200D02*
X131809524Y-29881961D01*
X131809524Y-29881961D02*
X131761905Y-29786723D01*
X131761905Y-29786723D02*
X131714286Y-29596247D01*
X131714286Y-29596247D02*
X131714286Y-29453390D01*
X131714286Y-29453390D02*
X131761905Y-29262914D01*
X131761905Y-29262914D02*
X131809524Y-29167676D01*
X131809524Y-29167676D02*
X131904762Y-29072438D01*
X131904762Y-29072438D02*
X132047619Y-29024819D01*
X132047619Y-29024819D02*
X132142857Y-29024819D01*
X132142857Y-29024819D02*
X132285714Y-29072438D01*
X132285714Y-29072438D02*
X132333333Y-29120057D01*
X133190476Y-29024819D02*
X133000000Y-29024819D01*
X133000000Y-29024819D02*
X132904762Y-29072438D01*
X132904762Y-29072438D02*
X132857143Y-29120057D01*
X132857143Y-29120057D02*
X132761905Y-29262914D01*
X132761905Y-29262914D02*
X132714286Y-29453390D01*
X132714286Y-29453390D02*
X132714286Y-29834342D01*
X132714286Y-29834342D02*
X132761905Y-29929580D01*
X132761905Y-29929580D02*
X132809524Y-29977200D01*
X132809524Y-29977200D02*
X132904762Y-30024819D01*
X132904762Y-30024819D02*
X133095238Y-30024819D01*
X133095238Y-30024819D02*
X133190476Y-29977200D01*
X133190476Y-29977200D02*
X133238095Y-29929580D01*
X133238095Y-29929580D02*
X133285714Y-29834342D01*
X133285714Y-29834342D02*
X133285714Y-29596247D01*
X133285714Y-29596247D02*
X133238095Y-29501009D01*
X133238095Y-29501009D02*
X133190476Y-29453390D01*
X133190476Y-29453390D02*
X133095238Y-29405771D01*
X133095238Y-29405771D02*
X132904762Y-29405771D01*
X132904762Y-29405771D02*
X132809524Y-29453390D01*
X132809524Y-29453390D02*
X132761905Y-29501009D01*
X132761905Y-29501009D02*
X132714286Y-29596247D01*
X134809523Y-25854819D02*
X134476190Y-25378628D01*
X134238095Y-25854819D02*
X134238095Y-24854819D01*
X134238095Y-24854819D02*
X134619047Y-24854819D01*
X134619047Y-24854819D02*
X134714285Y-24902438D01*
X134714285Y-24902438D02*
X134761904Y-24950057D01*
X134761904Y-24950057D02*
X134809523Y-25045295D01*
X134809523Y-25045295D02*
X134809523Y-25188152D01*
X134809523Y-25188152D02*
X134761904Y-25283390D01*
X134761904Y-25283390D02*
X134714285Y-25331009D01*
X134714285Y-25331009D02*
X134619047Y-25378628D01*
X134619047Y-25378628D02*
X134238095Y-25378628D01*
X135238095Y-25854819D02*
X135238095Y-24854819D01*
X135238095Y-24854819D02*
X135809523Y-25854819D01*
X135809523Y-25854819D02*
X135809523Y-24854819D01*
X136761904Y-24854819D02*
X136285714Y-24854819D01*
X136285714Y-24854819D02*
X136238095Y-25331009D01*
X136238095Y-25331009D02*
X136285714Y-25283390D01*
X136285714Y-25283390D02*
X136380952Y-25235771D01*
X136380952Y-25235771D02*
X136619047Y-25235771D01*
X136619047Y-25235771D02*
X136714285Y-25283390D01*
X136714285Y-25283390D02*
X136761904Y-25331009D01*
X136761904Y-25331009D02*
X136809523Y-25426247D01*
X136809523Y-25426247D02*
X136809523Y-25664342D01*
X136809523Y-25664342D02*
X136761904Y-25759580D01*
X136761904Y-25759580D02*
X136714285Y-25807200D01*
X136714285Y-25807200D02*
X136619047Y-25854819D01*
X136619047Y-25854819D02*
X136380952Y-25854819D01*
X136380952Y-25854819D02*
X136285714Y-25807200D01*
X136285714Y-25807200D02*
X136238095Y-25759580D01*
X136354819Y-34833333D02*
X137069104Y-34833333D01*
X137069104Y-34833333D02*
X137211961Y-34880952D01*
X137211961Y-34880952D02*
X137307200Y-34976190D01*
X137307200Y-34976190D02*
X137354819Y-35119047D01*
X137354819Y-35119047D02*
X137354819Y-35214285D01*
X137354819Y-34357142D02*
X136354819Y-34357142D01*
X136354819Y-34357142D02*
X136354819Y-33976190D01*
X136354819Y-33976190D02*
X136402438Y-33880952D01*
X136402438Y-33880952D02*
X136450057Y-33833333D01*
X136450057Y-33833333D02*
X136545295Y-33785714D01*
X136545295Y-33785714D02*
X136688152Y-33785714D01*
X136688152Y-33785714D02*
X136783390Y-33833333D01*
X136783390Y-33833333D02*
X136831009Y-33880952D01*
X136831009Y-33880952D02*
X136878628Y-33976190D01*
X136878628Y-33976190D02*
X136878628Y-34357142D01*
X137354819Y-32833333D02*
X137354819Y-33404761D01*
X137354819Y-33119047D02*
X136354819Y-33119047D01*
X136354819Y-33119047D02*
X136497676Y-33214285D01*
X136497676Y-33214285D02*
X136592914Y-33309523D01*
X136592914Y-33309523D02*
X136640533Y-33404761D01*
X112041666Y-37069819D02*
X112041666Y-37784104D01*
X112041666Y-37784104D02*
X111994047Y-37926961D01*
X111994047Y-37926961D02*
X111898809Y-38022200D01*
X111898809Y-38022200D02*
X111755952Y-38069819D01*
X111755952Y-38069819D02*
X111660714Y-38069819D01*
X112470238Y-37165057D02*
X112517857Y-37117438D01*
X112517857Y-37117438D02*
X112613095Y-37069819D01*
X112613095Y-37069819D02*
X112851190Y-37069819D01*
X112851190Y-37069819D02*
X112946428Y-37117438D01*
X112946428Y-37117438D02*
X112994047Y-37165057D01*
X112994047Y-37165057D02*
X113041666Y-37260295D01*
X113041666Y-37260295D02*
X113041666Y-37355533D01*
X113041666Y-37355533D02*
X112994047Y-37498390D01*
X112994047Y-37498390D02*
X112422619Y-38069819D01*
X112422619Y-38069819D02*
X113041666Y-38069819D01*
X122533333Y-37029580D02*
X122485714Y-37077200D01*
X122485714Y-37077200D02*
X122342857Y-37124819D01*
X122342857Y-37124819D02*
X122247619Y-37124819D01*
X122247619Y-37124819D02*
X122104762Y-37077200D01*
X122104762Y-37077200D02*
X122009524Y-36981961D01*
X122009524Y-36981961D02*
X121961905Y-36886723D01*
X121961905Y-36886723D02*
X121914286Y-36696247D01*
X121914286Y-36696247D02*
X121914286Y-36553390D01*
X121914286Y-36553390D02*
X121961905Y-36362914D01*
X121961905Y-36362914D02*
X122009524Y-36267676D01*
X122009524Y-36267676D02*
X122104762Y-36172438D01*
X122104762Y-36172438D02*
X122247619Y-36124819D01*
X122247619Y-36124819D02*
X122342857Y-36124819D01*
X122342857Y-36124819D02*
X122485714Y-36172438D01*
X122485714Y-36172438D02*
X122533333Y-36220057D01*
X123438095Y-36124819D02*
X122961905Y-36124819D01*
X122961905Y-36124819D02*
X122914286Y-36601009D01*
X122914286Y-36601009D02*
X122961905Y-36553390D01*
X122961905Y-36553390D02*
X123057143Y-36505771D01*
X123057143Y-36505771D02*
X123295238Y-36505771D01*
X123295238Y-36505771D02*
X123390476Y-36553390D01*
X123390476Y-36553390D02*
X123438095Y-36601009D01*
X123438095Y-36601009D02*
X123485714Y-36696247D01*
X123485714Y-36696247D02*
X123485714Y-36934342D01*
X123485714Y-36934342D02*
X123438095Y-37029580D01*
X123438095Y-37029580D02*
X123390476Y-37077200D01*
X123390476Y-37077200D02*
X123295238Y-37124819D01*
X123295238Y-37124819D02*
X123057143Y-37124819D01*
X123057143Y-37124819D02*
X122961905Y-37077200D01*
X122961905Y-37077200D02*
X122914286Y-37029580D01*
X115953332Y-39829580D02*
X115905713Y-39877200D01*
X115905713Y-39877200D02*
X115762856Y-39924819D01*
X115762856Y-39924819D02*
X115667618Y-39924819D01*
X115667618Y-39924819D02*
X115524761Y-39877200D01*
X115524761Y-39877200D02*
X115429523Y-39781961D01*
X115429523Y-39781961D02*
X115381904Y-39686723D01*
X115381904Y-39686723D02*
X115334285Y-39496247D01*
X115334285Y-39496247D02*
X115334285Y-39353390D01*
X115334285Y-39353390D02*
X115381904Y-39162914D01*
X115381904Y-39162914D02*
X115429523Y-39067676D01*
X115429523Y-39067676D02*
X115524761Y-38972438D01*
X115524761Y-38972438D02*
X115667618Y-38924819D01*
X115667618Y-38924819D02*
X115762856Y-38924819D01*
X115762856Y-38924819D02*
X115905713Y-38972438D01*
X115905713Y-38972438D02*
X115953332Y-39020057D01*
X116286666Y-38924819D02*
X116905713Y-38924819D01*
X116905713Y-38924819D02*
X116572380Y-39305771D01*
X116572380Y-39305771D02*
X116715237Y-39305771D01*
X116715237Y-39305771D02*
X116810475Y-39353390D01*
X116810475Y-39353390D02*
X116858094Y-39401009D01*
X116858094Y-39401009D02*
X116905713Y-39496247D01*
X116905713Y-39496247D02*
X116905713Y-39734342D01*
X116905713Y-39734342D02*
X116858094Y-39829580D01*
X116858094Y-39829580D02*
X116810475Y-39877200D01*
X116810475Y-39877200D02*
X116715237Y-39924819D01*
X116715237Y-39924819D02*
X116429523Y-39924819D01*
X116429523Y-39924819D02*
X116334285Y-39877200D01*
X116334285Y-39877200D02*
X116286666Y-39829580D01*
X98333333Y-38759580D02*
X98285714Y-38807200D01*
X98285714Y-38807200D02*
X98142857Y-38854819D01*
X98142857Y-38854819D02*
X98047619Y-38854819D01*
X98047619Y-38854819D02*
X97904762Y-38807200D01*
X97904762Y-38807200D02*
X97809524Y-38711961D01*
X97809524Y-38711961D02*
X97761905Y-38616723D01*
X97761905Y-38616723D02*
X97714286Y-38426247D01*
X97714286Y-38426247D02*
X97714286Y-38283390D01*
X97714286Y-38283390D02*
X97761905Y-38092914D01*
X97761905Y-38092914D02*
X97809524Y-37997676D01*
X97809524Y-37997676D02*
X97904762Y-37902438D01*
X97904762Y-37902438D02*
X98047619Y-37854819D01*
X98047619Y-37854819D02*
X98142857Y-37854819D01*
X98142857Y-37854819D02*
X98285714Y-37902438D01*
X98285714Y-37902438D02*
X98333333Y-37950057D01*
X98666667Y-37854819D02*
X99333333Y-37854819D01*
X99333333Y-37854819D02*
X98904762Y-38854819D01*
X108809523Y-30954819D02*
X108476190Y-30478628D01*
X108238095Y-30954819D02*
X108238095Y-29954819D01*
X108238095Y-29954819D02*
X108619047Y-29954819D01*
X108619047Y-29954819D02*
X108714285Y-30002438D01*
X108714285Y-30002438D02*
X108761904Y-30050057D01*
X108761904Y-30050057D02*
X108809523Y-30145295D01*
X108809523Y-30145295D02*
X108809523Y-30288152D01*
X108809523Y-30288152D02*
X108761904Y-30383390D01*
X108761904Y-30383390D02*
X108714285Y-30431009D01*
X108714285Y-30431009D02*
X108619047Y-30478628D01*
X108619047Y-30478628D02*
X108238095Y-30478628D01*
X109238095Y-30954819D02*
X109238095Y-29954819D01*
X109238095Y-29954819D02*
X109809523Y-30954819D01*
X109809523Y-30954819D02*
X109809523Y-29954819D01*
X110190476Y-29954819D02*
X110809523Y-29954819D01*
X110809523Y-29954819D02*
X110476190Y-30335771D01*
X110476190Y-30335771D02*
X110619047Y-30335771D01*
X110619047Y-30335771D02*
X110714285Y-30383390D01*
X110714285Y-30383390D02*
X110761904Y-30431009D01*
X110761904Y-30431009D02*
X110809523Y-30526247D01*
X110809523Y-30526247D02*
X110809523Y-30764342D01*
X110809523Y-30764342D02*
X110761904Y-30859580D01*
X110761904Y-30859580D02*
X110714285Y-30907200D01*
X110714285Y-30907200D02*
X110619047Y-30954819D01*
X110619047Y-30954819D02*
X110333333Y-30954819D01*
X110333333Y-30954819D02*
X110238095Y-30907200D01*
X110238095Y-30907200D02*
X110190476Y-30859580D01*
X107754819Y-35461904D02*
X108564342Y-35461904D01*
X108564342Y-35461904D02*
X108659580Y-35414285D01*
X108659580Y-35414285D02*
X108707200Y-35366666D01*
X108707200Y-35366666D02*
X108754819Y-35271428D01*
X108754819Y-35271428D02*
X108754819Y-35080952D01*
X108754819Y-35080952D02*
X108707200Y-34985714D01*
X108707200Y-34985714D02*
X108659580Y-34938095D01*
X108659580Y-34938095D02*
X108564342Y-34890476D01*
X108564342Y-34890476D02*
X107754819Y-34890476D01*
X108754819Y-33890476D02*
X108754819Y-34461904D01*
X108754819Y-34176190D02*
X107754819Y-34176190D01*
X107754819Y-34176190D02*
X107897676Y-34271428D01*
X107897676Y-34271428D02*
X107992914Y-34366666D01*
X107992914Y-34366666D02*
X108040533Y-34461904D01*
X99809523Y-25854819D02*
X99476190Y-25378628D01*
X99238095Y-25854819D02*
X99238095Y-24854819D01*
X99238095Y-24854819D02*
X99619047Y-24854819D01*
X99619047Y-24854819D02*
X99714285Y-24902438D01*
X99714285Y-24902438D02*
X99761904Y-24950057D01*
X99761904Y-24950057D02*
X99809523Y-25045295D01*
X99809523Y-25045295D02*
X99809523Y-25188152D01*
X99809523Y-25188152D02*
X99761904Y-25283390D01*
X99761904Y-25283390D02*
X99714285Y-25331009D01*
X99714285Y-25331009D02*
X99619047Y-25378628D01*
X99619047Y-25378628D02*
X99238095Y-25378628D01*
X100238095Y-25854819D02*
X100238095Y-24854819D01*
X100238095Y-24854819D02*
X100809523Y-25854819D01*
X100809523Y-25854819D02*
X100809523Y-24854819D01*
X101809523Y-25854819D02*
X101238095Y-25854819D01*
X101523809Y-25854819D02*
X101523809Y-24854819D01*
X101523809Y-24854819D02*
X101428571Y-24997676D01*
X101428571Y-24997676D02*
X101333333Y-25092914D01*
X101333333Y-25092914D02*
X101238095Y-25140533D01*
X123953696Y-36231009D02*
X123620363Y-36231009D01*
X123620363Y-36754819D02*
X123620363Y-35754819D01*
X123620363Y-35754819D02*
X124096553Y-35754819D01*
X124953696Y-36754819D02*
X124477506Y-36754819D01*
X124477506Y-36754819D02*
X124477506Y-35754819D01*
X125239411Y-35850057D02*
X125287030Y-35802438D01*
X125287030Y-35802438D02*
X125382268Y-35754819D01*
X125382268Y-35754819D02*
X125620363Y-35754819D01*
X125620363Y-35754819D02*
X125715601Y-35802438D01*
X125715601Y-35802438D02*
X125763220Y-35850057D01*
X125763220Y-35850057D02*
X125810839Y-35945295D01*
X125810839Y-35945295D02*
X125810839Y-36040533D01*
X125810839Y-36040533D02*
X125763220Y-36183390D01*
X125763220Y-36183390D02*
X125191792Y-36754819D01*
X125191792Y-36754819D02*
X125810839Y-36754819D01*
X126754819Y-33926189D02*
X125754819Y-33926189D01*
X126659580Y-32878571D02*
X126707200Y-32926190D01*
X126707200Y-32926190D02*
X126754819Y-33069047D01*
X126754819Y-33069047D02*
X126754819Y-33164285D01*
X126754819Y-33164285D02*
X126707200Y-33307142D01*
X126707200Y-33307142D02*
X126611961Y-33402380D01*
X126611961Y-33402380D02*
X126516723Y-33449999D01*
X126516723Y-33449999D02*
X126326247Y-33497618D01*
X126326247Y-33497618D02*
X126183390Y-33497618D01*
X126183390Y-33497618D02*
X125992914Y-33449999D01*
X125992914Y-33449999D02*
X125897676Y-33402380D01*
X125897676Y-33402380D02*
X125802438Y-33307142D01*
X125802438Y-33307142D02*
X125754819Y-33164285D01*
X125754819Y-33164285D02*
X125754819Y-33069047D01*
X125754819Y-33069047D02*
X125802438Y-32926190D01*
X125802438Y-32926190D02*
X125850057Y-32878571D01*
X126754819Y-31926190D02*
X126754819Y-32497618D01*
X126754819Y-32211904D02*
X125754819Y-32211904D01*
X125754819Y-32211904D02*
X125897676Y-32307142D01*
X125897676Y-32307142D02*
X125992914Y-32402380D01*
X125992914Y-32402380D02*
X126040533Y-32497618D01*
X103809523Y-25854819D02*
X103476190Y-25378628D01*
X103238095Y-25854819D02*
X103238095Y-24854819D01*
X103238095Y-24854819D02*
X103619047Y-24854819D01*
X103619047Y-24854819D02*
X103714285Y-24902438D01*
X103714285Y-24902438D02*
X103761904Y-24950057D01*
X103761904Y-24950057D02*
X103809523Y-25045295D01*
X103809523Y-25045295D02*
X103809523Y-25188152D01*
X103809523Y-25188152D02*
X103761904Y-25283390D01*
X103761904Y-25283390D02*
X103714285Y-25331009D01*
X103714285Y-25331009D02*
X103619047Y-25378628D01*
X103619047Y-25378628D02*
X103238095Y-25378628D01*
X104238095Y-25854819D02*
X104238095Y-24854819D01*
X104238095Y-24854819D02*
X104809523Y-25854819D01*
X104809523Y-25854819D02*
X104809523Y-24854819D01*
X105238095Y-24950057D02*
X105285714Y-24902438D01*
X105285714Y-24902438D02*
X105380952Y-24854819D01*
X105380952Y-24854819D02*
X105619047Y-24854819D01*
X105619047Y-24854819D02*
X105714285Y-24902438D01*
X105714285Y-24902438D02*
X105761904Y-24950057D01*
X105761904Y-24950057D02*
X105809523Y-25045295D01*
X105809523Y-25045295D02*
X105809523Y-25140533D01*
X105809523Y-25140533D02*
X105761904Y-25283390D01*
X105761904Y-25283390D02*
X105190476Y-25854819D01*
X105190476Y-25854819D02*
X105809523Y-25854819D01*
X138809523Y-25854819D02*
X138476190Y-25378628D01*
X138238095Y-25854819D02*
X138238095Y-24854819D01*
X138238095Y-24854819D02*
X138619047Y-24854819D01*
X138619047Y-24854819D02*
X138714285Y-24902438D01*
X138714285Y-24902438D02*
X138761904Y-24950057D01*
X138761904Y-24950057D02*
X138809523Y-25045295D01*
X138809523Y-25045295D02*
X138809523Y-25188152D01*
X138809523Y-25188152D02*
X138761904Y-25283390D01*
X138761904Y-25283390D02*
X138714285Y-25331009D01*
X138714285Y-25331009D02*
X138619047Y-25378628D01*
X138619047Y-25378628D02*
X138238095Y-25378628D01*
X139238095Y-25854819D02*
X139238095Y-24854819D01*
X139238095Y-24854819D02*
X139809523Y-25854819D01*
X139809523Y-25854819D02*
X139809523Y-24854819D01*
X140714285Y-24854819D02*
X140523809Y-24854819D01*
X140523809Y-24854819D02*
X140428571Y-24902438D01*
X140428571Y-24902438D02*
X140380952Y-24950057D01*
X140380952Y-24950057D02*
X140285714Y-25092914D01*
X140285714Y-25092914D02*
X140238095Y-25283390D01*
X140238095Y-25283390D02*
X140238095Y-25664342D01*
X140238095Y-25664342D02*
X140285714Y-25759580D01*
X140285714Y-25759580D02*
X140333333Y-25807200D01*
X140333333Y-25807200D02*
X140428571Y-25854819D01*
X140428571Y-25854819D02*
X140619047Y-25854819D01*
X140619047Y-25854819D02*
X140714285Y-25807200D01*
X140714285Y-25807200D02*
X140761904Y-25759580D01*
X140761904Y-25759580D02*
X140809523Y-25664342D01*
X140809523Y-25664342D02*
X140809523Y-25426247D01*
X140809523Y-25426247D02*
X140761904Y-25331009D01*
X140761904Y-25331009D02*
X140714285Y-25283390D01*
X140714285Y-25283390D02*
X140619047Y-25235771D01*
X140619047Y-25235771D02*
X140428571Y-25235771D01*
X140428571Y-25235771D02*
X140333333Y-25283390D01*
X140333333Y-25283390D02*
X140285714Y-25331009D01*
X140285714Y-25331009D02*
X140238095Y-25426247D01*
X102333333Y-38929580D02*
X102285714Y-38977200D01*
X102285714Y-38977200D02*
X102142857Y-39024819D01*
X102142857Y-39024819D02*
X102047619Y-39024819D01*
X102047619Y-39024819D02*
X101904762Y-38977200D01*
X101904762Y-38977200D02*
X101809524Y-38881961D01*
X101809524Y-38881961D02*
X101761905Y-38786723D01*
X101761905Y-38786723D02*
X101714286Y-38596247D01*
X101714286Y-38596247D02*
X101714286Y-38453390D01*
X101714286Y-38453390D02*
X101761905Y-38262914D01*
X101761905Y-38262914D02*
X101809524Y-38167676D01*
X101809524Y-38167676D02*
X101904762Y-38072438D01*
X101904762Y-38072438D02*
X102047619Y-38024819D01*
X102047619Y-38024819D02*
X102142857Y-38024819D01*
X102142857Y-38024819D02*
X102285714Y-38072438D01*
X102285714Y-38072438D02*
X102333333Y-38120057D01*
X102904762Y-38453390D02*
X102809524Y-38405771D01*
X102809524Y-38405771D02*
X102761905Y-38358152D01*
X102761905Y-38358152D02*
X102714286Y-38262914D01*
X102714286Y-38262914D02*
X102714286Y-38215295D01*
X102714286Y-38215295D02*
X102761905Y-38120057D01*
X102761905Y-38120057D02*
X102809524Y-38072438D01*
X102809524Y-38072438D02*
X102904762Y-38024819D01*
X102904762Y-38024819D02*
X103095238Y-38024819D01*
X103095238Y-38024819D02*
X103190476Y-38072438D01*
X103190476Y-38072438D02*
X103238095Y-38120057D01*
X103238095Y-38120057D02*
X103285714Y-38215295D01*
X103285714Y-38215295D02*
X103285714Y-38262914D01*
X103285714Y-38262914D02*
X103238095Y-38358152D01*
X103238095Y-38358152D02*
X103190476Y-38405771D01*
X103190476Y-38405771D02*
X103095238Y-38453390D01*
X103095238Y-38453390D02*
X102904762Y-38453390D01*
X102904762Y-38453390D02*
X102809524Y-38501009D01*
X102809524Y-38501009D02*
X102761905Y-38548628D01*
X102761905Y-38548628D02*
X102714286Y-38643866D01*
X102714286Y-38643866D02*
X102714286Y-38834342D01*
X102714286Y-38834342D02*
X102761905Y-38929580D01*
X102761905Y-38929580D02*
X102809524Y-38977200D01*
X102809524Y-38977200D02*
X102904762Y-39024819D01*
X102904762Y-39024819D02*
X103095238Y-39024819D01*
X103095238Y-39024819D02*
X103190476Y-38977200D01*
X103190476Y-38977200D02*
X103238095Y-38929580D01*
X103238095Y-38929580D02*
X103285714Y-38834342D01*
X103285714Y-38834342D02*
X103285714Y-38643866D01*
X103285714Y-38643866D02*
X103238095Y-38548628D01*
X103238095Y-38548628D02*
X103190476Y-38501009D01*
X103190476Y-38501009D02*
X103095238Y-38453390D01*
X118309523Y-19704819D02*
X118309523Y-20419104D01*
X118309523Y-20419104D02*
X118261904Y-20561961D01*
X118261904Y-20561961D02*
X118166666Y-20657200D01*
X118166666Y-20657200D02*
X118023809Y-20704819D01*
X118023809Y-20704819D02*
X117928571Y-20704819D01*
X119119047Y-20181009D02*
X118785714Y-20181009D01*
X118785714Y-20704819D02*
X118785714Y-19704819D01*
X118785714Y-19704819D02*
X119261904Y-19704819D01*
X119976190Y-20181009D02*
X119642857Y-20181009D01*
X119642857Y-20704819D02*
X119642857Y-19704819D01*
X119642857Y-19704819D02*
X120119047Y-19704819D01*
X121071428Y-20609580D02*
X121023809Y-20657200D01*
X121023809Y-20657200D02*
X120880952Y-20704819D01*
X120880952Y-20704819D02*
X120785714Y-20704819D01*
X120785714Y-20704819D02*
X120642857Y-20657200D01*
X120642857Y-20657200D02*
X120547619Y-20561961D01*
X120547619Y-20561961D02*
X120500000Y-20466723D01*
X120500000Y-20466723D02*
X120452381Y-20276247D01*
X120452381Y-20276247D02*
X120452381Y-20133390D01*
X120452381Y-20133390D02*
X120500000Y-19942914D01*
X120500000Y-19942914D02*
X120547619Y-19847676D01*
X120547619Y-19847676D02*
X120642857Y-19752438D01*
X120642857Y-19752438D02*
X120785714Y-19704819D01*
X120785714Y-19704819D02*
X120880952Y-19704819D01*
X120880952Y-19704819D02*
X121023809Y-19752438D01*
X121023809Y-19752438D02*
X121071428Y-19800057D01*
X122023809Y-20704819D02*
X121452381Y-20704819D01*
X121738095Y-20704819D02*
X121738095Y-19704819D01*
X121738095Y-19704819D02*
X121642857Y-19847676D01*
X121642857Y-19847676D02*
X121547619Y-19942914D01*
X121547619Y-19942914D02*
X121452381Y-19990533D01*
X140354819Y-34833333D02*
X141069104Y-34833333D01*
X141069104Y-34833333D02*
X141211961Y-34880952D01*
X141211961Y-34880952D02*
X141307200Y-34976190D01*
X141307200Y-34976190D02*
X141354819Y-35119047D01*
X141354819Y-35119047D02*
X141354819Y-35214285D01*
X141354819Y-34357142D02*
X140354819Y-34357142D01*
X140354819Y-34357142D02*
X140354819Y-33976190D01*
X140354819Y-33976190D02*
X140402438Y-33880952D01*
X140402438Y-33880952D02*
X140450057Y-33833333D01*
X140450057Y-33833333D02*
X140545295Y-33785714D01*
X140545295Y-33785714D02*
X140688152Y-33785714D01*
X140688152Y-33785714D02*
X140783390Y-33833333D01*
X140783390Y-33833333D02*
X140831009Y-33880952D01*
X140831009Y-33880952D02*
X140878628Y-33976190D01*
X140878628Y-33976190D02*
X140878628Y-34357142D01*
X140450057Y-33404761D02*
X140402438Y-33357142D01*
X140402438Y-33357142D02*
X140354819Y-33261904D01*
X140354819Y-33261904D02*
X140354819Y-33023809D01*
X140354819Y-33023809D02*
X140402438Y-32928571D01*
X140402438Y-32928571D02*
X140450057Y-32880952D01*
X140450057Y-32880952D02*
X140545295Y-32833333D01*
X140545295Y-32833333D02*
X140640533Y-32833333D01*
X140640533Y-32833333D02*
X140783390Y-32880952D01*
X140783390Y-32880952D02*
X141354819Y-33452380D01*
X141354819Y-33452380D02*
X141354819Y-32833333D01*
X109353332Y-39829580D02*
X109305713Y-39877200D01*
X109305713Y-39877200D02*
X109162856Y-39924819D01*
X109162856Y-39924819D02*
X109067618Y-39924819D01*
X109067618Y-39924819D02*
X108924761Y-39877200D01*
X108924761Y-39877200D02*
X108829523Y-39781961D01*
X108829523Y-39781961D02*
X108781904Y-39686723D01*
X108781904Y-39686723D02*
X108734285Y-39496247D01*
X108734285Y-39496247D02*
X108734285Y-39353390D01*
X108734285Y-39353390D02*
X108781904Y-39162914D01*
X108781904Y-39162914D02*
X108829523Y-39067676D01*
X108829523Y-39067676D02*
X108924761Y-38972438D01*
X108924761Y-38972438D02*
X109067618Y-38924819D01*
X109067618Y-38924819D02*
X109162856Y-38924819D01*
X109162856Y-38924819D02*
X109305713Y-38972438D01*
X109305713Y-38972438D02*
X109353332Y-39020057D01*
X110305713Y-39924819D02*
X109734285Y-39924819D01*
X110019999Y-39924819D02*
X110019999Y-38924819D01*
X110019999Y-38924819D02*
X109924761Y-39067676D01*
X109924761Y-39067676D02*
X109829523Y-39162914D01*
X109829523Y-39162914D02*
X109734285Y-39210533D01*
X98333333Y-30224819D02*
X98000000Y-29748628D01*
X97761905Y-30224819D02*
X97761905Y-29224819D01*
X97761905Y-29224819D02*
X98142857Y-29224819D01*
X98142857Y-29224819D02*
X98238095Y-29272438D01*
X98238095Y-29272438D02*
X98285714Y-29320057D01*
X98285714Y-29320057D02*
X98333333Y-29415295D01*
X98333333Y-29415295D02*
X98333333Y-29558152D01*
X98333333Y-29558152D02*
X98285714Y-29653390D01*
X98285714Y-29653390D02*
X98238095Y-29701009D01*
X98238095Y-29701009D02*
X98142857Y-29748628D01*
X98142857Y-29748628D02*
X97761905Y-29748628D01*
X99285714Y-30224819D02*
X98714286Y-30224819D01*
X99000000Y-30224819D02*
X99000000Y-29224819D01*
X99000000Y-29224819D02*
X98904762Y-29367676D01*
X98904762Y-29367676D02*
X98809524Y-29462914D01*
X98809524Y-29462914D02*
X98714286Y-29510533D01*
X119233333Y-37029580D02*
X119185714Y-37077200D01*
X119185714Y-37077200D02*
X119042857Y-37124819D01*
X119042857Y-37124819D02*
X118947619Y-37124819D01*
X118947619Y-37124819D02*
X118804762Y-37077200D01*
X118804762Y-37077200D02*
X118709524Y-36981961D01*
X118709524Y-36981961D02*
X118661905Y-36886723D01*
X118661905Y-36886723D02*
X118614286Y-36696247D01*
X118614286Y-36696247D02*
X118614286Y-36553390D01*
X118614286Y-36553390D02*
X118661905Y-36362914D01*
X118661905Y-36362914D02*
X118709524Y-36267676D01*
X118709524Y-36267676D02*
X118804762Y-36172438D01*
X118804762Y-36172438D02*
X118947619Y-36124819D01*
X118947619Y-36124819D02*
X119042857Y-36124819D01*
X119042857Y-36124819D02*
X119185714Y-36172438D01*
X119185714Y-36172438D02*
X119233333Y-36220057D01*
X120090476Y-36458152D02*
X120090476Y-37124819D01*
X119852381Y-36077200D02*
X119614286Y-36791485D01*
X119614286Y-36791485D02*
X120233333Y-36791485D01*
X98333333Y-32524819D02*
X98000000Y-32048628D01*
X97761905Y-32524819D02*
X97761905Y-31524819D01*
X97761905Y-31524819D02*
X98142857Y-31524819D01*
X98142857Y-31524819D02*
X98238095Y-31572438D01*
X98238095Y-31572438D02*
X98285714Y-31620057D01*
X98285714Y-31620057D02*
X98333333Y-31715295D01*
X98333333Y-31715295D02*
X98333333Y-31858152D01*
X98333333Y-31858152D02*
X98285714Y-31953390D01*
X98285714Y-31953390D02*
X98238095Y-32001009D01*
X98238095Y-32001009D02*
X98142857Y-32048628D01*
X98142857Y-32048628D02*
X97761905Y-32048628D01*
X98714286Y-31620057D02*
X98761905Y-31572438D01*
X98761905Y-31572438D02*
X98857143Y-31524819D01*
X98857143Y-31524819D02*
X99095238Y-31524819D01*
X99095238Y-31524819D02*
X99190476Y-31572438D01*
X99190476Y-31572438D02*
X99238095Y-31620057D01*
X99238095Y-31620057D02*
X99285714Y-31715295D01*
X99285714Y-31715295D02*
X99285714Y-31810533D01*
X99285714Y-31810533D02*
X99238095Y-31953390D01*
X99238095Y-31953390D02*
X98666667Y-32524819D01*
X98666667Y-32524819D02*
X99285714Y-32524819D01*
%TO.C,C2*%
D11*
X112653733Y-38610000D02*
X112946266Y-38610000D01*
X112653734Y-37590000D02*
X112946267Y-37590000D01*
%TO.C,FL1*%
D12*
X128375000Y-37275000D02*
X128375000Y-38775000D01*
X130624900Y-37275000D02*
X130624900Y-38775000D01*
%TO.C,JBL1*%
D11*
X130850000Y-38500000D02*
X130850000Y-39840000D01*
X130850000Y-42560000D02*
X130850000Y-44300000D01*
X130850000Y-44300000D02*
X140150000Y-44300000D01*
X132340000Y-38500000D02*
X130850000Y-38500000D01*
X132340000Y-38500000D02*
X132340000Y-37300000D01*
X138660000Y-38500000D02*
X140150000Y-38500000D01*
X140150000Y-38500000D02*
X140150000Y-39840000D01*
X140150000Y-44300000D02*
X140150000Y-42560000D01*
%TO.C,RN4*%
X129000000Y-31620000D02*
X128000000Y-31620000D01*
X129000000Y-34980000D02*
X128000000Y-34980000D01*
%TO.C,C6*%
X132353733Y-31510000D02*
X132646266Y-31510000D01*
X132353734Y-30490000D02*
X132646267Y-30490000D01*
%TO.C,RN5*%
X136000000Y-26520000D02*
X135000000Y-26520000D01*
X136000000Y-29880000D02*
X135000000Y-29880000D01*
%TO.C,JP1*%
X134700000Y-32600000D02*
X135300000Y-32600000D01*
X136000000Y-33300000D02*
X136000000Y-34700000D01*
X134000000Y-34700000D02*
X134000000Y-33300000D01*
X135300000Y-35400000D02*
X134700000Y-35400000D01*
X135000001Y-34000000D02*
X135000001Y-34000000D01*
X135000001Y-34000000D01*
X135000001Y-34000000D01*
X135000001Y-34000000D01*
X135000001Y-34000000D01*
X135000001Y-34000001D01*
X135000001Y-34000001D01*
X135000001Y-34000001D01*
X135000001Y-34000001D01*
X135000001Y-34000001D01*
X135000001Y-34000001D01*
X135000001Y-34000001D01*
X135000000Y-34000001D01*
X135000000Y-34000001D01*
X135000000Y-34000001D01*
X135000000Y-34000001D01*
X135000000Y-34000001D01*
X135000000Y-34000001D01*
X135000000Y-34000001D01*
X135000000Y-34000001D01*
X135000000Y-34000001D01*
X135000000Y-34000001D01*
X135000000Y-34000001D01*
X135000000Y-34000001D01*
X134999999Y-34000001D01*
X134999999Y-34000001D01*
X134999999Y-34000001D01*
X134999999Y-34000001D01*
X134999999Y-34000001D01*
X134999999Y-34000001D01*
X134999999Y-34000000D01*
X134999999Y-34000000D01*
X134999999Y-34000000D01*
X134999999Y-34000000D01*
X134999999Y-34000000D01*
X134999999Y-34000000D01*
X134999999Y-34000000D02*
X134999999Y-34000000D01*
X134999999Y-34000000D01*
X134999999Y-34000000D01*
X134999999Y-34000000D01*
X134999999Y-34000000D01*
X134999999Y-34000000D01*
X134999999Y-33999999D01*
X134999999Y-33999999D01*
X134999999Y-33999999D01*
X134999999Y-33999999D01*
X134999999Y-33999999D01*
X135000000Y-33999999D01*
X135000000Y-33999999D01*
X135000000Y-33999999D01*
X135000000Y-33999999D01*
X135000000Y-33999999D01*
X135000000Y-33999999D01*
X135000000Y-33999999D01*
X135000000Y-33999999D01*
X135000000Y-33999999D01*
X135000000Y-33999999D01*
X135000000Y-33999999D01*
X135000000Y-33999999D01*
X135000001Y-33999999D01*
X135000001Y-33999999D01*
X135000001Y-33999999D01*
X135000001Y-33999999D01*
X135000001Y-33999999D01*
X135000001Y-33999999D01*
X135000001Y-34000000D01*
X135000001Y-34000000D01*
X135000001Y-34000000D01*
X135000001Y-34000000D01*
X135000001Y-34000000D01*
X135000001Y-34000000D01*
X135000001Y-34000000D01*
X135000001Y-34000000D02*
X135000001Y-34000000D01*
X135000001Y-34000000D01*
X135000001Y-34000000D01*
X135000001Y-34000000D01*
X135000001Y-34000000D01*
X135000001Y-34000001D01*
X135000001Y-34000001D01*
X135000001Y-34000001D01*
X135000001Y-34000001D01*
X135000001Y-34000001D01*
X135000001Y-34000001D01*
X135000001Y-34000001D01*
X135000000Y-34000001D01*
X135000000Y-34000001D01*
X135000000Y-34000001D01*
X135000000Y-34000001D01*
X135000000Y-34000001D01*
X135000000Y-34000001D01*
X135000000Y-34000001D01*
X135000000Y-34000001D01*
X135000000Y-34000001D01*
X135000000Y-34000001D01*
X135000000Y-34000001D01*
X135000000Y-34000001D01*
X134999999Y-34000001D01*
X134999999Y-34000001D01*
X134999999Y-34000001D01*
X134999999Y-34000001D01*
X134999999Y-34000001D01*
X134999999Y-34000001D01*
X134999999Y-34000000D01*
X134999999Y-34000000D01*
X134999999Y-34000000D01*
X134999999Y-34000000D01*
X134999999Y-34000000D01*
X134999999Y-34000000D01*
X134999999Y-34000000D02*
X134999999Y-34000000D01*
X134999999Y-34000000D01*
X134999999Y-34000000D01*
X134999999Y-34000000D01*
X134999999Y-34000000D01*
X134999999Y-34000000D01*
X134999999Y-33999999D01*
X134999999Y-33999999D01*
X134999999Y-33999999D01*
X134999999Y-33999999D01*
X134999999Y-33999999D01*
X135000000Y-33999999D01*
X135000000Y-33999999D01*
X135000000Y-33999999D01*
X135000000Y-33999999D01*
X135000000Y-33999999D01*
X135000000Y-33999999D01*
X135000000Y-33999999D01*
X135000000Y-33999999D01*
X135000000Y-33999999D01*
X135000000Y-33999999D01*
X135000000Y-33999999D01*
X135000000Y-33999999D01*
X135000001Y-33999999D01*
X135000001Y-33999999D01*
X135000001Y-33999999D01*
X135000001Y-33999999D01*
X135000001Y-33999999D01*
X135000001Y-33999999D01*
X135000001Y-34000000D01*
X135000001Y-34000000D01*
X135000001Y-34000000D01*
X135000001Y-34000000D01*
X135000001Y-34000000D01*
X135000001Y-34000000D01*
X135000001Y-34000000D01*
X135000001Y-34000000D02*
X135000001Y-34000000D01*
X135000001Y-34000000D01*
X135000001Y-34000000D01*
X135000001Y-34000000D01*
X135000001Y-34000000D01*
X135000001Y-34000001D01*
X135000001Y-34000001D01*
X135000001Y-34000001D01*
X135000001Y-34000001D01*
X135000001Y-34000001D01*
X135000001Y-34000001D01*
X135000001Y-34000001D01*
X135000000Y-34000001D01*
X135000000Y-34000001D01*
X135000000Y-34000001D01*
X135000000Y-34000001D01*
X135000000Y-34000001D01*
X135000000Y-34000001D01*
X135000000Y-34000001D01*
X135000000Y-34000001D01*
X135000000Y-34000001D01*
X135000000Y-34000001D01*
X135000000Y-34000001D01*
X135000000Y-34000001D01*
X134999999Y-34000001D01*
X134999999Y-34000001D01*
X134999999Y-34000001D01*
X134999999Y-34000001D01*
X134999999Y-34000001D01*
X134999999Y-34000001D01*
X134999999Y-34000000D01*
X134999999Y-34000000D01*
X134999999Y-34000000D01*
X134999999Y-34000000D01*
X134999999Y-34000000D01*
X134999999Y-34000000D01*
X134999999Y-34000000D02*
X134999999Y-34000000D01*
X134999999Y-34000000D01*
X134999999Y-34000000D01*
X134999999Y-34000000D01*
X134999999Y-34000000D01*
X134999999Y-34000000D01*
X134999999Y-33999999D01*
X134999999Y-33999999D01*
X134999999Y-33999999D01*
X134999999Y-33999999D01*
X134999999Y-33999999D01*
X135000000Y-33999999D01*
X135000000Y-33999999D01*
X135000000Y-33999999D01*
X135000000Y-33999999D01*
X135000000Y-33999999D01*
X135000000Y-33999999D01*
X135000000Y-33999999D01*
X135000000Y-33999999D01*
X135000000Y-33999999D01*
X135000000Y-33999999D01*
X135000000Y-33999999D01*
X135000000Y-33999999D01*
X135000001Y-33999999D01*
X135000001Y-33999999D01*
X135000001Y-33999999D01*
X135000001Y-33999999D01*
X135000001Y-33999999D01*
X135000001Y-33999999D01*
X135000001Y-34000000D01*
X135000001Y-34000000D01*
X135000001Y-34000000D01*
X135000001Y-34000000D01*
X135000001Y-34000000D01*
X135000001Y-34000000D01*
X135000001Y-34000000D01*
X135000001Y-34000000D02*
X135000001Y-34000000D01*
X135000001Y-34000000D01*
X135000001Y-34000000D01*
X135000001Y-34000000D01*
X135000001Y-34000000D01*
X135000001Y-34000001D01*
X135000001Y-34000001D01*
X135000001Y-34000001D01*
X135000001Y-34000001D01*
X135000001Y-34000001D01*
X135000001Y-34000001D01*
X135000001Y-34000001D01*
X135000000Y-34000001D01*
X135000000Y-34000001D01*
X135000000Y-34000001D01*
X135000000Y-34000001D01*
X135000000Y-34000001D01*
X135000000Y-34000001D01*
X135000000Y-34000001D01*
X135000000Y-34000001D01*
X135000000Y-34000001D01*
X135000000Y-34000001D01*
X135000000Y-34000001D01*
X135000000Y-34000001D01*
X134999999Y-34000001D01*
X134999999Y-34000001D01*
X134999999Y-34000001D01*
X134999999Y-34000001D01*
X134999999Y-34000001D01*
X134999999Y-34000001D01*
X134999999Y-34000000D01*
X134999999Y-34000000D01*
X134999999Y-34000000D01*
X134999999Y-34000000D01*
X134999999Y-34000000D01*
X134999999Y-34000000D01*
X134999999Y-34000000D02*
X134999999Y-34000000D01*
X134999999Y-34000000D01*
X134999999Y-34000000D01*
X134999999Y-34000000D01*
X134999999Y-34000000D01*
X134999999Y-34000000D01*
X134999999Y-33999999D01*
X134999999Y-33999999D01*
X134999999Y-33999999D01*
X134999999Y-33999999D01*
X134999999Y-33999999D01*
X135000000Y-33999999D01*
X135000000Y-33999999D01*
X135000000Y-33999999D01*
X135000000Y-33999999D01*
X135000000Y-33999999D01*
X135000000Y-33999999D01*
X135000000Y-33999999D01*
X135000000Y-33999999D01*
X135000000Y-33999999D01*
X135000000Y-33999999D01*
X135000000Y-33999999D01*
X135000000Y-33999999D01*
X135000001Y-33999999D01*
X135000001Y-33999999D01*
X135000001Y-33999999D01*
X135000001Y-33999999D01*
X135000001Y-33999999D01*
X135000001Y-33999999D01*
X135000001Y-34000000D01*
X135000001Y-34000000D01*
X135000001Y-34000000D01*
X135000001Y-34000000D01*
X135000001Y-34000000D01*
X135000001Y-34000000D01*
X135000001Y-34000000D01*
%TO.C,J2*%
D13*
X110700000Y-39875000D02*
X112285000Y-39875000D01*
X110700000Y-42725000D02*
X126300000Y-42725000D01*
X124715000Y-39875000D02*
X126300000Y-39875000D01*
D12*
X112800000Y-38700000D02*
G75*
G02*
X112600000Y-38700000I-100000J0D01*
G01*
X112600000Y-38700000D02*
G75*
G02*
X112800000Y-38700000I100000J0D01*
G01*
%TO.C,C5*%
D11*
X122553733Y-38610000D02*
X122846266Y-38610000D01*
X122553734Y-37590000D02*
X122846267Y-37590000D01*
%TO.C,C3*%
X115953733Y-38610000D02*
X116246266Y-38610000D01*
X115953734Y-37590000D02*
X116246267Y-37590000D01*
%TO.C,C7*%
X98353733Y-37510000D02*
X98646266Y-37510000D01*
X98353734Y-36490000D02*
X98646267Y-36490000D01*
%TO.C,RN3*%
X110000000Y-31620000D02*
X109000000Y-31620000D01*
X110000000Y-34980000D02*
X109000000Y-34980000D01*
%TO.C,U1*%
X107210000Y-32850000D02*
X107210000Y-36610000D01*
X100390000Y-32850000D02*
X100390000Y-36610000D01*
X107210000Y-36610000D02*
X105950000Y-36610000D01*
X100390000Y-36610000D02*
X101650000Y-36610000D01*
X107110000Y-31570000D02*
X107440000Y-31330000D01*
X107440000Y-31810000D01*
X107110000Y-31570000D01*
G36*
X107440000Y-31810000D02*
G01*
X107110000Y-31570000D01*
X107440000Y-31330000D01*
X107440000Y-31810000D01*
G37*
%TO.C,RN1*%
X101000000Y-26520000D02*
X100000000Y-26520000D01*
X101000000Y-29880000D02*
X100000000Y-29880000D01*
%TO.C,FL2*%
D12*
X125075000Y-37275000D02*
X125075000Y-38775000D01*
X127324900Y-37275000D02*
X127324900Y-38775000D01*
%TO.C,IC1*%
D13*
X125500000Y-30250000D02*
X111500000Y-30250000D01*
X111500000Y-30250000D02*
X111500000Y-35750000D01*
X125500000Y-35750000D02*
X125500000Y-30250000D01*
X111500000Y-35750000D02*
X125500000Y-35750000D01*
X125337500Y-30650000D02*
G75*
G02*
X124937500Y-30650000I-200000J0D01*
G01*
X124937500Y-30650000D02*
G75*
G02*
X125337500Y-30650000I200000J0D01*
G01*
%TO.C,RN2*%
D11*
X105000000Y-26520000D02*
X104000000Y-26520000D01*
X105000000Y-29880000D02*
X104000000Y-29880000D01*
%TO.C,RN6*%
X140000000Y-26520000D02*
X139000000Y-26520000D01*
X140000000Y-29880000D02*
X139000000Y-29880000D01*
%TO.C,C8*%
X102353733Y-40510000D02*
X102646266Y-40510000D01*
X102353734Y-39490000D02*
X102646267Y-39490000D01*
%TO.C,JFFC1*%
D14*
X132000000Y-27850000D02*
X130110000Y-27850000D01*
X132000000Y-22400001D02*
X132000000Y-27850000D01*
X131430000Y-22400001D02*
X132000000Y-22400001D01*
X130570000Y-22400001D02*
X129180000Y-22400001D01*
X128320000Y-22400001D02*
X126680000Y-22400001D01*
X125820000Y-22400001D02*
X124180000Y-22400001D01*
X123320000Y-22400001D02*
X121680000Y-22400000D01*
X120820000Y-22400000D02*
X119180001Y-22400000D01*
X118320001Y-22400000D02*
X116680001Y-22400000D01*
X115820001Y-22400000D02*
X114180000Y-22400000D01*
X113320000Y-22400000D02*
X111680000Y-22400000D01*
X110820000Y-22400000D02*
X109430000Y-22400000D01*
X109890000Y-27849999D02*
X108000000Y-27849999D01*
X108000000Y-27859999D02*
X108000000Y-22400000D01*
X108000000Y-22400000D02*
X108570000Y-22400000D01*
D15*
X132030000Y-28360000D02*
G75*
G02*
X131970000Y-28360000I-30000J0D01*
G01*
X131970000Y-28360000D02*
G75*
G02*
X132030000Y-28360000I30000J0D01*
G01*
D14*
X131150000Y-28340000D02*
G75*
G02*
X130750000Y-28340000I-200000J0D01*
G01*
X130750000Y-28340000D02*
G75*
G02*
X131150000Y-28340000I200000J0D01*
G01*
%TO.C,JP2*%
D11*
X138700000Y-32600000D02*
X139300000Y-32600000D01*
X140000000Y-33300000D02*
X140000000Y-34700000D01*
X138000000Y-34700000D02*
X138000000Y-33300000D01*
X139300000Y-35400000D02*
X138700000Y-35400000D01*
X139000001Y-34000000D02*
X139000001Y-34000000D01*
X139000001Y-34000000D01*
X139000001Y-34000000D01*
X139000001Y-34000000D01*
X139000001Y-34000000D01*
X139000001Y-34000001D01*
X139000001Y-34000001D01*
X139000001Y-34000001D01*
X139000001Y-34000001D01*
X139000001Y-34000001D01*
X139000001Y-34000001D01*
X139000001Y-34000001D01*
X139000000Y-34000001D01*
X139000000Y-34000001D01*
X139000000Y-34000001D01*
X139000000Y-34000001D01*
X139000000Y-34000001D01*
X139000000Y-34000001D01*
X139000000Y-34000001D01*
X139000000Y-34000001D01*
X139000000Y-34000001D01*
X139000000Y-34000001D01*
X139000000Y-34000001D01*
X139000000Y-34000001D01*
X138999999Y-34000001D01*
X138999999Y-34000001D01*
X138999999Y-34000001D01*
X138999999Y-34000001D01*
X138999999Y-34000001D01*
X138999999Y-34000001D01*
X138999999Y-34000000D01*
X138999999Y-34000000D01*
X138999999Y-34000000D01*
X138999999Y-34000000D01*
X138999999Y-34000000D01*
X138999999Y-34000000D01*
X138999999Y-34000000D02*
X138999999Y-34000000D01*
X138999999Y-34000000D01*
X138999999Y-34000000D01*
X138999999Y-34000000D01*
X138999999Y-34000000D01*
X138999999Y-34000000D01*
X138999999Y-33999999D01*
X138999999Y-33999999D01*
X138999999Y-33999999D01*
X138999999Y-33999999D01*
X138999999Y-33999999D01*
X139000000Y-33999999D01*
X139000000Y-33999999D01*
X139000000Y-33999999D01*
X139000000Y-33999999D01*
X139000000Y-33999999D01*
X139000000Y-33999999D01*
X139000000Y-33999999D01*
X139000000Y-33999999D01*
X139000000Y-33999999D01*
X139000000Y-33999999D01*
X139000000Y-33999999D01*
X139000000Y-33999999D01*
X139000001Y-33999999D01*
X139000001Y-33999999D01*
X139000001Y-33999999D01*
X139000001Y-33999999D01*
X139000001Y-33999999D01*
X139000001Y-33999999D01*
X139000001Y-34000000D01*
X139000001Y-34000000D01*
X139000001Y-34000000D01*
X139000001Y-34000000D01*
X139000001Y-34000000D01*
X139000001Y-34000000D01*
X139000001Y-34000000D01*
X139000001Y-34000000D02*
X139000001Y-34000000D01*
X139000001Y-34000000D01*
X139000001Y-34000000D01*
X139000001Y-34000000D01*
X139000001Y-34000000D01*
X139000001Y-34000001D01*
X139000001Y-34000001D01*
X139000001Y-34000001D01*
X139000001Y-34000001D01*
X139000001Y-34000001D01*
X139000001Y-34000001D01*
X139000001Y-34000001D01*
X139000000Y-34000001D01*
X139000000Y-34000001D01*
X139000000Y-34000001D01*
X139000000Y-34000001D01*
X139000000Y-34000001D01*
X139000000Y-34000001D01*
X139000000Y-34000001D01*
X139000000Y-34000001D01*
X139000000Y-34000001D01*
X139000000Y-34000001D01*
X139000000Y-34000001D01*
X139000000Y-34000001D01*
X138999999Y-34000001D01*
X138999999Y-34000001D01*
X138999999Y-34000001D01*
X138999999Y-34000001D01*
X138999999Y-34000001D01*
X138999999Y-34000001D01*
X138999999Y-34000000D01*
X138999999Y-34000000D01*
X138999999Y-34000000D01*
X138999999Y-34000000D01*
X138999999Y-34000000D01*
X138999999Y-34000000D01*
X138999999Y-34000000D02*
X138999999Y-34000000D01*
X138999999Y-34000000D01*
X138999999Y-34000000D01*
X138999999Y-34000000D01*
X138999999Y-34000000D01*
X138999999Y-34000000D01*
X138999999Y-33999999D01*
X138999999Y-33999999D01*
X138999999Y-33999999D01*
X138999999Y-33999999D01*
X138999999Y-33999999D01*
X139000000Y-33999999D01*
X139000000Y-33999999D01*
X139000000Y-33999999D01*
X139000000Y-33999999D01*
X139000000Y-33999999D01*
X139000000Y-33999999D01*
X139000000Y-33999999D01*
X139000000Y-33999999D01*
X139000000Y-33999999D01*
X139000000Y-33999999D01*
X139000000Y-33999999D01*
X139000000Y-33999999D01*
X139000001Y-33999999D01*
X139000001Y-33999999D01*
X139000001Y-33999999D01*
X139000001Y-33999999D01*
X139000001Y-33999999D01*
X139000001Y-33999999D01*
X139000001Y-34000000D01*
X139000001Y-34000000D01*
X139000001Y-34000000D01*
X139000001Y-34000000D01*
X139000001Y-34000000D01*
X139000001Y-34000000D01*
X139000001Y-34000000D01*
X139000001Y-34000000D02*
X139000001Y-34000000D01*
X139000001Y-34000000D01*
X139000001Y-34000000D01*
X139000001Y-34000000D01*
X139000001Y-34000000D01*
X139000001Y-34000001D01*
X139000001Y-34000001D01*
X139000001Y-34000001D01*
X139000001Y-34000001D01*
X139000001Y-34000001D01*
X139000001Y-34000001D01*
X139000001Y-34000001D01*
X139000000Y-34000001D01*
X139000000Y-34000001D01*
X139000000Y-34000001D01*
X139000000Y-34000001D01*
X139000000Y-34000001D01*
X139000000Y-34000001D01*
X139000000Y-34000001D01*
X139000000Y-34000001D01*
X139000000Y-34000001D01*
X139000000Y-34000001D01*
X139000000Y-34000001D01*
X139000000Y-34000001D01*
X138999999Y-34000001D01*
X138999999Y-34000001D01*
X138999999Y-34000001D01*
X138999999Y-34000001D01*
X138999999Y-34000001D01*
X138999999Y-34000001D01*
X138999999Y-34000000D01*
X138999999Y-34000000D01*
X138999999Y-34000000D01*
X138999999Y-34000000D01*
X138999999Y-34000000D01*
X138999999Y-34000000D01*
X138999999Y-34000000D02*
X138999999Y-34000000D01*
X138999999Y-34000000D01*
X138999999Y-34000000D01*
X138999999Y-34000000D01*
X138999999Y-34000000D01*
X138999999Y-34000000D01*
X138999999Y-33999999D01*
X138999999Y-33999999D01*
X138999999Y-33999999D01*
X138999999Y-33999999D01*
X138999999Y-33999999D01*
X139000000Y-33999999D01*
X139000000Y-33999999D01*
X139000000Y-33999999D01*
X139000000Y-33999999D01*
X139000000Y-33999999D01*
X139000000Y-33999999D01*
X139000000Y-33999999D01*
X139000000Y-33999999D01*
X139000000Y-33999999D01*
X139000000Y-33999999D01*
X139000000Y-33999999D01*
X139000000Y-33999999D01*
X139000001Y-33999999D01*
X139000001Y-33999999D01*
X139000001Y-33999999D01*
X139000001Y-33999999D01*
X139000001Y-33999999D01*
X139000001Y-33999999D01*
X139000001Y-34000000D01*
X139000001Y-34000000D01*
X139000001Y-34000000D01*
X139000001Y-34000000D01*
X139000001Y-34000000D01*
X139000001Y-34000000D01*
X139000001Y-34000000D01*
X139000001Y-34000000D02*
X139000001Y-34000000D01*
X139000001Y-34000000D01*
X139000001Y-34000000D01*
X139000001Y-34000000D01*
X139000001Y-34000000D01*
X139000001Y-34000001D01*
X139000001Y-34000001D01*
X139000001Y-34000001D01*
X139000001Y-34000001D01*
X139000001Y-34000001D01*
X139000001Y-34000001D01*
X139000001Y-34000001D01*
X139000000Y-34000001D01*
X139000000Y-34000001D01*
X139000000Y-34000001D01*
X139000000Y-34000001D01*
X139000000Y-34000001D01*
X139000000Y-34000001D01*
X139000000Y-34000001D01*
X139000000Y-34000001D01*
X139000000Y-34000001D01*
X139000000Y-34000001D01*
X139000000Y-34000001D01*
X139000000Y-34000001D01*
X138999999Y-34000001D01*
X138999999Y-34000001D01*
X138999999Y-34000001D01*
X138999999Y-34000001D01*
X138999999Y-34000001D01*
X138999999Y-34000001D01*
X138999999Y-34000000D01*
X138999999Y-34000000D01*
X138999999Y-34000000D01*
X138999999Y-34000000D01*
X138999999Y-34000000D01*
X138999999Y-34000000D01*
X138999999Y-34000000D02*
X138999999Y-34000000D01*
X138999999Y-34000000D01*
X138999999Y-34000000D01*
X138999999Y-34000000D01*
X138999999Y-34000000D01*
X138999999Y-34000000D01*
X138999999Y-33999999D01*
X138999999Y-33999999D01*
X138999999Y-33999999D01*
X138999999Y-33999999D01*
X138999999Y-33999999D01*
X139000000Y-33999999D01*
X139000000Y-33999999D01*
X139000000Y-33999999D01*
X139000000Y-33999999D01*
X139000000Y-33999999D01*
X139000000Y-33999999D01*
X139000000Y-33999999D01*
X139000000Y-33999999D01*
X139000000Y-33999999D01*
X139000000Y-33999999D01*
X139000000Y-33999999D01*
X139000000Y-33999999D01*
X139000001Y-33999999D01*
X139000001Y-33999999D01*
X139000001Y-33999999D01*
X139000001Y-33999999D01*
X139000001Y-33999999D01*
X139000001Y-33999999D01*
X139000001Y-34000000D01*
X139000001Y-34000000D01*
X139000001Y-34000000D01*
X139000001Y-34000000D01*
X139000001Y-34000000D01*
X139000001Y-34000000D01*
X139000001Y-34000000D01*
%TO.C,C1*%
X109353733Y-38610000D02*
X109646266Y-38610000D01*
X109353734Y-37590000D02*
X109646267Y-37590000D01*
%TO.C,R1*%
X98245276Y-31722500D02*
X98754723Y-31722500D01*
X98245277Y-30677500D02*
X98754724Y-30677500D01*
%TO.C,C4*%
X119253733Y-38610000D02*
X119546266Y-38610000D01*
X119253734Y-37590000D02*
X119546267Y-37590000D01*
%TO.C,R2*%
X98245276Y-34022500D02*
X98754723Y-34022500D01*
X98245277Y-32977500D02*
X98754724Y-32977500D01*
%TD*%
M02*
