%TF.GenerationSoftware,KiCad,Pcbnew,10.99.0-2630-ge98e17ed18*%
%TF.CreationDate,2026-08-20T19:01:19+07:00*%
%TF.ProjectId,koyomi-lvds-hat,6b6f796f-6d69-42d6-9c76-64732d686174,rev?*%
%TF.SameCoordinates,Original*%
%TF.FileFunction,Copper,L4,Bot*%
%TF.FilePolarity,Positive*%
%FSLAX46Y46*%
G04 Gerber Fmt 4.6, Leading zero omitted, Abs format (unit mm)*
G04 Created by KiCad (PCBNEW 10.99.0-2630-ge98e17ed18) date 2026-08-20 19:01:19*
%MOMM*%
%LPD*%
G01*
G04 APERTURE LIST*
%TA.AperFunction,ViaPad*%
%ADD10C,0.500000*%
%TD*%
%TA.AperFunction,ViaPad*%
%ADD11C,0.450000*%
%TD*%
%TA.AperFunction,Conductor*%
%ADD12C,0.150000*%
%TD*%
G04 APERTURE END LIST*
D10*
%TO.N,+3V3*%
X110771700Y-37206000D03*
X126257100Y-30555300D03*
X98363300Y-37725800D03*
X112652700Y-30259400D03*
X114465600Y-35653400D03*
X128816000Y-30558500D03*
X119284800Y-34317400D03*
%TO.N,GND*%
X107270700Y-31187900D03*
X106662500Y-40586600D03*
X122986300Y-32256900D03*
X129437000Y-41035000D03*
X120711100Y-31753000D03*
X113336300Y-30266400D03*
X133457900Y-33428200D03*
X100096200Y-36266300D03*
%TO.N,Net-(IC1-Y1P)*%
X119750000Y-35635400D03*
X128208900Y-37525000D03*
%TO.N,RX1+*%
X122875400Y-40832100D03*
X128282700Y-38976700D03*
%TO.N,Net-(IC1-Y1M)*%
X128902600Y-36833500D03*
X120354900Y-35301000D03*
%TO.N,Net-(IC1-Y0P)*%
X130387200Y-35145800D03*
X121034700Y-35296900D03*
%TO.N,RX0+*%
X123500000Y-41154600D03*
X129519600Y-40269000D03*
%TO.N,Net-(IC1-Y0M)*%
X121622100Y-35631400D03*
X130528000Y-35926800D03*
%TO.N,RX0-*%
X130064600Y-39166200D03*
X124187600Y-41021300D03*
%TO.N,VCD6*%
X128569300Y-41511700D03*
X132557700Y-39019000D03*
%TO.N,VCD5*%
X133250000Y-39030900D03*
X132603800Y-42642000D03*
X118842900Y-42200000D03*
%TO.N,VCD4*%
X118206000Y-41046800D03*
X133554100Y-36877400D03*
%TO.N,VCD3*%
X123637500Y-42508700D03*
X134074200Y-39001900D03*
%TO.N,VCD2*%
X134748400Y-39002400D03*
X125437500Y-42165300D03*
%TO.N,VCD1*%
X135065300Y-36888600D03*
X119676900Y-40833600D03*
%TO.N,VAD*%
X113100000Y-40834100D03*
X135750000Y-39066800D03*
%TO.N,+5V*%
X129427600Y-27460700D03*
X137226800Y-39400700D03*
%TO.N,PWM*%
X111767500Y-27022400D03*
X137750000Y-39001700D03*
%TO.N,EN*%
X123905400Y-27264600D03*
X138255400Y-36684500D03*
%TO.N,D18*%
X126156800Y-32015900D03*
X116646100Y-30674600D03*
%TO.N,L_CLKIN*%
X126798100Y-32667700D03*
X112416700Y-34319200D03*
%TO.N,D26*%
X126776700Y-33700000D03*
X112250000Y-35652000D03*
D11*
%TO.N,G1*%
X118750000Y-24100000D03*
D10*
X128588600Y-34500000D03*
%TO.N,ENABLE*%
X130203900Y-33700000D03*
X116250500Y-26944800D03*
D11*
%TO.N,CLKIN*%
X117750000Y-24100000D03*
D10*
X130026700Y-31490100D03*
%TO.N,B1*%
X115750000Y-27366200D03*
X128589200Y-32100000D03*
%TO.N,+2V5*%
X119344100Y-38764100D03*
X119321900Y-31942500D03*
X103800000Y-32955300D03*
X130909200Y-30116000D03*
X113900000Y-40832500D03*
%TO.N,D0*%
X133757000Y-27280000D03*
X122348200Y-32895000D03*
%TO.N,D12*%
X119809400Y-31057600D03*
X133794500Y-27933400D03*
%TO.N,D9*%
X133791600Y-28600000D03*
X123551900Y-32613200D03*
%TO.N,D19*%
X133801000Y-29837700D03*
X116185100Y-31135500D03*
%TO.N,B2*%
X115179500Y-26900100D03*
X135579600Y-29400000D03*
%TO.N,G2*%
X136335100Y-25956500D03*
X136335100Y-24563900D03*
X114718600Y-26439200D03*
X114522600Y-24563900D03*
X137417700Y-28886200D03*
%TO.N,G3*%
X123158000Y-25933800D03*
D11*
X116750000Y-24100000D03*
D10*
X137207600Y-27600300D03*
D11*
X119750000Y-24100000D03*
D10*
%TO.N,R0*%
X112250000Y-26540200D03*
X135589400Y-26816100D03*
%TO.N,CLKSEL*%
X100113200Y-30499300D03*
X117471700Y-31197600D03*
X135771100Y-32578900D03*
%TO.N,PANEL_ID0*%
X116300000Y-40842100D03*
X125012500Y-33446200D03*
X122410300Y-27312700D03*
X115606100Y-34321600D03*
X126908900Y-30860200D03*
%TO.N,PANEL_ID1*%
X113250000Y-27454500D03*
X120651100Y-40833300D03*
%TO.N,RXCLK+*%
X125368700Y-39419100D03*
X121176400Y-41263900D03*
%TO.N,RXCLK-*%
X121699300Y-40856000D03*
X126020500Y-39255700D03*
%TO.N,RX2+*%
X122588400Y-38819500D03*
X127418700Y-38976700D03*
%TO.N,RX2-*%
X122300000Y-41199700D03*
X127482600Y-38074100D03*
%TO.N,LCD_INS*%
X125491900Y-41021900D03*
X110542900Y-29795800D03*
%TO.N,G0*%
X107913500Y-35035600D03*
X121117600Y-27455500D03*
%TO.N,D7*%
X123880100Y-30509600D03*
X111203900Y-34304000D03*
%TO.N,B5*%
X119214300Y-27129600D03*
X111536700Y-33700000D03*
%TO.N,B4*%
X118250000Y-27367100D03*
X111210900Y-32900000D03*
%TO.N,B3*%
X111271900Y-32143000D03*
X117153400Y-27390400D03*
%TO.N,D13*%
X119887300Y-30387000D03*
X119887300Y-27107300D03*
X98783900Y-27189400D03*
%TO.N,D15*%
X98788500Y-27892200D03*
X100289600Y-32475000D03*
X118045200Y-30396000D03*
%TO.N,D24*%
X109255000Y-29442500D03*
X98782400Y-28600000D03*
%TO.N,D25*%
X100416300Y-29404100D03*
X111194700Y-29739900D03*
%TO.N,VSYNC*%
X102204400Y-29201300D03*
X128573300Y-27461600D03*
%TO.N,HSYNC*%
X102219300Y-28407400D03*
X127573500Y-27461800D03*
%TO.N,B0*%
X126763800Y-27458300D03*
X102939100Y-26413800D03*
%TO.N,G4*%
X126112000Y-27461200D03*
X102215800Y-26810900D03*
%TO.N,Net-(IC1-CLCKOUTP)*%
X116288600Y-35414300D03*
X124920400Y-37801800D03*
%TO.N,Net-(IC1-CLCKOUTM)*%
X116940400Y-35381300D03*
X125860700Y-36845100D03*
%TO.N,Net-(IC1-Y2P)*%
X125104600Y-34549500D03*
X117592300Y-35572100D03*
%TO.N,Net-(IC1-Y2M)*%
X127482100Y-37171500D03*
X118250000Y-35628000D03*
%TO.N,D6*%
X124092600Y-31161400D03*
X137792800Y-28064800D03*
%TO.N,D14*%
X114964500Y-32143000D03*
X105905300Y-30058300D03*
X118723200Y-30274600D03*
X111935600Y-31841200D03*
%TO.N,SHTDN*%
X113546200Y-35646000D03*
X137846300Y-33544000D03*
X100122000Y-34209500D03*
%TO.N,D1*%
X104404200Y-28835600D03*
X123008800Y-35534800D03*
%TO.N,D2*%
X123934200Y-35549600D03*
X102679200Y-27879300D03*
%TO.N,D3*%
X139226700Y-30001600D03*
X124750000Y-35556300D03*
%TO.N,D4*%
X124203700Y-32416600D03*
X137901400Y-29949700D03*
%TO.N,G5*%
X125433900Y-27449500D03*
X106213900Y-29413800D03*
%TO.N,R1*%
X124792800Y-26742100D03*
X110115300Y-26335500D03*
D11*
%TO.N,R2*%
X120750000Y-24100000D03*
X115750000Y-24100000D03*
D10*
%TO.N,R3*%
X112762300Y-26083400D03*
X141205400Y-29415000D03*
%TO.N,R4*%
X111405000Y-26370600D03*
X141205500Y-28402400D03*
%TO.N,R5*%
X139225200Y-26391400D03*
X109901000Y-28960600D03*
%TD*%
%TO.N,+3V3*%
D12*
X112652700Y-33840500D02*
X112652700Y-30259400D01*
X114465600Y-35653400D02*
X112652700Y-33840500D01*
%TO.N,GND*%
X132108500Y-38363500D02*
X129437000Y-41035000D01*
X132108500Y-34777600D02*
X132108500Y-38363500D01*
X106662500Y-40586600D02*
X106662500Y-31796100D01*
X106662500Y-31796100D02*
X107270700Y-31187900D01*
X133457900Y-33428200D02*
X132108500Y-34777600D01*
%TO.N,VCD5*%
X132603800Y-39677100D02*
X132603800Y-42642000D01*
X133250000Y-39030900D02*
X132603800Y-39677100D01*
%TO.N,+5V*%
X129427600Y-27460700D02*
X129427600Y-27561500D01*
X137226800Y-35360700D02*
X137226800Y-39400700D01*
X129427600Y-27561500D02*
X137226800Y-35360700D01*
%TO.N,D18*%
X123920500Y-29779600D02*
X126156800Y-32015900D01*
X117541100Y-29779600D02*
X123920500Y-29779600D01*
X116646100Y-30674600D02*
X117541100Y-29779600D01*
%TO.N,G1*%
X130400000Y-34150000D02*
X130375000Y-34150000D01*
X120225000Y-23950000D02*
X120300000Y-24025000D01*
X123500000Y-25200000D02*
X123550000Y-25250000D01*
X120375000Y-24375000D02*
X121150000Y-25150000D01*
X130375000Y-34150000D02*
X130350000Y-34175000D01*
X118350000Y-23725000D02*
X118000000Y-23725000D01*
X118000000Y-23725000D02*
X117950000Y-23675000D01*
X130675000Y-33850000D02*
X130650000Y-33875000D01*
X121150000Y-25150000D02*
X123375000Y-25150000D01*
X128775000Y-34350000D02*
X128675000Y-34450000D01*
X127075000Y-26325000D02*
X127775000Y-27025000D01*
X130675000Y-33549999D02*
X130675000Y-33625000D01*
X116375000Y-24350000D02*
X116325000Y-24300000D01*
X127975000Y-27175000D02*
X127975000Y-27200000D01*
X127875000Y-27075000D02*
X127975000Y-27175000D01*
X120325000Y-24250000D02*
X120325000Y-24300000D01*
X130475000Y-31275000D02*
X130475000Y-31325000D01*
X130625000Y-33475000D02*
X130650000Y-33500000D01*
X130500000Y-31425000D02*
X130525000Y-31450000D01*
X130525000Y-34075000D02*
X130500000Y-34075000D01*
X130500000Y-31350000D02*
X130500000Y-31425000D01*
X127850000Y-27075000D02*
X127875000Y-27075000D01*
X116625000Y-23025000D02*
X116650000Y-23000000D01*
X128000000Y-27225000D02*
X128000000Y-27250000D01*
X130525000Y-31450000D02*
X130525000Y-33325000D01*
X128650000Y-34450000D02*
X128588600Y-34500000D01*
X120025000Y-23150000D02*
X120025000Y-23175000D01*
X120300000Y-24025000D02*
X120300000Y-24225000D01*
X130650000Y-33900000D02*
X130625000Y-33925000D01*
X123450000Y-25175000D02*
X123475000Y-25200000D01*
X120125000Y-23800000D02*
X120125000Y-23825000D01*
X120375000Y-24350000D02*
X120375000Y-24375000D01*
X119850000Y-23000000D02*
X119875000Y-23025000D01*
X128025000Y-27300000D02*
X128050000Y-27325000D01*
X130574999Y-34025000D02*
X130525000Y-34075000D01*
X123575000Y-25250000D02*
X124575000Y-26250000D01*
X129000000Y-34175000D02*
X128925000Y-34250000D01*
X116575000Y-24575000D02*
X116375000Y-24375000D01*
X127800000Y-27025000D02*
X127850000Y-27075000D01*
X119900000Y-23025000D02*
X120025000Y-23150000D01*
X130574999Y-33375000D02*
X130574999Y-33400000D01*
X128050000Y-28825000D02*
X130425000Y-31200000D01*
X119875000Y-23025000D02*
X119900000Y-23025000D01*
X124950000Y-26275000D02*
X124975000Y-26300000D01*
X117325000Y-23900000D02*
X117325000Y-23950000D01*
X123375000Y-25150000D02*
X123400000Y-25175000D01*
X123550000Y-25250000D02*
X123575000Y-25250000D01*
X116475000Y-23150000D02*
X116600000Y-23025000D01*
X117550000Y-23675000D02*
X117500000Y-23725000D01*
X116375000Y-23825000D02*
X116425000Y-23775000D01*
X130650000Y-33500000D02*
X130650000Y-33525000D01*
X128925000Y-34250000D02*
X128900000Y-34250000D01*
X130625000Y-33450000D02*
X130625000Y-33475000D01*
X130699999Y-33650000D02*
X130699999Y-33750000D01*
X124875000Y-26250000D02*
X124900000Y-26275000D01*
X120225000Y-23925000D02*
X120225000Y-23950000D01*
X128900000Y-34250000D02*
X128800000Y-34350000D01*
X130350000Y-34175000D02*
X129000000Y-34175000D01*
X120050000Y-23275000D02*
X120075000Y-23300000D01*
X125000000Y-26300000D02*
X125025000Y-26325000D01*
X116325000Y-24250000D02*
X116300000Y-24225000D01*
X116600000Y-23025000D02*
X116625000Y-23025000D01*
X120050000Y-23200000D02*
X120050000Y-23275000D01*
X117375000Y-23825000D02*
X117375000Y-23850000D01*
X116650000Y-23000000D02*
X119850000Y-23000000D01*
X120100000Y-23775000D02*
X120125000Y-23800000D01*
X130650000Y-33525000D02*
X130675000Y-33549999D01*
X130625000Y-33925000D02*
X130625000Y-33950000D01*
X116925000Y-24575000D02*
X116575000Y-24575000D01*
X130675000Y-33775000D02*
X130675000Y-33850000D01*
X116325000Y-23900000D02*
X116375000Y-23850000D01*
X120025000Y-23175000D02*
X120050000Y-23200000D01*
X117900000Y-23675000D02*
X117875000Y-23650000D01*
X124900000Y-26275000D02*
X124950000Y-26275000D01*
X116375000Y-24375000D02*
X116375000Y-24350000D01*
X128800000Y-34350000D02*
X128775000Y-34350000D01*
X120075000Y-23300000D02*
X120075000Y-23450000D01*
X116450000Y-23275000D02*
X116450000Y-23200000D01*
X128000000Y-27250000D02*
X128025000Y-27275000D01*
X116425000Y-23300000D02*
X116450000Y-23275000D01*
X116450000Y-23200000D02*
X116475000Y-23175000D01*
X116325000Y-23950000D02*
X116325000Y-23900000D01*
X120300000Y-24225000D02*
X120325000Y-24250000D01*
X120100000Y-23475000D02*
X120100000Y-23775000D01*
X117600000Y-23675000D02*
X117550000Y-23675000D01*
X130675000Y-33625000D02*
X130699999Y-33650000D01*
X118750000Y-24100000D02*
X118725000Y-24100000D01*
X127975000Y-27200000D02*
X128000000Y-27225000D01*
X130425000Y-31200000D02*
X130425000Y-31225000D01*
X130500000Y-34075000D02*
X130449999Y-34125000D01*
X130425000Y-34125000D02*
X130400000Y-34150000D01*
X117500000Y-23725000D02*
X117475000Y-23725000D01*
X130699999Y-33750000D02*
X130675000Y-33775000D01*
X125025000Y-26325000D02*
X127075000Y-26325000D01*
X127775000Y-27025000D02*
X127800000Y-27025000D01*
X117950000Y-23675000D02*
X117900000Y-23675000D01*
X130449999Y-34125000D02*
X130425000Y-34125000D01*
X120075000Y-23450000D02*
X120100000Y-23475000D01*
X116300000Y-23975000D02*
X116325000Y-23950000D01*
X130574999Y-33400000D02*
X130625000Y-33450000D01*
X130650000Y-33875000D02*
X130650000Y-33900000D01*
X123475000Y-25200000D02*
X123500000Y-25200000D01*
X116300000Y-24225000D02*
X116300000Y-23975000D01*
X130475000Y-31325000D02*
X130500000Y-31350000D01*
X117375000Y-23850000D02*
X117325000Y-23900000D01*
X128025000Y-27275000D02*
X128025000Y-27300000D01*
X128050000Y-27325000D02*
X128050000Y-28825000D01*
X117300000Y-23975000D02*
X117300000Y-24200000D01*
X130525000Y-33325000D02*
X130574999Y-33375000D01*
X130625000Y-33950000D02*
X130574999Y-34000000D01*
X117475000Y-23725000D02*
X117375000Y-23825000D01*
X130574999Y-34000000D02*
X130574999Y-34025000D01*
X130425000Y-31225000D02*
X130475000Y-31275000D01*
X117300000Y-24200000D02*
X116925000Y-24575000D01*
X123400000Y-25175000D02*
X123450000Y-25175000D01*
X128675000Y-34450000D02*
X128650000Y-34450000D01*
X116425000Y-23775000D02*
X116425000Y-23300000D01*
X117875000Y-23650000D02*
X117625000Y-23650000D01*
X117625000Y-23650000D02*
X117600000Y-23675000D01*
X124575000Y-26250000D02*
X124875000Y-26250000D01*
X124975000Y-26300000D02*
X125000000Y-26300000D01*
X116375000Y-23850000D02*
X116375000Y-23825000D01*
X117325000Y-23950000D02*
X117300000Y-23975000D01*
X116475000Y-23175000D02*
X116475000Y-23150000D01*
X120125000Y-23825000D02*
X120225000Y-23925000D01*
X118725000Y-24100000D02*
X118350000Y-23725000D01*
X116325000Y-24300000D02*
X116325000Y-24250000D01*
X120325000Y-24300000D02*
X120375000Y-24350000D01*
%TO.N,ENABLE*%
X126381500Y-28982100D02*
X124948600Y-28982100D01*
X117203000Y-25992300D02*
X116250500Y-26944800D01*
X123322400Y-27355900D02*
X123322400Y-27100700D01*
X127966100Y-30870200D02*
X127966100Y-30566700D01*
X127966100Y-30566700D02*
X126381500Y-28982100D01*
X128586500Y-31408400D02*
X128504300Y-31408400D01*
X124948600Y-28982100D02*
X123322400Y-27355900D01*
X130203900Y-33025800D02*
X128586500Y-31408400D01*
X123322400Y-27100700D02*
X122214000Y-25992300D01*
X122214000Y-25992300D02*
X117203000Y-25992300D01*
X128504300Y-31408400D02*
X127966100Y-30870200D01*
X130203900Y-33700000D02*
X130203900Y-33025800D01*
%TO.N,CLKIN*%
X123400000Y-25525000D02*
X123425000Y-25525000D01*
X126160200Y-28301900D02*
X125502300Y-28301900D01*
X123725000Y-26400000D02*
X123725000Y-26425000D01*
X123700000Y-26325000D02*
X123700000Y-26375000D01*
X128267800Y-30698800D02*
X128267800Y-30409500D01*
X119600000Y-24700000D02*
X119625000Y-24725000D01*
X119625000Y-24725000D02*
X119650000Y-24725000D01*
X118725000Y-24550000D02*
X118750000Y-24575000D01*
X123750000Y-26450000D02*
X123750000Y-26475000D01*
X119475000Y-24650000D02*
X119500000Y-24650000D01*
X119575000Y-24700000D02*
X119600000Y-24700000D01*
X119525000Y-24675000D02*
X119550000Y-24675000D01*
X124382100Y-27067100D02*
X123927900Y-26612900D01*
X123650000Y-25850000D02*
X123650000Y-26250000D01*
X123835500Y-26612900D02*
X123835500Y-26612800D01*
X118500000Y-24475000D02*
X118550000Y-24525000D01*
X123800000Y-26550000D02*
X123800000Y-26600000D01*
X123350000Y-25475000D02*
X123400000Y-25525000D01*
X124382100Y-27181700D02*
X124382100Y-27067100D01*
X123927900Y-26612900D02*
X123835500Y-26612900D01*
X128267800Y-30409500D02*
X126160200Y-28301900D01*
X128675700Y-31106700D02*
X128267800Y-30698800D01*
X118625000Y-24550000D02*
X118725000Y-24550000D01*
X118600000Y-24525000D02*
X118625000Y-24550000D01*
X123575000Y-25700000D02*
X123600000Y-25725000D01*
X118125000Y-24150000D02*
X118150000Y-24175000D01*
X123275000Y-25450000D02*
X123300000Y-25475000D01*
X123625000Y-25775000D02*
X123625000Y-25825000D01*
X117750000Y-24100000D02*
X117900000Y-24100000D01*
X123300000Y-25475000D02*
X123350000Y-25475000D01*
X119350000Y-24600000D02*
X119400000Y-24600000D01*
X125502300Y-28301900D02*
X124382100Y-27181700D01*
X123650000Y-26250000D02*
X123675000Y-26275000D01*
X119500000Y-24650000D02*
X119525000Y-24675000D01*
X117900000Y-24100000D02*
X117950000Y-24150000D01*
X123675000Y-26300000D02*
X123700000Y-26325000D01*
X123725000Y-26425000D02*
X123750000Y-26450000D01*
X123425000Y-25525000D02*
X123575000Y-25675000D01*
X118750000Y-24575000D02*
X119325000Y-24575000D01*
X123600000Y-25750000D02*
X123625000Y-25775000D01*
X119650000Y-24725000D02*
X120375000Y-25450000D01*
X118550000Y-24525000D02*
X118600000Y-24525000D01*
X123675000Y-26275000D02*
X123675000Y-26300000D01*
X119450000Y-24625000D02*
X119475000Y-24650000D01*
X118175000Y-24175000D02*
X118475000Y-24475000D01*
X129643300Y-31106700D02*
X128675700Y-31106700D01*
X119325000Y-24575000D02*
X119350000Y-24600000D01*
X123775000Y-26500000D02*
X123775000Y-26525000D01*
X119400000Y-24600000D02*
X119425000Y-24625000D01*
X123600000Y-25725000D02*
X123600000Y-25750000D01*
X119550000Y-24675000D02*
X119575000Y-24700000D01*
X118475000Y-24475000D02*
X118500000Y-24475000D01*
X117950000Y-24150000D02*
X118125000Y-24150000D01*
X123700000Y-26375000D02*
X123725000Y-26400000D01*
X123775000Y-26525000D02*
X123800000Y-26550000D01*
X123575000Y-25675000D02*
X123575000Y-25700000D01*
X130026700Y-31490100D02*
X129643300Y-31106700D01*
X123800000Y-26600000D02*
X123835500Y-26612900D01*
X119425000Y-24625000D02*
X119450000Y-24625000D01*
X123750000Y-26475000D02*
X123775000Y-26500000D01*
X118150000Y-24175000D02*
X118175000Y-24175000D01*
X123625000Y-25825000D02*
X123650000Y-25850000D01*
X120375000Y-25450000D02*
X123275000Y-25450000D01*
%TO.N,B1*%
X123020700Y-27225700D02*
X122089000Y-26294000D01*
X117575700Y-26294000D02*
X116395000Y-27474700D01*
X122089000Y-26294000D02*
X117575700Y-26294000D01*
X123020700Y-27480900D02*
X123020700Y-27225700D01*
X115858500Y-27474700D02*
X115750000Y-27366200D01*
X116395000Y-27474700D02*
X115858500Y-27474700D01*
X127385600Y-30896400D02*
X127385600Y-30412900D01*
X128589200Y-32100000D02*
X127385600Y-30896400D01*
X127385600Y-30412900D02*
X126256500Y-29283800D01*
X124823600Y-29283800D02*
X123020700Y-27480900D01*
X126256500Y-29283800D02*
X124823600Y-29283800D01*
%TO.N,G2*%
X136335100Y-25956500D02*
X136335100Y-24563900D01*
X114718600Y-26439200D02*
X114522600Y-26243200D01*
X114522600Y-26243200D02*
X114522600Y-24563900D01*
%TO.N,G3*%
X116750000Y-23300000D02*
X119750000Y-23300000D01*
X116750000Y-24100000D02*
X116750000Y-23300000D01*
X119750000Y-23300000D02*
X119750000Y-24100000D01*
%TO.N,PANEL_ID0*%
X126908900Y-30454600D02*
X126058800Y-29604500D01*
X116300000Y-40842100D02*
X115606100Y-40148200D01*
X126058800Y-29604500D02*
X124702100Y-29604500D01*
X115606100Y-40148200D02*
X115606100Y-34321600D01*
X124702100Y-29604500D02*
X122410300Y-27312700D01*
X126908900Y-30860200D02*
X126908900Y-30454600D01*
%TO.N,PANEL_ID1*%
X118816300Y-38998500D02*
X118816300Y-35256000D01*
X114539300Y-28743800D02*
X113250000Y-27454500D01*
X120651100Y-40833300D02*
X118816300Y-38998500D01*
X118816300Y-35256000D02*
X114539300Y-30979000D01*
X114539300Y-30979000D02*
X114539300Y-28743800D01*
%TO.N,LCD_INS*%
X119118200Y-35131200D02*
X119118200Y-35677700D01*
X120597200Y-37156700D02*
X121626700Y-37156700D01*
X114841000Y-30854000D02*
X119118200Y-35131200D01*
X113392200Y-26914000D02*
X114841000Y-28362800D01*
X110542900Y-29468300D02*
X113097200Y-26914000D01*
X113097200Y-26914000D02*
X113392200Y-26914000D01*
X119118200Y-35677700D02*
X120597200Y-37156700D01*
X121626700Y-37156700D02*
X125491900Y-41021900D01*
X114841000Y-28362800D02*
X114841000Y-30854000D01*
X110542900Y-29795800D02*
X110542900Y-29468300D01*
%TO.N,G0*%
X121117600Y-27455500D02*
X120705900Y-27867200D01*
X115472200Y-27867200D02*
X114183400Y-26578400D01*
X114183400Y-26578400D02*
X112980300Y-26578400D01*
X120705900Y-27867200D02*
X115472200Y-27867200D01*
X107913500Y-31645200D02*
X107913500Y-35035600D01*
X112980300Y-26578400D02*
X107913500Y-31645200D01*
%TO.N,R2*%
X115750000Y-24100000D02*
X115750000Y-22500000D01*
X120750000Y-22500000D02*
X120750000Y-24100000D01*
X115750000Y-22500000D02*
X120750000Y-22500000D01*
%TD*%
M02*
