%TF.GenerationSoftware,KiCad,Pcbnew,10.99.0-2630-ge98e17ed18*%
%TF.CreationDate,2026-08-20T19:58:19+07:00*%
%TF.ProjectId,koyomi-lvds-hat,6b6f796f-6d69-42d6-9c76-64732d686174,rev?*%
%TF.SameCoordinates,Original*%
%TF.FileFunction,Copper,L2,Inr*%
%TF.FilePolarity,Positive*%
%FSLAX46Y46*%
G04 Gerber Fmt 4.6, Leading zero omitted, Abs format (unit mm)*
G04 Created by KiCad (PCBNEW 10.99.0-2630-ge98e17ed18) date 2026-08-20 19:58:19*
%MOMM*%
%LPD*%
G01*
G04 APERTURE LIST*
%TA.AperFunction,ViaPad*%
%ADD10C,0.500000*%
%TD*%
%TA.AperFunction,ViaPad*%
%ADD11C,0.450000*%
%TD*%
%TA.AperFunction,Conductor*%
%ADD12C,0.150000*%
%TD*%
G04 APERTURE END LIST*
D10*
%TO.N,+3V3*%
X110771700Y-37206000D03*
X126257100Y-30555300D03*
X98363300Y-37725800D03*
X112652700Y-30259400D03*
X114465600Y-35653400D03*
X128816000Y-30558500D03*
X119284800Y-34317400D03*
%TO.N,GND*%
X107270700Y-31187900D03*
X106662500Y-40586600D03*
X122986300Y-32256900D03*
X129437000Y-41035000D03*
X120711100Y-31753000D03*
X113336300Y-30266400D03*
X133457900Y-33428200D03*
X100096200Y-36266300D03*
%TO.N,Net-(IC1-Y1P)*%
X119750000Y-35635400D03*
X128208900Y-37525000D03*
%TO.N,RX1+*%
X122875400Y-40832100D03*
X128282700Y-38976700D03*
%TO.N,Net-(IC1-Y1M)*%
X128902600Y-36833500D03*
X120354900Y-35301000D03*
%TO.N,Net-(IC1-Y0P)*%
X130387200Y-35145800D03*
X121034700Y-35296900D03*
%TO.N,RX0+*%
X123500000Y-41154600D03*
X129519600Y-40269000D03*
%TO.N,Net-(IC1-Y0M)*%
X121622100Y-35631400D03*
X130528000Y-35926800D03*
%TO.N,RX0-*%
X130064600Y-39166200D03*
X124187600Y-41021300D03*
%TO.N,VCD6*%
X128569300Y-41511700D03*
X132557700Y-39019000D03*
%TO.N,VCD5*%
X133250000Y-39030900D03*
X132603800Y-42642000D03*
X118842900Y-42200000D03*
%TO.N,VCD4*%
X118206000Y-41046800D03*
X133554100Y-36877400D03*
%TO.N,VCD3*%
X123637500Y-42508700D03*
X134074200Y-39001900D03*
%TO.N,VCD2*%
X134748400Y-39002400D03*
X125437500Y-42165300D03*
%TO.N,VCD1*%
X135065300Y-36888600D03*
X119676900Y-40833600D03*
%TO.N,VAD*%
X113100000Y-40834100D03*
X135750000Y-39066800D03*
%TO.N,+5V*%
X129427600Y-27460700D03*
X137226800Y-39400700D03*
%TO.N,PWM*%
X111767500Y-27022400D03*
X137750000Y-39001700D03*
%TO.N,EN*%
X123905400Y-27264600D03*
X138255400Y-36684500D03*
%TO.N,D18*%
X126156800Y-32015900D03*
X116646100Y-30674600D03*
%TO.N,L_CLKIN*%
X126798100Y-32667700D03*
X112416700Y-34319200D03*
%TO.N,D26*%
X126776700Y-33700000D03*
X112250000Y-35652000D03*
D11*
%TO.N,G1*%
X118750000Y-24100000D03*
D10*
X128588600Y-34500000D03*
%TO.N,ENABLE*%
X130203900Y-33700000D03*
X116250500Y-26944800D03*
D11*
%TO.N,CLKIN*%
X117750000Y-24100000D03*
D10*
X130026700Y-31490100D03*
%TO.N,B1*%
X115750000Y-27366200D03*
X128589200Y-32100000D03*
%TO.N,+2V5*%
X119344100Y-38764100D03*
X119321900Y-31942500D03*
X103800000Y-32955300D03*
X130909200Y-30116000D03*
X113900000Y-40832500D03*
%TO.N,D0*%
X133757000Y-27280000D03*
X122348200Y-32895000D03*
%TO.N,D12*%
X119809400Y-31057600D03*
X133794500Y-27933400D03*
%TO.N,D9*%
X133791600Y-28600000D03*
X123551900Y-32613200D03*
%TO.N,D19*%
X133801000Y-29837700D03*
X116185100Y-31135500D03*
%TO.N,B2*%
X115179500Y-26900100D03*
X135579600Y-29400000D03*
%TO.N,G2*%
X136335100Y-25956500D03*
X136335100Y-24563900D03*
X114718600Y-26439200D03*
X114522600Y-24563900D03*
X137417700Y-28886200D03*
%TO.N,G3*%
X123158000Y-25933800D03*
D11*
X116750000Y-24100000D03*
D10*
X137207600Y-27600300D03*
D11*
X119750000Y-24100000D03*
D10*
%TO.N,R0*%
X112250000Y-26540200D03*
X135589400Y-26816100D03*
%TO.N,CLKSEL*%
X100113200Y-30499300D03*
X117471700Y-31197600D03*
X135771100Y-32578900D03*
%TO.N,PANEL_ID0*%
X116300000Y-40842100D03*
X125012500Y-33446200D03*
X122410300Y-27312700D03*
X115606100Y-34321600D03*
X126908900Y-30860200D03*
%TO.N,PANEL_ID1*%
X113250000Y-27454500D03*
X120651100Y-40833300D03*
%TO.N,RXCLK+*%
X125368700Y-39419100D03*
X121176400Y-41263900D03*
%TO.N,RXCLK-*%
X121699300Y-40856000D03*
X126020500Y-39255700D03*
%TO.N,RX2+*%
X122588400Y-38819500D03*
X127418700Y-38976700D03*
%TO.N,RX2-*%
X122300000Y-41199700D03*
X127482600Y-38074100D03*
%TO.N,LCD_INS*%
X125491900Y-41021900D03*
X110542900Y-29795800D03*
%TO.N,G0*%
X107913500Y-35035600D03*
X121117600Y-27455500D03*
%TO.N,D7*%
X123880100Y-30509600D03*
X111203900Y-34304000D03*
%TO.N,B5*%
X119214300Y-27129600D03*
X111536700Y-33700000D03*
%TO.N,B4*%
X118250000Y-27367100D03*
X111210900Y-32900000D03*
%TO.N,B3*%
X111271900Y-32143000D03*
X117153400Y-27390400D03*
%TO.N,D13*%
X119887300Y-30387000D03*
X119887300Y-27107300D03*
X98783900Y-27189400D03*
%TO.N,D15*%
X98788500Y-27892200D03*
X100289600Y-32475000D03*
X118045200Y-30396000D03*
%TO.N,D24*%
X109255000Y-29442500D03*
X98782400Y-28600000D03*
%TO.N,D25*%
X100416300Y-29404100D03*
X111194700Y-29739900D03*
%TO.N,VSYNC*%
X102204400Y-29201300D03*
X128573300Y-27461600D03*
%TO.N,HSYNC*%
X102219300Y-28407400D03*
X127573500Y-27461800D03*
%TO.N,B0*%
X126763800Y-27458300D03*
X102939100Y-26413800D03*
%TO.N,G4*%
X126112000Y-27461200D03*
X102215800Y-26810900D03*
%TO.N,Net-(IC1-CLCKOUTP)*%
X116288600Y-35414300D03*
X124920400Y-37801800D03*
%TO.N,Net-(IC1-CLCKOUTM)*%
X116940400Y-35381300D03*
X125860700Y-36845100D03*
%TO.N,Net-(IC1-Y2P)*%
X125104600Y-34549500D03*
X117592300Y-35572100D03*
%TO.N,Net-(IC1-Y2M)*%
X127482100Y-37171500D03*
X118250000Y-35628000D03*
%TO.N,D6*%
X124092600Y-31161400D03*
X137792800Y-28064800D03*
%TO.N,D14*%
X114964500Y-32143000D03*
X105905300Y-30058300D03*
X118723200Y-30274600D03*
X111935600Y-31841200D03*
%TO.N,SHTDN*%
X113546200Y-35646000D03*
X137846300Y-33544000D03*
X100122000Y-34209500D03*
%TO.N,D1*%
X104404200Y-28835600D03*
X123008800Y-35534800D03*
%TO.N,D2*%
X123934200Y-35549600D03*
X102679200Y-27879300D03*
%TO.N,D3*%
X139226700Y-30001600D03*
X124750000Y-35556300D03*
%TO.N,D4*%
X124203700Y-32416600D03*
X137901400Y-29949700D03*
%TO.N,G5*%
X125433900Y-27449500D03*
X106213900Y-29413800D03*
%TO.N,R1*%
X124792800Y-26742100D03*
X110115300Y-26335500D03*
D11*
%TO.N,R2*%
X120750000Y-24100000D03*
X115750000Y-24100000D03*
D10*
%TO.N,R3*%
X112762300Y-26083400D03*
X141205400Y-29415000D03*
%TO.N,R4*%
X111405000Y-26370600D03*
X141205500Y-28402400D03*
%TO.N,R5*%
X139225200Y-26391400D03*
X109901000Y-28960600D03*
%TD*%
%TO.N,+3V3*%
D12*
X126257100Y-30555300D02*
X126429000Y-30383400D01*
X124680400Y-32132000D02*
X126257100Y-30555300D01*
X119284800Y-34317400D02*
X119990400Y-33611800D01*
X123682700Y-33611800D02*
X124680400Y-32614100D01*
X128640900Y-30383400D02*
X128816000Y-30558500D01*
X126429000Y-30383400D02*
X128640900Y-30383400D01*
X124680400Y-32614100D02*
X124680400Y-32132000D01*
X119990400Y-33611800D02*
X123682700Y-33611800D01*
%TO.N,GND*%
X126011100Y-30078600D02*
X125749000Y-30340700D01*
X125749000Y-30340700D02*
X125749000Y-30605900D01*
X125749000Y-30605900D02*
X124415100Y-31939800D01*
X133457900Y-33428100D02*
X132641500Y-33428100D01*
X123303400Y-31939800D02*
X122986300Y-32256900D01*
X129292000Y-30078600D02*
X126011100Y-30078600D01*
X124415100Y-31939800D02*
X123303400Y-31939800D01*
X133457900Y-33428200D02*
X133457900Y-33428100D01*
X132641500Y-33428100D02*
X129292000Y-30078600D01*
X106662500Y-40586600D02*
X104416500Y-40586600D01*
X104416500Y-40586600D02*
X100096200Y-36266300D01*
%TO.N,RX1+*%
X126714900Y-40544500D02*
X128282700Y-38976700D01*
X123163000Y-40544500D02*
X126714900Y-40544500D01*
X122875400Y-40832100D02*
X123163000Y-40544500D01*
%TO.N,RX0+*%
X129137900Y-40269000D02*
X127902000Y-41504900D01*
X129519600Y-40269000D02*
X129137900Y-40269000D01*
X123850300Y-41504900D02*
X123500000Y-41154600D01*
X127902000Y-41504900D02*
X123850300Y-41504900D01*
%TO.N,Net-(IC1-Y0M)*%
X122225700Y-35027800D02*
X121622100Y-35631400D01*
X130528000Y-35926800D02*
X130493800Y-35926800D01*
X129594800Y-35027800D02*
X122225700Y-35027800D01*
X130493800Y-35926800D02*
X129594800Y-35027800D01*
%TO.N,VCD6*%
X130065000Y-41511700D02*
X128569300Y-41511700D01*
X132557700Y-39019000D02*
X130065000Y-41511700D01*
%TO.N,VCD4*%
X123229800Y-37070900D02*
X122181900Y-37070900D01*
X124263700Y-36037000D02*
X123229800Y-37070900D01*
X122181900Y-37070900D02*
X118206000Y-41046800D01*
X128897100Y-36037000D02*
X124263700Y-36037000D01*
X133554100Y-36877400D02*
X129737500Y-36877400D01*
X129737500Y-36877400D02*
X128897100Y-36037000D01*
%TO.N,VCD3*%
X123637500Y-42508700D02*
X123770800Y-42642000D01*
X135225200Y-38789300D02*
X134931300Y-38495400D01*
X134931300Y-38495400D02*
X134580700Y-38495400D01*
X135225200Y-39202600D02*
X135225200Y-38789300D01*
X134580700Y-38495400D02*
X134074200Y-39001900D01*
X123770800Y-42642000D02*
X131785800Y-42642000D01*
X131785800Y-42642000D02*
X135225200Y-39202600D01*
%TO.N,VCD2*%
X125437500Y-42165300D02*
X131585500Y-42165300D01*
X131585500Y-42165300D02*
X134748400Y-39002400D01*
%TO.N,VCD1*%
X124388800Y-36338700D02*
X127713600Y-36338700D01*
X134583900Y-37370000D02*
X135065300Y-36888600D01*
X127713600Y-36338700D02*
X128744900Y-37370000D01*
X128744900Y-37370000D02*
X134583900Y-37370000D01*
X119676900Y-40833600D02*
X119893900Y-40833600D01*
X119893900Y-40833600D02*
X124388800Y-36338700D01*
%TO.N,PWM*%
X113741500Y-25787000D02*
X112506100Y-27022400D01*
X119572000Y-25457100D02*
X119242100Y-25787000D01*
X139335100Y-29362900D02*
X137220300Y-29362900D01*
X112506100Y-27022400D02*
X111767500Y-27022400D01*
X133806200Y-25787000D02*
X123685400Y-25787000D01*
X136941000Y-28921800D02*
X133806200Y-25787000D01*
X137750000Y-39001700D02*
X139716600Y-37035100D01*
X119242100Y-25787000D02*
X113741500Y-25787000D01*
X123355500Y-25457100D02*
X119572000Y-25457100D01*
X139716600Y-29744400D02*
X139335100Y-29362900D01*
X123685400Y-25787000D02*
X123355500Y-25457100D01*
X137220300Y-29362900D02*
X136941000Y-29083600D01*
X136941000Y-29083600D02*
X136941000Y-28921800D01*
X139716600Y-37035100D02*
X139716600Y-29744400D01*
%TO.N,EN*%
X133920700Y-26754900D02*
X125454200Y-26754900D01*
X134388300Y-28948600D02*
X134388300Y-27222500D01*
X134388300Y-27222500D02*
X133920700Y-26754900D01*
X138367500Y-32927800D02*
X134388300Y-28948600D01*
X138255400Y-36684500D02*
X138367500Y-36572400D01*
X124944500Y-27264600D02*
X123905400Y-27264600D01*
X125454200Y-26754900D02*
X124944500Y-27264600D01*
X138367500Y-36572400D02*
X138367500Y-32927800D01*
%TO.N,D26*%
X115945400Y-34794100D02*
X119482300Y-34794100D01*
X112250000Y-35652000D02*
X112865900Y-35652000D01*
X126553800Y-33922900D02*
X126776700Y-33700000D01*
X115854200Y-34885300D02*
X115945400Y-34794100D01*
X119482300Y-34794100D02*
X120353500Y-33922900D01*
X112865900Y-35652000D02*
X113632600Y-34885300D01*
X120353500Y-33922900D02*
X126553800Y-33922900D01*
X113632600Y-34885300D02*
X115854200Y-34885300D01*
%TO.N,+2V5*%
X113900000Y-40832500D02*
X115968400Y-38764100D01*
X113279500Y-40212000D02*
X111056700Y-40212000D01*
X111056700Y-40212000D02*
X103800000Y-32955300D01*
X113900000Y-40832500D02*
X113279500Y-40212000D01*
X115968400Y-38764100D02*
X119344100Y-38764100D01*
X119847500Y-31942500D02*
X119321900Y-31942500D01*
X122319800Y-29470200D02*
X119847500Y-31942500D01*
X130263400Y-29470200D02*
X122319800Y-29470200D01*
X130909200Y-30116000D02*
X130263400Y-29470200D01*
%TO.N,D12*%
X125916200Y-27999100D02*
X125614500Y-28300800D01*
X119931300Y-31057600D02*
X119809400Y-31057600D01*
X122688100Y-28300800D02*
X119931300Y-31057600D01*
X125614500Y-28300800D02*
X122688100Y-28300800D01*
X133728800Y-27999100D02*
X125916200Y-27999100D01*
X133794500Y-27933400D02*
X133728800Y-27999100D01*
%TO.N,B2*%
X122864400Y-26434600D02*
X122694000Y-26264200D01*
X123339600Y-26434600D02*
X122864400Y-26434600D01*
X135579600Y-29400000D02*
X135579600Y-27987100D01*
X133728600Y-26136100D02*
X123638100Y-26136100D01*
X135579600Y-27987100D02*
X133728600Y-26136100D01*
X123638100Y-26136100D02*
X123339600Y-26434600D01*
X115815400Y-26264200D02*
X115179500Y-26900100D01*
X122694000Y-26264200D02*
X115815400Y-26264200D01*
%TO.N,G2*%
X137417700Y-28886200D02*
X136335100Y-27803600D01*
X136335100Y-27803600D02*
X136335100Y-25956500D01*
%TO.N,R0*%
X135589400Y-26816100D02*
X134244700Y-25471400D01*
X123796500Y-25471400D02*
X123480500Y-25155400D01*
X112250000Y-25897000D02*
X112250000Y-26540200D01*
X123480500Y-25155400D02*
X119447000Y-25155400D01*
X119210200Y-25392200D02*
X112754800Y-25392200D01*
X112754800Y-25392200D02*
X112250000Y-25897000D01*
X134244700Y-25471400D02*
X123796500Y-25471400D01*
X119447000Y-25155400D02*
X119210200Y-25392200D01*
%TO.N,CLKSEL*%
X105428600Y-30255700D02*
X108828900Y-33656000D01*
X121291600Y-32423700D02*
X118697800Y-32423700D01*
X112990900Y-35100300D02*
X114781100Y-33310100D01*
X121258700Y-33310100D02*
X122930700Y-31638100D01*
X103569700Y-29372600D02*
X103569700Y-28946900D01*
X123755200Y-29960100D02*
X121291600Y-32423700D01*
X110933400Y-35100300D02*
X112990900Y-35100300D01*
X108828900Y-33656000D02*
X109489100Y-33656000D01*
X124377700Y-29960100D02*
X123755200Y-29960100D01*
X124290100Y-31638100D02*
X124569300Y-31358900D01*
X122930700Y-31638100D02*
X124290100Y-31638100D01*
X129419200Y-29776900D02*
X124944100Y-29776900D01*
X135771100Y-32578900D02*
X132221200Y-32578900D01*
X132221200Y-32578900D02*
X129419200Y-29776900D01*
X100113200Y-30499300D02*
X102443000Y-30499300D01*
X118697800Y-32423700D02*
X117471700Y-31197600D01*
X105428600Y-29088700D02*
X105428600Y-30255700D01*
X124944100Y-29776900D02*
X124569300Y-30151700D01*
X124569300Y-31358900D02*
X124569300Y-30151700D01*
X109489100Y-33656000D02*
X110933400Y-35100300D01*
X103569700Y-28946900D02*
X104208100Y-28308500D01*
X114781100Y-33310100D02*
X121258700Y-33310100D01*
X104648400Y-28308500D02*
X105428600Y-29088700D01*
X102443000Y-30499300D02*
X103569700Y-29372600D01*
X104208100Y-28308500D02*
X104648400Y-28308500D01*
X124569300Y-30151700D02*
X124377700Y-29960100D01*
%TO.N,PANEL_ID0*%
X125012500Y-33446200D02*
X125012500Y-32484200D01*
X126636500Y-30860200D02*
X126908900Y-30860200D01*
X125012500Y-32484200D02*
X126636500Y-30860200D01*
%TO.N,RXCLK-*%
X121699300Y-40856000D02*
X123613100Y-38942200D01*
X125707000Y-38942200D02*
X126020500Y-39255700D01*
X123613100Y-38942200D02*
X125707000Y-38942200D01*
%TO.N,RX2+*%
X127076500Y-38634500D02*
X127418700Y-38976700D01*
X122588400Y-38819500D02*
X122773400Y-38634500D01*
X122773400Y-38634500D02*
X127076500Y-38634500D01*
%TO.N,D7*%
X111698500Y-34798600D02*
X112865900Y-34798600D01*
X121133700Y-33008400D02*
X123632500Y-30509600D01*
X111203900Y-34304000D02*
X111698500Y-34798600D01*
X123632500Y-30509600D02*
X123880100Y-30509600D01*
X112865900Y-34798600D02*
X114656100Y-33008400D01*
X114656100Y-33008400D02*
X121133700Y-33008400D01*
%TO.N,B5*%
X111536700Y-33700000D02*
X111963400Y-33700000D01*
X111963400Y-33700000D02*
X116141100Y-29522300D01*
X116821600Y-29522300D02*
X119214300Y-27129600D01*
X116141100Y-29522300D02*
X116821600Y-29522300D01*
%TO.N,B4*%
X117869600Y-27367100D02*
X112336700Y-32900000D01*
X118250000Y-27367100D02*
X117869600Y-27367100D01*
X112336700Y-32900000D02*
X111210900Y-32900000D01*
%TO.N,B3*%
X111447000Y-32318100D02*
X111271900Y-32143000D01*
X117153400Y-27390400D02*
X117153400Y-27618600D01*
X112453900Y-32318100D02*
X111447000Y-32318100D01*
X117153400Y-27618600D02*
X112453900Y-32318100D01*
%TO.N,D13*%
X119887300Y-30387000D02*
X119887300Y-27107300D01*
%TO.N,D15*%
X98266900Y-28413800D02*
X98788500Y-27892200D01*
X100289600Y-32475000D02*
X98266900Y-30452300D01*
X98266900Y-30452300D02*
X98266900Y-28413800D01*
%TO.N,D24*%
X107215100Y-27402600D02*
X109255000Y-29442500D01*
X99979800Y-27402600D02*
X107215100Y-27402600D01*
X98782400Y-28600000D02*
X99979800Y-27402600D01*
%TO.N,D25*%
X103268000Y-28820900D02*
X103268000Y-29247600D01*
X102535600Y-29980000D02*
X100992200Y-29980000D01*
X111194700Y-29739900D02*
X110745100Y-29290300D01*
X110745100Y-29290300D02*
X110374300Y-29290300D01*
X110374300Y-29290300D02*
X109744300Y-29920300D01*
X109744300Y-29920300D02*
X108444300Y-29920300D01*
X108444300Y-29920300D02*
X106530800Y-28006800D01*
X100992200Y-29980000D02*
X100416300Y-29404100D01*
X103268000Y-29247600D02*
X102535600Y-29980000D01*
X104082100Y-28006800D02*
X103268000Y-28820900D01*
X106530800Y-28006800D02*
X104082100Y-28006800D01*
%TO.N,Net-(IC1-Y2P)*%
X117592300Y-35572100D02*
X118068600Y-35095800D01*
X119607300Y-35095800D02*
X120153600Y-34549500D01*
X118068600Y-35095800D02*
X119607300Y-35095800D01*
X120153600Y-34549500D02*
X125104600Y-34549500D01*
%TO.N,D14*%
X114964500Y-31681800D02*
X116739600Y-29906700D01*
X116739600Y-29906700D02*
X118355300Y-29906700D01*
X114964500Y-32143000D02*
X114964500Y-31681800D01*
X111935600Y-31841200D02*
X111336100Y-31241700D01*
X118355300Y-29906700D02*
X118723200Y-30274600D01*
X107435100Y-30635000D02*
X106482000Y-30635000D01*
X106482000Y-30635000D02*
X105905300Y-30058300D01*
X111336100Y-31241700D02*
X108041800Y-31241700D01*
X108041800Y-31241700D02*
X107435100Y-30635000D01*
%TO.N,D1*%
X111536700Y-36130300D02*
X122413300Y-36130300D01*
X104404200Y-29658000D02*
X108703900Y-33957700D01*
X104404200Y-28835600D02*
X104404200Y-29658000D01*
X109364100Y-33957700D02*
X111536700Y-36130300D01*
X122413300Y-36130300D02*
X123008800Y-35534800D01*
X108703900Y-33957700D02*
X109364100Y-33957700D01*
%TO.N,D2*%
X102769600Y-29319300D02*
X102769600Y-27969700D01*
X111424400Y-36444700D02*
X109345300Y-34365600D01*
X102410600Y-29678300D02*
X102769600Y-29319300D01*
X99595700Y-30675800D02*
X99595700Y-29534300D01*
X102769600Y-27969700D02*
X102679200Y-27879300D01*
X103985300Y-31121400D02*
X100041300Y-31121400D01*
X123039100Y-36444700D02*
X111424400Y-36444700D01*
X109345300Y-34365600D02*
X107229500Y-34365600D01*
X99595700Y-29534300D02*
X100205200Y-28924800D01*
X100871900Y-28924800D02*
X101625400Y-29678300D01*
X123934200Y-35549600D02*
X123039100Y-36444700D01*
X100041300Y-31121400D02*
X99595700Y-30675800D01*
X100205200Y-28924800D02*
X100871900Y-28924800D01*
X107229500Y-34365600D02*
X103985300Y-31121400D01*
X101625400Y-29678300D02*
X102410600Y-29678300D01*
%TO.N,D3*%
X130334900Y-36408000D02*
X129483200Y-35556300D01*
X133114100Y-36335200D02*
X133041300Y-36408000D01*
X139226700Y-30001600D02*
X139226700Y-36424500D01*
X133041300Y-36408000D02*
X130334900Y-36408000D01*
X139226700Y-36424500D02*
X138455900Y-37195300D01*
X137981700Y-37195300D02*
X137121600Y-36335200D01*
X138455900Y-37195300D02*
X137981700Y-37195300D01*
X129483200Y-35556300D02*
X124750000Y-35556300D01*
X137121600Y-36335200D02*
X133114100Y-36335200D01*
%TO.N,G5*%
X120969300Y-26565900D02*
X117303800Y-26565900D01*
X113813100Y-30056600D02*
X113813100Y-30530700D01*
X109121200Y-30770800D02*
X108577500Y-30227100D01*
X108577500Y-30227100D02*
X107027200Y-30227100D01*
X107027200Y-30227100D02*
X106213900Y-29413800D01*
X125077100Y-27806300D02*
X122209700Y-27806300D01*
X125433900Y-27449500D02*
X125077100Y-27806300D01*
X122209700Y-27806300D02*
X120969300Y-26565900D01*
X117303800Y-26565900D02*
X113813100Y-30056600D01*
X113573000Y-30770800D02*
X109121200Y-30770800D01*
X113813100Y-30530700D02*
X113573000Y-30770800D01*
%TO.N,R5*%
X137993400Y-25159600D02*
X123911400Y-25159600D01*
X112011600Y-25089900D02*
X110928300Y-26173200D01*
X119085800Y-25089900D02*
X112011600Y-25089900D01*
X110928300Y-27933300D02*
X109901000Y-28960600D01*
X123911400Y-25159600D02*
X123605500Y-24853700D01*
X119322000Y-24853700D02*
X119085800Y-25089900D01*
X110928300Y-26173200D02*
X110928300Y-27933300D01*
X123605500Y-24853700D02*
X119322000Y-24853700D01*
X139225200Y-26391400D02*
X137993400Y-25159600D01*
%TD*%
M02*
