%TF.GenerationSoftware,KiCad,Pcbnew,10.99.0-2630-ge98e17ed18*%
%TF.CreationDate,2026-08-20T19:58:19+07:00*%
%TF.ProjectId,koyomi-lvds-hat,6b6f796f-6d69-42d6-9c76-64732d686174,rev?*%
%TF.SameCoordinates,Original*%
%TF.FileFunction,Paste,Top*%
%TF.FilePolarity,Positive*%
%FSLAX46Y46*%
G04 Gerber Fmt 4.6, Leading zero omitted, Abs format (unit mm)*
G04 Created by KiCad (PCBNEW 10.99.0-2630-ge98e17ed18) date 2026-08-20 19:58:19*
%MOMM*%
%LPD*%
G01*
G04 APERTURE LIST*
G04 Aperture macros list*
%AMRoundRect*
0 Rectangle with rounded corners*
0 $1 Rounding radius*
0 $2 $3 $4 $5 $6 $7 $8 $9 X,Y pos of 4 corners*
0 Add a 4 corners polygon primitive as box body*
4,1,4,$2,$3,$4,$5,$6,$7,$8,$9,$2,$3,0*
0 Add four circle primitives for the rounded corners*
1,1,$1+$1,$2,$3*
1,1,$1+$1,$4,$5*
1,1,$1+$1,$6,$7*
1,1,$1+$1,$8,$9*
0 Add four rect primitives between the rounded corners*
20,1,$1+$1,$2,$3,$4,$5,0*
20,1,$1+$1,$4,$5,$6,$7,0*
20,1,$1+$1,$6,$7,$8,$9,0*
20,1,$1+$1,$8,$9,$2,$3,0*%
G04 Aperture macros list end*
%ADD10RoundRect,0.237500X-0.300000X-0.237500X0.300000X-0.237500X0.300000X0.237500X-0.300000X0.237500X0*%
%ADD11R,0.250000X0.550000*%
%ADD12R,0.300000X1.300000*%
%ADD13R,1.800000X2.200000*%
%ADD14R,0.800000X0.500000*%
%ADD15R,0.800000X0.400000*%
%ADD16R,0.200000X1.200000*%
%ADD17R,1.400000X2.000000*%
%ADD18RoundRect,0.375000X-0.375000X0.625000X-0.375000X-0.625000X0.375000X-0.625000X0.375000X0.625000X0*%
%ADD19RoundRect,0.500000X-1.400000X0.500000X-1.400000X-0.500000X1.400000X-0.500000X1.400000X0.500000X0*%
%ADD20RoundRect,0.009000X-0.141000X0.491000X-0.141000X-0.491000X0.141000X-0.491000X0.141000X0.491000X0*%
%ADD21R,0.250000X0.650000*%
%ADD22R,0.400000X1.000000*%
%ADD23R,0.400000X1.550000*%
%ADD24RoundRect,0.237500X-0.250000X-0.237500X0.250000X-0.237500X0.250000X0.237500X-0.250000X0.237500X0*%
G04 APERTURE END LIST*
D10*
%TO.C,C2*%
X111937500Y-38100000D03*
X113662500Y-38100000D03*
%TD*%
D11*
%TO.C,FL1*%
X128749900Y-37525000D03*
X128749900Y-38475000D03*
X129250100Y-37525000D03*
X129250100Y-38475000D03*
X129749900Y-37525000D03*
X129749900Y-38475000D03*
X130250100Y-37525000D03*
X130250100Y-38475000D03*
%TD*%
D12*
%TO.C,JBL1*%
X132750000Y-37950000D03*
X133250000Y-37950000D03*
X133750000Y-37950000D03*
X134250000Y-37950000D03*
X134750000Y-37950000D03*
X135250000Y-37950000D03*
X135750000Y-37950000D03*
X136250000Y-37950000D03*
X136750000Y-37950000D03*
X137250000Y-37950000D03*
X137750000Y-37950000D03*
X138250000Y-37950000D03*
D13*
X130850000Y-41200000D03*
X140150000Y-41200000D03*
%TD*%
D14*
%TO.C,RN4*%
X127600000Y-32100000D03*
D15*
X127600000Y-32900000D03*
X127600000Y-33700000D03*
D14*
X127600000Y-34500000D03*
X129400000Y-34500000D03*
D15*
X129400000Y-33700000D03*
X129400000Y-32900000D03*
D14*
X129400000Y-32100000D03*
%TD*%
D10*
%TO.C,C6*%
X131637500Y-31000000D03*
X133362500Y-31000000D03*
%TD*%
D14*
%TO.C,RN5*%
X134600000Y-27000000D03*
D15*
X134600000Y-27800000D03*
X134600000Y-28600000D03*
D14*
X134600000Y-29400000D03*
X136400000Y-29400000D03*
D15*
X136400000Y-28600000D03*
X136400000Y-27800000D03*
D14*
X136400000Y-27000000D03*
%TD*%
D16*
%TO.C,J2*%
X112700000Y-39830000D03*
X113100000Y-39830000D03*
X113500000Y-39830000D03*
X113900000Y-39830000D03*
X114300000Y-39830000D03*
X114700000Y-39830000D03*
X115100000Y-39830000D03*
X115500000Y-39830000D03*
X115900000Y-39830000D03*
X116300000Y-39830000D03*
X116700000Y-39830000D03*
X117100000Y-39830000D03*
X117500000Y-39830000D03*
X117900000Y-39830000D03*
X118300000Y-39830000D03*
X118700000Y-39830000D03*
X119100000Y-39830000D03*
X119500000Y-39830000D03*
X119900000Y-39830000D03*
X120300000Y-39830000D03*
X120700000Y-39830000D03*
X121100000Y-39830000D03*
X121500000Y-39830000D03*
X121900000Y-39830000D03*
X122300000Y-39830000D03*
X122700000Y-39830000D03*
X123100000Y-39830000D03*
X123500000Y-39830000D03*
X123900000Y-39830000D03*
X124300000Y-39830000D03*
D17*
X110200000Y-41200000D03*
X126800000Y-41200000D03*
%TD*%
D10*
%TO.C,C5*%
X121837500Y-38100000D03*
X123562500Y-38100000D03*
%TD*%
%TO.C,C3*%
X115237500Y-38100000D03*
X116962500Y-38100000D03*
%TD*%
%TO.C,C7*%
X97637500Y-37000000D03*
X99362500Y-37000000D03*
%TD*%
D14*
%TO.C,RN3*%
X108600000Y-32100000D03*
D15*
X108600000Y-32900000D03*
X108600000Y-33700000D03*
D14*
X108600000Y-34500000D03*
X110400000Y-34500000D03*
D15*
X110400000Y-33700000D03*
X110400000Y-32900000D03*
D14*
X110400000Y-32100000D03*
%TD*%
D18*
%TO.C,U1*%
X106100000Y-31550000D03*
X103800000Y-31550000D03*
D19*
X103800000Y-37850000D03*
D18*
X101500000Y-31550000D03*
%TD*%
D14*
%TO.C,RN1*%
X99600000Y-27000000D03*
D15*
X99600000Y-27800000D03*
X99600000Y-28600000D03*
D14*
X99600000Y-29400000D03*
X101400000Y-29400000D03*
D15*
X101400000Y-28600000D03*
X101400000Y-27800000D03*
D14*
X101400000Y-27000000D03*
%TD*%
D11*
%TO.C,FL2*%
X125449900Y-37525000D03*
X125449900Y-38475000D03*
X125950100Y-37525000D03*
X125950100Y-38475000D03*
X126449900Y-37525000D03*
X126449900Y-38475000D03*
X126950100Y-37525000D03*
X126950100Y-38475000D03*
%TD*%
D20*
%TO.C,IC1*%
X125250000Y-29350000D03*
X124750000Y-29350000D03*
X124250000Y-29350000D03*
X123750000Y-29350000D03*
X123250000Y-29350000D03*
X122750000Y-29350000D03*
X122250000Y-29350000D03*
X121750000Y-29350000D03*
X121250000Y-29350000D03*
X120750000Y-29350000D03*
X120250000Y-29350000D03*
X119750000Y-29350000D03*
X119250000Y-29350000D03*
X118750000Y-29350000D03*
X118250000Y-29350000D03*
X117750000Y-29350000D03*
X117250000Y-29350000D03*
X116750000Y-29350000D03*
X116250000Y-29350000D03*
X115750000Y-29350000D03*
X115250000Y-29350000D03*
X114750000Y-29350000D03*
X114250000Y-29350000D03*
X113750000Y-29350000D03*
X113250000Y-29350000D03*
X112750000Y-29350000D03*
X112250000Y-29350000D03*
X111750000Y-29350000D03*
X111750000Y-36610000D03*
X112250000Y-36610000D03*
X112750000Y-36610000D03*
X113250000Y-36610000D03*
X113750000Y-36610000D03*
X114250000Y-36610000D03*
X114750000Y-36610000D03*
X115250000Y-36610000D03*
X115750000Y-36610000D03*
X116250000Y-36610000D03*
X116750000Y-36610000D03*
X117250000Y-36610000D03*
X117750000Y-36610000D03*
X118250000Y-36610000D03*
X118750000Y-36610000D03*
X119250000Y-36610000D03*
X119750000Y-36610000D03*
X120250000Y-36610000D03*
X120750000Y-36610000D03*
X121250000Y-36610000D03*
X121750000Y-36610000D03*
X122250000Y-36610000D03*
X122750000Y-36610000D03*
X123250000Y-36610000D03*
X123750000Y-36610000D03*
X124250000Y-36610000D03*
X124750000Y-36610000D03*
X125250000Y-36610000D03*
%TD*%
D14*
%TO.C,RN2*%
X103600000Y-27000000D03*
D15*
X103600000Y-27800000D03*
X103600000Y-28600000D03*
D14*
X103600000Y-29400000D03*
X105400000Y-29400000D03*
D15*
X105400000Y-28600000D03*
X105400000Y-27800000D03*
D14*
X105400000Y-27000000D03*
%TD*%
%TO.C,RN6*%
X138600000Y-27000000D03*
D15*
X138600000Y-27800000D03*
X138600000Y-28600000D03*
D14*
X138600000Y-29400000D03*
X140400000Y-29400000D03*
D15*
X140400000Y-28600000D03*
X140400000Y-27800000D03*
D14*
X140400000Y-27000000D03*
%TD*%
D10*
%TO.C,C8*%
X101637500Y-40000000D03*
X103362500Y-40000000D03*
%TD*%
D21*
%TO.C,JFFC1*%
X129750000Y-28190000D03*
X129250000Y-28190000D03*
X128750000Y-28190000D03*
X128250000Y-28190000D03*
X127750000Y-28190000D03*
X127250000Y-28190000D03*
X126750000Y-28190000D03*
X126250000Y-28190000D03*
X125750000Y-28190000D03*
X125250000Y-28190000D03*
X124750000Y-28190000D03*
X124250000Y-28190000D03*
X123749999Y-28190000D03*
X123249999Y-28190000D03*
X122749999Y-28190000D03*
X122249999Y-28190000D03*
X121749999Y-28190000D03*
X121249999Y-28190000D03*
X120749999Y-28190000D03*
X120249999Y-28190000D03*
X119750000Y-28190000D03*
X119250000Y-28190000D03*
X118750000Y-28190000D03*
X118250000Y-28190000D03*
X117750000Y-28189999D03*
X117250000Y-28189999D03*
X116750000Y-28189999D03*
X116250000Y-28189999D03*
X115750000Y-28189999D03*
X115250000Y-28189999D03*
X114750000Y-28189999D03*
X114250000Y-28189999D03*
X113750000Y-28189999D03*
X113250000Y-28189999D03*
X112750000Y-28189999D03*
X112250000Y-28189999D03*
X111750000Y-28189999D03*
X111250000Y-28189999D03*
X110750000Y-28189999D03*
X110250000Y-28189999D03*
D22*
X128750000Y-22410001D03*
X126250000Y-22410001D03*
X123750000Y-22410001D03*
X121250000Y-22410000D03*
X118750001Y-22410000D03*
X116250001Y-22410000D03*
X113750000Y-22410000D03*
X111250000Y-22410000D03*
D23*
X109000000Y-22940000D03*
X131000000Y-22940001D03*
%TD*%
D10*
%TO.C,C1*%
X108637500Y-38100000D03*
X110362500Y-38100000D03*
%TD*%
D24*
%TO.C,R1*%
X97587500Y-31200000D03*
X99412500Y-31200000D03*
%TD*%
D10*
%TO.C,C4*%
X118537500Y-38100000D03*
X120262500Y-38100000D03*
%TD*%
D24*
%TO.C,R2*%
X97587500Y-33500000D03*
X99412500Y-33500000D03*
%TD*%
M02*
