%TF.GenerationSoftware,KiCad,Pcbnew,10.99.0-2630-ge98e17ed18*%
%TF.CreationDate,2026-08-20T19:58:19+07:00*%
%TF.ProjectId,koyomi-lvds-hat,6b6f796f-6d69-42d6-9c76-64732d686174,rev?*%
%TF.SameCoordinates,Original*%
%TF.FileFunction,Drillmap*%
%TF.FilePolarity,Positive*%
%FSLAX45Y45*%
G04 Gerber Fmt 4.5, Leading zero omitted, Abs format (unit mm)*
G04 Created by KiCad (PCBNEW 10.99.0-2630-ge98e17ed18) date 2026-08-20 19:58:19*
%MOMM*%
%LPD*%
G01*
G04 APERTURE LIST*
%ADD10C,0.050000*%
%ADD11C,0.200000*%
%ADD12C,0.275000*%
G04 APERTURE END LIST*
D10*
X9100000Y-2200000D02*
X11000000Y-2200000D01*
X9100000Y-4420000D02*
X9100000Y-2200000D01*
X11000000Y-2150000D02*
X13000000Y-2150000D01*
X11000000Y-2200000D02*
X11000000Y-2150000D01*
X13000000Y-2150000D02*
X13000000Y-2200000D01*
X13000000Y-2200000D02*
X14900000Y-2200000D01*
X14900000Y-2200000D02*
X14900000Y-4420000D01*
X14900000Y-4420000D02*
X9100000Y-4420000D01*
D11*
D12*
X9312500Y-2412500D02*
X9587500Y-2687500D01*
X9587500Y-2412500D02*
X9312500Y-2687500D01*
X9312500Y-3932500D02*
X9587500Y-4207500D01*
X9587500Y-3932500D02*
X9312500Y-4207500D01*
X14412500Y-2412500D02*
X14687500Y-2687500D01*
X14687500Y-2412500D02*
X14412500Y-2687500D01*
X14412500Y-3932500D02*
X14687500Y-4207500D01*
X14687500Y-3932500D02*
X14412500Y-4207500D01*
D11*
X9358277Y-4733984D02*
X9358277Y-4533984D01*
X9358277Y-4533984D02*
X9405896Y-4533984D01*
X9405896Y-4533984D02*
X9434467Y-4543508D01*
X9434467Y-4543508D02*
X9453515Y-4562555D01*
X9453515Y-4562555D02*
X9463039Y-4581603D01*
X9463039Y-4581603D02*
X9472563Y-4619698D01*
X9472563Y-4619698D02*
X9472563Y-4648270D01*
X9472563Y-4648270D02*
X9463039Y-4686365D01*
X9463039Y-4686365D02*
X9453515Y-4705412D01*
X9453515Y-4705412D02*
X9434467Y-4724460D01*
X9434467Y-4724460D02*
X9405896Y-4733984D01*
X9405896Y-4733984D02*
X9358277Y-4733984D01*
X9558277Y-4733984D02*
X9558277Y-4600650D01*
X9558277Y-4638746D02*
X9567801Y-4619698D01*
X9567801Y-4619698D02*
X9577324Y-4610174D01*
X9577324Y-4610174D02*
X9596372Y-4600650D01*
X9596372Y-4600650D02*
X9615420Y-4600650D01*
X9682086Y-4733984D02*
X9682086Y-4600650D01*
X9682086Y-4533984D02*
X9672563Y-4543508D01*
X9672563Y-4543508D02*
X9682086Y-4553031D01*
X9682086Y-4553031D02*
X9691610Y-4543508D01*
X9691610Y-4543508D02*
X9682086Y-4533984D01*
X9682086Y-4533984D02*
X9682086Y-4553031D01*
X9805896Y-4733984D02*
X9786848Y-4724460D01*
X9786848Y-4724460D02*
X9777324Y-4705412D01*
X9777324Y-4705412D02*
X9777324Y-4533984D01*
X9910658Y-4733984D02*
X9891610Y-4724460D01*
X9891610Y-4724460D02*
X9882086Y-4705412D01*
X9882086Y-4705412D02*
X9882086Y-4533984D01*
X10139229Y-4733984D02*
X10139229Y-4533984D01*
X10139229Y-4533984D02*
X10205896Y-4676841D01*
X10205896Y-4676841D02*
X10272563Y-4533984D01*
X10272563Y-4533984D02*
X10272563Y-4733984D01*
X10453515Y-4733984D02*
X10453515Y-4629222D01*
X10453515Y-4629222D02*
X10443991Y-4610174D01*
X10443991Y-4610174D02*
X10424944Y-4600650D01*
X10424944Y-4600650D02*
X10386848Y-4600650D01*
X10386848Y-4600650D02*
X10367801Y-4610174D01*
X10453515Y-4724460D02*
X10434467Y-4733984D01*
X10434467Y-4733984D02*
X10386848Y-4733984D01*
X10386848Y-4733984D02*
X10367801Y-4724460D01*
X10367801Y-4724460D02*
X10358277Y-4705412D01*
X10358277Y-4705412D02*
X10358277Y-4686365D01*
X10358277Y-4686365D02*
X10367801Y-4667317D01*
X10367801Y-4667317D02*
X10386848Y-4657793D01*
X10386848Y-4657793D02*
X10434467Y-4657793D01*
X10434467Y-4657793D02*
X10453515Y-4648270D01*
X10548753Y-4600650D02*
X10548753Y-4800650D01*
X10548753Y-4610174D02*
X10567801Y-4600650D01*
X10567801Y-4600650D02*
X10605896Y-4600650D01*
X10605896Y-4600650D02*
X10624944Y-4610174D01*
X10624944Y-4610174D02*
X10634467Y-4619698D01*
X10634467Y-4619698D02*
X10643991Y-4638746D01*
X10643991Y-4638746D02*
X10643991Y-4695889D01*
X10643991Y-4695889D02*
X10634467Y-4714936D01*
X10634467Y-4714936D02*
X10624944Y-4724460D01*
X10624944Y-4724460D02*
X10605896Y-4733984D01*
X10605896Y-4733984D02*
X10567801Y-4733984D01*
X10567801Y-4733984D02*
X10548753Y-4724460D01*
X10729705Y-4714936D02*
X10739229Y-4724460D01*
X10739229Y-4724460D02*
X10729705Y-4733984D01*
X10729705Y-4733984D02*
X10720182Y-4724460D01*
X10720182Y-4724460D02*
X10729705Y-4714936D01*
X10729705Y-4714936D02*
X10729705Y-4733984D01*
X10729705Y-4610174D02*
X10739229Y-4619698D01*
X10739229Y-4619698D02*
X10729705Y-4629222D01*
X10729705Y-4629222D02*
X10720182Y-4619698D01*
X10720182Y-4619698D02*
X10729705Y-4610174D01*
X10729705Y-4610174D02*
X10729705Y-4629222D01*
X8897500Y-4962500D02*
X9097500Y-5162500D01*
X9097500Y-4962500D02*
X8897500Y-5162500D01*
X9348753Y-4973031D02*
X9358277Y-4963508D01*
X9358277Y-4963508D02*
X9377324Y-4953984D01*
X9377324Y-4953984D02*
X9424944Y-4953984D01*
X9424944Y-4953984D02*
X9443991Y-4963508D01*
X9443991Y-4963508D02*
X9453515Y-4973031D01*
X9453515Y-4973031D02*
X9463039Y-4992079D01*
X9463039Y-4992079D02*
X9463039Y-5011127D01*
X9463039Y-5011127D02*
X9453515Y-5039698D01*
X9453515Y-5039698D02*
X9339229Y-5153984D01*
X9339229Y-5153984D02*
X9463039Y-5153984D01*
X9548753Y-5134936D02*
X9558277Y-5144460D01*
X9558277Y-5144460D02*
X9548753Y-5153984D01*
X9548753Y-5153984D02*
X9539229Y-5144460D01*
X9539229Y-5144460D02*
X9548753Y-5134936D01*
X9548753Y-5134936D02*
X9548753Y-5153984D01*
X9624944Y-4953984D02*
X9758277Y-4953984D01*
X9758277Y-4953984D02*
X9672563Y-5153984D01*
X9929705Y-4953984D02*
X9834467Y-4953984D01*
X9834467Y-4953984D02*
X9824944Y-5049222D01*
X9824944Y-5049222D02*
X9834467Y-5039698D01*
X9834467Y-5039698D02*
X9853515Y-5030174D01*
X9853515Y-5030174D02*
X9901134Y-5030174D01*
X9901134Y-5030174D02*
X9920182Y-5039698D01*
X9920182Y-5039698D02*
X9929705Y-5049222D01*
X9929705Y-5049222D02*
X9939229Y-5068270D01*
X9939229Y-5068270D02*
X9939229Y-5115889D01*
X9939229Y-5115889D02*
X9929705Y-5134936D01*
X9929705Y-5134936D02*
X9920182Y-5144460D01*
X9920182Y-5144460D02*
X9901134Y-5153984D01*
X9901134Y-5153984D02*
X9853515Y-5153984D01*
X9853515Y-5153984D02*
X9834467Y-5144460D01*
X9834467Y-5144460D02*
X9824944Y-5134936D01*
X10063039Y-4953984D02*
X10082086Y-4953984D01*
X10082086Y-4953984D02*
X10101134Y-4963508D01*
X10101134Y-4963508D02*
X10110658Y-4973031D01*
X10110658Y-4973031D02*
X10120182Y-4992079D01*
X10120182Y-4992079D02*
X10129705Y-5030174D01*
X10129705Y-5030174D02*
X10129705Y-5077793D01*
X10129705Y-5077793D02*
X10120182Y-5115889D01*
X10120182Y-5115889D02*
X10110658Y-5134936D01*
X10110658Y-5134936D02*
X10101134Y-5144460D01*
X10101134Y-5144460D02*
X10082086Y-5153984D01*
X10082086Y-5153984D02*
X10063039Y-5153984D01*
X10063039Y-5153984D02*
X10043991Y-5144460D01*
X10043991Y-5144460D02*
X10034467Y-5134936D01*
X10034467Y-5134936D02*
X10024944Y-5115889D01*
X10024944Y-5115889D02*
X10015420Y-5077793D01*
X10015420Y-5077793D02*
X10015420Y-5030174D01*
X10015420Y-5030174D02*
X10024944Y-4992079D01*
X10024944Y-4992079D02*
X10034467Y-4973031D01*
X10034467Y-4973031D02*
X10043991Y-4963508D01*
X10043991Y-4963508D02*
X10063039Y-4953984D01*
X10215420Y-5153984D02*
X10215420Y-5020650D01*
X10215420Y-5039698D02*
X10224944Y-5030174D01*
X10224944Y-5030174D02*
X10243991Y-5020650D01*
X10243991Y-5020650D02*
X10272563Y-5020650D01*
X10272563Y-5020650D02*
X10291610Y-5030174D01*
X10291610Y-5030174D02*
X10301134Y-5049222D01*
X10301134Y-5049222D02*
X10301134Y-5153984D01*
X10301134Y-5049222D02*
X10310658Y-5030174D01*
X10310658Y-5030174D02*
X10329705Y-5020650D01*
X10329705Y-5020650D02*
X10358277Y-5020650D01*
X10358277Y-5020650D02*
X10377325Y-5030174D01*
X10377325Y-5030174D02*
X10386848Y-5049222D01*
X10386848Y-5049222D02*
X10386848Y-5153984D01*
X10482086Y-5153984D02*
X10482086Y-5020650D01*
X10482086Y-5039698D02*
X10491610Y-5030174D01*
X10491610Y-5030174D02*
X10510658Y-5020650D01*
X10510658Y-5020650D02*
X10539229Y-5020650D01*
X10539229Y-5020650D02*
X10558277Y-5030174D01*
X10558277Y-5030174D02*
X10567801Y-5049222D01*
X10567801Y-5049222D02*
X10567801Y-5153984D01*
X10567801Y-5049222D02*
X10577325Y-5030174D01*
X10577325Y-5030174D02*
X10596372Y-5020650D01*
X10596372Y-5020650D02*
X10624944Y-5020650D01*
X10624944Y-5020650D02*
X10643991Y-5030174D01*
X10643991Y-5030174D02*
X10653515Y-5049222D01*
X10653515Y-5049222D02*
X10653515Y-5153984D01*
X11043991Y-4944460D02*
X10872563Y-5201603D01*
X11301134Y-4953984D02*
X11320182Y-4953984D01*
X11320182Y-4953984D02*
X11339229Y-4963508D01*
X11339229Y-4963508D02*
X11348753Y-4973031D01*
X11348753Y-4973031D02*
X11358277Y-4992079D01*
X11358277Y-4992079D02*
X11367801Y-5030174D01*
X11367801Y-5030174D02*
X11367801Y-5077793D01*
X11367801Y-5077793D02*
X11358277Y-5115889D01*
X11358277Y-5115889D02*
X11348753Y-5134936D01*
X11348753Y-5134936D02*
X11339229Y-5144460D01*
X11339229Y-5144460D02*
X11320182Y-5153984D01*
X11320182Y-5153984D02*
X11301134Y-5153984D01*
X11301134Y-5153984D02*
X11282086Y-5144460D01*
X11282086Y-5144460D02*
X11272563Y-5134936D01*
X11272563Y-5134936D02*
X11263039Y-5115889D01*
X11263039Y-5115889D02*
X11253515Y-5077793D01*
X11253515Y-5077793D02*
X11253515Y-5030174D01*
X11253515Y-5030174D02*
X11263039Y-4992079D01*
X11263039Y-4992079D02*
X11272563Y-4973031D01*
X11272563Y-4973031D02*
X11282086Y-4963508D01*
X11282086Y-4963508D02*
X11301134Y-4953984D01*
X11453515Y-5134936D02*
X11463039Y-5144460D01*
X11463039Y-5144460D02*
X11453515Y-5153984D01*
X11453515Y-5153984D02*
X11443991Y-5144460D01*
X11443991Y-5144460D02*
X11453515Y-5134936D01*
X11453515Y-5134936D02*
X11453515Y-5153984D01*
X11653515Y-5153984D02*
X11539229Y-5153984D01*
X11596372Y-5153984D02*
X11596372Y-4953984D01*
X11596372Y-4953984D02*
X11577325Y-4982555D01*
X11577325Y-4982555D02*
X11558277Y-5001603D01*
X11558277Y-5001603D02*
X11539229Y-5011127D01*
X11777325Y-4953984D02*
X11796372Y-4953984D01*
X11796372Y-4953984D02*
X11815420Y-4963508D01*
X11815420Y-4963508D02*
X11824944Y-4973031D01*
X11824944Y-4973031D02*
X11834467Y-4992079D01*
X11834467Y-4992079D02*
X11843991Y-5030174D01*
X11843991Y-5030174D02*
X11843991Y-5077793D01*
X11843991Y-5077793D02*
X11834467Y-5115889D01*
X11834467Y-5115889D02*
X11824944Y-5134936D01*
X11824944Y-5134936D02*
X11815420Y-5144460D01*
X11815420Y-5144460D02*
X11796372Y-5153984D01*
X11796372Y-5153984D02*
X11777325Y-5153984D01*
X11777325Y-5153984D02*
X11758277Y-5144460D01*
X11758277Y-5144460D02*
X11748753Y-5134936D01*
X11748753Y-5134936D02*
X11739229Y-5115889D01*
X11739229Y-5115889D02*
X11729706Y-5077793D01*
X11729706Y-5077793D02*
X11729706Y-5030174D01*
X11729706Y-5030174D02*
X11739229Y-4992079D01*
X11739229Y-4992079D02*
X11748753Y-4973031D01*
X11748753Y-4973031D02*
X11758277Y-4963508D01*
X11758277Y-4963508D02*
X11777325Y-4953984D01*
X11958277Y-5039698D02*
X11939229Y-5030174D01*
X11939229Y-5030174D02*
X11929706Y-5020650D01*
X11929706Y-5020650D02*
X11920182Y-5001603D01*
X11920182Y-5001603D02*
X11920182Y-4992079D01*
X11920182Y-4992079D02*
X11929706Y-4973031D01*
X11929706Y-4973031D02*
X11939229Y-4963508D01*
X11939229Y-4963508D02*
X11958277Y-4953984D01*
X11958277Y-4953984D02*
X11996372Y-4953984D01*
X11996372Y-4953984D02*
X12015420Y-4963508D01*
X12015420Y-4963508D02*
X12024944Y-4973031D01*
X12024944Y-4973031D02*
X12034467Y-4992079D01*
X12034467Y-4992079D02*
X12034467Y-5001603D01*
X12034467Y-5001603D02*
X12024944Y-5020650D01*
X12024944Y-5020650D02*
X12015420Y-5030174D01*
X12015420Y-5030174D02*
X11996372Y-5039698D01*
X11996372Y-5039698D02*
X11958277Y-5039698D01*
X11958277Y-5039698D02*
X11939229Y-5049222D01*
X11939229Y-5049222D02*
X11929706Y-5058746D01*
X11929706Y-5058746D02*
X11920182Y-5077793D01*
X11920182Y-5077793D02*
X11920182Y-5115889D01*
X11920182Y-5115889D02*
X11929706Y-5134936D01*
X11929706Y-5134936D02*
X11939229Y-5144460D01*
X11939229Y-5144460D02*
X11958277Y-5153984D01*
X11958277Y-5153984D02*
X11996372Y-5153984D01*
X11996372Y-5153984D02*
X12015420Y-5144460D01*
X12015420Y-5144460D02*
X12024944Y-5134936D01*
X12024944Y-5134936D02*
X12034467Y-5115889D01*
X12034467Y-5115889D02*
X12034467Y-5077793D01*
X12034467Y-5077793D02*
X12024944Y-5058746D01*
X12024944Y-5058746D02*
X12015420Y-5049222D01*
X12015420Y-5049222D02*
X11996372Y-5039698D01*
X12101134Y-4953984D02*
X12224944Y-4953984D01*
X12224944Y-4953984D02*
X12158277Y-5030174D01*
X12158277Y-5030174D02*
X12186848Y-5030174D01*
X12186848Y-5030174D02*
X12205896Y-5039698D01*
X12205896Y-5039698D02*
X12215420Y-5049222D01*
X12215420Y-5049222D02*
X12224944Y-5068270D01*
X12224944Y-5068270D02*
X12224944Y-5115889D01*
X12224944Y-5115889D02*
X12215420Y-5134936D01*
X12215420Y-5134936D02*
X12205896Y-5144460D01*
X12205896Y-5144460D02*
X12186848Y-5153984D01*
X12186848Y-5153984D02*
X12129706Y-5153984D01*
X12129706Y-5153984D02*
X12110658Y-5144460D01*
X12110658Y-5144460D02*
X12101134Y-5134936D01*
X12301134Y-4953984D02*
X12301134Y-4992079D01*
X12377325Y-4953984D02*
X12377325Y-4992079D01*
X12672563Y-5230174D02*
X12663039Y-5220650D01*
X12663039Y-5220650D02*
X12643991Y-5192079D01*
X12643991Y-5192079D02*
X12634468Y-5173031D01*
X12634468Y-5173031D02*
X12624944Y-5144460D01*
X12624944Y-5144460D02*
X12615420Y-5096841D01*
X12615420Y-5096841D02*
X12615420Y-5058746D01*
X12615420Y-5058746D02*
X12624944Y-5011127D01*
X12624944Y-5011127D02*
X12634468Y-4982555D01*
X12634468Y-4982555D02*
X12643991Y-4963508D01*
X12643991Y-4963508D02*
X12663039Y-4934936D01*
X12663039Y-4934936D02*
X12672563Y-4925412D01*
X12834468Y-5020650D02*
X12834468Y-5153984D01*
X12786848Y-4944460D02*
X12739229Y-5087317D01*
X12739229Y-5087317D02*
X12863039Y-5087317D01*
X13091610Y-5153984D02*
X13091610Y-4953984D01*
X13177325Y-5153984D02*
X13177325Y-5049222D01*
X13177325Y-5049222D02*
X13167801Y-5030174D01*
X13167801Y-5030174D02*
X13148753Y-5020650D01*
X13148753Y-5020650D02*
X13120182Y-5020650D01*
X13120182Y-5020650D02*
X13101134Y-5030174D01*
X13101134Y-5030174D02*
X13091610Y-5039698D01*
X13301134Y-5153984D02*
X13282087Y-5144460D01*
X13282087Y-5144460D02*
X13272563Y-5134936D01*
X13272563Y-5134936D02*
X13263039Y-5115889D01*
X13263039Y-5115889D02*
X13263039Y-5058746D01*
X13263039Y-5058746D02*
X13272563Y-5039698D01*
X13272563Y-5039698D02*
X13282087Y-5030174D01*
X13282087Y-5030174D02*
X13301134Y-5020650D01*
X13301134Y-5020650D02*
X13329706Y-5020650D01*
X13329706Y-5020650D02*
X13348753Y-5030174D01*
X13348753Y-5030174D02*
X13358277Y-5039698D01*
X13358277Y-5039698D02*
X13367801Y-5058746D01*
X13367801Y-5058746D02*
X13367801Y-5115889D01*
X13367801Y-5115889D02*
X13358277Y-5134936D01*
X13358277Y-5134936D02*
X13348753Y-5144460D01*
X13348753Y-5144460D02*
X13329706Y-5153984D01*
X13329706Y-5153984D02*
X13301134Y-5153984D01*
X13482087Y-5153984D02*
X13463039Y-5144460D01*
X13463039Y-5144460D02*
X13453515Y-5125412D01*
X13453515Y-5125412D02*
X13453515Y-4953984D01*
X13634468Y-5144460D02*
X13615420Y-5153984D01*
X13615420Y-5153984D02*
X13577325Y-5153984D01*
X13577325Y-5153984D02*
X13558277Y-5144460D01*
X13558277Y-5144460D02*
X13548753Y-5125412D01*
X13548753Y-5125412D02*
X13548753Y-5049222D01*
X13548753Y-5049222D02*
X13558277Y-5030174D01*
X13558277Y-5030174D02*
X13577325Y-5020650D01*
X13577325Y-5020650D02*
X13615420Y-5020650D01*
X13615420Y-5020650D02*
X13634468Y-5030174D01*
X13634468Y-5030174D02*
X13643991Y-5049222D01*
X13643991Y-5049222D02*
X13643991Y-5068270D01*
X13643991Y-5068270D02*
X13548753Y-5087317D01*
X13720182Y-5144460D02*
X13739230Y-5153984D01*
X13739230Y-5153984D02*
X13777325Y-5153984D01*
X13777325Y-5153984D02*
X13796372Y-5144460D01*
X13796372Y-5144460D02*
X13805896Y-5125412D01*
X13805896Y-5125412D02*
X13805896Y-5115889D01*
X13805896Y-5115889D02*
X13796372Y-5096841D01*
X13796372Y-5096841D02*
X13777325Y-5087317D01*
X13777325Y-5087317D02*
X13748753Y-5087317D01*
X13748753Y-5087317D02*
X13729706Y-5077793D01*
X13729706Y-5077793D02*
X13720182Y-5058746D01*
X13720182Y-5058746D02*
X13720182Y-5049222D01*
X13720182Y-5049222D02*
X13729706Y-5030174D01*
X13729706Y-5030174D02*
X13748753Y-5020650D01*
X13748753Y-5020650D02*
X13777325Y-5020650D01*
X13777325Y-5020650D02*
X13796372Y-5030174D01*
X13872563Y-5230174D02*
X13882087Y-5220650D01*
X13882087Y-5220650D02*
X13901134Y-5192079D01*
X13901134Y-5192079D02*
X13910658Y-5173031D01*
X13910658Y-5173031D02*
X13920182Y-5144460D01*
X13920182Y-5144460D02*
X13929706Y-5096841D01*
X13929706Y-5096841D02*
X13929706Y-5058746D01*
X13929706Y-5058746D02*
X13920182Y-5011127D01*
X13920182Y-5011127D02*
X13910658Y-4982555D01*
X13910658Y-4982555D02*
X13901134Y-4963508D01*
X13901134Y-4963508D02*
X13882087Y-4934936D01*
X13882087Y-4934936D02*
X13872563Y-4925412D01*
X14234468Y-5230174D02*
X14224944Y-5220650D01*
X14224944Y-5220650D02*
X14205896Y-5192079D01*
X14205896Y-5192079D02*
X14196372Y-5173031D01*
X14196372Y-5173031D02*
X14186849Y-5144460D01*
X14186849Y-5144460D02*
X14177325Y-5096841D01*
X14177325Y-5096841D02*
X14177325Y-5058746D01*
X14177325Y-5058746D02*
X14186849Y-5011127D01*
X14186849Y-5011127D02*
X14196372Y-4982555D01*
X14196372Y-4982555D02*
X14205896Y-4963508D01*
X14205896Y-4963508D02*
X14224944Y-4934936D01*
X14224944Y-4934936D02*
X14234468Y-4925412D01*
X14310658Y-5020650D02*
X14310658Y-5153984D01*
X14310658Y-5039698D02*
X14320182Y-5030174D01*
X14320182Y-5030174D02*
X14339230Y-5020650D01*
X14339230Y-5020650D02*
X14367801Y-5020650D01*
X14367801Y-5020650D02*
X14386849Y-5030174D01*
X14386849Y-5030174D02*
X14396372Y-5049222D01*
X14396372Y-5049222D02*
X14396372Y-5153984D01*
X14520182Y-5153984D02*
X14501134Y-5144460D01*
X14501134Y-5144460D02*
X14491611Y-5134936D01*
X14491611Y-5134936D02*
X14482087Y-5115889D01*
X14482087Y-5115889D02*
X14482087Y-5058746D01*
X14482087Y-5058746D02*
X14491611Y-5039698D01*
X14491611Y-5039698D02*
X14501134Y-5030174D01*
X14501134Y-5030174D02*
X14520182Y-5020650D01*
X14520182Y-5020650D02*
X14548753Y-5020650D01*
X14548753Y-5020650D02*
X14567801Y-5030174D01*
X14567801Y-5030174D02*
X14577325Y-5039698D01*
X14577325Y-5039698D02*
X14586849Y-5058746D01*
X14586849Y-5058746D02*
X14586849Y-5115889D01*
X14586849Y-5115889D02*
X14577325Y-5134936D01*
X14577325Y-5134936D02*
X14567801Y-5144460D01*
X14567801Y-5144460D02*
X14548753Y-5153984D01*
X14548753Y-5153984D02*
X14520182Y-5153984D01*
X14643992Y-5020650D02*
X14720182Y-5020650D01*
X14672563Y-4953984D02*
X14672563Y-5125412D01*
X14672563Y-5125412D02*
X14682087Y-5144460D01*
X14682087Y-5144460D02*
X14701134Y-5153984D01*
X14701134Y-5153984D02*
X14720182Y-5153984D01*
X14939230Y-5020650D02*
X14939230Y-5220650D01*
X14939230Y-5030174D02*
X14958277Y-5020650D01*
X14958277Y-5020650D02*
X14996373Y-5020650D01*
X14996373Y-5020650D02*
X15015420Y-5030174D01*
X15015420Y-5030174D02*
X15024944Y-5039698D01*
X15024944Y-5039698D02*
X15034468Y-5058746D01*
X15034468Y-5058746D02*
X15034468Y-5115889D01*
X15034468Y-5115889D02*
X15024944Y-5134936D01*
X15024944Y-5134936D02*
X15015420Y-5144460D01*
X15015420Y-5144460D02*
X14996373Y-5153984D01*
X14996373Y-5153984D02*
X14958277Y-5153984D01*
X14958277Y-5153984D02*
X14939230Y-5144460D01*
X15148753Y-5153984D02*
X15129706Y-5144460D01*
X15129706Y-5144460D02*
X15120182Y-5125412D01*
X15120182Y-5125412D02*
X15120182Y-4953984D01*
X15310658Y-5153984D02*
X15310658Y-5049222D01*
X15310658Y-5049222D02*
X15301134Y-5030174D01*
X15301134Y-5030174D02*
X15282087Y-5020650D01*
X15282087Y-5020650D02*
X15243992Y-5020650D01*
X15243992Y-5020650D02*
X15224944Y-5030174D01*
X15310658Y-5144460D02*
X15291611Y-5153984D01*
X15291611Y-5153984D02*
X15243992Y-5153984D01*
X15243992Y-5153984D02*
X15224944Y-5144460D01*
X15224944Y-5144460D02*
X15215420Y-5125412D01*
X15215420Y-5125412D02*
X15215420Y-5106365D01*
X15215420Y-5106365D02*
X15224944Y-5087317D01*
X15224944Y-5087317D02*
X15243992Y-5077793D01*
X15243992Y-5077793D02*
X15291611Y-5077793D01*
X15291611Y-5077793D02*
X15310658Y-5068270D01*
X15377325Y-5020650D02*
X15453515Y-5020650D01*
X15405896Y-4953984D02*
X15405896Y-5125412D01*
X15405896Y-5125412D02*
X15415420Y-5144460D01*
X15415420Y-5144460D02*
X15434468Y-5153984D01*
X15434468Y-5153984D02*
X15453515Y-5153984D01*
X15596373Y-5144460D02*
X15577325Y-5153984D01*
X15577325Y-5153984D02*
X15539230Y-5153984D01*
X15539230Y-5153984D02*
X15520182Y-5144460D01*
X15520182Y-5144460D02*
X15510658Y-5125412D01*
X15510658Y-5125412D02*
X15510658Y-5049222D01*
X15510658Y-5049222D02*
X15520182Y-5030174D01*
X15520182Y-5030174D02*
X15539230Y-5020650D01*
X15539230Y-5020650D02*
X15577325Y-5020650D01*
X15577325Y-5020650D02*
X15596373Y-5030174D01*
X15596373Y-5030174D02*
X15605896Y-5049222D01*
X15605896Y-5049222D02*
X15605896Y-5068270D01*
X15605896Y-5068270D02*
X15510658Y-5087317D01*
X15777325Y-5153984D02*
X15777325Y-4953984D01*
X15777325Y-5144460D02*
X15758277Y-5153984D01*
X15758277Y-5153984D02*
X15720182Y-5153984D01*
X15720182Y-5153984D02*
X15701134Y-5144460D01*
X15701134Y-5144460D02*
X15691611Y-5134936D01*
X15691611Y-5134936D02*
X15682087Y-5115889D01*
X15682087Y-5115889D02*
X15682087Y-5058746D01*
X15682087Y-5058746D02*
X15691611Y-5039698D01*
X15691611Y-5039698D02*
X15701134Y-5030174D01*
X15701134Y-5030174D02*
X15720182Y-5020650D01*
X15720182Y-5020650D02*
X15758277Y-5020650D01*
X15758277Y-5020650D02*
X15777325Y-5030174D01*
X15853515Y-5230174D02*
X15863039Y-5220650D01*
X15863039Y-5220650D02*
X15882087Y-5192079D01*
X15882087Y-5192079D02*
X15891611Y-5173031D01*
X15891611Y-5173031D02*
X15901134Y-5144460D01*
X15901134Y-5144460D02*
X15910658Y-5096841D01*
X15910658Y-5096841D02*
X15910658Y-5058746D01*
X15910658Y-5058746D02*
X15901134Y-5011127D01*
X15901134Y-5011127D02*
X15891611Y-4982555D01*
X15891611Y-4982555D02*
X15882087Y-4963508D01*
X15882087Y-4963508D02*
X15863039Y-4934936D01*
X15863039Y-4934936D02*
X15853515Y-4925412D01*
M02*
