M48
; DRILL file KiCad 10.99.0-2630-ge98e17ed18 date 2026-08-20T19:58:19
; FORMAT={-:-/ absolute / metric / decimal}
; #@! TF.CreationDate,2026-08-20T19:58:19+07:00
; #@! TF.GenerationSoftware,Kicad,Pcbnew,10.99.0-2630-ge98e17ed18
; #@! TF.FileFunction,Plated,1,4,PTH
FMAT,2
METRIC
; #@! TA.AperFunction,Plated,PTH,ViaDrill
T1C0.200
; #@! TA.AperFunction,Plated,PTH,ViaDrill
T2C0.250
%
G90
G05
T1
X115.75Y-24.1
X116.75Y-24.1
X117.75Y-24.1
X118.75Y-24.1
X119.75Y-24.1
X120.75Y-24.1
T2
X98.363Y-37.726
X98.782Y-28.6
X98.784Y-27.189
X98.788Y-27.892
X100.096Y-36.266
X100.113Y-30.499
X100.122Y-34.209
X100.29Y-32.475
X100.416Y-29.404
X102.204Y-29.201
X102.216Y-26.811
X102.219Y-28.407
X102.679Y-27.879
X102.939Y-26.414
X103.8Y-32.955
X104.404Y-28.836
X105.905Y-30.058
X106.214Y-29.414
X106.662Y-40.587
X107.271Y-31.188
X107.913Y-35.036
X109.255Y-29.442
X109.901Y-28.961
X110.115Y-26.335
X110.543Y-29.796
X110.772Y-37.206
X111.195Y-29.74
X111.204Y-34.304
X111.211Y-32.9
X111.272Y-32.143
X111.405Y-26.371
X111.537Y-33.7
X111.767Y-27.022
X111.936Y-31.841
X112.25Y-26.54
X112.25Y-35.652
X112.417Y-34.319
X112.653Y-30.259
X112.762Y-26.083
X113.1Y-40.834
X113.25Y-27.454
X113.336Y-30.266
X113.546Y-35.646
X113.9Y-40.832
X114.466Y-35.653
X114.523Y-24.564
X114.719Y-26.439
X114.965Y-32.143
X115.179Y-26.9
X115.606Y-34.322
X115.75Y-27.366
X116.185Y-31.135
X116.25Y-26.945
X116.289Y-35.414
X116.3Y-40.842
X116.646Y-30.675
X116.94Y-35.381
X117.153Y-27.39
X117.472Y-31.198
X117.592Y-35.572
X118.045Y-30.396
X118.206Y-41.047
X118.25Y-27.367
X118.25Y-35.628
X118.723Y-30.275
X118.843Y-42.2
X119.214Y-27.13
X119.285Y-34.317
X119.322Y-31.942
X119.344Y-38.764
X119.677Y-40.834
X119.75Y-35.635
X119.809Y-31.058
X119.887Y-27.107
X119.887Y-30.387
X120.355Y-35.301
X120.651Y-40.833
X120.711Y-31.753
X121.035Y-35.297
X121.118Y-27.455
X121.176Y-41.264
X121.622Y-35.631
X121.699Y-40.856
X122.3Y-41.2
X122.348Y-32.895
X122.41Y-27.313
X122.588Y-38.819
X122.875Y-40.832
X122.986Y-32.257
X123.009Y-35.535
X123.158Y-25.934
X123.5Y-41.155
X123.552Y-32.613
X123.637Y-42.509
X123.88Y-30.51
X123.905Y-27.265
X123.934Y-35.55
X124.093Y-31.161
X124.188Y-41.021
X124.204Y-32.417
X124.75Y-35.556
X124.793Y-26.742
X124.92Y-37.802
X125.012Y-33.446
X125.105Y-34.55
X125.369Y-39.419
X125.434Y-27.45
X125.438Y-42.165
X125.492Y-41.022
X125.861Y-36.845
X126.02Y-39.256
X126.112Y-27.461
X126.157Y-32.016
X126.257Y-30.555
X126.764Y-27.458
X126.777Y-33.7
X126.798Y-32.668
X126.909Y-30.86
X127.419Y-38.977
X127.482Y-37.172
X127.483Y-38.074
X127.573Y-27.462
X128.209Y-37.525
X128.283Y-38.977
X128.569Y-41.512
X128.573Y-27.462
X128.589Y-34.5
X128.589Y-32.1
X128.816Y-30.558
X128.903Y-36.834
X129.428Y-27.461
X129.437Y-41.035
X129.52Y-40.269
X130.027Y-31.49
X130.065Y-39.166
X130.204Y-33.7
X130.387Y-35.146
X130.528Y-35.927
X130.909Y-30.116
X132.558Y-39.019
X132.604Y-42.642
X133.25Y-39.031
X133.458Y-33.428
X133.554Y-36.877
X133.757Y-27.28
X133.792Y-28.6
X133.794Y-27.933
X133.801Y-29.838
X134.074Y-39.002
X134.748Y-39.002
X135.065Y-36.889
X135.58Y-29.4
X135.589Y-26.816
X135.75Y-39.067
X135.771Y-32.579
X136.335Y-24.564
X136.335Y-25.956
X137.208Y-27.6
X137.227Y-39.401
X137.418Y-28.886
X137.75Y-39.002
X137.793Y-28.065
X137.846Y-33.544
X137.901Y-29.95
X138.255Y-36.684
X139.225Y-26.391
X139.227Y-30.002
X141.205Y-29.415
X141.206Y-28.402
M30
