%TF.GenerationSoftware,KiCad,Pcbnew,10.99.0-2630-ge98e17ed18*%
%TF.CreationDate,2026-08-21T02:08:58+07:00*%
%TF.ProjectId,koyomi-lvds-hat,6b6f796f-6d69-42d6-9c76-64732d686174,rev?*%
%TF.SameCoordinates,Original*%
%TF.FileFunction,Copper,L1,Top*%
%TF.FilePolarity,Positive*%
%FSLAX46Y46*%
G04 Gerber Fmt 4.6, Leading zero omitted, Abs format (unit mm)*
G04 Created by KiCad (PCBNEW 10.99.0-2630-ge98e17ed18) date 2026-08-21 02:08:58*
%MOMM*%
%LPD*%
G01*
G04 APERTURE LIST*
G04 Aperture macros list*
%AMRoundRect*
0 Rectangle with rounded corners*
0 $1 Rounding radius*
0 $2 $3 $4 $5 $6 $7 $8 $9 X,Y pos of 4 corners*
0 Add a 4 corners polygon primitive as box body*
4,1,4,$2,$3,$4,$5,$6,$7,$8,$9,$2,$3,0*
0 Add four circle primitives for the rounded corners*
1,1,$1+$1,$2,$3*
1,1,$1+$1,$4,$5*
1,1,$1+$1,$6,$7*
1,1,$1+$1,$8,$9*
0 Add four rect primitives between the rounded corners*
20,1,$1+$1,$2,$3,$4,$5,0*
20,1,$1+$1,$4,$5,$6,$7,0*
20,1,$1+$1,$6,$7,$8,$9,0*
20,1,$1+$1,$8,$9,$2,$3,0*%
%AMFreePoly0*
4,1,23,0.500000,-0.750000,0.000000,-0.750000,0.000000,-0.745722,-0.065263,-0.745722,-0.191342,-0.711940,-0.304381,-0.646677,-0.396677,-0.554381,-0.461940,-0.441342,-0.495722,-0.315263,-0.495722,-0.250000,-0.500000,-0.250000,-0.500000,0.250000,-0.495722,0.250000,-0.495722,0.315263,-0.461940,0.441342,-0.396677,0.554381,-0.304381,0.646677,-0.191342,0.711940,-0.065263,0.745722,0.000000,0.745722,
0.000000,0.750000,0.500000,0.750000,0.500000,-0.750000,0.500000,-0.750000,$1*%
%AMFreePoly1*
4,1,23,0.000000,0.745722,0.065263,0.745722,0.191342,0.711940,0.304381,0.646677,0.396677,0.554381,0.461940,0.441342,0.495722,0.315263,0.495722,0.250000,0.500000,0.250000,0.500000,-0.250000,0.495722,-0.250000,0.495722,-0.315263,0.461940,-0.441342,0.396677,-0.554381,0.304381,-0.646677,0.191342,-0.711940,0.065263,-0.745722,0.000000,-0.745722,0.000000,-0.750000,-0.500000,-0.750000,
-0.500000,0.750000,0.000000,0.750000,0.000000,0.745722,0.000000,0.745722,$1*%
G04 Aperture macros list end*
%TA.AperFunction,SMDPad,CuDef*%
%ADD10RoundRect,0.237500X-0.300000X-0.237500X0.300000X-0.237500X0.300000X0.237500X-0.300000X0.237500X0*%
%TD*%
%TA.AperFunction,SMDPad,CuDef*%
%ADD11R,0.250000X0.550000*%
%TD*%
%TA.AperFunction,SMDPad,CuDef*%
%ADD12R,0.300000X1.300000*%
%TD*%
%TA.AperFunction,SMDPad,CuDef*%
%ADD13R,1.800000X2.200000*%
%TD*%
%TA.AperFunction,SMDPad,CuDef*%
%ADD14R,0.800000X0.500000*%
%TD*%
%TA.AperFunction,SMDPad,CuDef*%
%ADD15R,0.800000X0.400000*%
%TD*%
%TA.AperFunction,SMDPad,CuDef*%
%ADD16FreePoly0,-90.000000*%
%TD*%
%TA.AperFunction,SMDPad,CuDef*%
%ADD17FreePoly1,-90.000000*%
%TD*%
%TA.AperFunction,SMDPad,CuDef*%
%ADD18R,0.200000X1.200000*%
%TD*%
%TA.AperFunction,SMDPad,CuDef*%
%ADD19R,1.400000X2.000000*%
%TD*%
%TA.AperFunction,SMDPad,CuDef*%
%ADD20RoundRect,0.375000X-0.375000X0.625000X-0.375000X-0.625000X0.375000X-0.625000X0.375000X0.625000X0*%
%TD*%
%TA.AperFunction,SMDPad,CuDef*%
%ADD21RoundRect,0.500000X-1.400000X0.500000X-1.400000X-0.500000X1.400000X-0.500000X1.400000X0.500000X0*%
%TD*%
%TA.AperFunction,SMDPad,CuDef*%
%ADD22RoundRect,0.009000X-0.141000X0.491000X-0.141000X-0.491000X0.141000X-0.491000X0.141000X0.491000X0*%
%TD*%
%TA.AperFunction,SMDPad,CuDef*%
%ADD23R,0.250000X0.650000*%
%TD*%
%TA.AperFunction,SMDPad,CuDef*%
%ADD24R,0.400000X1.000000*%
%TD*%
%TA.AperFunction,SMDPad,CuDef*%
%ADD25R,0.400000X1.550000*%
%TD*%
%TA.AperFunction,SMDPad,CuDef*%
%ADD26RoundRect,0.237500X-0.250000X-0.237500X0.250000X-0.237500X0.250000X0.237500X-0.250000X0.237500X0*%
%TD*%
%TA.AperFunction,ViaPad*%
%ADD27C,0.500000*%
%TD*%
%TA.AperFunction,ViaPad*%
%ADD28C,0.450000*%
%TD*%
%TA.AperFunction,Conductor*%
%ADD29C,0.150000*%
%TD*%
%TA.AperFunction,Conductor*%
%ADD30C,0.112400*%
%TD*%
G04 APERTURE END LIST*
D10*
%TO.P,C2,1*%
%TO.N,+3V3*%
X111937500Y-38100000D03*
%TO.P,C2,2*%
%TO.N,GND*%
X113662500Y-38100000D03*
%TD*%
D11*
%TO.P,FL1,1,1_1*%
%TO.N,Net-(IC1-Y1P)*%
X128749900Y-37525000D03*
%TO.P,FL1,2,2_2*%
%TO.N,RX1+*%
X128749900Y-38475000D03*
%TO.P,FL1,3,3_3*%
%TO.N,Net-(IC1-Y1M)*%
X129250100Y-37525000D03*
%TO.P,FL1,4,4_4*%
%TO.N,RX1-*%
X129250100Y-38475000D03*
%TO.P,FL1,5,5_5*%
%TO.N,Net-(IC1-Y0P)*%
X129749900Y-37525000D03*
%TO.P,FL1,6,6_6*%
%TO.N,RX0+*%
X129749900Y-38475000D03*
%TO.P,FL1,7,7_7*%
%TO.N,Net-(IC1-Y0M)*%
X130250100Y-37525000D03*
%TO.P,FL1,8,8_8*%
%TO.N,RX0-*%
X130250100Y-38475000D03*
%TD*%
D12*
%TO.P,JBL1,1,Pin_1_1*%
%TO.N,VCD6*%
X132750000Y-37950000D03*
%TO.P,JBL1,2,Pin_2_2*%
%TO.N,VCD5*%
X133250000Y-37950000D03*
%TO.P,JBL1,3,Pin_3_3*%
%TO.N,VCD4*%
X133750000Y-37950000D03*
%TO.P,JBL1,4,Pin_4_4*%
%TO.N,VCD3*%
X134250000Y-37950000D03*
%TO.P,JBL1,5,Pin_5_5*%
%TO.N,VCD2*%
X134750000Y-37950000D03*
%TO.P,JBL1,6,Pin_6_6*%
%TO.N,VCD1*%
X135250000Y-37950000D03*
%TO.P,JBL1,7,Pin_7_7*%
%TO.N,VAD*%
X135750000Y-37950000D03*
%TO.P,JBL1,8,Pin_8_8*%
%TO.N,unconnected-(JBL1-Pin_8-Pad8)*%
X136250000Y-37950000D03*
%TO.P,JBL1,9,Pin_9_9*%
%TO.N,GND*%
X136750000Y-37950000D03*
%TO.P,JBL1,10,Pin_10_10*%
%TO.N,+5V*%
X137250000Y-37950000D03*
%TO.P,JBL1,11,Pin_11_11*%
%TO.N,PWM*%
X137750000Y-37950000D03*
%TO.P,JBL1,12,Pin_12_12*%
%TO.N,EN*%
X138250000Y-37950000D03*
D13*
%TO.P,JBL1,MP*%
%TO.N,N/C*%
X130850000Y-41200000D03*
X140150000Y-41200000D03*
%TD*%
D14*
%TO.P,RN4,1,R1.1_1*%
%TO.N,D18*%
X127600000Y-32100000D03*
D15*
%TO.P,RN4,2,R2.1_2*%
%TO.N,L_CLKIN*%
X127600000Y-32900000D03*
%TO.P,RN4,3,R3.1_3*%
%TO.N,D26*%
X127600000Y-33700000D03*
D14*
%TO.P,RN4,4,R4.1_4*%
%TO.N,D8*%
X127600000Y-34500000D03*
%TO.P,RN4,5,R4.2_5*%
%TO.N,G1*%
X129400000Y-34500000D03*
D15*
%TO.P,RN4,6,R3.2_6*%
%TO.N,ENABLE*%
X129400000Y-33700000D03*
%TO.P,RN4,7,R2.2_7*%
%TO.N,CLKIN*%
X129400000Y-32900000D03*
D14*
%TO.P,RN4,8,R1.2_8*%
%TO.N,B1*%
X129400000Y-32100000D03*
%TD*%
D10*
%TO.P,C6,1*%
%TO.N,+2V5*%
X131637500Y-31000000D03*
%TO.P,C6,2*%
%TO.N,GND*%
X133362500Y-31000000D03*
%TD*%
D14*
%TO.P,RN5,1,R1.1_1*%
%TO.N,D0*%
X134600000Y-27000000D03*
D15*
%TO.P,RN5,2,R2.1_2*%
%TO.N,D12*%
X134600000Y-27800000D03*
%TO.P,RN5,3,R3.1_3*%
%TO.N,D9*%
X134600000Y-28600000D03*
D14*
%TO.P,RN5,4,R4.1_4*%
%TO.N,D19*%
X134600000Y-29400000D03*
%TO.P,RN5,5,R4.2_5*%
%TO.N,B2*%
X136400000Y-29400000D03*
D15*
%TO.P,RN5,6,R3.2_6*%
%TO.N,G2*%
X136400000Y-28600000D03*
%TO.P,RN5,7,R2.2_7*%
%TO.N,G3*%
X136400000Y-27800000D03*
D14*
%TO.P,RN5,8,R1.2_8*%
%TO.N,R0*%
X136400000Y-27000000D03*
%TD*%
D16*
%TO.P,JP1,1,A_1*%
%TO.N,CLKSEL*%
X135000000Y-33350000D03*
D17*
%TO.P,JP1,2,B_2*%
%TO.N,GND*%
X135000000Y-34650000D03*
%TD*%
D18*
%TO.P,J2,1,1_1*%
%TO.N,VAD*%
X112700000Y-39830000D03*
%TO.P,J2,2,2_2*%
X113100000Y-39830000D03*
%TO.P,J2,3,3_3*%
%TO.N,unconnected-(J2-Pad3)*%
X113500000Y-39830000D03*
%TO.P,J2,4,4_4*%
%TO.N,+2V5*%
X113900000Y-39830000D03*
%TO.P,J2,5,5_5*%
X114300000Y-39830000D03*
%TO.P,J2,6,6_6*%
X114700000Y-39830000D03*
%TO.P,J2,7,7_7*%
%TO.N,GND*%
X115100000Y-39830000D03*
%TO.P,J2,8,8_8*%
X115500000Y-39830000D03*
%TO.P,J2,9,9_9*%
X115900000Y-39830000D03*
%TO.P,J2,10,10_10*%
%TO.N,PANEL_ID0*%
X116300000Y-39830000D03*
%TO.P,J2,11,11_11*%
%TO.N,unconnected-(J2-Pad11)*%
X116700000Y-39830000D03*
%TO.P,J2,12,12_12*%
%TO.N,unconnected-(J2-Pad12)*%
X117100000Y-39830000D03*
%TO.P,J2,13,13_13*%
%TO.N,VCD6*%
X117500000Y-39830000D03*
%TO.P,J2,14,14_14*%
%TO.N,VCD5*%
X117900000Y-39830000D03*
%TO.P,J2,15,15_15*%
%TO.N,VCD4*%
X118300000Y-39830000D03*
%TO.P,J2,16,16_16*%
%TO.N,VCD3*%
X118700000Y-39830000D03*
%TO.P,J2,17,17_17*%
%TO.N,VCD2*%
X119100000Y-39830000D03*
%TO.P,J2,18,18_18*%
%TO.N,VCD1*%
X119500000Y-39830000D03*
%TO.P,J2,19,19_19*%
%TO.N,unconnected-(J2-Pad19)*%
X119900000Y-39830000D03*
%TO.P,J2,20,20_20*%
%TO.N,unconnected-(J2-Pad20)*%
X120300000Y-39830000D03*
%TO.P,J2,21,21_21*%
%TO.N,PANEL_ID1*%
X120700000Y-39830000D03*
%TO.P,J2,22,22_22*%
%TO.N,RXCLK+*%
X121100000Y-39830000D03*
%TO.P,J2,23,23_23*%
%TO.N,RXCLK-*%
X121500000Y-39830000D03*
%TO.P,J2,24,24_24*%
%TO.N,RX2+*%
X121900000Y-39830000D03*
%TO.P,J2,25,25_25*%
%TO.N,RX2-*%
X122300000Y-39830000D03*
%TO.P,J2,26,26_26*%
%TO.N,RX1+*%
X122700000Y-39830000D03*
%TO.P,J2,27,27_27*%
%TO.N,RX1-*%
X123100000Y-39830000D03*
%TO.P,J2,28,28_28*%
%TO.N,RX0+*%
X123500000Y-39830000D03*
%TO.P,J2,29,29_29*%
%TO.N,RX0-*%
X123900000Y-39830000D03*
%TO.P,J2,30,30_30*%
%TO.N,LCD_INS*%
X124300000Y-39830000D03*
D19*
%TO.P,J2,S1,SHIELD_S1*%
%TO.N,GND*%
X110200000Y-41200000D03*
%TO.P,J2,S2,SHIELD__1_S2*%
X126800000Y-41200000D03*
%TD*%
D10*
%TO.P,C5,1*%
%TO.N,+2V5*%
X121837500Y-38100000D03*
%TO.P,C5,2*%
%TO.N,GND*%
X123562500Y-38100000D03*
%TD*%
%TO.P,C3,1*%
%TO.N,+3V3*%
X115237500Y-38100000D03*
%TO.P,C3,2*%
%TO.N,GND*%
X116962500Y-38100000D03*
%TD*%
%TO.P,C7,1*%
%TO.N,+3V3*%
X97637500Y-37000000D03*
%TO.P,C7,2*%
%TO.N,GND*%
X99362500Y-37000000D03*
%TD*%
D14*
%TO.P,RN3,1,R1.1_1*%
%TO.N,D20*%
X108600000Y-32100000D03*
D15*
%TO.P,RN3,2,R2.1_2*%
%TO.N,D21*%
X108600000Y-32900000D03*
%TO.P,RN3,3,R3.1_3*%
%TO.N,D22*%
X108600000Y-33700000D03*
D14*
%TO.P,RN3,4,R4.1_4*%
%TO.N,G0*%
X108600000Y-34500000D03*
%TO.P,RN3,5,R4.2_5*%
%TO.N,D7*%
X110400000Y-34500000D03*
D15*
%TO.P,RN3,6,R3.2_6*%
%TO.N,B5*%
X110400000Y-33700000D03*
%TO.P,RN3,7,R2.2_7*%
%TO.N,B4*%
X110400000Y-32900000D03*
D14*
%TO.P,RN3,8,R1.2_8*%
%TO.N,B3*%
X110400000Y-32100000D03*
%TD*%
D20*
%TO.P,U1,1,GND_1*%
%TO.N,GND*%
X106100000Y-31550000D03*
%TO.P,U1,2,VO_2*%
%TO.N,+2V5*%
X103800000Y-31550000D03*
D21*
X103800000Y-37850000D03*
D20*
%TO.P,U1,3,VI_3*%
%TO.N,+3V3*%
X101500000Y-31550000D03*
%TD*%
D14*
%TO.P,RN1,1,R1.1_1*%
%TO.N,D13*%
X99600000Y-27000000D03*
D15*
%TO.P,RN1,2,R2.1_2*%
%TO.N,D15*%
X99600000Y-27800000D03*
%TO.P,RN1,3,R3.1_3*%
%TO.N,D24*%
X99600000Y-28600000D03*
D14*
%TO.P,RN1,4,R4.1_4*%
%TO.N,D25*%
X99600000Y-29400000D03*
%TO.P,RN1,5,R4.2_5*%
%TO.N,VSYNC*%
X101400000Y-29400000D03*
D15*
%TO.P,RN1,6,R3.2_6*%
%TO.N,HSYNC*%
X101400000Y-28600000D03*
%TO.P,RN1,7,R2.2_7*%
%TO.N,B0*%
X101400000Y-27800000D03*
D14*
%TO.P,RN1,8,R1.2_8*%
%TO.N,G4*%
X101400000Y-27000000D03*
%TD*%
D11*
%TO.P,FL2,1,1_1*%
%TO.N,Net-(IC1-CLCKOUTP)*%
X125449900Y-37525000D03*
%TO.P,FL2,2,2_2*%
%TO.N,RXCLK+*%
X125449900Y-38475000D03*
%TO.P,FL2,3,3_3*%
%TO.N,Net-(IC1-CLCKOUTM)*%
X125950100Y-37525000D03*
%TO.P,FL2,4,4_4*%
%TO.N,RXCLK-*%
X125950100Y-38475000D03*
%TO.P,FL2,5,5_5*%
%TO.N,Net-(IC1-Y2P)*%
X126449900Y-37525000D03*
%TO.P,FL2,6,6_6*%
%TO.N,RX2+*%
X126449900Y-38475000D03*
%TO.P,FL2,7,7_7*%
%TO.N,Net-(IC1-Y2M)*%
X126950100Y-37525000D03*
%TO.P,FL2,8,8_8*%
%TO.N,RX2-*%
X126950100Y-38475000D03*
%TD*%
D22*
%TO.P,IC1,1,IOVCC@1_1*%
%TO.N,+3V3*%
X125250000Y-29350000D03*
%TO.P,IC1,2,D5_2*%
%TO.N,GND*%
X124750000Y-29350000D03*
%TO.P,IC1,3,D6_3*%
%TO.N,D6*%
X124250000Y-29350000D03*
%TO.P,IC1,4,D7_4*%
%TO.N,D7*%
X123750000Y-29350000D03*
%TO.P,IC1,5,GND@1_5*%
%TO.N,GND*%
X123250000Y-29350000D03*
%TO.P,IC1,6,D8_6*%
%TO.N,D8*%
X122750000Y-29350000D03*
%TO.P,IC1,7,D9_7*%
%TO.N,D9*%
X122250000Y-29350000D03*
%TO.P,IC1,8,D10_8*%
%TO.N,GND*%
X121750000Y-29350000D03*
%TO.P,IC1,9,VCC@1_9*%
%TO.N,+3V3*%
X121250000Y-29350000D03*
%TO.P,IC1,10,D11_10*%
%TO.N,GND*%
X120750000Y-29350000D03*
%TO.P,IC1,11,D12_11*%
%TO.N,D12*%
X120250000Y-29350000D03*
%TO.P,IC1,12,D13_12*%
%TO.N,D13*%
X119750000Y-29350000D03*
%TO.P,IC1,13,GND@2_13*%
%TO.N,GND*%
X119250000Y-29350000D03*
%TO.P,IC1,14,D14_14*%
%TO.N,D14*%
X118750000Y-29350000D03*
%TO.P,IC1,15,D15_15*%
%TO.N,D15*%
X118250000Y-29350000D03*
%TO.P,IC1,16,D16_16*%
%TO.N,GND*%
X117750000Y-29350000D03*
%TO.P,IC1,17,CLKSEL_17*%
%TO.N,CLKSEL*%
X117250000Y-29350000D03*
%TO.P,IC1,18,D17_18*%
%TO.N,GND*%
X116750000Y-29350000D03*
%TO.P,IC1,19,D18_19*%
%TO.N,D18*%
X116250000Y-29350000D03*
%TO.P,IC1,20,D19_20*%
%TO.N,D19*%
X115750000Y-29350000D03*
%TO.P,IC1,21,GND@3_21*%
%TO.N,GND*%
X115250000Y-29350000D03*
%TO.P,IC1,22,D20_22*%
%TO.N,D20*%
X114750000Y-29350000D03*
%TO.P,IC1,23,D21_23*%
%TO.N,D21*%
X114250000Y-29350000D03*
%TO.P,IC1,24,D22_24*%
%TO.N,D22*%
X113750000Y-29350000D03*
%TO.P,IC1,25,D23_25*%
%TO.N,GND*%
X113250000Y-29350000D03*
%TO.P,IC1,26,IOVCC@2_26*%
%TO.N,+3V3*%
X112750000Y-29350000D03*
%TO.P,IC1,27,D24_27*%
%TO.N,D24*%
X112250000Y-29350000D03*
%TO.P,IC1,28,D25_28*%
%TO.N,D25*%
X111750000Y-29350000D03*
%TO.P,IC1,29,GND@4_29*%
%TO.N,GND*%
X111750000Y-36610000D03*
%TO.P,IC1,30,D26_30*%
%TO.N,D26*%
X112250000Y-36610000D03*
%TO.P,IC1,31,CLKIN_31*%
%TO.N,L_CLKIN*%
X112750000Y-36610000D03*
%TO.P,IC1,32,~{SHTDN}_32*%
%TO.N,SHTDN*%
X113250000Y-36610000D03*
%TO.P,IC1,33,GND@5_33*%
%TO.N,GND*%
X113750000Y-36610000D03*
%TO.P,IC1,34,PLLVCC_34*%
%TO.N,+3V3*%
X114250000Y-36610000D03*
%TO.P,IC1,35,GND@6_35*%
%TO.N,GND*%
X114750000Y-36610000D03*
%TO.P,IC1,36,GND@7_36*%
X115250000Y-36610000D03*
%TO.P,IC1,37,Y3P_37*%
%TO.N,unconnected-(IC1-Y3P-Pad37)*%
X115750000Y-36610000D03*
%TO.P,IC1,38,Y3M_38*%
%TO.N,unconnected-(IC1-Y3M-Pad38)*%
X116250000Y-36610000D03*
%TO.P,IC1,39,CLCKOUTP_39*%
%TO.N,Net-(IC1-CLCKOUTP)*%
X116750000Y-36610000D03*
%TO.P,IC1,40,CLCKOUTM_40*%
%TO.N,Net-(IC1-CLCKOUTM)*%
X117250000Y-36610000D03*
%TO.P,IC1,41,Y2P_41*%
%TO.N,Net-(IC1-Y2P)*%
X117750000Y-36610000D03*
%TO.P,IC1,42,Y2M_42*%
%TO.N,Net-(IC1-Y2M)*%
X118250000Y-36610000D03*
%TO.P,IC1,43,GND@8_43*%
%TO.N,GND*%
X118750000Y-36610000D03*
%TO.P,IC1,44,LVDSVCC_44*%
%TO.N,+3V3*%
X119250000Y-36610000D03*
%TO.P,IC1,45,Y1P_45*%
%TO.N,Net-(IC1-Y1P)*%
X119750000Y-36610000D03*
%TO.P,IC1,46,Y1M_46*%
%TO.N,Net-(IC1-Y1M)*%
X120250000Y-36610000D03*
%TO.P,IC1,47,Y0P_47*%
%TO.N,Net-(IC1-Y0P)*%
X120750000Y-36610000D03*
%TO.P,IC1,48,Y0M_48*%
%TO.N,Net-(IC1-Y0M)*%
X121250000Y-36610000D03*
%TO.P,IC1,49,GND@9_49*%
%TO.N,GND*%
X121750000Y-36610000D03*
%TO.P,IC1,50,D27_50*%
X122250000Y-36610000D03*
%TO.P,IC1,51,D0_51*%
%TO.N,D0*%
X122750000Y-36610000D03*
%TO.P,IC1,52,D1_52*%
%TO.N,D1*%
X123250000Y-36610000D03*
%TO.P,IC1,53,GND@10_53*%
%TO.N,GND*%
X123750000Y-36610000D03*
%TO.P,IC1,54,D2_54*%
%TO.N,D2*%
X124250000Y-36610000D03*
%TO.P,IC1,55,D3_55*%
%TO.N,D3*%
X124750000Y-36610000D03*
%TO.P,IC1,56,D4_56*%
%TO.N,D4*%
X125250000Y-36610000D03*
%TD*%
D14*
%TO.P,RN2,1,R1.1_1*%
%TO.N,unconnected-(RN2-R1.1-Pad1)*%
X103600000Y-27000000D03*
D15*
%TO.P,RN2,2,R2.1_2*%
%TO.N,D2*%
X103600000Y-27800000D03*
%TO.P,RN2,3,R3.1_3*%
%TO.N,D1*%
X103600000Y-28600000D03*
D14*
%TO.P,RN2,4,R4.1_4*%
%TO.N,D14*%
X103600000Y-29400000D03*
%TO.P,RN2,5,R4.2_5*%
%TO.N,G5*%
X105400000Y-29400000D03*
D15*
%TO.P,RN2,6,R3.2_6*%
%TO.N,R1*%
X105400000Y-28600000D03*
%TO.P,RN2,7,R2.2_7*%
%TO.N,R2*%
X105400000Y-27800000D03*
D14*
%TO.P,RN2,8,R1.2_8*%
%TO.N,unconnected-(RN2-R1.2-Pad8)*%
X105400000Y-27000000D03*
%TD*%
%TO.P,RN6,1,R1.1_1*%
%TO.N,unconnected-(RN6-R1.1-Pad1)*%
X138600000Y-27000000D03*
D15*
%TO.P,RN6,2,R2.1_2*%
%TO.N,D6*%
X138600000Y-27800000D03*
%TO.P,RN6,3,R3.1_3*%
%TO.N,D4*%
X138600000Y-28600000D03*
D14*
%TO.P,RN6,4,R4.1_4*%
%TO.N,D3*%
X138600000Y-29400000D03*
%TO.P,RN6,5,R4.2_5*%
%TO.N,R3*%
X140400000Y-29400000D03*
D15*
%TO.P,RN6,6,R3.2_6*%
%TO.N,R4*%
X140400000Y-28600000D03*
%TO.P,RN6,7,R2.2_7*%
%TO.N,R5*%
X140400000Y-27800000D03*
D14*
%TO.P,RN6,8,R1.2_8*%
%TO.N,unconnected-(RN6-R1.2-Pad8)*%
X140400000Y-27000000D03*
%TD*%
D10*
%TO.P,C8,1*%
%TO.N,+2V5*%
X101637500Y-40000000D03*
%TO.P,C8,2*%
%TO.N,GND*%
X103362500Y-40000000D03*
%TD*%
D23*
%TO.P,JFFC1,1,3.3V_1*%
%TO.N,+3V3*%
X129750000Y-28190000D03*
%TO.P,JFFC1,2,5V_2*%
%TO.N,+5V*%
X129250000Y-28190000D03*
%TO.P,JFFC1,3,BCM2_SDA_3*%
%TO.N,VSYNC*%
X128750000Y-28190000D03*
%TO.P,JFFC1,4,5V_4*%
%TO.N,+5V*%
X128250000Y-28190000D03*
%TO.P,JFFC1,5,BCM3_SCL_5*%
%TO.N,HSYNC*%
X127750000Y-28190000D03*
%TO.P,JFFC1,6,GND_6*%
%TO.N,GND*%
X127250000Y-28190000D03*
%TO.P,JFFC1,7,BCM4_GPCLK0_7*%
%TO.N,B0*%
X126750000Y-28190000D03*
%TO.P,JFFC1,8,BCM14_TXD_8*%
%TO.N,G4*%
X126250000Y-28190000D03*
%TO.P,JFFC1,9,GND_9*%
%TO.N,GND*%
X125750000Y-28190000D03*
%TO.P,JFFC1,10,BCM15_RXD_10*%
%TO.N,G5*%
X125250000Y-28190000D03*
%TO.P,JFFC1,11,BCM17_11*%
%TO.N,R1*%
X124750000Y-28190000D03*
%TO.P,JFFC1,12,BCM18_PCM_C_12*%
%TO.N,R2*%
X124250000Y-28190000D03*
%TO.P,JFFC1,13,BCM27_13*%
%TO.N,EN*%
X123749999Y-28190000D03*
%TO.P,JFFC1,14,GND_14*%
%TO.N,GND*%
X123249999Y-28190000D03*
%TO.P,JFFC1,15,BCM22_15*%
%TO.N,GP22*%
X122749999Y-28190000D03*
%TO.P,JFFC1,16,BCM23_16*%
%TO.N,SDA*%
X122249999Y-28190000D03*
%TO.P,JFFC1,17,3.3V_17*%
%TO.N,PANEL_ID0*%
X121749999Y-28190000D03*
%TO.P,JFFC1,18,BCM24_18*%
%TO.N,SCL*%
X121249999Y-28190000D03*
%TO.P,JFFC1,19,BCM10_MOSI_19*%
%TO.N,G0*%
X120749999Y-28190000D03*
%TO.P,JFFC1,20,GND_20*%
%TO.N,GND*%
X120249999Y-28190000D03*
%TO.P,JFFC1,21,BCM9_MISO_21*%
%TO.N,B5*%
X119750000Y-28190000D03*
%TO.P,JFFC1,22,BCM25_22*%
%TO.N,GP25*%
X119250000Y-28190000D03*
%TO.P,JFFC1,23,BCM11_SCLK_23*%
%TO.N,G1*%
X118750000Y-28190000D03*
%TO.P,JFFC1,24,BCM8_CE0_24*%
%TO.N,B4*%
X118250000Y-28190000D03*
%TO.P,JFFC1,25,GND_25*%
%TO.N,GND*%
X117750000Y-28189999D03*
%TO.P,JFFC1,26,BCM7_CE1_26*%
%TO.N,B3*%
X117250000Y-28189999D03*
%TO.P,JFFC1,27,BCM0_ID_SD_27*%
%TO.N,CLKIN*%
X116750000Y-28189999D03*
%TO.P,JFFC1,28,BCM1_ID_SC_28*%
%TO.N,ENABLE*%
X116250000Y-28189999D03*
%TO.P,JFFC1,29,BCM5_29*%
%TO.N,B1*%
X115750000Y-28189999D03*
%TO.P,JFFC1,30,GND_30*%
%TO.N,GND*%
X115250000Y-28189999D03*
%TO.P,JFFC1,31,BCM6_31*%
%TO.N,B2*%
X114750000Y-28189999D03*
%TO.P,JFFC1,32,BCM12_PWM0_32*%
%TO.N,G2*%
X114250000Y-28189999D03*
%TO.P,JFFC1,33,BCM13_PWM1_33*%
%TO.N,G3*%
X113750000Y-28189999D03*
%TO.P,JFFC1,34,GND_34*%
%TO.N,PANEL_ID1*%
X113250000Y-28189999D03*
%TO.P,JFFC1,35,BCM19_MISO_PCM_FS_35*%
%TO.N,R3*%
X112750000Y-28189999D03*
%TO.P,JFFC1,36,BCM16_36*%
%TO.N,R0*%
X112250000Y-28189999D03*
%TO.P,JFFC1,37,BCM26_37*%
%TO.N,PWM*%
X111750000Y-28189999D03*
%TO.P,JFFC1,38,BCM20_MOSI_PCM_DI_38*%
%TO.N,R4*%
X111250000Y-28189999D03*
%TO.P,JFFC1,39,GND_39*%
%TO.N,LCD_INS*%
X110750000Y-28189999D03*
%TO.P,JFFC1,40,BCM21_SCLK_PCM_DO_40*%
%TO.N,R5*%
X110250000Y-28189999D03*
D24*
%TO.P,JFFC1,41*%
%TO.N,N/C*%
X128750000Y-22410001D03*
%TO.P,JFFC1,42*%
X126250000Y-22410001D03*
%TO.P,JFFC1,43*%
X123750000Y-22410001D03*
%TO.P,JFFC1,44*%
X121250000Y-22410000D03*
%TO.P,JFFC1,45*%
X118750001Y-22410000D03*
%TO.P,JFFC1,46*%
X116250001Y-22410000D03*
%TO.P,JFFC1,47*%
X113750000Y-22410000D03*
%TO.P,JFFC1,48*%
X111250000Y-22410000D03*
D25*
%TO.P,JFFC1,49*%
X109000000Y-22940000D03*
%TO.P,JFFC1,50*%
X131000000Y-22940001D03*
%TD*%
D16*
%TO.P,JP2,1,A_1*%
%TO.N,SHTDN*%
X139000000Y-33350000D03*
D17*
%TO.P,JP2,2,B_2*%
%TO.N,GND*%
X139000000Y-34650000D03*
%TD*%
D10*
%TO.P,C1,1*%
%TO.N,+3V3*%
X108637500Y-38100000D03*
%TO.P,C1,2*%
%TO.N,GND*%
X110362500Y-38100000D03*
%TD*%
D26*
%TO.P,R1,1*%
%TO.N,+3V3*%
X97587500Y-31200000D03*
%TO.P,R1,2*%
%TO.N,CLKSEL*%
X99412500Y-31200000D03*
%TD*%
D10*
%TO.P,C4,1*%
%TO.N,+2V5*%
X118537500Y-38100000D03*
%TO.P,C4,2*%
%TO.N,GND*%
X120262500Y-38100000D03*
%TD*%
D26*
%TO.P,R2,1*%
%TO.N,+3V3*%
X97587500Y-33500000D03*
%TO.P,R2,2*%
%TO.N,SHTDN*%
X99412500Y-33500000D03*
%TD*%
D27*
%TO.N,+3V3*%
X110771700Y-37206000D03*
X126257100Y-30555300D03*
X98363300Y-37725800D03*
X112652700Y-30259400D03*
X114465600Y-35653400D03*
X128816000Y-30558500D03*
X119284800Y-34317400D03*
%TO.N,GND*%
X107270700Y-31187900D03*
X106662500Y-40586600D03*
X122986300Y-32256900D03*
X129437000Y-41035000D03*
X120711100Y-31753000D03*
X113336300Y-30266400D03*
X133457900Y-33428200D03*
X100096200Y-36266300D03*
%TO.N,Net-(IC1-Y1P)*%
X119750000Y-35635400D03*
X128208900Y-37525000D03*
%TO.N,RX1+*%
X122875400Y-40832100D03*
X128282700Y-38976700D03*
%TO.N,Net-(IC1-Y1M)*%
X128902600Y-36833500D03*
X120354900Y-35301000D03*
%TO.N,Net-(IC1-Y0P)*%
X130387200Y-35145800D03*
X121034700Y-35296900D03*
%TO.N,RX0+*%
X123500000Y-41154600D03*
X129519600Y-40269000D03*
%TO.N,Net-(IC1-Y0M)*%
X121622100Y-35631400D03*
X130528000Y-35926800D03*
%TO.N,RX0-*%
X130064600Y-39166200D03*
X124187600Y-41021300D03*
%TO.N,VCD6*%
X128569300Y-41511700D03*
X132557700Y-39019000D03*
%TO.N,VCD5*%
X133250000Y-39030900D03*
X132603800Y-42642000D03*
X118842900Y-42200000D03*
%TO.N,VCD4*%
X118206000Y-41046800D03*
X133554100Y-36877400D03*
%TO.N,VCD3*%
X123637500Y-42508700D03*
X134074200Y-39001900D03*
%TO.N,VCD2*%
X134748400Y-39002400D03*
X125437500Y-42165300D03*
%TO.N,VCD1*%
X135065300Y-36888600D03*
X119676900Y-40833600D03*
%TO.N,VAD*%
X113100000Y-40834100D03*
X135750000Y-39066800D03*
%TO.N,+5V*%
X129427600Y-27460700D03*
X137226800Y-39400700D03*
%TO.N,PWM*%
X111767500Y-27022400D03*
X137750000Y-39001700D03*
%TO.N,EN*%
X123905400Y-27264600D03*
X138255400Y-36684500D03*
%TO.N,D18*%
X126156800Y-32015900D03*
X116646100Y-30674600D03*
%TO.N,L_CLKIN*%
X126798100Y-32667700D03*
X112416700Y-34319200D03*
%TO.N,D26*%
X126776700Y-33700000D03*
X112250000Y-35652000D03*
D28*
%TO.N,G1*%
X118750000Y-24100000D03*
D27*
X128588600Y-34500000D03*
%TO.N,ENABLE*%
X130203900Y-33700000D03*
X116250500Y-26944800D03*
D28*
%TO.N,CLKIN*%
X117750000Y-24100000D03*
D27*
X130026700Y-31490100D03*
%TO.N,B1*%
X115750000Y-27366200D03*
X128589200Y-32100000D03*
%TO.N,+2V5*%
X119344100Y-38764100D03*
X119321900Y-31942500D03*
X103800000Y-32955300D03*
X130909200Y-30116000D03*
X113900000Y-40832500D03*
%TO.N,D0*%
X133757000Y-27280000D03*
X122348200Y-32895000D03*
%TO.N,D12*%
X119809400Y-31057600D03*
X133794500Y-27933400D03*
%TO.N,D9*%
X133791600Y-28600000D03*
X123551900Y-32613200D03*
%TO.N,D19*%
X133801000Y-29837700D03*
X116185100Y-31135500D03*
%TO.N,B2*%
X115179500Y-26900100D03*
X135579600Y-29400000D03*
%TO.N,G2*%
X136335100Y-25956500D03*
X136335100Y-24563900D03*
X114718600Y-26439200D03*
X114522600Y-24563900D03*
X137417700Y-28886200D03*
%TO.N,G3*%
X123158000Y-25933800D03*
D28*
X116750000Y-24100000D03*
D27*
X137207600Y-27600300D03*
D28*
X119750000Y-24100000D03*
D27*
%TO.N,R0*%
X112250000Y-26540200D03*
X135589400Y-26816100D03*
%TO.N,CLKSEL*%
X100113200Y-30499300D03*
X117471700Y-31197600D03*
X135771100Y-32578900D03*
%TO.N,PANEL_ID0*%
X116300000Y-40842100D03*
X125012500Y-33446200D03*
X122410300Y-27312700D03*
X115606100Y-34321600D03*
X126908900Y-30860200D03*
%TO.N,PANEL_ID1*%
X113250000Y-27454500D03*
X120651100Y-40833300D03*
%TO.N,RXCLK+*%
X125368700Y-39419100D03*
X121176400Y-41263900D03*
%TO.N,RXCLK-*%
X121699300Y-40856000D03*
X126020500Y-39255700D03*
%TO.N,RX2+*%
X122588400Y-38819500D03*
X127418700Y-38976700D03*
%TO.N,RX2-*%
X122300000Y-41199700D03*
X127482600Y-38074100D03*
%TO.N,LCD_INS*%
X125491900Y-41021900D03*
X110542900Y-29795800D03*
%TO.N,G0*%
X107913500Y-35035600D03*
X121117600Y-27455500D03*
%TO.N,D7*%
X123880100Y-30509600D03*
X111203900Y-34304000D03*
%TO.N,B5*%
X119214300Y-27129600D03*
X111536700Y-33700000D03*
%TO.N,B4*%
X118250000Y-27367100D03*
X111210900Y-32900000D03*
%TO.N,B3*%
X111271900Y-32143000D03*
X117153400Y-27390400D03*
%TO.N,D13*%
X119887300Y-30387000D03*
X119887300Y-27107300D03*
X98783900Y-27189400D03*
%TO.N,D15*%
X98788500Y-27892200D03*
X100289600Y-32475000D03*
X118045200Y-30396000D03*
%TO.N,D24*%
X109255000Y-29442500D03*
X98782400Y-28600000D03*
%TO.N,D25*%
X100416300Y-29404100D03*
X111194700Y-29739900D03*
%TO.N,VSYNC*%
X102204400Y-29201300D03*
X128573300Y-27461600D03*
%TO.N,HSYNC*%
X102219300Y-28407400D03*
X127573500Y-27461800D03*
%TO.N,B0*%
X126763800Y-27458300D03*
X102939100Y-26413800D03*
%TO.N,G4*%
X126112000Y-27461200D03*
X102215800Y-26810900D03*
%TO.N,Net-(IC1-CLCKOUTP)*%
X116288600Y-35414300D03*
X124920400Y-37801800D03*
%TO.N,Net-(IC1-CLCKOUTM)*%
X116940400Y-35381300D03*
X125860700Y-36845100D03*
%TO.N,Net-(IC1-Y2P)*%
X125104600Y-34549500D03*
X117592300Y-35572100D03*
%TO.N,Net-(IC1-Y2M)*%
X127482100Y-37171500D03*
X118250000Y-35628000D03*
%TO.N,D6*%
X124092600Y-31161400D03*
X137792800Y-28064800D03*
%TO.N,D14*%
X114964500Y-32143000D03*
X105905300Y-30058300D03*
X118723200Y-30274600D03*
X111935600Y-31841200D03*
%TO.N,SHTDN*%
X113546200Y-35646000D03*
X137846300Y-33544000D03*
X100122000Y-34209500D03*
%TO.N,D1*%
X104404200Y-28835600D03*
X123008800Y-35534800D03*
%TO.N,D2*%
X123934200Y-35549600D03*
X102679200Y-27879300D03*
%TO.N,D3*%
X139226700Y-30001600D03*
X124750000Y-35556300D03*
%TO.N,D4*%
X124203700Y-32416600D03*
X137901400Y-29949700D03*
%TO.N,G5*%
X125433900Y-27449500D03*
X106213900Y-29413800D03*
%TO.N,R1*%
X124792800Y-26742100D03*
X110115300Y-26335500D03*
D28*
%TO.N,R2*%
X120750000Y-24100000D03*
X115750000Y-24100000D03*
D27*
%TO.N,R3*%
X112762300Y-26083400D03*
X141205400Y-29415000D03*
%TO.N,R4*%
X111405000Y-26370600D03*
X141205500Y-28402400D03*
%TO.N,R5*%
X139225200Y-26391400D03*
X109901000Y-28960600D03*
%TD*%
%TO.N,+3V3*%
D29*
X121250000Y-32352200D02*
X121250000Y-29350000D01*
X108637500Y-38100000D02*
X109402300Y-37335200D01*
X119189500Y-34572900D02*
X119284800Y-34477600D01*
X101100000Y-31950000D02*
X101500000Y-31550000D01*
X128816100Y-30558500D02*
X128816000Y-30558500D01*
X114250000Y-37112500D02*
X114250000Y-36610000D01*
X97587500Y-33500000D02*
X97637500Y-33550000D01*
X97637500Y-33550000D02*
X97637500Y-37000000D01*
X114835400Y-35766700D02*
X114558000Y-35766700D01*
X98512100Y-33206000D02*
X98512100Y-33135900D01*
X119189500Y-36549500D02*
X119250000Y-36610000D01*
X111172700Y-37335200D02*
X111937500Y-38100000D01*
X115237500Y-38100000D02*
X114250000Y-37112500D01*
X109402300Y-37335200D02*
X110771700Y-37335200D01*
D30*
X98849100Y-32798900D02*
X98849100Y-31950000D01*
D29*
X114465700Y-35653400D02*
X114465600Y-35653400D01*
X112750000Y-30162100D02*
X112652700Y-30259400D01*
X98849100Y-31950000D02*
X101100000Y-31950000D01*
X114558000Y-35766700D02*
X114465700Y-35674400D01*
X119284800Y-34317400D02*
X121250000Y-32352200D01*
X98337500Y-31950000D02*
X98849100Y-31950000D01*
X114465700Y-35674400D02*
X114465700Y-35653400D01*
X97637500Y-37000000D02*
X98363300Y-37725800D01*
X112750000Y-29350000D02*
X112750000Y-30162100D01*
X110771700Y-37335200D02*
X111172700Y-37335200D01*
X97587500Y-33500000D02*
X97881500Y-33206000D01*
X114558000Y-35766700D02*
X114250000Y-36074700D01*
X119284800Y-34477600D02*
X119284800Y-34317400D01*
X97587500Y-31200000D02*
X98337500Y-31950000D01*
X129750000Y-28741700D02*
X128816100Y-29675600D01*
X114250000Y-36074700D02*
X114250000Y-36610000D01*
X97881500Y-33206000D02*
X98512100Y-33206000D01*
X125250000Y-29350000D02*
X126257100Y-30357100D01*
X128816100Y-29675600D02*
X128816100Y-30558500D01*
X129750000Y-28190000D02*
X129750000Y-28741700D01*
X110771700Y-37206000D02*
X110771700Y-37335200D01*
X98512100Y-33135900D02*
X98849100Y-32798900D01*
X116029200Y-34572900D02*
X114835400Y-35766700D01*
X119189500Y-34572900D02*
X119189500Y-36549500D01*
X119189500Y-34572900D02*
X116029200Y-34572900D01*
X126257100Y-30357100D02*
X126257100Y-30555300D01*
%TO.N,GND*%
X119250000Y-29350000D02*
X119250000Y-31431100D01*
X119508500Y-31431100D02*
X119250000Y-31431100D01*
X118750000Y-37153900D02*
X118932800Y-37336700D01*
X115900000Y-39079100D02*
X115900000Y-39004800D01*
X115900000Y-39830000D02*
X115900000Y-39079100D01*
X121750000Y-29350000D02*
X121750000Y-31020600D01*
X115900000Y-39004800D02*
X115900000Y-39003300D01*
X119644900Y-25450000D02*
X119644900Y-25550000D01*
X118294900Y-23950000D02*
X118344900Y-23900000D01*
X127250000Y-28190000D02*
X127250000Y-28741700D01*
X118294900Y-26619600D02*
X118294900Y-23950000D01*
X135000000Y-34650000D02*
X136750000Y-36400000D01*
X118344900Y-23900000D02*
X118344900Y-23850000D01*
X123250000Y-28190000D02*
X123250000Y-27638300D01*
X117750000Y-27164500D02*
X117750000Y-28190000D01*
X111750000Y-36610000D02*
X111750000Y-34275300D01*
X120094900Y-26550000D02*
X120127900Y-26619600D01*
X133362500Y-33330600D02*
X133362500Y-31000000D01*
X123250000Y-27638300D02*
X123250000Y-27382600D01*
X119794900Y-25800000D02*
X119794900Y-25850000D01*
X115250000Y-29350000D02*
X115250000Y-31431900D01*
X120698300Y-27190000D02*
X120250000Y-27638300D01*
X113154800Y-38100000D02*
X113662500Y-38100000D01*
X123895200Y-31638100D02*
X124290100Y-31638100D01*
X114363100Y-41393600D02*
X115100000Y-40656700D01*
X110200000Y-40586600D02*
X110200000Y-39973300D01*
X118750000Y-36610000D02*
X118750000Y-35411300D01*
X110362500Y-39810800D02*
X110362500Y-38824900D01*
X127891700Y-41035000D02*
X127726700Y-41200000D01*
X119394900Y-24900000D02*
X119394900Y-25000000D01*
X139000000Y-34650000D02*
X137212100Y-36437900D01*
X123250000Y-30992900D02*
X123895200Y-31638100D01*
X110200000Y-41200000D02*
X111126700Y-41200000D01*
X119613800Y-31536400D02*
X119508500Y-31431100D01*
X111126700Y-41200000D02*
X111320300Y-41393600D01*
X119744900Y-25750000D02*
X119794900Y-25800000D01*
X115250000Y-36610000D02*
X115250000Y-37075400D01*
X115250000Y-28190000D02*
X115250000Y-29350000D01*
X123250000Y-28190000D02*
X123250000Y-29350000D01*
X119594900Y-25400000D02*
X119644900Y-25450000D01*
X125750000Y-28190000D02*
X125750000Y-28741700D01*
X129437000Y-41035000D02*
X127891700Y-41035000D01*
X123250000Y-29350000D02*
X123250000Y-30992900D01*
X115900000Y-39004800D02*
X116804800Y-38100000D01*
X120044900Y-26400000D02*
X120094900Y-26450000D01*
X120711100Y-31753000D02*
X120249700Y-31291500D01*
X123750000Y-37697000D02*
X123750000Y-36610000D01*
X121750000Y-31020600D02*
X122986300Y-32256900D01*
X119194900Y-23900000D02*
X119194900Y-24000000D01*
X123562500Y-37884500D02*
X123562500Y-38100000D01*
X115100000Y-39830000D02*
X115100000Y-39003300D01*
X114593400Y-31431900D02*
X115250000Y-31431900D01*
X119194900Y-24000000D02*
X119244900Y-24050000D01*
X121086900Y-26801400D02*
X120698300Y-27190000D01*
X118750000Y-35411300D02*
X118219600Y-34880900D01*
X134681900Y-34650000D02*
X133459000Y-33427100D01*
X125750000Y-28741700D02*
X127250000Y-28741700D01*
X119444900Y-25050000D02*
X119444900Y-25100000D01*
X123562500Y-37884500D02*
X123750000Y-37697000D01*
X122250000Y-37092300D02*
X123042200Y-37884500D01*
X120044900Y-26100000D02*
X120044900Y-26400000D01*
X115100000Y-39830000D02*
X115100000Y-40656700D01*
X111320300Y-41393600D02*
X114363100Y-41393600D01*
X116199200Y-37336700D02*
X116962500Y-38100000D01*
X121025800Y-37336700D02*
X120262500Y-38100000D01*
X120249700Y-31291500D02*
X120004800Y-31536400D01*
X100096200Y-36266300D02*
X99362500Y-37000000D01*
X118344900Y-23850000D02*
X118544900Y-23650000D01*
X118544900Y-23650000D02*
X118944900Y-23650000D01*
X119294900Y-24750000D02*
X119344900Y-24800000D01*
X107270700Y-31187900D02*
X106462100Y-31187900D01*
X118944900Y-23650000D02*
X119194900Y-23900000D01*
X133459000Y-33427100D02*
X133457900Y-33428200D01*
X119499200Y-37336700D02*
X120262500Y-38100000D01*
X116782200Y-31212700D02*
X117122800Y-30872100D01*
X119594900Y-25350000D02*
X119594900Y-25400000D01*
X120004800Y-31536400D02*
X119613800Y-31536400D01*
X120094900Y-26450000D02*
X120094900Y-26550000D01*
X115300100Y-39003300D02*
X115500000Y-39203200D01*
X121750000Y-36610000D02*
X122250000Y-36610000D01*
X112429900Y-38824900D02*
X113154800Y-38100000D01*
X119744900Y-25700000D02*
X119744900Y-25750000D01*
X119694900Y-25650000D02*
X119744900Y-25700000D01*
X119444900Y-25100000D02*
X119494900Y-25150000D01*
X121510800Y-37314600D02*
X121488700Y-37336700D01*
X119244900Y-24650000D02*
X119294900Y-24700000D01*
X119794900Y-25850000D02*
X120044900Y-26100000D01*
X120286100Y-31163800D02*
X120750000Y-30699900D01*
X130409400Y-29639300D02*
X132001800Y-29639300D01*
X115511300Y-37336700D02*
X116199200Y-37336700D01*
X112035100Y-37375900D02*
X111750000Y-37090800D01*
X120698300Y-27190000D02*
X120127900Y-26619600D01*
X113750000Y-37288400D02*
X113662500Y-37375900D01*
X116750000Y-30104300D02*
X116750000Y-29350000D01*
X117243800Y-31674300D02*
X117669200Y-31674300D01*
X111750000Y-37090800D02*
X111750000Y-36610000D01*
X117912400Y-31431100D02*
X119250000Y-31431100D01*
X111750000Y-34275300D02*
X114593400Y-31431900D01*
X127385600Y-28877300D02*
X127250000Y-28741700D01*
X110200000Y-41200000D02*
X110200000Y-40586600D01*
X115100000Y-39003300D02*
X115300100Y-39003300D01*
X115500000Y-39003300D02*
X115900000Y-39003300D01*
X121488700Y-37336700D02*
X121025800Y-37336700D01*
X124290100Y-31638100D02*
X124750000Y-31178200D01*
X121777900Y-37092300D02*
X121555600Y-37314600D01*
X113662500Y-37375900D02*
X112035100Y-37375900D01*
X118932800Y-37336700D02*
X119499200Y-37336700D01*
X116382700Y-31612200D02*
X116782200Y-31212700D01*
X135000000Y-34650000D02*
X134681900Y-34650000D01*
X119344900Y-24800000D02*
X119344900Y-24850000D01*
X119544900Y-25250000D02*
X119544900Y-25300000D01*
X124750000Y-31178200D02*
X124750000Y-29350000D01*
X103949100Y-40586600D02*
X103362500Y-40000000D01*
X133459000Y-33427100D02*
X133362500Y-33330600D01*
X127385600Y-31057700D02*
X127385600Y-28877300D01*
X113250000Y-29350000D02*
X113250000Y-30180100D01*
X115250000Y-31431900D02*
X115430300Y-31612200D01*
X118219600Y-34880900D02*
X116147900Y-34880900D01*
X115500000Y-39203200D02*
X115500000Y-39003300D01*
X119544900Y-25300000D02*
X119594900Y-25350000D01*
X136750000Y-37375200D02*
X136750000Y-37950000D01*
X119494900Y-25150000D02*
X119494900Y-25200000D01*
X128991000Y-31057700D02*
X130409400Y-29639300D01*
X119344900Y-24850000D02*
X119394900Y-24900000D01*
X110362500Y-38824900D02*
X112429900Y-38824900D01*
X110200000Y-39973300D02*
X110362500Y-39810800D01*
X113250000Y-30180100D02*
X113336300Y-30266400D01*
X116147900Y-34880900D02*
X115250000Y-35778800D01*
X119294900Y-24700000D02*
X119294900Y-24750000D01*
X124908700Y-31336900D02*
X127106400Y-31336900D01*
X113662500Y-38100000D02*
X113662500Y-37375900D01*
X106662500Y-40586600D02*
X103949100Y-40586600D01*
X116782200Y-31212700D02*
X117243800Y-31674300D01*
X119694900Y-25600000D02*
X119694900Y-25650000D01*
X123042200Y-37884500D02*
X123562500Y-37884500D01*
X113750000Y-36610000D02*
X113750000Y-37288400D01*
X116804800Y-38100000D02*
X116962500Y-38100000D01*
X122250000Y-37092300D02*
X121777900Y-37092300D01*
X137212100Y-36437900D02*
X137212100Y-36887700D01*
X122250000Y-36610000D02*
X122250000Y-37092300D01*
X120249700Y-31291500D02*
X120286100Y-31255100D01*
X118294900Y-26619600D02*
X117750000Y-27164500D01*
X126800000Y-41200000D02*
X127726700Y-41200000D01*
X120250000Y-28190000D02*
X120250000Y-27638300D01*
X119494900Y-25200000D02*
X119544900Y-25250000D01*
X117750000Y-28190000D02*
X117750000Y-29350000D01*
X120750000Y-30699900D02*
X120750000Y-29350000D01*
X123250000Y-27382600D02*
X122668800Y-26801400D01*
X127385600Y-31057700D02*
X128991000Y-31057700D01*
X119244900Y-24050000D02*
X119244900Y-24650000D01*
X136750000Y-36400000D02*
X136750000Y-37375200D01*
X117122800Y-30477100D02*
X116750000Y-30104300D01*
X127106400Y-31336900D02*
X127385600Y-31057700D01*
X132001800Y-29639300D02*
X133362500Y-31000000D01*
X119394900Y-25000000D02*
X119444900Y-25050000D01*
X121555600Y-37314600D02*
X121510800Y-37314600D01*
X115250000Y-37075400D02*
X115511300Y-37336700D01*
X120286100Y-31255100D02*
X120286100Y-31163800D01*
X118750000Y-36610000D02*
X118750000Y-37153900D01*
X119644900Y-25550000D02*
X119694900Y-25600000D01*
X106462100Y-31187900D02*
X106100000Y-31550000D01*
X114750000Y-36610000D02*
X115250000Y-36610000D01*
X110200000Y-40586600D02*
X106662500Y-40586600D01*
X115430300Y-31612200D02*
X116382700Y-31612200D01*
X115250000Y-35778800D02*
X115250000Y-36610000D01*
X117122800Y-30872100D02*
X117122800Y-30477100D01*
D30*
X136750000Y-37349800D02*
X136750000Y-37375200D01*
D29*
X110362500Y-38824900D02*
X110362500Y-38100000D01*
X124750000Y-31178200D02*
X124908700Y-31336900D01*
X115500000Y-39203200D02*
X115500000Y-39830000D01*
D30*
X137212100Y-36887700D02*
X136750000Y-37349800D01*
D29*
X117669200Y-31674300D02*
X117912400Y-31431100D01*
X122668800Y-26801400D02*
X121086900Y-26801400D01*
%TO.N,Net-(IC1-Y1P)*%
X128749900Y-37525000D02*
X128208900Y-37525000D01*
X119750000Y-36610000D02*
X119750000Y-35635400D01*
%TO.N,RX1+*%
X128749900Y-38976700D02*
X128282700Y-38976700D01*
X128749900Y-38475000D02*
X128749900Y-38976700D01*
X122700000Y-40656700D02*
X122875400Y-40832100D01*
X122700000Y-39830000D02*
X122700000Y-40656700D01*
%TO.N,Net-(IC1-Y1M)*%
X120250000Y-36610000D02*
X120354900Y-36505100D01*
X129092400Y-37023300D02*
X128902600Y-36833500D01*
X129250100Y-37023300D02*
X129092400Y-37023300D01*
X120354900Y-36505100D02*
X120354900Y-35301000D01*
X129250100Y-37525000D02*
X129250100Y-37023300D01*
%TO.N,RX1-*%
X129248600Y-38986100D02*
X129248600Y-38476500D01*
X128338900Y-39895800D02*
X129248600Y-38986100D01*
X124892000Y-39616500D02*
X125171300Y-39895800D01*
X123100000Y-39830000D02*
X123100000Y-39003300D01*
X129248600Y-38476500D02*
X129250100Y-38475000D01*
X124892000Y-39359000D02*
X124892000Y-39616500D01*
X124536300Y-39003300D02*
X124892000Y-39359000D01*
X123100000Y-39003300D02*
X124536300Y-39003300D01*
X125171300Y-39895800D02*
X128338900Y-39895800D01*
%TO.N,Net-(IC1-Y0P)*%
X129749900Y-35783100D02*
X130387200Y-35145800D01*
X129749900Y-37525000D02*
X129749900Y-35783100D01*
X120750000Y-36610000D02*
X120750000Y-35581600D01*
X120750000Y-35581600D02*
X121034700Y-35296900D01*
%TO.N,RX0+*%
X123500000Y-39830000D02*
X123500000Y-41154600D01*
X129550300Y-40238300D02*
X129519600Y-40269000D01*
X129749900Y-38804900D02*
X129550300Y-39004500D01*
X129550300Y-39004500D02*
X129550300Y-40238300D01*
X129749900Y-38475000D02*
X129749900Y-38804900D01*
%TO.N,Net-(IC1-Y0M)*%
X121250000Y-36610000D02*
X121250000Y-36003500D01*
X121250000Y-36003500D02*
X121622100Y-35631400D01*
X130250100Y-37525000D02*
X130250100Y-37023300D01*
X130250100Y-37023300D02*
X130528000Y-36745400D01*
X130528000Y-36745400D02*
X130528000Y-35926800D01*
%TO.N,RX0-*%
X130250100Y-38976700D02*
X130064600Y-39162200D01*
X123900000Y-39830000D02*
X123900000Y-40656700D01*
X130250100Y-38475000D02*
X130250100Y-38976700D01*
X123900000Y-40656700D02*
X124187600Y-40944300D01*
X130064600Y-39162200D02*
X130064600Y-39166200D01*
X124187600Y-40944300D02*
X124187600Y-41021300D01*
%TO.N,VCD6*%
X132750000Y-37950000D02*
X132750000Y-38826700D01*
X117371200Y-40780800D02*
X117371200Y-41425600D01*
X127404300Y-42676700D02*
X128569300Y-41511700D01*
X132750000Y-38826700D02*
X132557700Y-39019000D01*
X117500000Y-40652000D02*
X117371200Y-40780800D01*
X117371200Y-41425600D02*
X118931000Y-42985400D01*
X117500000Y-39830000D02*
X117500000Y-40652000D01*
X118931000Y-42985400D02*
X123835000Y-42985400D01*
X124143600Y-42676800D02*
X124143600Y-42676700D01*
X124143600Y-42676700D02*
X127404300Y-42676700D01*
X123835000Y-42985400D02*
X124143600Y-42676800D01*
%TO.N,VCD5*%
X133250000Y-37950000D02*
X133250000Y-39030900D01*
X117900000Y-39830000D02*
X117900000Y-40656700D01*
X117900000Y-40678700D02*
X117672900Y-40905800D01*
X118572300Y-42200000D02*
X118842900Y-42200000D01*
X117900000Y-40656700D02*
X117900000Y-40678700D01*
X117672900Y-40905800D02*
X117672900Y-41300600D01*
X117672900Y-41300600D02*
X118572300Y-42200000D01*
%TO.N,VCD4*%
X118300000Y-40952800D02*
X118206000Y-41046800D01*
X118300000Y-39830000D02*
X118300000Y-40952800D01*
X133750000Y-37950000D02*
X133750000Y-37073300D01*
X133554100Y-36877400D02*
X133750000Y-37073300D01*
%TO.N,VCD3*%
X120229400Y-42508700D02*
X123637500Y-42508700D01*
X134250000Y-38826700D02*
X134074800Y-39001900D01*
X134074800Y-39001900D02*
X134074200Y-39001900D01*
X134250000Y-37950000D02*
X134250000Y-38826700D01*
X118700000Y-40979300D02*
X120229400Y-42508700D01*
X118700000Y-39830000D02*
X118700000Y-40979300D01*
%TO.N,VCD2*%
X119100000Y-40952600D02*
X120040400Y-41893000D01*
X134750000Y-39000800D02*
X134748400Y-39002400D01*
X134750000Y-37950000D02*
X134750000Y-39000800D01*
X120040400Y-41893000D02*
X125165200Y-41893000D01*
X125165200Y-41893000D02*
X125437500Y-42165300D01*
X119100000Y-39830000D02*
X119100000Y-40952600D01*
%TO.N,VCD1*%
X119500000Y-40656700D02*
X119676900Y-40833600D01*
X135250000Y-37950000D02*
X135250000Y-37073300D01*
X135065300Y-36888600D02*
X135250000Y-37073300D01*
X119500000Y-39830000D02*
X119500000Y-40656700D01*
%TO.N,VAD*%
X113100000Y-39830000D02*
X113100000Y-40656700D01*
X135750000Y-37950000D02*
X135750000Y-38826700D01*
X112700000Y-39830000D02*
X112700000Y-39003300D01*
X113100000Y-40834100D02*
X113100000Y-40656700D01*
X135750000Y-38826700D02*
X135750000Y-39066800D01*
X113100000Y-39003300D02*
X112700000Y-39003300D01*
X113100000Y-39830000D02*
X113100000Y-39003300D01*
%TO.N,+5V*%
X129250000Y-27638300D02*
X129427600Y-27460700D01*
X128250000Y-28190000D02*
X128250000Y-28741700D01*
X137250000Y-39377500D02*
X137250000Y-37950000D01*
X128250000Y-28741700D02*
X129250000Y-28741700D01*
X129250000Y-28190000D02*
X129250000Y-27638300D01*
X137226800Y-39400700D02*
X137250000Y-39377500D01*
X129250000Y-28190000D02*
X129250000Y-28741700D01*
%TO.N,PWM*%
X137750000Y-37950000D02*
X137750000Y-39001700D01*
X111750000Y-28190000D02*
X111750000Y-27039900D01*
X111750000Y-27039900D02*
X111767500Y-27022400D01*
%TO.N,EN*%
X138255400Y-37067900D02*
X138255400Y-36684500D01*
X138250000Y-37073300D02*
X138255400Y-37067900D01*
X123750000Y-28190000D02*
X123750000Y-27638300D01*
X123750000Y-27638300D02*
X123750000Y-27420000D01*
X138250000Y-37950000D02*
X138250000Y-37073300D01*
X123750000Y-27420000D02*
X123905400Y-27264600D01*
%TO.N,D18*%
X126973300Y-32100000D02*
X126889200Y-32015900D01*
X127600000Y-32100000D02*
X126973300Y-32100000D01*
X126889200Y-32015900D02*
X126156800Y-32015900D01*
X116250000Y-30278500D02*
X116646100Y-30674600D01*
X116250000Y-29350000D02*
X116250000Y-30278500D01*
%TO.N,L_CLKIN*%
D30*
X126992100Y-32861700D02*
X126798100Y-32667700D01*
D29*
X112750000Y-34652500D02*
X112416700Y-34319200D01*
D30*
X127600000Y-32900000D02*
X126992100Y-32900000D01*
D29*
X112750000Y-36610000D02*
X112750000Y-34652500D01*
D30*
X126992100Y-32900000D02*
X126992100Y-32861700D01*
%TO.N,D26*%
D29*
X127600000Y-33700000D02*
X126973300Y-33700000D01*
X126973300Y-33700000D02*
X126776700Y-33700000D01*
X112250000Y-36610000D02*
X112250000Y-35652000D01*
%TO.N,D8*%
X124680400Y-32295500D02*
X126884900Y-34500000D01*
X123770200Y-31939800D02*
X124421000Y-31939800D01*
X124421000Y-31939800D02*
X124680400Y-32199200D01*
X126884900Y-34500000D02*
X127600000Y-34500000D01*
X124680400Y-32199200D02*
X124680400Y-32295500D01*
X122750000Y-29350000D02*
X122750000Y-30919600D01*
X122750000Y-30919600D02*
X123770200Y-31939800D01*
%TO.N,G1*%
X129400000Y-34500000D02*
X128773300Y-34500000D01*
X118750000Y-28190000D02*
X118730000Y-27950000D01*
X118730000Y-27950000D02*
X118730000Y-24300000D01*
X118730000Y-24300000D02*
X118750000Y-24100000D01*
X128773300Y-34500000D02*
X128588600Y-34500000D01*
%TO.N,ENABLE*%
D30*
X130007900Y-33700000D02*
X130203900Y-33700000D01*
D29*
X116250000Y-26945300D02*
X116250500Y-26944800D01*
X116250000Y-28190000D02*
X116250000Y-26945300D01*
D30*
X129400000Y-33700000D02*
X130007900Y-33700000D01*
%TO.N,CLKIN*%
D29*
X117555900Y-26313800D02*
X116671300Y-27198400D01*
X130026700Y-31490100D02*
X130026700Y-32900000D01*
X129400000Y-32900000D02*
X130026700Y-32900000D01*
X116671300Y-27198400D02*
X116671300Y-28111300D01*
X117555900Y-26313800D02*
X117750000Y-24100000D01*
X116671300Y-28111300D02*
X116750000Y-28190000D01*
%TO.N,B1*%
X115750000Y-28190000D02*
X115750000Y-27366200D01*
X128773300Y-32100000D02*
X128589200Y-32100000D01*
X129400000Y-32100000D02*
X128773300Y-32100000D01*
%TO.N,+2V5*%
X119344100Y-38764100D02*
X119201600Y-38764100D01*
X119201600Y-38764100D02*
X118537500Y-38100000D01*
X103800000Y-37850000D02*
X103800000Y-32955300D01*
X113900000Y-40832500D02*
X113900000Y-39830000D01*
X121694099Y-38175000D02*
X121644100Y-38175000D01*
X114300000Y-39003300D02*
X113900000Y-39003300D01*
X101637500Y-40000000D02*
X103787500Y-37850000D01*
X121644100Y-38175000D02*
X121019100Y-38800000D01*
X121019100Y-38800000D02*
X119369100Y-38800000D01*
X114499900Y-39003300D02*
X114300000Y-39203200D01*
X130909200Y-30271700D02*
X130909200Y-30116000D01*
X114700000Y-39003300D02*
X114499900Y-39003300D01*
X121769100Y-38100000D02*
X121694099Y-38175000D01*
X114700000Y-39830000D02*
X114700000Y-39003300D01*
X114300000Y-39203200D02*
X114300000Y-39830000D01*
X119369100Y-38800000D02*
X119344100Y-38764100D01*
X103800000Y-31550000D02*
X103800000Y-32955300D01*
X113900000Y-39830000D02*
X113900000Y-39003300D01*
X131637500Y-31000000D02*
X130909200Y-30271700D01*
X103787500Y-37850000D02*
X103800000Y-37850000D01*
X121837500Y-38100000D02*
X121769100Y-38100000D01*
X114300000Y-39203200D02*
X114300000Y-39003300D01*
%TO.N,D0*%
X133973300Y-27000000D02*
X133757000Y-27216300D01*
X122750000Y-36610000D02*
X122750000Y-36102300D01*
X134600000Y-27000000D02*
X133973300Y-27000000D01*
X122750000Y-36102300D02*
X122348200Y-35700500D01*
X133757000Y-27216300D02*
X133757000Y-27280000D01*
X122348200Y-35700500D02*
X122348200Y-32895000D01*
%TO.N,D12*%
D30*
X133992100Y-27800000D02*
X133927900Y-27800000D01*
D29*
X120383600Y-30605400D02*
X119931400Y-31057600D01*
X120250000Y-30075500D02*
X120383600Y-30209100D01*
D30*
X134600000Y-27800000D02*
X133992100Y-27800000D01*
D29*
X119931400Y-31057600D02*
X119809400Y-31057600D01*
X120383600Y-30209100D02*
X120383600Y-30605400D01*
D30*
X133927900Y-27800000D02*
X133794500Y-27933400D01*
D29*
X120250000Y-29350000D02*
X120250000Y-30075500D01*
%TO.N,D9*%
X123551900Y-32148200D02*
X123551900Y-32613200D01*
X122250000Y-30846300D02*
X123551900Y-32148200D01*
X134600000Y-28600000D02*
X133791600Y-28600000D01*
X122250000Y-29350000D02*
X122250000Y-30846300D01*
%TO.N,D19*%
X115750000Y-30700400D02*
X116185100Y-31135500D01*
X133801000Y-29837700D02*
X133973300Y-29665400D01*
X115750000Y-29350000D02*
X115750000Y-30700400D01*
X134600000Y-29400000D02*
X133973300Y-29400000D01*
X133973300Y-29665400D02*
X133973300Y-29400000D01*
%TO.N,B2*%
X114750000Y-28190000D02*
X114750000Y-27638300D01*
X115179500Y-27208800D02*
X115179500Y-26900100D01*
X135773300Y-29400000D02*
X135579600Y-29400000D01*
X136400000Y-29400000D02*
X135773300Y-29400000D01*
X114750000Y-27638300D02*
X115179500Y-27208800D01*
%TO.N,G2*%
X114250000Y-26907800D02*
X114718600Y-26439200D01*
X114250000Y-28190000D02*
X114250000Y-26907800D01*
X136400000Y-28600000D02*
X137026700Y-28600000D01*
X137312900Y-28886200D02*
X137026700Y-28600000D01*
X137417700Y-28886200D02*
X137312900Y-28886200D01*
%TO.N,G3*%
X113750000Y-26688900D02*
X113750000Y-28190000D01*
D30*
X136400000Y-27800000D02*
X137007900Y-27800000D01*
D29*
X121600000Y-25933800D02*
X123158000Y-25933800D01*
X114505100Y-25933800D02*
X113750000Y-26688900D01*
X119750000Y-24100000D02*
X121600000Y-25933800D01*
D30*
X137007900Y-27800000D02*
X137207600Y-27600300D01*
D29*
X114505100Y-25933800D02*
X115000000Y-25933800D01*
X115000000Y-25933800D02*
X116750000Y-24100000D01*
%TO.N,R0*%
X136400000Y-27000000D02*
X135773300Y-27000000D01*
X135773300Y-27000000D02*
X135589400Y-26816100D01*
X112250000Y-27638300D02*
X112250000Y-26540200D01*
X112250000Y-28190000D02*
X112250000Y-27638300D01*
%TO.N,CLKSEL*%
X117250000Y-30177600D02*
X117250000Y-29350000D01*
X117471700Y-30399300D02*
X117250000Y-30177600D01*
X100113200Y-30499300D02*
X99412500Y-31200000D01*
X135771100Y-32578900D02*
X135000000Y-33350000D01*
X117471700Y-31197600D02*
X117471700Y-30399300D01*
%TO.N,PANEL_ID0*%
X116300000Y-40842100D02*
X116300000Y-39830000D01*
X122084700Y-27638300D02*
X122410300Y-27312700D01*
X121750000Y-27638300D02*
X122084700Y-27638300D01*
X121750000Y-28190000D02*
X121750000Y-27638300D01*
%TO.N,PANEL_ID1*%
X113250000Y-28190000D02*
X113250000Y-27454500D01*
X120700000Y-40784400D02*
X120651100Y-40833300D01*
X120700000Y-39830000D02*
X120700000Y-40784400D01*
%TO.N,RXCLK+*%
X125449900Y-38475000D02*
X125449900Y-38976700D01*
X121100000Y-40561200D02*
X121176400Y-40637600D01*
X125368700Y-39057900D02*
X125368700Y-39419100D01*
X121100000Y-39830000D02*
X121100000Y-40561200D01*
X125449900Y-38976700D02*
X125368700Y-39057900D01*
X121176400Y-40637600D02*
X121176400Y-41263900D01*
%TO.N,RXCLK-*%
X125950100Y-38475000D02*
X125950100Y-39185300D01*
X125950100Y-39185300D02*
X126020500Y-39255700D01*
X121500000Y-40656700D02*
X121699300Y-40856000D01*
X121500000Y-39830000D02*
X121500000Y-40656700D01*
%TO.N,RX2+*%
X122588400Y-38819500D02*
X122083800Y-38819500D01*
X121900000Y-39830000D02*
X121900000Y-39003300D01*
X126449900Y-38976700D02*
X127418700Y-38976700D01*
X122083800Y-38819500D02*
X121900000Y-39003300D01*
X126449900Y-38475000D02*
X126449900Y-38976700D01*
%TO.N,RX2-*%
X122300000Y-39830000D02*
X122300000Y-41199700D01*
X127351000Y-38074100D02*
X126950100Y-38475000D01*
X127482600Y-38074100D02*
X127351000Y-38074100D01*
%TO.N,LCD_INS*%
X125491900Y-41021900D02*
X124300000Y-39830000D01*
X110542900Y-28948800D02*
X110542900Y-29795800D01*
X110750000Y-28190000D02*
X110750000Y-28741700D01*
X110750000Y-28741700D02*
X110542900Y-28948800D01*
%TO.N,D20*%
X114750000Y-30403400D02*
X113788900Y-31364500D01*
X114750000Y-29350000D02*
X114750000Y-30403400D01*
X108600000Y-32100000D02*
X109226700Y-32100000D01*
X113788900Y-31364500D02*
X109962200Y-31364500D01*
X109962200Y-31364500D02*
X109226700Y-32100000D01*
%TO.N,D21*%
X108600000Y-32900000D02*
X107973300Y-32900000D01*
X108644500Y-31062800D02*
X107973300Y-31734000D01*
X114250000Y-29350000D02*
X114250000Y-30476700D01*
X113663900Y-31062800D02*
X108644500Y-31062800D01*
X114250000Y-30476700D02*
X113663900Y-31062800D01*
X107973300Y-31734000D02*
X107973300Y-32900000D01*
%TO.N,D22*%
X113750000Y-29350000D02*
X113815500Y-29415500D01*
X107671600Y-33398300D02*
X107973300Y-33700000D01*
X107671600Y-31609000D02*
X107671600Y-33398300D01*
X108600000Y-33700000D02*
X107973300Y-33700000D01*
X113815500Y-30473600D02*
X113528000Y-30761100D01*
X113815500Y-29415500D02*
X113815500Y-30473600D01*
X113528000Y-30761100D02*
X108519500Y-30761100D01*
X108519500Y-30761100D02*
X107671600Y-31609000D01*
%TO.N,G0*%
X120934800Y-27638300D02*
X121117600Y-27455500D01*
X107973300Y-34500000D02*
X107973300Y-34975800D01*
X107973300Y-34975800D02*
X107913500Y-35035600D01*
X108600000Y-34500000D02*
X107973300Y-34500000D01*
X120750000Y-28190000D02*
X120750000Y-27638300D01*
X120750000Y-27638300D02*
X120934800Y-27638300D01*
%TO.N,D7*%
D30*
X111007900Y-34500000D02*
X111203900Y-34304000D01*
D29*
X123750000Y-30379500D02*
X123880100Y-30509600D01*
X123750000Y-29350000D02*
X123750000Y-30379500D01*
D30*
X110400000Y-34500000D02*
X111007900Y-34500000D01*
%TO.N,B5*%
D29*
X119750000Y-28190000D02*
X119750000Y-27638300D01*
X110400000Y-33700000D02*
X111536700Y-33700000D01*
X119750000Y-27638300D02*
X119723000Y-27638300D01*
X119723000Y-27638300D02*
X119214300Y-27129600D01*
%TO.N,B4*%
X118250000Y-28190000D02*
X118250000Y-27367100D01*
D30*
X110400000Y-32900000D02*
X111007900Y-32900000D01*
X111007900Y-32900000D02*
X111210900Y-32900000D01*
%TO.N,B3*%
D29*
X117250000Y-28190000D02*
X117250000Y-27638300D01*
X117250000Y-27638300D02*
X117153400Y-27541700D01*
X111228900Y-32100000D02*
X111271900Y-32143000D01*
X117153400Y-27541700D02*
X117153400Y-27390400D01*
X110400000Y-32100000D02*
X111228900Y-32100000D01*
%TO.N,D13*%
X98783900Y-27189400D02*
X98973300Y-27000000D01*
X119750000Y-29350000D02*
X119750000Y-30249700D01*
X119750000Y-30249700D02*
X119887300Y-30387000D01*
X99600000Y-27000000D02*
X98973300Y-27000000D01*
%TO.N,D15*%
X98788500Y-27892200D02*
X98881100Y-27892200D01*
X118045200Y-30160000D02*
X118045200Y-30396000D01*
X118250000Y-29955200D02*
X118045200Y-30160000D01*
X118250000Y-29350000D02*
X118250000Y-29955200D01*
X99600000Y-27800000D02*
X98973300Y-27800000D01*
X98881100Y-27892200D02*
X98973300Y-27800000D01*
%TO.N,D24*%
X99600000Y-28600000D02*
X98782400Y-28600000D01*
X110085000Y-30272500D02*
X111863300Y-30272500D01*
X112250000Y-29885800D02*
X112250000Y-29350000D01*
X111863300Y-30272500D02*
X112250000Y-29885800D01*
X109255000Y-29442500D02*
X110085000Y-30272500D01*
%TO.N,D25*%
X99600000Y-29400000D02*
X100226700Y-29400000D01*
X111584600Y-29350000D02*
X111194700Y-29739900D01*
X111750000Y-29350000D02*
X111584600Y-29350000D01*
X100226700Y-29400000D02*
X100412200Y-29400000D01*
X100412200Y-29400000D02*
X100416300Y-29404100D01*
%TO.N,VSYNC*%
X128750000Y-28190000D02*
X128750000Y-27638300D01*
D30*
X102204400Y-29203500D02*
X102204400Y-29201300D01*
D29*
X128750000Y-27638300D02*
X128573300Y-27461600D01*
D30*
X102007900Y-29400000D02*
X102204400Y-29203500D01*
X101400000Y-29400000D02*
X102007900Y-29400000D01*
%TO.N,HSYNC*%
D29*
X102219300Y-28407400D02*
X102026700Y-28600000D01*
X127750000Y-28190000D02*
X127750000Y-27638300D01*
X101400000Y-28600000D02*
X102026700Y-28600000D01*
X127750000Y-27638300D02*
X127573500Y-27461800D01*
%TO.N,B0*%
X102939100Y-26887600D02*
X102939100Y-26413800D01*
X101400000Y-27800000D02*
X102026700Y-27800000D01*
X126750000Y-28190000D02*
X126750000Y-27638300D01*
X126750000Y-27472100D02*
X126763800Y-27458300D01*
X102026700Y-27800000D02*
X102939100Y-26887600D01*
X126750000Y-27638300D02*
X126750000Y-27472100D01*
%TO.N,G4*%
X126250000Y-27599200D02*
X126112000Y-27461200D01*
X101400000Y-27000000D02*
X102026700Y-27000000D01*
X126250000Y-28190000D02*
X126250000Y-27599200D01*
X102026700Y-27000000D02*
X102215800Y-26810900D01*
%TO.N,Net-(IC1-CLCKOUTP)*%
X116750000Y-35875700D02*
X116288600Y-35414300D01*
X116750000Y-36610000D02*
X116750000Y-35875700D01*
X125173100Y-37801800D02*
X125449900Y-37525000D01*
X124920400Y-37801800D02*
X125173100Y-37801800D01*
%TO.N,Net-(IC1-CLCKOUTM)*%
X125950100Y-37525000D02*
X125950100Y-36934500D01*
X116940400Y-35615000D02*
X116940400Y-35381300D01*
X117250000Y-36610000D02*
X117250000Y-35924600D01*
X117250000Y-35924600D02*
X116940400Y-35615000D01*
X125950100Y-36934500D02*
X125860700Y-36845100D01*
%TO.N,Net-(IC1-Y2P)*%
X126449900Y-37525000D02*
X126449900Y-35894800D01*
X117750000Y-35729800D02*
X117592300Y-35572100D01*
X117750000Y-36610000D02*
X117750000Y-35729800D01*
X126449900Y-35894800D02*
X125104600Y-34549500D01*
%TO.N,Net-(IC1-Y2M)*%
X118250000Y-36610000D02*
X118250000Y-35628000D01*
X127333900Y-37023300D02*
X126950100Y-37023300D01*
X127482100Y-37171500D02*
X127333900Y-37023300D01*
X126950100Y-37525000D02*
X126950100Y-37023300D01*
%TO.N,D6*%
D30*
X137792800Y-28064800D02*
X137992100Y-27865500D01*
D29*
X124250000Y-29350000D02*
X124362900Y-29462900D01*
X124362900Y-30891100D02*
X124092600Y-31161400D01*
X124362900Y-29462900D02*
X124362900Y-30891100D01*
D30*
X137992100Y-27865500D02*
X137992100Y-27800000D01*
X138600000Y-27800000D02*
X137992100Y-27800000D01*
%TO.N,D14*%
D29*
X103600000Y-29400000D02*
X104226700Y-29400000D01*
X118750000Y-30247800D02*
X118723200Y-30274600D01*
X118750000Y-29350000D02*
X118750000Y-30247800D01*
X105905300Y-30058300D02*
X104885000Y-30058300D01*
X104885000Y-30058300D02*
X104226700Y-29400000D01*
%TO.N,SHTDN*%
X138806000Y-33544000D02*
X137846300Y-33544000D01*
X113250000Y-36610000D02*
X113250000Y-35942200D01*
X100122000Y-34209500D02*
X99412500Y-33500000D01*
X139000000Y-33350000D02*
X138806000Y-33544000D01*
X113250000Y-35942200D02*
X113546200Y-35646000D01*
%TO.N,D1*%
D30*
X104404200Y-28835600D02*
X104207900Y-28639300D01*
D29*
X123250000Y-35776000D02*
X123008800Y-35534800D01*
D30*
X104207900Y-28639300D02*
X104207900Y-28600000D01*
D29*
X123250000Y-36610000D02*
X123250000Y-35776000D01*
D30*
X103600000Y-28600000D02*
X104207900Y-28600000D01*
%TO.N,D2*%
D29*
X124250000Y-36610000D02*
X124250000Y-35865400D01*
X102679200Y-27879300D02*
X102894000Y-27879300D01*
X102894000Y-27879300D02*
X102973300Y-27800000D01*
X124250000Y-35865400D02*
X123934200Y-35549600D01*
X103600000Y-27800000D02*
X102973300Y-27800000D01*
%TO.N,D3*%
X138600000Y-29400000D02*
X139226700Y-29400000D01*
X124750000Y-36610000D02*
X124750000Y-35556300D01*
X139226700Y-29400000D02*
X139226700Y-30001600D01*
%TO.N,D4*%
X124203700Y-34323000D02*
X124203700Y-32416600D01*
X137973300Y-29877800D02*
X137901400Y-29949700D01*
X138600000Y-28600000D02*
X137973300Y-28600000D01*
X125250000Y-36610000D02*
X125250000Y-35369300D01*
X137973300Y-28600000D02*
X137973300Y-29877800D01*
X125250000Y-35369300D02*
X124203700Y-34323000D01*
%TO.N,G5*%
X106040500Y-29413800D02*
X106213900Y-29413800D01*
X105400000Y-29400000D02*
X106026700Y-29400000D01*
X125250000Y-27633400D02*
X125433900Y-27449500D01*
X125250000Y-28190000D02*
X125250000Y-27633400D01*
X106026700Y-29400000D02*
X106040500Y-29413800D01*
%TO.N,R1*%
X124750000Y-28190000D02*
X124750000Y-26784900D01*
X105400000Y-28600000D02*
X107850800Y-28600000D01*
X107850800Y-28600000D02*
X110115300Y-26335500D01*
X124750000Y-26784900D02*
X124792800Y-26742100D01*
%TO.N,R2*%
X120750000Y-24100000D02*
X122000000Y-25437500D01*
X124312200Y-26413800D02*
X123335900Y-25437500D01*
X114800000Y-25437500D02*
X115750000Y-24100000D01*
X105400000Y-27800000D02*
X106026700Y-27800000D01*
X122000000Y-25437500D02*
X123335900Y-25437500D01*
X124382100Y-27506200D02*
X124382100Y-27067100D01*
X108389200Y-25437500D02*
X106026700Y-27800000D01*
X124250000Y-27638300D02*
X124382100Y-27506200D01*
X124312200Y-26997200D02*
X124312200Y-26413800D01*
X108389200Y-25437500D02*
X114800000Y-25437500D01*
X124382100Y-27067100D02*
X124312200Y-26997200D01*
X124250000Y-28190000D02*
X124250000Y-27638300D01*
%TO.N,R3*%
X141041700Y-29415000D02*
X141026700Y-29400000D01*
X112762300Y-27626000D02*
X112762300Y-26083400D01*
X112750000Y-27638300D02*
X112762300Y-27626000D01*
X141205400Y-29415000D02*
X141041700Y-29415000D01*
X112750000Y-28190000D02*
X112750000Y-27638300D01*
X140400000Y-29400000D02*
X141026700Y-29400000D01*
%TO.N,R4*%
X111405000Y-26370600D02*
X111250000Y-26525600D01*
D30*
X141205500Y-28402400D02*
X141007900Y-28600000D01*
D29*
X111250000Y-26525600D02*
X111250000Y-27638300D01*
X111250000Y-28190000D02*
X111250000Y-27638300D01*
D30*
X140400000Y-28600000D02*
X141007900Y-28600000D01*
%TO.N,R5*%
X139225200Y-26391400D02*
X139225200Y-27233100D01*
D29*
X110250000Y-28190000D02*
X110250000Y-28741700D01*
X110031100Y-28960600D02*
X109901000Y-28960600D01*
D30*
X140400000Y-27800000D02*
X139792100Y-27800000D01*
X139225200Y-27233100D02*
X139792100Y-27800000D01*
D29*
X110250000Y-28741700D02*
X110031100Y-28960600D01*
%TD*%
M02*
